<svg width="7" height="12" viewBox="0 0 7 12" fill="none" xmlns="http://www.w3.org/2000/svg">
<path d="M0.92891 12C1.18768 12 1.39336 11.9068 1.57251 11.7338L6.66161 6.74875C6.8872 6.52246 6.99336 6.28952 7 6.00333C7 5.71714 6.89384 5.47754 6.66161 5.2579L1.57251 0.266223C1.39336 0.093178 1.18104 0 0.92891 0C0.411374 0 0 0.412646 0 0.925125C0 1.17804 0.106161 1.41764 0.291943 1.60399L4.80379 6.00333L0.291943 10.396C0.106161 10.5824 0 10.822 0 11.0749C0 11.5874 0.411374 12 0.92891 12Z" fill="#1781F3"/>
</svg>
