<svg viewBox="0 0 24 24" fill="none" xmlns="http://www.w3.org/2000/svg">
<path fill-rule="evenodd" clip-rule="evenodd" d="M15.9785 1C16.1073 2.28072 15.6433 3.54278 14.9652 4.47043C14.2576 5.38366 13.1255 6.08216 12.023 5.99219C11.8786 4.75984 12.4373 3.44942 13.0627 2.64992C13.7695 1.74263 14.997 1.04753 15.9785 1ZM19.4896 7.97673C19.3673 8.05007 17.3415 9.26552 17.3637 11.7443C17.3899 14.7377 19.9692 15.7272 20 15.7373C19.9846 15.807 19.5961 17.167 18.6286 18.5447C17.8208 19.7597 16.9744 20.9476 15.63 20.9678C14.9907 20.983 14.559 20.7983 14.1092 20.6058C13.6402 20.4051 13.1515 20.196 12.387 20.196C11.5766 20.196 11.0662 20.412 10.574 20.6203C10.1481 20.8006 9.73589 20.9751 9.1548 20.9988C7.87441 21.0461 6.89619 19.7032 6.05904 18.499C4.3855 16.0418 3.08275 11.5746 4.82952 8.53473C5.67592 7.04385 7.21918 6.08377 8.86881 6.0582C9.59524 6.04327 10.292 6.32468 10.9027 6.57138C11.3698 6.76004 11.7866 6.92839 12.128 6.92839C12.4279 6.92839 12.833 6.76677 13.3051 6.5784C14.0492 6.28153 14.9598 5.91822 15.8875 6.01635C16.5219 6.03495 18.3272 6.26819 19.492 7.97527L19.4896 7.97673Z" fill="white"/>
</svg>
