<svg width="356" height="294" viewBox="0 0 356 294" fill="none" xmlns="http://www.w3.org/2000/svg">
<path d="M-316.37 -15.392C-298.214 -25.0006 -281.198 -23.1751 -261.598 -26.4637C-246.606 -28.9877 -237.017 -36.349 -225.761 -45.7336C-213.404 -56.0803 -199.4 -61.1745 -183.253 -62.0115C-147.666 -63.8436 -111.565 -49.3582 -78.3893 -38.4316C-32.7056 -23.3794 13.4856 -9.12468 61.6801 -5.23643C84.634 -3.39116 105.69 -3.53615 127.227 -12.0837C142.213 -18.0149 156.105 -26.3648 170.531 -33.4889C236.968 -66.2952 307.385 -59.8499 378.349 -46.0104C371.851 -48.2906 365.342 -50.5423 358.822 -52.7654C293.308 -64.2324 227.227 -69.4651 166.281 -38.6556C151.156 -31.0109 136.783 -21.6462 120.933 -15.5106C100.747 -7.70119 80.3964 -8.31408 59.0572 -10.0012C9.88724 -13.8894 -37.266 -28.0717 -83.8723 -43.3347C-116.534 -54.0307 -152.233 -68.8851 -187.234 -67.7582C-204.296 -67.2112 -218.208 -61.827 -230.881 -50.6631C-242.441 -40.5141 -252.339 -33.4889 -268.123 -31.347C-286.299 -28.8823 -302.28 -30.5364 -318.657 -20.8026C-334.783 -11.2336 -347.759 -5.04531 -367.339 -5.29575C-367.675 -3.10778 -367.88 -2.00061 -368.354 0.338928C-348.089 0.642082 -333.65 -6.26451 -316.37 -15.392Z" fill="#222222"/>
<path d="M-308.624 -4.4719C-289.018 -12.5845 -271.093 -12.2418 -250.663 -15.359C-236.066 -17.5865 -225.791 -23.9263 -214.318 -32.6387C-201.203 -42.6163 -187.423 -48.0335 -170.822 -49.4306C-133.66 -52.5544 -95.9106 -38.4579 -61.2854 -26.9974C-17.9413 -12.6306 25.706 1.2814 71.5544 4.63584C116.454 7.93097 148.799 -9.6782 188.512 -27.551C262.066 -60.6604 339.771 -50.0106 416.258 -32.2762C410.037 -34.6135 403.798 -36.9113 397.542 -39.1696C325.952 -54.5051 252.707 -63.7117 184.116 -32.7046C166.54 -24.7963 149.847 -14.812 131.835 -7.84611C110.668 0.332401 90.363 1.42638 67.91 -0.208C19.3464 -3.73379 -26.9897 -18.5091 -72.9106 -33.6733C-106.04 -44.6263 -141.937 -58.2286 -177.426 -55.8693C-193.591 -54.7885 -207.497 -49.9051 -220.064 -39.8089C-231.789 -30.3848 -242.017 -23.3003 -257.346 -20.9212C-277.492 -17.8303 -294.91 -18.4762 -313.844 -9.57935C-332.297 -0.919746 -348.7 6.63269 -369.709 6.29659C-370.316 8.73499 -370.652 9.98713 -371.37 12.531C-348.357 12.9066 -329.324 4.09544 -308.624 -4.4719Z" fill="#222222"/>
<path d="M-300.394 7.96376C-278.218 0.49041 -257.972 -0.511314 -235.183 -3.64828C-205.211 -7.77378 -185.697 -31.7887 -155.066 -35.6506C-119.228 -40.1715 -82.6452 -28.5726 -49.0415 -17.4812C-5.92804 -3.26604 37.0075 11.74 82.7175 14.5804C129.403 17.4801 165.096 -3.94484 206.707 -21.4354C286.449 -54.9534 370.85 -39.7431 451.864 -18.3314C446.065 -20.7258 440.243 -23.0632 434.4 -25.3434C357.795 -44.3892 277.591 -57.8136 202.436 -26.5956C160.548 -9.17091 125.218 12.656 78.2823 9.65087C32.4536 6.74456 -10.963 -7.5563 -54.1819 -21.9099C-88.6687 -33.3572 -126.675 -46.7815 -163.659 -42.7285C-195.068 -39.2752 -213.521 -13.7577 -243.948 -9.46088C-266.046 -6.36346 -285.579 -5.50673 -306.899 2.5268C-328.541 10.7185 -349.689 19.4176 -373.295 19.0486C-374.113 21.6847 -374.541 23.0027 -375.444 25.7443C-349.155 26.1265 -324.897 16.2411 -300.394 7.96376Z" fill="#222222"/>
<path d="M-197.851 4.71486C-189.204 1.95354 -181.968 -2.84417 -174.172 -7.30577C-78.8965 -61.8402 26.172 40.7306 125.342 23.0094C166.9 15.5954 202.448 -8.72927 242.214 -21.6659C321.745 -47.5459 406.7 -27.0106 484.3 -4.16881C478.185 -7.02239 475.028 -8.44588 468.53 -11.2863C392.92 -32.4081 311.062 -50.6235 234.147 -25.1456C195.924 -12.4857 161.589 10.9558 121.553 18.1392C55.9204 29.916 -8.8157 -4.75534 -70.5137 -21.0465C-107.927 -30.9319 -150.869 -35.545 -185.184 -14.1662C-192.954 -9.32898 -200.098 -4.22812 -208.909 -1.31523C-224.673 3.91085 -241.201 2.43463 -257.4 4.87962C-298.201 11.0481 -335.877 32.9541 -377.785 32.5587C-378.753 35.3332 -379.248 36.7369 -380.269 39.5641C-334.374 39.9002 -292.039 17.0914 -247.146 10.8108C-230.657 8.53061 -213.905 9.8289 -197.851 4.71486Z" fill="#222222"/>
<path d="M-152.232 7.82546C-116.388 -9.30921 -76.0491 -10.6273 -37.6213 -1.76995C19.2461 11.3644 74.9799 44.1905 135.202 32.4994C178.882 24.0243 216.15 -1.70405 258.248 -14.845C342.188 -41.0479 432.08 -15.8072 512.632 10.2309C507.426 7.33779 504.691 5.89452 499.01 2.98162C419.914 -21.4155 332.844 -44.1453 251.091 -18.384C210.133 -5.50663 173.689 19.3452 131.201 27.5831C31.2733 46.9518 -65.1488 -51.5 -163.311 0.147816C-188.011 13.1504 -209.877 13.2756 -237.299 16.9727C-286.212 23.563 -333.023 46.965 -382.859 46.6948C-383.913 49.555 -384.447 50.9917 -385.495 53.8716C-332.114 54.043 -281.125 30.608 -228.646 23.3719C-201.191 19.5759 -177.546 19.9515 -152.232 7.82546Z" fill="#222222"/>
<path d="M-129.405 23.4246C-92.3739 9.58509 -54.1702 3.77907 -14.8593 11.6478C39.7476 22.5745 89.9654 54.4845 147.551 41.5149C191.244 31.6625 228.506 5.51231 271.013 -7.63526C358.611 -34.7212 453.286 -4.34012 536.1 24.7888C531.967 21.8627 529.753 20.4063 525.061 17.5C443.342 -10.0671 350.795 -37.957 265.016 -11.2072C221.981 2.21059 183.916 28.9077 139.247 37.4487C80.5083 48.6785 27.9576 16.2413 -27.6773 4.5765C-66.1249 -3.46362 -104.922 0.174204 -140.878 15.5954C-166.125 26.4232 -190.509 25.9158 -217.457 29.435C-274.522 36.849 -330.302 61.0682 -388.224 61.0682C-389.305 63.9547 -389.845 65.398 -390.913 68.2713C-329.313 68.1198 -269.454 43.7424 -208.718 35.7682C-181.494 32.2095 -155.403 33.1584 -129.405 23.4246Z" fill="#222222"/>
<path d="M-106.833 39.228C-67.6543 28.9933 -30.2217 18.4687 10.8422 25.9025C59.3136 34.6939 102.15 63.2034 153.212 51.8286C199.857 41.4423 238.648 11.8916 284.2 -1.37458C373.689 -27.4259 470.592 7.91109 553.688 39.485C551.171 36.8645 548.495 34.4017 545.675 32.1105C463.23 1.98645 367.863 -30.8528 279.731 -5.04536C234.614 8.16152 195.732 36.7632 149.521 46.8793C95.672 58.6627 49.3491 28.6309 -1.69247 18.818C-42.0446 11.0612 -79.8727 19.1607 -118.123 31.3395C-143.719 39.4916 -169.929 38.4108 -196.349 41.6269C-262.133 49.634 -326.994 75.1383 -393.569 75.4349C-394.617 78.2885 -395.131 79.7054 -396.139 82.526C-326.197 82.7237 -257.085 56.4945 -187.999 47.914C-160.979 44.5793 -133.359 46.1609 -106.833 39.228Z" fill="#222222"/>
<path d="M-167.235 59.5458C-139.931 56.3693 -112.022 58.7484 -84.8565 54.8601C-45.4665 49.1925 -9.62869 34.1667 31.277 39.5905C78.1272 45.7985 115.276 73.2469 164.354 60.62C209.978 48.8762 247.391 18.2249 292.449 5.20912C382.67 -20.8422 482.426 20.6567 564.561 54.2538C563.322 51.6265 561.799 49.1426 560.02 46.8464C476.759 14.0269 377.147 -24.849 286.722 2.52029C242.205 15.9974 204.509 45.4492 158.937 56.2045C108.726 68.067 68.993 40.2429 21.2005 32.7169C-19.6591 26.2848 -56.0571 38.9512 -95.223 46.9716C-122.625 52.5799 -151.161 50.5567 -178.834 53.9639C-216.075 58.5441 -252.875 66.604 -289.675 73.7346C-325.263 80.661 -362.135 89.5512 -398.559 89.4853C-399.508 92.2467 -399.97 93.6174 -400.846 96.3129C-362.155 96.3129 -322.844 86.9481 -285.016 79.8043C-245.936 72.4495 -206.796 64.1458 -167.235 59.5458Z" fill="#222222"/>
<path d="M-151.668 70.9734C-122.302 67.5728 -94.333 71.1052 -65.2238 70.3671C-53.704 70.0705 -42.4611 67.2301 -31.396 64.2579C-3.61807 56.7978 25.3461 50.7545 54.2773 53.8915C72.2556 55.8685 88.4017 62.4588 105.339 68.2582C128.266 76.1138 150.258 76.2127 173.614 69.2665C216.081 56.6396 250.127 26.2519 292.238 13.0384C382.934 -15.4051 486.908 33.521 567.797 69.1084C567.999 66.6129 567.787 64.1012 567.171 61.6746C485.452 26.9966 383.533 -17.9753 292.93 9.16337C249.211 22.2582 213.32 52.6591 169.198 64.9301C144.986 71.6786 121.92 70.4989 98.32 62.5642C80.0123 56.4221 62.4493 49.1135 43.0937 46.7476C14.716 43.3141 -13.8659 48.415 -41.2616 55.6906C-52.1356 58.5837 -63.0886 61.6218 -74.3381 62.584C-102.538 65.0554 -130.817 62.0238 -159.161 65.3256C-201.28 70.2814 -242.989 78.8488 -284.699 86.5132C-323.391 93.5978 -363.459 102.916 -402.981 102.989C-403.779 105.625 -404.148 106.897 -404.846 109.414C-363.328 109.309 -321.104 99.529 -280.383 92.2336C-237.618 84.5823 -194.848 75.9688 -151.668 70.9734Z" fill="#222222"/>
<path d="M-138.15 81.4848C-117.839 79.1584 -97.0794 77.6888 -76.7418 80.5819C-67.5155 81.9 -58.4604 84.6481 -49.1616 85.4982C-37.2991 86.5724 -25.7003 84.1802 -14.2991 81.175C14.039 73.7083 43.0361 65.6813 72.6461 67.7441C88.812 68.8776 102.895 74.4002 117.974 79.6856C137.389 86.4934 155.538 85.4982 175.197 79.3891C217.105 66.3535 248.619 33.4682 290.111 19.9252C319.286 10.3957 350.379 11.549 380.266 16.9596C444.06 28.5123 504.433 56.5011 562.579 83.9891C564.183 81.701 565.442 79.1897 566.316 76.5355C507.662 49.7593 446.696 22.7722 382.513 12.4321C353.2 7.70684 322.786 7.08077 294.118 15.7272C250.84 28.8154 217.151 61.714 173.655 74.6243C152.441 80.9246 132.578 81.1223 111.759 73.8796C95.4748 68.2186 80.1261 62.1358 62.708 60.7386C33.8032 58.4189 5.32004 65.3518 -22.3788 72.7197C-33.7009 75.7249 -45.2008 78.3742 -56.9842 77.9458C-65.8481 77.6229 -74.5868 75.6458 -83.398 74.7495C-103.894 72.6736 -124.693 74.0048 -145.089 76.3839C-189.073 81.5243 -232.667 90.0258 -276.236 97.677C-318.835 105.21 -363.003 115.444 -406.419 115.583C-406.999 117.995 -407.256 119.168 -407.698 121.461C-363.794 121.323 -319.118 111.029 -276.051 103.595C-230.222 95.6934 -184.381 86.8163 -138.15 81.4848Z" fill="#222222"/>
<path d="M-129.547 91.1988C-108.642 88.7604 -87.369 87.0535 -66.6426 91.7194C-56.9286 93.9074 -47.7351 98.0395 -37.9882 100.036C-26.2048 102.455 -14.4609 100.985 -2.88184 98.1054C26.4909 90.8034 55.521 80.8323 86.2053 81.32C101.475 81.5638 114.056 86.2495 128.165 91.2054C145.241 97.2025 161.413 94.3291 178.251 88.2727C216.396 74.5584 242.678 40.9612 280.532 27.2601C309.088 16.9397 340.062 19.5363 369.165 26.0013C432.003 39.9793 491.032 69.9188 547.965 98.9357C551.034 96.7057 553.901 94.2093 556.532 91.4756C499.012 63.2363 439.377 34.3512 376.117 21.5529C346 15.4635 314.169 13.5985 284.79 24.044C245.32 38.0747 216.31 70.9864 176.195 84.1999C158.21 90.1311 141.267 91.7655 123.381 85.4389C108.816 80.2919 95.5173 75.2372 79.8127 74.5715C50.0313 73.2996 21.2253 82.124 -7.2446 89.5314C-18.7709 92.53 -30.528 94.6389 -42.43 92.9452C-52.2165 91.5546 -61.5747 87.9827 -71.2953 86.2099C-91.4483 82.5458 -112.096 84.0681 -132.308 86.3813C-180.568 91.9039 -228.44 101.051 -276.292 109.164C-319.564 116.551 -364.555 126.898 -408.591 127.01C-408.914 129.159 -409.026 130.2 -409.158 132.23C-363.343 132.17 -316.374 121.151 -271.389 113.566C-224.229 105.579 -177.076 96.7478 -129.547 91.1988Z" fill="#222222"/>
<path d="M-125.034 100.306C-104.558 98.0197 -83.9111 96.7741 -63.6659 101.4C-53.4444 103.733 -43.7897 108.096 -33.5352 110.258C-21.6728 112.762 -9.73117 111.451 1.99948 108.663C30.8253 101.816 58.913 91.0406 88.9909 91.403C103.648 91.581 115.398 96.148 128.829 101.124C145.819 107.417 162.116 103.648 178.763 97.3936C212.822 84.5887 235.769 53.3641 269.907 41.64C295.068 33.0002 322.583 36.7962 347.823 43.0503C409.172 58.254 466.87 88.4045 522.716 117.052C526.91 113.407 531.356 110.062 536.021 107.042C479.787 77.6623 421.555 47.0704 359.435 32.1303C331.677 25.4411 301.645 22.0735 274.289 32.2291C238.207 45.6271 214.371 79.1715 178.071 92.8924C162.195 98.8896 146.695 102.303 130.444 96.5303C116.934 91.7325 105.111 87.4159 90.4276 87.4159C59.5588 87.3566 30.6342 97.9933 1.04388 105.163C-10.7725 108.024 -22.714 109.223 -34.6358 106.389C-44.6332 104.01 -53.9716 99.43 -63.9492 96.9257C-84.7481 91.7128 -106.054 93.3603 -127.123 95.8119C-175.173 101.4 -222.854 110.31 -270.541 118.298C-315.789 125.857 -363.16 137.067 -409.252 137.001C-409.196 138.566 -408.937 140.116 -408.481 141.614C-362.613 141.832 -315.559 130.76 -270.574 123.161C-222.201 114.957 -173.815 105.743 -125.034 100.306Z" fill="#222222"/>
<path d="M-130.887 108.808C-109.245 106.224 -87.7473 105.045 -66.2368 109.184C-55.7516 111.2 -45.6224 114.963 -35.0582 116.558C5.80136 122.72 44.3148 96.2732 85.5962 98.4677C100.266 99.2454 112.036 104.867 125.388 110.113C142.892 116.993 159.743 113.408 177.181 107.562C209.289 96.8136 233.066 68.6798 265.556 60.3695C289.222 54.313 314.529 59.8752 337.482 66.3007C395.839 82.6182 451.204 110.455 505.415 136.915C507.439 133.366 509.848 130.051 512.599 127.03C456.858 99.0806 399.47 69.4113 338.669 53.9176C315.603 48.0325 290.296 43.9663 266.98 50.9783C234.437 60.7649 211.707 90.0058 179.633 101.908C161.984 108.452 144.704 112.413 126.812 105.526C113.941 100.577 102.652 95.6998 88.5421 95.1265C59.1165 93.9271 31.4507 104.478 3.34979 111.325C-8.82239 114.291 -21.2978 115.892 -33.727 113.658C-43.9155 111.8 -53.6032 107.846 -63.7259 105.638C-84.8147 101.11 -106.121 102.343 -127.394 104.748C-175.47 110.218 -223.144 119.51 -270.805 127.735C-315.177 135.393 -361.513 146.359 -406.749 146.128C-406.002 147.679 -405.12 149.161 -404.113 150.557C-359.806 150.722 -314.564 139.841 -271.161 132.104C-224.568 123.781 -177.935 114.436 -130.887 108.808Z" fill="#222222"/>
<path d="M-145.932 121.27C-112.657 116.248 -83.1133 123.247 -50.373 124.618C-49.2131 124.664 -48.0598 124.691 -46.8999 124.704C-49.2108 125.143 -51.5197 125.593 -53.8262 126.055C-54.6171 126.055 -55.4079 126.055 -56.1988 126.055C-88.9062 125.488 -118.978 118.581 -152.001 124.078C-190.554 130.516 -228.508 140.606 -266.474 149.78C-303.808 158.802 -342.638 170.308 -381.283 171.771C-378.976 173.419 -377.79 174.243 -375.352 175.884C-339.356 174.164 -303.287 162.822 -268.636 153.787C-231.994 144.237 -195.398 133.66 -158.13 126.813C-125.106 120.743 -94.2047 127.841 -61.326 127.353L-59.7575 127.32L-64.9374 128.454C-65.8271 128.513 -66.7168 128.559 -67.613 128.599C-99.7076 129.917 -130.596 122.819 -162.618 129.172C-198.034 136.184 -232.633 147.051 -267.344 156.884C-300.328 166.236 -334.762 177.927 -369.223 179.95C-366.725 181.584 -365.46 182.395 -362.923 184.023C-329.774 181.677 -296.809 169.524 -265.294 159.757C-233.417 149.872 -201.58 139.09 -168.945 131.92C-137.312 124.967 -106.192 131.973 -74.3153 129.831C-72.6282 129.719 -70.9477 129.574 -69.2672 129.409L-72.6348 130.174C-74.9744 130.49 -77.3073 130.773 -79.6469 131.011C-111.03 134.174 -142.459 127.056 -173.393 134.372C-205.409 141.957 -236.462 153.582 -267.594 164.094C-296.223 173.748 -326.215 185.611 -356.57 188.089C-354.032 189.717 -352.76 190.527 -350.249 192.162C-321.371 189.427 -293 177.254 -266.039 167.31C-237.668 156.844 -209.409 145.331 -180.135 137.575C-149.319 129.409 -117.435 136.467 -85.9933 132.375C-82.2171 131.887 -78.4343 131.287 -74.6383 130.628L-75.0732 130.727L-74.3615 130.576L-71.8572 130.128C-82.3159 132.559 -92.689 135.248 -102.897 137.647C-131.927 144.468 -162.869 137.95 -190.89 146.873C-238.479 162.071 -282.212 198.449 -332.396 204.446C-330.202 206.107 -329.134 206.944 -327.124 208.617C-279.714 202.686 -239.428 166.598 -194.911 151.236C-176.688 144.956 -158.802 147.532 -139.928 146.076C-128.448 145.193 -117.488 142.781 -106.436 139.664C-92.5308 135.762 -78.2432 131.722 -63.8171 128.777L-63.5337 128.724C-60.9832 128.394 -58.4394 128.012 -55.8956 127.597C-57.0357 127.735 -58.1758 127.854 -59.3159 127.966C-57.6684 127.663 -56.0208 127.346 -54.3798 127.017C-53.2265 126.938 -52.0732 126.846 -50.9265 126.74C-52.5785 127.043 -54.2348 127.329 -55.8956 127.597C-52.8201 127.232 -49.7601 126.793 -46.7154 126.279C-43.3412 125.877 -39.9735 125.376 -36.6125 124.803C-18.8715 123.485 -1.16348 124.915 16.0634 131.426C39.5643 140.303 59.8228 155.711 82.7107 165.886C116.565 180.938 148.982 178.599 184.932 173.92C234.201 167.501 280.102 165.577 326.741 184.359C353.564 195.16 379.918 206.818 407.373 215.992C464.155 235.038 522.61 247.77 581.317 259.158C577.751 256.324 575.899 254.881 572.136 251.909C512.007 238.906 452.042 224.744 393.896 204.459C369.407 195.892 345.583 185.736 321.318 176.595C277.084 159.929 233.496 162.716 187.259 168.885C151.151 173.696 119.03 176.846 85.0173 161.438C63.1245 151.513 43.5778 136.856 20.8282 128.763C6.42847 123.649 -8.22824 122.081 -22.9509 122.615C-19.8732 122.094 -16.8022 121.501 -13.7245 120.855C-0.300171 120.499 13.0715 121.929 26.2586 126.371C48.3623 133.811 67.25 147.882 88.3718 157.457C120.974 172.246 151.816 169.096 186.389 164.193C230.26 157.978 272.352 153.648 314.899 168.298C338.835 176.549 362.223 186.342 386.126 194.712C443.89 214.938 503.136 230.207 562.613 244.409C558.758 241.345 556.807 239.796 552.939 236.606C494.398 221.304 436.146 205.019 379.002 185.038C355.686 176.885 332.725 167.494 309.145 160.1C267.014 146.92 224.975 153.411 182.118 160.001C150.03 164.944 121.119 167.013 90.9684 153.187C70.8549 143.96 52.7448 130.582 31.4781 123.966C18.8116 120.011 6.0199 118.871 -6.8179 119.352L-6.28409 119.227L-6.85745 119.352L-8.43253 119.418L-2.69244 118.1L-1.00534 118.001C-2.76492 118.423 -4.52454 118.845 -6.27756 119.254C-4.43887 118.852 -2.60675 118.423 -0.774658 117.988C11.7864 117.329 24.3276 118.219 36.7898 121.791C58.0368 127.88 75.8568 141.087 95.8385 150.01C125.185 163.105 153.101 159.981 184.076 154.92C222.609 148.62 261.715 140.639 300.222 150.893C324.606 157.385 348.173 166.908 371.951 175.205C428.495 194.936 485.784 212.216 543.39 228.586C539.613 225.291 537.748 223.643 534.163 220.269C477.487 202.871 421.136 184.493 365.11 165.135C341.925 157.075 318.682 147.941 294.7 142.458C256.601 133.746 217.594 144.191 179.957 150.781C151.342 155.79 125.646 157.985 98.5867 145.826C79.5936 137.291 62.5775 124.934 42.174 119.616C29.5866 116.321 16.9597 115.8 4.3262 116.756L8.10242 115.8C21.942 114.331 35.7815 114.482 49.7001 118.054C68.3703 122.852 84.0486 133.825 101.381 141.733C128.091 153.912 153.53 150.959 181.696 145.608C216.783 138.965 253.484 127.096 289.401 133.838C313.053 138.273 336.001 147.018 358.658 154.887C414.188 174.124 469.697 193.321 525.51 211.715C522.215 208.255 520.614 206.502 517.674 202.956C462.903 183.673 408.382 163.646 353.485 144.718C330.419 136.771 306.549 127.715 282.178 124.697C248.172 120.473 213.336 134.286 180.464 140.988C154.202 146.346 130.378 149.325 105.335 138.154C88.3125 130.562 73.0428 119.972 54.5901 115.827C40.0916 112.578 25.7841 112.999 11.4832 114.977L13.7635 114.43C28.9211 111.793 44.1379 110.68 59.6316 113.698C77.3726 117.158 91.9239 126.826 108.129 134.088C132.737 145.101 156.291 141.535 181.94 135.789C212.954 128.842 245.497 113.434 277.822 115.846C301.949 117.646 325.733 126.391 348.41 134.148C403.024 152.831 456.893 173.768 510.946 193.994C508.896 191.081 507.059 188.024 505.449 184.846C450.263 163.013 395.181 140.217 338.795 121.58C318.247 114.792 296.479 107.464 274.619 106.851C242.525 105.908 211.036 123.662 180.477 131.109C156.713 136.883 134.682 140.468 111.734 130.378C96.4646 123.662 82.7371 114.792 66.0703 111.721C48.7841 108.531 31.9328 110.587 15.1606 114.028C33.2574 109.783 51.407 106.501 70.2617 109.329C86.7901 111.8 100.175 120.196 115.201 126.648C136.665 135.874 157.378 132.21 179.423 126.483C209.876 118.575 240.126 98.0857 272.009 97.6046C293.836 97.2685 315.769 104.281 336.278 110.937C392.427 129.152 446.921 152.811 501.357 175.482C500.259 172.424 499.516 169.251 499.143 166.025C445.307 142.537 391.207 118.028 335.137 100.201C313.785 93.4132 290.422 86.3616 267.719 88.4441C236.514 91.3043 208.407 113.487 178.322 121.844C157.84 127.544 138.576 131.116 118.45 122.806C103.536 116.65 90.5202 108.775 74.1171 106.838C53.1864 104.36 33.1915 109.329 13.2099 114.436L12.4783 114.588L12.8869 114.515L11.1603 114.957L10.0531 115.115L12.4783 114.588C11.3272 114.794 10.174 115.014 9.01846 115.247C32.0844 109.362 54.9657 101.875 79.1124 104.366C94.593 105.954 106.923 112.934 121 118.7C140.534 126.661 159.5 122.733 179.186 116.723C208.842 107.707 234.445 84.2198 264.945 79.2375C288.669 75.3559 313.713 82.5327 336.119 89.5513C392.044 107.009 445.709 132.223 498.899 156.429C499.107 153.118 499.772 149.851 500.876 146.722C446.453 121.02 391.109 93.7823 333.042 77.1418C311.696 71.0261 288.182 65.1674 265.887 69.5631C233.437 75.9556 208.077 102.883 176.259 112.729C158.261 118.298 141.147 121.6 123.274 114.456C109.243 108.848 97.1236 102.528 81.6629 101.473C51.664 99.4367 23.438 112.452 -5.47351 117.632L-7.14743 117.922C-9.02783 118.177 -10.9039 118.456 -12.7755 118.759C-21.2064 119.92 -29.7513 119.993 -38.2007 118.977C-48.3629 117.659 -58.2088 114.462 -68.2853 112.657C-90.0331 108.749 -111.504 109.566 -133.357 112.288C-178.474 117.909 -223.15 127.182 -267.799 135.525C-311.149 143.611 -356.471 154.933 -400.803 154.913C-399.523 156.415 -398.163 157.847 -396.731 159.204C-354.204 159.019 -310.8 147.809 -269.315 139.664C-225.199 130.991 -181.078 121.211 -136.461 115.438C-114.905 112.637 -93.9148 112.143 -72.4305 115.556C-62.0179 117.224 -51.7701 120.137 -41.2586 121.165C-37.3755 121.535 -33.4735 121.669 -29.5741 121.567L-30.589 121.751C-33.4755 122.191 -36.3621 122.689 -39.2486 123.247C-41.1949 123.247 -43.1456 123.177 -45.1007 123.036C-77.9136 120.875 -106.759 113.705 -140.323 118.39C-184.182 124.486 -227.486 134.648 -270.811 143.69C-310.247 151.928 -351.535 163.02 -392.071 163.461C-390.094 165.148 -389.06 165.979 -386.904 167.646C-347.185 166.512 -307.162 155.447 -268.596 146.814C-227.875 137.68 -187.16 127.498 -145.932 121.27ZM-46.7351 124.704H-45.305L-47.8093 125.231C-49.3646 125.488 -50.9133 125.758 -52.4687 126.042H-53.2068C-51.0495 125.593 -48.8923 125.147 -46.7351 124.704ZM-28.3747 122.779C-26.0022 122.27 -23.6297 121.754 -21.2572 121.231C-20.0314 121.145 -18.8056 121.066 -17.5798 121C-19.3856 121.402 -21.1913 121.804 -22.997 122.193C-24.7984 122.426 -26.5909 122.621 -28.3747 122.779ZM-25.7386 121.619L-32.5858 123.083C-33.6996 123.142 -34.8199 123.188 -35.9337 123.214L-31.3205 122.246C-29.4753 122.017 -27.6234 121.808 -25.7649 121.619H-25.7386ZM-58.8414 127.281L-60.5549 127.63L-58.9403 127.281H-58.8414ZM-71.989 130.088L-68.4105 129.324H-68.2853L-71.1125 129.983L-71.989 130.088ZM-41.1993 125.369L-39.9537 125.132C-38.9323 125.04 -37.9041 124.948 -36.8827 124.868C-38.3369 125.062 -39.7846 125.229 -41.2257 125.369H-41.1993ZM-14.5615 120.875L-16.5385 121.224L-15.0228 120.895L-14.5615 120.875ZM7.94424 115.754L4.03622 116.71L2.46115 116.842L3.77921 116.532L6.41531 115.926L7.94424 115.754ZM-37.7394 123.135L-38.2337 123.234H-38.3721L-37.7394 123.135Z" fill="#222222"/>
<path d="M331.826 191.997C285.457 172.18 239.562 172.074 189.984 178.058C150.37 182.836 115.244 186.316 77.9496 169.339C55.1736 158.979 34.8954 143.71 11.5856 134.457C-28.3843 118.594 -71.1155 129.462 -110.334 142.405C-121.142 145.97 -131.805 148.962 -143.167 150.102C-161.158 151.908 -178.477 149.246 -195.843 155.315C-238.739 170.295 -276.402 207.299 -322.303 212.861C-320.491 214.562 -319.667 215.412 -318.079 217.139C-273.43 212.163 -237.981 174.71 -196.502 160.1C-179.459 154.096 -162.232 156.864 -144.636 154.544C-133.578 153.088 -123.469 149.503 -113.148 145.476C-74.872 130.556 -32.2396 121.303 7.09769 137.515C30.8753 147.315 51.6478 163.019 75.0432 173.623C113.682 191.133 149.829 187.324 190.841 182.704C242.594 176.872 289.517 178.091 337.368 199.773C364.698 212.156 391.705 224.77 420.274 234.168C477.958 253.134 537.712 263.686 597.644 272.648C594.744 270.085 593.182 268.767 589.907 266.058C530.404 255.837 471.124 244.159 413.743 225.08C385.675 215.768 358.958 203.596 331.826 191.997Z" fill="#222222"/>
<path d="M341.443 206.95C291.608 183.186 242.537 181.347 188.068 187.746C147.486 192.511 111.582 195.476 73.3979 178.52C49.1721 167.758 27.8197 151.5 3.46213 141.054C-35.2161 124.447 -78.033 131.9 -115.163 149.16C-124.554 153.523 -133.615 157.596 -143.936 159.421C-161.116 162.466 -178.422 159.527 -195.162 165.168C-236.357 179.021 -270.198 217.244 -314.538 221.475C-313.482 222.865 -312.545 224.343 -311.737 225.89C-267.839 222.595 -234.94 184.932 -194.43 171.402C-177.612 165.787 -160.319 168.766 -143.217 165.076C-133.213 162.907 -124.916 158.274 -116.079 153.358C-81.4534 134.075 -39.4141 128.078 -2.29117 143.756C22.6464 154.3 44.3876 171.046 69.0286 182.223C107.193 199.543 144.21 197.888 184.945 192.807C218.489 188.623 253.655 186.105 287.094 192.59C309.059 196.854 329.107 205.942 348.97 215.972C375.074 229.153 401.23 241.826 429.094 250.986C487.549 270.184 548.654 278.329 609.621 284.761C607.962 282.696 606.177 280.735 604.276 278.889C543.778 271.172 483.253 261.84 425.16 242.709C396.143 233.146 368.945 220.065 341.443 206.95Z" fill="#222222"/>
<path d="M352.582 223.281C332.521 212.631 312.295 202.811 289.974 198.047C255.87 190.797 219.768 193.144 185.453 197.421C143.809 202.607 105.928 204.584 66.8281 186.968C41.7852 175.706 19.8462 158.69 -5.30225 147.756C-40.9885 132.23 -83.2848 136.144 -115.491 158.064C-123.479 163.507 -130.735 168.753 -140.218 171.336C-156.924 175.89 -174.303 172.773 -190.963 177.927C-232.258 190.6 -265.117 228.118 -309.752 230.418C-309.216 231.906 -308.87 233.456 -308.724 235.031C-262.395 234.128 -228.284 196.228 -185.052 184.893C-168.53 180.563 -150.855 183.957 -134.715 178.151C-125.917 174.981 -119.9 168.858 -112.915 162.993C-83.8186 138.491 -40.8633 137.199 -7.2464 152.449C18.1525 163.968 40.4473 181.281 66.0307 192.511C107.609 210.759 146.669 206.614 190.659 201.599C223.696 197.829 258.012 195.872 290.739 203.115C313.607 208.169 334.142 218.621 354.447 229.963C380.149 244.337 406.134 257.86 434.255 267.047C492.783 286.158 554.356 291.701 615.487 295.431C615.121 293.625 614.438 291.898 613.47 290.33C552.491 285.249 491.221 278.395 432.785 259.356C404.684 250.11 378.567 237.074 352.582 223.281Z" fill="#222222"/>
<path d="M353.977 237.549C334.43 226.22 314.771 215.926 292.779 210.212C260.013 201.698 225.203 202.891 191.803 206.258C146.733 210.799 107.343 215.432 64.8091 196.762C39.7661 185.762 17.7547 169.148 -7.02469 157.708C-39.976 142.511 -82.9906 141.944 -110.617 168.153C-117.128 174.328 -122.387 180.378 -131.047 183.634C-146.863 189.565 -164.466 186.448 -180.751 190.554C-225.512 201.843 -260.644 239.519 -308.727 239.605C-308.828 241.077 -309.093 242.534 -309.518 243.948C-259.432 244.31 -224.009 205.658 -177.778 193.664C-161.243 189.374 -143.384 192.201 -127.271 186.059C-119.197 182.981 -113.912 177.492 -107.612 171.923C-79.9327 147.361 -39.2972 147.855 -6.84018 162.275C18.4994 173.531 40.9919 190.237 66.4831 201.256C107.04 218.786 145.19 215.61 188.093 211.801C222.422 208.762 257.95 208.367 291.369 217.811C314.283 224.276 334.917 235.763 355.255 247.856C380.298 262.756 405.473 276.609 432.796 286.969C490.078 308.677 552.126 314.497 612.71 318.497C614.252 313.818 614.799 311.248 615.346 305.402C554.353 302.001 492.497 296.835 434.358 276.701C405.888 266.829 379.955 252.614 353.977 237.549Z" fill="#222222"/>
<path d="M354.557 256.357C333.119 243.519 311.556 231.314 287.422 224.269C255.677 215.043 222.265 214.384 189.504 216.704C147.327 219.676 109.828 223.096 69.9044 206.304C44.7296 195.72 22.4546 179.587 -2.34457 168.318C-36.1262 152.982 -74.9758 152.884 -104.751 176.384C-127.197 194.112 -150.599 189.486 -176.98 196.953C-223.942 210.239 -259.529 248.759 -311.026 247.955C-311.633 249.266 -312.359 250.519 -313.194 251.698C-276.947 251.599 -247.674 235.914 -216.825 218.714C-204.303 211.728 -191.597 204.703 -177.85 200.419C-164.992 196.406 -151.884 196.498 -138.677 194.567C-110.478 190.441 -91.7809 170.288 -64.3984 164.034C-30.2741 156.245 1.55029 172.727 30.2443 188.926C63.558 207.734 96.8058 223.663 135.886 224.876C173.576 226.035 210.435 218.167 248.316 222.833C279.369 226.662 307.681 237.47 334.721 252.917C364.133 269.722 392.227 288.155 423.689 301.131C480.036 324.375 540.337 332 600.618 336.805C603.414 334.574 605.814 331.887 607.716 328.857C549.557 324.553 491.272 317.95 436.231 297.619C407.332 286.962 380.879 272.141 354.557 256.357Z" fill="#222222"/>
<path d="M326.508 256.048C302.21 242.584 276.521 232.804 248.921 228.718C211.12 223.123 174.359 230.774 136.702 229.285C97.5497 227.736 64.7433 211.142 31.2582 192.379C4.17889 177.221 -26.2813 162.13 -58.3693 169.122C-86.4306 175.238 -108.455 192.662 -137.367 196.874C-151.252 198.903 -165.046 199.022 -178.477 203.503C-190.866 207.642 -202.373 214.008 -213.728 220.381C-246.554 238.834 -277.232 255.369 -315.949 255.197C-316.975 256.367 -318.075 257.467 -319.245 258.493C-281.061 258.941 -250.047 244.139 -217.709 225.62C-204.475 218.042 -191.137 210.127 -176.539 205.421C-164.268 201.467 -151.707 201.184 -139.041 199.437C-123.784 197.342 -108.772 194.824 -94.3323 189.354C-80.2687 184.082 -66.1655 177.393 -51.377 174.375C-19.6317 167.883 10.3606 183.344 37.0379 198.324C70.3451 217 103.263 233.008 142.35 233.852C175.433 234.563 207.686 228.698 240.921 233.12C273.029 237.384 302.065 249.345 329.988 265.346C356.507 280.544 382.176 296.98 410.264 309.284C464.614 333.061 522.608 341.517 581.261 346.473C584.885 345.587 588.394 344.286 591.72 342.597C531.821 337.609 472.252 329.417 416.604 305.501C384.872 291.872 356.567 272.688 326.508 256.048Z" fill="#222222"/>
<path d="M323.055 268.319C298.829 254.809 273.496 243.994 246.034 239.209C209.913 232.922 174.781 240.152 138.752 238.109C103.612 236.132 73.3697 221.291 43.2588 204.301C17.0691 189.526 -12.2708 173.86 -43.4954 179.746C-59.2395 182.705 -74.5025 189.222 -90.0292 193.209C-105.055 197.065 -120.483 199.068 -135.831 201.118C-150.765 203.141 -165.764 203.602 -180.032 208.875C-192.962 213.652 -204.884 220.737 -216.766 227.611C-250.588 247.171 -282.794 262.275 -322.87 261.531C-324.431 262.73 -325.255 263.31 -326.956 264.45C-284.778 265.491 -251.655 250.156 -216.18 229.443C-204.14 222.411 -192.027 215.083 -178.826 210.423C-165.804 205.81 -152.103 205.224 -138.514 203.477C-120.133 201.118 -101.569 199.595 -83.2742 196.603C-66.9567 193.934 -51.2982 188.036 -35.0928 185.281C-6.60971 180.431 20.3708 193.73 44.3791 207.266C76.1837 225.192 106.94 241.312 144.353 242.748C175.749 243.954 206.394 238.221 237.889 243.005C265.621 247.223 291.132 257.438 315.654 270.724C342.232 285.104 367.717 301.356 395.396 313.66C446.754 336.495 501.189 345.069 556.857 349.57C561.111 349.53 565.358 349.236 569.577 348.687C512.367 343.896 456.079 335.322 403.205 311.913C375.197 299.57 349.653 283.18 323.055 268.319Z" fill="#222222"/>
<path d="M515.467 346.776C509.852 346.07 507.051 345.682 501.541 344.917L498.859 344.779C494.817 344.225 490.788 343.63 486.773 342.993L488.005 343.046C485.949 342.769 484.301 342.545 482.733 342.347C450.355 336.982 418.702 328.633 388.07 315.136C360.78 303.115 335.539 287.312 309.178 273.485C284.867 260.733 259.396 250.914 232.072 247.124C202.087 242.972 173.01 248.943 143.183 247.124C109.836 245.101 81.4717 230.84 53.0018 214.588C28.9078 200.828 2.66544 186.764 -26.1274 191.239C-44.2506 194.053 -61.4973 199.338 -79.9039 200.656C-99.0157 202.027 -118.035 202.904 -137.068 205.184C-151.125 206.864 -165.445 207.49 -178.903 212.196C-192.36 216.901 -204.473 224.381 -216.619 231.545C-253.452 253.293 -287.57 268.589 -331.388 267.238C-333.194 268.325 -334.123 268.859 -336.001 269.92C-292.064 271.515 -257.063 257.398 -220.112 235.275C-206.931 227.367 -193.751 218.905 -179.127 213.857C-165.235 209.046 -150.051 208.374 -135.526 206.805C-114.859 204.578 -94.4552 204.571 -73.7288 204.531C-54.2151 204.492 -36.5334 199.543 -17.4217 197.019C9.38748 193.48 34.0483 206.179 56.5342 219.017C83.6268 234.484 110.574 248.825 142.287 251.454C170.341 253.78 198.185 247.684 226.359 251.138C253.313 254.433 278.507 263.719 302.615 275.911C328.719 289.091 353.702 304.374 380.577 316.045C407.116 327.572 434.354 335.157 462.184 340.264C458.982 340.067 456.965 339.994 454.276 340.021C428.923 335.691 404.065 329.173 379.655 319.327C352.47 308.374 327.216 293.717 301.026 280.715C277.301 268.951 253.056 259.514 226.695 255.942C199.358 252.245 172.655 258.189 145.496 256.067C114.674 253.682 88.8529 240.178 62.6104 225.073C40.8626 212.552 17.4211 200.248 -8.56433 203.484C-29.9893 206.153 -49.2065 209.823 -70.9082 208.433C-94.6331 206.904 -117.699 206.541 -141.424 209.184C-156.239 210.832 -170.882 211.82 -184.827 217.468C-198.614 223.057 -211.142 231.387 -223.848 239.005C-261.123 261.346 -296.671 274.375 -340.819 272.543C-342.756 273.578 -343.738 274.092 -345.702 275.113C-299.742 277.209 -262.612 263.85 -223.901 240.402C-211.05 232.606 -198.311 224.025 -184.228 218.529C-169.545 212.802 -153.51 211.939 -137.951 210.469C-112.717 208.117 -88.3922 209.81 -63.3426 212.782C-41.2784 215.419 -21.9623 212.341 -0.0760803 209.955C24.3079 207.319 46.1809 218.523 66.6832 230.201C91.9437 244.613 116.927 258.097 146.491 260.661C172.668 262.928 198.37 256.674 224.731 260.239C250.624 263.745 274.817 273.261 298.166 284.623C324.527 297.408 350.111 311.768 377.651 321.917C401.521 330.709 425.661 336.416 450.263 340.054L446.565 339.895C420.613 336.772 395.161 331.275 370.158 322.102C343.138 312.216 317.772 298.693 291.694 286.653C268.563 275.963 244.686 267.047 219.202 264.127C194.508 261.3 170.308 267.739 145.832 265.017C118.759 262.005 95.6804 249.721 72.397 236.501C52.725 225.35 31.6362 214.667 8.31992 216.427C-16.0641 218.272 -36.8498 220.829 -61.293 216.611C-86.3294 212.295 -110.68 209.995 -136.172 211.972C-152.357 213.224 -169.274 214.061 -184.564 219.939C-198.819 225.416 -211.722 234.221 -224.652 242.188C-264.523 266.75 -303.149 280.016 -350.599 277.67C-352.576 278.692 -353.538 279.206 -355.462 280.24C-306.51 282.83 -266.395 269.505 -225.318 243.915C-212.249 235.776 -199.273 226.78 -184.808 221.277C-171.568 216.229 -157.241 215.386 -143.236 214.153C-113.007 211.484 -84.8137 214.852 -55.4013 221.258C-30.7076 226.635 -9.59247 225.686 15.4373 223.709C38.1342 221.923 58.3466 232.276 77.6033 242.939C100.201 255.461 122.417 267.086 148.633 269.735C170.427 271.95 191.924 266.111 213.877 268.167C238.92 270.507 262.585 278.87 285.46 288.887C311.32 300.209 336.455 313.106 363.12 322.55C390.14 332.119 417.634 337.398 445.775 339.849C415.407 338.327 385.922 333.345 356.806 323.374C330.406 314.332 305.402 302.034 279.647 291.378C256.984 281.993 233.516 274.118 208.861 272.332C189.387 270.915 170.42 276.359 151.131 274.527C104.999 270.157 69.0162 228.764 22.4955 230.741C7.88495 231.367 -5.36151 234.069 -20.1237 232.356C-30.9713 231.084 -41.5157 228.447 -52.1062 225.601C-81.7096 217.692 -110.437 213.356 -141.22 215.57C-156.845 216.69 -173.024 217.672 -187.615 223.762C-201.171 229.416 -213.403 237.812 -225.779 245.622C-268.168 272.358 -309.541 285.69 -360.221 282.863C-362.086 283.931 -363.008 284.465 -364.788 285.565C-312.421 288.603 -269.684 275.205 -225.984 247.342C-214.345 239.915 -202.839 231.927 -190.205 226.253C-174.085 219.004 -156.298 218.002 -138.86 217.066C-107.721 215.399 -78.889 220.869 -49.3317 230.075C-22.6543 238.392 -0.273773 240.112 27.5239 238.695C71.6786 236.441 106.93 274.197 150.386 279.034C171.745 281.413 192.663 275.027 214.312 277.617C235.045 280.095 254.993 286.732 274.355 294.311C300.09 304.387 325.1 316.157 351.402 324.843C382.989 335.295 414.866 339.935 448.009 340.093C451.245 340.469 454.48 340.818 457.729 341.121C462.562 341.754 467.428 342.312 472.327 342.795C469.757 342.461 467.191 342.103 464.629 341.721C467.938 341.989 471.255 342.222 474.581 342.419C477.876 342.933 481.171 343.419 484.466 343.876C480.398 343.56 476.345 343.199 472.307 342.795C480.699 343.893 489.143 344.803 497.64 345.523C508.184 346.716 518.775 347.652 529.445 348.39C535.046 348.931 537.841 349.155 543.284 349.418C533.689 348.693 524.139 347.815 514.636 346.782L515.467 346.776ZM448.345 340.06H450.362L452.602 340.383C451.185 340.284 449.762 340.172 448.345 340.06ZM458.678 340.772C457.532 340.587 456.385 340.403 455.238 340.205C457.65 340.271 460.056 340.317 462.488 340.343L467.252 341.187C464.383 341.073 461.528 340.934 458.685 340.772H458.678Z" fill="#222222"/>
<path d="M443.272 340.851C380.664 342.307 328.364 319.584 271.029 298.153C251.798 290.963 232.041 284.544 211.571 282.171C191.102 279.799 171.371 285.921 151.152 283.654C109.238 278.955 74.3819 244.976 31.8022 246.623C3.12143 247.731 -19.4305 244.574 -46.4703 234.82C-76.68 223.927 -106.303 217.284 -138.688 218.674C-156.422 219.439 -174.387 220.473 -190.698 227.973C-203.417 233.825 -214.977 242.004 -226.701 249.563C-271.409 278.402 -315.452 291.602 -369.096 288.379C-370.764 289.533 -371.568 290.119 -373.097 291.332C-319.274 294.627 -274.585 282.521 -229.574 253.517C-216.585 245.141 -203.872 235.651 -189.716 229.251C-172.792 221.594 -153.99 220.684 -135.63 220.269C-102.277 219.57 -72.6402 228.072 -42.1866 240.639C-15.529 251.645 6.5813 255.606 35.3148 254.703C75.7395 253.438 110.668 283.318 150.354 288.175C169.387 290.508 188.024 284.755 207.314 286.791C227.816 288.946 247.686 295.187 267.022 302.087C322.999 322.042 375.01 345.266 435.811 342.947C438.179 341.877 440.694 341.171 443.272 340.851Z" fill="#222222"/>
<path d="M265.188 307.168C245.734 300.439 225.785 294.192 205.217 291.885C186.764 289.816 169.062 294.996 150.867 292.907C111.424 288.386 76.4825 263.587 36.4401 263.415C20.696 263.349 7.14642 264.147 -8.30774 259.461C-19.5112 256.08 -30.0556 250.894 -40.6395 245.918C-71.0206 231.532 -100.756 221.699 -134.88 221.982C-153.465 222.141 -172.313 223.116 -189.349 231.024C-203.617 237.615 -216.408 247.368 -229.549 255.909C-275.582 285.882 -321.642 297.849 -376.769 294.429C-377.89 295.455 -378.94 296.556 -379.913 297.724C-323.441 301.25 -275.978 289.381 -228.91 258.4C-215.657 249.675 -202.78 239.697 -188.393 232.843C-171.291 224.698 -152.509 223.65 -133.747 223.749C-99.2006 223.94 -69.7355 235.15 -39.9014 251.428C-14.2455 265.419 6.45441 272.121 35.6559 272.464C75.5533 272.938 111.747 293.592 151.183 297.625C168.733 299.418 185.749 294.989 203.49 297.243C224.269 299.879 244.462 306.252 264.219 312.961C317.251 330.972 369.999 355.475 427.229 352.265C427.691 350.133 428.768 348.183 430.327 346.657C371.621 349.616 319.511 325.983 265.188 307.168Z" fill="#222222"/>
<path d="M264.449 319.729C244.184 312.875 223.55 306.219 202.329 303.076C185.056 300.519 168.561 303.946 151.42 302.483C111.305 299.056 73.3119 282.791 32.8806 282.053C4.02188 281.512 -15.7094 272.596 -39.9088 257.273C-68.6555 239.071 -97.422 226.405 -132.1 225.68C-150.981 225.291 -169.585 226.464 -186.68 234.834C-201.212 241.925 -214.182 252.173 -227.586 261.089C-275.695 293.118 -324.608 304.928 -382.457 301.329C-383.248 302.534 -383.921 303.812 -384.467 305.145C-323.988 308.849 -272.835 296.149 -222.953 262.058C-192.869 241.49 -170.449 226.675 -132.667 227.538C-98.1996 228.329 -69.934 241.734 -42.7953 261.913C-20.4939 278.494 -1.48102 291.701 27.2525 292.083C69.5818 292.643 110.56 304.934 152.724 307.425C169.859 308.44 186.157 306.391 203.311 309.6C225.125 313.679 246.339 320.803 267.283 327.967C318.759 345.636 373.61 372.517 429.153 370.27C427.598 365.657 427.176 363.68 426.787 360.095C370.546 363.133 316.611 337.371 264.449 319.729Z" fill="#222222"/>
<path d="M-218.482 269.307C-190.263 249.662 -167.645 230.497 -131.557 231.426C-95.64 232.356 -69.8326 249.879 -46.6678 275.64C-30.693 293.434 -16.1483 312.21 9.61304 313.238C56.9904 315.136 104.638 316.579 152.055 317.192C196.078 317.772 236.41 333.061 277.421 348.061C308.191 359.31 338.757 371.166 369.81 381.618C393.739 389.678 418.242 397.87 443.621 398.977C440.369 393.864 437.386 388.585 434.685 383.161C379.076 383.681 323.052 355.521 271.563 337.371C246.717 328.613 221.543 319.644 195.597 314.76C181.619 312.124 167.964 312.843 153.867 312.355C109.133 310.813 64.7933 304.031 20.0388 302.404C-7.548 301.402 -24.4388 286.31 -44.1503 268.595C-69.7403 245.595 -97.2942 230.332 -132.526 229.469C-169.431 228.56 -191.891 245.411 -221.145 265.597C-271.778 300.525 -324.368 313.001 -385.809 309.284C-386.173 310.733 -386.374 312.219 -386.409 313.712C-324.032 317.35 -269.86 305.053 -218.482 269.307Z" fill="#222222"/>
<path d="M150.262 322.161C101.791 321.719 52.5355 321.153 4.14984 318.457C-22.4748 316.974 -36.1496 296.94 -51.4653 277.703C-69.9181 254.512 -90.8553 236.784 -121.579 233.799C-161.121 229.957 -184.654 251.474 -214.759 273.149C-266.822 310.621 -322.477 322.266 -386.198 318.444C-386.033 320.152 -385.758 321.847 -385.374 323.519C-320.17 327.585 -262.67 316.539 -210.132 276.774C-181.247 254.907 -158.392 231.96 -119.45 236.25C-89.9525 239.48 -71.4602 258.117 -54.8659 280.873C-39.8929 301.375 -26.1851 320.639 1.22375 322.016C50.5584 324.5 100.493 327.183 149.9 327.829C194.187 328.409 236.021 341.161 278.107 354.242C298.266 360.51 318.307 367.153 338.322 373.888C318.624 366.639 299.051 359.185 279.524 352.437C237.293 337.846 195.267 322.57 150.262 322.161Z" fill="#222222"/>
<path d="M-203.108 286.666C-177.63 265.353 -156.937 239.038 -120.598 242.169C-62.1885 247.21 -63.0255 327.644 -3.29138 330.076C48.6003 332.191 100.281 340.199 152.179 341.2C194.706 342.024 236.271 350.084 277.612 359.877C337.326 374.02 396.777 392.024 452.115 418.827C451.935 417.4 451.662 415.987 451.298 414.596C432.134 406.903 412.789 399.638 393.264 392.802C397.5 394.12 401.75 395.377 406.016 396.572C383.405 389.164 360.886 381.473 338.328 373.888C343.31 375.72 348.303 377.539 353.307 379.345C328.37 371.309 303.274 363.84 278.02 356.938C236.291 345.464 194.456 334.907 151.046 334.208C100.176 333.384 49.4307 327.519 -1.42633 325.852C-28.2948 324.968 -42.4111 308.058 -56.455 287.292C-72.4891 263.574 -89.2547 242.037 -119.873 238.992C-157.438 235.242 -179.423 259.962 -206.574 281.532C-258.993 323.15 -318.148 333.193 -384.011 328.896C-383.352 331.097 -382.976 332.231 -382.139 334.544C-315.801 339.098 -255.085 330.175 -203.108 286.666Z" fill="#222222"/>
<path d="M150.332 348.667C98.1508 346.967 46.9182 335.928 -5.35577 334.498C-35.671 333.668 -51.3294 316.704 -65.8543 292.123C-79.3644 269.268 -92.5779 248.034 -121.667 245.786C-156.846 243.078 -176.03 271.218 -199.755 292.195C-251.087 337.582 -313.358 345.253 -379.874 340.482C-378.892 342.901 -378.371 344.133 -377.284 346.644C-307.427 351.916 -242.566 343.751 -191.227 292.979C-169.664 271.66 -152.167 245.444 -118.214 250.222C-91.6354 253.958 -80.7813 276.807 -68.8925 297.869C-54.552 323.262 -37.2592 338.446 -6.78586 339.223C46.0746 340.574 97.2677 354.447 149.963 356.687C255.309 361.175 360.325 370.922 452.456 427.526C452.532 426.068 452.532 424.608 452.456 423.15C361.682 372.807 253.345 352.028 150.332 348.667Z" fill="#222222"/>
<path d="M148.186 364.991C95.7668 361.88 45.3777 345.089 -7.29822 344.146C-39.0106 343.579 -58.2146 329.595 -72.9306 302.146C-83.475 282.448 -92.6487 259.31 -117.178 254.815C-152.047 248.376 -168.944 278.856 -189.723 300.525C-239.051 351.975 -306.265 358.473 -374.468 353.003L-371.502 359.594C-304.315 365.228 -235.156 360.431 -187.482 307.577C-168.377 286.442 -153.945 254.598 -120.598 259.072C-94.5269 262.572 -86.757 288.201 -76.1203 308.315C-61.1868 336.567 -40.065 348.674 -7.98364 349.26C46.0565 350.249 96.953 370.659 150.657 373.914C189.638 376.274 228.692 371.054 267.746 373.077C335.013 376.564 396.441 397.257 451.371 436.443C451.713 434.63 451.858 433.727 452.076 431.942C396.454 394.838 333.965 375.595 267.759 369.123C227.895 365.228 188.05 367.35 148.186 364.991Z" fill="#222222"/>
<path d="M259.969 376.992C223.419 377.526 186.817 385.632 150.241 382.956C96.3197 379.002 45.9438 355.587 -8.43246 354.545C-39.7889 353.952 -63.7247 343.843 -78.856 315.663C-89.4004 295.998 -95.582 267.679 -121.548 263.916C-153.135 259.303 -165.089 289.816 -181.657 310.509C-227.789 368.187 -299.623 372.458 -368.478 366.428C-367.265 369.189 -366.659 370.586 -365.473 373.42C-298.674 379.555 -224.824 377.335 -180.748 319.426C-165.109 298.878 -154.552 263.956 -122.754 268.925C-98.5279 272.714 -93.1898 300.472 -83.7789 318.951C-68.0875 349.781 -42.0098 359.277 -8.64993 359.963C46.0031 361.09 95.7529 387.523 149.819 392.202C187.305 395.445 224.579 383.174 261.854 380.953C332.732 376.735 394.087 401.943 449.116 445.577C449.643 443.731 449.887 442.809 450.329 440.964C393.87 398.311 330.946 375.957 259.969 376.992Z" fill="#222222"/>
<path d="M272.401 383.8C236.814 386.192 202.953 400.19 167.537 402.2C124.931 404.625 83.3529 384.406 43.0469 373.671C19.981 367.528 -1.70093 367.146 -25.2743 365.037C-49.1903 362.902 -70.2528 353.109 -83.2093 332.396C-92.6597 317.284 -95.4935 297.533 -107.178 283.911C-118.381 270.823 -139.853 269.742 -151.471 282.745C-168.606 301.929 -175.572 327.512 -194.763 345.8C-239.016 387.978 -306.059 386.001 -362.577 380.59C-361.45 383.49 -360.903 384.953 -359.875 387.906C-303.35 393.507 -234.39 396.4 -191.019 352.476C-172.382 333.595 -167.116 307.946 -151.221 287.892C-140.722 274.579 -119.943 276.293 -109.794 289.289C-98.7689 303.385 -96.5348 323.136 -86.8537 338.222C-73.0141 359.778 -50.1855 368.695 -25.3864 370.725C-1.38464 372.702 20.0865 373.453 43.416 380.366C82.8982 392.064 125.379 415.295 167.649 411.677C202.373 408.691 234.738 391.359 269.547 387.187C337.908 378.995 395.797 411.611 446.166 454.915C446.826 453.037 447.129 452.101 447.728 450.236C397.069 408.296 339.674 379.285 272.401 383.8Z" fill="#222222"/>
<path d="M266.496 390.449C232.51 396.433 201.767 417.239 167.702 421.133C125.873 425.911 82.3775 399.702 43.8575 387.128C20.3566 379.457 -1.0683 378.237 -25.4984 376.583C-51.0686 374.837 -75.9205 366.316 -90.4586 344.093C-100.403 328.896 -102.202 309.494 -112.543 294.765C-121.624 281.829 -141.691 279.37 -151.155 293.032C-165.779 314.121 -169.239 339.572 -187.335 359.271C-229.388 405.066 -301.413 401.112 -357.437 395.352C-356.534 398.358 -356.118 399.873 -355.361 402.918C-299.133 408.849 -225.315 413.535 -184.014 366.072C-166.266 345.642 -164.632 320.158 -151.201 298.192C-142.634 284.214 -123.489 287.411 -115.271 300.169C-105.873 314.727 -104.516 333.351 -95.1706 348.212C-79.9339 372.445 -52.525 380.669 -25.2809 382.389C-0.514709 383.958 20.7718 385.526 44.3913 393.949C82.0283 407.36 126.288 436.357 167.735 430.544C201.213 425.852 230.342 401.481 263.458 393.771C333.315 377.506 393.649 419.361 442.819 464.405C443.524 462.501 443.873 461.558 444.558 459.667C394.756 415.387 335.694 378.27 266.496 390.449Z" fill="#222222"/>
<path d="M261.038 396.591C242.018 402.042 224.732 411.677 207.657 421.424C194.931 428.673 181.223 437.734 166.441 440.021C125.885 446.282 80.8338 414.471 44.5808 400.546C20.9679 391.484 0.00430298 389.573 -24.9859 388.195C-52.9945 386.647 -82.196 379.121 -98.441 354.42C-108.274 339.467 -109.328 321.311 -117.816 305.995C-124.657 293.645 -142.859 288.386 -151.005 302.351C-156.64 312.012 -157.938 324.797 -161.391 335.342C-165.886 349.049 -172.001 362.283 -181.287 373.433C-221.718 422.201 -297.744 416.573 -353.721 410.576C-353.168 413.66 -352.944 415.189 -352.614 418.333C-296.531 424.442 -218.621 430.854 -178.908 380.768C-169.504 368.906 -163.717 355.02 -159.75 340.508C-156.89 330.03 -156.191 317.779 -151.539 307.867C-144.757 293.447 -127.287 298.278 -120.966 310.503C-112.636 326.596 -112.175 345.148 -101.697 360.589C-84.6146 385.744 -53.1791 392.677 -24.5905 394.015C0.5513 395.194 21.337 397.409 44.8246 407.103C65.0897 415.466 84.3662 426.004 104.48 434.716C122.748 442.624 147.046 453.274 167.351 448.859C181.487 445.788 194.127 436.12 205.884 428.225C221.529 417.713 237.339 407.136 255.126 400.546C326.215 374.185 391.222 427.506 439.252 473.928C439.95 472.017 440.306 471.061 441.011 469.157C392.962 423.849 331.007 376.531 261.038 396.591Z" fill="#222222"/>
</svg>
