<svg viewBox="0 0 24 24" fill="none" xmlns="http://www.w3.org/2000/svg">
  <path
    fill-rule="evenodd"
    clip-rule="evenodd"
    d="M5.125 3.25H10.75L12 4.91667L13.25 3.25H18.875V6.75347L18.7106 7H21.375V13.875H20.125V20.75H3.875V13.875H2.625V7H5.28935L5.125 6.75347V3.25ZM17.044 9.5H13.25V11.375H18.875V9.5H17.044ZM10.75 9.5H6.95602H5.125V11.375H10.75V9.5ZM15.706 7L16.375 5.99653V5.75H14.5L13.5625 7H15.706ZM9.5 5.75L10.4375 7H8.29398L7.625 5.99653V5.75H9.5ZM13.25 13.875H17.625V18.25H13.25V13.875ZM10.75 13.875V18.25H6.375V13.875H10.75Z"
    fill="url(#paint0_linear_2060_2161)"/>
  <defs>
    <linearGradient id="paint0_linear_2060_2161" x1="2.625" y1="12" x2="21.375" y2="12" gradientUnits="userSpaceOnUse">
      <stop stop-color="#A266EB"/>
      <stop offset="1" stop-color="#20A0FF"/>
    </linearGradient>
  </defs>
</svg>
