<?xml version="1.0" encoding="utf-8"?>
<svg xmlns="http://www.w3.org/2000/svg" xmlns:xlink="http://www.w3.org/1999/xlink"
	 width="48px" height="48px" viewBox="0 0 50 50" style="enable-background:new 0 0 50 50;" xml:space="preserve">
<style type="text/css">
	.st0{fill:url(#SVGID_1_);}
	.st1{fill:none;stroke:url(#SVGID_2_);stroke-width:2;}
</style>
<g>
	<linearGradient id="SVGID_1_" gradientUnits="userSpaceOnUse" x1="15.625" y1="25" x2="34.375" y2="25">
		<stop  offset="0" style="stop-color:#A266EB"/>
		<stop  offset="1" style="stop-color:#20A0FF"/>
	</linearGradient>
	<path class="st0" d="M31.7,20l0.2-0.2v-3.5h-5.6L25,17.9l-1.2-1.7h-5.6v3.5l0.2,0.2h-2.7v6.9h1.2v6.9h16.2v-6.9h1.2V20H31.7z
		 M20.6,18.8h1.9l0.9,1.2h-2.1l-0.7-1V18.8z M23.8,31.2h-4.4v-4.4h4.4V31.2z M23.8,24.4h-5.6v-1.9H20h3.8V24.4z M27.5,18.8h1.9V19
		l-0.7,1h-2.1L27.5,18.8z M30.6,31.2h-4.4v-4.4h4.4V31.2z M31.9,24.4h-5.6v-1.9H30h1.8V24.4z"/>

		<linearGradient id="SVGID_2_" gradientUnits="userSpaceOnUse" x1="1" y1="24.89" x2="49" y2="24.89" gradientTransform="matrix(1 0 0 -1 0 49.89)">
		<stop  offset="0" style="stop-color:#A266EB"/>
		<stop  offset="1" style="stop-color:#20A0FF"/>
	</linearGradient>
	<path class="st1" d="M11,1h28c5.5,0,10,4.5,10,10v28c0,5.5-4.5,10-10,10H11C5.5,49,1,44.5,1,39V11C1,5.5,5.5,1,11,1z"/>
</g>
</svg>
