<svg viewBox="0 0 24 24" fill="none" xmlns="http://www.w3.org/2000/svg">
  <path d="M21.0011 12.2057C21.0011 11.5939 20.9505 10.9788 20.8426 10.377H12.1816V13.8427H17.1413C16.9355 14.9605 16.2742 15.9493 15.3059 16.5776V18.8263H18.2649C20.0025 17.2588 21.0011 14.9439 21.0011 12.2057Z" fill="#4285F4"/>
  <path
    d="M12.1812 20.9983C14.6574 20.9983 16.7457 20.2014 18.2672 18.8258L15.3085 16.5773C14.4853 17.1262 13.4227 17.437 12.1845 17.437C9.78929 17.437 7.75838 15.8531 7.02968 13.7236H3.97656V16.0416C5.53517 19.0804 8.70973 20.9983 12.1812 20.9983Z"
    fill="#34A853"/>
  <path d="M7.02681 13.7241C6.64218 12.6063 6.64218 11.3959 7.02681 10.2782V7.95996H3.97676C2.67441 10.503 2.67441 13.4992 3.97676 16.0423L7.02681 13.7241Z" fill="#FBBC04"/>
  <path
    d="M12.1812 6.56189C13.4901 6.54205 14.7552 7.02482 15.7032 7.91101L18.3245 5.34173C16.6647 3.81405 14.4617 2.97415 12.1812 3.00061C8.70973 3.00061 5.53517 4.91847 3.97656 7.96061L7.0263 10.2786C7.75163 8.14578 9.78591 6.56189 12.1812 6.56189Z"
    fill="#EA4335"/>
</svg>
