<?xml version="1.0" encoding="utf-8"?>
<!-- Generator: Adobe Illustrator 25.0.1, SVG Export Plug-In . SVG Version: 6.00 Build 0)  -->
<svg version="1.1" id="Layer_1" xmlns="http://www.w3.org/2000/svg" xmlns:xlink="http://www.w3.org/1999/xlink" x="0px" y="0px"
	 viewBox="0 0 1440 877" style="enable-background:new 0 0 1440 877;" xml:space="preserve">
<style type="text/css">
	.st0{fill:#131313;}
	.st1{opacity:0.4;}
	.st2{fill:url(#SVGID_1_);}
	.st3{fill:url(#SVGID_2_);}
	.st4{fill:url(#SVGID_3_);}
	.st5{fill:url(#SVGID_4_);}
	.st6{fill:url(#SVGID_5_);}
	.st7{fill:url(#SVGID_6_);}
	.st8{fill:url(#SVGID_7_);}
	.st9{fill:url(#SVGID_8_);}
	.st10{fill:url(#SVGID_9_);}
	.st11{fill:url(#SVGID_10_);}
	.st12{fill:url(#SVGID_11_);}
	.st13{fill:url(#SVGID_12_);}
	.st14{fill:url(#SVGID_13_);}
	.st15{fill:url(#SVGID_14_);}
	.st16{fill:url(#SVGID_15_);}
	.st17{fill:url(#SVGID_16_);}
	.st18{fill:url(#SVGID_17_);}
	.st19{fill:url(#SVGID_18_);}
	.st20{fill:url(#SVGID_19_);}
	.st21{fill:url(#SVGID_20_);}
	.st22{fill:url(#SVGID_21_);}
	.st23{fill:url(#SVGID_22_);}
	.st24{fill:url(#SVGID_23_);}
	.st25{fill:url(#SVGID_24_);}
	.st26{fill:url(#SVGID_25_);}
	.st27{fill:url(#SVGID_26_);}
	.st28{fill:url(#SVGID_27_);}
	.st29{fill:url(#SVGID_28_);}
	.st30{fill:url(#SVGID_29_);}
	.st31{fill:url(#SVGID_30_);}
	.st32{fill:url(#SVGID_31_);}
	.st33{fill:url(#SVGID_32_);}
	.st34{fill:url(#SVGID_33_);}
	.st35{fill:url(#SVGID_34_);}
	.st36{fill:url(#SVGID_35_);}
	.st37{fill:url(#SVGID_36_);}
	.st38{fill:url(#SVGID_37_);}
	.st39{fill:url(#SVGID_38_);}
	.st40{fill:url(#SVGID_39_);}
	.st41{fill:url(#SVGID_40_);}
	.st42{fill:url(#SVGID_41_);}
	.st43{fill:url(#SVGID_42_);}
	.st44{fill:url(#SVGID_43_);}
	.st45{fill:url(#SVGID_44_);}
	.st46{fill:url(#SVGID_45_);}
	.st47{fill:url(#SVGID_46_);}
	.st48{fill:url(#SVGID_47_);}
	.st49{fill:url(#SVGID_48_);}
	.st50{fill:url(#SVGID_49_);}
	.st51{fill:url(#SVGID_50_);}
	.st52{fill:url(#SVGID_51_);}
	.st53{fill:url(#SVGID_52_);}
	.st54{fill:url(#SVGID_53_);}
	.st55{fill:url(#SVGID_54_);}
	.st56{fill:url(#SVGID_55_);}
	.st57{fill:url(#SVGID_56_);}
	.st58{fill:url(#SVGID_57_);}
	.st59{fill:url(#SVGID_58_);}
	.st60{fill:url(#SVGID_59_);}
</style>
<path class="st0" d="M0-0.4h1440V877H0V-0.4z"/>
<g class="st1">
	
		<linearGradient id="SVGID_1_" gradientUnits="userSpaceOnUse" x1="86.187" y1="-442.5303" x2="117.474" y2="-367.4473" gradientTransform="matrix(1 0 0 1 0 409.3301)">
		<stop  offset="0" style="stop-color:#B983F1"/>
		<stop  offset="1" style="stop-color:#33B8FF"/>
	</linearGradient>
	<path class="st2" d="M267.6-83.5c-17,13-30.3,30.2-43.3,46.7c-7.2,9.2-14.5,18.6-22.4,27.2C187,6.7,173.2,16.8,158.7,22.2
		c-20.4,7.6-44,7.9-65,8.2C77,30.6,59.7,30,43,29.5C-0.2,28-45,26.4-86.6,38.8l0.6,2.1c41.3-12.3,85.9-10.8,129-9.2
		c16.8,0.6,34.1,1.2,50.8,1c21.1-0.3,45-0.7,65.7-8.3c14.9-5.5,28.9-15.8,44.1-32.4c7.9-8.7,15.3-18.1,22.5-27.3
		C239-51.9,252.3-69,269-81.8"/>
	
		<linearGradient id="SVGID_2_" gradientUnits="userSpaceOnUse" x1="90.6554" y1="-436.5066" x2="122.6944" y2="-359.6165" gradientTransform="matrix(1 0 0 1 0 409.3301)">
		<stop  offset="0" style="stop-color:#B983F1"/>
		<stop  offset="1" style="stop-color:#33B8FF"/>
	</linearGradient>
	<path class="st3" d="M271.2-78.4c-17.6,13.5-31.1,31.5-44.1,49c-7.4,9.8-15,20-23.2,29.1c-9.1,10.1-23.2,24.4-41.3,31.1
		c-20,7.4-43.3,7.5-64,7.6h-0.1c-16.7,0.1-34.1-0.7-50.9-1.5c-43.1-2-87.6-4-129.2,7.7l0.6,2.1C-39.6,35,4.7,37.1,47.6,39.1
		c16.8,0.8,34.2,1.6,51,1.5h0.1c20.8-0.1,44.4-0.2,64.7-7.7c8.8-3.3,22.8-10.1,42.1-31.7c8.3-9.2,15.9-19.4,23.3-29.3
		c13-17.3,26.4-35.2,43.7-48.5"/>
	
		<linearGradient id="SVGID_3_" gradientUnits="userSpaceOnUse" x1="93.8718" y1="-430.0473" x2="126.5774" y2="-351.5578" gradientTransform="matrix(1 0 0 1 0 409.3301)">
		<stop  offset="0" style="stop-color:#B983F1"/>
		<stop  offset="1" style="stop-color:#33B8FF"/>
	</linearGradient>
	<path class="st4" d="M272.9-71.8c-17.3,14-30.5,32-43.3,49.7c-7.6,10.4-15.4,21.2-24,31c-8.6,9.7-22.2,23.6-39.4,30.1
		c-20.4,7.6-44.6,7.4-65.9,7.1h-1.5c-15.6-0.2-31.7-1.1-47.2-1.9C8.8,41.8-35.3,39.4-77,50.6l0.6,2.1C-35.2,41.6,8.9,44,51.5,46.3
		c15.6,0.9,31.7,1.7,47.3,1.9h1.5c21.5,0.3,45.8,0.6,66.7-7.2c17.6-6.6,31.4-20.6,40.2-30.6c8.6-9.8,16.6-20.7,24.1-31.1
		C244-38.2,257.1-56.3,274.2-70"/>
	
		<linearGradient id="SVGID_4_" gradientUnits="userSpaceOnUse" x1="96.8966" y1="-423.698" x2="130.1172" y2="-343.9714" gradientTransform="matrix(1 0 0 1 0 409.3301)">
		<stop  offset="0" style="stop-color:#B983F1"/>
		<stop  offset="1" style="stop-color:#33B8FF"/>
	</linearGradient>
	<path class="st5" d="M274.6-65.4c-17,14.1-29.9,32.4-42.3,50.1c-7.4,10.4-15,21.2-23.3,30.9c-9.4,11-22.3,24.4-39.2,30.9
		c-20.1,7.6-43.9,7.2-64.9,6.8h-1.7C87.5,53,71.3,52,55.7,51.1C13,48.3-31,45.6-72.7,56.3l0.5,2.1c41.3-10.6,85.2-7.9,127.6-5.3
		c15.7,1,31.9,2,47.6,2.3h1.7c21.2,0.4,45.3,0.9,65.8-6.9c17.3-6.6,30.5-20.3,40-31.5c8.4-9.8,16-20.6,23.3-31
		c12.4-17.6,25.2-35.7,42-49.6"/>
	
		<linearGradient id="SVGID_5_" gradientUnits="userSpaceOnUse" x1="103.4893" y1="-410.3052" x2="137.2355" y2="-329.3194" gradientTransform="matrix(1 0 0 1 0 409.3301)">
		<stop  offset="0" style="stop-color:#B983F1"/>
		<stop  offset="1" style="stop-color:#33B8FF"/>
	</linearGradient>
	<path class="st6" d="M280.1-52.3C263-37.9,250.2-19.1,237.9-0.9c-7.2,10.7-14.7,21.7-23,31.6c-8.5,10.2-21.7,24.5-39,30.9
		C155.7,69,132,68.4,111,67.8h-1c-15.5-0.4-31.6-1.5-47.1-2.6c-42.5-2.9-86.4-6-128.3,4.2l0.5,2.1c41.5-10.1,85.3-7.1,127.6-4.1
		c15.5,1.1,31.6,2.2,47.2,2.6h1c21.2,0.6,45.1,1.2,65.6-6.4c8.5-3.2,22-9.9,40-31.5c8.3-10,15.8-21.1,23.1-31.8
		c12.2-18.1,24.9-36.8,41.8-50.9"/>
	
		<linearGradient id="SVGID_6_" gradientUnits="userSpaceOnUse" x1="116.1347" y1="-388.6368" x2="150.5155" y2="-306.1235" gradientTransform="matrix(1 0 0 1 0 409.3301)">
		<stop  offset="0" style="stop-color:#B983F1"/>
		<stop  offset="1" style="stop-color:#33B8FF"/>
	</linearGradient>
	<path class="st7" d="M293.9-23.8c-16.1,13.4-28.3,30.7-40.2,47.3c-7,9.9-14.2,20.1-22.2,29.3c-9.4,11-22.4,24.4-38.5,30.2
		c-19.5,7-42.7,6.4-63.2,5.9l-4.5-0.1c-15.9-0.4-32.2-1.5-48.1-2.6c-42.8-2.9-87-5.9-128.6,4.3l0.5,2.1C-9.7,82.4,34.4,85.4,77,88.4
		c15.9,1.1,32.4,2.2,48.3,2.6l4.5,0.1c20.7,0.6,44.2,1.2,64-6c16.6-6,29.8-19.6,39.4-30.8c8-9.3,15.3-19.6,22.3-29.5
		c11.8-16.6,24-33.7,39.8-46.9"/>
	
		<linearGradient id="SVGID_7_" gradientUnits="userSpaceOnUse" x1="165.2212" y1="-392.5178" x2="200.302" y2="-308.3302" gradientTransform="matrix(1 0 0 1 0 409.3301)">
		<stop  offset="0" style="stop-color:#B983F1"/>
		<stop  offset="1" style="stop-color:#33B8FF"/>
	</linearGradient>
	<path class="st8" d="M381.9-31.9c-4.4,1.6-9.1,3.2-13.6,4.8c-20.4,7.1-41.5,14.4-58.4,27.2c-14.9,11.3-26.4,26.1-37.5,40.5
		c-6.7,8.7-13.7,17.7-21.4,25.8c-8.5,9-21.6,21.6-37,26.6c-20.2,6.6-43.9,6-64.8,5.6l-6.1-0.1c-16.6-0.3-33.5-1.1-49.8-1.8
		c-15-0.7-30.4-1.3-45.6-1.7c-30.2-0.7-57.3-0.7-84,6l0.5,2.1c26.5-6.7,53.5-6.7,83.5-6c15.2,0.4,30.6,1.1,45.6,1.7
		c16.3,0.7,33.2,1.5,49.9,1.8l6.1,0.1c21.1,0.5,45,1,65.5-5.7c15.8-5.2,29.2-18,37.9-27.2c7.7-8.2,14.7-17.2,21.5-25.9
		c11-14.2,22.5-28.9,37.1-40.1c16.6-12.6,37.5-19.9,57.8-26.9c4.5-1.5,9.2-3.2,13.6-4.8"/>
	
		<linearGradient id="SVGID_8_" gradientUnits="userSpaceOnUse" x1="195.313" y1="-365.9676" x2="228.032" y2="-287.4476" gradientTransform="matrix(1 0 0 1 0 409.3301)">
		<stop  offset="0" style="stop-color:#B983F1"/>
		<stop  offset="1" style="stop-color:#33B8FF"/>
	</linearGradient>
	<path class="st9" d="M442.8-29.2c-17,8.8-28.5,22-40.6,36l-5.5,6.3c-6.7,7.9-14.6,14.8-23.2,20.5c-6.3,3.8-12.9,7.2-19.7,10.1
		c-5.2,2.4-10.6,4.8-15.7,7.6c-12.1,6.8-22.7,15.6-33,24.1c-5.8,4.9-11.9,9.9-18.2,14.5c-13.4,9.8-26.5,16.9-39.1,21
		c-20.6,6.8-43.4,7.7-65.5,8.6l-5.1,0.2c-18.2,0.7-36.7,1-54.7,1.2c-16.4,0.2-33.4,0.5-50.1,1l-3.1,0.1
		c-25.9,0.9-86.2,11.1-110.7,20l0.8,2.1c24.1-8.8,84.3-18.9,110-19.8l3.1-0.1c16.7-0.6,33.7-0.8,50.1-1c17.9-0.3,36.5-0.5,54.7-1.2
		l5.1-0.2c22.2-0.8,45.2-1.7,66.1-8.7c12.8-4.2,26.1-11.4,39.6-21.4c6.3-4.6,12.4-9.7,18.3-14.6c10.2-8.5,20.8-17.2,32.7-23.9
		c5-2.8,10.3-5.2,15.5-7.5c6.9-2.9,13.6-6.3,20-10.2c8.8-5.8,16.8-12.8,23.7-20.9l5.5-6.3c12-13.8,23.3-26.9,40-35.5"/>
	
		<linearGradient id="SVGID_9_" gradientUnits="userSpaceOnUse" x1="262.2794" y1="-349.3674" x2="289.1104" y2="-284.9785" gradientTransform="matrix(1 0 0 1 0 409.3301)">
		<stop  offset="0" style="stop-color:#B983F1"/>
		<stop  offset="1" style="stop-color:#33B8FF"/>
	</linearGradient>
	<path class="st10" d="M573.3-16.4c-5.5,0.4-11.2,0.9-16.7,1.4c-28.9,2.7-62.4,6.8-93.3,20.8C445.2,14,433.4,28,421,42.8l-4.9,5.8
		c-9.2,10.7-17.6,18.1-26.5,23.2c-6.9,3.8-14.1,7.2-21.4,10.2c-4.6,1.9-9.3,4-14,6.3c-11.6,5.6-23.3,11.4-34.6,17.1
		c-6.9,3.4-13.9,6.9-20.9,10.3c-3.4,1.7-6.9,3.5-10.2,5.3c-9.7,5.2-19.8,10.5-29.9,12.9c-20.1,4.7-41.3,6.2-61.8,7.5l-6.4,0.4
		c-10.1,0.7-20.3,1.3-30.2,1.9c-26.2,1.6-53.2,3.3-79.7,6.2C56,152.8-2.6,172.6-28,186.1l1,1.9c25-13.4,83.4-33.2,107.6-35.9
		c26.4-3,53.4-4.6,79.6-6.2c9.9-0.6,20.2-1.2,30.2-1.9l6.4-0.4c20.6-1.4,41.9-2.8,62.1-7.6c10.4-2.5,20.6-7.9,30.4-13.1
		c3.5-1.9,6.8-3.7,10.2-5.3l20.9-10.3c11.3-5.6,23-11.4,34.6-17.1c4.5-2.2,9.2-4.2,13.8-6.2c7.4-3,14.6-6.4,21.6-10.3
		c9.2-5.3,17.8-12.8,27.1-23.7l4.9-5.8c12.3-14.6,23.9-28.4,41.6-36.4c30.6-13.9,63.9-17.9,92.6-20.6c5.5-0.5,11.2-1,16.7-1.4"/>
	
		<linearGradient id="SVGID_10_" gradientUnits="userSpaceOnUse" x1="361.7925" y1="-347.0272" x2="388.6085" y2="-282.6713" gradientTransform="matrix(1 0 0 1 0 409.3301)">
		<stop  offset="0" style="stop-color:#B983F1"/>
		<stop  offset="1" style="stop-color:#33B8FF"/>
	</linearGradient>
	<path class="st11" d="M772-50.4L758.5-44c-14.7,7-29.8,14.2-44.8,21.3c-4.6,2.2-9.3,4.5-13.9,6.8c-10.5,5.4-21.4,10.3-32.4,14.6
		C642.3,8.1,613.7,7,586,5.8c-4.8-0.2-9.9-0.4-14.7-0.6c-3.2-0.1-6.6-0.2-10.1-0.3c-26.3-1-59.2-2.3-81.3,12.6
		c-18.4,12.4-29,31.9-39.3,50.7c-2.1,3.8-4.2,7.8-6.4,11.6c-7.5,13.1-15.5,23.3-24.4,31c-10,8.6-21.8,14.8-34.6,18.3
		c-13.9,3.9-28.5,5.2-42.5,6.5c-8.7,0.8-17.7,1.6-26.5,3c-10.1,1.6-19.1,4.6-28.7,7.8c-3.4,1.1-6.9,2.3-10.5,3.4
		c-18.5,5.6-38.3,8.3-57.6,10.9c-5.6,0.8-11.5,1.5-17.2,2.4l-3.6,0.5c-34.6,5.2-70.3,10.4-104.8,19.1c-25.5,6.3-87.5,25-110.7,44.2
		l1.4,1.7c22.8-19,84.6-37.6,110-43.9c34.4-8.6,70.1-13.9,104.6-19.1l3.5-0.5c5.7-0.8,11.5-1.6,17.1-2.4c19.3-2.6,39.2-5.3,57.9-11
		c3.6-1.1,7.1-2.2,10.5-3.4c9.5-3.1,18.5-6.1,28.4-7.7c8.7-1.4,17.7-2.2,26.4-3c14.2-1.3,28.8-2.6,42.9-6.6
		c13.1-3.5,25.2-9.9,35.5-18.7c9.1-7.9,17.3-18.2,24.8-31.5c2.2-3.8,4.3-7.8,6.4-11.7c10.1-18.6,20.5-37.8,38.6-49.9
		C502.7,4.7,535.1,6,561.2,7c3.5,0.1,6.9,0.3,10.1,0.4C576,7.6,580.8,7.8,586,8c27.9,1.2,56.7,2.4,82.3-7.2
		c11.1-4.4,21.9-9.3,32.5-14.8c4.5-2.3,9.2-4.6,13.8-6.8c14.9-7.1,30.1-14.3,44.8-21.3l13.5-6.4"/>
	
		<linearGradient id="SVGID_11_" gradientUnits="userSpaceOnUse" x1="369.8407" y1="-344.2704" x2="397.9887" y2="-276.7195" gradientTransform="matrix(1 0 0 1 0 409.3301)">
		<stop  offset="0" style="stop-color:#B983F1"/>
		<stop  offset="1" style="stop-color:#33B8FF"/>
	</linearGradient>
	<path class="st12" d="M799.8-49.1c-8.2,3.3-16.7,6.7-25,10.1c-12.9,5.3-25.9,10.9-38.6,16.3c-21.5,9.3-43.8,18.9-66,27
		c-25.6,9.4-54.6,7.4-82.5,5.5c-4.8-0.3-9.7-0.7-14.4-0.9c-3.2-0.2-6.7-0.4-10.3-0.7c-26.2-1.8-58.8-4-79.9,11.1
		c-18.6,13.3-28.8,33.8-38.8,53.6c-2.1,4-4.1,8.2-6.3,12.2c-16.1,30.5-34.1,46.1-60.1,52.1c-14.2,3.3-28.9,3.7-43,4
		c-8.6,0.2-17.5,0.4-26.2,1.3c-12.2,1.2-23.2,4.6-34.8,8.1l-7.1,2.2c-18.6,5.5-38.3,8.6-57.4,11.6c-5.7,0.9-11.7,1.8-17.4,2.8
		c-35.3,6-71.9,12.1-107.5,22.2c-27.1,7.6-96.2,34.1-118,53.7l1.4,1.6c21.5-19.3,90.3-45.7,117.2-53.2c35.5-10.1,72-16.2,107.3-22.1
		c5.8-1,11.7-1.9,17.4-2.8c19.2-3,38.9-6.1,57.7-11.6l7.1-2.1c11.5-3.5,22.3-6.8,34.4-8c8.7-0.9,17.5-1.1,26-1.3
		c14.3-0.4,29.1-0.7,43.5-4.1c13.8-3,26.5-9.7,36.8-19.4c9-8.3,16.8-19.1,24.6-33.9c2.1-4,4.2-8.2,6.3-12.3
		c9.8-19.6,20-39.8,38.1-52.8C504.9,6.4,537,8.6,562.9,10.4c3.6,0.2,7.1,0.5,10.4,0.7c4.7,0.3,9.4,0.6,14.4,0.9
		c28.1,2,57.3,4,83.4-5.6c22.3-8.1,44.5-17.7,66.1-27.1c12.6-5.5,25.6-11.1,38.5-16.3c8.3-3.4,16.8-6.8,24.9-10.1"/>
	
		<linearGradient id="SVGID_12_" gradientUnits="userSpaceOnUse" x1="369.5634" y1="-340.6854" x2="399.9904" y2="-267.6654" gradientTransform="matrix(1 0 0 1 0 409.3301)">
		<stop  offset="0" style="stop-color:#B983F1"/>
		<stop  offset="1" style="stop-color:#33B8FF"/>
	</linearGradient>
	<path class="st13" d="M797.9-34.6c-6.1,2.1-12.4,4.2-18.5,6.3c-17.6,6.1-35.3,12.6-52.4,19c-18,6.7-36.6,13.6-55,19.9
		c-25.6,8.8-54.1,6.1-81.8,3.5c-4.7-0.4-9.5-0.9-14.2-1.3c-3.3-0.3-6.8-0.6-10.6-1c-26.2-2.5-58.7-5.7-78.9,9.8
		c-18.6,14.2-28.7,35.6-38.4,56.3c-2,4.3-4.2,8.9-6.3,13.2c-7.7,15.5-15.2,26.6-23.6,35c-9.9,10-22.6,16.7-36.4,19.3
		c-14.7,2.9-29.9,2.4-44.5,1.9c-8.8-0.3-18-0.6-27-0.2c-15,0.7-28.4,4.8-42.6,9.1h-0.1c-18.4,5.5-37.8,9-56.6,12.3
		c-5.9,1-12.1,2.1-18.1,3.3c-38.6,7.3-73.3,14.2-107,24.7c-27,8.4-89.4,35.3-111,56.2l1.5,1.6c21.3-20.7,83.4-47.4,110.1-55.8
		c33.6-10.5,68.2-17.4,106.8-24.7c6-1.1,12.1-2.2,18.1-3.3c18.8-3.3,38.3-6.8,56.8-12.3c14-4.3,27.3-8.2,42.1-8.9
		c8.9-0.4,18-0.1,26.8,0.2c14.7,0.5,30,1,45-1.9c14.2-2.7,27.3-9.6,37.5-19.9c8.6-8.5,16.2-19.8,24-35.5c2.1-4.3,4.3-8.8,6.3-13.2
		c9.6-20.5,19.6-41.6,37.7-55.5c19.5-14.9,51.6-11.8,77.4-9.3c3.7,0.3,7.3,0.7,10.6,1c4.6,0.4,9.3,0.9,14.2,1.3
		c27.8,2.6,56.7,5.3,82.7-3.6C691,6.3,709.6-0.6,727.6-7.3c17.1-6.3,34.8-12.9,52.4-19c6.1-2.1,12.4-4.2,18.5-6.3"/>
	
		<linearGradient id="SVGID_13_" gradientUnits="userSpaceOnUse" x1="366.5983" y1="-335.3344" x2="399.0331" y2="-257.4906" gradientTransform="matrix(1 0 0 1 0 409.3301)">
		<stop  offset="0" style="stop-color:#B983F1"/>
		<stop  offset="1" style="stop-color:#33B8FF"/>
	</linearGradient>
	<path class="st14" d="M802.1-22.8c-5.5,1.5-11.2,3.1-16.7,4.7L770.7-14c-17,4.9-34.7,9.9-51.9,15.2c-7.6,2.3-15.3,5.1-22.6,7.9
		c-8.3,3-16.9,6.1-25.5,8.6c-24.5,7.1-51.4,4-77.5,0.9c-4.2-0.5-8.6-1-12.8-1.4c-15.6-1.6-33.2-3.5-50.5-3.1
		c-15.5,0.4-29.2,1.4-40.1,10.2c-18.7,14.9-28.5,37.2-38,58.7c-2.3,5.2-4.7,10.5-7.1,15.6c-12,25.1-27.4,49.1-58.4,54.4
		c-15.6,2.7-31.5,1.3-46.8-0.1c-8.7-0.8-17.6-1.6-26.5-1.6c-16.5-0.1-31.5,4-45.4,8.2c-18.2,5.5-37.2,9.2-55.6,12.9
		c-6.2,1.2-12.6,2.5-18.9,3.8c-38.3,8.1-72.7,15.7-105.9,27.3C60.6,212.9-6,249.6-26.9,271.6l1.4,1.5
		c20.6-21.6,86.9-58.3,113.4-67.5c33.1-11.6,67.4-19.2,105.6-27.3c6.3-1.3,12.7-2.6,18.9-3.8c18.4-3.7,37.5-7.4,55.8-13
		c13.8-4.2,28.6-8.2,44.8-8.1c8.8,0,17.7,0.9,26.3,1.6c15.5,1.4,31.5,2.8,47.4,0.1c32-5.5,47.8-30,60-55.6
		c2.4-5.1,4.8-10.5,7.1-15.7c9.4-21.2,19.1-43.2,37.4-57.8c10.5-8.4,23.8-9.4,38.8-9.7c17.2-0.5,34.7,1.4,50.2,3.1
		c4.2,0.4,8.3,0.9,12.7,1.4c26.3,3.1,53.5,6.3,78.4-1c8.6-2.5,17.2-5.6,25.6-8.7c7.4-2.7,15-5.5,22.5-7.8
		C736.6-2,754.2-7,771.3-11.9l14.5-4.1c5.5-1.6,11.3-3.1,16.7-4.7"/>
	
		<linearGradient id="SVGID_14_" gradientUnits="userSpaceOnUse" x1="412.4327" y1="-349.6474" x2="449.432" y2="-260.8551" gradientTransform="matrix(1 0 0 1 0 409.3301)">
		<stop  offset="0" style="stop-color:#B983F1"/>
		<stop  offset="1" style="stop-color:#33B8FF"/>
	</linearGradient>
	<path class="st15" d="M906.5-50.5c-27.7,23.2-64.3,31.3-99.7,39.1c-5.2,1.2-10.6,2.4-15.7,3.6L775-4.1c-17.1,4-34.8,8-52.1,12.5
		c-9.8,2.5-19.5,5.7-29,8.7c-6.7,2.2-13.5,4.4-20.3,6.4c-25.1,7.3-52.6,3.5-79.2-0.2c-4.6-0.6-9.4-1.3-14-1.9
		c-17.5-2.1-33.4-4-49.4-3.6c-14.9,0.3-27.2,1.3-37.6,9.9c-18.7,15.5-28.4,38.4-37.8,60.5c-2,4.7-4,9.6-6.1,14.2
		c-5.9,13-13,27.9-23.9,40c-9.4,10.5-19.9,15.9-34.9,18.2c-16.4,2.5-32.8,0.2-48.8-2c-9.2-1.3-18.7-2.6-28.2-3
		c-17.1-0.8-32.3,3.1-46.2,7.4c-17.7,5.4-36.1,9.5-53.9,13.4c-6.7,1.5-13.5,3-20.3,4.6c-36,8.4-71.1,17-104.6,29.9
		c-25,9.7-99.8,57.5-120.4,80.8l1.7,1.4c20.3-23,94.8-70.6,119.6-80.2C122.9,200,158,191.4,193.9,183c6.7-1.6,13.6-3.1,20.3-4.6
		c17.9-3.9,36.3-8,54.1-13.5c15.9-4.8,29.7-8,45.5-7.3c9.3,0.4,18.8,1.7,28,3c16.1,2.2,32.7,4.5,49.4,2c15.6-2.4,26.4-8,36.2-18.9
		c11.1-12.4,18.4-27.5,24.3-40.6c2.1-4.6,4.1-9.5,6.1-14.2c9.3-21.9,18.8-44.5,37.2-59.7c9.8-8.2,21.7-9.1,36.3-9.4
		c15.8-0.3,31.6,1.4,49,3.6c4.6,0.6,9.1,1.2,14,1.9c26.8,3.7,54.6,7.5,80.1,0.1c6.8-2,13.7-4.2,20.4-6.4c9.4-3,19.1-6.2,28.8-8.7
		c17.3-4.4,34.9-8.5,52-12.4c5.4-1.2,10.7-2.5,16.1-3.7c5.4-1.3,10.5-2.4,15.7-3.5c35.7-7.9,72.5-16.1,100.6-39.6"/>
	
		<linearGradient id="SVGID_15_" gradientUnits="userSpaceOnUse" x1="422.4594" y1="-347.9345" x2="463.0104" y2="-250.6165" gradientTransform="matrix(1 0 0 1 0 409.3301)">
		<stop  offset="0" style="stop-color:#B983F1"/>
		<stop  offset="1" style="stop-color:#33B8FF"/>
	</linearGradient>
	<path class="st16" d="M912.3-38.6c-26.1,25.6-63.7,32-100,38.3c-5,0.9-10.2,1.7-15.1,2.7c-40.9,7.5-80.9,15.2-120.5,26.8
		c-25.5,7.5-53.2,3.3-80-0.7c-3.7-0.6-7.6-1.1-11.4-1.7c-14.9-2.1-31.8-4.5-48.5-4.5c-12.5,0-28,0-39.5,9.6
		c-18.9,16-28.5,39.6-37.9,62.3c-2.2,5.4-4.5,10.9-6.8,16.2c-5.9,13.3-13.1,28.6-24.2,40.6c-9.6,10.4-20.1,15.6-35.2,17.4
		c-16.5,1.9-33-1.1-48.9-4c-9.8-2-19.6-3.4-29.6-4.3c-18.1-1.3-33.2,2.4-46.9,6.7c-16.9,5.3-34.6,9.6-51.6,13.7
		c-7.3,1.8-14.8,3.6-22.1,5.5c-33.8,8.6-69.6,18.3-103.2,32.5C66.3,229,7.2,269.5-13,294.1l1.6,1.4c19.9-24.2,78.8-64.6,103.1-75
		c33.4-14.2,69.2-23.8,102.9-32.5c7.4-1.9,14.9-3.7,22.1-5.5c17.1-4.2,34.7-8.4,51.7-13.8c13.5-4.2,28.4-7.9,46.1-6.6
		c9.9,0.9,19.7,2.4,29.4,4.3c16.1,2.9,32.7,6,49.5,4c15.7-1.8,26.6-7.2,36.5-18c11.3-12.3,18.6-27.7,24.6-41.2
		c2.3-5.3,4.6-10.9,6.8-16.3c9.2-22.5,18.8-45.8,37.3-61.5c10.8-9.2,25.3-9.2,38-9.2c16.6,0,33.4,2.4,48.2,4.5
		c3.7,0.5,7.6,1.1,11.4,1.7c27,4.1,54.9,8.3,80.9,0.7C716.7,19.7,756.6,12,797.5,4.4c5-0.9,10.1-1.8,15.1-2.7
		c18-3.1,36.5-6.3,54-11.9c19.8-6.4,35.3-15.3,47.2-27"/>
	
		<linearGradient id="SVGID_16_" gradientUnits="userSpaceOnUse" x1="418.9994" y1="-339.7579" x2="462.5544" y2="-235.2309" gradientTransform="matrix(1 0 0 1 0 409.3301)">
		<stop  offset="0" style="stop-color:#B983F1"/>
		<stop  offset="1" style="stop-color:#33B8FF"/>
	</linearGradient>
	<path class="st17" d="M917.5-26.8c-11,12.5-26.1,21.4-46,27.4c-17.6,5.3-36.5,7.7-54.8,9.9c-5.3,0.6-10.2,1.3-15.2,2l-7.3,1
		c-40,5.5-77.8,10.7-116,21.6c-25.7,7.3-53.2,3-79.9-1.2l-10.2-1.6c-2.9-0.4-6.1-1-9.4-1.5c-24.7-4.1-58.6-9.7-77.5,6.5
		c-19,16.2-28.7,40.2-38.1,63.4c-2.2,5.5-4.5,11.3-6.9,16.7c-6,13.6-13.3,29.1-24.3,41.4c-9.7,10.7-20.3,15.8-35.4,17.2
		c-17,1.6-33.9-2.1-50.1-5.7c-10-2.4-20.1-4.2-30.3-5.5c-15.3-1.6-29.9,0.2-47.4,6c-16.2,5.3-32.9,9.7-49.2,14
		c-7.8,2.1-15.9,4.2-23.9,6.4c-31.7,8.9-68.4,19.6-102.1,35.1c-22.8,10.5-92.2,62-112,88.1l1.9,1.3C2.9,290,72,238.7,94.6,228.3
		c33.4-15.5,70.1-26.2,101.8-35.1c7.9-2.2,16-4.4,23.8-6.4c16.3-4.3,33-8.7,49.3-14.1c17.2-5.6,31.5-7.4,46.5-5.9
		c10.1,1.3,20.1,3.1,30,5.5c16.4,3.6,33.4,7.4,50.8,5.8c15.7-1.5,26.7-6.8,36.8-17.9c11.3-12.4,18.7-28.2,24.7-42
		c2.4-5.4,4.7-11.2,6.9-16.7c9.2-22.9,18.8-46.6,37.4-62.5c18.2-15.5,51.5-10,75.8-6c3.4,0.5,6.4,1.1,9.4,1.5l10.2,1.6
		c26.9,4.2,54.6,8.6,80.8,1.1c38-10.8,75.7-16,115.6-21.6l7.3-1c4.9-0.7,9.9-1.3,15.1-2c36-4.5,76.9-9.6,102.1-38.1"/>
	
		<linearGradient id="SVGID_17_" gradientUnits="userSpaceOnUse" x1="420.6765" y1="-331.6109" x2="466.3906" y2="-221.9048" gradientTransform="matrix(1 0 0 1 0 409.3301)">
		<stop  offset="0" style="stop-color:#B983F1"/>
		<stop  offset="1" style="stop-color:#33B8FF"/>
	</linearGradient>
	<path class="st18" d="M923-15.8c-23.6,30.5-65.9,33.9-103.2,37c-5.5,0.4-10.7,0.9-15.8,1.4s-10.5,1-15.6,1.5
		C752.3,27.5,715,31,679.3,41.4c-25.2,7.4-52.4,3.1-78.7-1.1c-3.9-0.6-7.9-1.3-11.8-1.9l-7.2-1.1c-24.6-3.9-58.2-9.2-77.6,8.1
		c-18.4,16.3-27.8,39.9-37,62.6c-2.5,6.1-5,12.3-7.6,18.2c-6.1,13.7-13.2,28-23.5,39.5c-10.1,11.3-21.2,16.5-37.1,17.5
		c-17.1,1.1-33.9-3.2-50.2-7.3c-10.3-2.9-20.9-5.1-31.5-6.6c-15.3-2-30.8-0.3-45.3,4.9c-16,5.4-32.4,10.2-48.4,14.8
		c-8.7,2.5-17.6,5.1-26.4,7.8l-4.2,1.3c-28.8,8.7-61.5,18.6-90.9,32.7C68,246.8-0.5,306.1-16.8,329.4l1.8,1.2
		c16.1-22.9,84.3-82.1,117.9-98.1c29.3-14,61.9-23.8,90.6-32.5l4.2-1.3c8.8-2.7,17.7-5.2,26.4-7.7c16-4.6,32.5-9.4,48.5-14.8
		c14.2-5.1,29.4-6.7,44.3-4.8c10.5,1.6,21,3.8,31.2,6.6c16.4,4.2,33.4,8.5,50.9,7.4c16.5-1,28.1-6.5,38.6-18.3
		c10.5-11.7,17.6-26.2,23.8-40.1c2.6-5.9,5.2-12.2,7.6-18.3c9.1-22.5,18.5-45.8,36.5-61.8c18.6-16.6,51.7-11.3,75.8-7.5
		c2.5,0.4,4.9,0.8,7.2,1.1c3.9,0.6,7.9,1.2,11.8,1.8c26.5,4.2,53.9,8.6,79.6,1.1c35.5-10.4,72.7-13.9,108.7-17.2l15.6-1.5
		c5.1-0.5,10.3-0.9,15.7-1.4c37.8-3.1,80.6-6.5,104.7-37.8"/>
	
		<linearGradient id="SVGID_18_" gradientUnits="userSpaceOnUse" x1="423.0352" y1="-322.6637" x2="470.2692" y2="-209.3047" gradientTransform="matrix(1 0 0 1 0 409.3301)">
		<stop  offset="0" style="stop-color:#B983F1"/>
		<stop  offset="1" style="stop-color:#33B8FF"/>
	</linearGradient>
	<path class="st19" d="M928.6-5.2c-9.9,14.7-25.2,24.6-46.7,30.1c-18.9,4.8-40.3,5.8-59.1,6.5c-5.6,0.2-11,0.4-16.1,0.8
		c-4.6,0.3-9.2,0.5-13.8,0.8c-37,2.1-75.3,4.3-112,14.7c-25.4,7.2-52.1,3.3-78-0.5l-8.5-1.2l-7.1-1.1c-24.1-3.6-57.1-8.6-76.6,7.2
		c-19.6,15.8-29.5,39.9-39.2,63.2c-2.3,5.6-4.5,10.9-6.8,16c-12,27-27.5,56-59.6,58.7c-18.5,1.6-36.5-3.5-54-8.4
		c-10-3-20.2-5.5-30.6-7.4c-15.1-2.6-30.6-1.4-45.1,3.6c-15.1,5.3-30.5,10.1-45.5,14.8c-8.7,2.7-17.7,5.6-26.6,8.4l-2.1,0.7
		c-29.5,9.6-62.9,20.4-93,35.7C73.5,255.1,4,325.4-12,350.1l1.8,1.2c15.8-24.4,85-94.5,119.2-111.8c29.9-15.1,63.2-26,92.6-35.5
		l2.1-0.7c8.8-2.9,17.8-5.7,26.5-8.4c15-4.7,30.5-9.5,45.6-14.8c14.2-4.9,29.3-6.1,44.1-3.5c10.2,1.8,20.4,4.3,30.3,7.3
		c17.6,5,35.9,10.1,54.7,8.5c33.3-2.8,49.1-32.5,61.4-60c2.3-5.2,4.6-10.7,6.8-16.1c9.5-23.1,19.4-46.9,38.5-62.4
		c18.8-15.2,51.3-10.4,74.9-6.8c2.5,0.4,4.9,0.7,7.2,1.1l8.4,1.2c26.1,3.9,53.1,7.8,78.9,0.5c36.5-10.4,74.7-12.5,111.6-14.6
		c4.6-0.3,9.2-0.5,13.8-0.8c5.2-0.3,10.5-0.5,16.1-0.8c19-0.8,40.5-1.7,59.6-6.6c22.1-5.6,37.8-15.7,48-31"/>
	
		<linearGradient id="SVGID_19_" gradientUnits="userSpaceOnUse" x1="435.6344" y1="-315.8217" x2="483.3087" y2="-201.4119" gradientTransform="matrix(1 0 0 1 0 409.3301)">
		<stop  offset="0" style="stop-color:#B983F1"/>
		<stop  offset="1" style="stop-color:#33B8FF"/>
	</linearGradient>
	<path class="st20" d="M949.5-31.4c-4.4,12.4-9,25.2-15.6,36.2c-9.3,15.5-24.5,25.7-46.4,31c-19.2,4.6-40.9,4.8-60.1,5.1
		c-5.3,0.1-10.3,0.1-15.2,0.3c-7.6,0.2-15.4,0.3-23,0.4c-35.1,0.4-71.5,1-105.2,11.6c-26.4,8.3-54.1,4.9-80.8,1.5l-3.6-0.4l-5.7-0.8
		c-26.2-3.4-58.8-7.6-80,9.5c-19,15.3-29,38.4-38.6,60.8c-2.6,6-5,11.7-7.7,17.4c-13.1,27.8-29.5,53.7-60.9,55.8
		c-18.4,1.2-36.4-4.2-53.6-9.5c-9.7-3.2-19.6-5.8-29.6-7.8c-15.8-3.2-32.1-2-47.2,3.5c-13.5,4.9-27.5,9.6-40.9,14.1
		c-9.9,3.3-20.1,6.7-30.1,10.2c-27.6,9.7-62,21.7-92.5,38.3C78.7,264.4,1.5,351.4-13.9,377l1.9,1.1c15.1-25.3,92-112,125.9-130.5
		c30.3-16.5,64.6-28.5,92.1-38.2c10-3.5,20.2-6.9,30.1-10.2c13.5-4.5,27.4-9.1,40.9-14.1c14.7-5.3,30.7-6.5,46.1-3.4
		c9.9,2.1,19.7,4.7,29.4,7.8c17.5,5.3,35.6,10.8,54.3,9.6c32.4-2.2,49.3-28.7,62.7-57c2.7-5.6,5.2-11.6,7.7-17.4
		c9.6-22.2,19.4-45.1,38-60c20.5-16.5,52.6-12.4,78.4-9.1l5.7,0.8l3.6,0.4c26.9,3.4,54.8,6.8,81.7-1.6c33.5-10.5,69.7-11,104.8-11.6
		c7.6-0.1,15.4-0.2,23-0.4c4.8-0.1,9.8-0.2,15.1-0.3c19.3-0.2,41.1-0.5,60.5-5.1c22.5-5.4,38.1-15.9,47.7-32
		c6.7-11.2,11.3-24.1,15.8-36.6"/>
	
		<linearGradient id="SVGID_20_" gradientUnits="userSpaceOnUse" x1="436.5431" y1="-292.3225" x2="482.8318" y2="-181.2349" gradientTransform="matrix(1 0 0 1 0 409.3301)">
		<stop  offset="0" style="stop-color:#B983F1"/>
		<stop  offset="1" style="stop-color:#33B8FF"/>
	</linearGradient>
	<path class="st21" d="M955-18.2c-3.6,13.6-7.3,27.7-13.6,39.3c-8.8,16.3-22.1,25.4-43.3,29.5c-24.2,4.6-49.6,4.2-74.2,3.9l-5.3-0.1
		c-8.3-0.1-16.7-0.4-25.5-0.7c-36.2-1.3-73.6-2.6-106.9,9.5c-26.6,9.7-54.1,8-80.7,6.3c-24.5-1.5-58.1-3.6-82.7,13
		c-19.6,13.3-30.4,35.4-40.9,56.7c-2.6,5.4-5.1,10.5-7.7,15.5c-8.4,15.9-16.4,27.1-25.1,35.4c-11.3,10.7-23.8,16.3-38.3,17.2
		c-18.5,1.2-36.4-4.7-53.8-10.4c-10.4-3.7-21-6.7-31.8-8.9c-15.7-3.1-32-1.6-46.8,4.4c-11.4,4.5-23,8.7-34.3,12.8
		c-10,3.7-20.4,7.5-30.6,11.4c-30.5,11.8-62.6,24.8-91.6,42.6c-33.3,20.4-122.4,132-136.5,159l2,1C1.3,392.5,90.1,281.2,123.1,261
		c28.8-17.7,60.9-30.6,91.3-42.4c10.1-3.9,20.5-7.7,30.5-11.4c11.3-4.1,23-8.4,34.3-12.8c14.4-5.9,30.3-7.4,45.6-4.4
		c10.6,2,21.2,5.5,31.5,8.9c17.5,5.8,35.6,11.7,54.6,10.5c15-1,28-6.8,39.7-17.8c8.9-8.4,17-19.8,25.5-35.9c2.6-5,5.2-10.2,7.8-15.6
		c10.3-21.1,20.9-42.9,40.1-55.9c23.9-16.3,57-14.1,81.3-12.6c26.8,1.7,54.6,3.4,81.6-6.4c32.9-12,70.1-10.6,106.1-9.3
		c8.8,0.3,17.2,0.6,25.6,0.7l5.3,0.1c24.6,0.4,50.2,0.8,74.6-3.9c21.9-4.2,35.6-13.6,44.8-30.6c6.4-11.8,10.1-26,13.8-39.8"/>
	
		<linearGradient id="SVGID_21_" gradientUnits="userSpaceOnUse" x1="436.5888" y1="-264.9336" x2="482.2148" y2="-155.4356" gradientTransform="matrix(1 0 0 1 0 409.3301)">
		<stop  offset="0" style="stop-color:#B983F1"/>
		<stop  offset="1" style="stop-color:#33B8FF"/>
	</linearGradient>
	<path class="st22" d="M967.8,10.1c-4.5,13.1-9,26.7-17.1,38.2c-12.3,17.4-30.8,20.9-48.7,23.1C881.1,74,859.7,75,839.1,76l-9.9,0.5
		c-5.3,0.3-10.7,0.5-15.9,0.7c-37.9,1.6-77.2,3.4-112.9,16.1c-26.9,9.6-53.1,5.8-80.8,1.7l-0.8-0.1c-28-4.1-57.4-6.9-81.7,8.8
		c-20.5,13.2-31.3,36.1-41.7,58.3c-2.6,5.6-5.1,10.9-7.7,16c-12.4,24-29.3,49.1-61.2,52.5c-19.4,2.1-38.6-2.8-57.2-7.5
		c-10.9-3-21.9-5.3-33.1-7c-32.5-4.2-63.1,10-92.8,23.8c-5.3,2.5-10.7,5-15.9,7.3c-29.5,13.1-58.2,26.1-84.7,42.6
		C111.6,308.9-10.1,425.1-25.8,448.4l1.8,1.2c15.6-23,137-139.1,167.9-158.2C170.4,275,199,262,228.4,249c5.3-2.4,10.7-4.9,16-7.3
		c29.4-13.7,59.7-27.8,91.6-23.7c11.1,1.7,22,4,32.8,7c18.8,4.8,38.2,9.7,58,7.6c32.9-3.5,50.3-29.1,62.9-53.7
		c2.7-5.2,5.1-10.5,7.8-16.1c10.3-21.9,20.9-44.5,40.9-57.3C562,90.2,591,93,618.5,97l0.8,0.1c27.9,4.1,54.4,8.1,81.8-1.8
		c35.4-12.7,74.5-14.4,112.3-16c5.2-0.2,10.7-0.5,15.9-0.7l9.9-0.5c20.7-1,42.1-2,63-4.6c18.4-2.3,37.4-6,50.2-24.1
		c8.3-11.7,13-25.5,17.5-38.8"/>
	
		<linearGradient id="SVGID_22_" gradientUnits="userSpaceOnUse" x1="482.5222" y1="-266.6539" x2="528.3411" y2="-156.6922" gradientTransform="matrix(1 0 0 1 0 409.3301)">
		<stop  offset="0" style="stop-color:#B983F1"/>
		<stop  offset="1" style="stop-color:#33B8FF"/>
	</linearGradient>
	<path class="st23" d="M1058.1-11.4c-8.1,3.7-64.9,26.3-71.1,32.7c-6.1,6.5-11.3,13.7-15.6,21.4l-2.1,3.6
		c-6,10.4-12.1,21.3-22.2,28.3c-11.7,8.1-26.1,9.1-40,10c-3.6,0.2-7.4,0.5-11,0.8c-22.4,2.3-45,5.2-66.9,8.8
		c-45.1,7.3-79.2,15.8-110.5,27.5c-26,9.8-52.7,2-78.5-5.4l-7.1-2c-13.5-3.8-27.9-7.6-42.1-8.4c-16.4-0.9-29.9,2.3-41.3,10
		c-20.3,13.6-30.6,37-40.5,59.6c-2.5,5.8-4.9,11.2-7.5,16.5c-7.6,15.8-15.2,27-23.7,35.4c-10.1,10-23.1,16.6-37.2,18.6
		c-20.1,3.2-40.7,0.4-60.5-2.3c-11.5-1.6-23.4-3.2-35.1-3.6c-35.1-1.3-66.3,14.7-96.6,30.3l-9.2,4.7C185,302.8,18,431.7-19.6,473.2
		l1.6,1.5c37.3-41.2,204.1-170,258.5-197.6l9.2-4.7c30-15.4,61-31.4,95.5-30.1c11.6,0.4,23.4,2,34.8,3.6c20,2.7,40.8,5.6,61.2,2.3
		c14.5-2.1,28-8.9,38.4-19.2c8.8-8.6,16.4-20,24.2-36c2.6-5.3,4.9-10.8,7.5-16.6c9.8-22.3,20-45.4,39.7-58.7
		c10.9-7.4,24-10.5,39.9-9.6c14.1,0.8,28.3,4.6,41.7,8.4l7,2c26.1,7.6,53.1,15.4,79.9,5.4c31.2-11.7,65.1-20.1,110.1-27.4
		c21.9-3.5,44.4-6.5,66.8-8.8c3.6-0.4,7.3-0.6,10.9-0.8c14.2-0.9,28.9-1.9,41.1-10.4c10.4-7.3,16.7-18.3,22.8-29l2-3.6
		c10.8-26.3,33.3-31.8,85.8-53.3C1059-9.4,1058.1-11.4,1058.1-11.4z"/>
	
		<linearGradient id="SVGID_23_" gradientUnits="userSpaceOnUse" x1="520.7503" y1="-265.6449" x2="569.1466" y2="-149.4993" gradientTransform="matrix(1 0 0 1 0 409.3301)">
		<stop  offset="0" style="stop-color:#B983F1"/>
		<stop  offset="1" style="stop-color:#33B8FF"/>
	</linearGradient>
	<path class="st24" d="M1143.3-8.4l-0.8-2C1125-3.8,982.9,73.9,972.4,83.8c-7.8,7.4-16.8,14.5-29,17.2c-10.8,2.3-21.9,1.3-32.7,0.2
		c-8.3-0.8-17-1.7-25.6-0.9c-16,1.3-33.5,5.1-54.8,11.8c-16.3,5.2-33.4,11.6-53.9,20.4c-5.4,2.2-10.8,4.9-16,7.4
		c-8.4,4.3-17.1,8-26,11.3c-25,8.5-52.1-3.1-76-13.3c-3.1-1.3-6-2.6-8.9-3.8l-0.2-0.1c-13.2-5.5-28.2-11.7-43.2-14.3
		c-17.6-3-31.9-0.4-43.7,7.9c-19.9,14-29.6,37.7-39,60.6c-2.5,6-4.8,11.6-7.3,17.1c-6,13.1-13.3,28-24.7,38.8
		c-8.9,8.5-21.3,14.2-37.7,17.5c-20.4,4-41.5,3.3-61.9,2.6c-11.8-0.4-23.9-0.8-35.8-0.3c-41.1,1.7-75.4,21.9-105.8,39.7
		C203.7,330.7,19.5,451.6-23.4,484l1.3,1.7C20.8,453.3,205,332.5,251.5,305.4c30.1-17.7,64.2-37.7,104.7-39.4
		c11.8-0.5,23.9-0.1,35.7,0.3c20.6,0.7,41.8,1.4,62.4-2.7c16.9-3.3,29.6-9.2,38.8-18c11.6-11.1,19.1-26.2,25.1-39.5
		c2.4-5.5,4.8-11.1,7.3-17.2c9.3-22.6,18.9-46,38.3-59.6c25.7-18,58.5-4.4,84.8,6.6l0.2,0.1c2.9,1.2,5.7,2.5,8.8,3.8
		c24.2,10.4,51.7,22.2,77.5,13.3c9-3.3,17.7-7.1,26.2-11.4c5.2-2.5,10.6-5.1,15.9-7.4c20.4-8.7,37.5-15.2,53.7-20.3
		c21.2-6.7,38.4-10.5,54.3-11.8c8.4-0.7,16.9,0.1,25.1,0.9c10.9,1.1,22.2,2.2,33.4-0.2c12.8-2.8,22-10.1,30-17.7
		C984.2,75.6,1126.2-2,1143.3-8.4L1143.3-8.4z"/>
	
		<linearGradient id="SVGID_24_" gradientUnits="userSpaceOnUse" x1="559.4084" y1="-254.3347" x2="610.8954" y2="-130.7724" gradientTransform="matrix(1 0 0 1 0 409.3301)">
		<stop  offset="0" style="stop-color:#B983F1"/>
		<stop  offset="1" style="stop-color:#33B8FF"/>
	</linearGradient>
	<path class="st25" d="M947.7,130.6c-9.8-0.2-19.6-2.3-29-4.4s-19.6-4.3-29.7-4.4c-15.3-0.2-31.6,3.9-51.3,12.8
		c-13.2,6-25.9,13.5-38.3,20.8c-15.7,9.3-31.9,18.9-49.2,25.2c-26,9.6-53.5-4.3-77.7-16.6c-3.4-1.7-6.6-3.4-9.8-4.9
		c-13.1-6.4-27.9-13.6-43-16.8c-17.5-3.7-32-1.4-44.3,7.4c-19.9,14.1-29.3,38-38.4,61.2c-2.3,6-4.6,11.6-6.9,17
		c-5.9,13.5-13.2,28.9-25,40c-5.7,5.4-15,12.2-36.4,16.9c-21.2,4.6-43.3,5.2-64.7,5.7c-12.5,0.3-25.4,0.6-38.1,1.7
		c-21.1,1.9-37.5,5.7-51.6,12.2c-19,8.6-37,20.8-52.8,31.4c-12,8.2-24.2,16.8-35.9,25.3c-29.4,21.2-237.5,139-270.9,154l0.8,2
		c33.7-15.1,241.8-133,271.5-154.4c11.7-8.4,23.8-17.2,35.8-25.2c15.8-10.6,33.6-22.7,52.4-31.3c13.8-6.3,29.9-10.1,50.8-11.9
		c12.5-1.1,25.4-1.4,37.9-1.6c21.5-0.5,43.7-1,65.1-5.7c11.5-2.5,26.2-6.8,37.5-17.4c12-11.4,19.4-27,25.5-40.7
		c2.4-5.5,4.6-11.1,7-17.1c9-22.9,18.3-46.5,37.6-60.2c26.6-18.8,59.1-3,85.2,9.7c3.2,1.5,6.4,3.2,9.8,4.9
		c24.7,12.5,52.6,26.6,79.5,16.6c17.4-6.5,33.7-16.1,49.5-25.4c12.3-7.3,25-14.8,38.1-20.7c19.4-8.8,35.4-12.8,50.4-12.6
		c9.9,0.1,19.7,2.3,29.2,4.4c9.5,2.1,19.4,4.3,29.4,4.4c19.6,0.4,35-9.6,50-19.2c7.8-5.3,240.8-115.9,249.3-119.9l-0.8-2
		c-8.8,3.9-241.8,115-249.6,120.1C981.1,121.6,966.6,131,947.7,130.6L947.7,130.6z"/>
	
		<linearGradient id="SVGID_25_" gradientUnits="userSpaceOnUse" x1="653.0773" y1="-189.7709" x2="691.9812" y2="-96.4084" gradientTransform="matrix(1 0 0 1 0 409.3301)">
		<stop  offset="0" style="stop-color:#B983F1"/>
		<stop  offset="1" style="stop-color:#33B8FF"/>
	</linearGradient>
	<path class="st26" d="M-24,551.1C9.4,536,207.2,460.9,234.8,436.5c10.3-9.2,21.1-18.7,31.8-27.3c15.7-12.7,32.5-25.8,51.3-34.7
		c18.7-8.9,38.1-16.3,57.9-22.3c14.5-4.5,29.5-8.5,44-12.5c25.9-7.1,52.8-14.4,78.3-24.1c21.9-8.3,46.7-17.8,65.4-36.8
		c2.3-2.4,4.6-4.8,6.8-7.1c12.3-12.8,23.9-24.9,40.6-32.2c21.2-9.2,43.6-13.3,70.5-12.8c27.5,0.5,49.1-1,71.8-9.6
		c28-10.7,58.7-16.8,93.7-18.8c20.3-1,40.7-1,61.1,0.1c4.8,0.2,9.7,0.7,14.3,1.1c14.6,1.3,29.7,2.6,44.3-1.6
		c18.8-5.3,33.9-17.7,48.6-29.7C1148,79.6,1359.3-1.7,1373.5-7.9l-0.8-2c-14.5,6.3-236.7,94-358.6,176.4
		c-14.5,11.8-29.5,24.1-47.9,29.2c-14.3,4-29.2,2.7-43.5,1.5c-4.7-0.4-9.6-0.8-14.4-1.1c-20.4-1.1-40.9-1.1-61.3-0.1
		c-35.3,1.9-66.1,8.1-94.4,18.9c-22.4,8.5-43.7,10-70.9,9.5s-49.9,3.7-71.4,13c-17.1,7.4-28.9,19.7-41.3,32.6
		c-2.2,2.3-4.5,4.7-6.8,7c-18.4,18.7-43,28.1-64.7,36.3c-25.4,9.7-52.2,17-78.1,24c-14.5,3.9-29.5,8-44.1,12.5
		c-19.9,6-39.4,13.5-58.2,22.4c-19,9-36,22.2-51.7,35c-10.7,8.7-21.5,18.2-31.9,27.4C206,459.1,8.3,534.2-24.8,549.2L-24,551.1
		L-24,551.1z"/>
	
		<linearGradient id="SVGID_26_" gradientUnits="userSpaceOnUse" x1="650.9371" y1="-126.4808" x2="691.9701" y2="-28.0068" gradientTransform="matrix(1 0 0 1 0 409.3301)">
		<stop  offset="0" style="stop-color:#B983F1"/>
		<stop  offset="1" style="stop-color:#33B8FF"/>
	</linearGradient>
	<path class="st27" d="M-67.6,623.1C-35.2,607.5,212,535.2,236.5,508c9.2-10.2,18.8-20.8,28.3-30.2c14.3-14.1,28.5-27.5,45.2-36.2
		c20.3-10.5,42.1-18.8,63.2-26.8l3.1-1.2c18.6-7.1,37.7-14,56.2-20.7c31.5-11.4,64.1-23.2,95.6-36.3c3.3-1.4,6.7-2.8,9.9-4.2
		c11.5-5,22.3-9.7,34.5-12.5c8.3-1.9,16.7-3.3,25.2-4.2c17.7-1.9,32.4-3.6,47.7-7.7c19.1-5.1,35.6-17.2,53.3-39.4l0.2-0.3
		c13.9-17.4,28.3-35.4,49.2-43.6c28.2-11,62.5-1.8,92.7,6.4c4.3,1.2,8.3,2.3,12.4,3.3c4,1,8.2,2.1,12.5,3.3
		c38.9,10.4,83.1,22,119.8,0.6c18.3-10.8,33.9-25.6,48.9-40c17.4-16.7,319.8-248.4,342.1-259.1l-0.9-2
		C1353-32,1050.4,199.8,1032.9,216.6c-14.9,14.3-30.3,29.1-48.5,39.7c-35.9,21-79.6,9.4-118.1-0.8c-4.3-1.2-8.4-2.2-12.6-3.3
		c-4.1-1.1-8-2.1-12.4-3.2c-30.5-8.2-65.1-17.6-94-6.3c-21.5,8.4-36.1,26.6-50.1,44.2l-0.2,0.3c-17.4,21.8-33.5,33.8-52.2,38.7
		c-15.2,4-29.8,5.8-47.4,7.6c-8.6,0.9-17,2.4-25.4,4.3c-12.4,2.9-23.3,7.6-34.9,12.6c-3.2,1.4-6.5,2.8-9.9,4.2
		c-31.4,13.1-64,24.8-95.5,36.3c-18.5,6.7-37.6,13.6-56.2,20.7l-3.1,1.2c-21.2,8-43.1,16.4-63.4,26.9c-17,8.8-31.3,22.4-45.7,36.6
		c-9.6,9.5-19.2,20.1-28.4,30.4c-24.4,27-271.5,99.1-303.4,114.5L-67.6,623.1L-67.6,623.1z"/>
	
		<linearGradient id="SVGID_27_" gradientUnits="userSpaceOnUse" x1="664.2605" y1="-126.0641" x2="705.8345" y2="-26.29" gradientTransform="matrix(1 0 0 1 0 409.3301)">
		<stop  offset="0" style="stop-color:#B983F1"/>
		<stop  offset="1" style="stop-color:#33B8FF"/>
	</linearGradient>
	<path class="st28" d="M-35,646.6c32.3-15.3,248.7-104.2,272.9-131.5c9.4-10.6,18.2-20.6,27.5-29.9c14-14.1,29.1-28.5,47.1-37.5
		c17.9-9,37.7-16.1,56.6-22.8L380,421c18.1-6.6,36.6-13,54.4-19.3c32.4-11.3,66-23.1,98.5-35.9l8.3-3.3
		c19.6-7.8,38.1-15.2,59.1-17.7h0.3c16.5-2,32-3.8,47.9-8.8c20.9-6.5,37.4-19.5,53.3-41.9c13-18.2,26.4-35.3,47.1-43.8
		c28.2-11.6,62.2-1.8,92.3,6.8c4.1,1.2,8,2.3,11.8,3.3l10.7,3c39.7,11.2,84.7,23.8,122,2.1c19-11.1,35.1-26.4,50.6-41.3
		C1054.4,207,1361.2-20,1384.4-30.9l-0.9-2c-23.5,11.1-330.4,238.2-348.7,255.6c-15.4,14.8-31.5,30.1-50.2,41
		c-36.6,21.3-81.1,8.8-120.4-2.3c-3.7-1-7.1-2-10.7-3c-3.8-1-7.7-2.2-11.8-3.3c-14.5-4.2-31-8.9-47.1-11c-18.5-2.4-33.8-1-46.7,4.3
		c-21.3,8.8-34.9,26.1-48.1,44.6c-15.7,22-31.8,34.7-52.2,41.1c-15.7,5-31.2,6.7-47.5,8.7h-0.3c-21.2,2.6-39.9,10-59.7,17.9
		l-8.3,3.3c-32.4,12.8-66,24.5-98.4,35.8c-17.9,6.2-36.4,12.7-54.4,19.3l-10.9,3.9c-19,6.8-38.7,13.8-56.9,23
		c-18.2,9.1-33.5,23.7-47.6,37.9c-9.3,9.4-18.6,19.8-27.6,30C212.1,541-4.2,629.7-36.1,644.9L-35,646.6L-35,646.6z"/>
	
		<linearGradient id="SVGID_28_" gradientUnits="userSpaceOnUse" x1="678.411" y1="-125.1519" x2="720.047" y2="-25.2309" gradientTransform="matrix(1 0 0 1 0 409.3301)">
		<stop  offset="0" style="stop-color:#B983F1"/>
		<stop  offset="1" style="stop-color:#33B8FF"/>
	</linearGradient>
	<path class="st29" d="M-25,671.6c21.4-9.7,222.5-105.4,238.3-121.6c8.5-8.6,16.8-17.6,24.8-26.4c9.4-10.2,19.1-20.7,29-30.6
		c13.9-13.9,29-28.2,47-36.8c17.3-8.2,35.9-14.6,53.9-20.8c4.6-1.6,9.3-3.2,14-4.8c18.1-6.3,36.5-12.6,54.3-18.7
		c32.9-11.2,66.8-22.9,99.9-35.3c5.4-2,10.8-4.2,16.2-6.4c16.4-6.6,33.3-13.4,51.1-16.2h0.3c16.4-2.6,31.9-5.1,47.6-10.9
		c22.6-8.4,39-21.5,53.1-42.6c12.3-18.4,25.2-35.6,46.8-44.3c28.6-11.5,62.3-1.5,92.1,7.4c4.2,1.2,8.1,2.4,12,3.5
		c2.5,0.7,5.1,1.5,7.7,2.2c40.6,11.7,86.7,25,125.3,2.1c18.8-11.1,35-26.4,50.6-41.2c18.8-17.7,346.5-256.1,370.5-267.1l-0.8-2
		c-24.4,11.2-352.2,249.7-371.2,267.5c-15.5,14.7-31.6,29.9-50.2,40.9c-37.8,22.3-83.4,9.2-123.7-2.3c-2.6-0.8-5.1-1.5-7.7-2.2
		c-3.9-1.1-7.8-2.3-12-3.5c-30.1-9-64.2-19.1-93.5-7.3c-22.2,9-35.3,26.5-47.8,45.1c-13.8,20.7-29.9,33.5-52.1,41.8
		c-15.5,5.8-30.9,8.2-47.2,10.8H603c-18.1,2.8-35.1,9.7-51.6,16.3c-5.3,2.1-10.8,4.3-16.1,6.3c-33,12.4-67.1,24-99.8,35.3
		c-17.8,6.1-36.2,12.4-54.3,18.7c-4.6,1.6-9.4,3.3-14,4.8c-18.1,6.2-36.8,12.6-54.2,20.9c-18.2,8.7-33.5,23.1-47.6,37.1
		c-10,10-19.7,20.5-29.1,30.7c-8,8.7-16.4,17.7-24.8,26.3C196,564.4-4.9,660-25.9,669.6L-25,671.6z"/>
	
		<linearGradient id="SVGID_29_" gradientUnits="userSpaceOnUse" x1="686.1716" y1="-120.3067" x2="727.2106" y2="-21.8177" gradientTransform="matrix(1 0 0 1 0 409.3301)">
		<stop  offset="0" style="stop-color:#B983F1"/>
		<stop  offset="1" style="stop-color:#33B8FF"/>
	</linearGradient>
	<path class="st30" d="M242,535.8c9.6-9.9,18.6-19.2,28-27.7c13.5-12.2,30-25.6,50.4-33.7c11.5-4.5,23.1-9.6,34.2-14.5
		c9.9-4.4,20.2-8.9,30.5-13c17-6.9,34.4-13.7,51.2-20.3c33.6-13.2,68.4-26.8,102-41.5l5.4-2.4c20.9-9.2,40.6-17.9,62.9-22.1
		c15.5-2.9,31.5-5.9,47.4-11.6c21.8-7.7,38-20.2,52.3-40.4c12.7-18,25.9-36.6,47.3-45.4c28.4-11.7,62.7-1.8,93,6.9
		c4.6,1.3,8.9,2.6,13.2,3.7l6.5,1.8c20.7,5.7,42.1,11.5,63.3,13.1c24.2,1.9,44.6-2.3,62.2-12.5c19-11.1,35.7-26,51.9-40.4
		c19.2-17.1,351.4-249.6,375.2-260.8l-0.9-2c-24.1,11.4-356.4,243.9-375.7,261.2c-16,14.3-32.6,29.2-51.5,40.2
		c-17.2,10.1-37.1,14.1-61,12.3c-21.1-1.6-42.4-7.4-62.9-13.1l-6.5-1.8c-4.2-1.2-8.6-2.4-13.2-3.7c-30.6-8.8-65.3-18.8-94.4-6.8
		c-22,9.1-35.4,27.9-48.3,46.1c-14,19.8-29.8,32.1-51.2,39.6c-15.8,5.6-31.7,8.6-47.1,11.5c-22.6,4.2-42.4,13-63.4,22.2l-5.4,2.4
		c-33.6,14.7-68.3,28.3-101.9,41.5c-16.8,6.6-34.2,13.4-51.2,20.3c-10.3,4.1-20.6,8.7-30.5,13.1c-11.1,4.9-22.7,10-34.1,14.5
		c-20.8,8.2-37.5,21.8-51.1,34.1c-9.5,8.5-18.5,17.9-28.1,27.8C216.4,559.1,13.7,661-17.5,672.6l0.8,2.1
		C15,662.9,217.9,560.8,242,535.8z"/>
	
		<linearGradient id="SVGID_30_" gradientUnits="userSpaceOnUse" x1="702.1749" y1="-117.7285" x2="742.0275" y2="-22.0864" gradientTransform="matrix(1 0 0 1 0 409.3301)">
		<stop  offset="0" style="stop-color:#B983F1"/>
		<stop  offset="1" style="stop-color:#33B8FF"/>
	</linearGradient>
	<path class="st31" d="M244.2,546.8c9.8-9.3,19-18.1,28.6-26.1c18.7-15.4,34.6-24.7,51.6-30.4c13.8-4.6,27.4-11.4,40.6-18
		c7.6-3.8,15.4-7.7,23.1-11.1c15.9-7.1,32.1-14,47.8-20.8c33.2-14.3,67.6-29.2,100.7-45.1c23.7-11.4,45.3-21.2,70.5-27l4.5-1
		c14.8-3.4,30.2-6.9,44.9-11.9c21.5-7.3,38.1-19.8,53.6-40.5l0.3-0.4c13.3-17.8,27.2-36.2,48.4-44.2c28.1-10.6,62-1.4,91.9,6.6
		c4.9,1.3,9.5,2.6,14,3.7c21.5,5.4,45.8,11.6,70.1,13.5c22.4,1.8,41.1-2.3,60.5-13.4s36.4-25.4,53.1-39.3
		C1067.8,225,1422-0.1,1445.5-11.4l-0.9-2c-23.7,11.4-378,236.6-397.6,253c-16.5,13.9-33.7,28.2-52.7,39.1
		c-19.1,10.9-37.3,14.9-59.2,13.1c-24.2-1.9-48.5-8.1-69.8-13.4c-4.5-1.1-9.1-2.4-13.9-3.6c-30.1-8.2-64.4-17.4-93.2-6.5
		c-21.8,8.2-35.8,26.9-49.4,44.9l-0.3,0.4c-15.2,20.3-31.4,32.6-52.6,39.7c-14.7,5-30,8.5-44.7,11.9l-4.5,1
		c-25.5,5.9-48.1,16.2-71,27.2c-33.1,15.9-67.4,30.7-100.6,45.1c-15.7,6.8-31.9,13.8-47.8,20.8c-7.7,3.4-15.6,7.3-23.2,11.1
		c-13.1,6.6-26.6,13.4-40.3,17.9c-17.3,5.8-33.4,15.3-52.3,30.8c-9.6,8-18.9,16.8-28.7,26.1c-24.1,23-219,121.4-249.8,130.7l0.6,2.1
		C24.8,668.6,219.9,570,244.2,546.8L244.2,546.8z"/>
	
		<linearGradient id="SVGID_31_" gradientUnits="userSpaceOnUse" x1="707.3228" y1="-109.7333" x2="745.5338" y2="-18.0313" gradientTransform="matrix(1 0 0 1 0 409.3301)">
		<stop  offset="0" style="stop-color:#B983F1"/>
		<stop  offset="1" style="stop-color:#33B8FF"/>
	</linearGradient>
	<path class="st32" d="M246.4,555.9c10.2-9,19.7-17.5,29.7-25.1c18.3-13.9,34.6-22.3,53-27.6c6.4-1.8,12.5-5.1,18.4-8.3
		c2.4-1.3,4.9-2.6,7.3-3.8c13.2-6.5,26.4-12.7,37.5-17.9c13.8-6.5,27.8-13,41.4-19.2c33.7-15.6,68.5-31.7,102.1-48.8l6.2-3.2
		c12.9-6.6,25-12.9,38.8-17.4c9-3,18.1-5.7,27.2-8.2l9.4-2.5c13.7-3.7,27.9-7.6,41.6-12.1c21.1-7,38.5-19.5,54.6-39.3l1.5-1.9
		c13.7-16.8,27.9-34.3,48.3-41.9c27.8-10.4,61.5-2.2,91.2,5c4.8,1.2,9.3,2.3,13.8,3.3c21.2,4.8,45.3,10.3,69.2,11.9
		c21.8,1.5,40.5-2.7,60.5-13.7c19.7-10.7,37.6-24.7,54.9-38.3c19.7-15.4,387.5-232.8,410.4-243.9l-0.9-2
		c-23.2,11.2-391.1,228.7-410.8,244.1c-17.2,13.5-35.1,27.4-54.6,38.1c-19.6,10.6-37.9,14.8-59.3,13.4c-23.7-1.6-47.7-7.1-68.8-11.9
		c-4.4-1-9-2.1-13.8-3.3c-30-7.3-64-15.6-92.5-5c-21,7.8-35.3,25.5-49.2,42.5l-1.5,1.9c-16.1,19.8-32.6,31.7-53.6,38.6
		c-13.7,4.5-27.9,8.3-41.5,12.1l-9.4,2.5c-9.1,2.5-18.3,5.3-27.3,8.2c-13.8,4.6-26.1,10.9-39.1,17.6l-6.2,3.2
		c-33.6,17.1-68.4,33.2-102.1,48.7c-13.6,6.3-27.7,12.8-41.4,19.2c-11.2,5.3-24.4,11.5-37.6,18c-2.4,1.2-4.9,2.5-7.3,3.8
		c-5.7,3.3-11.7,6.1-18,8.1c-18.6,5.3-35.1,13.9-53.7,27.9c-10,7.6-19.6,16.1-29.8,25.2C220.7,575.8,21,681.8-9.5,689.5l0.5,2.1
		C21.9,683.9,222,577.6,246.4,555.9L246.4,555.9z"/>
	
		<linearGradient id="SVGID_32_" gradientUnits="userSpaceOnUse" x1="692.6973" y1="-92.6732" x2="728.7643" y2="-6.1172" gradientTransform="matrix(1 0 0 1 0 409.3301)">
		<stop  offset="0" style="stop-color:#B983F1"/>
		<stop  offset="1" style="stop-color:#33B8FF"/>
	</linearGradient>
	<path class="st33" d="M248.6,563.4c10.5-8.8,20.4-17.2,30.7-24.4c18.2-12.8,34.9-20.6,54.4-25.5c6.7-1.6,13-5.1,19.1-8.4
		c2.4-1.3,4.6-2.5,6.9-3.6c12.6-6.3,25-12.3,36.6-17.9c10.4-5,20.9-10.1,31.1-15c35.4-17.1,71.9-34.7,107.2-53.2l2.1-1.1
		c14.3-7.5,27.9-14.7,43.2-19.9c9.8-3.4,19.3-6.5,28.4-9.4c7.7-2.5,15.5-4.9,23-7.3c9.8-3,19.9-6.2,29.9-9.4
		c21.2-6.9,39-18.9,56-37.9l2.8-3.1c14.1-15.9,28.7-32.3,48.6-39.7c27.6-10.3,61-3.3,90.5,3c4.6,1,9,1.9,13.3,2.8
		c22,4.3,44.6,8.8,68,10c21.2,1,39.8-3.2,60.3-13.8c20.2-10.4,38.9-23.9,57-37c19.7-14.2,368.6-196.7,390.9-207.3l-0.9-2
		C1425,53.9,1076,236.4,1056.2,250.7c-18,13-36.6,26.5-56.7,36.8c-20.1,10.3-38.5,14.6-59.3,13.6c-23-1.2-45.7-5.6-67.6-10
		c-4.3-0.8-8.6-1.8-13.3-2.7c-29.8-6.3-63.5-13.4-91.7-2.9c-20.4,7.6-35.1,24.2-49.4,40.3l-2.8,3.1c-16.7,18.7-34.2,30.5-55,37.3
		c-9.9,3.2-20,6.4-29.8,9.4c-7.6,2.3-15.3,4.8-23,7.2c-9.1,2.9-18.7,6.1-28.5,9.4c-15.5,5.3-29.1,12.5-43.6,20.1l-2.1,1.1
		c-35.3,18.5-71.8,36.2-107.1,53.1c-10.2,4.9-20.7,10-31.1,15c-11.6,5.6-24.1,11.7-36.6,18c-2.3,1.2-4.6,2.4-6.9,3.7
		c-6,3.3-12.1,6.6-18.6,8.2c-19.7,4.9-36.7,12.8-55.1,25.8c-10.4,7.3-20.2,15.6-30.8,24.5C222.7,582.3,15.7,697.5-14.5,704l0.5,2.1
		C16.8,699.5,224,584.1,248.6,563.4L248.6,563.4z"/>
	
		<linearGradient id="SVGID_33_" gradientUnits="userSpaceOnUse" x1="689.4101" y1="-83.2916" x2="723.756" y2="-0.8667" gradientTransform="matrix(1 0 0 1 0 409.3301)">
		<stop  offset="0" style="stop-color:#B983F1"/>
		<stop  offset="1" style="stop-color:#33B8FF"/>
	</linearGradient>
	<path class="st34" d="M1447.5,72.6c-22,10.4-368.2,168.3-387.8,181.7c-18.6,12.7-37.8,25.8-58.3,35.8
		c-20.5,10.1-38.8,14.3-59.2,13.6c-22.7-0.7-45.1-4.6-66.7-8.4c-4.1-0.7-8.3-1.5-12.7-2.3c-29.6-5.5-63.1-11.7-91.1-1.2
		c-20,7.5-35.1,23.3-49.7,38.7l-3.7,3.8c-17.2,18-35.1,29.5-56.2,36.3c-18.3,5.9-36.6,12.1-54.4,18.3l-15.9,5.6l-13.6,4.8
		c-15.8,5.5-29.6,12.6-46,21.3c-38.7,20.5-78.5,40-117.1,58.9l-17.2,8.4c-13.3,6.5-24.4,12-35.9,17.7c-2.2,1.1-4.5,2.3-6.7,3.5
		c-6.1,3.3-12.4,6.7-18.9,8.2c-20.3,4.6-37.6,12.2-56.1,24.7c-10.6,7.2-20.8,15.4-31.6,24.2C224.2,586.1,16.6,705.1-13.4,711
		l0.4,2.1c30.5-6,238.4-125.2,263.1-145.3c10.7-8.7,20.9-17,31.4-24.1c16.7-11.6,35.5-19.9,55.3-24.3c6.8-1.5,13.2-5,19.4-8.4
		c2.3-1.2,4.4-2.4,6.6-3.5c11.5-5.7,22.6-11.2,35.9-17.7l17.2-8.4c38.6-18.9,78.5-38.5,117.2-58.9c16.3-8.6,30-15.6,45.6-21.2
		l13.6-4.8l15.8-5.5c17.8-6.3,36.1-12.4,54.4-18.3c21.5-6.9,39.6-18.6,57.1-36.8l3.7-3.8c14.5-15.2,29.4-30.8,48.9-38.1
		c27.5-10.3,60.7-4.1,90,1.3c4.4,0.8,8.6,1.6,12.8,2.3c21.7,3.8,44.1,7.7,67,8.4c20.8,0.8,39.4-3.6,60.2-13.8
		c20.8-10.2,39.9-23.3,58.5-36c19.6-13.4,365.7-171.2,387.5-181.5L1447.5,72.6L1447.5,72.6z"/>
	
		<linearGradient id="SVGID_34_" gradientUnits="userSpaceOnUse" x1="695.3785" y1="-73.5972" x2="727.0234" y2="2.3458" gradientTransform="matrix(1 0 0 1 0 409.3301)">
		<stop  offset="0" style="stop-color:#B983F1"/>
		<stop  offset="1" style="stop-color:#33B8FF"/>
	</linearGradient>
	<path class="st35" d="M1467.5,91.6c-21,9.7-383.5,155.9-402.8,167.9c-19.5,12.1-39.8,24.7-61,34.4c-20.9,9.6-39.1,13.8-59,13.6
		c-21.9-0.1-43.9-3.1-65.2-5.9c-3.8-0.5-7.6-1-11.7-1.6c-29.3-4.2-62.5-9-90.4,1.6c-19.5,7.4-35.1,22.1-50.2,36.3l-5,4.7
		c-17.9,16.7-36.4,27.7-58.1,34.7c-19.8,6.4-39,13.8-56.9,20.9c-12,4.7-21.8,8.5-30.8,11.8c-15.9,6-31.4,13.1-46.3,21.2
		c-37.1,19.5-76.7,39.6-128.5,65c-11.9,5.8-23.6,11.5-34.9,17c-2.1,1-4.2,2.1-6.3,3.2c-6.2,3.3-12.7,6.6-19.3,7.9
		c-20.5,4-40.1,11.9-57.5,23.5c-11,7.1-21.5,15.3-32.6,24.1C226.3,591,12,715.1-17.9,720.5l0.4,2.1c30.4-5.5,245-129.7,269.8-149.2
		c11.1-8.7,21.6-16.9,32.5-24c17.2-11.4,36.5-19.3,56.7-23.2c7-1.3,13.5-4.8,19.9-8.1c2.1-1.1,4.2-2.2,6.2-3.2
		c11.2-5.4,23-11.1,34.9-17c51.7-25.4,91.4-45.4,128.5-65c14.9-8.1,30.3-15.1,46.1-21.1c9-3.3,18.9-7,30.9-11.8
		c17.9-7.1,37-14.5,56.8-20.8c22-7.1,40.8-18.2,58.9-35.2l5.1-4.8c15-14.1,30.4-28.6,49.5-35.9c27.4-10.4,60.3-5.6,89.3-1.5
		c4,0.6,7.8,1.1,11.7,1.6c21.3,2.8,43.3,5.8,65.4,6c19.9,0.1,38.9-4.3,59.9-13.8c21.4-9.8,41.7-22.4,61.3-34.6
		c19.2-11.9,381.6-158.1,402.5-167.8L1467.5,91.6z"/>
	
		<linearGradient id="SVGID_35_" gradientUnits="userSpaceOnUse" x1="692.6735" y1="-59.8095" x2="721.3915" y2="9.1095" gradientTransform="matrix(1 0 0 1 0 409.3301)">
		<stop  offset="0" style="stop-color:#B983F1"/>
		<stop  offset="1" style="stop-color:#33B8FF"/>
	</linearGradient>
	<path class="st36" d="M1454.6,111.6c-19.7,8.8-365.5,142.4-383.9,152.8c-20.8,11.7-42.3,23.7-64.7,33.1
		c-21,8.8-39.6,13.1-58.6,13.6c-21.1,0.5-42.5-1.4-63.1-3.2h-0.4c-3.3-0.3-6.7-0.6-10-1c-29.1-2.8-62-5.9-90,4.8
		c-19.2,7.3-35.3,20.8-50.8,33.9l-6.6,5.5c-24.7,20.4-54.8,31.7-84,42.5c-11.8,4.4-24,9-35.8,14.1c-12.4,5.4-22.6,9.6-32.4,13.3
		c-16,6.1-31.6,13-46.7,20.9c-39,20.1-80.9,41.4-122.4,61.4c-12.3,5.9-23.3,11.1-33.7,15.9c-1.9,0.8-3.9,1.9-5.8,2.8
		c-6.4,3.1-13,6.4-19.8,7.6c-21,3.6-41,11.4-58.9,22.8c-11.3,7.1-22.7,15.8-33.7,24.2C228.5,595.4,18.8,720.9-11,726.1l0.4,2.1
		c30.3-5.3,240.2-130.9,265.1-150.1c11.4-8.8,22.2-17.1,33.5-24.1c17.7-11.3,37.4-19,58.1-22.5c7.1-1.3,13.8-4.6,20.4-7.8
		c1.9-0.9,3.8-1.9,5.7-2.8c10.4-4.8,21.5-10,33.7-15.9c41.5-20,83.4-41.3,122.4-61.4c15.1-7.8,30.6-14.8,46.5-20.8
		c9.8-3.7,20.1-7.9,32.5-13.3c11.7-5.1,23.9-9.6,35.7-14c29.3-10.9,59.6-22.2,84.6-42.9l6.6-5.6c15.4-12.9,31.4-26.3,50.2-33.5
		c27.5-10.5,60.2-7.4,89-4.6c3.3,0.3,6.7,0.7,10,0.9h0.4c20.7,1.9,42.2,3.8,63.4,3.2c19.3-0.5,38.1-4.9,59.4-13.7
		c22.5-9.4,44.1-21.5,64.9-33.2c18.5-10.3,364.2-143.9,383.8-152.7L1454.6,111.6L1454.6,111.6z"/>
	
		<linearGradient id="SVGID_36_" gradientUnits="userSpaceOnUse" x1="693.3525" y1="-47.1126" x2="719.0535" y2="14.5685" gradientTransform="matrix(1 0 0 1 0 409.3301)">
		<stop  offset="0" style="stop-color:#B983F1"/>
		<stop  offset="1" style="stop-color:#33B8FF"/>
	</linearGradient>
	<path class="st37" d="M1461.6,126.1c-17.7,7.6-366.1,134-383,142.5c-22.8,11.4-46.3,23.2-70.5,32.3c-21.3,8.1-39.8,12.4-58.2,13.5
		c-20.1,1.2-40.6,0.4-60.4-0.4l-1.4-0.1l-7.7-0.3c-30.4-1.3-61.9-2.7-90.2,8.3c-18.8,7.3-35.3,19.6-51.3,31.5
		c-2.8,2-5.6,4.2-8.4,6.2c-18.3,13.3-38.1,23.2-62.5,31.2c-20.1,6.5-39.4,15.7-58.1,24.6l-4.2,2c-12.5,5.9-25.4,11.2-37.9,16.3
		c-14.3,5.9-29.1,11.9-43.2,18.9c-10.8,5.3-21.8,10.8-32.4,16.1c-27.4,13.6-55.6,27.7-83.7,40.8c-4.4,2-8.9,4.3-13.6,6.7
		c-14.6,7.3-29.6,14.9-44.5,17.3c-21.4,3.4-41.9,11.1-60.3,22.6c-11.7,7.2-23.4,16.1-34.8,24.6C230.6,599.4,13.2,732.3-16.5,737.6
		l0.4,2.1c30.2-5.5,247.8-138.4,272.7-157.3c11.8-9,22.9-17.4,34.6-24.5c18.1-11.4,38.4-18.9,59.5-22.3
		c15.1-2.4,30.4-10.1,45.1-17.5c4.7-2.4,9.2-4.6,13.6-6.7c28.2-13.1,56.5-27.2,83.8-40.8c10.6-5.3,21.6-10.8,32.4-16.1
		c14.1-7,28.8-13,43.1-18.9c12.5-5.2,25.5-10.5,38-16.4l4.2-2c18.6-8.8,37.9-18,57.9-24.5c24.6-8,44.6-18,63.1-31.5
		c2.8-2,5.7-4.2,8.4-6.2c15.9-11.8,32.3-24,50.8-31.2c27.8-10.8,59.1-9.5,89.3-8.2l7.7,0.3l1.4,0.1c19.9,0.8,40.4,1.6,60.6,0.4
		c18.6-1.1,37.3-5.5,58.8-13.6c24.3-9.2,47.9-21,70.7-32.4c16.9-8.5,365.3-134.8,382.9-142.4L1461.6,126.1L1461.6,126.1z"/>
	
		<linearGradient id="SVGID_37_" gradientUnits="userSpaceOnUse" x1="693.0483" y1="-33.4997" x2="715.9564" y2="21.4763" gradientTransform="matrix(1 0 0 1 0 409.3301)">
		<stop  offset="0" style="stop-color:#B983F1"/>
		<stop  offset="1" style="stop-color:#33B8FF"/>
	</linearGradient>
	<path class="st38" d="M1463.5,146.1c-13.8,5.8-358,118.9-371.5,124.9c-26.7,11.8-54.2,24-82.3,33.5
		c-40.1,13.5-80.5,15.2-118.4,15.7l-3.4,0.1c-31.1,0.4-63.3,0.9-92.3,12.8c-18,7.4-34.5,18.1-50.4,28.5c-3.7,2.4-7.6,5-11.5,7.4
		c-21.9,14-44.5,22.3-63.8,28.6c-20.6,6.7-40,16.7-58.8,26.3l-5.2,2.6c-15.5,7.9-31.7,14.6-47.5,21.1c-11.6,4.9-23.7,9.8-35.4,15.2
		c-14.5,6.7-29.2,13.8-43.4,20.7c-21.8,10.5-44.3,21.4-66.8,31.3c-3.8,1.7-7.6,3.4-11.6,5.3c-14.9,6.9-30.3,14.1-45.5,16.6
		c-21.9,3.3-43,10.9-62,22.4c-12.3,7.4-24.5,16.6-36.4,25.6c-24.7,18.7-245.4,157.3-275,163l0.4,2.1c30.2-5.8,251-144.5,275.9-163.4
		c11.8-8.9,23.9-18.1,36.2-25.5c18.7-11.4,39.5-18.9,61.2-22.1c15.5-2.5,31-9.8,46-16.7c4-1.8,7.8-3.6,11.5-5.3
		c22.5-9.9,45-20.8,66.8-31.3c14.2-6.9,28.8-13.9,43.4-20.7c11.6-5.4,23.7-10.4,35.3-15.2c15.8-6.5,32.1-13.2,47.6-21.1l5.2-2.6
		c18.7-9.6,38.1-19.5,58.5-26.2c19.4-6.4,42.2-14.7,64.3-28.8c3.8-2.5,7.7-5,11.5-7.4c15.8-10.3,32.2-21,50.1-28.3
		c28.6-11.7,60.6-12.2,91.5-12.6h3.4c38.1-0.6,78.6-2.2,119-15.8c28.2-9.5,55.8-21.7,82.5-33.6c13.5-6,357.6-119.2,371.5-124.9
		L1463.5,146.1L1463.5,146.1z"/>
	
		<linearGradient id="SVGID_38_" gradientUnits="userSpaceOnUse" x1="691.7545" y1="-19.6251" x2="713.0375" y2="31.4509" gradientTransform="matrix(1 0 0 1 0 409.3301)">
		<stop  offset="0" style="stop-color:#B983F1"/>
		<stop  offset="1" style="stop-color:#33B8FF"/>
	</linearGradient>
	<path class="st39" d="M895.7,326.4c-29.4,2.2-62.8,4.6-93.3,17.2c-17.3,7.2-33.8,16.6-49.7,25.7c-4.8,2.8-9.7,5.6-14.7,8.3
		c-21.3,11.9-43.1,19.1-66.1,26.7c-21,7-40.7,17.7-59.6,28l-7.2,3.9c-19,10.3-39.2,18.5-58.7,26.4c-8.7,3.5-17.6,7.1-26.4,10.9
		c-15.1,6.5-30.3,13.5-45,20.3c-19.1,8.8-38.9,18-58.8,26.1l-8,3.4c-15.6,6.5-31.7,13.3-47.7,15.7c-22.4,3.3-44,11-63.3,22.9
		c-12.7,7.7-25.3,17.2-37.5,26.5C235,607.2,0.7,754.8-28.9,761l0.4,2.1c30.1-6.3,264.6-154.1,289.4-173
		c12.2-9.2,24.7-18.8,37.3-26.4c19.1-11.7,40.4-19.4,62.5-22.6c16.3-2.4,32.5-9.2,48.2-15.8l8-3.4c19.9-8.2,39.7-17.3,58.9-26.1
		c14.7-6.8,29.9-13.8,45-20.3c8.8-3.8,17.7-7.4,26.3-11c19.6-7.9,39.8-16.1,58.9-26.5l7.2-3.9c18.9-10.3,38.4-21,59.3-27.9
		c23.2-7.7,45-14.9,66.5-26.9c4.9-2.7,9.9-5.6,14.7-8.3c15.9-9.1,32.3-18.5,49.5-25.6c30.2-12.5,63.4-14.9,92.7-17.1
		c36.6-2.7,76.1-6.8,116.5-18.8c40-11.8,414.3-132.3,452.4-147.4l6.8-2.7l-0.8-2l-6.7,2.7c-38,15.1-412.3,135.5-452.2,147.3
		C971.8,319.4,932.3,323.8,895.7,326.4L895.7,326.4z"/>
	
		<linearGradient id="SVGID_39_" gradientUnits="userSpaceOnUse" x1="686.265" y1="-7.2707" x2="707.732" y2="44.2473" gradientTransform="matrix(1 0 0 1 0 409.3301)">
		<stop  offset="0" style="stop-color:#B983F1"/>
		<stop  offset="1" style="stop-color:#33B8FF"/>
	</linearGradient>
	<path class="st40" d="M1464,168.6c-77,29.3-483.3,153.1-564.9,164.2c-27.6,3.8-59.6,8.8-89.1,21.1c-16.6,6.9-32.9,15-48.6,23
		c-5.7,2.8-11.5,5.8-17.3,8.6c-17.7,8.7-35.4,14.4-54.1,20.4c-5.3,1.7-10.8,3.5-16.2,5.3c-21.6,7.3-41.4,18.7-60.6,29.9
		c-3.6,2.1-7.4,4.3-11.1,6.4c-22.8,13-46,22-70.6,31.5c-5.1,2-10.3,4-15.5,6.1c-14.5,5.7-29,12.1-43,18.2
		c-17.1,7.4-34.7,15.1-52.4,21.8c-17.2,6.5-37.4,13.7-57.7,16.8c-21.4,3.2-41,10.5-61.7,22.9c-15.6,9.4-30.5,20.4-44.9,31
		c-5.4,4-11.1,8.2-16.7,12.2c-18.2,13-253,158.6-274.1,163.6l0.5,2c21.5-5,256.6-150.7,274.9-163.9c5.6-4,11.2-8.2,16.7-12.2
		c14.3-10.6,29.1-21.6,44.7-30.9c20.5-12.3,39.8-19.5,60.9-22.7c20.6-3.1,40.8-10.4,58.2-16.9c17.8-6.7,35.4-14.4,52.5-21.9
		c14-6.1,28.5-12.4,43-18.1c5.2-2,10.4-4.1,15.5-6c24.7-9.6,47.9-18.6,70.9-31.7c3.7-2.1,7.5-4.3,11.1-6.4
		c19.1-11.1,38.9-22.5,60.2-29.7c5.4-1.8,10.9-3.6,16.2-5.3c18.8-6.1,36.6-11.8,54.4-20.5c5.8-2.8,11.7-5.8,17.3-8.6
		c15.7-7.9,31.9-16,48.4-22.9c29.3-12.2,61.1-17.2,88.6-21c81.8-11.2,488.2-135,565.4-164.3L1464,168.6L1464,168.6z"/>
	
		<linearGradient id="SVGID_40_" gradientUnits="userSpaceOnUse" x1="680.8212" y1="-0.688" x2="704.3662" y2="55.819" gradientTransform="matrix(1 0 0 1 0 409.3301)">
		<stop  offset="0" style="stop-color:#B983F1"/>
		<stop  offset="1" style="stop-color:#33B8FF"/>
	</linearGradient>
	<path class="st41" d="M1456,177.1c-41.9,15.3-402,129-440.8,137.3c-15.1,3.3-30.5,6.8-45.4,10.1c-21.7,4.9-44.1,10-66.2,14.5
		c-35.7,7.3-62.5,15-86.9,25.3c-12.5,5.2-25,10.8-37.2,16.2c-10.2,4.5-20.6,9.1-31,13.6c-14.9,6.4-30.5,11-45.5,15.4
		c-8.9,2.6-18.1,5.3-27.2,8.4c-22.3,7.6-42.5,19.9-62.1,31.8c-4.1,2.5-8.3,5-12.5,7.5c-29.2,17.4-60.5,28.6-88,38.5
		c-13.8,4.9-27.5,10.5-40.8,15.9c-15.8,6.4-32.1,13.1-48.5,18.6c-18.3,6.4-37.2,11.1-56.4,14c-21.2,3.1-41.2,10.6-62.8,23.8
		c-16.2,9.9-31.6,21.4-46.5,32.6c-5.1,3.8-10.4,7.8-15.6,11.6C224.3,625.7-14.5,775.6-35.5,781l0.5,2.1
		c21.4-5.5,260.4-155.5,278.8-169.1c5.2-3.9,10.5-7.8,15.6-11.7c14.8-11.2,30.2-22.7,46.3-32.5c21.3-13,41.1-20.5,62-23.5
		c19.3-2.9,38.3-7.6,56.8-14.1c16.5-5.6,32.8-12.2,48.6-18.7c13.3-5.4,27-11,40.7-15.9c27.6-9.9,59-21.1,88.4-38.6
		c4.2-2.5,8.4-5.1,12.6-7.6c19.5-11.9,39.7-24.1,61.7-31.6c9-3.1,18.2-5.8,27.1-8.4c15.1-4.5,30.8-9.1,45.8-15.5
		c10.4-4.4,20.9-9.1,31-13.6c12.1-5.4,24.7-10.9,37.2-16.2c24.3-10.1,51-18,86.5-25.2c22.2-4.5,44.6-9.6,66.3-14.5
		c14.8-3.4,30.2-6.8,45.3-10.1c38.9-8.3,399.1-122.2,441.2-137.5L1456,177.1L1456,177.1z"/>
	
		<linearGradient id="SVGID_41_" gradientUnits="userSpaceOnUse" x1="680.0709" y1="4.4865" x2="705.5089" y2="65.5325" gradientTransform="matrix(1 0 0 1 0 409.3301)">
		<stop  offset="0" style="stop-color:#B983F1"/>
		<stop  offset="1" style="stop-color:#33B8FF"/>
	</linearGradient>
	<path class="st42" d="M1453.7,188.5c-33.2,11.6-380.1,119.7-414.1,125.5c-6.7,1.2-13.6,2.3-20.4,3.5c-29.3,5.2-58.4,13.3-86.6,21.2
		c-7.6,2.1-15.5,4.3-23.3,6.4c-36.3,9.8-71.4,24-105.3,37.6c-17.2,6.9-34.9,14.1-52.6,20.6c-12.9,4.8-26.4,8.3-39.4,11.7
		c-11.3,3-23,6-34.3,9.8c-22.9,7.8-43.6,20.9-63.6,33.6c-4,2.5-8.1,5.1-12.2,7.7c-13.8,8.8-28.1,16.6-42.9,23.6
		c-11.8,5.4-24.3,9.2-36.4,12.9c-4.3,1.3-8.8,2.7-13.3,4.1c-12.5,4.1-24.9,8.8-37,13.3c-15.2,5.7-30.8,11.6-46.7,16.3
		c-19,5.6-38.3,8.7-56.3,11.2c-19.1,2.7-38.4,10.3-60.9,24c-17.1,10.5-33.2,22.9-48.8,34.9c-4.5,3.5-9.3,7.2-14.1,10.8
		C226.4,631.8-10,782.6-31,788.6l0.6,2.1c21.4-6.1,258-157,277.4-171.7c4.8-3.6,9.6-7.3,14.1-10.8c15.5-12,31.6-24.3,48.6-34.7
		c22.2-13.6,41.2-21.1,60-23.7c18.1-2.5,37.5-5.6,56.6-11.3c15.9-4.7,31.6-10.6,46.8-16.3c12-4.5,24.5-9.2,36.9-13.3
		c4.4-1.4,8.9-2.8,13.2-4.1c12.1-3.7,24.7-7.6,36.6-13c14.8-7,29.2-14.9,43.1-23.7c4.1-2.5,8.2-5.2,12.2-7.7
		c19.9-12.6,40.5-25.7,63.2-33.4c11.2-3.8,22.8-6.8,34.1-9.8c13.1-3.4,26.6-6.9,39.6-11.7c17.7-6.5,35.5-13.7,52.8-20.6
		c33.9-13.6,68.9-27.7,105.1-37.5c7.8-2.1,15.7-4.3,23.4-6.5c28.1-7.8,57.1-15.9,86.4-21.1c6.8-1.2,13.7-2.4,20.4-3.5
		c34-5.8,381.1-113.9,414.4-125.6L1453.7,188.5L1453.7,188.5z"/>
	
		<linearGradient id="SVGID_42_" gradientUnits="userSpaceOnUse" x1="677.6505" y1="11.5827" x2="704.3936" y2="75.7647" gradientTransform="matrix(1 0 0 1 0 409.3301)">
		<stop  offset="0" style="stop-color:#B983F1"/>
		<stop  offset="1" style="stop-color:#33B8FF"/>
	</linearGradient>
	<path class="st43" d="M1454,199.1c-30,10.2-372.1,114.6-402.9,118.3c-9.8,1.2-20,2.4-29.9,3.8c-33.1,4.7-65,15.6-95.8,26.2l-11.8,4
		c-25,8.5-49.8,18.6-73.7,28.4c-27.4,11.2-55.6,22.8-84.3,32c-11.8,3.8-24.1,6.5-36,9.2c-13.4,2.8-26.7,6.3-39.7,10.5
		c-23.6,8-44.7,22-65.1,35.4c-4.3,2.8-8.8,5.8-13.1,8.6c-14.2,9.4-29,17.8-44.4,25.1c-12.9,6-25.9,9.7-39.7,13.6
		c-3.4,0.9-6.8,1.9-10.3,2.9c-11.5,3.4-23,7.4-34.1,11.3c-14.2,5-28.8,10.1-43.7,13.9c-13.2,3.4-26.8,5.2-40,6.9
		c-5,0.7-10.3,1.4-15.4,2.1c-19.3,2.9-39.4,11-61.8,24.9c-17.7,11-34.4,24.1-50.5,36.8c-4.2,3.3-8.6,6.7-12.9,10.1
		C233.1,635.5-11.4,790.4-34,797.6l0.7,2.1c22.9-7.2,267.6-162.2,283.5-174.6c4.3-3.4,8.7-6.8,12.9-10.1
		c16-12.6,32.6-25.7,50.2-36.7c22.1-13.7,42-21.8,61-24.7c5.1-0.8,10.4-1.5,15.4-2.1c13.2-1.8,26.8-3.5,40.2-7
		c14.9-3.8,29.6-9,43.9-14c11.1-3.9,22.6-7.8,34-11.3c3.4-1,6.9-2,10.3-2.9c13.9-3.9,27-7.6,40.1-13.7c15.4-7.4,30.3-15.9,44.6-25.3
		c4.4-2.8,8.8-5.8,13.2-8.6c20.3-13.4,41.3-27.2,64.6-35.2c13-4.2,26.2-7.6,39.5-10.4c12-2.7,24.3-5.5,36.2-9.3
		c28.8-9.2,57.1-20.8,84.5-32.1c23.9-9.8,48.6-19.9,73.6-28.4c3.9-1.3,7.9-2.7,11.8-4c30.7-10.6,62.5-21.5,95.4-26.1
		c10-1.4,20.1-2.6,29.9-3.8c30.9-3.7,373.1-108.1,403.3-118.4L1454,199.1z"/>
	
		<linearGradient id="SVGID_43_" gradientUnits="userSpaceOnUse" x1="676.5683" y1="17.9328" x2="704.1763" y2="84.1848" gradientTransform="matrix(1 0 0 1 0 409.3301)">
		<stop  offset="0" style="stop-color:#B983F1"/>
		<stop  offset="1" style="stop-color:#33B8FF"/>
	</linearGradient>
	<path class="st44" d="M1453.7,210.6c-28.6,9.5-367.3,108.6-396.5,110.8c-11.4,0.9-23.3,1.8-34.9,3.1c-34.1,3.9-64.4,16-96.5,28.9
		l-7.5,3c-15.8,6.3-31.4,13.5-46.5,20.5c-12.3,5.7-25,11.5-37.7,16.9c-25.4,10.6-52.1,18.7-75,25.2c-11.1,3.2-22.8,5.5-34.1,7.7
		c-14.5,2.9-29.6,5.9-43.7,10.7c-24.1,8.2-45.5,22.7-66.1,36.8c-4.7,3.2-9.6,6.5-14.5,9.7c-12.9,8.5-30,19.3-48.4,27.6
		c-12.3,5.6-24.7,8.8-37.6,12.1l-8.1,2.1c-11,3-22,6.6-32.7,10.1c-13.8,4.6-28.2,9.4-42.7,12.6c-10.8,2.2-21.6,3.8-32.6,4.7
		c-6.5,0.7-13.2,1.4-19.8,2.4c-19.7,2.9-40.3,11.3-63,25.5c-18.5,11.6-35.8,25.5-52.5,39l-11.4,9.2C235.2,642.5-11.7,795.9-34,803.6
		l0.7,2c22.7-7.8,269.7-161.3,286.6-174.8l11.4-9.2c16.7-13.4,33.9-27.3,52.3-38.8c22.4-14.1,42.7-22.3,62.1-25.2
		c6.6-1,13.3-1.7,19.8-2.4c11-1,22-2.6,32.9-4.8c14.6-3.3,29-8,42.9-12.7c10.6-3.5,21.6-7.2,32.6-10.1c2.7-0.7,5.5-1.4,8.1-2.1
		c13.1-3.4,25.5-6.6,38-12.3c18.5-8.4,35.8-19.2,48.7-27.8c4.8-3.2,9.7-6.5,14.5-9.7c20.6-14,41.8-28.4,65.6-36.5
		c13.9-4.8,28.9-7.7,43.4-10.6c11.4-2.2,23.1-4.6,34.3-7.7c22.9-6.5,49.8-14.6,75.2-25.3c12.7-5.3,25.4-11.2,37.7-16.9
		c15.1-7,30.7-14.2,46.4-20.4l7.5-3c32-12.8,62.2-24.9,96-28.8c11.6-1.3,23.4-2.2,34.8-3.1c29.4-2.2,368.2-101.3,397.1-110.9
		L1453.7,210.6L1453.7,210.6z"/>
	
		<linearGradient id="SVGID_44_" gradientUnits="userSpaceOnUse" x1="680.6783" y1="29.7902" x2="708.5713" y2="96.7312" gradientTransform="matrix(1 0 0 1 0 409.3301)">
		<stop  offset="0" style="stop-color:#B983F1"/>
		<stop  offset="1" style="stop-color:#33B8FF"/>
	</linearGradient>
	<path class="st45" d="M1451.7,222.5c-84.7,52.1-359.4,106.9-387.1,107c-12.8,0.1-26.1,0.1-39.1,1c-18,1-35.7,5.2-52.2,12.3
		c-14.9,6.5-30.9,14-49,23c-10.2,5.1-20.5,10.7-30.5,16.1c-16.7,9.1-33.8,18.4-51.3,25.8c-24.8,10.4-51.9,17.4-77.5,23.3
		c-10.3,2.4-21.2,4.1-31.8,5.8c-16.2,2.6-32.9,5.2-48.4,10.4C660,455.6,638.1,471,617,486c-5.1,3.7-10.5,7.4-15.7,11
		c-14.3,9.8-31.5,20.9-50.4,29.6c-12.7,5.8-25.3,9-38.8,12.2c-2.5,0.6-5,1.2-7.6,1.9c-9.7,2.5-19.4,5.6-28.8,8.6
		c-12.5,4-25.4,8.3-38.5,10.8c-9.2,1.6-18.5,2.7-27.8,3.2c-7.8,0.6-15.8,1.2-23.7,2.4c-20.3,3.3-41.2,12-64.2,26.7
		c-19.5,12.5-37.5,27.6-55,42.1l-9.4,7.8C239.6,657.1-5.5,799.1-27.3,807.6l0.8,2c22.2-8.6,267.4-150.7,285.2-165.4l9.3-7.8
		c17.4-14.5,35.4-29.5,54.8-41.9c22.7-14.6,43.4-23.2,63.4-26.4c7.8-1.3,15.7-1.8,23.5-2.4c9.4-0.5,18.8-1.6,28.1-3.2
		c13.2-2.6,26.2-6.8,38.8-10.9c9.3-3,19-6.2,28.6-8.6l7.6-1.9c13.5-3.3,26.3-6.4,39.2-12.3c19-8.7,36.3-19.9,50.7-29.8
		c5.3-3.6,10.6-7.4,15.8-11c21-14.9,42.7-30.3,67.3-38.6c15.2-5.1,31.9-7.8,48-10.3c10.6-1.7,21.5-3.4,32-5.8
		c25.7-6,53-13,77.9-23.4c17.6-7.3,34.9-16.8,51.5-25.9c9.9-5.4,20.2-11,30.4-16.1c18-9,34-16.5,48.9-23c16.3-7,33.8-11.2,51.6-12.2
		c12.9-0.9,26.2-1,38.9-1c27.9-0.1,309.3-55.2,387.8-107.2L1451.7,222.5L1451.7,222.5z"/>
	
		<linearGradient id="SVGID_45_" gradientUnits="userSpaceOnUse" x1="671.4495" y1="52.4759" x2="697.5505" y2="115.1119" gradientTransform="matrix(1 0 0 1 0 409.3301)">
		<stop  offset="0" style="stop-color:#B983F1"/>
		<stop  offset="1" style="stop-color:#33B8FF"/>
	</linearGradient>
	<path class="st46" d="M1447.4,238.9c-102.4,57.2-350.1,101.3-376.9,99.8c-13.6-0.8-27.7-1.6-41.5-1c-36.1,1.4-66.7,19.4-96.2,36.8
		l-2.7,1.5c-7.1,4.2-14.4,8.7-21.4,13c-18.9,11.6-38.4,23.6-58.8,32.2c-26,10.8-54.7,17.2-79.4,22.1c-9.9,1.9-20.3,3.2-30.5,4.5
		c-17.2,2.2-35.1,4.4-51.4,9.7c-25.4,8.3-47.6,24.5-69,40.3c-5.5,4-11.2,8.2-16.7,12.1c-14.8,10.4-32.6,22.3-51.9,31.2
		c-11.6,5.4-23.3,8.4-35.7,11.6c-3.7,1-7.5,1.9-11.3,3c-9,2.5-18,5.9-26.6,9.2c-10.9,4.1-22,8.4-33.5,10.8c-9.3,1.8-18.7,3-28.2,3.5
		c-7.5,0.6-15.2,1.2-22.9,2.5c-20.8,3.5-42.1,12.5-65.2,27.6c-20.4,13.3-39.1,29.5-57.2,45.1l-7,6.1l-0.9,0.7
		C245.3,676-25.6,814-46.8,823.1l0.8,2c21.5-9.2,292.6-147.4,310-162.2l0.9-0.8l7.1-6.1c18.1-15.6,36.8-31.6,57-44.9
		c22.8-14.9,43.9-23.8,64.4-27.3c7.5-1.3,15.2-1.9,22.7-2.4c9.5-0.5,19-1.7,28.4-3.5c11.6-2.5,22.9-6.8,33.8-10.9
		c8.6-3.2,17.4-6.6,26.4-9.1c3.8-1.1,7.6-2,11.3-3c12.5-3.2,24.3-6.3,36.1-11.7c19.5-9,37.3-20.9,52.2-31.3
		c5.6-3.9,11.3-8.1,16.8-12.2c21.3-15.7,43.3-31.9,68.3-40c16.1-5.2,33.8-7.5,51-9.6c10.1-1.3,20.6-2.6,30.6-4.6
		c24.8-4.8,53.7-11.2,79.9-22.1c20.6-8.6,40.1-20.7,59.1-32.3c7-4.3,14.3-8.8,21.3-13l2.7-1.5c30.7-18,59.7-35.1,95.2-36.5
		c13.7-0.5,27.7,0.2,41.3,1c27.1,1.5,276.7-41.9,377.7-99.9L1447.4,238.9L1447.4,238.9z"/>
	
		<linearGradient id="SVGID_46_" gradientUnits="userSpaceOnUse" x1="677.256" y1="65.1979" x2="703.007" y2="126.9969" gradientTransform="matrix(1 0 0 1 0 409.3301)">
		<stop  offset="0" style="stop-color:#B983F1"/>
		<stop  offset="1" style="stop-color:#33B8FF"/>
	</linearGradient>
	<path class="st47" d="M270.6,690.1l2-1.8l4.6-4c18.7-16.5,37.9-33.5,59.1-47.4c22.8-15,44.1-23.9,65.2-27.5
		c5.2-0.9,10.6-1.6,15.7-2.2c11.9-1.5,24.1-3.1,35.8-7c9.9-3.4,19-8.7,27.8-13.9c8.2-4.8,16.7-9.7,25.7-13.1
		c6.5-2.4,13.2-4.5,19.7-6.4c9.7-2.7,19.2-6.1,28.4-10c19.7-9,38-21.4,53.2-32.4c5.8-4.2,11.7-8.7,17.5-13.1
		c21.3-16.2,43.3-33,68.6-40.6c16.6-5,34.7-6.9,52.2-8.9c9.9-1.1,20.2-2.2,29.9-3.9c32.6-5.5,58.3-12.4,80.8-21.7
		c24.6-10.2,47.2-25.1,69-39.5c3.6-2.4,7.4-4.9,11.1-7.3l1-0.7c29.3-19.1,59.5-38.8,95.1-39.7c14.3-0.4,28.9,1.1,42.9,2.6
		c26.5,2.8,258.7-25.9,384.5-93.8l-0.8-2c-133,69-357.2,96.4-383.5,93.7c-14.2-1.5-28.8-3-43.2-2.6c-36.3,1-66.8,20.9-96.3,40.1
		l-1,0.7c-3.7,2.4-7.4,4.9-11.1,7.3c-21.8,14.3-44.3,29.2-68.7,39.3c-22.3,9.3-47.8,16.1-80.3,21.6c-9.7,1.6-19.9,2.8-29.9,3.9
		c-17.6,1.9-35.8,3.9-52.6,9c-25.7,7.7-47.8,24.7-69.3,40.9c-5.7,4.4-11.7,8.9-17.4,13.1c-15.2,10.9-33.3,23.3-52.9,32.2
		c-9.1,3.9-18.5,7.2-28.1,9.9c-6.5,2-13.3,4-19.8,6.5c-9.2,3.4-17.8,8.4-26.1,13.3c-8.7,5.1-17.7,10.4-27.4,13.7
		c-11.5,4-23.6,5.5-35.3,7c-5.2,0.6-10.6,1.3-15.8,2.2c-21.4,3.6-43,12.7-66,27.8c-21.3,14-40.6,31.1-59.4,47.6l-4.6,4l-2,1.8
		c-16.3,14.2-295,136-315.3,145.3l0.9,2C-24.9,826.6,254,704.8,270.6,690.1L270.6,690.1z"/>
	
		<linearGradient id="SVGID_47_" gradientUnits="userSpaceOnUse" x1="689.0992" y1="99.3611" x2="710.7441" y2="151.3061" gradientTransform="matrix(1 0 0 1 0 409.3301)">
		<stop  offset="0" style="stop-color:#B983F1"/>
		<stop  offset="1" style="stop-color:#33B8FF"/>
	</linearGradient>
	<path class="st48" d="M-22,850.6c28.8-13,210-40.1,318.9-143c7.9-7.5,16-15.2,24.2-22.3c13.8-12.1,29-24.3,46-31.9
		c17.2-7.7,36.1-10.8,55.7-13.5c15.6-2.2,31.6-3.7,47.2-5.1c26.5-2.5,53.8-5,80.1-11c33.1-7.5,57.8-26,77.8-43.1
		c4-3.4,8.1-7,12-10.4c16.9-14.9,34.5-30.3,54.8-40.7c21.2-10.9,44.4-20.3,64.3-28.2c27.3-10.7,56-18.2,83.9-25.5
		c9.9-2.6,20.2-5.3,30.3-8.1c29-8.1,51.3-28,72.8-47.2l1.4-1.2c24.8-22.2,51.8-44.1,85.9-47.1c9.9-1,20-0.2,29.8,0.4
		c5.1,0.3,10.4,0.7,15.5,0.8c34.1,0.8,243.8-12.9,373.8-80.7l-0.5-2.1c-122.5,64-339.4,81.5-373.3,80.7c-5.1-0.1-10.3-0.4-15.4-0.8
		c-9.9-0.6-20.1-1.3-30.1-0.4c-34.8,3.1-62.1,25.2-87.1,47.6l-1.4,1.2c-21.4,19.1-43.4,38.8-72,46.8c-10.1,2.8-20.3,5.5-30.3,8.1
		c-27.9,7.3-56.7,14.9-84.1,25.6c-20,7.8-43.3,17.3-64.5,28.3c-20.6,10.6-38.2,26.1-55.3,41c-3.9,3.4-7.9,7-11.9,10.4
		c-19.8,16.9-44.4,35.2-76.9,42.6c-26.2,6-53.5,8.5-79.9,11c-15.5,1.5-31.6,2.9-47.3,5.1c-19.7,2.7-38.8,5.8-56.2,13.7
		c-17.2,7.7-32.5,20-46.5,32.2c-8.2,7.2-16.4,14.9-24.3,22.4C186,809.7,5.6,835.8-22.9,848.6L-22,850.6z"/>
	
		<linearGradient id="SVGID_48_" gradientUnits="userSpaceOnUse" x1="692.2263" y1="156.5692" x2="721.8603" y2="227.6832" gradientTransform="matrix(1 0 0 1 0 409.3301)">
		<stop  offset="0" style="stop-color:#B983F1"/>
		<stop  offset="1" style="stop-color:#33B8FF"/>
	</linearGradient>
	<path class="st49" d="M353,723.7c8.6-9.6,20.5-21.5,35.1-28.6c17.7-8.6,40.1-9,58.2-9.4c16.2-0.3,32.8,0.3,48.9,1
		c28.4,1.2,57.8,2.4,86.3-1.9c33.6-5.1,58.3-29.8,80.1-51.5c4.5-4.5,9-9.2,13.4-13.7c18.2-18.6,36.9-37.9,59.1-52
		c15-9.5,34-14,52.5-18.4c4.9-1.2,9.5-2.2,14-3.4c12.9-3.4,26.3-6.2,39.2-9.1c16.9-3.7,34.3-7.5,51.1-12.3
		c26-7.5,48.4-24.2,70.1-40.4l7.4-5.5c27.4-20.2,58.4-43.1,95.8-42.4c12.6,0.2,25.3,2.1,37.5,3.8c6.6,0.9,13.4,1.9,20.1,2.6
		c27.5,3.2,191.9,2.6,339.9-97.4l-0.6-2.1c-140.4,96.9-311.8,100.6-339,97.4c-6.6-0.7-13.5-1.7-20-2.7c-12.3-1.8-25.1-3.6-37.8-3.8
		c-38.2-0.7-69.5,22.4-97.1,42.8l-7.4,5.5c-21.5,16-43.7,32.6-69.4,39.9c-16.7,4.8-34.1,8.7-50.9,12.3c-13,2.8-26.3,5.7-39.3,9.1
		c-4.5,1.2-9.1,2.2-13.9,3.4c-18.6,4.4-37.8,8.9-53.1,18.6c-22.5,14.3-41.3,33.6-59.5,52.4c-4.4,4.5-8.9,9.2-13.4,13.7
		c-21.5,21.6-45.9,45.9-78.9,50.9c-28.3,4.3-57.5,3.1-85.8,1.9c-16.1-0.7-32.7-1.4-49-1c-18.3,0.4-41,0.8-59.1,9.6
		c-15,7.3-27,19.4-35.8,29.1c-5.5,6.1-10.8,12.4-15.9,18.4c-87,118-334.9,148.8-365.7,160.4l0.8,2c31.2-11.8,286-45,366.6-161.1
		C342.2,736.1,347.5,729.8,353,723.7L353,723.7z"/>
	
		<linearGradient id="SVGID_49_" gradientUnits="userSpaceOnUse" x1="699.0287" y1="181.7812" x2="735.4007" y2="269.0692" gradientTransform="matrix(1 0 0 1 0 409.3301)">
		<stop  offset="0" style="stop-color:#B983F1"/>
		<stop  offset="1" style="stop-color:#33B8FF"/>
	</linearGradient>
	<path class="st50" d="M359.1,760c3.6-4.6,7.2-9.5,11-14.3c8.1-10.3,19.3-23,34.6-29.6c17.6-7.7,39.4-7,56.9-6.4
		c16.1,0.5,32.6,2.1,48.7,3.8c28.3,2.8,57.5,5.8,86,2.6c33.7-3.7,58.7-29.7,80.8-52.6l1.4-1.4c4.5-4.6,8.9-9.4,13.3-14
		c18.3-19.5,37.1-39.6,59.7-54.4c14.7-9.7,33.6-14,51.9-18.2c5.4-1.2,10.4-2.4,15.4-3.7c9.9-2.6,20.2-4.9,30.2-7.2
		c16.8-3.8,34.1-7.8,50.6-13c24.3-7.7,46.4-22.4,67.6-36.6c3.4-2.3,6.9-4.6,10.4-6.9l2.4-1.6c29.7-19.5,60.3-39.6,97-37.9
		c16.5,0.8,32.9,3.6,48.8,6.2c31.1,5.2,231.9-16.8,332.9-87.3l-0.6-2.1c-109.9,73.1-299.6,92.7-331.9,87.3
		c-16-2.7-32.4-5.4-49.1-6.2c-37.3-1.7-68.3,18.6-98.3,38.2l-2.4,1.6c-3.4,2.3-7,4.6-10.4,6.9c-21.2,14.1-43.1,28.7-67.1,36.3
		c-16.4,5.2-33.7,9.2-50.5,13c-9.9,2.3-20.2,4.6-30.2,7.2c-4.9,1.3-10,2.4-15.3,3.6c-18.5,4.2-37.6,8.6-52.6,18.5
		c-22.8,15-41.7,35.2-60.1,54.7c-4.4,4.6-8.8,9.4-13.3,14l-1.4,1.4c-21.8,22.6-46.6,48.3-79.4,52c-28.3,3.1-57.5,0.2-85.6-2.6
		c-16-1.6-32.6-3.3-48.8-3.8c-17.7-0.6-39.8-1.3-57.8,6.6c-15.6,6.8-27.1,19.8-35.4,30.3c-3.8,4.8-7.4,9.7-11,14.4
		C299,848.1,20.2,899.4-12.5,910.6l0.7,2C21.5,901.1,295.5,852.6,359.1,760L359.1,760z"/>
	
		<linearGradient id="SVGID_50_" gradientUnits="userSpaceOnUse" x1="697.1321" y1="188.0704" x2="734.4271" y2="277.5734" gradientTransform="matrix(1 0 0 1 0 409.3301)">
		<stop  offset="0" style="stop-color:#B983F1"/>
		<stop  offset="1" style="stop-color:#33B8FF"/>
	</linearGradient>
	<path class="st51" d="M341.5,793c7.1-8.3,13.7-17.1,19.7-26.2c3.8-5.5,7.8-11.2,11.9-16.6c7.3-9.5,18.7-22.8,34.1-29.6
		c17.7-7.7,39.4-6.9,56.8-6.2c16.1,0.6,32.7,2.5,48.7,4.2c28.3,3.1,57.6,6.3,86.2,3.3c33.6-3.6,58.7-29.4,80.8-52.3l1.1-1.1
		c4.4-4.6,8.9-9.3,13.2-13.9c18.2-19.3,36.9-39.2,59.4-53.8c14.9-9.6,33.8-14.3,52.1-18.7c5.6-1.4,10.9-2.6,16-4.1
		c9.8-2.7,19.9-5.1,29.6-7.6c16.5-4.1,33.6-8.3,49.9-13.7c24.2-7.9,46.2-22.3,67.5-36.2c3.5-2.3,7.2-4.7,10.8-7l2.9-1.9
		c29.8-19.2,60.5-39,97.2-37.1c16.5,0.8,33,3.8,49.1,6.6c31.3,5.5,208.4,4.9,323-80l-0.6-2.1c-121,84.5-290.9,85.5-322,80
		c-16.1-2.9-32.7-5.8-49.3-6.6c-37.3-1.9-68.4,18.1-98.5,37.4l-2.9,1.9c-3.6,2.3-7.2,4.7-10.8,7c-21.2,13.8-43.1,28.2-67,36
		c-16.2,5.3-33.3,9.5-49.7,13.6c-9.8,2.4-19.9,4.9-29.7,7.7c-5.1,1.4-10.4,2.7-16,4c-18.5,4.5-37.6,9.2-52.8,19
		c-22.7,14.7-41.5,34.7-59.8,54.1c-4.4,4.6-8.8,9.3-13.2,13.9l-1.1,1.1c-21.9,22.6-46.6,48.1-79.5,51.6c-28.4,3-57.5-0.2-85.7-3.3
		c-16-1.8-32.6-3.6-48.8-4.2c-17.6-0.7-39.6-1.6-57.8,6.4c-7.6,3.3-19.5,10.1-35,30.2c-4.2,5.5-8.2,11.2-12,16.7
		c-6,9-12.6,17.7-19.6,26C241,862.1,13.2,912.1-5.5,918.1l0.7,2.1C14.2,914,255.5,860.6,341.5,793L341.5,793z"/>
	
		<linearGradient id="SVGID_51_" gradientUnits="userSpaceOnUse" x1="685.7214" y1="198.8844" x2="723.8044" y2="290.2785" gradientTransform="matrix(1 0 0 1 0 409.3301)">
		<stop  offset="0" style="stop-color:#B983F1"/>
		<stop  offset="1" style="stop-color:#33B8FF"/>
	</linearGradient>
	<path class="st52" d="M345.3,797.6c7-8.3,13.5-17.1,19.5-26.3c3.7-5.4,7.5-11,11.5-16.4c7.1-9.4,18.2-22.7,33.7-29.5
		c17.9-7.8,40.4-6.8,56.8-6c16.1,0.7,32.7,2.7,48.7,4.6c28.3,3.3,57.6,6.8,86.3,3.8c33.6-3.5,58.8-29.2,81-51.9l0.4-0.4
		c4.4-4.5,8.9-9.2,13.2-13.7c18-18.9,36.6-38.5,58.9-52.6c15.2-9.6,34.1-14.6,52.4-19.5c5.9-1.6,11.4-3,16.9-4.7
		c9.7-2.9,19.7-5.6,29.3-8.2c16.3-4.5,33.1-9.1,49.3-14.6c24.1-8.3,46.1-22.4,67.5-36.1c3.6-2.3,7.3-4.6,10.9-6.9l3.4-2.2
		c29.9-18.9,60.7-38.4,97.3-36.4c16.4,0.9,33.1,4,49.3,7c31.6,5.9,227.5,9,320.6-80l-0.6-2.1c-95,88.5-288.3,85.7-319.6,79.9
		c-16.2-3-33-6.1-49.6-7.1c-37.3-2-68.4,17.7-98.6,36.7l-3.4,2.2c-3.6,2.3-7.3,4.6-10.9,6.9c-21.2,13.6-43.2,27.7-67,35.8
		c-16.1,5.5-32.9,10.1-49.2,14.6c-9.6,2.6-19.6,5.4-29.3,8.2c-5.4,1.6-11,3.1-16.8,4.6c-18.4,4.9-37.6,9.9-53,19.7
		c-22.5,14.3-41.2,34-59.3,53c-4.3,4.5-8.8,9.2-13.2,13.7l-0.4,0.4c-21.9,22.4-46.8,47.8-79.6,51.2c-28.4,3-57.6-0.5-85.8-3.8
		c-16-1.9-32.6-3.8-48.8-4.6c-16.7-0.8-39.5-1.8-57.8,6.2c-7.7,3.3-19.6,10.1-34.6,30.2c-4,5.4-7.9,11-11.6,16.5
		c-5.9,9.1-12.3,17.8-19.3,26.1C246,870.1-10.9,925.7-29.7,931.6l0.7,2.1C-9.8,927.6,260.5,867.6,345.3,797.6z"/>
	
		<linearGradient id="SVGID_52_" gradientUnits="userSpaceOnUse" x1="686.7251" y1="204.8325" x2="725.3821" y2="297.6055" gradientTransform="matrix(1 0 0 1 0 409.3301)">
		<stop  offset="0" style="stop-color:#B983F1"/>
		<stop  offset="1" style="stop-color:#33B8FF"/>
	</linearGradient>
	<path class="st53" d="M349.2,802.3c7-8.4,13.4-17.2,19.2-26.4c3.1-4.8,6.4-9.7,9.7-14.4c6.8-9.5,17.6-23,33-30.2
		c17.4-8.2,38.1-7.8,59.7-6.6c15.7,0.9,31.8,2.9,47.4,4.8c27.9,3.5,56.8,7.1,85.1,4.4c15.2-1.5,30-7.3,45-17.9
		c13.8-9.7,26.4-22.4,36.5-32.5c4.5-4.5,9.1-9.2,13.4-13.8c17.8-18.4,36.1-37.5,58.1-51c16-9.8,35.5-15.5,54.3-21.1
		c6.5-1.9,12.6-3.7,18.6-5.6c9.2-3,18.7-5.9,27.9-8.6c16.2-4.9,32.9-9.9,48.9-15.9c23.9-8.9,45.9-22.8,67.3-36.2
		c3.7-2.4,7.7-4.8,11.4-7.2l3.6-2.2c29.5-18.3,60-37.3,95.8-35.3c16.6,0.9,33.7,4.2,50.2,7.4c31.7,6.2,196.2,16.7,321.3-72.7
		l-0.7-2.1c-127,89-288.8,78.8-320.2,72.7c-16.6-3.3-33.7-6.5-50.4-7.4c-36.7-2-67.4,17.1-97.1,35.6l-3.6,2.2
		c-3.7,2.3-7.7,4.8-11.5,7.2c-21.2,13.4-43.2,27.2-66.9,36c-16,5.9-32.6,11-48.8,15.9c-9.2,2.8-18.7,5.7-28,8.7
		c-6,1.9-12.1,3.7-18.5,5.6c-19,5.5-38.6,11.3-54.9,21.3c-22.3,13.7-40.7,32.8-58.6,51.3c-4.4,4.5-8.9,9.2-13.4,13.8
		c-10.1,10.1-22.6,22.7-36.2,32.3c-14.7,10.3-29.1,16.1-43.9,17.5c-28,2.7-56.8-0.9-84.6-4.4c-15.6-1.9-31.8-4-47.5-4.8
		c-21.8-1.2-42.9-1.6-60.7,6.8c-7.6,3.6-19.3,10.7-33.9,31c-3.4,4.7-6.7,9.7-9.8,14.4c-5.8,9.1-12.1,17.9-19,26.2
		c-45.4,61-352.9,135-373.1,141.4l0.7,2.1C-4.4,938,310,861.6,349.2,802.3L349.2,802.3z"/>
	
		<linearGradient id="SVGID_53_" gradientUnits="userSpaceOnUse" x1="667.7111" y1="227.6091" x2="706.8981" y2="321.6541" gradientTransform="matrix(1 0 0 1 0 409.3301)">
		<stop  offset="0" style="stop-color:#B983F1"/>
		<stop  offset="1" style="stop-color:#33B8FF"/>
	</linearGradient>
	<path class="st54" d="M1090.4,497.6c-36.2-2-66.9,16.7-96.5,34.7l-5,3l-7.6,4.6c-22.6,13.7-46.1,28-70.9,38.6
		c-19.2,8.2-38.9,16.2-57.9,23.8c-6.4,2.6-12.8,5.1-19.1,7.7c-7.4,3-15,5.9-22.4,8.7c-18.6,7.1-37.8,14.4-55.3,23.8
		c-21.4,11.6-39.1,28.9-56.2,45.7c-4.2,4.1-8.5,8.4-12.8,12.4c-22,20.9-46.1,41.5-77.7,44.6c-28.1,2.7-56.9-1.2-84.7-4.9
		c-15.6-2.1-31.8-4.3-47.5-5.3c-20.7-1.3-42.4-1.8-60.8,6.9c-12.2,5.8-22.9,15.6-33.4,31c-3.2,4.6-6.3,9.5-9.2,14.2
		c-5.6,8.9-11.5,18.1-18.4,26.2C299,870.1-41.8,971.4-63.1,978l0.6,2.1c21.7-6.7,368.5-110.5,419-165.3c7.1-8.3,12.9-17.5,18.6-26.5
		c3-4.7,6-9.5,9.2-14.1c10.3-15,20.7-24.6,32.5-30.2c17.9-8.5,39.3-8,59.7-6.7c15.7,1,31.8,3.1,47.4,5.3c28,3.8,56.9,7.8,85.2,5
		c32.3-3.1,56.7-24,79-45.1c4.3-4.1,8.7-8.3,12.9-12.5c17-16.7,34.6-33.9,55.7-45.4c17.3-9.4,36.5-16.7,55-23.7
		c7.4-2.8,15.1-5.7,22.5-8.7l19.1-7.7c19-7.7,38.8-15.6,58-23.8c24.9-10.7,48.5-24.9,71.2-38.7l7.6-4.6l5-3
		c29.3-17.8,59.7-36.3,95.3-34.3c16.3,0.9,33.5,4.5,50.1,7.9c32.2,6.7,224.6,15.4,317.8-69l-0.7-2c-97,84-284.7,75.6-316.6,69
		C1124.2,502,1106.8,498.5,1090.4,497.6L1090.4,497.6z"/>
	
		<linearGradient id="SVGID_54_" gradientUnits="userSpaceOnUse" x1="674.6254" y1="264.893" x2="712.5524" y2="355.915" gradientTransform="matrix(1 0 0 1 0 409.3301)">
		<stop  offset="0" style="stop-color:#B983F1"/>
		<stop  offset="1" style="stop-color:#33B8FF"/>
	</linearGradient>
	<path class="st55" d="M366.1,843.2c7.5-7.6,14.6-15.6,21.2-24c4.1-4.8,8.2-10,12.5-14.8c12.1-13.6,23.3-22.5,35.2-27.8
		c18.1-8.2,39.2-8.2,57.6-7.7c14.5,0.4,29.3,2,43.6,3.3c25.8,2.6,52.5,5.2,78.6,2.1c30.8-3.7,54.3-22.2,77.7-42.5
		c4.9-4.2,9.8-8.6,14.5-12.9c17.3-15.5,35.1-31.6,55.8-42.6c17.4-9.3,36.5-16.8,54.8-24.1c7.7-3.1,15.6-6.2,23.3-9.4
		c23.6-9.9,51.1-21.4,78.2-33c27.1-11.5,52.1-27.8,76.2-43.5l1.9-1.2c14.7-9.6,30.5-19.6,46.9-27.8c20.1-10,37.4-13.6,57.9-12
		c18.8,1.4,37.6,5.3,55.8,9c8.1,1.7,16.4,3.4,24.6,4.8c27,4.9,182.3,7.3,273.6-52.7l-0.8-2c-94,58.5-245.8,57.3-272.5,52.6
		c-8.2-1.5-16.5-3.2-24.5-4.8c-18.2-3.7-37.1-7.6-56-9.1c-21-1.6-38.6,2.1-59.1,12.2c-16.6,8.2-32.4,18.3-47.1,27.9l-1.9,1.2
		c-24,15.6-48.9,31.8-75.8,43.3c-27,11.5-54.5,23.1-78.2,33c-7.7,3.2-15.6,6.3-23.2,9.4c-18.4,7.3-37.5,14.9-55,24.2
		c-20.9,11.1-38.9,27.2-56.2,42.9c-4.7,4.3-9.6,8.7-14.5,12.8c-23.1,20-46.4,38.3-76.5,42c-25.9,3.1-52.5,0.5-78.2-2.1
		c-14.3-1.4-29.2-2.9-43.7-3.4c-18.6-0.6-40-0.5-58.5,7.9c-12.2,5.5-23.5,14.5-35.9,28.4c-4.3,4.8-8.5,9.9-12.5,14.9
		c-6.6,8.3-13.6,16.3-21.1,23.8C317,880.6-28.6,999.2-47,1005.1l0.7,2.1C-27.6,1001.1,320,882.1,366.1,843.2L366.1,843.2z"/>
	
		<linearGradient id="SVGID_55_" gradientUnits="userSpaceOnUse" x1="675.6014" y1="300.2675" x2="714.1314" y2="392.7345" gradientTransform="matrix(1 0 0 1 0 409.3301)">
		<stop  offset="0" style="stop-color:#B983F1"/>
		<stop  offset="1" style="stop-color:#33B8FF"/>
	</linearGradient>
	<path class="st56" d="M402.6,846.3c4.8-4,9.8-8,14.9-12c12.5-10,26.5-18.1,41.3-24.1c14.9-5.9,30.7-9.3,46.7-10.1
		c13.6-0.7,27.6-0.3,41.2,0.2c22.7,0.7,46.2,1.4,68.8-3.3c31.6-6.5,59.8-27.2,82.5-43.8c5.3-3.8,10.6-7.8,15.7-11.7
		c19.9-15,40.5-30.4,63.1-41.4c16.5-8,33.8-15.2,50.5-22.1c7.5-3.1,15.3-6.4,22.9-9.5l19.2-8.2c18-7.7,36.5-15.6,54.7-23.5
		c26.6-11.6,50.2-28.8,73.1-45.3l7.9-5.7c14.3-10.3,29.6-21.1,46.4-29.8c17.9-9.3,35.3-12.3,58.3-10.1c21.4,2.1,42.8,6.8,63.5,11.3
		c8.3,1.8,17,3.7,25.5,5.4l2.1,0.4c26.3,5.3,157.1,21,262.3-33.6l-0.7-2c-106,53-235.2,38.7-261.2,33.5l-2.1-0.4
		c-8.5-1.7-17.1-3.6-25.4-5.4c-20.8-4.6-42.2-9.3-63.7-11.4c-23.4-2.2-41.2,0.9-59.5,10.4c-16.9,8.8-32.3,19.6-46.7,29.9l-7.9,5.7
		c-22.8,16.5-46.3,33.5-72.7,45.1c-18.2,7.9-36.8,15.9-54.7,23.5l-19.2,8.2c-7.6,3.2-15.4,6.4-22.9,9.5c-16.8,7-34.2,14.2-50.7,22.2
		c-22.8,11.1-43.5,26.6-63.5,41.6c-5.1,3.9-10.4,7.8-15.6,11.6c-22.5,16.5-50.6,37-81.7,43.4c-22.4,4.6-45.7,3.9-68.3,3.3
		c-13.6-0.4-27.6-0.8-41.3-0.1c-16.2,0.9-32.2,4.3-47.4,10.3c-15.1,6.1-29.2,14.3-41.9,24.5c-5.1,4-10.1,8.1-14.9,12
		c-24,19.6-418,190.8-448.4,200.4l0.7,2.1C-15.7,1037.3,378.4,866,402.6,846.3L402.6,846.3z"/>
	
		<linearGradient id="SVGID_56_" gradientUnits="userSpaceOnUse" x1="906.2019" y1="255.0262" x2="952.8549" y2="366.9902" gradientTransform="matrix(1 0 0 1 0 409.3301)">
		<stop  offset="0" style="stop-color:#B983F1"/>
		<stop  offset="1" style="stop-color:#33B8FF"/>
	</linearGradient>
	<path class="st57" d="M419.5,902.2c8.3-4.8,17-9.8,25.5-14.6c28.9-16.2,57.6-31.1,91.2-35c10.6-1.3,21.5-1.7,32-2.2
		c17.3-0.8,35.2-1.6,52.5-5.7c28.6-6.8,54.7-22.5,80-37.8l7.8-4.7c6.4-3.8,12.9-7.8,19.2-11.6c22.9-14,46.6-28.4,71.2-39.9
		c16.2-7.5,33-14.4,49.3-21c7.1-2.9,14.4-5.9,21.6-8.9c7.7-3.2,15.5-6.5,23.1-9.6c15.5-6.5,31.7-13.1,47.3-19.9
		c26.4-11.6,48.9-30.4,70.6-48.6c3.4-2.9,7-5.9,10.4-8.7c15-12.4,29.8-24.2,46.4-33.7c18.3-10.4,36.7-13.3,63.3-9.8
		c25.2,3.3,50.4,9.5,74.8,15.5c8.8,2.1,17.8,4.3,26.6,6.4c2.8,0.6,5.6,1.3,8.5,2c28.5,6.7,154.8,19.6,215.4-36.2l-0.7-2.1
		c-57.5,56.2-185.9,42.8-214.2,36.1l-8.5-2c-8.9-2-17.9-4.2-26.6-6.4c-24.4-6-49.7-12.2-75-15.5c-27.2-3.5-45.9-0.6-64.7,10
		c-16.8,9.5-31.6,21.5-46.7,33.9c-3.5,2.9-7,5.8-10.4,8.7c-21.6,18.1-43.9,36.8-70,48.3c-15.7,6.9-31.7,13.5-47.3,19.9
		c-7.6,3.2-15.4,6.4-23.1,9.6c-7.2,3-14.5,6-21.6,8.9c-16.3,6.6-33.2,13.5-49.4,21.1c-24.7,11.5-48.5,26-71.4,40
		c-6.3,3.8-12.8,7.8-19.2,11.6l-7.9,4.7c-25.1,15.2-51.1,30.8-79.4,37.5c-17.1,4-34.9,4.8-52.1,5.6c-10.5,0.5-21.5,1-32.1,2.2
		c-33.9,3.9-64.1,19.5-92,35.2c-8.6,4.8-17.2,9.8-25.5,14.7"/>
	
		<linearGradient id="SVGID_57_" gradientUnits="userSpaceOnUse" x1="896.7151" y1="305.6302" x2="935.4381" y2="398.5601" gradientTransform="matrix(1 0 0 1 0 409.3301)">
		<stop  offset="0" style="stop-color:#B983F1"/>
		<stop  offset="1" style="stop-color:#33B8FF"/>
	</linearGradient>
	<path class="st58" d="M395.4,961.2c49.6-34.1,101-69.4,160.4-73.8c11.2-0.8,22.7-0.8,33.9-0.8c19.7,0,40,0,59.6-4.5
		c29.7-6.9,55.5-24.5,79.3-41.9c5.1-3.7,10.2-7.6,15.2-11.3c19.4-14.7,39.5-29.8,61.9-39.9c24.5-11.1,49.7-20.4,75.4-28
		c22.9-6.8,50-15.4,76.6-27c29.5-12.9,52.5-33,76.8-54.3l5.1-4.4c15-13.1,31.9-27.8,51.1-38.2c17.5-9.5,36.1-12.3,62.1-9.5
		c22.4,2.5,44.8,7.4,66.5,12.2c8.4,1.8,17.1,3.8,25.7,5.5l4.4,0.9c27.5,5.6,99.7,28.9,211.3-27.5l-0.7-2.1
		c-109.5,57-183,33-210.2,27.4l-4.4-0.9c-8.6-1.7-17.3-3.7-25.7-5.5c-21.8-4.8-44.2-9.8-66.7-12.2c-26.5-2.9-45.5,0-63.4,9.7
		c-19.4,10.5-36.4,25.4-51.5,38.5l-5,4.4c-24.2,21.1-47.1,41.2-76.3,53.9c-26.5,11.6-53.5,20.1-76.4,27c-25.9,7.6-51.2,17-75.7,28.1
		c-22.5,10.2-42.7,25.5-62.3,40.1c-5,3.7-10.1,7.6-15.1,11.3c-23.7,17.3-49.2,34.8-78.5,41.5c-19.3,4.5-39.6,4.5-59.1,4.5
		c-11.2-0.1-22.7,0-34,0.8c-60,4.5-111.6,39.9-161.4,74.2"/>
</g>
<linearGradient id="SVGID_58_" gradientUnits="userSpaceOnUse" x1="720" y1="16.2968" x2="720" y2="507.2658" gradientTransform="matrix(1 0 0 -1 0 875.8898)">
	<stop  offset="0" style="stop-color:#141414"/>
	<stop  offset="1" style="stop-color:#141414;stop-opacity:0"/>
</linearGradient>
<path class="st59" d="M0,350.4h1440V877H0V350.4z"/>
<linearGradient id="SVGID_59_" gradientUnits="userSpaceOnUse" x1="720" y1="-409.7301" x2="720" y2="216.2698" gradientTransform="matrix(1 0 0 1 0 409.3301)">
	<stop  offset="0" style="stop-color:#141414"/>
	<stop  offset="1" style="stop-color:#141414;stop-opacity:0"/>
</linearGradient>
<path class="st60" d="M0-0.4h1440v626H0V-0.4z"/>
</svg>
