<svg width="320" height="547" viewBox="0 0 320 547" fill="none" xmlns="http://www.w3.org/2000/svg">
<path d="M-341.948 52.0636C-326.217 41.908 -310.269 43.9773 -292.429 41.6905C-275.855 39.5684 -266.068 31.502 -254.146 20.8389C-241.915 9.88591 -227.97 5.10797 -211.468 4.91027C-177.021 4.49508 -142.237 19.4747 -110.057 29.9928C-62.6796 45.4733 -14.4982 59.471 35.3967 63.3C54.9961 64.8025 74.9382 66.1206 93.6216 59.1415C107.501 53.9616 119.983 45.4074 132.82 38.2504C190.736 6.03061 253.422 8.77875 317.302 18.5455C310.672 16.3268 304.038 14.13 297.399 11.9553C239.115 4.4819 181.107 2.72889 128.912 33.1297C116.648 40.2736 105.029 49.1045 91.8225 54.5283C73.6992 61.9819 53.3815 60.0773 34.2697 58.6538C-16.2973 54.9369 -65.1641 41.1303 -113.181 25.5641C-144.564 15.4085 -178.793 0.112558 -212.331 0.000523663C-229.789 -0.0587887 -243.556 4.91686 -256.176 16.72C-267.564 27.3699 -277.127 35.0014 -293.266 36.9785C-310.77 39.1137 -327.535 36.4249 -342.693 47.2197C-357.996 58.1134 -368.678 62.0544 -388.232 62.5289C-388.222 64.1615 -388.295 65.7935 -388.449 67.4189C-369.054 67.61 -357.482 62.0808 -341.948 52.0636Z" fill="#222222"/>
<path d="M-338.118 62.608C-319.961 52.9994 -302.945 54.8249 -283.346 51.5363C-268.353 49.0123 -258.764 41.651 -247.508 32.2664C-235.151 21.9197 -221.147 16.8255 -205.001 15.9885C-169.414 14.1564 -133.312 28.6418 -100.137 39.5684C-54.4532 54.6206 -8.26199 68.8753 39.9326 72.7636C62.8864 74.6088 83.9423 74.4639 105.479 65.9163C120.465 59.9851 134.358 51.6352 148.784 44.5111C215.22 11.7048 285.637 18.1501 356.601 31.9896C350.103 29.7094 343.594 27.4577 337.074 25.2346C271.56 13.7676 205.48 8.53491 144.533 39.3444C129.408 46.9891 115.035 56.3538 99.1855 62.4894C78.9996 70.2988 58.6489 69.6859 37.3096 67.9988C-11.8603 64.1106 -59.0136 49.9283 -105.62 34.6653C-138.281 23.9693 -173.981 9.11485 -208.981 10.2418C-226.044 10.7888 -239.956 16.173 -252.629 27.3369C-264.188 37.4859 -274.087 44.5111 -289.87 46.653C-308.046 49.1177 -324.028 47.4636 -340.404 57.1974C-356.531 66.7664 -369.507 72.9547 -389.087 72.7043C-389.423 74.8922 -389.627 75.9994 -390.102 78.3389C-369.837 78.6421 -355.397 71.7355 -338.118 62.608Z" fill="#222222"/>
<path d="M-330.372 73.5281C-310.766 65.4155 -292.841 65.7582 -272.411 62.641C-257.813 60.4135 -247.539 54.0737 -236.065 45.3613C-222.951 35.3837 -209.171 29.9665 -192.57 28.5694C-155.407 25.4456 -117.658 39.5421 -83.0331 51.0026C-39.689 65.3694 3.95831 79.2814 49.8067 82.6358C94.7062 85.931 127.051 68.3218 166.764 50.449C240.318 17.3396 318.024 27.9894 394.51 45.7238C388.289 43.3865 382.05 41.0887 375.794 38.8304C304.204 23.4949 230.96 14.2883 162.368 45.2954C144.792 53.2037 128.099 63.188 110.088 70.1539C88.9199 78.3324 68.6153 79.4264 46.1623 77.792C-2.40131 74.2662 -48.7374 59.4909 -94.6583 44.3267C-127.788 33.3737 -163.685 19.7714 -199.173 22.1307C-215.339 23.2115 -229.245 28.0949 -241.812 38.1911C-253.536 47.6152 -263.764 54.6997 -279.093 57.0788C-299.24 60.1697 -316.658 59.5238 -335.592 68.4207C-354.044 77.0803 -370.447 84.6327 -391.457 84.2966C-392.063 86.735 -392.4 87.9871 -393.118 90.531C-370.105 90.9066 -351.072 82.0954 -330.372 73.5281Z" fill="#222222"/>
<path d="M-322.142 85.9638C-299.965 78.4904 -279.72 77.4887 -256.931 74.3517C-226.958 70.2262 -207.445 46.2113 -176.813 42.3494C-140.975 37.8285 -104.393 49.4274 -70.7891 60.5188C-27.6756 74.734 15.2599 89.74 60.97 92.5804C107.655 95.4801 143.348 74.0552 184.959 56.5646C264.701 23.0466 349.103 38.2569 430.117 59.6686C424.317 57.2742 418.496 54.9368 412.652 52.6566C336.047 33.6108 255.844 20.1864 180.689 51.4044C138.801 68.8291 103.471 90.656 56.5347 87.6509C10.7061 84.7446 -32.7105 70.4437 -75.9294 56.0901C-110.416 44.6428 -148.422 31.2185 -185.407 35.2715C-216.816 38.7248 -235.269 64.2423 -265.696 68.5391C-287.793 71.6365 -307.327 72.4933 -328.646 80.5268C-350.289 88.7185 -371.437 97.4176 -395.043 97.0486C-395.86 99.6847 -396.289 101.003 -397.191 103.744C-370.903 104.127 -346.644 94.2411 -322.142 85.9638Z" fill="#222222"/>
<path d="M-219.598 82.7149C-210.952 79.9535 -203.716 75.1558 -195.919 70.6942C-100.644 16.1598 4.42444 118.731 103.595 101.009C145.153 93.5954 180.701 69.2707 220.466 56.3341C299.998 30.4541 384.953 50.9894 462.553 73.8312C456.437 70.9776 453.28 69.5541 446.782 66.7137C371.172 45.5919 289.315 27.3765 212.4 52.8544C174.176 65.5143 139.841 88.9558 99.8052 96.1392C34.1729 107.916 -30.5633 73.2447 -92.2613 56.9535C-129.674 47.0681 -172.616 42.455 -206.932 63.8338C-214.702 68.671 -221.846 73.7719 -230.657 76.6848C-246.421 81.9108 -262.949 80.4346 -279.148 82.8796C-319.948 89.0481 -357.625 110.954 -399.532 110.559C-400.501 113.333 -400.995 114.737 -402.017 117.564C-356.122 117.9 -313.786 95.0914 -268.893 88.8108C-252.405 86.5306 -235.652 87.8289 -219.598 82.7149Z" fill="#222222"/>
<path d="M-173.98 85.8255C-138.136 68.6908 -97.7966 67.3727 -59.3688 76.23C-2.5015 89.3644 53.2323 122.191 113.454 110.499C157.134 102.024 194.402 76.296 236.501 63.155C320.441 36.9521 410.332 62.1928 490.885 88.2309C485.678 85.3378 482.943 83.8945 477.263 80.9816C398.166 56.5845 311.096 33.8547 229.344 59.616C188.385 72.4934 151.941 97.3452 109.454 105.583C9.52573 124.952 -86.8963 26.5 -185.058 78.1478C-209.759 91.1504 -231.625 91.2756 -259.047 94.9727C-307.96 101.563 -354.771 124.965 -404.606 124.695C-405.661 127.555 -406.194 128.992 -407.242 131.872C-353.861 132.043 -302.872 108.608 -250.394 101.372C-222.939 97.5759 -199.293 97.9515 -173.98 85.8255Z" fill="#222222"/>
<path d="M-151.152 101.425C-114.121 87.5851 -75.9177 81.7791 -36.6068 89.6478C18.0001 100.574 68.2178 132.485 125.804 119.515C169.497 109.662 206.758 83.5123 249.265 70.3647C336.863 43.2788 431.539 73.6599 514.352 102.789C510.22 99.8627 508.006 98.4063 503.313 95.5C421.594 67.9329 329.047 40.043 243.268 66.7928C200.234 80.2106 162.169 106.908 117.5 115.449C58.7608 126.679 6.21008 94.2413 -49.4249 82.5765C-87.8725 74.5364 -126.669 78.1742 -162.626 93.5954C-187.873 104.423 -212.257 103.916 -239.205 107.435C-296.27 114.849 -352.05 139.068 -409.971 139.068C-411.052 141.955 -411.593 143.398 -412.66 146.271C-351.061 146.12 -291.202 121.742 -230.466 113.768C-203.242 110.209 -177.151 111.158 -151.152 101.425Z" fill="#222222"/>
<path d="M-128.581 117.228C-89.4019 106.993 -51.9692 96.4687 -10.9054 103.902C37.566 112.694 80.4026 141.203 131.464 129.829C178.11 119.442 216.9 89.8916 262.452 76.6254C351.941 50.5741 448.844 85.9111 531.941 117.485C529.424 114.865 526.747 112.402 523.927 110.111C441.483 79.9865 346.115 47.1472 257.984 72.9546C212.867 86.1615 173.984 114.763 127.773 124.879C73.9244 136.663 27.6015 106.631 -23.44 96.818C-63.7922 89.0612 -101.62 97.1607 -139.87 109.339C-165.467 117.492 -191.676 116.411 -218.096 119.627C-283.88 127.634 -348.742 153.138 -415.317 153.435C-416.364 156.288 -416.878 157.705 -417.887 160.526C-347.944 160.724 -278.832 134.494 -209.747 125.914C-182.727 122.579 -155.107 124.161 -128.581 117.228Z" fill="#222222"/>
<path d="M-188.982 137.546C-161.679 134.369 -133.769 136.748 -106.604 132.86C-67.2141 127.193 -31.3763 112.167 9.52948 117.59C56.3796 123.799 93.5289 151.247 142.607 138.62C188.231 126.876 225.644 96.2249 270.701 83.2091C360.922 57.1578 460.679 98.6567 542.813 132.254C541.574 129.627 540.052 127.143 538.272 124.846C455.011 92.0269 355.399 53.151 264.974 80.5203C220.457 93.9974 182.761 123.449 137.189 134.205C86.9781 146.067 47.2455 118.243 -0.547058 110.717C-41.4066 104.285 -77.8046 116.951 -116.971 124.972C-144.373 130.58 -172.909 128.557 -200.581 131.964C-237.823 136.544 -274.623 144.604 -311.423 151.735C-347.01 158.661 -383.883 167.551 -420.307 167.485C-421.256 170.247 -421.717 171.617 -422.594 174.313C-383.902 174.313 -344.591 164.948 -306.763 157.804C-267.683 150.45 -228.544 142.146 -188.982 137.546Z" fill="#222222"/>
<path d="M-173.416 148.973C-144.05 145.573 -116.081 149.105 -86.9713 148.367C-75.4516 148.071 -64.2086 145.23 -53.1436 142.258C-25.3656 134.798 3.59854 128.754 32.5298 131.891C50.508 133.869 66.6542 140.459 83.5911 146.258C106.519 154.114 128.51 154.213 151.866 147.267C194.334 134.64 228.379 104.252 270.491 91.0384C361.186 62.5949 465.16 111.521 546.049 147.108C546.251 144.613 546.04 142.101 545.423 139.675C463.704 104.997 361.786 60.0247 271.183 87.1634C227.463 100.258 191.573 130.659 147.451 142.93C123.238 149.679 100.172 148.499 76.5725 140.564C58.2647 134.422 40.7017 127.114 21.3461 124.748C-7.03152 121.314 -35.6135 126.415 -63.0092 133.691C-73.8831 136.584 -84.8361 139.622 -96.0857 140.584C-124.285 143.055 -152.564 140.024 -180.909 143.326C-223.027 148.281 -264.737 156.849 -306.447 164.513C-345.138 171.598 -385.207 180.916 -424.729 180.989C-425.526 183.625 -425.895 184.897 -426.594 187.414C-385.075 187.309 -342.851 177.529 -302.13 170.234C-259.366 162.582 -216.595 153.969 -173.416 148.973Z" fill="#222222"/>
<path d="M-159.897 159.485C-139.586 157.158 -118.827 155.689 -98.4894 158.582C-89.263 159.9 -80.208 162.648 -70.9091 163.498C-59.0467 164.572 -47.4478 162.18 -36.0467 159.175C-7.70859 151.708 21.2885 143.681 50.8986 145.744C67.0645 146.878 81.1479 152.4 96.2264 157.686C115.641 164.493 133.791 163.498 153.45 157.389C195.357 144.354 226.872 111.468 268.364 97.9252C297.539 88.3957 328.632 89.549 358.519 94.9596C422.312 106.512 482.686 134.501 540.832 161.989C542.436 159.701 543.695 157.19 544.568 154.535C485.915 127.759 424.948 100.772 360.766 90.4321C331.452 85.7068 301.038 85.0808 272.371 93.7272C229.093 106.815 195.403 139.714 151.907 152.624C130.693 158.925 110.83 159.122 90.0118 151.88C73.7272 146.219 58.3785 140.136 40.9605 138.739C12.0556 136.419 -16.4275 143.352 -44.1264 150.72C-55.4484 153.725 -66.9484 156.374 -78.7318 155.946C-87.5957 155.623 -96.3344 153.646 -105.146 152.75C-125.641 150.674 -146.44 152.005 -166.837 154.384C-210.82 159.524 -254.415 168.026 -297.983 175.677C-340.583 183.21 -384.75 193.444 -428.167 193.583C-428.747 195.995 -429.004 197.168 -429.446 199.461C-385.541 199.323 -340.866 189.029 -297.799 181.595C-251.97 173.693 -206.128 164.816 -159.897 159.485Z" fill="#222222"/>
<path d="M-151.294 169.199C-130.39 166.76 -109.116 165.053 -88.39 169.719C-78.676 171.907 -69.4826 176.039 -59.7356 178.036C-47.9522 180.455 -36.2084 178.985 -24.6293 176.105C4.7435 168.803 33.7736 158.832 64.4578 159.32C79.7274 159.564 92.3082 164.249 106.418 169.205C123.493 175.202 139.666 172.329 156.504 166.273C194.648 152.558 220.93 118.961 258.785 105.26C287.34 94.9397 318.315 97.5362 347.417 104.001C410.255 117.979 469.284 147.919 526.217 176.936C529.287 174.706 532.154 172.209 534.785 169.476C477.265 141.236 417.63 112.351 354.37 99.5529C324.252 93.4635 292.421 91.5984 263.042 102.044C223.573 116.075 194.563 148.986 154.448 162.2C136.463 168.131 119.519 169.765 101.633 163.439C87.069 158.292 73.7699 153.237 58.0653 152.571C28.2839 151.3 -0.522095 160.124 -28.992 167.531C-40.5184 170.53 -52.2754 172.639 -64.1774 170.945C-73.964 169.555 -83.3221 165.983 -93.0428 164.21C-113.196 160.546 -133.843 162.068 -154.055 164.381C-202.316 169.904 -250.187 179.051 -298.039 187.164C-341.311 194.551 -386.303 204.898 -430.339 205.01C-430.662 207.159 -430.774 208.2 -430.906 210.23C-385.09 210.17 -338.121 199.151 -293.136 191.566C-245.976 183.579 -198.823 174.748 -151.294 169.199Z" fill="#222222"/>
<path d="M-146.782 178.306C-126.306 176.02 -105.659 174.774 -85.4134 179.4C-75.1919 181.733 -65.5372 186.096 -55.2828 188.258C-43.4203 190.762 -31.4787 189.451 -19.7481 186.663C9.0777 179.816 37.1654 169.041 67.2433 169.403C81.9001 169.581 93.6505 174.148 107.081 179.124C124.071 185.417 140.369 181.648 157.016 175.394C191.074 162.589 214.022 131.364 248.159 119.64C273.321 111 300.835 114.796 326.076 121.05C387.424 136.254 445.122 166.404 500.968 195.052C505.163 191.407 509.609 188.062 514.274 185.042C458.039 155.662 399.808 125.07 337.688 110.13C309.93 103.441 279.898 100.074 252.542 110.229C216.46 123.627 192.623 157.172 156.324 170.892C140.448 176.89 124.948 180.303 108.696 174.53C95.186 169.733 83.3631 165.416 68.68 165.416C37.8112 165.357 8.8866 175.993 -20.7037 183.163C-32.52 186.024 -44.4616 187.223 -56.3833 184.389C-66.3808 182.01 -75.7191 177.43 -85.6968 174.926C-106.496 169.713 -127.802 171.36 -148.871 173.812C-196.921 179.4 -244.601 188.31 -292.288 196.298C-337.537 203.857 -384.908 215.067 -431 215.001C-430.943 216.566 -430.684 218.116 -430.229 219.614C-384.361 219.832 -337.306 208.76 -292.321 201.161C-243.949 192.957 -195.563 183.743 -146.782 178.306Z" fill="#222222"/>
<path d="M-152.635 186.808C-130.992 184.224 -109.495 183.045 -87.9843 187.184C-77.4992 189.2 -67.37 192.963 -56.8058 194.558C-15.9462 200.72 22.5673 174.273 63.8487 176.468C78.5186 177.245 90.2888 182.867 103.641 188.113C121.144 194.993 137.996 191.408 155.433 185.562C187.541 174.814 211.319 146.68 243.809 138.369C267.474 132.313 292.781 137.875 315.735 144.301C374.092 160.618 429.456 188.455 483.668 214.915C485.692 211.366 488.101 208.051 490.851 205.03C435.111 177.081 377.723 147.411 316.921 131.918C293.855 126.032 268.549 121.966 245.232 128.978C212.69 138.765 189.96 168.006 157.885 179.908C140.236 186.452 122.957 190.413 105.064 183.526C92.1934 178.577 80.9042 173.7 66.7945 173.126C37.369 171.927 9.70309 182.478 -18.3978 189.325C-30.5699 192.291 -43.0453 193.892 -55.4745 191.658C-65.6631 189.8 -75.3508 185.846 -85.4734 183.638C-106.562 179.11 -127.869 180.343 -149.142 182.748C-197.218 188.218 -244.892 197.51 -292.553 205.735C-336.925 213.393 -383.261 224.359 -428.496 224.128C-427.749 225.679 -426.867 227.161 -425.86 228.557C-381.554 228.722 -336.312 217.841 -292.908 210.104C-246.315 201.781 -199.683 192.436 -152.635 186.808Z" fill="#222222"/>
<path d="M-167.679 199.27C-134.405 194.248 -104.861 201.247 -72.1204 202.618C-70.9605 202.664 -69.8072 202.691 -68.6473 202.704C-70.9583 203.143 -73.2671 203.593 -75.5737 204.055C-76.3645 204.055 -77.1554 204.055 -77.9462 204.055C-110.654 203.488 -140.725 196.581 -173.749 202.078C-212.302 208.516 -250.255 218.606 -288.222 227.78C-325.555 236.802 -364.385 248.308 -403.03 249.771C-400.724 251.419 -399.538 252.243 -397.099 253.884C-361.103 252.164 -325.035 240.822 -290.383 231.787C-253.741 222.237 -217.146 211.66 -179.878 204.813C-146.854 198.743 -115.952 205.841 -83.0734 205.353L-81.5049 205.32L-86.6848 206.454C-87.5745 206.513 -88.4642 206.559 -89.3605 206.599C-121.455 207.917 -152.344 200.819 -184.366 207.172C-219.782 214.184 -254.381 225.051 -289.091 234.884C-322.076 244.236 -356.51 255.927 -390.97 257.95C-388.473 259.584 -387.207 260.395 -384.67 262.023C-351.521 259.677 -318.557 247.524 -287.042 237.757C-255.165 227.872 -223.327 217.09 -190.692 209.92C-159.059 202.967 -127.94 209.973 -96.0628 207.831C-94.3757 207.719 -92.6952 207.574 -91.0146 207.409L-94.3823 208.174C-96.7218 208.49 -99.0547 208.773 -101.394 209.011C-132.777 212.174 -164.206 205.057 -195.141 212.372C-227.156 219.957 -258.21 231.582 -289.342 242.094C-317.97 251.749 -347.962 263.611 -378.317 266.089C-375.78 267.717 -374.508 268.527 -371.997 270.162C-343.118 267.427 -314.747 255.255 -287.787 245.31C-259.416 234.844 -231.156 223.331 -201.883 215.575C-171.067 207.409 -139.183 214.467 -107.741 210.375C-103.965 209.887 -100.182 209.287 -96.3857 208.628L-96.8207 208.727L-96.1089 208.576L-93.6046 208.128C-104.063 210.559 -114.436 213.248 -124.645 215.647C-153.675 222.468 -184.616 215.95 -212.638 224.873C-260.226 240.071 -303.959 276.449 -354.144 282.446C-351.949 284.107 -350.882 284.944 -348.872 286.618C-301.461 280.686 -261.175 244.598 -216.658 229.236C-198.436 222.956 -180.55 225.532 -161.675 224.076C-150.195 223.193 -139.236 220.781 -128.184 217.664C-114.278 213.762 -99.9906 209.722 -85.5645 206.777L-85.2811 206.724C-82.7307 206.394 -80.1869 206.012 -77.643 205.597C-78.7831 205.735 -79.9232 205.854 -81.0634 205.966C-79.4158 205.663 -77.7682 205.346 -76.1273 205.017C-74.974 204.938 -73.8207 204.846 -72.674 204.74C-74.3259 205.043 -75.9823 205.329 -77.643 205.597C-74.5676 205.232 -71.5075 204.793 -68.4628 204.279C-65.0886 203.877 -61.7209 203.376 -58.3599 202.803C-40.619 201.485 -22.9109 202.915 -5.68399 209.426C17.8169 218.303 38.0753 233.711 60.9633 243.886C94.8174 258.938 127.235 256.599 163.185 251.92C212.454 245.501 258.355 243.577 304.994 262.359C331.816 273.16 358.171 284.818 385.626 293.992C442.408 313.038 500.863 325.77 559.569 337.158C556.004 334.324 554.152 332.881 550.389 329.909C490.259 316.906 430.295 302.744 372.149 282.459C347.659 273.892 323.836 263.736 299.57 254.595C255.336 237.929 211.748 240.716 165.511 246.885C129.403 251.696 97.2822 254.846 63.2699 239.438C41.377 229.513 21.8303 214.856 -0.91925 206.763C-15.319 201.649 -29.9757 200.081 -44.6983 200.615C-41.6207 200.094 -38.5496 199.501 -35.472 198.855C-22.0476 198.499 -8.67593 199.929 4.51117 204.371C26.6149 211.812 45.5026 225.882 66.6244 235.457C99.2264 250.246 130.069 247.096 164.641 242.193C208.513 235.978 250.605 231.648 293.151 246.298C317.087 254.549 340.476 264.342 364.379 272.712C422.142 292.938 481.389 308.207 540.866 322.409C537.011 319.345 535.06 317.796 531.191 314.606C472.65 299.304 414.399 283.019 357.255 263.038C333.938 254.885 310.978 245.494 287.398 238.1C245.266 224.92 203.227 231.411 160.371 238.001C128.283 242.944 99.3713 245.013 69.2209 231.187C49.1075 221.961 30.9974 208.582 9.73062 201.966C-2.93585 198.012 -15.7275 196.871 -28.5653 197.353L-28.0315 197.227L-28.6049 197.353L-30.18 197.418L-24.4399 196.1L-22.7528 196.002C-24.5124 196.423 -26.272 196.845 -28.025 197.254C-26.1863 196.852 -24.3542 196.423 -22.5221 195.988C-9.96106 195.329 2.5802 196.219 15.0424 199.791C36.2894 205.88 54.1094 219.087 74.0911 228.01C103.438 241.105 131.354 237.981 162.328 232.92C200.861 226.62 239.968 218.639 278.475 228.893C302.859 235.385 326.426 244.908 350.203 253.205C406.748 272.936 464.037 290.216 521.642 306.586C517.866 303.291 516.001 301.643 512.416 298.269C455.74 280.871 399.388 262.493 343.362 243.135C320.178 235.075 296.934 225.941 272.952 220.458C234.854 211.746 195.846 222.191 158.209 228.781C129.594 233.79 103.899 235.985 76.8392 223.826C57.8461 215.291 40.83 202.934 20.4266 197.616C7.8392 194.321 -4.78772 193.8 -17.4212 194.756L-13.645 193.8C0.194519 192.331 14.0341 192.482 27.9527 196.054C46.6229 200.852 62.3011 211.825 79.6335 219.733C106.344 231.912 131.782 228.959 159.949 223.608C195.036 216.965 231.737 205.096 267.654 211.838C291.306 216.273 314.253 225.018 336.911 232.887C392.44 252.124 447.95 271.322 503.763 289.715C500.468 286.255 498.866 284.502 495.927 280.957C441.155 261.673 386.634 241.646 331.737 222.718C308.671 214.771 284.802 205.716 260.431 202.697C226.425 198.473 191.589 212.286 158.717 218.988C132.454 224.346 108.631 227.325 83.5877 216.155C66.565 208.563 51.2954 197.972 32.8427 193.827C18.3441 190.578 4.03662 191 -10.2642 192.977L-7.98398 192.43C7.17361 189.793 22.3905 188.68 37.8842 191.698C55.6252 195.158 70.1765 204.826 86.3819 212.088C110.99 223.101 134.544 219.535 160.193 213.789C191.207 206.842 223.749 191.434 256.075 193.847C280.201 195.646 303.986 204.391 326.663 212.148C381.276 230.831 435.145 251.768 489.198 271.994C487.148 269.081 485.311 266.024 483.702 262.846C428.515 241.013 373.434 218.217 317.048 199.58C296.499 192.792 274.732 185.464 252.872 184.851C220.777 183.908 189.289 201.663 158.73 209.11C134.965 214.883 112.934 218.468 89.9868 208.378C74.7172 201.663 60.9897 192.792 44.3229 189.721C27.0367 186.531 10.1854 188.587 -6.58685 192.028C11.51 187.783 29.6595 184.502 48.5143 187.329C65.0427 189.8 78.4275 198.196 93.4532 204.648C114.918 213.874 135.631 210.21 157.675 204.483C188.129 196.575 218.378 176.086 250.262 175.605C272.089 175.269 294.021 182.281 314.53 188.937C370.679 207.152 425.174 230.811 479.609 253.482C478.512 250.425 477.769 247.251 477.395 244.025C423.559 220.537 369.46 196.028 313.39 178.201C292.038 171.413 268.675 164.362 245.972 166.444C214.767 169.304 186.659 191.487 156.575 199.844C136.092 205.544 116.829 209.116 96.7023 200.806C81.7885 194.651 68.7728 186.775 52.3696 184.838C31.439 182.36 11.4441 187.329 -8.53757 192.436L-9.2691 192.588L-8.8605 192.515L-10.5872 192.957L-11.6943 193.115L-9.2691 192.588C-10.4202 192.794 -11.5735 193.014 -12.729 193.247C10.3369 187.362 33.2183 179.875 57.365 182.366C72.8455 183.955 85.1759 190.934 99.2527 196.7C118.786 204.661 137.753 200.733 157.438 194.723C187.094 185.708 212.697 162.22 243.197 157.238C266.922 153.356 291.965 160.533 314.372 167.551C370.297 185.009 423.961 210.223 477.151 234.429C477.359 231.118 478.025 227.851 479.128 224.722C424.706 199.02 369.361 171.782 311.294 155.142C289.948 149.026 266.434 143.167 244.14 147.563C211.689 153.956 186.33 180.883 154.512 190.729C136.514 196.298 119.399 199.6 101.526 192.456C87.4957 186.848 75.3762 180.528 59.9154 179.473C29.9166 177.437 1.69052 190.453 -27.2209 195.632L-28.8949 195.922C-30.7753 196.177 -32.6513 196.456 -34.523 196.759C-42.9538 197.92 -51.4987 197.993 -59.9482 196.977C-70.1103 195.659 -79.9562 192.463 -90.0327 190.657C-111.781 186.749 -133.252 187.566 -155.105 190.288C-200.222 195.909 -244.897 205.182 -289.546 213.525C-332.897 221.611 -378.218 232.933 -422.551 232.914C-421.27 234.415 -419.911 235.847 -418.478 237.204C-375.951 237.019 -332.548 225.809 -291.062 217.664C-246.947 208.991 -202.825 199.211 -158.209 193.438C-136.652 190.637 -115.662 190.143 -94.178 193.557C-83.7654 195.224 -73.5175 198.137 -63.006 199.165C-59.1229 199.535 -55.2209 199.669 -51.3215 199.567L-52.3364 199.751C-55.223 200.191 -58.1095 200.689 -60.996 201.247C-62.9424 201.247 -64.8931 201.177 -66.8482 201.036C-99.6611 198.875 -128.507 191.705 -162.071 196.39C-205.929 202.486 -249.234 212.649 -292.558 221.69C-331.994 229.928 -373.282 241.02 -413.819 241.461C-411.842 243.148 -410.807 243.979 -408.652 245.646C-368.932 244.512 -328.91 233.447 -290.344 224.814C-249.622 215.68 -208.908 205.498 -167.679 199.27ZM-68.4825 202.704H-67.0525L-69.5568 203.231C-71.1121 203.488 -72.6608 203.758 -74.2161 204.042H-74.9542C-72.797 203.593 -70.6398 203.148 -68.4825 202.704ZM-50.1221 200.779C-47.7496 200.27 -45.3771 199.754 -43.0046 199.231C-41.7788 199.145 -40.553 199.066 -39.3272 199C-41.133 199.402 -42.9387 199.804 -44.7445 200.193C-46.5458 200.426 -48.3383 200.621 -50.1221 200.779ZM-47.486 199.62L-54.3333 201.083C-55.447 201.142 -56.5674 201.188 -57.6812 201.214L-53.068 200.246C-51.2227 200.017 -49.3708 199.808 -47.5123 199.62H-47.486ZM-80.5888 205.281L-82.3023 205.63L-80.6877 205.281H-80.5888ZM-93.7364 208.088L-90.1579 207.324H-90.0327L-92.8599 207.983L-93.7364 208.088ZM-62.9467 203.369L-61.7012 203.132C-60.6797 203.04 -59.6516 202.948 -58.6301 202.869C-60.0844 203.062 -61.532 203.229 -62.9731 203.369H-62.9467ZM-36.3089 198.875L-38.286 199.224L-36.7702 198.895L-36.3089 198.875ZM-13.8032 193.754L-17.7112 194.71L-19.2863 194.842L-17.9682 194.532L-15.3321 193.926L-13.8032 193.754ZM-59.4869 201.135L-59.9811 201.234H-60.1195L-59.4869 201.135Z" fill="#222222"/>
<path d="M310.078 269.997C263.709 250.18 217.815 250.074 168.236 256.058C128.622 260.836 93.4963 264.316 56.202 247.339C33.4261 236.979 13.1478 221.71 -10.1619 212.457C-50.1318 196.594 -92.8631 207.462 -132.082 220.405C-142.89 223.97 -153.553 226.962 -164.914 228.102C-182.906 229.908 -200.225 227.246 -217.59 233.315C-260.486 248.295 -298.15 285.299 -344.051 290.861C-342.238 292.562 -341.415 293.412 -339.826 295.139C-295.177 290.163 -259.728 252.71 -218.249 238.1C-201.207 232.096 -183.98 234.864 -166.384 232.544C-155.326 231.088 -145.216 227.503 -134.896 223.476C-96.6195 208.556 -53.9871 199.303 -14.6499 215.515C9.12778 225.315 29.9002 241.019 53.2957 251.623C91.9344 269.133 128.082 265.324 169.093 260.704C220.846 254.872 267.769 256.091 315.621 277.773C342.951 290.156 369.958 302.77 398.526 312.168C456.211 331.134 515.965 341.686 575.897 350.648C572.997 348.085 571.435 346.767 568.16 344.058C508.656 333.837 449.377 322.159 391.995 303.08C363.928 293.768 337.211 281.596 310.078 269.997Z" fill="#222222"/>
<path d="M319.696 284.95C269.86 261.186 220.789 259.347 166.321 265.746C125.738 270.511 89.8344 273.476 51.6504 256.52C27.4246 245.758 6.07214 229.5 -18.2854 219.054C-56.9637 202.447 -99.7806 209.9 -136.91 227.16C-146.301 231.523 -155.363 235.596 -165.683 237.421C-182.864 240.466 -200.17 237.527 -216.909 243.168C-258.105 257.021 -291.946 295.244 -336.285 299.475C-335.229 300.865 -334.292 302.343 -333.484 303.89C-289.587 300.595 -256.688 262.932 -216.178 249.402C-199.359 243.787 -182.067 246.766 -164.965 243.076C-154.961 240.907 -146.664 236.274 -137.826 231.358C-103.201 212.075 -61.1617 206.078 -24.0387 221.756C0.898804 232.3 22.6401 249.046 47.281 260.223C85.4452 277.543 122.463 275.888 163.197 270.807C196.742 266.623 231.907 264.105 265.346 270.59C287.311 274.854 307.359 283.942 327.222 293.972C353.326 307.153 379.483 319.826 407.346 328.986C465.802 348.184 526.907 356.329 587.873 362.761C586.214 360.696 584.429 358.735 582.529 356.889C522.03 349.172 461.505 339.84 403.412 320.709C374.395 311.146 347.197 298.065 319.696 284.95Z" fill="#222222"/>
<path d="M330.834 301.281C310.773 290.631 290.548 280.811 268.227 276.047C234.122 268.797 198.021 271.144 163.705 275.421C122.061 280.607 84.1806 282.584 45.0806 264.968C20.0376 253.706 -1.90137 236.69 -27.0498 225.756C-62.7361 210.23 -105.032 214.144 -137.239 236.064C-145.226 241.507 -152.482 246.753 -161.966 249.336C-178.672 253.89 -196.05 250.773 -212.711 255.927C-254.005 268.6 -286.864 306.118 -331.5 308.418C-330.963 309.906 -330.618 311.456 -330.472 313.031C-284.142 312.128 -250.031 274.228 -206.799 262.893C-190.277 258.563 -172.602 261.957 -156.463 256.151C-147.665 252.981 -141.648 246.858 -134.662 240.993C-105.566 216.491 -62.6108 215.199 -28.994 230.449C-3.59509 241.968 18.6998 259.281 44.2831 270.511C85.8611 288.759 124.922 284.614 168.911 279.599C201.948 275.829 236.264 273.872 268.991 281.115C291.859 286.169 312.395 296.621 332.699 307.963C358.401 322.337 384.387 335.86 412.507 345.047C471.035 364.158 532.608 369.701 593.739 373.431C593.373 371.625 592.69 369.898 591.723 368.33C530.743 363.249 469.473 356.395 411.038 337.356C382.937 328.11 356.82 315.074 330.834 301.281Z" fill="#222222"/>
<path d="M332.229 315.549C312.682 304.22 293.023 293.926 271.032 288.212C238.265 279.698 203.455 280.891 170.056 284.258C124.985 288.799 85.5951 293.432 43.0616 274.762C18.0186 263.762 -3.99289 247.148 -28.7722 235.708C-61.7235 220.511 -104.738 219.944 -132.365 246.153C-138.876 252.328 -144.135 258.378 -152.794 261.634C-168.611 267.565 -186.214 264.448 -202.498 268.554C-247.259 279.843 -282.392 317.519 -330.474 317.605C-330.576 319.077 -330.841 320.534 -331.265 321.948C-281.179 322.31 -245.757 283.658 -199.526 271.664C-182.991 267.374 -165.131 270.201 -149.018 264.059C-140.945 260.981 -135.66 255.492 -129.359 249.923C-101.68 225.361 -61.0448 225.855 -28.5877 240.275C-3.2482 251.531 19.2444 268.237 44.7355 279.256C85.292 296.786 123.443 293.61 166.345 289.801C200.674 286.762 236.202 286.367 269.621 295.811C292.536 302.276 313.17 313.763 333.508 325.856C358.55 340.756 383.725 354.609 411.048 364.969C468.331 386.677 530.378 392.497 590.962 396.497C592.505 391.818 593.052 389.248 593.599 383.402C532.606 380.001 470.75 374.835 412.61 354.701C384.14 344.829 358.208 330.614 332.229 315.549Z" fill="#222222"/>
<path d="M332.81 334.357C311.372 321.519 289.808 309.314 265.675 302.269C233.93 293.043 200.517 292.384 167.757 294.704C125.579 297.676 88.0807 301.096 48.1569 284.304C22.9821 273.72 0.707001 257.587 -24.0921 246.318C-57.8738 230.982 -96.7234 230.884 -126.498 254.384C-148.945 272.112 -172.347 267.486 -198.727 274.953C-245.69 288.239 -281.277 326.759 -332.773 325.955C-333.38 327.266 -334.106 328.519 -334.941 329.698C-298.695 329.599 -269.421 313.914 -238.572 296.714C-226.051 289.728 -213.345 282.703 -199.597 278.419C-186.74 274.406 -173.632 274.498 -160.425 272.567C-132.225 268.441 -113.529 248.288 -86.146 242.034C-52.0216 234.245 -20.1973 250.727 8.4967 266.926C41.8105 285.734 75.0583 301.663 114.139 302.876C151.828 304.035 188.688 296.167 226.568 300.833C257.622 304.662 285.933 315.47 312.973 330.917C342.386 347.722 370.48 366.155 401.942 379.131C458.288 402.375 518.589 410 578.87 414.805C581.667 412.574 584.066 409.887 585.968 406.857C527.809 402.553 469.525 395.95 414.483 375.619C385.585 364.962 359.131 350.141 332.81 334.357Z" fill="#222222"/>
<path d="M304.761 334.048C280.463 320.584 254.774 310.804 227.174 306.718C189.372 301.123 152.612 308.774 114.955 307.285C75.8021 305.736 42.9958 289.142 9.51068 270.379C-17.5687 255.221 -48.0288 240.13 -80.1168 247.122C-108.178 253.238 -130.203 270.662 -159.114 274.874C-173 276.903 -186.793 277.022 -200.224 281.503C-212.614 285.642 -224.121 292.008 -235.476 298.381C-268.302 316.834 -298.979 333.369 -337.697 333.197C-338.722 334.367 -339.823 335.467 -340.992 336.493C-302.808 336.941 -271.794 322.139 -239.456 303.62C-226.223 296.042 -212.884 288.127 -198.287 283.421C-186.016 279.467 -173.455 279.184 -160.788 277.437C-145.532 275.342 -130.519 272.824 -116.08 267.354C-102.016 262.082 -87.9131 255.393 -73.1246 252.375C-41.3793 245.883 -11.387 261.344 15.2904 276.324C48.5975 295 81.5159 311.008 120.603 311.852C153.686 312.563 185.939 306.698 219.173 311.12C251.281 315.384 280.318 327.345 308.24 343.346C334.76 358.544 360.429 374.98 388.517 387.284C442.866 411.061 500.861 419.517 559.514 424.473C563.137 423.587 566.647 422.286 569.973 420.597C510.074 415.609 450.505 407.417 394.856 383.501C363.124 369.872 334.819 350.688 304.761 334.048Z" fill="#222222"/>
<path d="M301.307 346.319C277.081 332.809 251.748 321.994 224.287 317.209C188.166 310.922 153.033 318.152 117.004 316.109C81.8648 314.132 51.6221 299.291 21.5112 282.301C-4.67847 267.526 -34.0183 251.86 -65.243 257.746C-80.9871 260.705 -96.2501 267.222 -111.777 271.209C-126.803 275.065 -142.23 277.068 -157.579 279.118C-172.513 281.141 -187.512 281.602 -201.78 286.875C-214.71 291.652 -226.632 298.737 -238.514 305.611C-272.335 325.171 -304.542 340.275 -344.617 339.531C-346.179 340.73 -347.003 341.31 -348.703 342.45C-306.525 343.491 -273.403 328.156 -237.927 307.443C-225.887 300.411 -213.774 293.083 -200.574 288.423C-187.552 283.81 -173.85 283.224 -160.261 281.477C-141.881 279.118 -123.316 277.595 -105.022 274.603C-88.7043 271.934 -73.0458 266.036 -56.8404 263.281C-28.3573 258.431 -1.37674 271.73 22.6316 285.266C54.4362 303.192 85.1928 319.312 122.606 320.748C154.002 321.954 184.646 316.221 216.141 321.005C243.873 325.223 269.384 335.438 293.906 348.724C320.485 363.104 345.969 379.356 373.648 391.66C425.006 414.495 479.442 423.069 535.11 427.57C539.363 427.53 543.611 427.236 547.829 426.687C490.619 421.896 434.331 413.322 381.458 389.913C353.449 377.57 327.905 361.18 301.307 346.319Z" fill="#222222"/>
<path d="M493.719 424.776C488.104 424.07 485.303 423.682 479.794 422.917L477.112 422.779C473.07 422.225 469.041 421.63 465.025 420.993L466.258 421.046C464.201 420.769 462.554 420.545 460.985 420.347C428.607 414.982 396.954 406.633 366.323 393.136C339.033 381.115 313.792 365.312 287.431 351.485C263.119 338.733 237.648 328.914 210.325 325.124C180.339 320.972 151.263 326.943 121.435 325.124C88.0887 323.101 59.7242 308.84 31.2542 292.588C7.16025 278.828 -19.0821 264.764 -47.8749 269.239C-65.9982 272.053 -83.2449 277.338 -101.651 278.656C-120.763 280.027 -139.783 280.904 -158.815 283.184C-172.872 284.864 -187.193 285.49 -200.65 290.196C-214.108 294.901 -226.221 302.381 -238.366 309.545C-275.199 331.293 -309.317 346.589 -353.136 345.238C-354.941 346.325 -355.871 346.859 -357.749 347.92C-313.812 349.515 -278.811 335.398 -241.859 313.275C-228.679 305.367 -215.498 296.905 -200.874 291.857C-186.982 287.046 -171.798 286.374 -157.273 284.805C-136.606 282.578 -116.203 282.571 -95.4764 282.531C-75.9626 282.492 -58.281 277.543 -39.1693 275.019C-12.3601 271.48 12.3008 284.179 34.7867 297.017C61.8792 312.484 88.8268 326.825 120.539 329.454C148.594 331.78 176.438 325.684 204.611 329.138C231.565 332.433 256.76 341.719 280.867 353.911C306.971 367.091 331.955 382.374 358.83 394.045C385.369 405.572 412.606 413.157 440.437 418.264C437.234 418.067 435.217 417.994 432.529 418.021C407.176 413.691 382.317 407.173 357.907 397.327C330.722 386.374 305.468 371.717 279.279 358.715C255.554 346.951 231.308 337.514 204.947 333.942C177.611 330.245 150.907 336.189 123.749 334.067C92.926 331.682 67.1053 318.178 40.8629 303.073C19.1151 290.552 -4.32651 278.248 -30.3119 281.484C-51.7368 284.153 -70.954 287.823 -92.6557 286.433C-116.381 284.904 -139.447 284.541 -163.172 287.184C-177.986 288.832 -192.63 289.82 -206.575 295.468C-220.362 301.057 -232.89 309.387 -245.596 317.005C-282.87 339.346 -318.418 352.375 -362.566 350.543C-364.504 351.578 -365.486 352.092 -367.45 353.113C-321.489 355.209 -284.36 341.85 -245.649 318.402C-232.798 310.606 -220.059 302.025 -205.975 296.529C-191.292 290.802 -175.258 289.939 -159.698 288.469C-134.464 286.117 -110.14 287.81 -85.0901 290.782C-63.026 293.419 -43.7099 290.341 -21.8236 287.955C2.5603 285.319 24.4333 296.523 44.9356 308.201C70.1961 322.613 95.1798 336.097 124.744 338.661C150.92 340.928 176.622 334.674 202.983 338.239C228.876 341.745 253.069 351.261 276.419 362.623C302.78 375.408 328.363 389.768 355.904 399.917C379.774 408.709 403.914 414.416 428.515 418.054L424.818 417.895C398.865 414.772 373.414 409.275 348.411 400.102C321.39 390.216 296.025 376.693 269.947 364.653C246.815 353.963 222.939 345.047 197.454 342.127C172.76 339.3 148.561 345.739 124.085 343.017C97.0119 340.005 73.9328 327.721 50.6494 314.501C30.9775 303.35 9.88867 292.667 -13.4276 294.427C-37.8116 296.272 -58.5973 298.829 -83.0406 294.611C-108.077 290.295 -132.428 287.995 -157.919 289.972C-174.105 291.224 -191.022 292.061 -206.311 297.939C-220.566 303.416 -233.47 312.221 -246.4 320.188C-286.271 344.75 -324.896 358.016 -372.346 355.67C-374.323 356.692 -375.286 357.206 -377.21 358.24C-328.257 360.83 -288.143 347.505 -247.066 321.915C-233.997 313.776 -221.021 304.78 -206.555 299.277C-193.315 294.229 -178.988 293.386 -164.984 292.153C-134.754 289.484 -106.561 292.852 -77.1489 299.258C-52.4552 304.635 -31.34 303.686 -6.31021 301.709C16.3866 299.923 36.599 310.276 55.8557 320.939C78.4537 333.461 100.67 345.086 126.886 347.735C148.68 349.95 170.177 344.111 192.129 346.167C217.172 348.507 240.838 356.87 263.713 366.887C289.573 378.209 314.708 391.106 341.372 400.55C368.392 410.119 395.887 415.398 424.027 417.849C393.659 416.327 364.174 411.345 335.059 401.374C308.658 392.332 283.655 380.034 257.9 369.378C235.236 359.993 211.768 352.118 187.114 350.332C167.64 348.915 148.673 354.359 129.383 352.527C83.2514 348.157 47.2686 306.764 0.747986 308.741C-13.8626 309.367 -27.1091 312.069 -41.8712 310.356C-52.7188 309.084 -63.2632 306.447 -73.8538 303.601C-103.457 295.692 -132.184 291.356 -162.967 293.57C-178.593 294.69 -194.772 295.672 -209.363 301.762C-222.919 307.416 -235.15 315.812 -247.527 323.622C-289.915 350.358 -331.289 363.69 -381.968 360.863C-383.833 361.931 -384.756 362.465 -386.535 363.565C-334.169 366.603 -291.431 353.205 -247.731 325.342C-236.093 317.915 -224.586 309.927 -211.953 304.253C-195.833 297.004 -178.046 296.002 -160.608 295.066C-129.469 293.399 -100.637 298.869 -71.0793 308.075C-44.4019 316.392 -22.0213 318.112 5.77637 316.695C49.9311 314.441 85.1823 352.197 128.638 357.034C149.998 359.413 170.915 353.027 192.564 355.617C213.297 358.095 233.246 364.732 252.608 372.311C278.343 382.387 303.353 394.157 329.655 402.843C361.242 413.295 393.119 417.935 426.261 418.093C429.497 418.469 432.733 418.818 435.982 419.121C440.815 419.754 445.68 420.312 450.579 420.795C448.009 420.461 445.443 420.103 442.882 419.721C446.19 419.989 449.507 420.222 452.833 420.419C456.128 420.933 459.423 421.419 462.719 421.876C458.65 421.56 454.597 421.199 450.56 420.795C458.951 421.893 467.395 422.803 475.892 423.523C486.437 424.716 497.027 425.652 507.697 426.39C513.299 426.931 516.093 427.155 521.537 427.418C511.941 426.693 502.392 425.815 492.889 424.782L493.719 424.776ZM426.597 418.06H428.614L430.855 418.383C429.438 418.284 428.014 418.172 426.597 418.06ZM436.931 418.772C435.784 418.587 434.637 418.403 433.491 418.205C435.903 418.271 438.308 418.317 440.74 418.343L445.505 419.187C442.636 419.073 439.78 418.934 436.937 418.772H436.931Z" fill="#222222"/>
<path d="M421.524 418.851C358.917 420.307 306.616 397.584 249.281 376.153C230.051 368.963 210.293 362.544 189.824 360.171C169.354 357.799 149.623 363.921 129.404 361.654C87.4902 356.955 52.6343 322.976 10.0547 324.623C-18.6261 325.731 -41.178 322.574 -68.2179 312.82C-98.4276 301.927 -128.051 295.284 -160.435 296.674C-178.17 297.439 -196.135 298.473 -212.446 305.973C-225.165 311.825 -236.724 320.004 -248.448 327.563C-293.157 356.402 -337.199 369.602 -390.844 366.379C-392.511 367.533 -393.315 368.119 -394.844 369.332C-341.022 372.627 -296.333 360.521 -251.322 331.517C-238.332 323.141 -225.62 313.651 -211.464 307.251C-194.54 299.594 -175.738 298.684 -157.377 298.269C-124.024 297.57 -94.3878 306.072 -63.9342 318.639C-37.2766 329.645 -15.1663 333.606 13.5673 332.703C53.9919 331.438 88.9203 361.318 128.607 366.175C147.64 368.508 166.277 362.755 185.566 364.791C206.069 366.946 225.938 373.187 245.274 380.087C301.252 400.042 353.262 423.266 414.064 420.947C416.431 419.877 418.946 419.171 421.524 418.851Z" fill="#222222"/>
<path d="M243.44 385.168C223.986 378.439 204.037 372.192 183.469 369.885C165.016 367.816 147.315 372.996 129.119 370.907C89.6765 366.386 54.735 341.587 14.6925 341.415C-1.05157 341.349 -14.6011 342.147 -30.0553 337.461C-41.2587 334.08 -51.8031 328.894 -62.3871 323.918C-92.7682 309.532 -122.503 299.699 -156.628 299.982C-175.212 300.141 -194.06 301.116 -211.096 309.024C-225.364 315.615 -238.156 325.368 -251.297 333.909C-297.33 363.882 -343.389 375.849 -398.517 372.429C-399.638 373.455 -400.688 374.556 -401.66 375.724C-345.188 379.25 -297.725 367.381 -250.658 336.4C-237.405 327.675 -224.527 317.697 -210.141 310.843C-193.039 302.698 -174.257 301.65 -155.494 301.749C-120.948 301.94 -91.4831 313.15 -61.649 329.428C-35.9931 343.419 -15.2932 350.121 13.9083 350.464C53.8057 350.938 89.9995 371.592 129.436 375.625C146.985 377.418 164.001 372.989 181.742 375.243C202.521 377.879 222.714 384.252 242.472 390.961C295.503 408.972 348.252 433.475 405.482 430.265C405.944 428.133 407.021 426.183 408.579 424.657C349.873 427.616 297.764 403.983 243.44 385.168Z" fill="#222222"/>
<path d="M242.702 397.729C222.437 390.875 201.802 384.219 180.582 381.076C163.309 378.519 146.813 381.946 129.672 380.483C89.5571 377.056 51.5643 360.791 11.1331 360.053C-17.7257 359.512 -37.4569 350.596 -61.6563 335.273C-90.403 317.071 -119.17 304.405 -153.847 303.68C-172.729 303.291 -191.333 304.464 -208.428 312.834C-222.96 319.925 -235.929 330.173 -249.334 339.089C-297.443 371.118 -346.356 382.928 -404.205 379.329C-404.996 380.534 -405.669 381.812 -406.215 383.145C-345.736 386.849 -294.582 374.149 -244.701 340.058C-214.616 319.49 -192.196 304.675 -154.414 305.538C-119.947 306.329 -91.6816 319.734 -64.5429 339.913C-42.2415 356.494 -23.2286 369.701 5.50494 370.083C47.8342 370.643 88.8124 382.934 130.977 385.425C148.112 386.44 164.409 384.391 181.564 387.6C203.378 391.679 224.591 398.803 245.535 405.967C297.012 423.636 351.863 450.517 407.405 448.27C405.85 443.657 405.428 441.68 405.039 438.095C348.798 441.133 294.863 415.371 242.702 397.729Z" fill="#222222"/>
<path d="M-240.23 347.307C-212.01 327.662 -189.393 308.497 -153.304 309.426C-117.387 310.356 -91.58 327.879 -68.4152 353.64C-52.4405 371.434 -37.8957 390.21 -12.1344 391.238C35.243 393.136 82.8905 394.579 130.307 395.192C174.33 395.772 214.663 411.061 255.674 426.061C286.444 437.31 317.009 449.166 348.063 459.618C371.992 467.678 396.495 475.87 421.874 476.977C418.621 471.864 415.638 466.585 412.937 461.161C357.329 461.681 301.305 433.521 249.815 415.371C224.97 406.613 199.795 397.644 173.849 392.76C159.871 390.124 146.216 390.843 132.12 390.355C87.3851 388.813 43.0458 382.031 -1.70862 380.404C-29.2954 379.402 -46.1863 364.31 -65.8977 346.595C-91.4877 323.595 -119.042 308.332 -154.273 307.469C-191.179 306.56 -213.638 323.411 -242.892 343.597C-293.525 378.525 -346.116 391.001 -407.557 387.284C-407.92 388.733 -408.121 390.219 -408.156 391.712C-345.779 395.35 -291.608 383.053 -240.23 347.307Z" fill="#222222"/>
<path d="M128.515 400.161C80.0436 399.719 30.788 399.153 -17.5977 396.457C-44.2224 394.974 -57.8971 374.94 -73.2129 355.703C-91.6656 332.512 -112.603 314.784 -143.327 311.799C-182.868 307.957 -206.402 329.474 -236.506 351.149C-288.569 388.621 -344.224 400.266 -407.945 396.444C-407.78 398.152 -407.505 399.847 -407.122 401.519C-341.918 405.585 -284.418 394.539 -231.88 354.774C-202.995 332.907 -180.14 309.96 -141.198 314.25C-111.7 317.48 -93.2078 336.117 -76.6135 358.873C-61.6404 379.375 -47.9327 398.639 -20.5238 400.016C28.8109 402.5 78.7453 405.183 128.152 405.829C172.439 406.409 214.274 419.161 256.359 432.242C276.519 438.51 296.56 445.153 316.575 451.888C296.876 444.639 277.303 437.185 257.776 430.437C215.546 415.846 173.52 400.57 128.515 400.161Z" fill="#222222"/>
<path d="M-224.855 364.666C-199.378 343.353 -178.684 317.038 -142.345 320.169C-83.9359 325.21 -84.7729 405.644 -25.0388 408.076C26.8529 410.192 78.5337 418.199 130.432 419.2C172.959 420.024 214.524 428.084 255.864 437.877C315.579 452.02 375.029 470.024 430.368 496.827C430.188 495.4 429.915 493.987 429.551 492.596C410.386 484.903 391.042 477.638 371.517 470.802C375.752 472.12 380.003 473.377 384.269 474.572C361.658 467.164 339.139 459.473 316.58 451.888C321.563 453.72 326.556 455.539 331.56 457.345C306.622 449.309 281.527 441.84 256.273 434.938C214.543 423.464 172.708 412.907 129.298 412.208C78.4283 411.384 27.6833 405.519 -23.1738 403.852C-50.0422 402.969 -64.1586 386.058 -78.2024 365.292C-94.2365 341.574 -111.002 320.037 -141.62 316.992C-179.185 313.242 -201.17 337.962 -228.322 359.532C-280.741 401.15 -339.895 411.193 -405.758 406.896C-405.099 409.097 -404.723 410.231 -403.886 412.544C-337.549 417.098 -276.833 408.175 -224.855 364.666Z" fill="#222222"/>
<path d="M128.585 426.667C76.4032 424.967 25.1706 413.928 -27.1033 412.498C-57.4185 411.668 -73.077 394.704 -87.6019 370.123C-101.112 347.268 -114.325 326.034 -143.415 323.786C-178.594 321.078 -197.778 349.218 -221.503 370.195C-272.834 415.582 -335.106 423.253 -401.621 418.482C-400.639 420.901 -400.119 422.133 -399.031 424.644C-329.174 429.916 -264.313 421.751 -212.975 370.979C-191.412 349.66 -173.915 323.444 -139.962 328.222C-113.383 331.958 -102.529 354.807 -90.64 375.869C-76.2996 401.262 -59.0068 416.446 -28.5334 417.223C24.327 418.574 75.5201 432.447 128.216 434.687C233.561 439.175 338.577 448.922 430.709 505.526C430.784 504.068 430.784 502.608 430.709 501.15C339.935 450.807 231.597 430.028 128.585 426.667Z" fill="#222222"/>
<path d="M126.438 442.991C74.0191 439.881 23.63 423.089 -29.0459 422.146C-60.7582 421.579 -79.9622 407.595 -94.6783 380.146C-105.223 360.448 -114.396 337.31 -138.925 332.815C-173.794 326.377 -190.692 356.856 -211.471 378.525C-260.799 429.975 -328.013 436.473 -396.216 431.003L-393.25 437.594C-326.062 443.228 -256.904 438.431 -209.23 385.577C-190.125 364.442 -175.692 332.598 -142.346 337.073C-116.275 340.572 -108.505 366.201 -97.868 386.315C-82.9345 414.567 -61.8127 426.674 -29.7313 427.26C24.3088 428.249 75.2054 448.659 128.909 451.914C167.891 454.274 206.945 449.054 245.999 451.077C313.265 454.564 374.693 475.257 429.623 514.443C429.966 512.63 430.111 511.728 430.328 509.942C374.706 472.838 312.217 453.595 246.012 447.123C206.147 443.228 166.302 445.35 126.438 442.991Z" fill="#222222"/>
<path d="M238.221 454.992C201.672 455.526 165.07 463.632 128.494 460.956C74.5721 457.002 24.1962 433.587 -30.18 432.545C-61.5365 431.952 -85.4723 421.843 -100.604 393.663C-111.148 373.998 -117.33 345.679 -143.295 341.916C-174.882 337.303 -186.837 367.816 -203.405 388.509C-249.537 446.187 -321.371 450.458 -390.226 444.428C-389.013 447.189 -388.407 448.586 -387.22 451.42C-320.422 457.555 -246.571 455.335 -202.495 397.426C-186.857 376.878 -176.299 341.956 -144.501 346.925C-120.275 350.714 -114.937 378.472 -105.526 396.951C-89.8351 427.781 -63.7574 437.277 -30.3975 437.963C24.2555 439.09 74.0054 465.523 128.072 470.202C165.557 473.445 202.832 461.174 240.106 458.953C310.984 454.735 372.34 479.943 427.368 523.577C427.896 521.731 428.139 520.809 428.581 518.964C372.122 476.311 309.198 453.957 238.221 454.992Z" fill="#222222"/>
<path d="M250.654 461.8C215.066 464.192 181.205 478.19 145.789 480.2C103.183 482.625 61.6054 462.406 21.2993 451.67C-1.76654 445.528 -23.4485 445.146 -47.0219 443.037C-70.9379 440.902 -92.0004 431.109 -104.957 410.396C-114.407 395.284 -117.241 375.533 -128.926 361.911C-140.129 348.823 -161.6 347.742 -173.219 360.745C-190.353 379.929 -197.319 405.512 -216.51 423.8C-260.764 465.978 -327.806 464.001 -384.324 458.59C-383.198 461.49 -382.651 462.953 -381.622 465.905C-325.098 471.507 -256.137 474.4 -212.767 430.476C-194.13 411.595 -188.864 385.946 -172.968 365.892C-162.47 352.579 -141.691 354.293 -131.542 367.289C-120.516 381.385 -118.282 401.136 -108.601 416.222C-94.7617 437.778 -71.933 446.695 -47.1339 448.725C-23.1322 450.702 -1.6611 451.453 21.6684 458.366C61.1506 470.064 103.631 493.295 145.901 489.677C180.625 486.691 212.99 469.359 247.8 465.187C316.161 456.995 374.05 489.611 424.419 532.915C425.078 531.037 425.381 530.101 425.981 528.236C375.321 486.296 317.927 457.285 250.654 461.8Z" fill="#222222"/>
<path d="M244.749 468.449C210.763 474.433 180.019 495.239 145.954 499.133C104.126 503.911 60.63 477.702 22.1099 465.128C-1.39093 457.457 -22.8159 456.237 -47.2459 454.583C-72.8162 452.837 -97.668 444.316 -112.206 422.093C-122.151 406.896 -123.95 387.494 -134.29 372.765C-143.371 359.829 -163.439 357.37 -172.902 371.032C-187.526 392.121 -190.986 417.572 -209.083 437.271C-251.135 483.066 -323.16 479.112 -379.184 473.352C-378.281 476.358 -377.866 477.873 -377.108 480.918C-320.88 486.849 -247.063 491.535 -205.761 444.072C-188.014 423.642 -186.379 398.158 -172.949 376.192C-164.381 362.214 -145.236 365.411 -137.018 378.169C-127.621 392.727 -126.263 411.351 -116.918 426.212C-101.681 450.445 -74.2726 458.669 -47.0285 460.389C-22.2623 461.958 -0.975739 463.526 22.6437 471.949C60.2807 485.36 104.541 514.357 145.987 508.544C179.466 503.852 208.594 479.481 241.711 471.771C311.567 455.506 371.901 497.361 421.071 542.405C421.776 540.5 422.125 539.558 422.811 537.667C373.008 493.387 313.946 456.27 244.749 468.449Z" fill="#222222"/>
<path d="M239.29 474.591C220.271 480.042 202.985 489.677 185.909 499.424C173.183 506.673 159.476 515.734 144.694 518.021C104.137 524.282 59.0863 492.471 22.8333 478.546C-0.779633 469.484 -21.7433 467.573 -46.7335 466.195C-74.7421 464.647 -103.944 457.121 -120.189 432.42C-130.021 417.467 -131.076 399.311 -139.564 383.995C-146.405 371.645 -164.607 366.386 -172.752 380.351C-178.387 390.012 -179.685 402.797 -183.139 413.342C-187.633 427.049 -193.749 440.283 -203.035 451.433C-243.466 500.201 -319.491 494.573 -375.469 488.576C-374.915 491.66 -374.691 493.189 -374.362 496.333C-318.278 502.442 -240.368 508.854 -200.656 458.768C-191.251 446.906 -185.465 433.02 -181.498 418.508C-178.638 408.03 -177.939 395.779 -173.286 385.867C-166.505 371.447 -149.034 376.278 -142.714 388.503C-134.384 404.596 -133.923 423.148 -123.444 438.589C-106.362 463.744 -74.9266 470.677 -46.3381 472.015C-21.1963 473.194 -0.410583 475.409 23.0771 485.103C43.3421 493.466 62.6187 504.004 82.7321 512.716C101 520.624 125.299 531.274 145.603 526.859C159.739 523.788 172.379 514.12 184.136 506.225C199.782 495.713 215.592 485.136 233.379 478.546C304.468 452.185 369.474 505.506 417.504 551.928C418.203 550.017 418.558 549.061 419.264 547.157C371.214 501.849 309.259 454.531 239.29 474.591Z" fill="#222222"/>
<path d="M235.771 479.27C230.716 480.83 225.879 483.027 221.378 485.808C207.427 493.268 194.892 503.081 182.417 512.828C171.127 521.639 158.79 532.632 144.437 535.841C124.376 540.316 100.177 528.882 82.383 520.631C62.487 511.405 43.5005 500.379 23.4134 491.561C-0.0413513 481.261 -20.4909 478.842 -45.8437 477.788C-75.144 476.568 -108.55 470.242 -126.548 444.606C-137.751 428.644 -137.481 409.763 -145.66 392.866C-151.591 380.568 -168.271 376.607 -173.728 391.251C-183.303 416.953 -180.74 442.754 -198.369 466.077C-237.251 517.481 -318.008 510.33 -373.854 504.175C-373.771 506.813 -373.837 509.453 -374.052 512.083C-317.026 518.403 -232.921 526.022 -194.975 471.224C-186.348 458.762 -181.715 444.131 -178.98 429.362C-176.963 418.442 -177.365 406.244 -173.866 395.666C-168.719 380.094 -152.626 386.262 -147.854 398.77C-141.363 415.806 -141.356 433.699 -130.568 449.298C-111.885 476.318 -75.8689 482.46 -45.3494 483.567C-19.8978 484.49 0.123413 486.974 23.4134 497.769C43.1841 506.93 61.8346 518.37 81.4077 528.019C98.8586 536.639 124.159 549.496 144.2 544.356C158.698 540.652 170.692 528.157 181.441 518.509C190.345 510.515 199.321 502.435 209.002 495.384C206.419 497.829 203.971 500.412 201.667 503.121C193.574 510.324 186.028 518.206 178.462 525.903C168.742 535.789 157.835 548.481 143.989 552.409C124.442 557.965 99.0827 544.626 82.205 535.933C62.8956 525.982 44.601 514.146 25.1005 504.544C-0.245667 492.023 -21.1829 490.349 -49.0927 488.991C-79.052 487.541 -114.567 481.386 -133.382 455.328C-144.928 439.34 -144.665 421.138 -150.372 403.186C-154.286 390.849 -169.325 384.114 -174.018 399.713C-177.313 410.738 -176.304 423.517 -178.031 434.872C-180.404 450.445 -184.924 465.635 -193.848 478.796C-231.524 534.47 -318.028 526.318 -375.04 519.972C-375.484 522.66 -376.098 525.317 -376.879 527.926C-319.181 534.279 -230.826 542.807 -192.866 486.223C-183.639 472.496 -179.257 456.396 -177.201 440.157C-175.692 428.229 -176.996 415.226 -174.057 403.562C-170.03 387.56 -155.769 395.304 -152.678 407.311C-147.979 425.527 -148.546 443.472 -137.171 459.618C-116.933 488.339 -76.5938 493.644 -44.2488 494.626C-18.1646 495.417 1.63257 498.297 25.0675 510.278C44.8844 520.413 63.3438 532.988 82.9695 543.479C99.2804 552.198 124.692 565.979 143.798 560.067C157.815 555.724 168.392 541.443 177.56 530.899C183.655 523.88 189.732 516.71 196.197 509.942C194.641 512.031 193.145 514.159 191.689 516.327C186.7 522.364 181.962 528.605 177.19 534.78C168.254 546.326 157.664 563.118 142.743 567.494C123.355 573.188 97.7515 558.551 81.5263 549.476C62.3025 538.715 44.2451 525.969 24.7512 515.682C-0.0940857 502.574 -20.1548 501.018 -47.9723 499.865C-79.6451 498.547 -119.345 493.235 -139.676 465.596C-151.775 449.12 -151.163 430.727 -154.682 411.674C-157.015 399.067 -170.241 391.04 -174.11 407.628C-175.428 413.374 -175.764 419.444 -175.869 425.56C-175.434 420.848 -174.828 416.096 -173.892 411.305C-170.703 394.711 -158.155 401.42 -156.534 414.508C-154.115 434.081 -155.216 452.817 -143.076 469.754C-122.291 498.705 -80.146 503.76 -47.4846 505.084C-19.8649 506.198 -0.113861 507.549 24.4546 520.802C44.6933 531.722 63.2646 545.41 83.2397 556.772C99.0563 565.781 124.508 580.279 143.369 573.748C157.565 568.832 167.272 551.895 175.279 540.329C179.431 534.325 183.576 528.216 187.913 522.259C186.893 523.902 185.892 525.556 184.908 527.221C186.957 524.031 189.066 520.868 191.247 517.771C194.721 513.158 198.358 508.755 202.247 504.557C200.045 506.811 197.923 509.17 195.847 511.517C197.561 509.285 199.336 507.108 201.172 504.986C203.565 502.653 206.016 500.372 208.553 498.217C206.357 500.256 204.254 502.369 202.247 504.557C206.597 500.039 211.302 495.876 216.317 492.108L216.475 491.99L216.996 491.614C217.978 490.955 218.973 490.243 219.974 489.578C226.066 485.546 232.654 482.32 239.574 479.982C244.06 478.553 248.675 477.569 253.354 477.043C251.476 477.195 249.604 477.432 247.733 477.742C249.226 477.416 250.718 477.14 252.207 476.911C253.525 476.825 254.843 476.786 256.161 476.779C255.212 476.845 254.27 476.938 253.321 477.043C254.929 476.911 256.539 476.836 258.152 476.819C316.337 480.43 379.353 556.739 408.799 590C408.799 588.128 408.838 587.186 408.983 585.295C378.094 550.946 316.792 478.717 259.002 476.753C316.739 476.634 377.145 545.213 409.497 580.569C409.774 578.671 409.939 577.716 410.327 575.811C375.649 538.583 315.322 472.812 256.741 476.68C255.779 476.641 254.824 476.615 253.861 476.615C313.833 468.647 374.595 532.25 411.408 571.04C411.889 569.129 412.153 568.173 412.726 566.262C373.587 525.817 312.086 464.113 250.065 476.727C248.332 476.825 246.612 477.003 244.892 477.247C309.608 459.328 372.42 519.181 414.209 561.471C414.829 559.553 415.151 558.597 415.817 556.68C370.094 511.438 304.771 453.535 235.771 479.27ZM247.054 477.392C244.598 477.985 242.137 478.702 239.673 479.541C231.877 481.905 224.538 485.57 217.964 490.382C214.465 492.701 211.111 495.206 207.855 497.848C209.832 495.937 211.868 494.105 214.01 492.372C215.388 491.252 216.765 490.21 218.156 489.222C221.719 486.998 225.399 484.967 229.181 483.139C232.278 481.657 235.45 480.337 238.684 479.185C241.431 478.402 244.227 477.803 247.054 477.392Z" fill="#222222"/>
<path d="M143.993 579.324C124.69 586.843 97.993 571.139 81.9391 561.708C62.7812 550.452 44.9479 537.06 25.5199 526.259C0.753662 512.505 -19.1159 511.101 -47.1114 510.014C-80.7217 508.696 -125.206 503.826 -146.374 473.57C-157.933 457.028 -157.32 438.213 -157.953 419.022C-158.105 414.271 -157.419 406.046 -162.981 403.904C-170.152 401.136 -172.557 409.341 -173.486 414.449C-178.982 444.566 -172.531 473.102 -188.644 501.44C-226.07 567.151 -325.721 558.353 -388.394 551.823C-390.276 554.58 -392.323 557.221 -394.523 559.731C-330.394 566.209 -228.904 574.704 -189.613 508.505C-180.254 492.734 -176.274 474.769 -174.752 456.672C-173.631 443.433 -175.549 428.954 -172.596 415.958C-171.568 411.43 -168.728 402.988 -162.217 406.072C-157.478 408.346 -158.922 416.94 -159.093 421.012C-159.792 440.605 -161.07 460 -149.531 477.135C-129.015 507.615 -84.4913 512.966 -51.1182 514.64C-20.9678 516.156 -0.136017 516.301 26.4293 531.399C46.0683 542.563 64.0399 556.39 83.5076 567.83C98.8958 576.872 124.697 591.733 143.275 584.767C157.819 579.31 166.275 560.067 173.359 547.552C177.162 540.837 180.931 533.937 184.945 527.182C181.057 533.212 177.34 539.341 173.59 545.324C166.301 556.877 157.589 574.012 143.993 579.324Z" fill="#222222"/>
</svg>
