<svg viewBox="0 0 24 24" fill="none" xmlns="http://www.w3.org/2000/svg">
<path fill-rule="evenodd" clip-rule="evenodd" d="M14.4177 11.9334C14.338 10.3199 13.1892 9.34981 11.8016 9.34981H11.7494C10.1482 9.34981 9.26011 10.6622 9.26011 12.1529C9.26011 13.8224 10.3346 14.8767 11.7431 14.8767C13.3138 14.8767 14.3467 13.6776 14.4213 12.2594L14.4177 11.9334ZM11.7573 7.90644C12.8271 7.90644 13.833 8.39926 14.5717 9.1709V9.17397C14.5717 8.8033 14.8108 8.52409 15.1431 8.52409L15.227 8.52352C15.7467 8.52352 15.8533 9.03609 15.8533 9.19832L15.8559 14.9595C15.8192 15.3363 16.2293 15.531 16.4567 15.2894C17.3443 14.3386 18.406 10.4022 15.905 8.12121C13.5739 5.99479 10.4464 6.34532 8.78305 7.54018C7.0148 8.81135 5.88332 11.6243 6.98242 14.2663C8.18051 17.1488 11.609 18.0079 13.6466 17.151C14.6784 16.7168 15.1551 18.1707 14.0834 18.6455C12.4642 19.3648 7.95752 19.2923 5.85222 15.4913C4.42986 12.9246 4.50566 8.40846 8.27802 6.06881C11.164 4.27912 14.9687 4.77482 17.2629 7.27229C19.6611 9.8829 19.5213 14.7714 17.182 16.6731C16.1223 17.5362 14.5481 16.6957 14.5582 15.4374L14.5472 15.0259C13.8092 15.7893 12.8271 16.2345 11.7573 16.2345C9.64316 16.2345 7.78311 14.2957 7.78311 12.0929C7.78311 9.86756 9.64316 7.90644 11.7573 7.90644Z" fill="white"/>
</svg>
