<svg width="1440" height="900" viewBox="0 0 1440 900" fill="none" xmlns="http://www.w3.org/2000/svg" style="background:#090909">
  <path
    d="M-423.602 410.907C-368.406 383.466 -318.5 352.375 -270.135 322.26C-252.005 310.96 -233.093 299.199 -214.533 288.028C-187.358 271.668 -158.228 254.38 -127.108 238.668C-96.0926 223.039 -64.4211 207.948 -32.3584 193.521C-8.82097 182.875 15.2462 172.293 38.6576 161.973C80.4335 143.565 123.62 124.534 165.414 104.668C201.192 87.6637 241.746 68.3923 275.222 46.3662C279.335 43.6485 283.46 40.9093 287.425 38.2719C309.424 23.6326 330.206 9.80271 357.768 -3.74356C392.751 -20.9404 428.364 -35.5699 469.858 -49.7924C512.235 -64.3152 545.983 -76.8703 583.127 -94.5389C628.998 -116.357 677.874 -136.738 732.509 -156.831C764.23 -168.454 795.769 -179.442 826.999 -189.752C834.39 -192.213 841.88 -194.577 848.951 -196.834C871.229 -203.921 894.257 -211.244 917.905 -221.751C948.204 -235.212 974.552 -251.122 1000.02 -266.533C1020.8 -279.055 1042.26 -292.038 1065.7 -303.58L1064.87 -304.384C1040.97 -292.612 1019.29 -279.522 998.346 -266.876C973.138 -251.658 947.099 -235.93 917.5 -222.786C894.463 -212.552 871.717 -205.342 849.758 -198.329C842.555 -196.04 835.081 -193.66 827.685 -191.205C796.34 -180.855 764.688 -169.828 732.853 -158.165C677.86 -137.939 628.637 -117.413 582.425 -95.4448C545.809 -78.0334 512.441 -65.6231 470.434 -51.2236C428.427 -36.8242 392.401 -22.0177 356.933 -4.58503C328.687 9.2936 307.652 23.2951 285.378 38.1167C281.457 40.7325 277.332 43.4717 273.213 46.1841C240.327 67.8188 200.153 86.9135 164.711 103.762C123.093 123.543 80.0172 142.552 38.3129 160.901C14.9675 171.189 -9.19879 181.835 -32.7969 192.487C-65.0238 206.989 -96.8573 222.159 -128.032 237.87C-159.499 253.759 -188.838 271.164 -216.2 287.632C-234.821 298.84 -253.683 310.585 -271.917 321.944C-319.985 351.963 -369.715 382.935 -424.403 410.13L-423.602 410.907Z"
    fill="#363636"/>
  <path
    d="M-413.478 522.987C-359.704 495.733 -313.972 464.46 -269.732 434.213C-253.089 422.834 -235.878 411.073 -218.915 400.005C-193.513 383.441 -168.414 367.386 -140.525 352.916C-106.696 335.376 -70.9959 318.4 -36.4529 301.972L-31.3891 299.562C-0.885065 285.06 30.2641 270.414 60.3719 256.266C111.799 232.099 164.989 207.105 216.755 181.917C222.243 179.244 227.775 176.55 233.075 173.92C251.985 164.613 269.865 155.817 289.351 147.487C302.641 141.812 315.98 136.393 329.295 131.259C357.073 120.536 380.275 111.478 404.902 100.685C435.657 87.1981 463.922 70.7147 496.539 47.2414L496.957 46.9408C522.52 28.54 548.963 9.51668 583.252 -6.90111C629.532 -29.0616 680.353 -41.766 725.192 -52.9843C731.559 -54.5777 737.563 -56.0745 743.573 -57.6305C749.582 -59.1863 755.773 -60.7262 762.213 -62.3464C820.041 -76.8911 885.709 -93.4638 947.462 -126.693C978.336 -143.342 1005.85 -161.034 1032.44 -178.151C1063.17 -197.957 1094.96 -218.413 1131.87 -237.107L1130.87 -237.821C1093.43 -218.865 1061.44 -198.258 1030.47 -178.323C1004.05 -161.308 976.752 -143.723 946.203 -127.273C885.772 -94.7202 820.876 -78.3943 763.649 -64.0052C757.209 -62.385 751.117 -60.8451 744.986 -59.2785C738.856 -57.7119 733.089 -56.2741 726.611 -54.627C681.292 -43.2961 629.947 -30.4576 582.583 -7.77641C547.384 9.07607 520.533 28.3786 494.728 46.9619L494.31 47.2625C462.244 70.3385 434.569 86.4945 404.585 99.6379C380.19 110.334 357.13 119.339 329.513 129.992C316.063 135.191 302.592 140.675 289.172 146.414C269.372 154.888 251.36 163.749 232.29 173.125C226.956 175.723 221.507 178.433 216.019 181.106C164.358 206.267 111.195 231.223 59.7904 255.38C29.6606 269.538 -1.49412 284.18 -32.0147 298.697L-37.0785 301.107C-71.7152 317.573 -107.52 334.608 -141.525 352.234C-169.871 366.935 -195.208 383.145 -220.829 399.849C-237.892 410.982 -255.141 422.769 -271.823 434.175C-315.875 464.251 -361.338 495.335 -414.413 522.241L-413.478 522.987Z"
    fill="#363636"/>
  <path
    d="M-410.544 533.966C-357.024 506.896 -311.669 475.615 -267.851 445.382C-250.907 433.693 -234.939 422.666 -218.402 411.805C-193.497 395.434 -166.718 378.181 -136.851 362.84C-106.984 347.499 -74.7989 332.385 -44.0082 317.943L-26.1521 309.559C3.35442 295.67 33.462 281.626 62.5609 268.05C115.413 243.39 170.078 217.887 223.408 192.276L236.998 185.729C269.172 170.217 299.553 155.57 332.588 142.669L333.084 142.475C359.057 132.33 383.526 122.781 409.302 111.059C443.131 95.677 471.686 78.6403 501.597 55.9655C525.934 37.5276 550.62 19.5904 584.738 3.00868C631.08 -19.5178 681.385 -31.7437 725.944 -42.6057C732.053 -44.0984 737.799 -45.4944 743.49 -46.912L759.326 -50.8209C818.177 -65.2914 884.875 -81.6895 947.675 -115.475C979.635 -132.676 1008.08 -151.01 1035.62 -168.752C1067.61 -189.37 1100.69 -210.693 1139.17 -230.087L1138.18 -230.819C1099.19 -211.156 1065.88 -189.694 1033.66 -168.92C1006.31 -151.291 977.907 -133.005 946.432 -116.073C884.888 -82.9647 818.885 -66.7277 760.641 -52.4076C755.171 -51.0652 750.065 -49.8195 744.799 -48.504C739.158 -47.1026 733.412 -45.7065 727.325 -44.2246C705.814 -38.9788 681.459 -33.0565 657.046 -25.676C628.994 -17.1998 605.027 -8.06505 583.843 2.23341C548.843 19.2452 523.777 37.4566 499.087 56.1632C469.689 78.4348 441.805 95.0951 408.677 110.16C383.236 121.758 358.851 131.227 333.081 141.313L332.585 141.506C299.115 154.596 268.524 169.329 236.108 184.959L222.535 191.49C169.365 217.031 114.655 242.556 61.8252 267.204C32.7427 280.765 2.59662 294.836 -26.932 308.735L-44.7881 317.12C-75.7992 331.669 -107.841 346.697 -138.138 362.264C-168.435 377.831 -195.544 395.277 -220.664 411.793C-237.256 422.697 -254.023 434.267 -270.273 445.472C-313.529 475.383 -358.681 506.508 -411.544 533.25L-410.544 533.966Z"
    fill="#363636"/>
  <path
    d="M-406.783 543.936C-371.36 526.244 -340.793 506.501 -312.528 487.8C-297.441 477.818 -282.458 467.669 -267.966 457.848C-251.11 446.398 -233.632 434.588 -215.966 422.994C-191.178 406.739 -164.482 389.602 -134.72 374.549C-106.065 360.06 -75.721 345.96 -46.402 332.343C-38.918 328.871 -31.1914 325.282 -23.6578 321.762C5.76567 308.021 35.7184 294.119 64.6902 280.68C118.17 255.864 173.463 230.204 227.508 204.523C236.409 200.304 245.254 196.032 254.098 191.76C280.964 178.781 308.738 165.368 336.981 153.956L337.45 153.768C363.466 143.248 388.038 133.319 413.724 121.158C450.697 103.655 479.098 86.5681 505.862 65.7309C529.189 47.5709 553.064 29.8469 588.609 12.6611C635.49 -10.0117 685.381 -21.9621 729.383 -32.4952C735.52 -33.9608 741.332 -35.3567 747.099 -36.7633C750.849 -37.6867 754.637 -38.6048 758.474 -39.5389C818.659 -54.1902 886.895 -70.7957 951.93 -105.972C983.663 -123.133 1012.23 -141.446 1039.84 -159.141C1073.03 -180.417 1107.36 -202.423 1147.01 -222.286L1146.18 -223.088C1105.88 -202.902 1071.31 -180.74 1037.89 -159.325C1010.43 -141.716 982.04 -123.521 950.649 -106.543C886.997 -72.1136 819.456 -55.6691 759.789 -41.1252C755.974 -40.2017 752.169 -39.2676 748.414 -38.3496C742.674 -36.9483 736.884 -35.5631 730.725 -34.0868C686.221 -23.4302 635.768 -11.3509 587.735 11.8753C551.243 29.5233 526.949 47.5483 503.253 65.9932C477.029 86.4218 449.157 103.186 412.944 120.334C387.566 132.345 363.165 142.183 337.353 152.644L336.863 152.843C308.201 164.394 280.272 177.915 253.225 190.974C244.578 195.149 235.535 199.518 226.795 203.667C172.771 229.306 117.412 254.997 64.0867 279.77C35.0929 293.221 5.13454 307.117 -24.2834 320.863C-31.817 324.383 -39.5436 327.973 -47.0056 331.433C-76.4348 345.104 -106.872 359.242 -135.764 373.855C-166.028 389.16 -192.983 406.463 -218.03 422.853C-235.823 434.517 -253.257 446.338 -270.151 457.782C-284.621 467.592 -299.609 477.736 -314.636 487.68C-342.686 506.204 -372.917 525.791 -407.767 543.171L-406.783 543.936Z"
    fill="#363636"/>
  <path
    d="M-263.029 470.281C-245.947 458.96 -229.834 448.27 -213.28 437.881C-189.643 423.032 -160.96 405.695 -127.391 389.596C-108.5 380.542 -89.4654 371.144 -71.0429 362.052C-54.6421 353.952 -37.6464 345.562 -20.8706 337.473C7.0395 324.006 35.5119 310.379 63.0476 297.191C118.103 270.831 175.042 243.571 230.48 216.236L239.405 211.83C273.832 194.83 306.369 178.758 341.91 164.091C366.536 153.921 391.999 143.408 417.976 131.276C453.562 114.663 481.398 98.173 508.253 77.8132C532.119 59.7209 556.777 41.0176 592.037 23.9271C638.722 1.29345 689.528 -11.0594 734.346 -21.9647C741.143 -23.6214 747.577 -25.1815 753.916 -26.7685L763.613 -29.1758C794.302 -36.8052 826.016 -44.6919 858.574 -55.1623C895.628 -67.0802 928.061 -80.622 957.675 -96.5437C989.624 -113.698 1018.99 -132.07 1047.3 -149.771C1080.98 -170.833 1115.8 -192.614 1155.23 -212.492L1154.25 -213.221C1114.34 -193.096 1079.32 -171.192 1045.44 -150.007C1017.27 -132.391 988.139 -114.175 956.416 -97.1226C927.463 -81.5547 895.697 -68.297 859.248 -56.5614C826.95 -46.1607 795.341 -38.3008 764.9 -30.784L755.181 -28.366C748.885 -26.8004 742.458 -25.2349 735.66 -23.5782C690.334 -12.555 638.95 -0.0573787 591.135 23.1177C554.928 40.6693 529.918 59.6407 505.722 77.9902C479.39 97.9587 452.11 114.121 417.262 130.392C391.549 142.395 366.207 152.865 341.676 162.997C305.743 177.831 273.024 193.983 238.399 211.079L229.496 215.475C174.107 242.794 117.212 270.033 62.1794 296.382C34.6382 309.564 6.17132 323.197 -21.7664 336.669C-38.6083 344.79 -55.5985 353.186 -72.0488 361.302C-90.4273 370.372 -109.439 379.759 -128.259 388.787C-162.34 405.127 -191.348 422.662 -215.25 437.672C-231.881 448.115 -248.055 458.842 -265.175 470.19C-308.023 498.597 -352.324 527.968 -403.364 552.06L-402.561 552.934C-350.806 528.477 -306.168 498.886 -263.029 470.281Z"
    fill="#363636"/>
  <path
    d="M-260.234 482.476C-242.957 471.439 -226.621 460.994 -209.971 450.917C-177.549 431.348 -150.759 416.973 -123.125 404.301C-100.69 394.02 -78.0382 382.45 -56.1352 371.275C-43.5374 364.85 -30.5321 358.211 -17.873 351.972C8.41422 339.025 35.0046 326.018 60.8241 313.385C115.514 286.625 172.07 258.952 227.115 231.196C266.346 211.423 302.104 193.662 342.479 176.487L349.672 173.434C373.376 163.354 397.912 152.927 421.944 141.857C456.973 125.721 485.444 109.075 514.231 87.8906L514.76 87.5066C539.531 69.2772 565.155 50.4343 599.847 34.0696C645.828 12.378 696.083 -0.167811 740.42 -11.2376C747.655 -13.0398 754.493 -14.7457 761.21 -16.4728C793.181 -24.654 829.434 -33.9421 866.549 -45.7768C900.795 -56.7086 930.596 -69.3029 963.206 -86.6189C995.816 -103.935 1025.44 -121.956 1054.38 -139.551C1088.35 -160.186 1123.39 -181.499 1162.31 -201.122L1161.31 -201.83C1122.07 -182.009 1086.75 -160.579 1052.62 -139.842C1023.8 -122.322 993.968 -104.215 961.969 -87.2035C929.97 -70.1917 900.879 -57.9337 867.334 -47.221C830.383 -35.4183 794.252 -26.205 762.447 -17.992C755.746 -16.2808 748.935 -14.5803 741.728 -12.7515C697.005 -1.60674 646.133 11.1101 599.084 33.3034C563.527 50.0791 537.463 69.2313 512.328 87.7168L511.806 88.1061C483.518 108.912 455.609 125.238 421.296 141.043C397.396 152.049 372.976 162.428 349.36 172.465L342.173 175.524C301.439 192.864 263.953 211.479 225.982 230.617C171.059 258.298 114.569 285.939 59.8901 312.71C34.0706 325.343 7.3756 338.408 -18.8236 351.313C-31.5763 357.589 -44.6256 364.249 -57.2399 370.691C-79.0328 381.812 -101.558 393.312 -123.767 403.492C-151.831 416.356 -178.979 430.929 -211.774 450.711C-228.541 460.837 -244.943 471.314 -262.28 482.388C-304.907 509.631 -348.966 537.792 -398.75 560.126L-398.256 561.079C-347.597 538.313 -303.175 509.928 -260.234 482.476Z"
    fill="#363636"/>
  <path
    d="M-256.713 493.29C-238.915 482.33 -222.178 471.938 -205.071 461.994C-173.629 443.664 -146.36 429.725 -116.767 416.642C-106.41 412.078 -96.2144 406.79 -86.3658 401.678C-82.3713 399.61 -78.2503 397.472 -74.2446 395.446C-52.4005 384.424 -30.5614 373.524 -12.0787 364.321C10.7123 352.969 33.9272 341.453 56.3884 330.325C112.051 302.699 169.607 274.161 225.564 245.648L235.832 240.397C257.296 229.424 277.521 219.071 299.782 208.919C314.333 202.286 329.027 195.726 343.722 189.325L358.769 182.754C380.822 173.13 403.602 163.189 425.923 153.032C460.22 137.42 489.936 120.445 519.483 99.585L522.299 97.5933C547.371 79.8903 573.295 61.5782 606.665 45.9364C652.104 24.6438 702.241 11.6771 746.465 0.244687C753.602 -1.60917 760.387 -3.35661 767.034 -5.109C798.738 -13.4978 834.678 -22.9998 871.21 -34.7788C904.592 -45.5474 934.43 -58.1135 967.92 -75.5666C1000.87 -92.7175 1031.78 -110.914 1061.7 -128.523C1095.67 -148.517 1130.76 -169.178 1168.83 -188.273L1167.82 -188.979C1129.44 -169.682 1094.13 -148.936 1060.02 -128.857C1030.25 -111.333 999.436 -93.1947 966.744 -76.1816C934.051 -59.1686 904.764 -46.8044 871.943 -36.1955C835.659 -24.4963 799.852 -15.0262 768.274 -6.67465C761.632 -4.917 754.881 -3.16964 747.738 -1.32109C703.069 10.2233 652.407 23.3231 605.951 45.0986C571.689 61.1543 545.419 79.7048 519.994 97.6409L517.179 99.6326C487.742 120.408 459.417 136.592 425.346 152.104C403.113 162.218 380.355 172.149 358.374 181.746L343.305 188.328C328.649 194.734 313.866 201.336 299.189 208.007C276.769 218.228 256.29 228.687 234.732 239.729L224.487 244.969C168.607 273.493 111.073 302.02 55.4155 329.588C32.9599 340.722 9.62933 352.286 -13.0737 363.595C-31.5508 372.803 -53.4174 383.709 -75.3 394.757C-79.3497 396.804 -83.4927 398.952 -87.5092 401.031C-97.0836 406.131 -107.036 411.035 -117.201 415.661C-147.201 428.893 -174.678 443.011 -206.654 461.591C-223.861 471.599 -240.685 482.002 -258.494 493.014C-301.031 519.311 -344.922 546.466 -393.839 567.508L-393.505 568.521C-343.91 547.208 -299.569 519.788 -256.713 493.29Z"
    fill="#363636"/>
  <path
    d="M-252.708 502.575C-234.481 491.629 -217.243 481.282 -199.607 471.372C-168.588 453.918 -140.874 440.22 -109.765 426.967C-99.0963 422.425 -88.564 416.975 -78.378 411.699C-74.4366 409.663 -70.7151 407.732 -66.9494 405.843C-46.1143 395.351 -25.4659 385.027 -6.32364 375.471C10.823 366.91 28.2611 358.217 45.1384 349.808C103.703 320.619 164.126 290.493 222.957 260.431L226.525 258.606C250.405 246.39 272.96 234.863 297.879 223.498C313.814 216.231 329.221 209.279 343.991 202.633C356.39 197.066 369.021 191.435 381.234 185.973C396.993 178.947 413.44 171.6 429.529 164.353C463.912 148.874 494.196 132.07 524.777 111.49L529.781 108.114C555.275 90.9269 581.643 73.157 613.989 58.1039C659.031 37.1382 708.955 23.6909 753.024 11.8227C759.942 9.96289 766.49 8.19334 772.945 6.42934C805.853 -2.60704 839.873 -11.9401 875.601 -23.6291C908.127 -34.2718 937.884 -46.7671 971.967 -64.0874C1005.63 -81.1816 1037.59 -99.3391 1068.48 -116.887C1102.18 -136.033 1137 -155.809 1174 -174.196L1172.99 -174.891C1135.71 -156.363 1100.75 -136.502 1066.92 -117.288C1036.12 -99.7874 1004.25 -81.6929 970.857 -64.7251C937.461 -47.7573 908.039 -35.3834 876.129 -24.9415C840.825 -13.416 806.866 -4.08835 774.035 4.92682C767.591 6.70117 761.147 8.41294 754.169 10.3095C709.665 22.2996 659.246 35.874 613.247 57.2821C579.949 72.7826 553.39 90.7151 527.583 108.107L522.556 111.494C492.459 131.748 462.703 148.268 428.925 163.473C412.857 170.709 396.499 178.015 380.657 185.088C368.433 190.54 355.912 196.149 343.386 201.753C328.715 208.337 313.165 215.373 297.209 222.65C272.064 234.114 249.36 245.72 225.305 258.021L221.759 259.836C162.983 289.887 102.555 320.039 44.0446 349.155C27.1728 357.569 9.70716 366.267 -7.43391 374.834C-26.6641 384.432 -47.3126 394.756 -68.1752 405.253C-72.0014 407.179 -75.9152 409.209 -79.7247 411.182C-89.7018 416.343 -100.02 421.682 -110.342 426.082C-141.908 439.529 -169.973 453.396 -201.382 471.077C-219.052 481.018 -236.24 491.349 -254.643 502.38C-297.18 527.914 -341.046 554.257 -389.156 574.243L-388.937 575.291C-339.848 554.884 -295.569 528.304 -252.708 502.575Z"
    fill="#363636"/>
  <path
    d="M1176.51 -164.555C1140.17 -146.657 1105.61 -127.537 1072.17 -109.044C1040.58 -91.575 1007.94 -73.5156 973.928 -56.5713C939.917 -39.6271 910.768 -27.431 879.444 -17.0389C844.607 -5.49537 810.955 3.99878 778.414 13.1663C772.188 14.9166 765.918 16.6567 759.269 18.5076C714.903 30.8309 664.602 44.8047 618.893 65.98C586.332 81.0598 559.32 98.6393 533.213 115.64L526.658 119.895C495.924 139.853 465.688 156.26 431.537 171.529C401.941 184.762 372.258 198.192 343.273 211.375L317.503 223.129L295.414 233.209C269.731 244.921 246.835 256.473 219.577 270.366C155.18 303.175 89.1584 336.05 25.2353 367.878L-3.2654 382.068C-25.333 393.062 -43.7475 402.232 -62.832 411.768C-66.4852 413.593 -70.2754 415.537 -73.9119 417.408C-84.0632 422.614 -94.5441 428.007 -104.904 432.309C-137.351 445.826 -165.799 459.57 -197.148 476.857C-215.151 486.78 -232.783 497.172 -251.447 508.148C-293.903 533.18 -337.809 559.058 -385.532 578.517L-385.383 579.581C-336.869 559.808 -292.535 533.68 -249.705 508.439C-231.118 497.484 -213.574 487.134 -195.692 477.283C-167.258 461.432 -136.339 446.5 -104.673 433.326C-93.8404 428.815 -83.1343 423.322 -72.7743 418.002C-68.984 416.058 -65.386 414.213 -61.7987 412.42C-42.7142 402.884 -24.3217 393.724 -2.25412 382.729L26.2466 368.54C90.2137 336.691 156.345 303.764 220.699 270.976C247.808 257.161 270.578 245.677 296.029 234.059L318.14 223.969L343.823 212.257C372.807 199.043 402.419 185.67 431.993 172.448C466.711 156.932 497.424 140.259 528.631 119.999L535.179 115.738C561.001 98.9355 587.701 81.5594 619.503 66.8251C664.328 46.0631 714.117 32.2317 758.054 20.0347C764.709 18.189 771.001 16.4384 777.248 14.6776C809.883 5.47338 843.552 -4.00529 878.719 -15.6747C910.609 -26.1888 940.374 -38.6778 974.851 -55.8676C1009.33 -73.0575 1041.85 -91.049 1073.54 -108.576C1106.87 -127.011 1141.29 -146.047 1177.37 -163.82L1176.51 -164.555Z"
    fill="#363636"/>
  <path
    d="M1180.59 -148.655C1145.92 -131.848 1112.35 -114.014 1079.88 -96.7748C1046.96 -79.2925 1012.91 -61.2158 977.84 -44.263C943.382 -27.6002 914.383 -15.5601 883.761 -5.24611C849.986 6.17188 816.745 15.9497 784.609 25.4288C778.868 27.1177 773.115 28.7965 766.962 30.5955C722.776 43.4515 672.706 58.018 627.166 78.9731C595.354 93.6131 567.899 110.56 541.333 126.951L532.493 132.409C501.03 151.746 470.053 168.001 434.927 183.537C402.892 197.73 371.635 212.208 342.36 225.82C322.727 234.952 306.756 242.318 292.101 249.002C266.173 260.919 240.663 273.261 215.754 285.94C154.007 317.057 88.3121 349.767 2.72342 392.009C-16.9438 401.716 -36.3258 411.259 -54.9232 420.393C-58.3639 422.085 -61.9087 423.865 -65.3217 425.583C-75.6705 430.787 -86.387 436.172 -96.9288 440.44C-129.494 453.563 -161.461 468.567 -190.988 484.585C-209.514 494.544 -227.625 504.974 -246.794 516.019C-289.218 540.458 -333.09 565.733 -380.436 584.642L-380.331 585.712C-332.15 566.47 -287.91 540.983 -245.118 516.333C-226.01 505.324 -207.965 494.925 -189.515 485.017C-160.375 469.21 -128.829 454.402 -96.6914 441.448C-85.6224 436.992 -74.7085 431.483 -64.1237 426.16C-60.5845 424.375 -57.2098 422.683 -53.835 421.022C-35.2375 411.888 -15.8391 402.33 3.83363 392.627C89.4662 350.365 155.183 317.644 216.952 286.517C241.718 273.91 267.081 261.637 292.859 249.786C307.536 243.092 323.552 235.705 343.206 226.563C372.438 212.972 403.629 198.525 435.555 184.383C471.18 168.604 502.617 152.132 534.498 132.537L543.403 127.047C569.701 110.807 596.887 94.0401 628.057 79.6953C672.735 59.1391 722.376 44.6982 766.183 31.952C772.265 30.1791 778.023 28.5053 783.836 26.7904C816.088 17.2951 849.323 7.54282 883.339 -3.9585C914.006 -14.3238 944.355 -26.9244 978.841 -43.5925C1014.11 -60.6436 1048.25 -78.7771 1081.28 -96.3162C1113.66 -113.509 1147.14 -131.286 1181.58 -147.989L1180.59 -148.655Z"
    fill="#363636"/>
  <path
    d="M1184.21 -131.927C1151.84 -116.518 1119.94 -100.297 1089.08 -84.6014C1054.33 -66.9327 1018.41 -48.6658 981.781 -31.5356C947.399 -15.4752 917.736 -3.25695 888.349 6.90752C855.78 18.166 823.267 28.1602 791.819 37.8231L791.177 38.0249C786.204 39.5475 780.979 41.1428 775.952 42.676C731.792 56.1632 681.727 71.4429 636.181 92.2654C604.992 106.524 577.097 122.808 550.139 138.555L538.659 145.246C495.893 170.084 446.924 192.324 399.524 213.846C380.33 222.563 360.473 231.582 341.189 240.695C320.923 250.275 304.105 258.101 288.25 265.326C262.268 277.179 236.635 289.379 211.476 301.867C146.727 333.939 77.3795 368.196 8.88262 401.483C-11.3645 411.318 -29.5511 420.1 -46.6912 428.325C-49.8707 429.811 -53.1919 431.468 -56.2338 432.957C-66.8121 438.124 -77.7137 443.451 -88.4803 447.702C-121.588 460.725 -154.206 475.68 -184.451 491.702C-203.536 501.741 -223.021 512.737 -241.87 523.406C-284.258 547.358 -328.098 572.13 -375.174 590.686L-375.094 591.743C-327.179 572.864 -282.973 547.882 -240.218 523.721C-220.58 512.623 -202.048 502.118 -183.106 492.19C-153.286 476.362 -121.079 461.595 -88.3954 448.765C-77.1407 444.323 -66.0472 438.899 -55.2497 433.629C-52.1201 432.099 -48.9083 430.523 -45.7784 429.024C-28.6328 420.803 -10.4298 412.006 9.83924 402.161C78.3581 368.864 147.859 334.535 212.521 302.504C237.561 290.079 263.069 277.937 288.921 266.137C304.82 258.891 321.682 251.045 342.019 241.44C361.216 232.367 381.029 223.368 400.201 214.662C447.843 193.027 497.124 170.649 540.372 145.526L551.868 138.819C578.591 123.22 606.24 107.074 636.858 93.0812C681.659 72.607 731.296 57.4518 775.088 44.0835C780.071 42.5708 785.318 40.9654 790.334 39.4222L791.004 39.2151C822.523 29.5264 855.135 19.5012 887.896 8.17565C917.717 -2.13846 947.775 -14.511 982.574 -30.766C1019.41 -47.9735 1055.41 -66.2962 1090.24 -84.0108C1121.04 -99.6703 1152.88 -115.856 1185.09 -131.199L1184.21 -131.927Z"
    fill="#363636"/>
  <path
    d="M1187.4 -114.582C1158.43 -101.066 1129.49 -86.9932 1101.47 -73.3799C1063.84 -55.0858 1024.94 -36.1702 985.606 -18.4275C950.961 -2.79198 921.529 9.20183 892.971 19.3217C861.743 30.3858 830.392 40.4606 800.071 50.2074L797.889 50.9042L786.142 54.6791C739.599 69.5858 691.418 85.02 645.478 105.884C614.853 119.795 586.633 135.377 559.339 150.451C554.639 153.046 549.776 155.732 544.961 158.374C513.776 175.491 480.97 191.419 441.637 208.546C409.167 222.686 377.344 237.923 346.578 252.649L339.614 255.986C319.08 265.812 297.983 275.526 277.566 284.927C254.263 295.698 230.112 306.78 206.709 318.11C188.869 326.749 170.744 335.55 153.227 344.063C108.022 366.013 61.3607 388.68 15.1388 410.676C7.87405 414.13 0.478653 417.734 -7.37114 421.556C-31.4789 433.293 -56.4022 445.429 -79.7313 454.417C-113.464 467.406 -146.779 482.398 -177.688 498.5C-197.368 508.666 -217.412 519.831 -236.801 530.605C-279.122 554.146 -322.894 578.498 -369.851 596.885L-369.743 597.919C-321.98 579.212 -277.859 554.668 -235.187 530.935C-214.967 519.688 -195.907 509.067 -176.364 498.987C-145.862 483.094 -112.982 468.297 -79.6891 455.481C-55.8285 446.285 -30.6041 434.002 -6.30479 422.169C1.50121 418.368 8.8747 414.774 16.0957 411.34C62.4708 389.272 109.198 366.575 154.381 344.636C171.904 336.128 190.023 327.322 207.869 318.687C231.14 307.419 255.214 296.327 278.506 285.606C298.918 276.171 320.174 266.42 340.703 256.589L347.672 253.257C378.345 238.566 410.058 223.38 442.309 209.341C481.932 192.088 515.061 176.002 546.575 158.704C551.345 156.083 556.231 153.387 560.953 150.781C588.045 135.824 616.056 120.352 646.265 106.634C691.499 86.0887 739.307 70.7674 785.532 55.9631L797.285 52.1931L799.461 51.4915C829.859 41.7241 861.309 31.6185 892.7 20.4932C921.593 10.2559 951.349 -1.86501 986.328 -17.6475C1025.83 -35.4761 1064.8 -54.4172 1102.54 -72.7667C1130.51 -86.3647 1159.39 -100.402 1188.27 -113.878L1187.4 -114.582Z"
    fill="#363636"/>
  <path
    d="M1190.41 -96.5743C1167.81 -86.2323 1144.94 -75.6052 1122.84 -65.3237C1079.15 -45.0106 1033.98 -23.9923 988.639 -4.2956C923.957 23.844 861.501 45.3615 803.102 65.0073L797.878 66.7697C749.91 82.8766 700.387 99.5488 653.079 121.126C623.725 134.508 595.949 149.017 569.097 163.052C562.845 166.323 556.209 169.783 549.749 173.134C512.926 192.229 476.245 208.504 445.211 221.911C412.054 236.23 379.931 251.785 348.875 266.845L340.297 270.998C314.713 283.385 288.275 295.441 262.537 307.176C243.527 315.876 223.81 324.833 204.599 333.881C180.785 345.108 156.534 356.652 133.147 367.786C97.2924 384.859 60.2297 402.508 23.4088 419.614C17.2291 422.486 10.9896 425.422 4.38382 428.533C-20.1035 440.075 -45.4221 451.998 -69.2853 461.136C-103.769 474.2 -137.892 489.28 -169.67 505.498C-190.267 515.977 -211.162 527.468 -231.406 538.596C-273.693 561.842 -317.427 585.89 -364.367 604.266L-364.208 605.268C-316.491 586.58 -272.429 562.353 -229.793 538.917C-209.653 527.844 -188.906 516.427 -168.369 505.984C-136.993 489.968 -103.298 475.077 -69.2473 462.178C-44.9189 452.864 -19.3763 440.816 5.34643 429.188C11.8428 426.127 18.1424 423.157 24.3002 420.295C61.1649 403.168 98.2714 385.5 134.153 368.421C157.513 357.293 181.611 345.819 205.562 334.536C224.701 325.514 244.352 316.557 263.341 307.896C289.057 296.171 315.649 284.046 341.385 271.588L349.964 267.436C380.921 252.435 412.929 236.925 445.818 222.722C477.049 209.225 513.976 192.845 551.154 173.565C557.615 170.214 564.184 166.784 570.524 163.473C597.235 149.518 624.857 135.079 653.926 121.827C700.584 100.555 749.833 83.993 797.439 67.9786L802.669 66.221C861.352 46.4741 924.077 24.8413 989.251 -3.47998C1034.74 -23.2515 1080.02 -44.2907 1123.75 -64.653C1145.85 -74.9345 1168.69 -85.5563 1191.32 -95.8988L1190.41 -96.5743Z"
    fill="#363636"/>
  <path
    d="M810.723 79.4223C764.991 95.5814 713.164 113.891 663.388 136.487C635.12 149.348 607.668 162.988 581.145 176.192C573.147 180.178 564.909 184.303 556.741 188.316C521.285 205.823 486.219 220.922 449.06 236.923C415.153 251.525 382.58 267.517 351.066 282.955L339.129 288.813C307.533 304.296 274.706 319.13 242.972 333.466C228.881 339.834 214.304 346.415 199.941 353.008C175.226 364.353 150.257 376.024 126.163 387.298C94.7402 401.985 62.2572 417.169 29.9329 431.803L16.8155 437.771C-8.61041 449.339 -34.8775 461.333 -60.0186 470.803C-95.2348 484.022 -130.1 499.336 -162.499 515.814C-183.798 526.583 -205.338 538.373 -226.163 549.773C-268.348 572.861 -311.915 596.714 -358.9 615.231L-358.703 616.199C-311.012 597.396 -267.069 573.321 -224.584 550.061C-203.819 538.695 -182.361 526.949 -161.226 516.269C-129.243 499.999 -94.82 484.879 -60.0514 471.831C-34.4672 462.196 -7.98669 450.127 17.6193 438.455L30.7368 432.487C63.11 417.809 95.6368 402.605 127.098 387.922C151.225 376.648 176.151 364.997 200.876 353.632C215.195 347.059 229.756 340.492 243.792 334.107C275.635 319.72 308.555 304.851 340.32 289.284L352.258 283.426C383.613 268.024 416.082 252.086 449.683 237.653C487.001 221.587 522.219 206.418 557.971 188.762C566.144 184.725 574.399 180.615 582.402 176.633C608.832 163.465 636.159 149.86 664.252 137.107C713.487 114.765 765.029 96.5558 810.52 80.4773C867.424 60.3787 929.039 38.0068 993.716 10.8179C1057.81 -16.1218 1121.87 -44.9244 1183.8 -72.7669L1194.77 -77.7024L1193.94 -78.4099L1182.96 -73.4743C1121.11 -45.657 1057.16 -16.9042 993.19 9.97116C929.219 36.8464 867.458 59.3791 810.723 79.4223Z"
    fill="#363636"/>
  <path
    d="M1197.34 -63.413C1072.37 -7.81174 944.676 44.3652 816.721 92.1155C773.391 108.279 723.15 127.359 674.944 149.288C647.876 161.613 621.044 174.455 594.994 186.933C585.649 191.405 575.988 196.037 566.452 200.575C537.324 214.433 508.799 226.661 478.617 239.592C470.115 243.239 461.296 247.015 452.548 250.796C417.764 265.838 384.633 282.402 352.607 298.421C346.537 301.453 340.259 304.595 334.069 307.667C296.091 326.562 258.383 343.428 218.455 361.291C210.228 364.972 201.711 368.778 193.303 372.562C169.738 383.155 146.011 394.097 123.027 404.672C95.1296 417.52 66.2757 430.811 37.581 443.58C9.59673 456.011 -22.9378 470.282 -54.9246 482.361C-88.4762 495.022 -120.249 509.084 -154.875 526.605C-181.021 539.83 -206.355 553.577 -230.848 566.868C-240.131 571.907 -249.721 577.115 -259.229 582.22C-290.096 598.798 -320.471 614.738 -354.096 628.252L-353.735 629.131C-319.535 615.393 -288.74 599.239 -257.518 582.477C-248.015 577.367 -238.382 572.14 -229.098 567.101C-204.666 553.844 -179.425 540.133 -153.437 527.002C-119.21 509.684 -87.858 495.806 -54.7497 483.311C-22.4345 471.111 10.2968 456.75 38.4615 444.244C67.2603 431.45 96.1579 418.139 124.082 405.257C147.011 394.693 170.727 383.77 194.228 373.207C202.64 369.427 211.152 365.617 219.357 361.945C259.422 344.028 297.239 327.112 335.452 308.103C341.637 305.025 347.936 301.874 354.006 298.842C385.869 282.884 418.847 266.417 453.319 251.51C462.045 247.74 470.843 243.973 479.345 240.326C509.657 227.335 538.275 215.072 567.551 201.14C577.109 196.592 586.77 191.96 596.137 187.478C622.012 175.079 648.767 162.258 675.737 149.992C723.533 128.228 773.539 109.263 816.655 93.1746C944.863 45.336 1072.81 -6.94402 1198.02 -62.6588L1197.34 -63.413Z"
    fill="#363636"/>
  <path
    d="M1200.64 -54.2313C1132.75 -24.1001 1062.95 3.82589 1001.42 28.3939C977.373 38.0137 952.955 47.8626 929.335 57.3888C894.911 71.2722 859.298 85.6346 824.192 99.5371C767.705 121.917 724.705 140.059 684.807 158.421C664.412 167.782 643.837 177.393 623.909 186.693C607.278 194.443 590.112 202.453 573.12 210.296C548.726 221.557 523.727 232.15 499.642 242.345C485.341 248.402 470.571 254.66 455.971 261.037C420.026 276.734 386.047 294.134 353.206 310.953C346.344 314.462 339.252 318.091 332.274 321.646C283.339 346.534 232.802 368.876 188.126 388.639C165.851 398.488 143.436 408.709 121.771 418.593C96.0462 430.326 69.4682 442.45 43.0056 454.008C13.3428 467.033 -16.7776 479.366 -46.9725 490.848C-80.2995 503.45 -112.74 517.978 -149.036 536.56C-176.201 550.495 -202.499 564.949 -227.932 578.963C-236.65 583.764 -245.658 588.72 -254.568 593.588C-285.715 610.598 -316.428 626.998 -350.083 640.881L-349.744 641.811C-315.525 627.692 -284.451 611.112 -252.999 593.932C-244.067 589.054 -235.037 584.088 -226.368 579.302C-201.011 565.338 -174.796 550.899 -147.757 537.059C-111.99 518.743 -79.884 504.36 -47.0225 491.935C-16.6295 480.375 13.6881 467.962 43.5468 454.853C70.1244 443.25 96.768 431.096 122.509 419.348C144.158 409.478 166.545 399.263 188.755 389.444C233.513 369.636 284.28 347.203 333.51 322.165C340.515 318.605 347.596 314.966 354.574 311.412C387.267 294.668 421.076 277.353 456.644 261.822C471.177 255.475 485.926 249.227 500.183 243.19C524.443 232.915 549.536 222.287 574.148 210.925C591.135 203.078 608.328 195.062 624.975 187.297C644.866 178.022 665.451 168.42 685.791 159.07C725.51 140.842 768.284 122.737 824.526 100.463C859.67 86.5358 895.288 72.1781 929.8 58.2545C953.397 48.7384 977.772 38.9095 1001.84 29.2797C1063.59 4.61128 1133.49 -23.3697 1201.61 -53.5965L1200.64 -54.2313Z"
    fill="#363636"/>
  <path
    d="M1203.81 -44.5648C1150.14 -20.8048 1094.86 0.667983 1041.22 21.5148C1030.68 25.6444 1019.71 29.8728 1008.95 34.074C962.681 52.1504 916.005 71.8385 870.896 90.8471C858.654 96.0077 846.046 101.316 833.514 106.573C775.412 130.934 718.211 157.142 662.882 182.47C634.897 195.292 605.965 208.546 577.19 221.437C556.234 230.834 534.62 239.829 513.899 248.463C495.758 256.017 477.174 263.738 458.938 271.766C421.902 288.059 387.093 306.278 353.433 323.891C346.708 327.408 339.774 331.036 332.95 334.583C309.745 346.735 285.906 358.655 261.578 370.273C242.143 379.478 222.054 388.11 202.623 396.467C195.645 399.47 188.416 402.573 181.286 405.676C161.176 414.436 140.894 423.602 121.258 432.426C96.6283 443.527 71.1389 455.019 45.6878 465.869C15.2199 478.86 -15.1877 490.584 -43.5313 501.331C-73.5133 512.695 -105.003 527.049 -142.659 546.524C-171.33 561.356 -198.962 576.807 -225.674 591.744C-233.393 596.091 -241.56 600.66 -249.761 605.2C-282.689 623.484 -312.672 639.777 -346.372 654.068L-345.919 654.965C-311.655 640.435 -281.36 623.976 -248.148 605.53C-239.941 600.995 -231.785 596.416 -223.924 592.018C-197.277 577.112 -169.727 561.707 -141.221 546.965C-104.007 527.717 -72.9395 513.551 -43.4508 502.37C-14.9866 491.582 15.5854 479.797 46.2997 466.7C71.7891 455.824 97.3279 444.317 122.023 433.185C141.594 424.363 161.783 415.262 181.892 406.502C189.001 403.409 196.202 400.311 203.185 397.313C222.71 388.92 242.902 380.233 262.556 370.926C287 359.253 310.954 347.277 334.274 335.07C341.12 331.512 348.048 327.88 354.773 324.363C388.285 306.826 422.886 288.718 459.588 272.571C477.692 264.604 496.294 256.868 514.303 249.375C535.194 240.684 556.813 231.694 577.928 222.232C606.704 209.34 635.723 196.046 663.817 183.173C719.042 157.871 776.133 131.714 834.055 107.459C846.543 102.221 859.212 96.8783 871.475 91.7076C916.491 72.7345 963.052 53.0923 1009.21 35.0665C1019.93 30.8559 1030.89 26.6226 1041.44 22.5274C1095.13 1.66522 1150.65 -19.914 1204.61 -43.8007L1203.81 -44.5648Z"
    fill="#363636"/>
  <path
    d="M1206.88 -33.7289C1158.3 -12.2887 1108.49 6.34809 1060.26 24.4012C1044.88 30.1546 1028.96 36.1126 1013.38 42.0421C961.271 61.8966 909.701 84.7409 859.824 106.836L840.691 115.304C800.271 133.172 759.819 151.87 720.704 169.947C676.017 190.604 629.841 211.953 583.539 232.156C564.553 240.428 544.948 248.419 525.963 256.159C504.689 264.711 483.495 273.591 462.469 282.762C424.328 299.631 388.658 318.629 354.18 336.997C346.904 340.878 339.37 344.886 331.973 348.807C307.972 361.596 283.239 374.138 257.944 386.346C236.647 396.537 215.785 405.396 193.679 414.78C188.281 417.07 182.702 419.437 177.162 421.808C158.673 429.722 140.061 438 122.073 446.003C99.0829 456.231 75.3804 466.776 51.6288 476.686C30.4638 485.513 9.14423 493.582 -11.4792 501.381C-19.3898 504.374 -27.5799 507.475 -35.7094 510.6C-66.0073 522.226 -98.9652 537.413 -136.572 557.063C-166.359 572.633 -194.975 588.856 -222.672 604.532C-229.898 608.636 -237.408 612.872 -244.786 617.046C-271.854 632.303 -305.534 651.289 -341.907 667.12L-341.372 667.979C-304.501 651.939 -270.503 632.82 -243.216 617.402C-235.837 613.227 -228.306 608.981 -221.058 604.867C-193.482 589.232 -164.942 573.06 -135.33 557.571C-98.1892 538.16 -65.6314 523.151 -35.7995 511.704C-27.7138 508.599 -19.4578 505.468 -11.6349 502.515C9.07617 494.676 30.4944 486.576 51.8622 477.662C75.6851 467.727 99.541 457.111 122.603 446.856C140.563 438.859 159.159 430.626 177.533 422.728C183.051 420.367 188.602 418.006 194 415.716C216.243 406.275 237.242 397.36 258.802 387.047C284.239 374.767 309.113 362.152 333.253 349.29C340.661 345.378 348.189 341.366 355.482 337.47C389.773 319.203 425.23 300.311 462.949 283.631C483.88 274.504 504.977 265.666 526.153 257.156C545.182 249.395 564.879 241.368 584.019 233.025C630.447 212.786 676.695 191.411 721.425 170.704C760.496 152.647 800.877 133.975 841.209 116.148C847.587 113.335 853.976 110.503 860.342 107.68C910.066 85.656 961.477 62.878 1013.26 43.1513C1028.9 37.1864 1044.8 31.2385 1060.14 25.5006C1108.49 7.41135 1158.5 -11.3073 1207.42 -32.8953L1206.88 -33.7289Z"
    fill="#363636"/>
  <path
    d="M1209.53 -23.6696C1163.29 -3.29754 1116.16 13.7275 1070.59 30.1973C1052.75 36.6433 1034.34 43.3249 1016.14 50.0944C962.733 70.0306 913.223 92.8735 860.901 117.019L848.734 122.627C822.987 134.489 797.282 146.804 772.393 158.716C752.179 168.398 731.268 178.411 710.526 188.098C669.052 207.423 625.993 226.049 589.325 241.683C571.47 249.303 552.943 256.71 535.047 263.876C512.018 273.102 488.162 282.631 465.371 292.754C426.444 310.034 390.164 329.615 355.088 348.544C347.064 352.876 338.766 357.352 330.605 361.71C308.827 373.361 279.938 388.551 249.722 402.945C229.513 412.571 209.744 420.865 189.01 429.548L175.985 435.016C158.333 442.489 140.513 450.318 123.291 457.907C100.954 467.75 77.6643 478.023 54.6042 487.429C37.5409 494.288 20.4388 500.848 3.38091 507.078C-6.7759 510.848 -17.2836 514.752 -27.73 518.77C-58.7839 530.72 -92.4115 546.268 -130.536 566.317C-161.71 582.714 -191.53 599.811 -220.36 616.333L-240.056 627.608C-268.947 644.076 -301.681 662.771 -337.851 678.849L-337.223 679.677C-300.494 663.353 -267.486 644.515 -238.404 627.92L-218.686 616.636C-189.944 600.154 -160.222 583.118 -129.212 566.813C-91.4163 546.947 -58.3478 531.645 -27.76 519.874C-17.4068 515.892 -6.921 511.998 3.21387 508.239C20.4386 501.945 37.708 495.315 54.936 488.379C78.1771 478.896 101.451 468.639 123.962 458.714C141.135 451.141 158.894 443.317 176.481 435.905C180.828 434.067 185.214 432.234 189.457 430.453C210.438 421.662 230.322 413.322 250.723 403.599C281.18 389.092 310.222 373.801 332.121 362.109C340.304 357.74 348.596 353.26 356.642 348.917C391.509 330.101 427.559 310.612 466.087 293.541C488.636 283.53 512.367 274.037 535.286 264.862C553.281 257.665 571.868 250.223 589.843 242.562C626.616 226.872 669.817 208.224 711.439 188.793C732.264 179.09 753.185 169.057 773.421 159.365C798.261 147.468 823.928 135.178 849.582 123.353L861.748 117.744C913.922 93.6754 963.229 70.9196 1016.17 51.1628C1034.28 44.3993 1052.69 37.7477 1070.47 31.3171C1116.24 14.7805 1163.6 -2.30196 1210.24 -22.8829L1209.53 -23.6696Z"
    fill="#363636"/>
  <path
    d="M1214.45 -3.47728C1170.37 15.9033 1126.11 30.8923 1083.35 45.3708C1063.58 52.0686 1043.16 58.9831 1022.89 66.2763C994.948 76.2127 966.777 87.8244 939.655 100.585C915.239 112.103 888.84 124.831 858.93 139.492C842.013 147.782 824.895 156.4 808.309 164.747C780.556 178.71 751.975 193.097 723.343 206.483C682.795 225.443 639.43 243.586 598.563 260.382C582.108 267.147 564.915 273.819 548.27 280.265C522.675 290.194 496.351 300.395 471.408 311.442C431.247 329.228 394.027 349.64 358.078 369.37C349.314 374.211 340.21 379.166 331.32 383.983C307.031 397.136 278.024 412.573 246.955 427.45C226.096 437.436 205.908 445.845 184.463 454.711C180.455 456.377 176.441 458.039 172.373 459.74C156.845 466.231 141.194 473.087 126.068 479.729C105.933 488.572 84.9911 497.768 64.2187 506.072C49.6611 511.799 35.0937 517.251 20.5927 522.401C8.48112 526.785 -4.01999 531.299 -16.4143 536.116C-48.3596 548.54 -82.698 564.551 -121.386 585.083C-154.228 602.52 -185.481 620.691 -215.688 638.247L-231.87 647.641C-262.471 665.38 -294.102 683.72 -329.687 700.049L-328.862 700.786C-292.729 684.232 -260.873 665.764 -230.036 647.908L-213.86 638.509C-183.74 620.994 -152.592 602.879 -119.93 585.549C-81.6806 565.251 -47.7643 549.43 -16.296 537.206C-4.04433 532.44 8.38546 527.952 20.4257 523.593C35.0599 518.396 49.7609 512.894 64.4521 507.116C85.4329 498.73 106.418 489.513 126.708 480.598C141.789 473.977 157.358 467.136 172.782 460.702L184.855 455.688C206.437 446.735 226.807 438.28 247.989 428.135C279.277 413.156 308.47 397.617 332.863 384.408C341.797 379.57 350.896 374.581 359.687 369.764C395.434 350.152 432.396 329.867 472.179 312.25C496.831 301.331 523.084 291.155 548.471 281.309C565.159 274.842 582.407 268.16 599.022 261.328C639.993 244.476 683.566 226.251 724.338 207.194C753.168 193.745 781.875 179.262 809.65 165.289C826.193 156.962 843.288 148.355 860.139 140.095C889.983 125.465 916.322 112.772 940.689 101.27C967.475 88.6678 995.296 77.1987 1022.89 67.3822C1043.04 60.1302 1063.44 53.221 1083.05 46.5898C1126.1 32.0132 1170.6 16.9418 1215.19 -2.66409L1214.45 -3.47728Z"
    fill="#363636"/>
  <path
    d="M1219.85 21.7423C1176.93 40.63 1134.52 54.065 1093.53 67.0478C1072.75 73.629 1051.28 80.4262 1029.86 87.8864C974.014 107.338 922.831 133.53 873.323 158.871L868.877 161.141C856.926 167.255 844.707 173.604 832.916 179.741C801.224 196.212 768.438 213.251 735.111 228.721C692.654 248.4 646.943 266.948 607.827 282.5C592.176 288.71 575.771 294.875 559.904 300.836C532.883 310.989 504.93 321.5 478.612 332.983C437.614 350.883 399.807 371.747 363.248 391.944C353.895 397.107 344.191 402.462 334.722 407.611C309.534 421.3 279.483 437.331 247.71 452.462C228.564 461.574 209.864 469.37 190.052 477.629C184.151 480.088 178.047 482.634 171.922 485.219C157.436 491.337 142.888 497.932 128.953 504.241C111.288 512.243 93.1797 520.443 74.9595 527.777C60.2296 533.624 45.4719 539.161 30.7882 544.352C19.1121 548.556 7.05793 552.898 -4.95503 557.571C-37.777 570.332 -72.6702 586.572 -111.644 607.232C-146.064 625.483 -178.608 644.504 -210.063 662.894L-222.297 670.056L-223.829 670.945C-253.775 688.426 -284.749 706.504 -319.439 722.717L-318.613 723.446C-283.408 707.008 -252.216 688.8 -222.018 671.217L-220.492 670.323L-208.236 663.151C-176.885 644.816 -144.439 625.855 -110.227 607.716C-71.6691 587.279 -37.2141 571.241 -4.87985 558.67C6.94679 554.068 18.9516 549.741 30.5783 545.552C45.3873 540.32 60.2716 534.736 75.1279 528.84C93.5999 521.374 111.906 513.083 129.625 505.071C143.538 498.771 157.933 492.248 172.265 486.201C178.319 483.641 184.401 481.105 190.39 478.605C210.339 470.29 229.198 462.429 248.645 453.169C280.66 437.927 310.875 421.804 336.211 408.04C345.734 402.88 355.427 397.515 364.818 392.327C401.136 372.272 438.686 351.534 479.066 333.914C505.071 322.568 532.859 312.119 559.722 302.031C575.633 296.05 592.103 289.855 607.869 283.598C647.172 268.006 693.129 249.38 735.849 229.549C769.456 213.972 802.373 196.843 834.168 180.316C845.944 174.194 858.141 167.855 869.983 161.792L874.428 159.522C925.798 133.229 974.315 108.399 1029.31 89.2248C1050.58 81.8158 1071.95 75.0494 1092.68 68.4787C1133.99 55.3981 1176.72 41.8605 1220.27 22.6983L1219.85 21.7423Z"
    fill="#363636"/>
  <path
    d="M-214.665 698.46L-211.12 696.374L-203.107 691.66C-170.597 672.501 -137.049 652.726 -101.25 633.755C-62.7863 613.364 -27.9259 597.185 5.3133 584.286C13.5436 581.087 21.9338 577.94 30.039 574.895C48.6223 567.924 67.8303 560.708 86.7373 552.374C102.736 545.304 117.97 537.532 132.694 530.017C146.406 523.024 160.584 515.793 175.311 509.163C185.837 504.425 196.639 499.783 207.106 495.288C222.638 488.728 238.023 481.898 253.162 474.842C285.534 459.503 316.493 442.891 342.48 428.669C352.373 423.257 362.534 417.58 372.372 412.089C408.835 391.732 446.546 370.678 487.212 353.255C513.899 341.826 542.233 331.346 569.641 321.198C585.15 315.462 601.197 309.523 616.617 303.532C668.064 283.537 709.156 266.312 745.906 249.325C786.079 230.733 824.253 210.498 861.162 190.916C867.292 187.663 873.673 184.278 879.94 180.969L881.675 180.054C931.058 153.948 982.137 126.952 1037.16 108.046C1059.25 100.455 1081.33 93.8226 1102.67 87.3964C1142.87 75.329 1184.44 62.8456 1227.49 43.4878L1226.77 42.7106C1184.52 61.7083 1143.35 74.0688 1103.52 86.0279C1082.04 92.4804 1059.86 99.1387 1037.55 106.801C981.508 126.045 929.963 153.308 880.214 179.622L878.479 180.536C872.212 183.846 865.962 187.17 859.701 190.484C822.94 209.99 784.925 230.158 745.042 248.595C708.571 265.474 667.715 282.583 616.498 302.487C601.193 308.432 585.196 314.355 569.67 320.105C542.114 330.3 513.616 340.841 486.644 352.402C445.342 370.09 407.391 391.314 370.638 411.798C360.822 417.279 350.677 422.941 340.827 428.333C314.988 442.479 284.243 458.985 252.123 474.193C237.161 481.161 221.957 487.904 206.609 494.38C196.098 498.895 185.202 503.543 174.594 508.356C159.599 515.103 145.296 522.4 131.458 529.459C116.859 536.907 101.839 544.573 86.1307 551.516C67.5743 559.718 48.5472 566.858 30.1338 573.773C21.9571 576.813 13.5727 579.995 5.26562 583.215C-28.4612 596.302 -63.7542 612.689 -102.661 633.307C-138.602 652.359 -172.304 672.234 -204.923 691.445L-212.942 696.153L-216.481 698.245C-245.293 715.217 -275.089 732.764 -308.5 748.659L-349.448 772.172C-315.571 756.069 -243.673 715.553 -214.665 698.46Z"
    fill="#363636"/>
  <path
    d="M-275.445 781.223C-228.444 756.437 -212.944 749.873 -169.638 725.112C-155.802 716.891 -141.583 708.424 -127.368 700.241C-103.348 686.404 -77.2648 671.81 -49.4884 658.916C-21.2528 645.814 8.4958 634.486 39.2041 623.005C63.6864 613.851 88.6705 604.867 112.828 596.18C154.042 581.358 196.667 566.023 238.496 549.268C291.002 528.26 333.286 505.231 367.877 485.45C374.821 481.477 381.902 477.39 388.633 473.492C418.024 456.485 448.453 438.933 482.147 422.678C517.148 405.792 554.986 388.665 587.408 374.127C631.764 354.235 677.674 335.383 722.053 317.169C737.913 310.673 754.319 303.927 770.44 297.225C816.884 277.941 855.571 255.419 893.029 233.623L895.42 232.23C938.544 207.143 985.064 181.062 1038.14 162.051C1053.48 156.515 1068.93 151.761 1083.85 147.145C1091.6 144.746 1099.62 142.261 1107.55 139.701C1159.81 122.828 1211.52 102.511 1250.53 86.7317L1250.22 85.8035C1211.32 101.513 1160 121.7 1108.1 138.456C1100.25 140.996 1092.29 143.48 1084.55 145.855C1069.52 150.52 1053.96 155.324 1038.33 160.927C984.221 180.315 937.144 206.693 893.633 232.021L891.242 233.414C853.985 255.068 815.725 277.353 769.942 296.372C753.86 303.049 737.47 309.78 721.621 316.286C677.138 334.554 631.069 353.472 586.582 373.423C554.094 387.991 516.131 405.182 480.999 422.128C446.916 438.567 416.329 456.242 386.758 473.324C379.983 477.242 372.968 481.298 366.04 485.257C331.816 504.835 289.87 527.638 238.184 548.344C196.59 565.014 154.08 580.304 112.981 595.081C88.7798 603.788 63.7465 612.787 39.1711 621.976C8.29867 633.518 -21.7727 644.97 -50.3526 658.237C-78.5881 671.34 -104.917 686.068 -129.177 700.043C-143.431 708.251 -157.715 716.748 -171.545 724.973C-210.92 748.396 -306.851 796.569 -353.445 818.212L-275.445 781.223Z"
    fill="#363636"/>
  <path
    d="M-73.9395 790.76C-58.4901 780.614 -37.4434 767.36 -13.2452 755.51C15.9496 741.216 50.701 729.207 78.6284 719.557C103.657 710.903 129.106 702.63 153.699 694.637C197.241 680.48 242.259 665.85 287.132 648.434C340.155 627.868 383.838 600.385 422.376 576.147C430.354 571.123 438.419 565.996 446.227 561.028C478.467 540.562 511.748 519.348 549.258 499.399C574.568 485.932 604.957 473.322 634.326 461.146C642.09 457.919 649.427 454.877 656.675 451.816C677.4 443.067 698.665 434.384 719.21 425.955C746.039 414.979 773.784 403.626 800.774 391.981C842.616 373.932 880.974 352.367 918.054 331.516L930.662 324.439C977.49 298.204 1030.57 268.461 1088.1 249.315C1107.39 242.894 1126.56 237.345 1145.04 231.969C1154.98 229.082 1165.23 226.112 1175.42 223.032C1217.04 210.58 1260.44 194.784 1303.24 176.511L1302.82 175.584C1260.47 193.67 1217.52 209.309 1176.32 221.643C1166.32 224.651 1155.96 227.678 1146.12 230.498C1127.49 235.901 1108.27 241.481 1088.77 247.963C1030.12 267.479 976.506 297.524 929.185 324.036L916.576 331.114C879.765 351.816 841.67 373.227 800.388 390.997C773.535 402.586 745.768 413.949 719.076 424.868C698.427 433.324 677.195 442.006 656.404 450.786C649.178 453.837 641.852 456.858 634.142 460.075C604.439 472.4 573.797 485.113 547.978 498.843C510.095 518.998 476.628 540.284 444.262 560.878C436.426 565.851 428.41 570.962 420.448 575.971C382.333 599.958 339.11 627.103 287.207 647.265C242.657 664.552 197.815 679.13 154.444 693.23C129.774 701.243 104.275 709.532 79.1532 718.222C50.8909 727.991 15.7277 740.14 -14.1581 754.774C-38.9212 766.896 -60.2144 780.32 -76.0091 790.667C-85.8486 797.113 -95.4895 803.619 -104.769 809.879C-142.304 835.115 -298.017 923.627 -348.163 946.617L-347.447 947.415C-296.567 924.095 -140.371 835.327 -102.552 809.835C-93.3487 803.657 -83.7242 797.166 -73.9395 790.76Z"
    fill="#363636"/>
  <path
    d="M-66.4694 857.101C-59.8954 852.356 -53.1458 847.399 -46.2033 842.438C-31.2959 831.785 -10.9825 817.985 14.0663 805.784C43.0596 791.661 76.5619 780.463 103.469 771.474C128.285 763.174 153.433 755.347 177.794 747.812C220.851 734.446 265.279 720.682 310.162 703.48C363.059 683.212 407.747 653.897 447.207 628.053L449.659 626.447C457.62 621.224 465.664 615.891 473.438 610.742C506.156 589.045 539.99 566.612 578.271 545.473C603.231 531.677 633.464 518.92 662.718 506.586C671.281 502.973 679.365 499.566 687.294 496.139C703.252 489.252 719.684 482.312 735.565 475.605C762.354 464.299 790.056 452.602 816.83 440.559C856.227 422.839 893.66 402.061 929.841 381.98C935.638 378.764 941.644 375.431 947.474 372.215L951.517 369.977C1001.84 342.2 1053.9 313.459 1110.13 294.941C1135.46 286.598 1160.23 279.541 1184.17 272.649C1231.1 259.21 1279.63 245.309 1332.58 221.82L1332.08 220.879C1279.93 244.023 1233.93 257.202 1185.24 271.14C1161.19 278.033 1136.32 285.18 1110.8 293.56C1053.48 312.433 1000.92 341.449 950.099 369.513L946.05 371.745C940.198 374.972 934.214 378.294 928.417 381.51C892.429 401.49 855.177 422.157 816.297 439.644C789.683 451.618 762.047 463.284 735.308 474.574C719.421 481.276 702.967 488.227 686.943 495.145C679.058 498.551 670.935 501.984 662.483 505.544C632.932 518.005 602.379 530.9 576.847 545.003C538.214 566.343 504.22 588.876 471.343 610.674C463.53 615.849 455.553 621.151 447.608 626.357L445.134 627.975C406.17 653.532 361.987 682.51 310.334 702.321C265.803 719.386 221.464 733.139 178.577 746.446C154.189 754.018 128.947 761.851 104.076 770.161C76.8274 779.268 42.9179 790.614 13.1983 805.086C-12.5711 817.642 -33.3355 831.738 -48.5231 842.596C-55.4821 847.574 -62.2759 852.52 -68.8498 857.296C-104.16 882.986 -288.766 974.014 -341.945 998.357L-341.319 999.234C-287.139 974.362 -102.142 883.076 -66.4694 857.101Z"
    fill="#363636"/>
  <path
    d="M-100.038 895.215C-87.143 886.274 -74.9225 877.346 -63.4406 868.477C-56.2097 863.007 -48.7588 857.367 -41.1147 851.817C-27.7017 842.09 -6.92258 827.719 18.4832 815.298C47.6592 801.032 81.0196 789.94 107.81 781.025C132.613 772.775 157.754 765.038 182.069 757.556C225.13 744.302 269.624 730.611 314.568 713.395C367.419 693.158 412.15 663.775 451.618 637.847L453.587 636.562C461.437 631.398 469.533 626.026 477.295 620.873C509.841 599.255 543.477 576.905 581.583 555.881C606.791 541.972 637.179 528.959 666.52 516.403C675.466 512.571 683.938 508.95 692.25 505.304C707.994 498.405 724.179 491.484 739.813 484.733C766.292 473.368 793.658 461.615 820.123 449.572C859.321 431.742 896.7 411.068 932.814 391.084C938.818 387.765 945.008 384.34 951.067 381.01L955.942 378.323C1006.4 350.548 1058.59 321.829 1114.79 303.369C1140.07 295.065 1164.99 288.005 1189.14 281.159C1236.3 267.797 1285.07 253.945 1337.8 230.4L1337.29 229.464C1285.37 252.685 1237.01 266.383 1190.21 279.644C1166 286.5 1140.95 293.597 1115.46 301.975C1058.19 320.781 1005.5 349.783 954.557 377.823L949.654 380.515C943.601 383.85 937.41 387.276 931.407 390.595C895.48 410.472 858.315 431.035 819.563 448.657C793.213 460.652 765.914 472.373 739.506 483.712C723.839 490.431 707.632 497.395 691.834 504.336C683.587 507.951 675.165 511.587 666.214 515.382C636.619 528.076 605.956 541.175 580.181 555.397C541.717 576.618 507.928 599.074 475.227 620.797C467.4 625.983 459.473 631.264 451.558 636.46L449.583 637.739C410.567 663.37 366.369 692.408 314.751 712.178C270.159 729.256 225.842 742.893 182.979 756.083C158.592 763.591 133.38 771.355 108.478 779.637C81.4286 788.622 47.5616 799.895 17.6206 814.537C5.10479 820.658 -14.8771 831.201 -43.4354 851.911C-51.1565 857.514 -58.6459 863.181 -65.8933 868.667C-77.293 877.464 -89.4235 886.32 -102.222 895.187C-125.734 911.244 -308.721 997.56 -339.028 1011.3L-338.446 1012.2C-307.554 998.2 -124.015 911.582 -100.038 895.215Z"
    fill="#363636"/>
  <path
    d="M-93.8544 904.418C-81.0533 895.47 -68.9599 886.539 -57.6433 877.675C-50.69 872.329 -43.4725 866.823 -36.0619 861.343C-22.9186 851.699 -2.62649 837.501 22.915 824.971C52.3601 810.528 86.9429 799.078 112.194 790.722C136.972 782.515 162.104 774.84 186.404 767.415C229.451 754.264 273.937 740.68 318.956 723.443C371.808 703.198 416.646 673.765 456.218 647.8L456.9 647.342C464.769 642.175 472.743 636.886 480.436 631.773C512.671 610.373 546.002 588.243 583.737 567.511C609.401 553.413 639.859 540.133 669.314 527.29C678.769 523.169 687.696 519.272 696.583 515.306C712.227 508.317 728.324 501.254 743.792 494.478C770.026 482.963 797.163 471.042 823.472 458.932C862.611 440.883 900.022 420.284 936.182 400.331C942.243 396.99 948.513 393.564 954.629 390.181L960.425 387C1011.01 359.24 1063.22 330.585 1119.33 312.192C1144.54 303.926 1169.64 296.884 1193.89 290.087C1241.35 276.776 1290.39 263.021 1342.74 239.401L1342.23 238.461C1290.71 261.703 1242.05 275.355 1195.01 288.549C1170.63 295.389 1145.45 302.447 1120.01 310.782C1062.85 329.528 1010.07 358.492 959.062 386.486L953.265 389.667C947.127 393.029 940.846 396.476 934.797 399.827C898.795 419.648 861.583 440.182 822.818 458.018C796.636 470.091 769.554 481.969 743.358 493.457C727.83 500.271 711.778 507.313 696.084 514.318C687.334 518.225 678.407 522.122 668.974 526.233C639.359 539.145 608.538 552.585 582.412 566.939C544.275 587.889 510.79 610.125 478.417 631.648C470.719 636.756 462.745 642.045 454.876 647.211L454.166 647.675C415.073 673.336 370.741 702.428 319.118 722.199C274.484 739.297 230.175 752.827 187.304 765.926C162.948 773.361 137.767 781.052 112.868 789.301C87.2751 797.775 52.2462 809.37 22.0578 824.18C9.44946 830.363 -10.5507 840.961 -38.4823 861.468C-45.992 866.98 -53.2039 872.523 -60.1737 877.885C-71.3743 886.669 -83.3523 895.52 -96.0381 904.388C-119.585 920.549 -306.992 1011.93 -337.447 1025.67L-336.865 1026.58C-305.821 1012.58 -117.86 920.89 -93.8544 904.418Z"
    fill="#363636"/>
  <path
    d="M-87.6191 913.355C-74.8872 904.395 -62.9037 895.455 -51.7439 886.592C-45.7955 881.952 -39.6215 877.148 -33.3315 872.423C-20.5863 862.845 -0.696063 848.632 24.7577 835.856C53.5212 821.418 85.5818 810.477 118.652 799.615C142.758 791.699 167.185 784.284 190.835 777.109C233.192 764.251 277.037 750.944 321.401 734.053C345.305 724.952 369.482 713.371 395.107 698.749C418.634 685.329 441.071 670.666 459.121 658.892C467.158 653.649 475.266 648.283 483.099 643.098C514.849 622.092 547.678 600.371 584.879 580.119C611.861 565.432 643.356 551.392 673.793 537.801C684.23 533.148 694.172 528.72 703.838 524.312C718.831 517.474 734.192 510.578 748.942 503.953C775.083 492.222 802.122 480.079 828.282 467.76C867.254 449.406 904.615 428.892 940.753 409.052C947.079 405.575 953.704 401.97 960.13 398.429L966.236 395.091C1016.04 367.864 1067.65 339.643 1122.7 321.555C1148.22 313.184 1173.8 306.051 1198.54 299.195C1246.2 285.955 1295.5 272.255 1347.41 248.632L1346.85 247.71C1295.81 270.958 1246.94 284.536 1199.69 297.658C1174.84 304.53 1149.16 311.695 1123.44 320.162C1067.19 338.625 1015.21 367.038 964.916 394.553L958.81 397.891C952.478 401.363 945.771 405.016 939.417 408.53C903.444 428.274 866.232 448.708 827.613 466.892C801.545 479.172 774.573 491.283 748.482 502.999C733.616 509.671 718.232 516.579 703.218 523.427C693.53 527.845 683.681 532.237 673.288 536.868C642.653 550.523 610.976 564.675 583.444 579.629C545.841 600.1 512.858 621.928 480.932 643.051C473.071 648.241 464.985 653.597 456.992 658.819C439.052 670.54 416.753 685.111 393.474 698.388C368.322 712.732 344.795 724.014 321.508 732.879C277.518 749.621 233.817 762.874 191.68 775.657C167.98 782.848 143.476 790.285 119.271 798.233C85.7603 809.245 53.2423 820.351 23.7133 835.168C11.1461 841.471 -8.6771 852.206 -35.8624 872.632C-42.213 877.395 -48.4034 882.216 -54.3958 886.876C-65.4154 895.645 -77.2538 904.49 -89.8361 913.357C-113.201 929.487 -315.345 1033.45 -347.985 1048.3L-347.447 1049.23C-314.092 1034.05 -111.468 929.848 -87.6191 913.355Z"
    fill="#363636"/>
  <path
    d="M1133.38 341.05C1077.81 359.345 1026.06 387.472 976.018 414.668L967.536 419.271L954.648 426.272C916.501 447.008 876.839 468.552 835.976 488.549C804.412 503.998 772.075 519.596 740.874 534.594C730.396 539.637 719.922 544.683 709.452 549.732C697.366 555.556 684.822 561.514 672.697 567.268C642.294 581.694 610.85 596.618 581.673 611.91C545.904 630.655 514.485 650.982 484.145 670.688C476.69 675.516 468.981 680.515 461.388 685.369C422.485 710.241 380.348 736.113 330.789 755.033C286.718 771.864 243.101 784.94 200.927 797.587C177.255 804.693 152.796 812.028 128.613 819.92C96.9082 830.27 63.3968 841.658 32.9959 856.983C12.7305 867.19 -5.99147 879.051 -25.8847 894.293C-31.9287 898.916 -37.7961 903.583 -43.4598 908.095C-54.2477 916.679 -65.399 925.552 -78.0782 934.388C-101.356 950.615 -299.933 1057.89 -334.448 1073.49L-333.933 1074.44C-298.768 1058.54 -99.6392 950.962 -75.7947 934.355C-62.9228 925.385 -51.7 916.453 -40.8405 907.81C-35.1713 903.304 -29.3259 898.648 -23.3425 894.062C-3.86759 879.152 14.3642 867.586 34.0402 857.673C63.681 842.733 96.7075 831.517 127.966 821.312C152.027 813.462 176.432 806.137 200.032 799.059C242.409 786.352 286.253 773.239 330.676 756.236C381.304 736.91 424.014 710.695 463.396 685.519C471.028 680.637 478.748 675.649 486.187 670.806C516.377 651.244 547.642 630.991 582.888 612.509C611.855 597.334 643.19 582.464 673.499 568.076C685.624 562.321 698.195 556.358 710.298 550.518L741.72 535.381C772.971 520.334 805.307 504.768 836.916 489.298C877.999 469.193 917.689 447.644 956.039 426.785L968.906 419.795L977.388 415.192C1026.94 388.258 1078.21 360.398 1132.76 342.435C1157.73 334.211 1183.52 327.17 1208.44 320.374C1256.77 307.185 1306.7 293.524 1357.26 269.902L1356.59 269.03C1307.02 292.229 1257.5 305.745 1209.63 318.806C1184.57 325.628 1158.61 332.729 1133.38 341.05Z"
    fill="#363636"/>
  <path
    d="M-58.709 985.293C-45.3536 976.56 -32.5408 967.805 -20.3247 959.063C-12.9311 953.894 -5.34508 948.498 2.39561 943.218C24.3304 928.271 43.674 916.808 63.2661 907.138C93.2185 892.349 125.856 880.989 154.089 871.503C176.335 864.026 198.88 857.026 220.66 850.213C260.005 837.946 300.655 825.279 341.797 809.306C390.224 790.505 430.904 766.441 471.756 741.369C480.258 736.152 488.853 730.802 497.168 725.627C527.493 706.752 558.814 687.244 593.316 669.354C622.445 654.253 653.583 639.425 683.664 625.045C696.221 619.046 709.23 612.846 721.837 606.736C760.681 587.96 805.79 566.076 850.359 544.404C894.928 522.733 937.319 499.293 978.207 476.667L981.377 474.912C1006.31 461.09 1033.05 446.433 1060.38 432.56C1093.81 415.607 1121.45 404.063 1152.73 394.068C1181.42 384.889 1209.59 377.191 1236.85 369.749C1248.91 366.452 1261.37 363.054 1273.7 359.566C1314.35 348.077 1351.06 337.124 1388.69 319.379L1387.98 318.537C1351.19 335.883 1314.94 346.67 1274.79 358.041C1262.5 361.508 1250.05 364.912 1238.01 368.198C1210.66 375.672 1182.38 383.397 1153.49 392.64C1121.47 402.88 1093.29 414.631 1059.25 431.92C1031.68 445.915 1004.92 460.62 979.887 474.468L976.717 476.224C935.949 498.775 893.801 522.098 849.408 543.684C805.015 565.27 759.725 587.202 720.908 606.005C708.334 612.083 695.359 618.284 682.796 624.277C652.61 638.684 621.407 653.576 592.106 668.767C557.213 686.853 525.689 706.452 495.226 725.449C486.912 730.624 478.339 735.964 469.853 741.165C429.463 765.95 389.278 789.727 341.821 808.155C301.081 823.973 260.585 836.597 221.421 848.816C199.57 855.624 176.976 862.672 154.631 870.181C126.029 879.79 92.9338 891.315 62.2768 906.445C42.2058 916.354 22.4936 928.066 0.151617 943.258C-7.58907 948.538 -15.2192 953.924 -22.6678 959.167C-34.7861 967.843 -47.5018 976.533 -60.7604 985.2C-85.278 1000.99 -318.106 1124.63 -347.947 1138.19L-347.365 1139.09C-316.986 1125.29 -83.6535 1001.36 -58.709 985.293Z"
    fill="#363636"/>
  <path
    d="M4.98406 1006.44C13.3762 1001.4 22.0766 996.182 30.7992 991.017C52.5042 978.103 75.9201 965.605 100.313 953.916C124.732 942.283 149.902 931.71 174.846 922.607C196.071 914.85 217.623 907.597 238.492 900.61C273.417 888.869 309.609 876.692 345.609 861.697C395.921 840.733 444.418 812.794 483.333 790.34C492.359 785.18 501.467 779.844 510.289 774.711C544.548 754.779 579.962 734.176 617.477 715.237C644.836 701.422 673.32 687.669 700.774 674.422C713.128 668.451 725.9 662.277 738.43 656.22L770.084 640.807C799.635 626.427 830.194 611.552 860.103 596.911C903.956 575.441 944.385 552.184 983.571 529.703L997.098 521.936C1021.58 507.903 1047.83 492.996 1075.79 478.613C1105.65 463.256 1133.32 452.025 1168.32 441.059C1200.93 430.876 1232.89 422.297 1263.84 414.017C1276.3 410.682 1289.22 407.225 1301.97 403.72L1305.15 402.84C1344.59 391.989 1389.29 379.709 1432.48 359.769L1431.86 358.884C1389.59 378.377 1345.34 390.556 1306.32 401.289L1303.13 402.169C1290.41 405.663 1277.54 409.11 1265.08 412.439C1234.01 420.762 1201.94 429.336 1169.15 439.604C1133.48 450.783 1105.25 462.243 1074.71 477.957C1046.56 492.441 1020.18 507.417 995.575 521.525L982.048 529.291C943.022 551.703 902.675 574.881 859.257 596.132C829.282 610.805 798.723 625.68 769.238 640.029L737.561 655.452C725.109 661.519 712.304 667.661 699.972 673.622C672.38 686.96 643.836 700.718 616.372 714.591C578.544 733.674 542.997 754.373 508.59 774.385C499.768 779.518 490.654 784.816 481.766 789.95C443.12 812.218 394.998 839.944 345.396 860.604C309.737 875.45 273.815 887.537 239.083 899.24C218.164 906.275 196.557 913.538 175.195 921.354C149.889 930.592 124.355 941.319 99.5822 953.121C74.8701 964.966 51.1469 977.628 29.1551 990.712C20.394 995.903 11.6936 1001.12 3.29591 1006.15C-38.434 1031.18 -300.67 1172.38 -349.985 1194.64L-349.447 1195.57C-299.51 1172.98 -37.0375 1031.63 4.98406 1006.44Z"
    fill="#363636"/>
  <path
    d="M1371.83 469.899L1359.11 473.286C1345.86 476.831 1332.41 480.347 1319.41 483.75C1282.94 493.286 1245.22 503.158 1206.74 514.904C1165.48 527.501 1135.76 539.623 1104.13 556.739C1075.94 572.01 1050.09 587.801 1023.85 604.003C1017.72 607.775 1011.62 611.574 1005.64 615.292C967.961 638.694 929.001 662.895 885.758 684.564C859.886 697.533 833.406 710.587 807.803 723.199C795.303 729.376 782.405 735.751 769.706 742.027C757.89 747.867 745.854 753.815 734.176 759.529C707.332 772.714 679.56 786.357 652.638 800.091C611.593 821.021 571.439 843.269 532.554 864.807C521.937 870.69 510.956 876.769 500.146 882.723L486.851 890.053C444.339 913.54 400.397 937.776 354.966 957.554C327.491 969.481 299.749 979.757 272.874 989.679C256.413 995.758 239.395 1002.04 222.559 1008.67C169.009 1029.77 118.651 1056.26 71.6495 1081.6C57.2671 1089.36 42.697 1097.29 28.6459 1104.96C-12.0886 1127.15 -317.145 1296.52 -360.272 1318.01L-359.448 1318.83C-316.145 1297.26 -10.9778 1127.83 29.8395 1105.59C43.8906 1097.93 58.4386 1090 72.8045 1082.26C121.429 1056.04 169.441 1030.79 222.378 1009.94C239.098 1003.33 256.061 997.088 272.477 991.031C299.496 981.055 327.431 970.741 355.204 958.65C401.182 938.626 445.345 914.249 488.106 890.647L501.378 883.327C512.21 877.363 523.192 871.283 533.831 865.389C572.583 843.917 612.654 821.718 653.5 800.887C680.317 787.213 708.023 773.602 734.84 760.423C746.479 754.671 758.582 748.755 770.397 742.916C783.074 736.651 795.994 730.265 808.472 724.098C834.091 711.437 860.621 698.399 886.516 685.42C930.217 663.516 969.403 639.179 1007.29 615.651C1013.25 611.944 1019.5 608.068 1025.48 604.373C1051.57 588.258 1077.28 572.554 1105.21 557.426C1136.06 540.72 1165.18 528.854 1205.69 516.489C1243.97 504.804 1281.61 494.953 1317.97 485.444C1331.04 482.015 1344.47 478.509 1357.75 474.959C1361.89 473.853 1366.14 472.721 1370.42 471.594C1413.07 460.283 1461.41 447.467 1506.98 426.181L1506.4 425.233C1461.91 446.021 1414.04 458.714 1371.83 469.899Z"
    fill="#363636"/>
  <path
    d="M1378.55 532.729C1365.66 536.282 1352.7 539.755 1340.1 543.137C1307.55 551.883 1273.91 560.913 1239.66 571.509C1199.27 584.007 1169.24 596.056 1139.25 611.81C1106.85 628.817 1076.98 647.316 1050.65 663.627L1041.8 669.105C999.393 695.371 959.362 720.221 911.242 743.934C867.512 765.487 823.811 785.367 786.821 801.967C745.043 820.663 703.712 840.169 663.125 860.348C625.957 878.862 591.084 899.311 557.401 919.021C548.863 924.027 540.039 929.205 531.363 934.238C490.739 957.807 447.139 982.502 400.25 1002.53C369.303 1015.75 337.997 1026.66 307.744 1037.21C290.416 1043.23 272.536 1049.51 254.872 1056.1C160.972 1091.26 72.934 1141.21 -12.1949 1189.53C-37.2422 1203.75 -321.529 1364.21 -345.449 1377.34L-344.101 1377.88C-320.099 1364.7 -35.8398 1204.25 -10.7043 1189.98C74.0335 1141.9 161.647 1092.17 254.622 1057.36C272.148 1050.8 289.989 1044.58 307.251 1038.57C337.703 1027.95 369.174 1016.97 400.512 1003.59C448.046 983.285 492.004 958.392 532.937 934.641C541.64 929.602 550.481 924.408 559.018 919.402C592.503 899.756 627.062 879.484 664.014 861.083C704.453 840.974 745.635 821.536 787.265 802.91C824.365 786.257 868.204 766.318 912.088 744.69C960.732 720.714 1000.98 695.757 1043.6 669.336L1052.44 663.858C1078.7 647.6 1108.34 629.236 1140.37 612.416C1169.67 597.027 1199.11 585.23 1238.71 572.989C1272.78 562.447 1306.34 553.432 1338.79 544.723C1351.38 541.336 1364.42 537.837 1377.29 534.3L1383.94 532.472C1425.21 521.143 1471.93 508.329 1516.9 487.789L1516.34 486.862C1472.25 507.005 1425.94 519.706 1385.11 530.907L1378.55 532.729Z"
    fill="#363636"/>
  <path
    d="M1015.48 795.441C987.86 802.957 959.338 810.717 930.31 819.677C910.356 825.854 894.036 831.515 879.05 837.554C861.699 844.478 844.634 852.57 829.08 861.249C799.087 877.891 771.508 895.947 749.309 910.44C743.138 914.474 736.923 918.561 730.9 922.517C711.914 934.986 692.307 947.869 671.95 960.485C651.593 973.101 629.28 986.619 605.703 997.533C568.893 1014.57 529.892 1027.62 492.075 1040.28L479.102 1044.63C476.666 1045.46 474.219 1046.27 471.777 1047.09C433.778 1059.83 386.474 1075.7 350.917 1095.48C316.776 1114.49 288.536 1134.59 261.233 1154.02C254.147 1159.06 246.813 1164.27 239.578 1169.33C202.766 1195.04 168.634 1217.8 122.435 1236.52C85.7952 1251.36 48.933 1263.46 13.2916 1275.14C-6.90749 1281.77 -27.7995 1288.62 -48.403 1295.9C-101.762 1314.73 -156.98 1339.76 -217.168 1372.39C-288.585 1411.12 -354.819 1451.99 -418.845 1491.52L-421.563 1493.19L-419.689 1493.39L-416.949 1491.7C-352.978 1452.22 -287.024 1411.49 -215.783 1372.87C-156.167 1340.55 -101.548 1315.8 -48.8155 1297.15C-28.3329 1289.92 -7.44645 1283.07 12.6428 1276.49C48.4766 1264.74 85.5148 1252.59 122.55 1237.59C169.794 1218.44 204.525 1195.32 241.919 1169.22C249.192 1164.13 256.52 1158.92 263.628 1153.87C290.739 1134.57 318.771 1114.61 352.477 1095.85C386.991 1076.64 433.685 1060.98 471.216 1048.4L478.547 1045.94C482.825 1044.5 487.142 1043.05 491.497 1041.6C529.518 1028.88 568.86 1015.72 606.291 998.392C630.472 987.204 652.846 973.65 673.741 960.699C694.445 948.003 714.079 935.054 733.164 922.522C739.187 918.565 745.402 914.479 751.557 910.46C773.629 896.035 801.104 878.099 830.74 861.62C845.823 853.206 862.37 845.361 879.193 838.647C893.877 832.761 909.884 827.179 929.562 821.086C958.37 812.169 986.837 804.42 1014.36 796.935C1025.87 793.787 1037.79 790.559 1049.55 787.281C1087.68 776.647 1130.93 764.588 1173.73 745.394L1173.17 744.499C1131.2 763.321 1088.41 775.248 1050.65 785.766C1038.97 789.029 1027.06 792.272 1015.48 795.441Z"
    fill="#363636"/>
  <path
    d="M1018.48 806.646C990.415 814.301 961.416 822.2 931.873 831.502C904.195 840.222 871.266 851.713 837.036 870.826C806.555 887.84 779.899 905.44 754.137 922.453C748.486 926.175 742.796 929.954 737.276 933.613C719.043 945.718 700.162 958.208 680.707 970.475C661.977 982.243 638.647 996.893 615.039 1007.9C578.847 1024.77 537.793 1037.57 501.582 1048.85C496.09 1050.57 490.917 1052.18 485.755 1053.81L477.773 1056.36C439.792 1068.28 392.543 1083.1 358.216 1102.62C324.486 1121.73 297.508 1141.8 271.302 1161.23C264.677 1166.14 257.832 1171.22 251.058 1176.15C234.295 1188.32 216.292 1201.23 195.524 1213.97C176.199 1225.83 157.521 1235.04 133.064 1244.77C95.9956 1259.5 58.7646 1271.6 22.7868 1283.28C1.49702 1290.19 -20.5294 1297.34 -42.2779 1304.97C-71.5187 1315.23 -101.148 1327.24 -129.977 1340.53C-158.769 1353.83 -186.725 1367.94 -213.252 1382.55C-285.896 1422.26 -352.341 1463.7 -419.644 1506.2L-417.645 1506.32C-350.462 1463.9 -284.198 1422.57 -211.813 1383.02C-185.535 1368.54 -157.838 1354.57 -129.312 1341.39C-100.892 1328.27 -71.6757 1316.41 -42.8326 1306.27C-21.1391 1298.65 0.75 1291.56 21.9848 1284.66C58.133 1272.92 95.5454 1260.78 133.009 1245.89C158.17 1235.88 177.386 1226.41 197.293 1214.19C218.319 1201.29 236.52 1188.26 253.364 1176.01C260.16 1171.07 267.005 1165.99 273.735 1161.02C299.715 1141.75 326.579 1121.82 359.787 1102.96C392.995 1084.1 439.666 1069.42 477.081 1057.68L485.047 1055.18C490.231 1053.55 495.382 1051.95 500.851 1050.24C537.431 1038.83 578.887 1025.91 615.848 1008.68C640.164 997.342 663.768 982.516 682.756 970.587C702.359 958.273 721.273 945.72 739.55 933.594C745.064 929.93 750.76 926.156 756.384 922.44C782.014 905.521 808.517 888.025 838.663 871.192C852.726 863.315 868.178 855.938 883.948 849.573C899.875 843.221 915.776 837.598 931.214 832.861C960.575 823.606 989.492 815.724 1017.48 808.089C1028.85 805.014 1040.57 801.771 1052.23 798.56C1087.22 788.762 1130.75 776.585 1173.09 757.656L1172.53 756.768C1131.04 775.316 1087.92 787.382 1053.22 797.112C1041.56 800.349 1029.83 803.55 1018.48 806.646Z"
    fill="#363636"/>
  <path
    d="M-33.0517 1313.92C-11.538 1306.49 10.2589 1299.47 31.3636 1292.7C67.6661 1281 105.243 1268.89 142.839 1254.26C169.142 1244.02 188.551 1234.57 207.715 1222.66C229.057 1209.39 247.445 1195.74 264.457 1182.89C270.803 1178.09 277.154 1173.17 283.418 1168.36C308.286 1149.17 334.026 1129.31 366.888 1110.28C399.174 1091.58 447.639 1077.34 483.03 1066.91L491.223 1064.51C496.757 1062.87 502.346 1061.25 508.282 1059.52C545.448 1048.71 587.572 1036.47 624.605 1019C646.915 1008.46 669.056 994.519 686.815 983.307L687.78 982.696C708.018 969.912 727.445 956.903 746.242 944.324C751.089 941.078 756.09 937.729 761.025 934.442L761.738 933.966C788.168 916.331 815.508 898.096 846.432 880.798C871.353 866.846 897.174 856.039 932.834 844.642C962.571 835.137 991.816 827.135 1020.09 819.4C1031.35 816.33 1043.01 813.134 1054.52 809.899C1095.96 798.252 1133.42 787.216 1172.12 769.941L1171.54 769.07C1133.61 785.987 1096.59 796.902 1055.58 808.428C1044.09 811.659 1032.57 814.792 1021.2 817.919C992.826 825.68 963.47 833.673 933.541 843.276C897.068 854.935 870.544 866.044 844.877 880.41C813.63 897.899 786.13 916.232 759.564 933.955L758.829 934.441L744.051 944.328C725.315 956.872 705.926 969.855 685.869 982.531L684.904 983.141C667.359 994.213 645.476 1008.02 623.89 1018.2C587.735 1035.24 546.09 1047.35 509.352 1058.03C503.411 1059.75 497.778 1061.39 492.25 1063.04L484.067 1065.45C448.099 1076.02 398.805 1090.51 365.273 1109.93C331.741 1129.35 306.002 1149.24 280.937 1168.58C274.733 1173.36 268.272 1178.33 262.025 1183.07C245.145 1195.82 226.904 1209.37 205.859 1222.45C187.051 1234.14 168.855 1243.03 142.931 1253.1C105.583 1267.68 68.2582 1279.65 32.126 1291.29C10.9939 1298.09 -10.8744 1305.14 -32.487 1312.6C-90.8696 1332.77 -147.206 1358.23 -209.759 1392.72C-280.131 1431.53 -343.754 1471.27 -417.717 1519.05L-415.641 1519.12C-341.875 1471.47 -278.395 1431.81 -208.27 1393.14C-146.441 1359.02 -90.7147 1333.83 -33.0517 1313.92Z"
    fill="#363636"/>
  <path
    d="M-413.021 1539.74C-354.274 1500.5 -283.516 1454.38 -204.313 1409.88C-173.432 1392.53 -144.591 1377.75 -116.071 1364.68C-85.3397 1350.57 -53.7451 1337.95 -22.7379 1327.38C-1.64813 1320.16 19.7739 1313.28 40.52 1306.64C78.4002 1294.47 117.567 1281.89 156.796 1266.57C184.315 1255.83 201.812 1247.13 221.363 1234.52C241.76 1221.38 259.127 1207.95 273.817 1196.38C280.534 1191.09 287.288 1185.62 293.79 1180.35C317.738 1160.95 342.481 1140.91 375.212 1121.55C407.312 1102.53 456.38 1088.99 492.23 1079.09L501.599 1076.5C506.399 1075.16 511.226 1073.85 516.351 1072.43C551.525 1062.77 591.394 1051.83 627.776 1035.51C650.996 1025.09 673.841 1010.46 692.29 998.678L694.096 997.518C714.987 984.151 734.825 970.611 754.253 957.397C759.613 953.744 765.143 949.971 770.613 946.266L771.151 945.903C797.492 928.043 824.716 909.585 855.848 892.006C872.889 882.366 896.349 870.576 941.051 856.198C969.586 847.01 997.716 839.23 1024.9 831.714C1035.98 828.651 1047.45 825.482 1058.8 822.258C1097.31 811.316 1135.05 800.065 1173.3 782.892L1172.72 782.014C1135.18 798.802 1097.79 809.979 1059.7 820.784C1048.38 824.003 1036.94 827.167 1025.86 830.23C998.562 837.768 970.339 845.584 941.578 854.84C915.962 863.13 885.464 873.947 854.134 891.651C822.804 909.355 795.388 927.942 768.888 945.901L768.35 946.264C762.864 949.985 757.333 953.757 751.973 957.41C732.71 970.53 712.8 984.097 692.096 997.36L690.29 998.519C672.198 1010.11 649.682 1024.53 627.248 1034.59C591.739 1050.52 552.31 1061.35 517.538 1070.89C512.413 1072.3 507.541 1073.63 502.736 1074.97C499.75 1075.81 496.627 1076.67 493.4 1077.56C456.907 1087.63 406.943 1101.42 373.465 1121.26C339.988 1141.09 315.289 1161.15 291.166 1180.69C284.658 1185.96 277.942 1191.4 271.263 1196.66C256.7 1208.13 239.459 1221.46 219.336 1234.43C200.449 1246.61 183.501 1255.01 156.833 1265.44C117.89 1280.65 78.8776 1293.16 41.1844 1305.28C20.4055 1311.96 -1.06601 1318.85 -22.2712 1326.12C-53.6631 1336.82 -85.6523 1349.6 -116.764 1363.88C-145.663 1377.13 -174.74 1392.03 -205.889 1409.53C-285.34 1454.17 -356.273 1500.4 -415.174 1539.75L-413.021 1539.74Z"
    fill="#363636"/>
  <path
    d="M-409.482 1563.7C-329.934 1508.49 -265.376 1467.14 -200.107 1429.57C-164.343 1409.01 -136.123 1394.14 -108.66 1381.39C-81.6478 1368.85 -52.5482 1357.33 -17.0935 1345.14C5.11447 1337.5 27.6713 1330.25 49.4909 1323.24C88.9214 1310.58 129.711 1297.47 170.625 1281.37C197.343 1270.85 215.951 1261.42 234.814 1248.83C255.309 1235.16 272.316 1221.36 288.004 1208.37C293.702 1203.65 299.46 1198.77 305.003 1194.07C327.952 1174.59 351.723 1154.45 384.054 1134.8C415.434 1115.76 465.848 1102.5 499.24 1093.7L506.548 1091.77C512.266 1090.25 518.182 1088.73 524.445 1087.13C560.59 1077.8 601.556 1067.23 638.213 1050.31C660.469 1040.03 682.52 1025.57 700.203 1013.97L704.104 1011.39C724.468 998.063 743.988 984.501 762.844 971.406C768.666 967.365 774.675 963.187 780.607 959.093C805.878 941.642 832.006 923.592 862.055 906.168C887.234 891.561 913.415 880.294 949.549 868.523C974.543 860.381 1000.38 853.285 1025.4 846.411C1074.19 832.997 1124.46 819.217 1175.07 796.263L1174.49 795.373C1124.77 817.922 1074.83 831.633 1026.54 844.893C1001.42 851.793 975.451 858.927 950.232 867.137C913.256 879.178 886.355 890.766 860.395 905.825C830.044 923.433 803.74 941.567 778.354 959.128C772.405 963.238 766.413 967.4 760.591 971.441C741.757 984.526 722.292 998.045 702.026 1011.31L697.999 1013.95C680.607 1025.37 658.908 1039.6 637.427 1049.51C601.82 1065.95 561.305 1076.42 525.606 1085.63C519.354 1087.25 513.416 1088.78 507.666 1090.3L500.38 1092.22C483.21 1096.73 461.819 1102.36 440.831 1109.28C415.91 1117.49 396.718 1125.78 382.136 1134.62C349.245 1154.59 325.385 1174.86 302.179 1194.53C296.63 1199.23 290.916 1204.09 285.235 1208.8C269.711 1221.65 252.847 1235.34 232.621 1248.83C214.164 1261.15 196.788 1269.96 170.587 1280.27C130.019 1296.23 89.4224 1309.27 50.168 1321.88C28.2989 1328.91 5.64853 1336.19 -16.6365 1343.85C-52.5257 1356.2 -81.9938 1367.87 -109.413 1380.59C-137.25 1393.51 -165.75 1408.53 -201.822 1429.27C-267.218 1466.91 -332.006 1508.38 -411.73 1563.74L-409.482 1563.7Z"
    fill="#363636"/>
  <path
    d="M-405.193 1587.25C-329.359 1532.43 -262.776 1488.46 -195.699 1448.89C-171.337 1434.52 -138.919 1415.91 -104.029 1399.4C-77.1035 1386.66 -48.613 1375.28 -11.6318 1362.49C11.7374 1354.38 35.4225 1346.78 58.3477 1339.39C97.9972 1326.61 138.902 1313.45 180.04 1297.34C203.554 1288.14 223.783 1278.97 245.151 1264.56C265.507 1250.86 282.036 1236.95 297.229 1223.89C303.226 1218.73 309.26 1213.39 315.059 1208.22C337.395 1188.41 360.478 1167.91 392.958 1147.87C424.81 1128.21 475.717 1115.49 509.351 1107.09C512 1106.45 514.628 1105.8 517.233 1105.12C522.268 1103.85 527.479 1102.56 533.02 1101.21C567.833 1092.64 611.189 1081.97 648.076 1064.37C670.339 1053.76 692.489 1038.95 710.255 1027.02L714.011 1024.5C733.9 1011.21 752.995 997.725 771.434 984.663C777.698 980.231 784.193 975.64 790.606 971.129C813.528 955.036 839.399 936.852 868.491 919.53C894.58 903.992 921.47 892.163 958.365 879.981C982.573 871.984 1007.53 864.991 1031.7 858.217C1079.08 844.941 1128.06 831.227 1177.44 808.53L1176.84 807.637C1128.48 829.86 1079.81 843.515 1032.88 856.659C1008.64 863.449 983.571 870.469 959.138 878.535C921.362 891.015 893.778 903.163 866.908 919.157C837.512 936.665 811.554 954.923 788.472 971.117C782.038 975.639 775.543 980.23 769.257 984.673C750.773 997.756 731.712 1011.21 712.032 1024.41L708.275 1026.93C690.74 1038.68 668.943 1053.28 647.434 1063.54C611.647 1080.61 568.891 1091.12 534.53 1099.58C528.995 1100.94 523.751 1102.23 518.738 1103.49L510.861 1105.46C476.501 1114.05 424.574 1127.04 391.209 1147.62C358.147 1168.02 334.81 1188.72 312.376 1208.67C306.594 1213.85 300.548 1219.15 294.595 1224.29C278.897 1237.79 263.17 1251 243.089 1264.52C222.403 1278.45 202.956 1287.25 180.13 1296.19C139.317 1312.16 98.522 1325.31 59.0872 1338.01C36.1124 1345.41 12.3668 1353.05 -11.1182 1361.17C-48.5399 1374.12 -77.4212 1385.66 -104.771 1398.6C-140.095 1415.32 -172.81 1434.09 -197.376 1448.58C-264.723 1488.31 -331.492 1532.42 -407.514 1587.41L-405.193 1587.25Z"
    fill="#363636"/>
  <path
    d="M-399.89 1610.43C-327.779 1556.1 -259.465 1509.57 -191.077 1468.19C-165.974 1453 -132.414 1433.29 -95.5066 1415.65C-64.169 1400.66 -32.9986 1389.26 -6.63265 1380.1C17.8926 1371.57 42.7225 1363.55 66.7092 1355.81C106.426 1342.97 147.4 1329.75 188.724 1313.66C214.817 1303.5 235.429 1294.16 257.56 1278.91C277.317 1265.27 293.085 1251.64 306.338 1239.91C312.584 1234.39 318.819 1228.66 324.829 1223.12C346.109 1203.55 368.122 1183.31 399.529 1163.35C418.799 1151.09 440.475 1143.68 461.006 1137.14C482.733 1130.23 503.24 1125.08 522.408 1120.4C527.954 1119.04 533.704 1117.68 539.801 1116.24C574.262 1108.1 617.114 1097.95 654.678 1080.17C677.355 1069.43 699.7 1054.32 717.663 1042.18L720.587 1040.2C741.011 1026.41 760.552 1012.4 779.437 998.847C785.257 994.67 791.269 990.36 797.221 986.119L797.447 985.953C822.736 967.923 848.945 949.244 878.681 931.418C904.248 916.096 930.795 904.322 967.468 892.033C990.958 884.163 1015.1 877.241 1038.36 870.592C1084.37 857.44 1132.11 843.757 1180.34 821.368L1179.72 820.473C1132.36 842.455 1085.11 855.982 1039.42 869.059C1016.02 875.761 991.815 882.683 968.11 890.634C931.051 903.03 902.961 915.522 876.959 931.097C846.876 949.132 820.596 967.869 795.175 985.996L794.927 986.173C788.98 990.419 782.968 994.729 777.148 998.906C758.295 1012.43 738.826 1026.41 718.468 1040.14L715.467 1042.17C697.802 1054.12 675.809 1068.99 653.914 1079.37C617.502 1096.63 575.213 1106.61 541.204 1114.65C535.112 1116.09 529.334 1117.46 523.761 1118.82C504.439 1123.55 483.744 1128.74 461.769 1135.73C440.488 1142.51 418.013 1150.2 397.598 1163.17C365.612 1183.5 343.435 1203.91 321.962 1223.65C315.974 1229.17 309.756 1234.88 303.526 1240.4C290.416 1252.01 274.796 1265.52 255.331 1278.93C234.054 1293.6 214.098 1302.65 188.804 1312.49C147.854 1328.43 107.007 1341.61 67.5053 1354.37C43.447 1362.14 18.5674 1370.17 -6.07902 1378.75C-32.8638 1388.08 -64.3374 1399.57 -96.2314 1414.82C-133.602 1432.69 -167.448 1452.56 -192.777 1467.89C-261.473 1509.42 -329.908 1556.06 -402.338 1610.59L-399.89 1610.43Z"
    fill="#363636"/>
  <path
    d="M-181.033 1484.27C-156.037 1468.88 -122.771 1449.02 -86.9884 1431.85C-57.1998 1417.57 -26.1695 1406.26 2.90384 1396.17C26.8199 1387.87 51.1287 1380.03 74.6101 1372.44C116.918 1358.79 160.681 1344.66 204.61 1327.15C232.45 1316.05 250.519 1306.68 269.051 1293.74C289.248 1279.65 304.83 1265.79 319.074 1252.8C324.451 1247.89 329.845 1242.79 335.074 1237.86C356.38 1217.75 378.396 1196.96 411.11 1176.59C443.823 1156.21 494.225 1144.18 527.414 1136.36L533.085 1135.01C537.979 1133.84 543.01 1132.68 548.334 1131.45C581.888 1123.68 623.684 1114.02 660.928 1096.5C683.4 1085.94 705.421 1070.94 723.116 1058.9L726.748 1056.43C747.866 1042.07 768.012 1027.47 787.474 1013.37C792.722 1009.56 798.145 1005.63 803.503 1001.77L805.101 1000.61C831.062 981.887 857.883 962.543 888.657 944.063C913.466 929.173 940.538 917.09 976.479 904.853C999.259 897.094 1022.53 890.275 1045.07 883.67C1089.96 870.516 1136.39 856.898 1183.51 834.791L1182.86 833.89C1136.59 855.603 1090.59 869.091 1046.08 882.132C1023.47 888.758 1000.07 895.621 977.094 903.444C940.271 915.983 912.527 928.38 886.979 943.713C855.874 962.388 828.904 981.845 802.805 1000.66L801.207 1001.82C795.855 1005.69 790.409 1009.63 785.162 1013.44C765.738 1027.51 745.653 1042.07 724.629 1056.36L720.974 1058.84C703.577 1070.69 681.919 1085.43 660.281 1095.61C624.15 1112.59 582.928 1122.11 549.843 1129.78C544.497 1131.02 539.466 1132.19 534.545 1133.36C532.73 1133.78 530.838 1134.23 528.874 1134.71C495.033 1142.71 443.887 1154.81 409.282 1176.35C375.918 1197.13 353.681 1218.11 332.194 1238.41C326.706 1243.54 321.588 1248.42 316.221 1253.31C302.138 1266.17 286.698 1279.9 266.844 1293.78C249.006 1306.23 231.56 1315.27 204.663 1326C161.065 1343.38 117.495 1357.44 75.3196 1371.05C51.7554 1378.66 27.397 1386.52 3.35952 1394.87C-25.9675 1405.03 -57.4446 1416.52 -87.8122 1431.08C-124.086 1448.48 -157.688 1468.53 -182.883 1484.05C-254.584 1528.15 -324.235 1576.96 -395.771 1633.17L-393.255 1632.95C-321.934 1576.91 -252.525 1528.25 -181.033 1484.27Z"
    fill="#363636"/>
  <path
    d="M-175.324 1503.31C-148.844 1486.6 -117.045 1467.24 -82.3157 1450.25C-50.4892 1434.72 -16.7752 1422.69 12.309 1412.65C35.6316 1404.6 59.2584 1396.98 82.2671 1389.53C124.421 1375.91 168.021 1361.83 211.871 1344.46C239.816 1333.39 259.409 1323.44 277.409 1311.19C297.726 1297.34 313.206 1283.55 327.302 1270.6C333.037 1265.32 338.772 1259.87 344.214 1254.62C364.772 1234.99 385.996 1214.71 417.767 1194.73C453.604 1172.16 503.17 1160.52 539.374 1152.01L543.723 1150.98C547.835 1150.02 552.063 1149.03 556.518 1148.01C590.486 1140.17 632.744 1130.42 670.149 1112.03C693.809 1100.38 715.478 1085.61 734.559 1072.5L736.12 1071.43C756.856 1057.24 776.642 1042.84 795.826 1028.91C801.535 1024.75 807.46 1020.44 813.301 1016.21L814.658 1015.23C840.699 996.38 867.634 976.845 898.722 958.316C923.229 943.676 950.041 931.649 985.693 919.314C1007.77 911.727 1030.34 904.896 1052.14 898.346C1095.91 885.187 1141.16 871.59 1187.22 849.766L1186.58 848.862C1141.35 870.306 1096.48 883.779 1053.11 896.813C1031.23 903.384 1008.59 910.189 986.238 917.922C949.802 930.528 922.223 942.876 897.082 957.935C865.635 976.697 838.557 996.319 812.367 1015.28L811.01 1016.26C805.168 1020.49 799.244 1024.8 793.513 1028.98C774.472 1042.85 754.658 1057.26 733.939 1071.43L732.356 1072.51C713.539 1085.39 692.202 1100 669.259 1111.28C633.085 1129.09 591.434 1138.68 557.951 1146.39C553.475 1147.42 549.269 1148.39 545.129 1149.36L540.78 1150.39C523.056 1154.56 501.027 1159.74 479.095 1166.72C453.166 1174.97 432.479 1184.06 415.846 1194.52C383.512 1214.86 362.006 1235.39 341.289 1255.19C335.499 1260.72 330.045 1265.92 324.359 1271.16C310.391 1283.96 295.087 1297.61 275.14 1311.2C257.62 1323.11 239.307 1332.43 211.77 1343.34C168.296 1360.56 124.872 1374.59 82.8671 1388.16C59.897 1395.58 36.1544 1403.25 12.7104 1411.35C-16.6884 1421.5 -50.8163 1433.67 -83.2829 1449.53C-118.519 1466.72 -150.606 1486.29 -177.329 1503.16C-249.493 1548.68 -320.292 1599.79 -387.689 1655.11L-384.918 1654.72C-317.736 1599.6 -247.202 1548.66 -175.324 1503.31Z"
    fill="#363636"/>
  <path
    d="M-77.9504 1468.15C-46.7799 1452.63 -13.0935 1440.56 16.2968 1430.33C40.5844 1421.89 65.2039 1413.93 89.0224 1406.21C130.922 1392.65 174.246 1378.62 217.871 1361.46C248.001 1349.59 268.034 1339.51 286.965 1326.7C307.653 1312.71 323.446 1298.62 336.633 1286.5C342.071 1281.5 347.281 1276.51 352.801 1271.23C373.953 1250.99 395.834 1230.07 429.349 1209.89C465.906 1187.89 513.662 1176.42 548.522 1168C552.753 1166.98 557.027 1165.98 561.54 1164.91C596.731 1156.59 636.645 1147.18 675.58 1128.23C701.499 1115.62 725.731 1098.96 745.209 1085.58C765.548 1071.61 785.054 1057.39 803.907 1043.65C810.113 1039.12 816.556 1034.44 822.916 1029.83L823.871 1029.13C850.155 1010.11 877.318 990.441 908.635 971.893C932.676 957.659 960.087 945.315 994.894 933.04C1016.43 925.451 1038.26 918.696 1059.38 912.174C1102.23 898.903 1146.37 885.267 1191.45 863.679L1190.76 862.783C1146.5 883.977 1102.68 897.532 1060.31 910.634C1039.1 917.188 1017.16 923.971 995.457 931.62C959.893 944.162 931.808 956.823 907.083 971.462C875.302 990.272 847.968 1010.07 821.528 1029.2L820.573 1029.9C814.191 1034.51 807.776 1039.2 801.543 1043.73C782.728 1057.44 763.35 1071.59 743.022 1085.54C723.798 1098.75 699.958 1115.13 674.751 1127.4C636.998 1145.78 597.636 1155.08 562.936 1163.27C558.424 1164.33 554.149 1165.34 549.869 1166.38C514.346 1174.93 465.684 1186.65 427.581 1209.54C393.315 1230.16 371.203 1251.31 349.835 1271.76C344.315 1277.04 339.127 1282.03 333.717 1286.99C320.69 1298.96 305.09 1312.89 284.794 1326.61C266.531 1338.96 247.149 1348.7 217.871 1360.24C174.598 1377.29 131.451 1391.26 89.7008 1404.78C65.8325 1412.51 41.191 1420.52 16.7764 1428.95C-12.8017 1439.23 -47.0127 1451.5 -78.8182 1467.35C-111.618 1483.68 -141.576 1502.3 -166.521 1518.34C-241.04 1566.24 -312.275 1619.25 -378.132 1675.83L-375.448 1675.48C-309.828 1619.09 -238.881 1566.29 -164.643 1518.57C-139.869 1502.69 -110.264 1484.25 -77.9504 1468.15Z"
    fill="#363636"/>
  <path
    d="M-154.877 1547.14C-129.765 1530.25 -102.282 1512.42 -71.5204 1496.48C-41.8094 1481.08 -9.72181 1469.4 20.5914 1458.77C46.2505 1449.77 72.3075 1441.34 97.5575 1433.14C141.247 1418.98 186.413 1404.35 231.828 1386.08C255.307 1376.78 278.501 1365.03 298.32 1352.41C315.085 1341.75 330.795 1329.77 347.726 1314.75C353.464 1309.66 358.948 1304.58 364.757 1299.19C386.365 1279.18 408.648 1258.44 443.085 1238.96C481.225 1217.42 521.643 1205.27 559.722 1195.32L568.699 1192.99C606.104 1183.3 644.852 1173.23 685.851 1152.55C732.122 1129.23 772.325 1099.73 807.62 1073.79C815.734 1067.83 823.39 1062.21 831.073 1056.69L833.014 1055.31C859.458 1036.25 886.82 1016.59 918.029 998.023C942.71 983.34 970.52 970.262 1003.07 958.046C1026.41 949.274 1049.83 941.657 1072.49 934.299C1113.67 920.908 1156.27 907.045 1199.87 885.83L1199.05 884.993C1156.22 905.861 1114.02 919.587 1073.22 932.857C1050.45 940.271 1026.92 947.92 1003.34 956.78C970.116 969.249 941.682 982.63 916.376 997.649C884.836 1016.42 857.313 1036.22 830.714 1055.35L828.779 1056.73C821.041 1062.27 813.402 1067.91 805.27 1073.88C770.192 1099.64 730.425 1128.81 684.928 1151.78C645.035 1171.91 606.839 1181.8 570.053 1191.32L561.049 1193.66C522.29 1203.78 481.026 1216.18 441.741 1238.4C406.481 1258.35 383.834 1279.35 361.905 1299.68C356.134 1305.07 350.645 1310.11 344.963 1315.16C328.274 1329.96 312.852 1341.72 296.451 1352.16C277.198 1364.42 254.661 1375.83 231.85 1384.86C186.811 1402.97 141.822 1417.55 98.3258 1431.64C73.0593 1439.83 46.9415 1448.3 21.1609 1457.34C-9.54485 1468.11 -42.0691 1479.94 -72.5208 1495.7C-103.763 1511.89 -131.551 1529.91 -156.873 1546.99C-196.641 1573.83 -233.605 1600.8 -267.299 1627.57C-301.021 1654.32 -331.92 1680.82 -359.728 1706.83L-356.904 1706.35C-329.188 1680.44 -298.402 1654.04 -264.812 1627.38C-231.279 1600.73 -194.478 1573.87 -154.877 1547.14Z"
    fill="#363636"/>
  <g opacity="0.3" filter="url(#filter0_f)">
    <circle cx="525.5" cy="520.5" r="485.5" fill="#B983F1"/>
  </g>
  <g style="mix-blend-mode:luminosity" opacity="0.7">
    <rect x="0" width="1440" height="900" fill="#090909"/>
  </g>
  <defs>
    <filter id="filter0_f" x="-460" y="-465" width="1971" height="1971" filterUnits="userSpaceOnUse" color-interpolation-filters="sRGB">
      <feFlood flood-opacity="0" result="BackgroundImageFix"/>
      <feBlend mode="normal" in="SourceGraphic" in2="BackgroundImageFix" result="shape"/>
      <feGaussianBlur stdDeviation="250" result="effect1_foregroundBlur"/>
    </filter>
  </defs>
</svg>
