<svg viewBox="0 0 24 24" fill="none" xmlns="http://www.w3.org/2000/svg">
<path fill-rule="evenodd" clip-rule="evenodd" d="M8.77264 12.1619C8.50425 12.0045 8.18437 11.9595 7.88285 12.0367C7.58133 12.1139 7.32267 12.307 7.16333 12.5738C7.08486 12.7061 7.03331 12.8525 7.01164 13.0046C6.98997 13.1568 6.99861 13.3117 7.03706 13.4606C7.0755 13.6094 7.143 13.7492 7.23569 13.8719C7.32838 13.9946 7.44442 14.0979 7.57718 14.1758C8.52613 14.7378 9.46005 15.1358 10.3809 15.3658L7.73551 18.0007C7.6262 18.1093 7.53945 18.2383 7.48026 18.3804C7.42107 18.5225 7.3906 18.6748 7.3906 18.8287C7.3906 18.9826 7.42107 19.135 7.48026 19.2771C7.53945 19.4192 7.6262 19.5482 7.73551 19.6567C7.95638 19.8763 8.25544 19.9996 8.56722 19.9996C8.87899 19.9996 9.17806 19.8763 9.39892 19.6567L12.0474 17.0208L14.6988 19.6567C14.9195 19.8765 15.2187 20 15.5305 20C15.8424 20 16.1415 19.8765 16.3622 19.6567C16.4715 19.5482 16.5583 19.4192 16.6175 19.2771C16.6767 19.135 16.7071 18.9826 16.7071 18.8287C16.7071 18.6748 16.6767 18.5225 16.6175 18.3804C16.5583 18.2383 16.4715 18.1093 16.3622 18.0007L13.7709 15.4208C14.7209 15.1978 15.6387 14.7628 16.5256 14.1068C16.6493 14.0157 16.7538 13.901 16.833 13.7695C16.9122 13.6379 16.9647 13.4921 16.9873 13.3403C17.0099 13.1885 17.0023 13.0337 16.9648 12.8849C16.9274 12.736 16.8609 12.596 16.7691 12.4728C16.583 12.2243 16.306 12.0593 15.9984 12.0139C15.6908 11.9686 15.3778 12.0466 15.1277 12.2309C14.2018 12.9158 13.2518 13.2538 12.2728 13.2668C12.2415 13.2643 12.2101 13.263 12.1786 13.2628L12.1756 13.7288L12.1726 13.7298L12.1756 13.2668C11.1235 13.2598 9.98813 12.8818 8.77364 12.1619H8.77264ZM12.0023 4.00001C13.1055 4.00001 14.1066 4.447 14.8301 5.17199C15.202 5.54336 15.4968 5.98432 15.6976 6.46959C15.8985 6.95486 16.0014 7.4749 16.0005 7.99993C16.0005 8.52416 15.897 9.04325 15.696 9.52757C15.495 10.0119 15.2003 10.452 14.8288 10.8226C14.4574 11.1933 14.0164 11.4874 13.5311 11.688C13.0458 11.8886 12.5256 11.9919 12.0003 11.9919C11.475 11.9919 10.9548 11.8886 10.4695 11.688C9.98412 11.4874 9.54314 11.1933 9.17169 10.8226C8.80023 10.452 8.50558 10.0119 8.30455 9.52757C8.10352 9.04325 8.00005 8.52416 8.00005 7.99993C8.00005 6.89395 8.44897 5.89397 9.17246 5.16999C9.54315 4.79816 9.984 4.50332 10.4695 4.3025C10.9551 4.10169 11.4757 3.99888 12.0013 4.00001H12.0023ZM13.4152 6.58596C13.2296 6.39982 13.009 6.2522 12.766 6.15162C12.5229 6.05104 12.2624 5.9995 11.9993 5.99997C11.4471 5.99997 10.9471 6.22397 10.5854 6.58596C10.3993 6.77156 10.2518 6.99203 10.1514 7.23468C10.051 7.47733 9.99957 7.7374 10.0002 7.99993C10.0002 8.55192 10.2236 9.05291 10.5864 9.4139C10.7717 9.59985 10.992 9.74741 11.2346 9.84809C11.4773 9.94878 11.7375 10.0006 12.0003 10.0006C12.2631 10.0006 12.5233 9.94878 12.7659 9.84809C13.0085 9.74741 13.2289 9.59985 13.4142 9.4139C13.7899 9.03886 14.0009 8.53025 14.0009 7.99993C14.0009 7.46961 13.7899 6.96101 13.4142 6.58596H13.4152Z" fill="white"/>
</svg>
