<svg width="230" height="174" viewBox="0 0 230 174" fill="none" xmlns="http://www.w3.org/2000/svg">
<g clip-path="url(#clip0)">
<rect width="230" height="174" rx="4" fill="black"/>
<path d="M-160.294 -38.8013C-139.39 -41.2397 -118.116 -42.9466 -97.39 -38.2807C-87.676 -36.0927 -78.4826 -31.9606 -68.7356 -29.9638C-56.9522 -27.5451 -45.2084 -29.0148 -33.6293 -31.8947C-4.2565 -39.1967 24.7736 -49.1678 55.4578 -48.6801C70.7274 -48.4362 83.3082 -43.7506 97.418 -38.7947C114.493 -32.7976 130.666 -35.6709 147.504 -41.7274C185.648 -55.4417 211.93 -89.0388 249.785 -102.74C278.34 -113.06 309.315 -110.464 338.417 -103.999C401.255 -90.0208 460.284 -60.0812 517.217 -31.0643C520.287 -33.2944 523.154 -35.7908 525.785 -38.5245C468.265 -66.7638 408.63 -95.6489 345.37 -108.447C315.252 -114.537 283.421 -116.402 254.042 -105.956C214.573 -91.9254 185.563 -59.0136 145.448 -45.8001C127.463 -39.8689 110.519 -38.2345 92.6335 -44.5612C78.069 -49.7082 64.7699 -54.7629 49.0653 -55.4285C19.2839 -56.7004 -9.52209 -47.8761 -37.992 -40.4686C-49.5184 -37.4701 -61.2754 -35.3612 -73.1774 -37.0549C-82.964 -38.4454 -92.3221 -42.0173 -102.043 -43.7901C-122.196 -47.4543 -142.843 -45.932 -163.055 -43.6188C-211.316 -38.0961 -259.187 -28.9489 -307.039 -20.8362C-350.311 -13.4486 -395.303 -3.10187 -439.339 -2.98984C-439.662 -0.841408 -439.774 0.19986 -439.906 2.22966C-394.09 2.17035 -347.121 -8.84857 -302.136 -16.434C-254.976 -24.4213 -207.823 -33.2523 -160.294 -38.8013Z" fill="#222222"/>
<path d="M-155.782 -29.6935C-135.306 -31.9803 -114.659 -33.2259 -94.4134 -28.5995C-84.1919 -26.2666 -74.5372 -21.9038 -64.2828 -19.7422C-52.4203 -17.2379 -40.4787 -18.5494 -28.7481 -21.3371C0.0776978 -28.1844 28.1654 -38.9594 58.2433 -38.597C72.9001 -38.419 84.6505 -33.852 98.0814 -28.8763C115.071 -22.5826 131.369 -26.3523 148.016 -32.6064C182.074 -45.4113 205.022 -76.6359 239.159 -88.36C264.321 -96.9998 291.835 -93.2038 317.076 -86.9497C378.424 -71.746 436.122 -41.5955 491.968 -12.9477C496.163 -16.593 500.609 -19.9382 505.274 -22.9583C449.039 -52.3377 390.808 -82.9296 328.688 -97.8697C300.93 -104.559 270.898 -107.926 243.542 -97.7709C207.46 -84.3729 183.623 -50.8285 147.324 -37.1076C131.448 -31.1104 115.948 -27.6967 99.696 -33.4697C86.186 -38.2675 74.3631 -42.5841 59.68 -42.5841C28.8112 -42.6434 -0.113403 -32.0067 -29.7037 -24.8365C-41.52 -21.9763 -53.4616 -20.7769 -65.3833 -23.6107C-75.3808 -25.9898 -84.7191 -30.57 -94.6968 -33.0743C-115.496 -38.2872 -136.802 -36.6397 -157.871 -34.1881C-205.921 -28.5995 -253.601 -19.6895 -301.288 -11.7021C-346.537 -4.1431 -393.908 7.06693 -440 7.00103C-439.943 8.56561 -439.684 10.1163 -439.229 11.6142C-393.361 11.8317 -346.306 0.760056 -301.321 -6.83852C-252.949 -15.0434 -204.563 -24.2566 -155.782 -29.6935Z" fill="#222222"/>
<path d="M-161.635 -21.1921C-139.992 -23.7755 -118.495 -24.9552 -96.9843 -20.8165C-86.4992 -18.7999 -76.37 -15.0368 -65.8058 -13.442C-24.9462 -7.28011 13.5673 -33.7268 54.8487 -31.5323C69.5186 -30.7546 81.2888 -25.1331 94.6406 -19.8873C112.144 -13.007 128.996 -16.5921 146.433 -22.4377C178.541 -33.1864 202.319 -61.3202 234.809 -69.6305C258.474 -75.687 283.781 -70.1248 306.735 -63.6993C365.092 -47.3818 420.456 -19.5446 474.668 6.91529C476.692 3.36605 479.101 0.0508804 481.851 -2.97009C426.111 -30.9194 368.723 -60.5887 307.921 -76.0824C284.855 -81.9675 259.549 -86.0337 236.232 -79.0217C203.69 -69.2351 180.96 -39.9942 148.885 -28.0921C131.236 -21.548 113.957 -17.5873 96.0641 -24.4741C83.1934 -29.4234 71.9042 -34.3002 57.7945 -34.8735C28.369 -36.0729 0.703094 -25.5219 -27.3978 -18.6747C-39.5699 -15.709 -52.0453 -14.1076 -64.4745 -16.3417C-74.6631 -18.2002 -84.3508 -22.1543 -94.4734 -24.3621C-115.562 -28.8896 -136.869 -27.6572 -158.142 -25.2517C-206.218 -19.7818 -253.892 -10.4896 -301.553 -2.26492C-345.925 5.39295 -392.261 16.3591 -437.496 16.1285C-436.749 17.6793 -435.867 19.1612 -434.86 20.5571C-390.554 20.7219 -345.312 9.84138 -301.908 2.10442C-255.315 -6.21909 -208.683 -15.5641 -161.635 -21.1921Z" fill="#222222"/>
<path d="M-176.679 -8.72972C-143.405 -13.7515 -113.861 -6.75264 -81.1204 -5.38186C-79.9605 -5.33573 -78.8072 -5.30939 -77.6473 -5.29621C-79.9583 -4.85686 -82.2671 -4.40651 -84.5737 -3.94519C-85.3645 -3.94519 -86.1554 -3.94519 -86.9462 -3.94519C-119.654 -4.51196 -149.725 -11.4185 -182.749 -5.92227C-221.302 0.516415 -259.255 10.6061 -297.222 19.7797C-334.555 28.8018 -373.385 40.3084 -412.03 41.7714C-409.724 43.419 -408.538 44.2428 -406.099 45.8837C-370.103 44.1637 -334.035 32.8218 -299.383 23.7866C-262.741 14.2373 -226.146 3.65996 -188.878 -3.18732C-155.854 -9.25694 -124.952 -2.15923 -92.0734 -2.64691L-90.5049 -2.67987L-95.6848 -1.54635C-96.5745 -1.48704 -97.4642 -1.4409 -98.3605 -1.40136C-130.455 -0.0833092 -161.344 -7.18102 -193.366 -0.828014C-228.782 6.18402 -263.381 17.0514 -298.091 26.884C-331.076 36.2356 -365.51 47.9267 -399.97 49.9499C-397.473 51.5843 -396.207 52.3949 -393.67 54.0227C-360.521 51.6766 -327.557 39.5241 -296.042 29.7574C-264.165 19.872 -232.327 9.09033 -199.692 1.92013C-168.059 -5.03259 -136.94 1.97285 -105.063 -0.168987C-103.376 -0.281021 -101.695 -0.425999 -100.015 -0.590752L-103.382 0.173717C-105.722 0.490051 -108.055 0.773426 -110.394 1.01067C-141.777 4.174 -173.206 -2.94348 -204.141 4.37171C-236.156 11.9571 -267.21 23.5823 -298.342 34.0938C-326.97 43.7485 -356.962 55.611 -387.317 58.0889C-384.78 59.7167 -383.508 60.5273 -380.997 62.1617C-352.118 59.4267 -323.747 47.2545 -296.787 37.3098C-268.416 26.8445 -240.156 15.3313 -210.883 7.57456C-180.067 -0.590763 -148.183 6.46741 -116.741 2.37486C-112.965 1.88718 -109.182 1.28748 -105.386 0.628448L-105.821 0.727299L-105.109 0.575714L-102.605 0.127583C-113.063 2.55939 -123.436 5.24821 -133.645 7.64707C-162.675 14.468 -193.616 7.95022 -221.638 16.8734C-269.226 32.0706 -312.959 68.4488 -363.144 74.4459C-360.949 76.1067 -359.882 76.9436 -357.872 78.6176C-310.461 72.6863 -270.175 36.5981 -225.658 21.2362C-207.436 14.9557 -189.55 17.5325 -170.675 16.076C-159.195 15.1929 -148.236 12.7809 -137.184 9.66369C-123.278 5.76225 -108.991 1.72243 -94.5645 -1.22341L-94.2811 -1.27615C-91.7307 -1.60566 -89.1869 -1.98789 -86.643 -2.40307C-87.7831 -2.26468 -88.9232 -2.14606 -90.0634 -2.03402C-88.4158 -2.33717 -86.7682 -2.65351 -85.1273 -2.98302C-83.974 -3.0621 -82.8207 -3.15435 -81.674 -3.2598C-83.3259 -2.95665 -84.9823 -2.67108 -86.643 -2.40307C-83.5676 -2.76773 -80.5075 -3.20708 -77.4628 -3.72113C-74.0886 -4.12313 -70.7209 -4.62399 -67.3599 -5.19734C-49.619 -6.51539 -31.9109 -5.08531 -14.684 1.42587C8.81686 10.3029 29.0753 25.711 51.9633 35.8863C85.8174 50.9385 118.235 48.5989 154.185 43.9199C203.454 37.5009 249.355 35.5766 295.994 54.3588C322.816 65.1603 349.171 76.8184 376.626 85.9921C433.408 105.038 491.863 117.77 550.569 129.158C547.004 126.324 545.152 124.881 541.389 121.909C481.259 108.906 421.295 94.7439 363.149 74.4591C338.659 65.8918 314.836 55.7362 290.57 46.5955C246.336 29.9287 202.748 32.7164 156.511 38.8849C120.403 43.6958 88.2822 46.8459 54.2699 31.4379C32.377 21.513 12.8303 6.85623 -9.91925 -1.23661C-24.319 -6.35065 -38.9757 -7.91912 -53.6983 -7.38531C-50.6207 -7.90594 -47.5496 -8.49907 -44.472 -9.14492C-31.0476 -9.50079 -17.6759 -8.07071 -4.48883 -3.62887C17.6149 3.81153 36.5026 17.8817 57.6244 27.4574C90.2264 42.2459 121.069 39.0958 155.641 34.1926C199.513 27.978 241.605 23.6482 284.151 38.2984C308.087 46.5494 331.476 56.3425 355.379 64.7121C413.142 84.9376 472.389 100.207 531.866 114.409C528.011 111.345 526.06 109.796 522.191 106.606C463.65 91.3038 405.399 75.0193 348.255 55.0376C324.938 46.8855 301.978 37.4944 278.398 30.1001C236.266 16.9196 194.227 23.411 151.371 30.0012C119.283 34.9439 90.3713 37.0133 60.2209 23.1869C40.1075 13.9605 21.9974 0.582306 0.730621 -6.03431C-11.9359 -9.98847 -24.7275 -11.1286 -37.5653 -10.6475L-37.0315 -10.7727L-37.6049 -10.6475L-39.18 -10.5816L-33.4399 -11.8996L-31.7528 -11.9985C-33.5124 -11.5767 -35.272 -11.1549 -37.025 -10.7463C-35.1863 -11.1483 -33.3542 -11.5767 -31.5221 -12.0117C-18.9611 -12.6707 -6.4198 -11.781 6.04239 -8.20909C27.2894 -2.11969 45.1094 11.0872 65.0911 20.0104C94.4375 33.1052 122.354 29.9814 153.328 24.9201C191.861 18.6198 230.968 10.6391 269.475 20.8935C293.859 27.3849 317.426 36.9078 341.203 45.2049C397.748 64.9362 455.037 82.2158 512.642 98.586C508.866 95.2909 507.001 93.6433 503.416 90.2691C446.74 72.8708 390.388 54.4928 334.362 35.135C311.178 27.0751 287.934 17.941 263.952 12.4579C225.854 3.74563 186.846 14.1912 149.209 20.7814C120.594 25.79 94.8989 27.9846 67.8392 15.8256C48.8461 7.2912 31.83 -5.06555 11.4266 -10.3839C-1.1608 -13.679 -13.7877 -14.1996 -26.4212 -13.2441L-22.645 -14.1996C-8.80548 -15.6693 5.03406 -15.5177 18.9527 -11.9458C37.6229 -7.14807 53.3011 3.82473 70.6335 11.733C97.3438 23.9118 122.782 20.9594 150.949 15.6081C186.036 8.96511 222.737 -2.90393 258.654 3.8379C282.306 8.27315 305.253 17.0184 327.911 24.8872C383.44 44.1241 438.95 63.3216 494.763 81.715C491.468 78.2551 489.866 76.5021 486.927 72.9565C432.155 53.6734 377.634 33.6456 322.737 14.7184C299.671 6.77057 275.802 -2.28445 251.431 -5.30278C217.425 -9.52714 182.589 4.28604 149.717 10.9883C123.454 16.3462 99.6307 19.325 74.5877 8.15451C57.565 0.562534 42.2954 -10.028 23.8427 -14.1733C9.34412 -17.4223 -4.96338 -17.0005 -19.2642 -15.0234L-16.984 -15.5704C-1.82639 -18.2065 13.3905 -19.3203 28.8842 -16.3019C46.6252 -12.842 61.1765 -3.17413 77.3819 4.08833C101.99 15.1007 125.544 11.5353 151.193 5.78861C182.207 -1.15752 214.749 -16.5655 247.075 -14.1535C271.201 -12.3544 294.986 -3.60909 317.663 4.14764C372.276 22.831 426.145 43.7683 480.198 63.9938C478.148 61.0811 476.311 58.024 474.702 54.8465C419.515 33.013 364.434 10.2173 308.048 -8.41998C287.499 -15.2079 265.732 -22.5363 243.872 -23.1492C211.777 -24.0916 180.289 -6.33747 149.73 1.10952C125.965 6.88259 103.934 10.4677 80.9868 0.378014C65.7172 -6.33746 51.9897 -15.2079 35.3229 -18.279C18.0367 -21.4687 1.18536 -19.4125 -15.5869 -15.9724C2.51001 -20.2165 20.6595 -23.4985 39.5143 -20.6713C56.0427 -18.1999 69.4275 -9.80394 84.4532 -3.35207C105.918 5.87429 126.631 2.21011 148.675 -3.51683C179.129 -11.4251 209.378 -31.9143 241.262 -32.3953C263.089 -32.7314 285.021 -25.7194 305.53 -19.0632C361.679 -0.847775 416.174 22.8113 470.609 45.4817C469.512 42.4246 468.769 39.2514 468.395 36.0247C414.559 12.537 360.46 -11.9721 304.39 -29.7988C283.038 -36.5868 259.675 -43.6383 236.972 -41.5558C205.767 -38.6956 177.659 -16.5128 147.575 -8.15638C127.092 -2.4558 107.829 1.11613 87.7023 -7.19418C72.7885 -13.3495 59.7728 -21.2249 43.3696 -23.1624C22.439 -25.6403 2.44409 -20.6713 -17.5376 -15.5638L-18.2691 -15.4122L-17.8605 -15.4847L-19.5872 -15.0432L-20.6943 -14.885L-18.2691 -15.4122C-19.4202 -15.2057 -20.5735 -14.9861 -21.729 -14.7532C1.33691 -20.6383 24.2183 -28.1249 48.365 -25.6337C63.8455 -24.0455 76.1759 -17.0664 90.2527 -11.2999C109.786 -3.33889 128.753 -7.26669 148.438 -13.277C178.094 -22.2925 203.697 -45.7802 234.197 -50.7624C257.922 -54.6441 282.965 -47.4673 305.372 -40.4486C361.297 -22.991 414.961 2.22329 468.151 26.4293C468.359 23.1178 469.025 19.851 470.128 16.7218C415.706 -8.98016 360.361 -36.2177 302.294 -52.8581C280.948 -58.9738 257.434 -64.8326 235.14 -60.4369C202.689 -54.0443 177.33 -27.1165 145.512 -17.2707C127.514 -11.7019 110.399 -8.40021 92.5263 -15.544C78.4957 -21.1524 66.3762 -27.4724 50.9154 -28.5269C20.9166 -30.5633 -7.30948 -17.5475 -36.2209 -12.3675L-37.8949 -12.0776C-39.7753 -11.8227 -41.6513 -11.5438 -43.523 -11.2406C-51.9538 -10.0802 -60.4987 -10.0071 -68.9482 -11.0231C-79.1103 -12.3412 -88.9562 -15.5375 -99.0327 -17.3432C-120.781 -21.2512 -142.252 -20.434 -164.105 -17.7122C-209.222 -12.0908 -253.897 -2.81826 -298.546 5.525C-341.897 13.6113 -387.218 24.9333 -431.551 24.9136C-430.27 26.4148 -428.911 27.8469 -427.478 29.2038C-384.951 29.0193 -341.548 17.8092 -300.062 9.66369C-255.947 0.990906 -211.825 -8.78904 -167.209 -14.5621C-145.652 -17.363 -124.662 -17.8572 -103.178 -14.4435C-92.7654 -12.7761 -82.5175 -9.86325 -72.006 -8.83517C-68.1229 -8.46522 -64.2209 -8.33096 -60.3215 -8.43316L-61.3364 -8.24863C-64.223 -7.80928 -67.1095 -7.31062 -69.996 -6.75265C-71.9424 -6.75265 -73.8931 -6.82295 -75.8482 -6.96354C-108.661 -9.12514 -137.507 -16.2953 -171.071 -11.6097C-214.929 -5.51368 -258.234 4.64851 -301.558 13.6903C-340.994 21.9282 -382.282 33.0196 -422.819 33.4611C-420.842 35.1482 -419.807 35.9786 -417.652 37.6459C-377.932 36.5124 -337.91 25.4474 -299.344 16.8141C-258.622 7.68002 -217.908 -2.50193 -176.679 -8.72972ZM-77.4825 -5.29621H-76.0525L-78.5568 -4.76897C-80.1121 -4.51196 -81.6608 -4.24177 -83.2161 -3.95839H-83.9542C-81.797 -4.40652 -79.6398 -4.85246 -77.4825 -5.29621ZM-59.1221 -7.22055C-56.7496 -7.7302 -54.3771 -8.24644 -52.0046 -8.76926C-50.7788 -8.85494 -49.553 -8.93402 -48.3272 -8.99993C-50.133 -8.59792 -51.9387 -8.19592 -53.7445 -7.80709C-55.5458 -7.57424 -57.3383 -7.37872 -59.1221 -7.22055ZM-56.486 -8.38044L-63.3333 -6.9174C-64.447 -6.85809 -65.5674 -6.81195 -66.6812 -6.78559L-62.068 -7.75436C-60.2227 -7.98282 -58.3708 -8.19152 -56.5123 -8.38044H-56.486ZM-89.5888 -2.71941L-91.3023 -2.37013L-89.6877 -2.71941H-89.5888ZM-102.736 0.0880432L-99.1579 -0.67643H-99.0327L-101.86 -0.0174026L-102.736 0.0880432ZM-71.9467 -4.63058L-70.7012 -4.86782C-69.6797 -4.96009 -68.6516 -5.05237 -67.6301 -5.13145C-69.0844 -4.93814 -70.532 -4.77118 -71.9731 -4.63058H-71.9467ZM-45.3089 -9.12514L-47.286 -8.77586L-45.7702 -9.10538L-45.3089 -9.12514ZM-22.8032 -14.2458L-26.7112 -13.2902L-28.2863 -13.1584L-26.9682 -13.4681L-24.3321 -14.0744L-22.8032 -14.2458ZM-68.4869 -6.86467L-68.9811 -6.76582H-69.1195L-68.4869 -6.86467Z" fill="#222222"/>
<path d="M301.078 61.9967C254.709 42.1798 208.815 42.0743 159.236 48.0583C119.622 52.8362 84.4963 56.3159 47.202 39.3394C24.4261 28.9795 4.14783 13.7099 -19.1619 4.45714C-59.1318 -11.4056 -101.863 -0.538278 -141.082 12.405C-151.89 15.9703 -162.553 18.9623 -173.914 20.1024C-191.906 21.9081 -209.225 19.2457 -226.59 25.3153C-269.486 40.295 -307.15 77.2993 -353.051 82.8614C-351.238 84.5617 -350.415 85.4119 -348.826 87.1385C-304.177 82.1629 -268.728 44.7104 -227.249 30.0998C-210.207 24.0961 -192.98 26.864 -175.384 24.5442C-164.326 23.0878 -154.216 19.5027 -143.896 15.4761C-105.62 0.555708 -62.9871 -8.69703 -23.6499 7.51501C0.127777 17.3147 20.9002 33.0193 44.2957 43.623C82.9344 61.1333 119.082 57.3242 160.093 52.7044C211.846 46.872 258.769 48.0912 306.621 69.7732C333.951 82.1563 360.958 94.77 389.526 104.168C447.211 123.134 506.965 133.686 566.897 142.648C563.997 140.085 562.435 138.767 559.16 136.058C499.656 125.837 440.377 114.159 382.995 95.0798C354.928 85.7677 328.211 73.5955 301.078 61.9967Z" fill="#222222"/>
<path d="M310.696 76.9501C260.86 53.1856 211.789 51.3469 157.321 57.746C116.738 62.5108 80.8344 65.4764 42.6504 48.5197C18.4246 37.7578 -2.92786 21.4996 -27.2854 11.0541C-65.9637 -5.55336 -108.781 1.90021 -145.91 19.1601C-155.301 23.5228 -164.363 27.5956 -174.683 29.4211C-191.864 32.4658 -209.17 29.5266 -225.909 35.1678C-267.105 49.0206 -300.946 87.244 -345.285 91.475C-344.229 92.8655 -343.292 94.3425 -342.484 95.8905C-298.587 92.5953 -265.688 54.932 -225.178 41.4022C-208.359 35.7873 -191.067 38.7661 -173.965 35.0756C-163.961 32.9074 -155.664 28.2744 -146.826 23.3581C-112.201 4.07499 -70.1617 -1.92215 -33.0387 13.7561C-8.1012 24.3005 13.6401 41.0463 38.281 52.2234C76.4452 69.5426 113.463 67.8885 154.197 62.8074C187.742 58.6226 222.907 56.1051 256.346 62.5899C278.311 66.8538 298.359 75.9418 318.222 85.9721C344.326 99.1526 370.483 111.826 398.346 120.986C456.802 140.184 517.907 148.329 578.873 154.761C577.214 152.696 575.429 150.735 573.529 148.889C513.03 141.172 452.505 131.84 394.412 112.709C365.395 103.146 338.197 90.0647 310.696 76.9501Z" fill="#222222"/>
<path d="M321.834 93.2808C301.773 82.6309 281.548 72.8115 259.227 68.0467C225.122 60.7974 189.021 63.1436 154.705 67.4206C113.061 72.6072 75.1806 74.5842 36.0806 56.9685C11.0376 45.7057 -10.9014 28.6897 -36.0498 17.7564C-71.7361 2.22978 -114.032 6.14441 -146.239 28.0636C-154.226 33.5072 -161.482 38.753 -170.966 41.3364C-187.672 45.8902 -205.05 42.7731 -221.711 47.9266C-263.005 60.5997 -295.864 98.118 -340.5 100.418C-339.963 101.906 -339.618 103.456 -339.472 105.031C-293.142 104.128 -259.031 66.2278 -215.799 54.8925C-199.277 50.5627 -181.602 53.9567 -165.463 48.1507C-156.665 44.9808 -150.648 38.8584 -143.662 32.9931C-114.566 8.49053 -71.6108 7.19884 -37.994 22.4487C-12.5951 33.9685 9.69977 51.2811 35.2831 62.5109C76.8611 80.7593 115.922 76.614 159.911 71.5989C192.948 67.8292 227.264 65.8719 259.991 73.1146C282.859 78.1693 303.395 88.6215 323.699 99.9633C349.401 114.337 375.387 127.86 403.507 137.047C462.035 156.158 523.608 161.701 584.739 165.431C584.373 163.625 583.69 161.898 582.723 160.33C521.743 155.249 460.473 148.395 402.038 129.356C373.937 120.11 347.82 107.074 321.834 93.2808Z" fill="#222222"/>
<path d="M323.229 107.549C303.682 96.2201 284.023 85.9261 262.032 80.2123C229.265 71.6977 194.455 72.8905 161.056 76.2582C115.985 80.7988 76.5951 85.4318 34.0616 66.7616C9.01855 55.7625 -12.9929 39.1484 -37.7722 27.7077C-70.7235 12.5106 -113.738 11.9438 -141.365 38.1533C-147.876 44.3284 -153.135 50.3782 -161.794 53.6338C-177.611 59.565 -195.214 56.4479 -211.498 60.5536C-256.259 71.8427 -291.392 109.519 -339.474 109.605C-339.576 111.077 -339.841 112.534 -340.265 113.948C-290.179 114.31 -254.757 75.6585 -208.526 63.6642C-191.991 59.3739 -174.131 62.2011 -158.018 56.059C-149.945 52.9814 -144.66 47.4917 -138.359 41.9229C-110.68 17.361 -70.0448 17.8553 -37.5877 32.2748C-12.2482 43.5309 10.2444 60.2372 35.7355 71.2562C76.292 88.7862 114.443 85.6097 157.345 81.8006C191.674 78.7625 227.202 78.367 260.621 87.8109C283.536 94.2759 304.17 105.763 324.508 117.856C349.55 132.756 374.725 146.609 402.048 156.969C459.331 178.677 521.378 184.497 581.962 188.497C583.505 183.818 584.052 181.248 584.599 175.402C523.606 172.001 461.75 166.835 403.61 146.701C375.14 136.829 349.208 122.614 323.229 107.549Z" fill="#222222"/>
<path d="M323.81 126.357C302.372 113.519 280.808 101.314 256.675 94.2693C224.93 85.0429 191.517 84.3839 158.757 86.7037C116.579 89.6759 79.0807 93.0962 39.1569 76.3042C13.9821 65.7203 -8.293 49.5873 -33.0921 38.318C-66.8738 22.9825 -105.723 22.8836 -135.498 46.3845C-157.945 64.1123 -181.347 59.4859 -207.727 66.9526C-254.69 80.2386 -290.277 118.759 -341.773 117.955C-342.38 119.266 -343.106 120.519 -343.941 121.698C-307.695 121.599 -278.421 105.914 -247.572 88.7137C-235.051 81.728 -222.345 74.7028 -208.597 70.4191C-195.74 66.4057 -182.632 66.4979 -169.425 64.567C-141.225 60.4415 -122.529 40.2885 -95.146 34.0343C-61.0216 26.2446 -29.1973 42.7269 -0.503296 58.9257C32.8105 77.7343 66.0583 93.663 105.139 94.8756C142.828 96.0355 179.688 88.1667 217.568 92.8326C248.622 96.6615 276.933 107.47 303.973 122.917C333.386 139.722 361.48 158.155 392.942 171.131C449.288 194.375 509.589 202 569.87 206.805C572.667 204.574 575.066 201.887 576.968 198.857C518.809 194.553 460.525 187.95 405.483 167.619C376.585 156.962 350.131 142.141 323.81 126.357Z" fill="#222222"/>
<path d="M295.761 126.048C271.463 112.584 245.774 102.804 218.174 98.7178C180.372 93.1226 143.612 100.774 105.955 99.2845C66.8021 97.7358 33.9958 81.1415 0.510681 62.3791C-26.5687 47.2215 -57.0288 32.1298 -89.1168 39.1221C-117.178 45.2378 -139.203 62.6625 -168.114 66.8736C-182 68.9034 -195.793 69.0221 -209.224 73.5034C-221.614 77.6421 -233.121 84.0083 -244.476 90.3811C-277.302 108.834 -307.979 125.369 -346.697 125.197C-347.722 126.367 -348.823 127.467 -349.992 128.493C-311.808 128.941 -280.794 114.139 -248.456 95.6203C-235.223 88.0415 -221.884 80.1267 -207.287 75.4212C-195.016 71.4671 -182.455 71.1837 -169.788 69.4373C-154.532 67.3416 -139.519 64.8241 -125.08 59.3542C-111.016 54.082 -96.9131 47.3929 -82.1246 44.3745C-50.3793 37.8831 -20.387 53.3439 6.29037 68.3235C39.5975 87.0003 72.5159 103.008 111.603 103.852C144.686 104.563 176.939 98.698 210.173 103.12C242.281 107.384 271.318 119.345 299.24 135.346C325.76 150.544 351.429 166.98 379.517 179.284C433.866 203.061 491.861 211.517 550.514 216.473C554.137 215.587 557.647 214.286 560.973 212.597C501.074 207.609 441.505 199.417 385.856 175.501C354.124 161.872 325.819 142.688 295.761 126.048Z" fill="#222222"/>
<path d="M292.307 138.319C268.081 124.809 242.748 113.994 215.287 109.209C179.166 102.922 144.033 110.152 108.004 108.109C72.8648 106.132 42.6221 91.2906 12.5112 74.3009C-13.6785 59.5255 -43.0183 43.8605 -74.243 49.7456C-89.9871 52.7046 -105.25 59.2224 -120.777 63.2095C-135.803 67.0648 -151.23 69.0682 -166.579 71.1178C-181.513 73.141 -196.512 73.6023 -210.78 78.8745C-223.71 83.6524 -235.632 90.737 -247.514 97.6106C-281.335 117.171 -313.542 132.275 -353.617 131.531C-355.179 132.73 -356.003 133.31 -357.703 134.45C-315.525 135.491 -282.403 120.156 -246.927 99.4427C-234.887 92.4109 -222.774 85.0825 -209.574 80.4232C-196.552 75.81 -182.85 75.2235 -169.261 73.4771C-150.881 71.1178 -132.316 69.5954 -114.022 66.6035C-97.7043 63.9344 -82.0458 58.0361 -65.8404 55.2814C-37.3573 50.431 -10.3767 63.7301 13.6316 77.2665C45.4362 95.192 76.1928 111.312 113.606 112.748C145.002 113.954 175.646 108.221 207.141 113.005C234.873 117.223 260.384 127.438 284.906 140.724C311.485 155.104 336.969 171.356 364.648 183.66C416.006 206.495 470.442 215.069 526.11 219.57C530.363 219.53 534.611 219.236 538.829 218.687C481.619 213.896 425.331 205.322 372.458 181.913C344.449 169.57 318.905 153.18 292.307 138.319Z" fill="#222222"/>
<path d="M484.719 216.776C479.104 216.07 476.303 215.682 470.794 214.917L468.112 214.779C464.07 214.225 460.041 213.63 456.025 212.993L457.258 213.046C455.201 212.769 453.554 212.545 451.985 212.347C419.607 206.982 387.954 198.633 357.323 185.136C330.033 173.115 304.792 157.312 278.431 143.485C254.119 130.733 228.648 120.914 201.325 117.124C171.339 112.972 142.263 118.943 112.435 117.124C79.0887 115.101 50.7242 100.84 22.2542 84.5882C-1.83975 70.8277 -28.0821 56.7641 -56.8749 61.2389C-74.9982 64.053 -92.2449 69.3383 -110.651 70.6564C-129.763 72.0271 -148.783 72.9037 -167.815 75.1839C-181.872 76.8644 -196.193 77.4905 -209.65 82.1959C-223.108 86.9014 -235.221 94.3813 -247.366 101.545C-284.199 123.293 -318.317 138.589 -362.136 137.238C-363.941 138.325 -364.871 138.859 -366.749 139.92C-322.812 141.515 -287.811 127.398 -250.859 105.275C-237.679 97.3667 -224.498 88.9048 -209.874 83.8567C-195.982 79.0458 -180.798 78.3736 -166.273 76.8051C-145.606 74.5776 -125.203 74.571 -104.476 74.5315C-84.9626 74.4919 -67.281 69.5426 -48.1693 67.0186C-21.3601 63.4796 3.30075 76.179 25.7867 89.0168C52.8792 104.484 79.8268 118.825 111.539 121.454C139.594 123.78 167.438 117.684 195.611 121.138C222.565 124.433 247.76 133.719 271.867 145.911C297.971 159.091 322.955 174.374 349.83 186.045C376.369 197.572 403.606 205.157 431.437 210.264C428.234 210.067 426.217 209.994 423.529 210.021C398.176 205.691 373.317 199.173 348.907 189.327C321.722 178.374 296.468 163.717 270.279 150.715C246.554 138.951 222.308 129.514 195.947 125.942C168.611 122.245 141.907 128.189 114.749 126.067C83.926 123.682 58.1053 110.178 31.8629 95.0733C10.1151 82.5518 -13.3265 70.2478 -39.3119 73.4836C-60.7368 76.1527 -79.954 79.8234 -101.656 78.4329C-125.381 76.904 -148.447 76.5415 -172.172 79.1842C-186.986 80.8317 -201.63 81.8203 -215.575 87.4681C-229.362 93.0567 -241.89 101.387 -254.596 109.005C-291.87 131.346 -327.418 144.375 -371.566 142.543C-373.504 143.578 -374.486 144.092 -376.45 145.113C-330.489 147.209 -293.36 133.85 -254.649 110.402C-241.798 102.606 -229.059 94.0254 -214.975 88.5292C-200.292 82.8022 -184.258 81.9389 -168.698 80.4693C-143.464 78.1166 -119.14 79.8103 -94.0901 82.7825C-72.026 85.4186 -52.7099 82.3409 -30.8236 79.9552C-6.4397 77.3191 15.4333 88.5226 35.9356 100.201C61.1961 114.613 86.1798 128.097 115.744 130.661C141.92 132.928 167.622 126.674 193.983 130.239C219.876 133.745 244.069 143.261 267.419 154.623C293.78 167.408 319.363 181.768 346.904 191.917C370.774 200.709 394.914 206.416 419.515 210.054L415.818 209.895C389.865 206.772 364.414 201.275 339.411 192.102C312.39 182.216 287.025 168.693 260.947 156.653C237.815 145.963 213.939 137.047 188.454 134.127C163.76 131.3 139.561 137.739 115.085 135.017C88.0119 132.005 64.9328 119.721 41.6494 106.501C21.9775 95.3501 0.888672 84.6673 -22.4276 86.4269C-46.8116 88.2722 -67.5973 90.8292 -92.0406 86.6114C-117.077 82.2948 -141.428 79.9948 -166.919 81.9719C-183.105 83.224 -200.022 84.061 -215.311 89.9395C-229.566 95.416 -242.47 104.221 -255.4 112.188C-295.271 136.75 -333.896 150.016 -381.346 147.67C-383.323 148.692 -384.286 149.206 -386.21 150.24C-337.257 152.83 -297.143 139.505 -256.066 113.915C-242.997 105.776 -230.021 96.7802 -215.555 91.2773C-202.315 86.2292 -187.988 85.3856 -173.984 84.1532C-143.754 81.4842 -115.561 84.8518 -86.1489 91.2575C-61.4552 96.6352 -40.34 95.6862 -15.3102 93.7091C7.38663 91.9231 27.599 102.276 46.8557 112.939C69.4537 125.461 91.6695 137.086 117.886 139.735C139.68 141.95 161.177 136.111 183.129 138.167C208.172 140.507 231.838 148.87 254.713 158.887C280.573 170.209 305.708 183.106 332.372 192.55C359.392 202.119 386.887 207.398 415.027 209.849C384.659 208.327 355.174 203.345 326.059 193.374C299.658 184.332 274.655 172.034 248.9 161.378C226.236 151.993 202.768 144.118 178.114 142.332C158.64 140.915 139.673 146.359 120.383 144.527C74.2514 140.157 38.2686 98.7638 -8.25201 100.741C-22.8626 101.367 -36.1091 104.069 -50.8712 102.356C-61.7188 101.084 -72.2632 98.4475 -82.8538 95.6005C-112.457 87.6922 -141.184 83.3558 -171.967 85.5701C-187.593 86.6905 -203.772 87.6724 -218.363 93.7618C-231.919 99.4163 -244.15 107.812 -256.527 115.622C-298.915 142.358 -340.289 155.69 -390.968 152.863C-392.833 153.931 -393.756 154.465 -395.535 155.565C-343.169 158.603 -300.431 145.205 -256.731 117.342C-245.093 109.915 -233.586 101.927 -220.953 96.253C-204.833 89.0037 -187.046 88.002 -169.608 87.0661C-138.469 85.3988 -109.637 90.8687 -80.0793 100.075C-53.4019 108.392 -31.0213 110.112 -3.22363 108.695C40.9311 106.441 76.1823 144.197 119.638 149.034C140.998 151.413 161.915 145.027 183.564 147.617C204.297 150.095 224.246 156.732 243.608 164.311C269.343 174.387 294.353 186.157 320.655 194.843C352.242 205.295 384.119 209.935 417.261 210.093C420.497 210.469 423.733 210.818 426.982 211.121C431.815 211.754 436.68 212.312 441.579 212.795C439.009 212.461 436.443 212.103 433.882 211.721C437.19 211.989 440.507 212.222 443.833 212.419C447.128 212.933 450.423 213.419 453.719 213.876C449.65 213.56 445.597 213.199 441.56 212.795C449.951 213.893 458.395 214.803 466.892 215.523C477.437 216.716 488.027 217.652 498.697 218.39C504.299 218.931 507.093 219.155 512.537 219.418C502.941 218.693 493.392 217.815 483.889 216.782L484.719 216.776ZM417.597 210.06H419.614L421.855 210.383C420.438 210.284 419.014 210.172 417.597 210.06ZM427.931 210.772C426.784 210.587 425.637 210.403 424.491 210.205C426.903 210.271 429.308 210.317 431.74 210.343L436.505 211.187C433.636 211.073 430.78 210.934 427.937 210.772H427.931Z" fill="#222222"/>
<path d="M412.524 210.851C349.917 212.307 297.616 189.584 240.281 168.153C221.051 160.963 201.293 154.544 180.824 152.171C160.354 149.799 140.623 155.921 120.404 153.654C78.4902 148.955 43.6343 114.976 1.05466 116.623C-27.6261 117.731 -50.178 114.574 -77.2179 104.82C-107.428 93.9266 -137.051 87.2836 -169.435 88.6741C-187.17 89.4386 -205.135 90.4733 -221.446 97.973C-234.165 103.825 -245.724 112.004 -257.448 119.563C-302.157 148.402 -346.199 161.602 -399.844 158.379C-401.511 159.533 -402.315 160.119 -403.844 161.332C-350.022 164.627 -305.333 152.521 -260.322 123.517C-247.332 115.141 -234.62 105.651 -220.464 99.2515C-203.54 91.5936 -184.738 90.6842 -166.377 90.269C-133.024 89.5704 -103.388 98.0718 -72.9342 110.639C-46.2766 121.645 -24.1663 125.606 4.56729 124.703C44.9919 123.438 79.9203 153.318 119.607 158.175C138.64 160.508 157.277 154.755 176.566 156.791C197.069 158.946 216.938 165.187 236.274 172.087C292.252 192.042 344.262 215.266 405.064 212.947C407.431 211.877 409.946 211.171 412.524 210.851Z" fill="#222222"/>
<path d="M234.44 177.168C214.986 170.439 195.037 164.192 174.469 161.885C156.016 159.816 138.315 164.996 120.119 162.907C80.6765 158.386 45.735 133.587 5.69254 133.415C-10.0516 133.349 -23.6011 134.147 -39.0553 129.461C-50.2587 126.08 -60.8031 120.894 -71.3871 115.918C-101.768 101.532 -131.503 91.699 -165.628 91.9824C-184.212 92.1406 -203.06 93.1159 -220.096 101.024C-234.364 107.615 -247.156 117.368 -260.297 125.909C-306.33 155.882 -352.389 167.849 -407.517 164.429C-408.638 165.455 -409.688 166.556 -410.66 167.724C-354.188 171.25 -306.725 159.381 -259.658 128.4C-246.405 119.675 -233.527 109.697 -219.141 102.843C-202.039 94.6976 -183.257 93.6497 -164.494 93.7486C-129.948 93.9397 -100.483 105.15 -70.649 121.428C-44.9931 135.419 -24.2932 142.121 4.90829 142.464C44.8057 142.938 80.9995 163.592 120.436 167.625C137.985 169.418 155.001 164.989 172.742 167.243C193.521 169.879 213.714 176.252 233.472 182.961C286.503 200.972 339.252 225.475 396.482 222.265C396.944 220.133 398.021 218.183 399.579 216.657C340.873 219.616 288.764 195.983 234.44 177.168Z" fill="#222222"/>
<path d="M233.702 189.729C213.437 182.875 192.802 176.219 171.582 173.076C154.309 170.519 137.813 173.946 120.672 172.483C80.5571 169.056 42.5643 152.791 2.13306 152.053C-26.7257 151.512 -46.4569 142.596 -70.6563 127.273C-99.403 109.071 -128.17 96.4046 -162.847 95.6797C-181.729 95.2908 -200.333 96.4639 -217.428 104.834C-231.96 111.925 -244.929 122.173 -258.334 131.089C-306.443 163.118 -355.356 174.928 -413.205 171.329C-413.996 172.534 -414.669 173.812 -415.215 175.145C-354.736 178.849 -303.582 166.149 -253.701 132.058C-223.616 111.49 -201.196 96.6748 -163.414 97.5381C-128.947 98.3289 -100.682 111.734 -73.5429 131.913C-51.2415 148.494 -32.2286 161.701 -3.49506 162.083C38.8342 162.643 79.8124 174.934 121.977 177.425C139.112 178.44 155.409 176.391 172.564 179.6C194.378 183.679 215.591 190.803 236.535 197.967C288.012 215.636 342.863 242.517 398.405 240.27C396.85 235.657 396.428 233.68 396.039 230.095C339.798 233.133 285.863 207.371 233.702 189.729Z" fill="#222222"/>
<path d="M-249.23 139.307C-221.01 119.662 -198.393 100.497 -162.304 101.426C-126.387 102.356 -100.58 119.879 -77.4152 145.64C-61.4405 163.434 -46.8957 182.21 -21.1344 183.238C26.243 185.136 73.8905 186.579 121.307 187.192C165.33 187.772 205.663 203.061 246.674 218.061C277.444 229.31 308.009 241.166 339.063 251.618C362.992 259.678 387.495 267.87 412.874 268.977C409.621 263.864 406.638 258.585 403.937 253.161C348.329 253.681 292.305 225.521 240.815 207.371C215.97 198.613 190.795 189.644 164.849 184.76C150.871 182.124 137.216 182.843 123.12 182.355C78.3851 180.813 34.0458 174.031 -10.7086 172.404C-38.2954 171.402 -55.1863 156.31 -74.8977 138.595C-100.488 115.595 -128.042 100.332 -163.273 99.4691C-200.179 98.5597 -222.638 115.411 -251.892 135.597C-302.525 170.525 -355.116 183.001 -416.557 179.284C-416.92 180.733 -417.121 182.219 -417.156 183.712C-354.779 187.35 -300.608 175.053 -249.23 139.307Z" fill="#222222"/>
<path d="M119.515 192.161C71.0436 191.719 21.788 191.153 -26.5977 188.457C-53.2224 186.974 -66.8971 166.94 -82.2129 147.703C-100.666 124.512 -121.603 106.784 -152.327 103.799C-191.868 99.9567 -215.402 121.474 -245.506 143.149C-297.569 180.621 -353.224 192.266 -416.945 188.444C-416.78 190.152 -416.505 191.847 -416.122 193.519C-350.918 197.585 -293.418 186.539 -240.88 146.774C-211.995 124.907 -189.14 101.96 -150.198 106.25C-120.7 109.48 -102.208 128.117 -85.6135 150.873C-70.6404 171.375 -56.9327 190.639 -29.5238 192.016C19.8109 194.5 69.7453 197.183 119.152 197.829C163.439 198.409 205.274 211.161 247.359 224.242C267.519 230.51 287.56 237.153 307.575 243.888C287.876 236.639 268.303 229.185 248.776 222.437C206.546 207.846 164.52 192.57 119.515 192.161Z" fill="#222222"/>
<path d="M-233.855 156.666C-208.378 135.353 -187.684 109.038 -151.345 112.169C-92.9359 117.21 -93.7729 197.644 -34.0388 200.076C17.8529 202.192 69.5337 210.199 121.432 211.2C163.959 212.024 205.524 220.084 246.864 229.877C306.579 244.02 366.029 262.024 421.368 288.827C421.188 287.4 420.915 285.987 420.551 284.596C401.386 276.903 382.042 269.638 362.517 262.802C366.752 264.12 371.003 265.377 375.269 266.572C352.658 259.164 330.139 251.473 307.58 243.888C312.563 245.72 317.556 247.539 322.56 249.345C297.622 241.309 272.527 233.84 247.273 226.938C205.543 215.464 163.708 204.907 120.298 204.208C69.4283 203.384 18.6833 197.519 -32.1738 195.852C-59.0422 194.969 -73.1586 178.058 -87.2024 157.292C-103.237 133.574 -120.002 112.037 -150.62 108.992C-188.185 105.242 -210.17 129.962 -237.322 151.532C-289.741 193.15 -348.895 203.193 -414.758 198.896C-414.099 201.097 -413.723 202.231 -412.886 204.544C-346.549 209.098 -285.833 200.175 -233.855 156.666Z" fill="#222222"/>
<path d="M119.585 218.667C67.4032 216.967 16.1706 205.928 -36.1033 204.498C-66.4185 203.668 -82.077 186.704 -96.6019 162.123C-110.112 139.268 -123.325 118.034 -152.415 115.786C-187.594 113.078 -206.778 141.218 -230.503 162.195C-281.834 207.582 -344.106 215.253 -410.621 210.482C-409.639 212.901 -409.119 214.133 -408.031 216.644C-338.174 221.916 -273.313 213.751 -221.975 162.979C-200.412 141.66 -182.915 115.444 -148.962 120.222C-122.383 123.958 -111.529 146.807 -99.64 167.869C-85.2996 193.262 -68.0068 208.446 -37.5334 209.223C15.327 210.574 66.5201 224.447 119.216 226.687C224.561 231.175 329.577 240.922 421.709 297.526C421.784 296.068 421.784 294.608 421.709 293.15C330.935 242.807 222.597 222.028 119.585 218.667Z" fill="#222222"/>
<path d="M117.438 234.991C65.0191 231.881 14.63 215.089 -38.0459 214.146C-69.7582 213.579 -88.9622 199.595 -103.678 172.146C-114.223 152.448 -123.396 129.31 -147.925 124.815C-182.794 118.377 -199.692 148.856 -220.471 170.525C-269.799 221.975 -337.013 228.473 -405.216 223.003L-402.25 229.594C-335.062 235.228 -265.904 230.431 -218.23 177.577C-199.125 156.442 -184.692 124.598 -151.346 129.073C-125.275 132.572 -117.505 158.201 -106.868 178.315C-91.9345 206.567 -70.8127 218.674 -38.7313 219.26C15.3088 220.249 66.2054 240.659 119.909 243.914C158.891 246.274 197.945 241.054 236.999 243.077C304.265 246.564 365.693 267.257 420.623 306.443C420.966 304.63 421.111 303.728 421.328 301.942C365.706 264.838 303.217 245.595 237.012 239.123C197.147 235.228 157.302 237.35 117.438 234.991Z" fill="#222222"/>
<path d="M229.221 246.992C192.672 247.526 156.07 255.632 119.494 252.956C65.5721 249.002 15.1962 225.587 -39.18 224.545C-70.5365 223.952 -94.4723 213.843 -109.604 185.663C-120.148 165.998 -126.33 137.679 -152.295 133.916C-183.882 129.303 -195.837 159.816 -212.405 180.509C-258.537 238.187 -330.371 242.458 -399.226 236.428C-398.013 239.189 -397.407 240.586 -396.22 243.42C-329.422 249.555 -255.571 247.335 -211.495 189.426C-195.857 168.878 -185.299 133.956 -153.501 138.925C-129.275 142.714 -123.937 170.472 -114.526 188.951C-98.8351 219.781 -72.7574 229.277 -39.3975 229.963C15.2555 231.09 65.0054 257.523 119.072 262.202C156.557 265.445 193.832 253.174 231.106 250.953C301.984 246.735 363.34 271.943 418.368 315.577C418.896 313.731 419.139 312.809 419.581 310.964C363.122 268.311 300.198 245.957 229.221 246.992Z" fill="#222222"/>
<path d="M241.654 253.8C206.066 256.192 172.205 270.19 136.789 272.2C94.1833 274.625 52.6054 254.406 12.2993 243.67C-10.7665 237.528 -32.4485 237.146 -56.0219 235.037C-79.9379 232.902 -101 223.109 -113.957 202.396C-123.407 187.284 -126.241 167.533 -137.926 153.911C-149.129 140.823 -170.6 139.742 -182.219 152.745C-199.353 171.929 -206.319 197.512 -225.51 215.8C-269.764 257.978 -336.806 256.001 -393.324 250.59C-392.198 253.49 -391.651 254.953 -390.622 257.905C-334.098 263.507 -265.137 266.4 -221.767 222.476C-203.13 203.595 -197.864 177.946 -181.968 157.892C-171.47 144.579 -150.691 146.293 -140.542 159.289C-129.516 173.385 -127.282 193.136 -117.601 208.222C-103.762 229.778 -80.933 238.695 -56.1339 240.725C-32.1322 242.702 -10.6611 243.453 12.6684 250.366C52.1506 262.064 94.6314 285.295 136.901 281.677C171.625 278.691 203.99 261.359 238.8 257.187C307.161 248.995 365.05 281.611 415.419 324.915C416.078 323.037 416.381 322.101 416.981 320.236C366.321 278.296 308.927 249.285 241.654 253.8Z" fill="#222222"/>
<path d="M235.749 260.449C201.763 266.433 171.019 287.239 136.954 291.133C95.1257 295.911 51.63 269.702 13.1099 257.128C-10.3909 249.457 -31.8159 248.237 -56.2459 246.583C-81.8162 244.837 -106.668 236.316 -121.206 214.093C-131.151 198.896 -132.95 179.494 -143.29 164.765C-152.371 151.829 -172.439 149.37 -181.902 163.032C-196.526 184.121 -199.986 209.572 -218.083 229.271C-260.135 275.066 -332.16 271.112 -388.184 265.352C-387.281 268.358 -386.866 269.873 -386.108 272.918C-329.88 278.849 -256.063 283.535 -214.761 236.072C-197.014 215.642 -195.379 190.158 -181.949 168.192C-173.381 154.214 -154.236 157.411 -146.018 170.169C-136.621 184.727 -135.263 203.351 -125.918 218.212C-110.681 242.445 -83.2726 250.669 -56.0285 252.389C-31.2623 253.958 -9.97574 255.526 13.6437 263.949C51.2807 277.36 95.5409 306.357 136.987 300.544C170.466 295.852 199.594 271.481 232.711 263.771C302.567 247.506 362.901 289.361 412.071 334.405C412.776 332.5 413.125 331.558 413.811 329.667C364.008 285.387 304.946 248.27 235.749 260.449Z" fill="#222222"/>
<path d="M230.29 266.591C211.271 272.042 193.985 281.677 176.909 291.424C164.183 298.673 150.476 307.734 135.694 310.021C95.1372 316.282 50.0863 284.471 13.8333 270.546C-9.77963 261.484 -30.7433 259.573 -55.7335 258.195C-83.7421 256.647 -112.944 249.121 -129.189 224.42C-139.021 209.467 -140.076 191.311 -148.564 175.995C-155.405 163.645 -173.607 158.386 -181.752 172.351C-187.387 182.012 -188.685 194.797 -192.139 205.342C-196.633 219.049 -202.749 232.283 -212.035 243.433C-252.466 292.201 -328.491 286.573 -384.469 280.576C-383.915 283.66 -383.691 285.189 -383.362 288.333C-327.278 294.442 -249.368 300.854 -209.656 250.768C-200.251 238.906 -194.465 225.02 -190.498 210.508C-187.638 200.03 -186.939 187.779 -182.286 177.867C-175.505 163.447 -158.034 168.278 -151.714 180.503C-143.384 196.596 -142.923 215.148 -132.444 230.589C-115.362 255.744 -83.9266 262.677 -55.3381 264.015C-30.1963 265.194 -9.41058 267.409 14.0771 277.103C34.3421 285.466 53.6187 296.004 73.7321 304.716C92.0003 312.624 116.299 323.274 136.603 318.859C150.739 315.788 163.379 306.12 175.136 298.225C190.782 287.713 206.592 277.136 224.379 270.546C295.468 244.185 360.474 297.506 408.504 343.928C409.203 342.017 409.558 341.061 410.264 339.157C362.214 293.849 300.259 246.531 230.29 266.591Z" fill="#222222"/>
<path d="M226.771 271.27C221.716 272.83 216.879 275.027 212.378 277.808C198.427 285.268 185.892 295.081 173.417 304.828C162.127 313.639 149.79 324.632 135.437 327.841C115.376 332.316 91.1767 320.882 73.383 312.631C53.487 303.405 34.5005 292.379 14.4134 283.561C-9.04135 273.261 -29.4909 270.842 -54.8437 269.788C-84.144 268.568 -117.55 262.242 -135.548 236.606C-146.751 220.644 -146.481 201.763 -154.66 184.866C-160.591 172.568 -177.271 168.607 -182.728 183.251C-192.303 208.953 -189.74 234.754 -207.369 258.077C-246.251 309.481 -327.008 302.33 -382.854 296.175C-382.771 298.813 -382.837 301.453 -383.052 304.083C-326.026 310.403 -241.921 318.022 -203.975 263.224C-195.348 250.762 -190.715 236.131 -187.98 221.362C-185.963 210.442 -186.365 198.244 -182.866 187.666C-177.719 172.094 -161.626 178.262 -156.854 190.77C-150.363 207.806 -150.356 225.699 -139.568 241.298C-120.885 268.318 -84.8689 274.46 -54.3494 275.567C-28.8978 276.49 -8.87659 278.974 14.4134 289.769C34.1841 298.93 52.8346 310.37 72.4077 320.019C89.8586 328.639 115.159 341.496 135.2 336.356C149.698 332.652 161.692 320.157 172.441 310.509C181.345 302.515 190.321 294.435 200.002 287.384C197.419 289.829 194.971 292.412 192.667 295.121C184.574 302.324 177.028 310.206 169.462 317.903C159.742 327.789 148.835 340.481 134.989 344.409C115.442 349.965 90.0827 336.626 73.205 327.933C53.8956 317.982 35.601 306.146 16.1005 296.544C-9.24567 284.023 -30.1829 282.349 -58.0927 280.991C-88.052 279.541 -123.567 273.386 -142.382 247.328C-153.928 231.34 -153.665 213.138 -159.372 195.186C-163.286 182.849 -178.325 176.114 -183.018 191.713C-186.313 202.738 -185.304 215.517 -187.031 226.872C-189.404 242.445 -193.924 257.635 -202.848 270.796C-240.524 326.47 -327.028 318.318 -384.04 311.972C-384.484 314.66 -385.098 317.317 -385.879 319.926C-328.181 326.279 -239.826 334.807 -201.866 278.223C-192.639 264.496 -188.257 248.396 -186.201 232.157C-184.692 220.229 -185.996 207.226 -183.057 195.562C-179.03 179.56 -164.769 187.304 -161.678 199.311C-156.979 217.527 -157.546 235.472 -146.171 251.618C-125.933 280.339 -85.5938 285.644 -53.2488 286.626C-27.1646 287.417 -7.36743 290.297 16.0675 302.278C35.8844 312.413 54.3438 324.988 73.9695 335.479C90.2804 344.198 115.692 357.979 134.798 352.067C148.815 347.724 159.392 333.443 168.56 322.899C174.655 315.88 180.732 308.71 187.197 301.942C185.641 304.031 184.145 306.159 182.689 308.327C177.7 314.364 172.962 320.605 168.19 326.78C159.254 338.326 148.664 355.118 133.743 359.494C114.355 365.188 88.7515 350.551 72.5263 341.476C53.3025 330.715 35.2451 317.969 15.7512 307.682C-9.09409 294.574 -29.1548 293.018 -56.9723 291.865C-88.6451 290.547 -128.345 285.235 -148.676 257.596C-160.775 241.12 -160.163 222.727 -163.682 203.674C-166.015 191.067 -179.241 183.04 -183.11 199.628C-184.428 205.374 -184.764 211.444 -184.869 217.56C-184.434 212.848 -183.828 208.096 -182.892 203.305C-179.703 186.711 -167.155 193.42 -165.534 206.508C-163.115 226.081 -164.216 244.817 -152.076 261.754C-131.291 290.705 -89.146 295.76 -56.4846 297.084C-28.8649 298.198 -9.11386 299.549 15.4546 312.802C35.6933 323.722 54.2646 337.41 74.2397 348.772C90.0563 357.781 115.508 372.279 134.369 365.748C148.565 360.832 158.272 343.895 166.279 332.329C170.431 326.325 174.576 320.216 178.913 314.259C177.893 315.902 176.892 317.556 175.908 319.221C177.957 316.031 180.066 312.868 182.247 309.771C185.721 305.158 189.358 300.755 193.247 296.557C191.045 298.811 188.923 301.17 186.847 303.517C188.561 301.285 190.336 299.108 192.172 296.986C194.565 294.653 197.016 292.372 199.553 290.217C197.357 292.256 195.254 294.369 193.247 296.557C197.597 292.039 202.302 287.876 207.317 284.108L207.475 283.99L207.996 283.614C208.978 282.955 209.973 282.243 210.974 281.578C217.066 277.546 223.654 274.32 230.574 271.982C235.06 270.553 239.675 269.569 244.354 269.043C242.476 269.195 240.604 269.432 238.733 269.742C240.226 269.416 241.718 269.14 243.207 268.911C244.525 268.825 245.843 268.786 247.161 268.779C246.212 268.845 245.27 268.938 244.321 269.043C245.929 268.911 247.539 268.836 249.152 268.819C307.337 272.43 370.353 348.739 399.799 382C399.799 380.128 399.838 379.186 399.983 377.295C369.094 342.946 307.792 270.717 250.002 268.753C307.739 268.634 368.145 337.213 400.497 372.569C400.774 370.671 400.939 369.716 401.327 367.811C366.649 330.583 306.322 264.812 247.741 268.68C246.779 268.641 245.824 268.615 244.861 268.615C304.833 260.647 365.595 324.25 402.408 363.04C402.889 361.129 403.153 360.173 403.726 358.262C364.587 317.817 303.086 256.113 241.065 268.727C239.332 268.825 237.612 269.003 235.892 269.247C300.608 251.328 363.42 311.181 405.209 353.471C405.829 351.553 406.151 350.597 406.817 348.68C361.094 303.438 295.771 245.535 226.771 271.27ZM238.054 269.392C235.598 269.985 233.137 270.702 230.673 271.541C222.877 273.905 215.538 277.57 208.964 282.382C205.465 284.701 202.111 287.206 198.855 289.848C200.832 287.937 202.868 286.105 205.01 284.372C206.388 283.252 207.765 282.21 209.156 281.222C212.719 278.998 216.399 276.967 220.181 275.139C223.278 273.657 226.45 272.337 229.684 271.185C232.431 270.402 235.227 269.803 238.054 269.392Z" fill="#222222"/>
<g filter="url(#filter0_f)">
<circle cx="286.5" cy="146.5" r="96.5" fill="#0656FE"/>
</g>
</g>
<defs>
<filter id="filter0_f" x="-110" y="-250" width="793" height="793" filterUnits="userSpaceOnUse" color-interpolation-filters="sRGB">
<feFlood flood-opacity="0" result="BackgroundImageFix"/>
<feBlend mode="normal" in="SourceGraphic" in2="BackgroundImageFix" result="shape"/>
<feGaussianBlur stdDeviation="150" result="effect1_foregroundBlur"/>
</filter>
<clipPath id="clip0">
<rect width="230" height="174" rx="4" fill="white"/>
</clipPath>
</defs>
</svg>
