<?xml version="1.0" encoding="utf-8"?>
<!-- Generator: Adobe Illustrator 25.0.1, SVG Export Plug-In . SVG Version: 6.00 Build 0)  -->
<svg version="1.1" id="Layer_1" xmlns="http://www.w3.org/2000/svg" xmlns:xlink="http://www.w3.org/1999/xlink" x="0px" y="0px"
	 viewBox="0 0 1440 403" style="enable-background:new 0 0 1440 403;" xml:space="preserve">
<style type="text/css">
	.st0{fill:#FFFFFF;}
	.st1{fill-rule:evenodd;clip-rule:evenodd;fill:url(#SVGID_1_);}
	.st2{fill:url(#SVGID_2_);}
	.st3{fill:url(#SVGID_3_);}
	.st4{fill-rule:evenodd;clip-rule:evenodd;fill:url(#SVGID_4_);}
	.st5{fill-rule:evenodd;clip-rule:evenodd;fill:url(#SVGID_5_);}
	.st6{fill:#141414;}
	.st7{fill:url(#SVGID_6_);fill-opacity:0.15;}
	.st8{clip-path:url(#SVGID_8_);}
	.st9{clip-path:url(#SVGID_12_);}
	.st10{clip-path:url(#SVGID_16_);}
	.st11{clip-path:url(#SVGID_20_);}
	.st12{clip-path:url(#SVGID_24_);}
	.st13{clip-path:url(#SVGID_28_);}
	.st14{clip-path:url(#SVGID_32_);}
	.st15{clip-path:url(#SVGID_36_);}
	.st16{clip-path:url(#SVGID_40_);}
	.st17{clip-path:url(#SVGID_44_);}
	.st18{fill:url(#SVGID_47_);fill-opacity:0.15;}
	.st19{clip-path:url(#SVGID_49_);}
	.st20{clip-path:url(#SVGID_53_);}
	.st21{clip-path:url(#SVGID_57_);}
	.st22{clip-path:url(#SVGID_61_);}
	.st23{clip-path:url(#SVGID_65_);}
	.st24{clip-path:url(#SVGID_69_);}
	.st25{clip-path:url(#SVGID_73_);}
	.st26{clip-path:url(#SVGID_77_);}
	.st27{clip-path:url(#SVGID_81_);}
	.st28{clip-path:url(#SVGID_85_);}
	.st29{fill:url(#lower_bg_3_);fill-opacity:0.15;}
	.st30{clip-path:url(#SVGID_89_);}
	.st31{clip-path:url(#SVGID_93_);}
	.st32{clip-path:url(#SVGID_97_);}
	.st33{clip-path:url(#SVGID_101_);}
	.st34{clip-path:url(#SVGID_105_);}
	.st35{clip-path:url(#SVGID_109_);}
	.st36{clip-path:url(#SVGID_113_);}
	.st37{clip-path:url(#SVGID_117_);}
</style>
<symbol  id="Авиасейлс_Ещё._Куда_уж_лучше_" viewBox="-103.6 -9.9 207.3 19.8">
	<path class="st0" d="M-99.2,9.9l-4.4-8.1l1.2-0.1l0.8,1.6l4.7-0.2l0.6-1.6l1.2-0.1l-3.4,8.5H-99.2z M-101.1,4.3l2.1,4l1.6-4.2
		L-101.1,4.3z M-93.4,7.3l-0.3-6l3.4-0.2c0.3,0,0.6,0,0.9,0.1c0.2,0.1,0.5,0.2,0.6,0.3c0.2,0.1,0.3,0.3,0.4,0.5
		c0.1,0.2,0.1,0.4,0.2,0.6c0,0.5-0.1,0.8-0.3,1c-0.2,0.2-0.6,0.4-1,0.4v0.2c0.4,0,0.7,0.1,1,0.3c0.2,0.2,0.4,0.5,0.4,1
		c0,0.2,0,0.4-0.1,0.6c-0.1,0.2-0.2,0.3-0.3,0.5c-0.2,0.2-0.4,0.3-0.6,0.4c-0.3,0.1-0.6,0.2-1,0.2L-93.4,7.3z M-92.6,3.8l2.2-0.1
		c0.4,0,0.7-0.1,0.8-0.3s0.2-0.4,0.2-0.6c0-0.3-0.1-0.5-0.4-0.6C-89.9,2-90.1,2-90.4,2l-2.1,0.1V3.8z M-92.4,6.3l2-0.1
		c0.2,0,0.4,0,0.6-0.1c0.1-0.1,0.3-0.1,0.3-0.2c0.1-0.1,0.1-0.2,0.1-0.2c0-0.1,0-0.2,0-0.3c0-0.2-0.1-0.4-0.2-0.6
		c-0.1-0.2-0.4-0.2-0.7-0.2l-2.2,0.1L-92.4,6.3z M-82.2,0.7l1.1-0.1l0.3,6h-0.6l-4-4.1l0.2,4.3l-1.1,0.1l-0.3-6h0.6l4,4L-82.2,0.7z
		 M-77.1,0.2c0.5,0,1,0,1.4,0.2c0.4,0.2,0.7,0.5,0.9,0.9h0.1l-0.1-1l1.1-0.1l0.2,4c0,0.8-0.2,1.3-0.6,1.7c-0.5,0.4-1.1,0.6-2,0.6
		c-0.4,0-0.8,0-1.1-0.1s-0.6-0.2-0.8-0.3c-0.2-0.2-0.4-0.4-0.6-0.6c-0.2-0.3-0.3-0.6-0.3-1l1-0.1c0,0.2,0.1,0.4,0.2,0.6
		c0.1,0.2,0.2,0.3,0.4,0.4c0.1,0.1,0.3,0.1,0.5,0.2c0.2,0,0.4,0,0.7,0c0.6,0,1-0.2,1.3-0.4c0.3-0.2,0.4-0.5,0.3-1V3.7
		c-0.2,0-0.4,0-0.5,0.1c-0.2,0-0.3,0-0.5,0s-0.3,0-0.5,0s-0.4,0-0.6,0c-0.5,0-0.9,0-1.3-0.1c-0.3-0.1-0.6-0.2-0.8-0.4
		s-0.3-0.4-0.4-0.6c-0.1-0.2-0.1-0.4-0.1-0.6c0-0.3,0-0.6,0.1-0.9c0.1-0.2,0.2-0.5,0.4-0.6c0.2-0.2,0.4-0.3,0.7-0.4
		C-77.9,0.3-77.6,0.2-77.1,0.2z M-76.9,1.1c-0.5,0-0.9,0.1-1.2,0.3c-0.3,0.2-0.4,0.4-0.3,0.8c0,0.1,0,0.3,0.1,0.4
		c0,0.1,0.1,0.2,0.3,0.3c0.1,0.1,0.3,0.2,0.6,0.2c0.2,0,0.6,0.1,1,0c0.2,0,0.5,0,0.8-0.1c0.3,0,0.6-0.1,0.9-0.1V2.3
		c0-0.3-0.1-0.5-0.3-0.7c-0.1-0.2-0.3-0.3-0.5-0.4s-0.4-0.1-0.6-0.2C-76.4,1.1-76.6,1.1-76.9,1.1z M-65.9,1.8l-1,0.1
		c-0.1-0.2-0.2-0.4-0.3-0.6c-0.1-0.2-0.3-0.3-0.4-0.4c-0.2-0.1-0.4-0.1-0.6-0.2c-0.2,0-0.4,0-0.7,0s-0.6,0.1-0.9,0.1
		c-0.2,0.1-0.4,0.2-0.6,0.4s-0.3,0.4-0.4,0.7c-0.1,0.3-0.1,0.7-0.1,1.1c0,0.5,0.1,0.9,0.2,1.2c0.1,0.3,0.3,0.5,0.4,0.7
		c0.2,0.2,0.4,0.3,0.7,0.3s0.5,0.1,0.9,0.1c0.2,0,0.4,0,0.6-0.1c0.2,0,0.4-0.1,0.5-0.2c0.2-0.1,0.3-0.2,0.4-0.4
		c0-0.2,0.1-0.4,0.1-0.6l1.1-0.1c-0.1,0.4-0.1,0.7-0.3,1s-0.3,0.5-0.6,0.7c-0.2,0.2-0.5,0.3-0.8,0.4c-0.3,0.1-0.7,0.1-1.1,0.2
		c-0.5,0-0.9,0-1.3-0.1c-0.4-0.1-0.7-0.2-1-0.5c-0.3-0.2-0.5-0.6-0.7-1s-0.3-0.9-0.3-1.5s0-1.1,0.1-1.5c0.1-0.4,0.3-0.7,0.6-1
		c0.3-0.3,0.6-0.5,1-0.6c0.4-0.1,0.8-0.2,1.3-0.2c0.4,0,0.8,0,1.1,0.1s0.6,0.2,0.9,0.3c0.3,0.2,0.5,0.4,0.7,0.6
		C-66.1,1-65.9,1.4-65.9,1.8z M-58.2,2v0.8c0,0.9-0.2,1.6-0.7,2.1s-1.2,0.7-2.1,0.8c-0.5,0-0.9,0-1.3-0.1c-0.4-0.1-0.7-0.2-1-0.5
		c-0.3-0.2-0.5-0.6-0.7-1c-0.2-0.4-0.3-0.9-0.3-1.5s0-1.1,0.1-1.5c0.1-0.4,0.3-0.7,0.6-1s0.6-0.5,1-0.6s0.8-0.2,1.3-0.2
		c0.4,0,0.8,0,1.1,0c0.3,0.1,0.6,0.1,0.9,0.3c0.3,0.1,0.5,0.3,0.7,0.6c0.2,0.2,0.3,0.5,0.4,0.9l-1,0.1c-0.1-0.2-0.1-0.4-0.3-0.5
		c-0.1-0.1-0.3-0.2-0.4-0.3c-0.2-0.1-0.4-0.1-0.6-0.1c-0.2,0-0.4,0-0.7,0s-0.6,0.1-0.8,0.1c-0.2,0.1-0.5,0.2-0.6,0.3
		c-0.2,0.2-0.3,0.4-0.4,0.6c-0.1,0.2-0.1,0.6-0.1,1L-58.2,2z M-61,4.9c0.3,0,0.5-0.1,0.8-0.1c0.2-0.1,0.4-0.2,0.6-0.3
		c0.2-0.2,0.3-0.3,0.4-0.6c0.1-0.2,0.1-0.5,0.1-0.9L-63,3.2c0,0.4,0.1,0.7,0.2,0.9c0.1,0.2,0.3,0.4,0.5,0.5s0.4,0.2,0.6,0.2
		C-61.6,4.9-61.3,4.9-61,4.9z M-52.2-0.9l1.1-0.1l0.3,6h-0.6l-4-4.1l0.2,4.3l-1.1,0.1l-0.3-6h0.6l4,4L-52.2-0.9z M-53.5,6
		c0.6,0,1.1,0.1,1.4,0.3c0.3,0.3,0.5,0.7,0.5,1.3h-0.9c0-0.3-0.1-0.5-0.3-0.7c-0.2-0.1-0.4-0.2-0.7-0.2s-0.6,0.1-0.7,0.2
		c-0.1,0.1-0.2,0.4-0.2,0.7h-0.9c0-0.6,0.1-1,0.4-1.3C-54.6,6.2-54.1,6.1-53.5,6z M-48.5,4.9l-0.2-3.1c0-0.4-0.1-0.7-0.1-1
		c-0.1-0.3-0.1-0.5-0.2-0.6c0-0.1-0.2-0.2-0.3-0.2c-0.1-0.1-0.2-0.1-0.4-0.1l-0.1-1h0.2c0.6,0,1,0.2,1.3,0.6s0.5,1.1,0.5,2.1
		l0.1,2.3l2.8-0.1L-45-1.3l1.1-0.1l0.3,6L-48.5,4.9z M-36,0.2l-1,0.1c-0.1-0.2-0.2-0.4-0.3-0.6s-0.3-0.3-0.4-0.4
		c-0.2-0.1-0.4-0.1-0.6-0.2c-0.2,0-0.4,0-0.7,0s-0.6,0.1-0.9,0.1c-0.3,0.1-0.5,0.2-0.6,0.4c-0.2,0.2-0.3,0.4-0.4,0.7
		C-41,0.6-41,1-41,1.5s0.1,0.9,0.2,1.2c0.1,0.3,0.3,0.5,0.4,0.7c0.2,0.2,0.4,0.3,0.7,0.3s0.5,0.1,0.9,0.1c0.2,0,0.4,0,0.6-0.1
		c0.2,0,0.4-0.1,0.5-0.2c0.2-0.1,0.3-0.2,0.4-0.4c0.1-0.2,0.2-0.4,0.2-0.6l1.1-0.1c-0.1,0.4-0.1,0.7-0.3,1s-0.3,0.5-0.6,0.7
		c-0.2,0.2-0.5,0.3-0.8,0.4s-0.7,0.1-1.1,0.2c-0.5,0-0.9,0-1.3-0.1c-0.4-0.1-0.7-0.2-1-0.5c-0.3-0.2-0.5-0.6-0.7-1
		c-0.1-0.4-0.2-1-0.2-1.6s0-1.1,0.1-1.5s0.3-0.7,0.6-1s0.6-0.5,1-0.6s0.8-0.2,1.3-0.2c0.4,0,0.8,0,1.1,0.1s0.6,0.2,0.9,0.3
		c0.3,0.2,0.5,0.4,0.7,0.6C-36.2-0.5-36-0.2-36,0.2z M-24.8-2.3l0.1,1.1L-29.8-1l0.1,2.6l5.1-0.3l0.1,1.1l-5.1,0.3l0.1,2.5l5.2-0.3
		l0.1,1.1l-6.3,0.3L-31-2L-24.8-2.3z M-21.8-1.6l0.3,5.1l-1.1,0.1l-0.3-6l7.9-0.4L-15-4.6l1.1-0.1V-2h-1l0.3,5.1l-1.1,0.1l-0.2-5.1
		l-2.4,0.1l0.3,5.1l-1.1,0.1l-0.3-5.1L-21.8-1.6z M-6.6-0.7v0.8c0,0.9-0.2,1.6-0.7,2.1S-8.5,3-9.4,3c-0.5,0-0.9,0-1.3-0.1
		c-0.4-0.1-0.7-0.3-1-0.5s-0.5-0.6-0.7-1s-0.3-0.9-0.3-1.5s0-1.1,0.1-1.5s0.3-0.7,0.6-1s0.6-0.5,1-0.6s0.8-0.2,1.3-0.2
		c0.4,0,0.8,0,1.1,0C-8.3-3.2-8-3.1-7.7-3S-7.2-2.7-7-2.4c0.1,0.3,0.3,0.6,0.3,0.9l-1,0.1C-7.8-1.6-7.8-1.8-8-2
		c-0.1-0.1-0.3-0.2-0.4-0.3C-8.6-2.4-8.8-2.4-9-2.4s-0.4,0-0.7,0s-0.6,0.1-0.8,0.1c-0.2,0.1-0.4,0.2-0.6,0.3
		c-0.2,0.2-0.3,0.4-0.4,0.6c-0.1,0.2-0.1,0.6-0.1,1L-6.6-0.7z M-9.4,2.1c0.3,0,0.5,0,0.7-0.1c0.3,0,0.4-0.2,0.6-0.3
		c0.2-0.1,0.3-0.3,0.4-0.6c0.1-0.2,0.1-0.5,0.1-0.9l-3.9,0.2c0,0.4,0.1,0.7,0.2,0.9c0.1,0.2,0.3,0.4,0.5,0.5S-10.4,2-10.2,2
		C-10,2.2-9.7,2.2-9.4,2.1z M-5.1-3.4l1.4-0.1l0.1,1.3L-5.1-2V-3.4z M7.2-4l1.6-0.1l-4,4.7L9,4.2L7.5,4.3l-4.6-4l0.2,4.2L2,4.6
		L1.6-3.7l1.1-0.1L2.9,0l1-0.1L7.2-4z M11.9-3.8l-1.4-2.5l1.1-0.1l4.2,7.9l-1.1,0.1l-2.3-4.4l-2.1,4.6L9.2,1.9L11.9-3.8z M17.5,1.5
		l-0.1-1.9c0-0.4-0.1-0.7-0.1-1.1s-0.1-0.7-0.2-1c0-0.2-0.1-0.5-0.2-0.7s-0.2-0.3-0.4-0.4h-0.6l-0.1-2.7l1.1-0.1L17-4.6l5.1-0.2
		L22-6.6l1.1-0.1L23.2-4l-1,0.1l0.3,5.1L17.5,1.5z M18.5-0.6l0.1,1.1l2.8-0.1l-0.3-4.2l-3.4,0.2c0.2,0.2,0.4,0.6,0.5,1.1
		S18.4-1.4,18.5-0.6z M26.5-5.2c0.5,0,1,0,1.4,0.2s0.7,0.5,0.9,0.9h0.1l-0.1-1l1.1-0.1l0.2,4c0,0.8-0.2,1.3-0.6,1.7
		c-0.5,0.4-1.1,0.6-2,0.6c-0.4,0-0.8,0-1.1-0.1c-0.3,0-0.5-0.1-0.8-0.2c-0.2-0.2-0.4-0.4-0.6-0.6c-0.2-0.3-0.3-0.6-0.3-1l1-0.1
		c0,0.2,0.1,0.4,0.2,0.6s0.2,0.3,0.4,0.4c0.1,0.1,0.3,0.1,0.5,0.2c0.2,0,0.4,0,0.7,0c0.6,0,1-0.2,1.3-0.4s0.4-0.5,0.3-1v-0.5
		c-0.2,0-0.4,0-0.5,0.1c-0.2,0-0.3,0-0.5,0s-0.3,0-0.5,0s-0.4,0-0.6,0c-0.5,0-0.9,0-1.3-0.1c-0.3-0.1-0.6-0.2-0.8-0.4
		s-0.3-0.4-0.4-0.6S24.4-3,24.4-3.2c0-0.3,0-0.6,0.1-0.9c0.1-0.2,0.2-0.5,0.4-0.6c0.2-0.2,0.5-0.3,0.7-0.4
		C25.9-5.1,26.2-5.2,26.5-5.2z M26.9-4.3c-0.5,0-0.9,0.1-1.2,0.3s-0.3,0.4-0.3,0.8c0,0.1,0,0.3,0.1,0.4c0,0.1,0.1,0.2,0.3,0.3
		c0.1,0.1,0.3,0.2,0.6,0.2c0.2,0,0.6,0.1,1,0c0.2,0,0.5,0,0.8-0.1c0.3,0,0.6-0.1,0.9-0.1v-0.6c0-0.3-0.1-0.5-0.3-0.7
		c-0.1-0.2-0.3-0.3-0.5-0.4s-0.4-0.1-0.7-0.2C27.4-4.3,27.2-4.3,26.9-4.3z M37.4-5.2L36-7.7H37l4.2,7.9l-1.1,0.1l-2.3-4.4l-2.1,4.6
		l-1.2,0.1L37.4-5.2z M45.9-3l-2.2,3.1l-1.3,0.1l2.1-2.9l-2.6-3.1l1.3-0.1l2,2.5h0.7L45.7-6l1.1-0.1l0.1,2.6h0.6l1.8-2.7l1.3-0.1
		L48.2-3l2.4,2.7l-1.3,0.1L46.9-3l0.2,3H46L45.9-3z M55.9-0.6l-0.2-3.1c0-0.4-0.1-0.7-0.1-1c-0.1-0.3-0.1-0.5-0.2-0.6
		c-0.1-0.1-0.2-0.2-0.3-0.3c-0.1-0.1-0.2-0.1-0.4-0.1l-0.1-1h0.2c0.6,0,1,0.2,1.3,0.6S56.5-5,56.5-4l0.1,2.3l2.8-0.1l-0.3-5.1l1-0.1
		l0.3,6L55.9-0.6z M64.8-6.6l-1.4-2.5l1.1-0.1l4.2,7.9l-1.1,0.1l-2.3-4.4L63-1L62-0.9L64.8-6.6z M69.9-1.3l-0.1-2
		c0-0.6,0.1-1.1,0.5-1.5c0.4-0.4,1-0.6,1.8-0.6c0.3,0,0.7,0,0.9,0c0.3,0,0.6,0.1,0.9,0.1l-0.1-2.3l1.1-0.1l0.3,6l-1.1,0.1l-0.1-2.9
		c-0.3-0.1-0.7-0.1-0.9-0.1c-0.3,0-0.6,0-0.9,0c-0.5,0-0.8,0.1-1,0.3c-0.2,0.2-0.3,0.5-0.3,0.8l0.1,2L69.9-1.3z M77.9-6.8l0.3,5.1
		l-1.1,0.1l-0.3-6L84.8-8l0.3,6h-1l-0.3-5.1L81.4-7l0.3,5.1l-1.1,0.1l-0.3-5.1L77.9-6.8z M92.8-5.9v0.8c0,0.9-0.2,1.6-0.7,2.1
		s-1.2,0.7-2.1,0.8c-0.5,0-0.9,0-1.3-0.1c-0.4-0.1-0.7-0.2-1-0.5c-0.3-0.2-0.5-0.6-0.7-1s-0.3-0.9-0.3-1.5s0-1.1,0.1-1.5
		c0.1-0.4,0.3-0.7,0.6-1c0.3-0.3,0.6-0.5,1-0.6c0.4-0.1,0.8-0.2,1.3-0.2c0.4,0,0.8,0,1.1,0c0.3,0.1,0.6,0.1,0.9,0.3
		c0.3,0.1,0.5,0.3,0.6,0.6c0.2,0.2,0.3,0.5,0.4,0.9l-1,0.1c-0.1-0.2-0.1-0.4-0.3-0.5c-0.1-0.1-0.3-0.2-0.4-0.3
		c-0.2-0.1-0.4-0.1-0.6-0.1s-0.4,0-0.7,0c-0.3,0-0.6,0.1-0.8,0.1c-0.2,0.1-0.5,0.2-0.6,0.3c-0.1,0.1-0.3,0.4-0.4,0.6
		c-0.1,0.2-0.1,0.6-0.1,1L92.8-5.9z M89.9-3.1c0.3,0,0.5-0.1,0.8-0.1c0.2-0.1,0.4-0.2,0.6-0.3c0.2-0.2,0.3-0.3,0.4-0.6
		c0.1-0.2,0.1-0.5,0.1-0.9l-3.9,0.2c0,0.4,0.1,0.7,0.2,0.9c0.1,0.2,0.3,0.4,0.5,0.5s0.4,0.2,0.6,0.2C89.4-3.1,89.6-3,89.9-3.1z
		 M102.6,0l-5.5-9.8l1.1-0.1l5.5,9.8L102.6,0z"/>
</symbol>
<symbol  id="Кэшбэчечка" viewBox="-158 -12.8 316 25.6">
	<path class="st0" d="M-151.9-12.4l1.6,0.1l-4.5,4.2L-151-4l-1.5-0.1l-4.1-4.5l-0.3,4.2l-1.1-0.1l0.5-8.3l1.1,0.1l-0.2,3.8l1,0.1
		L-151.9-12.4z M-146.5-11.3c-0.3,0-0.6,0-0.9,0s-0.5,0.1-0.7,0.3c-0.2,0.2-0.3,0.4-0.5,0.7c-0.1,0.3-0.2,0.7-0.2,1.1
		c0,0.5,0,0.9,0.1,1.2s0.2,0.6,0.4,0.7c0.2,0.2,0.4,0.3,0.6,0.4s0.5,0.1,0.9,0.2c0.3,0,0.6,0,0.9,0s0.5-0.2,0.7-0.3
		c0.2-0.2,0.3-0.4,0.5-0.7c0.1-0.3,0.2-0.7,0.2-1.2s0-0.9-0.1-1.1c-0.1-0.3-0.2-0.5-0.4-0.7c-0.2-0.2-0.4-0.3-0.6-0.4
		C-145.9-11.2-146.2-11.3-146.5-11.3z M-146.8-5.8c-0.5,0-0.9-0.1-1.3-0.2s-0.7-0.3-0.9-0.6c-0.2-0.3-0.4-0.6-0.5-1
		s-0.2-0.9-0.1-1.5c0-0.6,0.1-1.1,0.3-1.5c0.2-0.4,0.4-0.7,0.7-0.9c0.3-0.2,0.6-0.4,1-0.5s0.8-0.1,1.3-0.1s0.9,0.1,1.3,0.2
		c0.4,0.1,0.7,0.3,1,0.6c0.2,0.3,0.4,0.6,0.5,1s0.2,0.9,0.1,1.5c0,0.6-0.1,1.1-0.3,1.5c-0.2,0.4-0.4,0.7-0.7,1
		c-0.3,0.2-0.6,0.4-1,0.5C-145.9-5.9-146.2-5.8-146.8-5.8z M-141.9-5.7l0.4-6l1.1,0.1l-0.3,5.1l3.5,0.2l0.3-5.1l1.1,0.1l-0.4,6
		L-141.9-5.7z M-128.2-8.3v0.8c-0.1,0.9-0.4,1.6-0.9,2c-0.6,0.4-1.3,0.6-2.2,0.5c-0.5,0-0.9-0.1-1.3-0.2c-0.4-0.1-0.7-0.3-0.9-0.6
		c-0.2-0.3-0.4-0.6-0.5-1s-0.2-0.9-0.1-1.5c0-0.6,0.1-1.1,0.3-1.5c0.2-0.4,0.4-0.7,0.7-0.9c0.3-0.2,0.6-0.4,1-0.5s0.8-0.1,1.3-0.1
		c0.4,0,0.8,0.1,1.1,0.2c0.3,0.1,0.6,0.2,0.8,0.4c0.2,0.2,0.4,0.4,0.6,0.7s0.2,0.6,0.3,1l-1-0.1c0-0.2-0.1-0.4-0.2-0.6
		c-0.1-0.2-0.2-0.3-0.4-0.3c-0.2-0.1-0.3-0.2-0.5-0.2c-0.2-0.1-0.4-0.1-0.7-0.1c-0.3,0-0.6,0-0.8,0c-0.3,0-0.5,0.1-0.7,0.2
		c-0.2,0.1-0.3,0.3-0.5,0.5c-0.1,0.2-0.2,0.6-0.2,0.9L-128.2-8.3z M-131.4-5.8c0.3,0,0.5,0,0.8,0c0.2,0,0.4-0.1,0.6-0.3
		c0.2-0.1,0.3-0.3,0.4-0.5c0.1-0.2,0.2-0.5,0.2-0.9l-3.9-0.2c0,0.4,0,0.7,0.1,0.9c0.1,0.2,0.2,0.4,0.4,0.6c0.2,0.1,0.4,0.3,0.6,0.3
		C-131.9-5.8-131.7-5.8-131.4-5.8z M-120.7-7.8l-0.1,0.8c-0.1,0.9-0.4,1.6-0.9,2c-0.6,0.4-1.3,0.6-2.2,0.5c-0.5,0-0.9-0.1-1.3-0.2
		s-0.7-0.3-0.9-0.6c-0.2-0.3-0.4-0.6-0.5-1s-0.2-0.9-0.1-1.5c0-0.6,0.1-1.1,0.3-1.5c0.2-0.4,0.4-0.7,0.7-0.9c0.3-0.2,0.6-0.4,1-0.5
		s0.8-0.1,1.3-0.1c0.4,0,0.8,0.1,1.1,0.2c0.3,0.1,0.6,0.2,0.8,0.4c0.2,0.2,0.4,0.4,0.6,0.7s0.2,0.6,0.3,1l-1-0.1
		c0-0.2-0.1-0.4-0.2-0.6c-0.1-0.2-0.2-0.3-0.4-0.3c-0.2-0.1-0.3-0.2-0.5-0.2s-0.4-0.1-0.7-0.1c-0.3,0-0.6,0-0.8,0
		c-0.3,0-0.5,0.1-0.7,0.2c-0.2,0.1-0.3,0.3-0.5,0.5c-0.1,0.2-0.2,0.6-0.2,0.9L-120.7-7.8z M-123.8-5.3c0.3,0,0.5,0,0.8,0
		c0.2,0,0.4-0.1,0.6-0.3c0.2-0.1,0.3-0.3,0.4-0.5s0.2-0.5,0.2-0.9l-3.9-0.2c0,0.4,0,0.7,0.1,0.9s0.2,0.4,0.4,0.6
		c0.2,0.1,0.4,0.3,0.6,0.3C-124.3-5.4-124.1-5.3-123.8-5.3z M-119.2-4.3l0.1-2c0-0.6,0.3-1.1,0.7-1.4c0.4-0.3,1-0.5,1.8-0.4
		c0.3,0,0.7,0.1,0.9,0.1c0.3,0.1,0.6,0.1,0.9,0.2l0.1-2.3l1.1,0.1l-0.4,6l-1.1-0.1l0.2-2.9c-0.3-0.1-0.6-0.2-0.9-0.2
		s-0.6-0.1-0.9-0.1c-0.5,0-0.8,0-1,0.2s-0.3,0.4-0.4,0.8l-0.1,2L-119.2-4.3z M-109.2-6.4l2.6,2.9l-1.4-0.1l-2.7-3.2l-0.2,3l-1.1-0.1
		l0.4-6l1.1,0.1l-0.2,2.6l0.9,0.1l2.4-2.5l1.3,0.1L-109.2-6.4z M-102.9-9.5c0.5,0,1,0.1,1.3,0.4c0.4,0.2,0.7,0.5,0.8,1h0.1l0.1-1
		l1.1,0.1l-0.2,4c0,0.8-0.3,1.3-0.8,1.6s-1.2,0.4-2,0.4c-0.4,0-0.8-0.1-1.1-0.2c-0.3-0.1-0.6-0.2-0.8-0.4c-0.2-0.2-0.4-0.4-0.5-0.7
		s-0.2-0.6-0.2-1l1,0.1c0,0.2,0.1,0.4,0.2,0.6s0.2,0.3,0.3,0.4c0.1,0.1,0.3,0.2,0.5,0.2s0.4,0.1,0.7,0.1c0.6,0,1,0,1.3-0.2
		c0.3-0.2,0.4-0.5,0.5-0.9v-0.5c-0.2,0-0.4,0-0.5,0c-0.2,0-0.3,0-0.5,0s-0.3,0-0.5,0s-0.4,0-0.6,0c-0.5,0-0.9-0.1-1.2-0.2
		c-0.3-0.1-0.6-0.3-0.7-0.5c-0.2-0.2-0.3-0.4-0.3-0.6C-105-7-105-7.2-105-7.4c0-0.3,0.1-0.6,0.2-0.9c0.1-0.2,0.3-0.4,0.5-0.6
		c0.2-0.1,0.4-0.2,0.7-0.3C-103.6-9.5-103.3-9.5-102.9-9.5z M-102.6-8.6c-0.5,0-0.9,0-1.2,0.1c-0.3,0.1-0.4,0.4-0.4,0.8
		c0,0.1,0,0.3,0,0.4s0.1,0.2,0.2,0.4c0.1,0.1,0.3,0.2,0.5,0.3c0.2,0.1,0.6,0.1,1,0.1c0.2,0,0.5,0,0.8,0s0.6,0,0.9,0v-0.6
		c0-0.3-0.1-0.5-0.2-0.7s-0.3-0.3-0.4-0.4c-0.2-0.1-0.4-0.2-0.6-0.2C-102.2-8.5-102.4-8.6-102.6-8.6z M-91.6-5.3l2.6,2.9l-1.4-0.1
		l-2.7-3.2l-0.2,3l-1.1-0.1l0.4-6l1.1,0.1l-0.2,2.6l0.9,0.1l2.4-2.5l1.3,0.1L-91.6-5.3z M-81.6-4.7l2.6,2.9l-1.4-0.1l-2.7-3.2
		l-0.2,3l-1.1-0.1l0.4-6l1.1,0.1l-0.2,2.6l0.9,0.1l2.4-2.5l1.3,0.1L-81.6-4.7z M-74.6-6.8c-0.3,0-0.6,0-0.9,0s-0.5,0.1-0.7,0.3
		c-0.2,0.2-0.3,0.4-0.4,0.7c-0.1,0.3-0.2,0.7-0.2,1.1c0,0.5,0,0.9,0.1,1.2s0.2,0.6,0.4,0.7c0.2,0.2,0.4,0.3,0.6,0.4
		c0.2,0.1,0.5,0.1,0.9,0.1c0.3,0,0.6,0,0.9,0s0.5-0.2,0.7-0.3c0.2-0.2,0.3-0.4,0.5-0.7c0.1-0.3,0.2-0.7,0.2-1.2s0-0.9-0.1-1.1
		c-0.2-0.3-0.4-0.5-0.5-0.7c-0.2-0.2-0.4-0.3-0.6-0.4C-74-6.8-74.3-6.8-74.6-6.8z M-75-1.4c-0.5,0-0.9-0.1-1.3-0.2s-0.7-0.3-0.9-0.6
		c-0.2-0.3-0.4-0.6-0.5-1s-0.2-0.9-0.1-1.5c0-0.6,0.1-1.1,0.3-1.5c0.2-0.4,0.4-0.7,0.7-0.9c0.3-0.2,0.6-0.4,1-0.5s0.8-0.1,1.3-0.1
		s0.9,0.1,1.3,0.2s0.7,0.3,1,0.6c0.2,0.3,0.4,0.6,0.6,1c0.1,0.4,0.2,0.9,0.1,1.5c0,0.6-0.1,1.1-0.3,1.5c-0.2,0.4-0.4,0.7-0.7,1
		c-0.3,0.2-0.6,0.4-1,0.5C-74-1.4-74.5-1.4-75-1.4z M-70-1.3l0.4-6l1.1,0.1l-0.3,5.1l3.5,0.2L-65-7l0.9,0.1l-0.4,6L-70-1.3z
		 M-56.4-3.8L-56.5-3c-0.1,0.9-0.4,1.6-0.9,2c-0.6,0.4-1.3,0.6-2.2,0.5c-0.5,0-0.9-0.1-1.3-0.2c-0.4-0.1-0.7-0.3-0.9-0.6
		s-0.4-0.6-0.5-1s-0.2-0.9-0.1-1.5c0-0.6,0.1-1.1,0.3-1.5s0.4-0.7,0.7-0.9c0.3-0.2,0.6-0.4,1-0.5s0.8-0.1,1.3-0.1
		c0.4,0,0.8,0.1,1.1,0.2s0.6,0.2,0.8,0.4c0.2,0.2,0.4,0.4,0.6,0.7c0.2,0.3,0.2,0.6,0.3,1l-1-0.1c0-0.2-0.1-0.4-0.2-0.6
		c-0.1-0.2-0.2-0.3-0.4-0.3c-0.2-0.1-0.3-0.2-0.5-0.2s-0.4-0.1-0.7-0.1s-0.6,0-0.8,0c-0.3,0-0.5,0.1-0.7,0.2s-0.3,0.3-0.5,0.5
		c-0.1,0.2-0.2,0.6-0.2,0.9L-56.4-3.8z M-59.5-1.3c0.3,0,0.5,0,0.8,0c0.2,0,0.4-0.1,0.6-0.3c0.2-0.1,0.3-0.3,0.4-0.5
		c0.1-0.2,0.2-0.5,0.2-0.9l-3.9-0.2c0,0.4,0,0.7,0.1,0.9c0.1,0.2,0.2,0.4,0.4,0.6c0.2,0.1,0.4,0.3,0.6,0.3
		C-60.1-1.4-59.8-1.3-59.5-1.3z M-48.8-3.3v0.8c-0.1,0.9-0.4,1.6-0.9,2C-50.3-0.1-51.1,0.1-52,0c-0.5,0-0.9-0.1-1.3-0.2
		c-0.4-0.1-0.7-0.3-0.9-0.6s-0.4-0.6-0.5-1s-0.2-0.9-0.1-1.5c0-0.6,0.1-1.1,0.3-1.5s0.4-0.7,0.7-0.9c0.3-0.2,0.6-0.4,1-0.5
		s0.8-0.1,1.3-0.1c0.4,0,0.8,0.1,1.1,0.2s0.6,0.2,0.8,0.4S-49.2-5.3-49-5s0.2,0.6,0.3,1l-1-0.1c0-0.2-0.1-0.4-0.2-0.6
		c-0.2-0.2-0.3-0.3-0.5-0.4s-0.3-0.2-0.5-0.2s-0.4-0.1-0.7-0.1s-0.6,0-0.8,0c-0.3,0-0.5,0.1-0.7,0.2s-0.3,0.3-0.5,0.5
		c-0.1,0.2-0.2,0.6-0.2,0.9L-48.8-3.3z M-51.9-0.8c0.3,0,0.5,0,0.8,0c0.2,0,0.4-0.1,0.6-0.3c0.2-0.1,0.3-0.3,0.4-0.5
		c0.1-0.2,0.2-0.5,0.2-0.9l-3.9-0.2c0,0.4,0,0.7,0.1,0.9s0.2,0.4,0.4,0.6c0.2,0.1,0.4,0.3,0.6,0.3C-52.4-0.9-52.2-0.9-51.9-0.8z
		 M-47.4,0.2l0.1-2c0-0.6,0.3-1.1,0.7-1.4s1-0.5,1.8-0.4c0.3,0,0.7,0.1,0.9,0.1c0.3,0.1,0.6,0.1,0.9,0.2l0.1-2.3l1.1,0.1l-0.4,6
		l-0.9-0.1l0.2-2.9c-0.3-0.1-0.6-0.2-0.9-0.2c-0.3,0-0.6-0.1-0.9-0.1c-0.5,0-0.8,0-1,0.2s-0.3,0.4-0.4,0.8l-0.1,2L-47.4,0.2z
		 M-37.3-2l2.6,2.9h-1.4l-2.7-3.2l-0.2,3l-1.1-0.1l0.4-6l1.1,0.1l-0.2,2.6l0.9,0.1l2.4-2.5l1.3,0.1L-37.3-2z M-27.5-2l-0.1,0.8
		c-0.1,0.9-0.4,1.6-0.9,2c-0.6,0.4-1.3,0.6-2.2,0.5c-0.5,0-0.9-0.1-1.3-0.2c-0.4-0.1-0.7-0.3-0.9-0.6s-0.4-0.6-0.5-1
		s-0.2-0.9-0.1-1.5c0-0.6,0.1-1.1,0.3-1.5s0.4-0.7,0.7-0.9c0.3-0.2,0.6-0.4,1-0.5S-30.7-5-30.2-5c0.4,0,0.8,0.1,1.1,0.2
		c0.3,0.1,0.6,0.2,0.8,0.4c0.2,0.2,0.4,0.4,0.6,0.7s0.2,0.6,0.3,1l-1-0.1c0-0.2-0.1-0.4-0.2-0.6s-0.2-0.3-0.4-0.3
		c-0.2-0.2-0.4-0.2-0.6-0.3c-0.2,0-0.4-0.1-0.7-0.1c-0.3,0-0.6,0-0.8,0c-0.3,0-0.5,0.1-0.7,0.2c-0.2,0.1-0.3,0.3-0.5,0.5
		c-0.1,0.2-0.2,0.6-0.2,0.9L-27.5-2z M-30.6,0.5c0.3,0,0.5,0,0.8,0c0.2,0,0.4-0.1,0.6-0.3c0.2-0.1,0.3-0.3,0.4-0.5s0.2-0.5,0.2-0.9
		l-3.9-0.2c0,0.4,0,0.7,0.1,0.9s0.2,0.4,0.4,0.6c0.2,0.1,0.4,0.3,0.6,0.3C-31.1,0.4-30.9,0.5-30.6,0.5z M-15.5-1.1l-0.1,0.9l-7-0.4
		l0.1-0.9L-15.5-1.1z M-7.6-0.1L-5,2.8l-1.4-0.1l-2.7-3.2l-0.2,3l-1.1-0.1l0.4-6l1.1,0.1l-0.2,2.7l0.9,0.1l2.4-2.5l1.3,0.1L-7.6-0.1
		z M0.9,0.6l-2.8-0.2l0.1-0.9L1-0.3C1-0.7,0.9-1,0.9-1.2S0.6-1.7,0.5-1.8C0.3-2,0.1-2.1-0.1-2.1c-0.2-0.1-0.5-0.1-0.8-0.1
		c-0.2,0-0.5,0-0.7,0S-2-2.1-2.2-2c-0.1,0-0.3,0.1-0.4,0.3c-0.1,0.1-0.2,0.3-0.3,0.6l-1-0.1c0.1-0.4,0.2-0.7,0.4-1
		c0.2-0.2,0.4-0.4,0.6-0.6C-2.6-3-2.3-3.1-2-3.1s0.7-0.1,1.1,0C-0.4-3.1,0-3,0.4-2.9s0.7,0.3,0.9,0.6s0.4,0.6,0.6,1
		C2-0.9,2.1-0.4,2,0.2c0,0.6-0.1,1.1-0.3,1.5c-0.1,0.4-0.4,0.7-0.6,1C0.8,2.9,0.4,3,0.1,3.1c-0.4,0.1-0.8,0.1-1.3,0.1
		c-0.4,0-0.7-0.1-1.1-0.2c-0.3-0.1-0.6-0.2-0.8-0.4s-0.4-0.4-0.6-0.7s-0.2-0.6-0.3-1L-2.9,1c0,0.2,0.1,0.4,0.2,0.6S-2.5,1.9-2.3,2
		C-2.2,2.1-2,2.2-1.8,2.2s0.4,0.1,0.6,0.1c0.3,0,0.5,0,0.8,0c0.2,0,0.5-0.1,0.6-0.2C0.4,2,0.5,1.8,0.7,1.6C0.8,1.3,0.9,1,0.9,0.6z
		 M5-1.7L4.7,3.4l-1-0.1l0.4-6L12-2.2l-0.4,6l-1.1-0.1l0.4-5L8.5-1.5L8.2,3.6L7.1,3.5l0.3-5.1L5-1.7z M17-2c0.5,0,0.9,0.1,1.3,0.2
		s0.7,0.3,0.9,0.6c0.2,0.3,0.4,0.6,0.5,1s0.2,0.9,0.1,1.5c0,0.6-0.1,1-0.3,1.4c-0.2,0.4-0.4,0.6-0.6,0.8c-0.3,0.2-0.6,0.3-0.9,0.4
		C17.7,4,17.3,4,16.9,4c-0.6,0-1-0.2-1.4-0.4s-0.6-0.6-0.8-1h-0.1c0,0.2,0,0.4,0,0.6c0,0.2,0,0.5,0.1,0.7c0,0.2,0.2,0.4,0.4,0.7
		C15.3,4.8,15.6,5,16,5.1s0.8,0.3,1.1,0.4c0.3,0.1,0.5,0.2,0.8,0.3c0.2,0.1,0.4,0.1,0.6,0.2c0.1,0,0.3,0.1,0.4,0.2l-0.3,0.9
		C18.4,7,18,6.8,17.5,6.7c-0.5-0.2-1.1-0.4-1.9-0.6c-0.6-0.2-1.1-0.5-1.4-0.8c-0.3-0.3-0.5-0.7-0.6-1.1s-0.2-0.9-0.2-1.4
		s0-1.1,0.1-1.6c0-0.6,0.1-1.1,0.3-1.6c0.2-0.4,0.4-0.7,0.7-1c0.3-0.2,0.6-0.4,1-0.5C16-2,16.5-2.1,17-2z M16.9-1.1
		c-0.3,0-0.6,0-0.9,0c-0.3,0-0.5,0.1-0.7,0.3c-0.2,0.1-0.4,0.4-0.5,0.6c-0.1,0.3-0.2,0.6-0.2,1.1c0,0.4,0,0.7,0.1,1s0.2,0.5,0.4,0.6
		c0.2,0.2,0.4,0.3,0.7,0.3c0.3,0.1,0.5,0.1,0.8,0.1s0.6,0,0.9,0c0.2,0,0.5-0.1,0.6-0.2c0.2-0.1,0.3-0.3,0.4-0.6s0.2-0.6,0.2-1
		s0-0.8-0.1-1.1s-0.2-0.5-0.4-0.7C18-0.9,17.8-1,17.6-1.1C17.5-1.1,17.2-1.1,16.9-1.1z M27.4,1.4v0.8c-0.1,0.9-0.4,1.6-0.9,2
		c-0.6,0.4-1.3,0.6-2.2,0.5c-0.5,0-0.9-0.1-1.3-0.2s-0.7-0.3-0.9-0.6c-0.2-0.3-0.4-0.6-0.5-1S21.4,2,21.5,1.4c0-0.6,0.1-1.1,0.3-1.5
		C22-0.5,22.2-0.8,22.5-1s0.6-0.4,1-0.5s0.8-0.1,1.3-0.1c0.4,0,0.8,0.1,1.1,0.2c0.3,0.1,0.6,0.2,0.8,0.4c0.2,0.2,0.4,0.4,0.6,0.7
		s0.2,0.6,0.3,1l-1-0.1c0-0.2-0.1-0.4-0.2-0.6S26.2-0.3,26-0.4s-0.3-0.2-0.5-0.2s-0.4-0.1-0.7-0.1c-0.3,0-0.6,0-0.8,0
		c-0.3,0-0.5,0.1-0.7,0.2S23-0.2,22.8,0c-0.1,0.2-0.2,0.6-0.2,0.9L27.4,1.4z M24.3,3.9c0.3,0,0.5,0,0.8,0c0.2,0,0.4-0.1,0.6-0.3
		c0.2-0.1,0.3-0.3,0.4-0.5s0.2-0.5,0.2-0.9L22.4,2c0,0.4,0,0.7,0.1,0.9s0.3,0.4,0.4,0.6c0.2,0.1,0.4,0.3,0.6,0.3
		C23.8,3.8,24.1,3.9,24.3,3.9z M30.4-0.1L30.1,5L29,4.9l0.4-6l7.9,0.5l-0.4,6l-1-0.1l0.3-5.1l-2.4-0.1l-0.3,5.1l-1-0.1L32.8,0
		L30.4-0.1z M43.7,3.3L41,3.1l0.1-0.9l2.8,0.2c0-0.4-0.1-0.7-0.1-0.9c-0.1-0.2-0.2-0.4-0.4-0.6S43,0.6,42.8,0.6
		c-0.2-0.1-0.5-0.1-0.8-0.1c-0.2,0-0.5,0-0.7,0s-0.4,0.1-0.6,0.2c-0.2,0.1-0.3,0.2-0.4,0.4c-0.2,0-0.3,0.2-0.4,0.4l-1-0.1
		c0.1-0.4,0.2-0.7,0.4-1s0.4-0.5,0.7-0.6c0.3-0.2,0.6-0.3,0.9-0.3c0.3-0.1,0.7-0.1,1.1,0c0.5,0,0.9,0.1,1.3,0.2
		c0.3,0.2,0.6,0.4,0.9,0.6c0.2,0.3,0.4,0.6,0.6,1c0.1,0.4,0.2,0.9,0.1,1.5c0,0.6-0.1,1.1-0.3,1.5s-0.4,0.7-0.7,1
		c-0.3,0.2-0.6,0.4-1,0.5s-0.8,0.1-1.3,0.1c-0.4,0-0.7-0.1-1.1-0.2c-0.3-0.1-0.6-0.2-0.8-0.4c-0.2-0.2-0.4-0.4-0.6-0.7
		c-0.2-0.3-0.2-0.6-0.3-1l1.1,0.1c0,0.2,0,0.4,0.1,0.6s0.2,0.3,0.4,0.4c0.1,0.1,0.3,0.2,0.5,0.2S41.3,5,41.5,5c0.3,0,0.5,0,0.8,0
		s0.5-0.1,0.6-0.2c0.2-0.1,0.3-0.3,0.5-0.5C43.6,4,43.7,3.7,43.7,3.3z M46.3,6l0.1-2c0-0.6,0.3-1.1,0.7-1.4s1-0.5,1.8-0.4
		c0.3,0,0.7,0.1,0.9,0.1c0.3,0.1,0.6,0.1,0.9,0.2l0.2-2.2L52,0.4l-0.4,6l-1.1-0.1l0.2-2.9c-0.3-0.1-0.6-0.2-0.9-0.2
		c-0.3-0.1-0.6-0.1-0.9-0.1c-0.5,0-0.8,0-1,0.2s-0.3,0.4-0.4,0.8l-0.1,2L46.3,6z M56.4,3.9L59,6.8l-1.4-0.1l-2.7-3.2l-0.2,3
		l-1.1-0.1l0.4-6l1.1,0.1l-0.2,2.6l0.9,0.1l2.4-2.5l1.3,0.1L56.4,3.9z M62.6,0.8c0.5,0,1,0.1,1.3,0.4c0.4,0.2,0.7,0.5,0.8,1l0.2-0.1
		l0.1-1l1.1,0.1l-0.2,4c0,0.8-0.3,1.3-0.8,1.6s-1.2,0.4-2,0.4c-0.4,0-0.8-0.1-1.1-0.2s-0.6-0.2-0.8-0.4c-0.2-0.2-0.4-0.4-0.5-0.7
		c-0.1-0.3-0.2-0.6-0.2-1l1,0.1c0,0.2,0.1,0.4,0.2,0.6C61.8,5.8,61.9,5.9,62,6c-0.1,0.1,0.1,0.2,0.3,0.2s0.4,0.1,0.7,0.1
		c0.6,0,1,0,1.3-0.2s0.4-0.5,0.5-0.9V4.7c-0.2,0-0.4,0-0.5,0c-0.2,0-0.3,0-0.5,0c-0.2,0-0.3,0-0.5,0s-0.4,0-0.6,0
		c-0.5,0-0.9-0.1-1.2-0.2S60.9,4.2,60.8,4c-0.2-0.2-0.3-0.4-0.3-0.6c-0.1-0.2-0.1-0.4-0.1-0.6c0-0.3,0.1-0.6,0.2-0.9
		c0.1-0.2,0.3-0.4,0.5-0.6c0.2-0.1,0.4-0.2,0.7-0.3C62,0.8,62.3,0.8,62.6,0.8z M62.9,1.7c-0.5,0-0.9,0-1.2,0.1s-0.4,0.4-0.4,0.8
		c0,0.1,0,0.3,0,0.4c0,0.1,0.1,0.2,0.2,0.4c0.1,0.1,0.3,0.2,0.5,0.3s0.6,0.1,1,0.1c0.2,0,0.5,0,0.8,0s0.6,0,0.9,0V3.2
		c0-0.3-0.1-0.5-0.2-0.7s-0.3-0.3-0.4-0.4c-0.2-0.1-0.4-0.2-0.6-0.2C63.4,1.8,63.2,1.7,62.9,1.7z M73.9,4.9l2.6,2.9l-1.4-0.1
		l-2.7-3.2l-0.2,3l-1.1-0.1l0.4-6l1.1,0.1l-0.2,2.6l0.9,0.1l2.4-2.5L77,1.8L73.9,4.9z M83.9,5.6l2.6,2.9l-1.4-0.1l-2.7-3.2l-0.2,3
		l-1.1-0.1l0.4-6l1.1,0.1l-0.2,2.6l0.9,0.1l2.4-2.5L87,2.5L83.9,5.6z M92.5,6.3l-2.8-0.2l0.1-0.9l2.8,0.2c0-0.4-0.1-0.7-0.1-0.9
		c-0.1-0.2-0.2-0.4-0.4-0.6c-0.2-0.2-0.4-0.3-0.6-0.3c-0.2-0.1-0.5-0.1-0.8-0.1c-0.2,0-0.5,0-0.7,0s-0.4,0.1-0.6,0.2
		c-0.2,0.1-0.3,0.2-0.4,0.4c-0.1,0.1-0.2,0.3-0.3,0.6l-1-0.1c0.1-0.4,0.2-0.7,0.4-1c0.2-0.3,0.4-0.5,0.7-0.6
		c0.3-0.2,0.6-0.3,0.9-0.3c0.3-0.1,0.7-0.1,1.1,0c0.5,0,0.9,0.1,1.3,0.2c0.2,0,0.5,0.2,0.8,0.5c0.2,0.3,0.4,0.6,0.6,1
		c0.1,0.4,0.2,0.9,0.1,1.5c0,0.6-0.1,1.1-0.3,1.5c-0.2,0.4-0.4,0.7-0.7,1c-0.3,0.2-0.6,0.4-1,0.5S90.8,9,90.3,9
		c-0.4,0-0.7-0.1-1.1-0.2c-0.3-0.1-0.6-0.2-0.8-0.4c-0.3-0.3-0.5-0.5-0.6-0.8c-0.2-0.3-0.2-0.6-0.3-1l1.1,0.1c0,0.2,0.1,0.4,0.2,0.6
		s0.2,0.3,0.4,0.4c0.1,0.1,0.3,0.2,0.5,0.2S90.1,8,90.3,8c0.3,0,0.5,0,0.8,0c0.2,0,0.5-0.1,0.6-0.2c0.2-0.1,0.3-0.3,0.5-0.5
		C92.3,7,92.4,6.7,92.5,6.3z M96.6,4l-0.4,5.1L95.1,9l0.4-6l7.9,0.5l-0.4,6l-1.1-0.1l0.3-5.1l-2.4-0.1l-0.3,5.1l-1.1-0.1l0.5-5.1
		L96.6,4z M108.5,3.7c0.5,0,0.9,0.1,1.3,0.2c0.4,0.1,0.7,0.3,0.9,0.6c0.2,0.3,0.4,0.6,0.5,1s0.2,0.9,0.1,1.5c0,0.6-0.1,1-0.3,1.4
		c-0.2,0.4-0.4,0.6-0.6,0.8c-0.3,0.2-0.6,0.3-0.9,0.4c-0.3,0.1-0.7,0.1-1.1,0.1c-0.6,0-1-0.2-1.4-0.4s-0.6-0.6-0.8-1h-0.1
		c0,0.2,0,0.4,0,0.6c0,0.2,0,0.5,0.1,0.7s0.2,0.5,0.4,0.7s0.5,0.4,0.9,0.5s0.8,0.3,1.1,0.4c0.3,0.1,0.5,0.2,0.8,0.3
		c0.2,0.1,0.4,0.1,0.6,0.2c0.2,0.1,0.3,0.2,0.5,0.2l-0.4,0.9c-0.2-0.1-0.6-0.3-1.1-0.4c-0.5-0.2-1.1-0.4-1.9-0.6
		c-0.6-0.2-1.1-0.5-1.4-0.8s-0.5-0.7-0.6-1.1c-0.1-0.4-0.2-0.9-0.2-1.4s0-1.1,0.1-1.6c0-0.6,0.1-1.1,0.3-1.6c0.2-0.4,0.4-0.7,0.7-1
		c0.3-0.2,0.6-0.4,1-0.5C107.5,3.6,108,3.6,108.5,3.7z M108.4,4.6c-0.3,0-0.6,0-0.9,0s-0.5,0.1-0.7,0.3c-0.2,0.1-0.4,0.4-0.5,0.6
		c-0.1,0.3-0.2,0.6-0.2,1.1c0,0.4,0,0.7,0.1,1s0.2,0.5,0.4,0.6c0.2,0.2,0.4,0.3,0.7,0.3c0.3,0.1,0.5,0.1,0.8,0.1s0.6,0,0.9,0
		c0.2,0,0.5-0.1,0.6-0.2c0.2-0.1,0.3-0.3,0.4-0.6c0.1-0.3,0.2-0.6,0.2-1s0-0.8-0.1-1.1c-0.1-0.3-0.2-0.5-0.4-0.7
		c-0.2-0.2-0.4-0.3-0.6-0.4C109,4.6,108.7,4.6,108.4,4.6z M117.7,7.9l-2.8-0.2l0.1-0.9l2.8,0.2c0-0.4-0.1-0.7-0.1-0.9
		c-0.1-0.2-0.2-0.4-0.4-0.6c-0.2-0.2-0.4-0.3-0.6-0.3c-0.2-0.1-0.5-0.1-0.8-0.1c-0.2,0-0.5,0-0.7,0s-0.4,0.1-0.6,0.2
		s-0.3,0.2-0.4,0.4c-0.1,0.1-0.2,0.3-0.3,0.6l-1-0.2c0.1-0.4,0.2-0.7,0.4-1c0.2-0.3,0.4-0.5,0.7-0.6c0.3-0.2,0.6-0.3,0.9-0.3
		c0.3-0.1,0.7-0.1,1.1,0c0.5,0,0.9,0.1,1.3,0.2s0.7,0.3,0.9,0.6c0.2,0.3,0.4,0.6,0.6,1c0.1,0.4,0.2,0.9,0.1,1.5
		c0,0.6-0.1,1.1-0.3,1.5c-0.2,0.4-0.4,0.7-0.7,1c-0.3,0.2-0.6,0.4-1,0.5s-0.8,0.1-1.3,0.1c-0.4,0-0.7-0.1-1.1-0.2
		c-0.3-0.1-0.6-0.2-0.8-0.4c-0.2-0.2-0.4-0.4-0.6-0.7s-0.2-0.6-0.3-1l1.1,0.1c0,0.2,0.1,0.4,0.2,0.6c0.1,0.2,0.2,0.3,0.4,0.4
		c0.1,0.1,0.3,0.2,0.5,0.2s0.4,0.1,0.6,0.1c0.3,0,0.5,0,0.8,0c0.2,0,0.5-0.1,0.6-0.2c0.2-0.1,0.3-0.3,0.5-0.5
		C117.6,8.6,117.7,8.3,117.7,7.9z M121.8,5.6l-0.3,5.1l-1.1-0.1l0.4-6l7.9,0.5l-0.4,6l-1.1-0.1l0.3-5.1l-2.4-0.1l-0.3,5.1l-1.1-0.1
		l0.3-5.1L121.8,5.6z M136.4,8.2V9c-0.1,0.9-0.4,1.6-0.9,2c-0.6,0.4-1.3,0.6-2.2,0.5c-0.5,0-0.9-0.1-1.3-0.2
		c-0.4-0.1-0.7-0.3-0.9-0.6c-0.2-0.3-0.4-0.6-0.5-1s-0.2-0.9-0.1-1.5c0-0.6,0.1-1.1,0.3-1.5c0.2-0.4,0.4-0.7,0.7-0.9
		c0.3-0.2,0.6-0.4,1-0.5s0.8-0.1,1.3-0.1c0.4,0,0.8,0.1,1.1,0.2c0.3,0.1,0.6,0.2,0.8,0.4c0.2,0.2,0.4,0.4,0.6,0.7
		c0.2,0.3,0.2,0.6,0.3,1l-1-0.1c0-0.2-0.1-0.4-0.2-0.6c-0.1-0.2-0.2-0.3-0.4-0.3c-0.2-0.1-0.3-0.2-0.5-0.2c-0.2,0-0.4-0.1-0.7-0.1
		c-0.3,0-0.6,0-0.8,0c-0.3,0-0.5,0.1-0.7,0.2c-0.2,0.1-0.3,0.3-0.5,0.5c-0.1,0.2-0.2,0.6-0.2,0.9L136.4,8.2z M133.3,10.7
		c0.3,0,0.5,0,0.8,0c0.2,0,0.4-0.1,0.6-0.3c0.2-0.1,0.3-0.3,0.4-0.5c0.1-0.2,0.2-0.5,0.2-0.9l-3.9-0.2c0,0.4,0,0.7,0.1,0.9
		s0.2,0.4,0.4,0.6c0.2,0.1,0.4,0.3,0.6,0.3C132.8,10.6,133,10.6,133.3,10.7z M137.8,11.7l0.1-2c0-0.6,0.3-1.1,0.7-1.4
		c0.4-0.3,1-0.5,1.8-0.4c0.3,0,0.7,0.1,0.9,0.1c0.3,0.1,0.6,0.1,0.9,0.2l0.1-2.3l1.1,0.1l-0.4,6l-1.1-0.1l0.2-2.9
		c-0.3-0.1-0.6-0.2-0.9-0.2c-0.3,0-0.6-0.1-0.9-0.1c-0.5,0-0.8,0-1,0.2c-0.2,0.2-0.3,0.4-0.4,0.8l-0.1,2H137.8z M147.9,9.5l2.6,2.9
		l-1.4-0.1l-2.7-3.2l-0.2,3l-1.1-0.1l0.4-6l1.1,0.1l-0.2,2.6l0.9,0.1l2.4-2.5l1.3,0.1L147.9,9.5z M157.8,9.5v0.8
		c-0.1,0.9-0.4,1.6-0.9,2c-0.6,0.4-1.3,0.6-2.2,0.5c-0.5,0-0.9-0.1-1.3-0.2c-0.4-0.1-0.7-0.3-0.9-0.6c-0.2-0.3-0.4-0.6-0.5-1
		s-0.2-0.9-0.1-1.5c0-0.6,0.1-1.1,0.3-1.5c0.2-0.4,0.4-0.7,0.7-0.9c0.3-0.2,0.6-0.4,1-0.5s0.8-0.1,1.3-0.1c0.4,0,0.8,0.1,1.1,0.2
		c0.3,0.1,0.6,0.2,0.8,0.4c0.2,0.2,0.4,0.4,0.6,0.7s0.2,0.6,0.3,1l-1-0.1c0-0.2-0.1-0.4-0.2-0.6c-0.1-0.2-0.2-0.3-0.4-0.3
		c-0.2-0.1-0.3-0.2-0.5-0.2c-0.2,0-0.4-0.1-0.7-0.1c-0.3,0-0.6,0-0.8,0c-0.2,0-0.5,0.1-0.7,0.2c-0.2,0.1-0.3,0.3-0.5,0.5
		c-0.1,0.2-0.2,0.6-0.2,0.9L157.8,9.5z M154.6,12c0.3,0,0.5,0,0.8,0c0.2,0,0.4-0.1,0.6-0.3c0.2-0.1,0.3-0.3,0.4-0.5
		c0.1-0.2,0.2-0.5,0.2-0.9l-3.9-0.2c0,0.4,0,0.7,0.1,0.9s0.2,0.4,0.4,0.6c0.2,0.1,0.4,0.3,0.6,0.3C154.1,11.9,154.3,12,154.6,12z"/>
</symbol>
<symbol  id="Неформальные_гайды_и_тд" viewBox="-501.7 -34.7 1003.4 69.5">
	
		<linearGradient id="SVGID_1_" gradientUnits="userSpaceOnUse" x1="-1496.3539" y1="-49105.7383" x2="-1495.4381" y2="-49123.2148" gradientTransform="matrix(1 0 0 -1 1003.4 -49088.8633)">
		<stop  offset="0" style="stop-color:#A266EB"/>
		<stop  offset="1" style="stop-color:#20A0FF"/>
	</linearGradient>
	<path class="st1" d="M-500.8,34.7l17.5-0.9l-0.1-2.5l-11.8,0.6l11.6-4.1l-0.2-3.3l-12.8-0.4l12.6-4.4l-0.2-3.4l-17.5,0.9l0.1,2.5
		l11.8-0.6l-11.6,4.1l0.2,3.3l12.8,0.4l-12.6,4.4L-500.8,34.7z"/>
	<path class="st0" d="M-461.5,30.5l-3.5,0.2l-0.7-13.1l3.5-0.2l0.3,4.9l5.6-0.3l-0.3-4.9l3.5-0.2l0.7,13.1l-3.5,0.2l-0.3-5.1
		l-5.6,0.3L-461.5,30.5z M-439.5,19.1l-7.1,0.4l0.1,2.4l7-0.4l0.1,2.8l-7,0.4l0.1,2.3l7.1-0.4l0.1,2.8l-10.6,0.6l-0.7-13.1l10.6-0.6
		L-439.5,19.1z M-437,22.8c-0.2-4,1.8-6,5.9-6.2l1.1-0.1l-0.1-1.3l3.4-0.2l0.1,1.3l1.1-0.1c4.1-0.2,6.2,1.5,6.5,5.6
		c0.2,4-1.6,5.8-6,6l-1,0.1l0.1,1.2l-3.4,0.2l-0.1-1.2l-1,0.1C-434.8,28.4-436.8,26.9-437,22.8z M-425.6,25.1c2.3-0.1,3.1-0.8,3-3.2
		c-0.1-2.2-1.2-2.9-3.2-2.8h-0.8l0.3,6H-425.6z M-433.5,22.6c0.1,2.3,1,3,3.3,2.8h0.6l-0.3-6h-0.7
		C-432.6,19.5-433.6,20.4-433.5,22.6z M-410.2,14.4c4.9-0.3,7.1,1.1,7.4,6.4c0.3,5.5-2,7-6.7,7.2c-4.6,0.2-7.1-1-7.4-6.5
		C-417.2,16.3-415.1,14.7-410.2,14.4z M-410.1,17.4c-2.7,0.1-3.5,0.7-3.3,4.1c0.2,3.5,1,3.9,3.7,3.7c2.7-0.1,3.5-0.6,3.3-4.1
		C-406.5,17.7-407.4,17.2-410.1,17.4z M-388.1,21.7c0.2,3.6-1.1,5-4.4,5.2l-7.5,0.4l-0.7-13.1l3.5-0.2l0.1,2.8l4-0.2
		C-389.9,16.5-388.3,18.1-388.1,21.7z M-393.5,24.2c1.5-0.1,2-0.6,1.9-2.3c-0.1-1.8-0.8-2.4-2.1-2.3l-3.1,0.2l0.2,4.6L-393.5,24.2z
		 M-378.4,16.4l4.3,4.2l-0.4-7.8l3.5-0.2l0.7,13.1l-2.7,0.1l-5.1-5.4l-4.6,5.9l-2.7,0.1l-0.7-13.1l3.5-0.2l0.4,7.8L-378.4,16.4z
		 M-369.1,12.6l3.8-0.2l0.8,1.9l5.1-0.3l0.6-1.9l3.9-0.2l-4.9,13.4l-3.1,0.2L-369.1,12.6z M-361.6,21l1.5-4.7l-3.4,0.2L-361.6,21z
		 M-348.2,18.6l0.2,2.9l4.2-0.2l-0.5-10.1l3.5-0.2l0.7,13.1l-10.9,0.6l-0.3-5.4c-0.2-3.6-0.6-4.8-1.9-4.8l-0.1-2.9l1.1-0.1
		C-349.7,11.5-348.5,13.4-348.2,18.6z M-326.4,14.9c0.2,3-1.1,4.3-4.4,4.5l-3.5,0.2l0.2,4.3l-3.5,0.2l-0.7-13.1l7-0.4
		C-328.1,10.4-326.6,11.8-326.4,14.9z M-331.7,16.6c1.4-0.1,1.8-0.4,1.8-1.6c-0.1-1.2-0.7-1.6-1.9-1.5l-2.7,0.1l0.2,3.1L-331.7,16.6
		z M-320.1,23.1l-3.5,0.2l-0.7-13.1l3.5-0.2l0.3,4.9l5.6-0.3l-0.3-4.9l3.5-0.2l0.7,13.1l-3.5,0.2l-0.3-5.1l-5.6,0.3L-320.1,23.1z
		 M-298,13.4c0.2,3-1.1,4.3-4.4,4.5L-305,18l0.2,4.3l-3.5,0.2L-309,9.4l6.2-0.3C-299.7,8.9-298.1,10.3-298,13.4z M-293,21.7
		l-3.5,0.2l-0.7-13.1l3.5-0.2L-293,21.7z M-303.3,15.1c1.4-0.1,1.8-0.4,1.8-1.6c-0.1-1.2-0.7-1.6-1.9-1.5l-1.9,0.1l0.2,3.1
		L-303.3,15.1z M-280.1,10.7l-7.1,0.4l0.1,2.4l7-0.4l0.1,2.8l-7,0.4l0.1,2.3l7.1-0.4l0.1,2.8l-10.6,0.6L-291,8.5l10.6-0.6
		L-280.1,10.7z"/>
	<g>
		
			<rect x="-264.8" y="-3.1" transform="matrix(0.9986 -5.233596e-02 5.233596e-02 0.9986 -0.8961 -11.49)" class="st0" width="90" height="29"/>
		<path d="M-244.9,19.2l-10.4,0.5L-256,6.6l3.5-0.2l0.5,10.1l6.9-0.4L-244.9,19.2z M-247,6.2l3.8-0.2l0.8,1.9l5.1-0.3l0.6-1.9
			l3.9-0.2l-4.9,13.4l-3.1,0.2L-247,6.2z M-239.4,14.6l1.5-4.7l-3.4,0.2L-239.4,14.6z M-226.7,18.2l-3.5,0.2l-0.7-13.1l2.7-0.1
			l6.3,7.3l-0.4-7.6l3.5-0.2l0.7,13.1l-2.8,0.1l-6.3-7.4L-226.7,18.2z M-224.1,18.7c2.8-0.1,3.7,0.7,3.8,2.7l-2.4,0.1
			c0-0.6-0.4-0.8-1.2-0.8s-1.2,0.3-1.2,0.9l-2.4,0.1C-227.7,19.7-226.9,18.8-224.1,18.7z M-202.8,17l-10.7,0.6l-0.2-2.9
			c-0.2-3.8-0.3-5.2-1.4-7.1l-1.6,0.1l-0.3-6.1l3.3-0.2l0.2,3L-205,4l-0.2-3l3.3-0.2l0.3,6.1l-1.7,0.1L-202.8,17z M-210.5,13.6v0.9
			l4-0.2l-0.4-7.2l-4.9,0.3C-211.1,8.5-210.7,10.4-210.5,13.6z M-188.7,7.7c0.2,3-1.1,4.3-4.4,4.5l-2.6,0.1l0.2,4.3l-3.5,0.2
			l-0.7-13.1l6.2-0.3C-190.5,3.2-188.9,4.5-188.7,7.7z M-183.7,16l-3.5,0.2l-0.7-13.1l3.5-0.2L-183.7,16z M-194,9.4
			c1.4-0.1,1.8-0.4,1.8-1.6c-0.1-1.2-0.7-1.6-1.9-1.5l-1.9,0.1l0.2,3.1L-194,9.4z"/>
	</g>
	<g>
		
			<linearGradient id="SVGID_2_" gradientUnits="userSpaceOnUse" x1="-1155.3547" y1="-49087.8672" x2="-1154.4387" y2="-49105.3438" gradientTransform="matrix(1 0 0 -1 1003.4 -49088.8633)">
			<stop  offset="0" style="stop-color:#A266EB"/>
			<stop  offset="1" style="stop-color:#20A0FF"/>
		</linearGradient>
		<path class="st2" d="M-149.6,8.2l-3.7,0.2l0.1,2.5l3.7-0.2L-149.6,8.2z"/>
		
			<linearGradient id="SVGID_3_" gradientUnits="userSpaceOnUse" x1="-1150.3527" y1="-49087.6055" x2="-1149.4368" y2="-49105.082" gradientTransform="matrix(1 0 0 -1 1003.4 -49088.8633)">
			<stop  offset="0" style="stop-color:#A266EB"/>
			<stop  offset="1" style="stop-color:#20A0FF"/>
		</linearGradient>
		<path class="st3" d="M-148.3,8.1l3.7-0.2l0.1,2.5l-3.7,0.2L-148.3,8.1z"/>
		
			<linearGradient id="SVGID_4_" gradientUnits="userSpaceOnUse" x1="-1152.8563" y1="-49087.7344" x2="-1151.9403" y2="-49105.2109" gradientTransform="matrix(1 0 0 -1 1003.4 -49088.8633)">
			<stop  offset="0" style="stop-color:#A266EB"/>
			<stop  offset="1" style="stop-color:#20A0FF"/>
		</linearGradient>
		<path class="st4" d="M-157.9,16.8l18.7-1l-0.7-13.7l-9.5,0.5L-154-1l-3.8,0.2l0.8,3.7l-1.6,0.1L-157.9,16.8z M-156,5.4l2.1-0.1
			l-0.8-3.6l4.5,3.5l8-0.4l0.5,8.7l-13.7,0.7L-156,5.4z"/>
	</g>
	<path class="st0" d="M-109.2,12.1l-10.7,0.6l-0.2-2.9c-0.2-3.8-0.3-5.2-1.4-7.1l-1.6,0.1l-0.3-6.1l3.3-0.2l0.2,3l8.5-0.4l-0.2-3
		l3.3-0.2L-108,2l-1.7,0.1L-109.2,12.1z M-116.9,8.7v0.9l4-0.2l-0.4-7.2l-4.9,0.3C-117.5,3.6-117.1,5.5-116.9,8.7z M-93.7,6.3
		c0.2,3.6-1.1,5-4.4,5.2l-7.5,0.4l-0.7-13.1l3.5-0.2l0.1,2.8l4-0.2C-95.4,1.1-93.9,2.7-93.7,6.3z M-99.1,8.7c1.5-0.1,2-0.6,1.9-2.3
		C-97.3,4.6-98,4-99.3,4.1l-3.1,0.2l0.2,4.6L-99.1,8.7z M-85.4-2.3l7.3,12.7l-3.9,0.2l-3.3-6.5l-2.8,6.8l-4.2,0.2l5-10.3l-2.1-3
		L-85.4-2.3z M-69,10l-0.4-6.8l-3.2,7l-3.7,0.2l3.2-6.4l-4.3-6.7l3.9-0.2l2.9,5.2l1.2-0.1l-0.3-5.3l3.5-0.2l0.3,5.3l1.2-0.1l2.3-5.4
		l3.9-0.2L-62,3.4l3.9,6l-3.7,0.2l-4-6.6l0.4,6.8L-69,10z M-45.7-1.6l-7.1,0.4l0.1,2.4l7-0.4l0.1,2.8l-7,0.4l0.1,2.3l7.1-0.4
		l0.1,2.8l-10.6,0.6l-0.7-13.1L-46-4.4L-45.7-1.6z M-38.7,2.4l0.2,2.9l4.2-0.2L-34.9-5l3.5-0.2L-30.7,8l-10.9,0.6l-0.3-5.4
		c-0.2-3.6-0.6-4.8-1.9-4.8l-0.1-2.9l1.1-0.1C-40.1-4.7-39-2.8-38.7,2.4z M-16.9-6.2c4.5-0.2,6.6,1.2,6.9,6.5c0.3,5.5-1.9,7-6.1,7.2
		c-3.9,0.2-6.1-0.8-6.8-5.1l-1.7,0.1l0.3,5.1L-28,7.8l-0.7-13.1l3.5-0.2l0.3,5.2l1.7-0.1C-23-4.6-21.1-6-16.9-6.2z M-16.4,4.5
		c2.1-0.1,3-0.6,2.8-4.1c-0.2-3.3-1.1-3.8-3.2-3.7s-3,0.7-2.8,4C-19.4,4.3-18.5,4.7-16.4,4.5z M4-2.7c0.2,2.9-1.2,4.1-4.5,4.3
		L-4,1.8l0.1,2l7.3-0.4l0.1,2.8L-7.2,6.7L-7.9-6.4l7-0.4C2.3-6.9,3.9-5.6,4-2.7z M-1.2-0.9C0.2-1,0.6-1.4,0.5-2.5
		c0-1.1-0.6-1.5-1.8-1.4l-2.9,0.2l0.2,3L-1.2-0.9z M10.4,5.8L6.9,6L6.2-7.1l3.5-0.2L10-2.4l5.6-0.3l-0.3-4.9l3.5-0.2l0.7,13.1
		L16,5.5l-0.3-5.1l-5.6,0.3L10.4,5.8z M20.7-7.9l3.8-0.2l0.8,1.9l5.1-0.3L31-8.4l3.9-0.2L30.1,4.8L27,4.9L20.7-7.9z M28.3,0.6
		l1.5-4.7L26.3-4L28.3,0.6z M48.5-9.3l0.7,13.1l-7,0.4c-3.5,0.2-5-1.1-5.2-4.4c-0.1-1.9,0.4-3.6,1.9-4.4l-2.4-4l3.9-0.2l1.8,3.6
		l3-0.2L45-9.1L48.5-9.3z M40.5-0.5c0.1,1.4,0.7,1.9,2.1,1.8l2.9-0.2l-0.2-3.9l-3,0.2C41.1-2.5,40.5-2,40.5-0.5z"/>
	<g>
		
			<rect x="63.6" y="-22.1" transform="matrix(0.9986 -5.233708e-02 5.233708e-02 0.9986 0.5931 7.4264)" class="st0" width="157" height="29"/>
		<path d="M85.7,1.9L73.1,2.5l-0.7-13.1l3.5-0.2l0.5,10.1L82-1l-0.5-10.1l3.5-0.2L85.7,1.9z M94.5-12c4.9-0.3,7.1,1.1,7.4,6.4
			c0.3,5.5-2,7-6.7,7.2c-4.6,0.2-7.1-1-7.4-6.5C87.6-10.1,89.7-11.8,94.5-12z M94.7-9.1C92-8.9,91.2-8.4,91.4-5
			c0.2,3.5,1,3.9,3.7,3.7c2.7-0.1,3.5-0.6,3.3-4.1C98.3-8.7,97.4-9.2,94.7-9.1z M117,0.2l-10.7,0.6l-0.2-2.9
			c-0.2-3.8-0.3-5.2-1.4-7.1l-1.6,0.1l-0.3-6.1l3.3-0.2l0.2,3l8.5-0.4l-0.2-3l3.3-0.2l0.3,6.1l-1.7,0.1L117,0.2z M109.3-3.1v0.9
			l4-0.2L113-9.7l-4.9,0.3C108.7-8.2,109.2-6.4,109.3-3.1z M133.9-0.7l-10.7,0.6L123-3c-0.2-3.8-0.3-5.2-1.4-7.1L120-10l-0.3-6.1
			l3.3-0.2l0.2,3l8.5-0.4l-0.2-3l3.3-0.2l0.3,6.1l-1.7,0.1L133.9-0.7z M126.2-4v0.9l4-0.2l-0.4-7.2l-4.9,0.3
			C125.6-9.1,126.1-7.3,126.2-4z M147.8-11.7l-7.1,0.4l0.1,2.4l7-0.4l0.1,2.8l-7,0.4l0.1,2.3l7.1-0.4l0.1,2.8l-10.6,0.6L137-14
			l10.6-0.6L147.8-11.7z M162.7-7.1c0.2,3.6-1.1,5-4.4,5.2l-7.5,0.4l-0.7-13.1l3.5-0.2l0.1,2.8l4-0.2
			C160.9-12.4,162.5-10.8,162.7-7.1z M157.3-4.7c1.5-0.1,1.9-0.6,1.9-2.3c-0.1-1.8-0.8-2.4-2.1-2.3L154-9.2l0.2,4.6L157.3-4.7z
			 M171.4-2.6L171-9.4l-3.2,7l-3.7,0.2l3.2-6.4l-4.3-6.7l3.9-0.2l2.9,5.2l1.2-0.1l-0.3-5.3l3.5-0.2l0.3,5.3l1.2-0.1l2.3-5.4l3.9-0.2
			l-3.6,7.1l3.9,6L178.6-3l-4-6.6l0.4,6.8L171.4-2.6z M196.4-17.1l-4.6,7.3l4.9,5.8l-3.9,0.2l-5-6.4l0.3,6.6l-3.5,0.2l-0.7-13.1
			l3.5-0.2l0.3,5.5l1.3-0.1l3.2-5.7L196.4-17.1z M197.7-17.1l3.8-0.2l0.8,1.9l5.1-0.3l0.6-1.9l3.9-0.2L207-4.4l-3,0.1L197.7-17.1z
			 M205.3-8.7l1.5-4.7l-3.4,0.2L205.3-8.7z"/>
	</g>
	
		<linearGradient id="SVGID_5_" gradientUnits="userSpaceOnUse" x1="-757.3683" y1="-49067" x2="-756.4526" y2="-49084.4727" gradientTransform="matrix(1 0 0 -1 1003.4 -49088.8633)">
		<stop  offset="0" style="stop-color:#A266EB"/>
		<stop  offset="1" style="stop-color:#20A0FF"/>
	</linearGradient>
	<path class="st5" d="M253.3-4.8L237.6-4l-0.4-8.1l6.3-0.3l2,2.6l0.2,2.9l3.8-0.2l-11.2-14.4l3.7-0.2L253.2-7L253.3-4.8z M239.9-6.6
		l3.1-0.2l-0.1-2.1l-0.7-1l-2.5,0.1L239.9-6.6z M255.8-14.3l-6.3,0.3l-2-2.6l-0.3-5.4l8.1-0.4L255.8-14.3z M250-17.5l0.7,1l2.5-0.1
		l-0.2-3.1l-3.1,0.2L250-17.5z"/>
	<g>
		
			<rect x="272.4" y="-31.9" transform="matrix(0.9986 -5.233596e-02 5.233596e-02 0.9986 1.3588 17.0829)" class="st0" width="109" height="29"/>
		<path d="M293.8-22.2l-4.6,7.3l4.9,5.8l-3.9,0.2l-5-6.4l0.3,6.6L282-8.4l-0.7-13.1l3.5-0.2l0.3,5.5l1.3-0.1l3.2-5.7L293.8-22.2z
			 M298.6-17.1l-3.5,0.2c0-4,1.5-5.7,6.3-6c4.7-0.2,6.9,1.2,7.1,6.5c0.3,5.5-1.9,7-6.4,7.2s-6.4-1.1-6.8-5l3.5-0.2
			c0.3,2,1,2.3,3.1,2.2c2-0.1,2.9-0.5,3.1-2.7l-4.8,0.3l-0.1-2.6l4.8-0.3c-0.3-2.2-1.3-2.6-3.3-2.5
			C299.4-19.8,298.7-19.3,298.6-17.1z M314.9-10.2l-3.5,0.2l-0.7-13.1l17.1-0.9l0.7,13.1l-3.5,0.2l-0.5-10.1l-3.4,0.2l0.5,10.1
			l-3.4,0.2l-0.5-10.1l-3.4,0.2L314.9-10.2z M342.5-20.5c0.2,2.9-1.2,4.1-4.5,4.3l-3.5,0.2l0.1,2l7.3-0.4l0.1,2.8L331.3-11
			l-0.7-13.1l7-0.4C340.8-24.6,342.4-23.4,342.5-20.5z M337.3-18.7c1.4-0.1,1.8-0.4,1.7-1.5c-0.1-1.1-0.7-1.5-1.8-1.4l-2.9,0.2
			l0.2,3L337.3-18.7z M348-19.7l-3.5,0.2c0-4,1.5-5.7,6.3-6c4.7-0.2,6.9,1.2,7.1,6.5c0.3,5.5-1.9,7-6.4,7.2s-6.4-1.1-6.8-5l3.5-0.2
			c0.3,2,1,2.3,3.1,2.2c2-0.1,2.9-0.5,3.1-2.7l-4.8,0.3l-0.1-2.6l4.8-0.3c-0.3-2.2-1.3-2.6-3.3-2.5C348.8-22.4,348.1-21.9,348-19.7z
			 M372.6-26.3L368-19l4.9,5.8L369-13l-5-6.4l0.3,6.6l-3.5,0.2l-0.7-13.1l3.5-0.2l0.3,5.5l1.3-0.1l3.2-5.7L372.6-26.3z"/>
	</g>
	<path class="st0" d="M405.8-21.2c1.4,0.3,2.4,1,2.4,2.6c0.1,2.6-1,3.6-4,3.8l-7.3,0.4l-0.7-13.1l7.6-0.4c2.9-0.2,4.4,0.9,4.5,3.5
		C408.4-22.8,407.6-21.7,405.8-21.2L405.8-21.2z M403.2-22.5c1.3-0.1,1.7-0.4,1.7-1.4c-0.1-1-0.7-1.3-1.8-1.3l-3.2,0.2l0.1,2.6
		L403.2-22.5z M403.2-17.6c1.2-0.1,1.6-0.4,1.6-1.3c-0.1-1-0.6-1.3-1.7-1.2l-3,0.2l0.1,2.5L403.2-17.6z M428.2-21.1
		c0.2,3.6-1.1,5-4.4,5.2l-7.5,0.4l-0.7-13.1l3.5-0.2l0.1,2.8l4-0.2C426.4-26.3,428-24.7,428.2-21.1z M422.8-18.6
		c1.5-0.1,1.9-0.6,1.9-2.3c-0.1-1.8-0.8-2.4-2.1-2.3l-3.1,0.2l0.2,4.6L422.8-18.6z M436.5-29.7l7.3,12.7l-3.9,0.2l-3.3-6.5l-2.8,6.8
		l-4.2,0.2l5-10.3l-2.1-3L436.5-29.7z M456.9-26.4c0.2,2.9-1.2,4.1-4.5,4.3l-3.5,0.2l0.1,2l7.3-0.4l0.1,2.8L445.6-17l-0.7-13.1
		l7-0.4C455.1-30.6,456.7-29.4,456.9-26.4z M451.6-24.7c1.4-0.1,1.8-0.4,1.7-1.5s-0.7-1.5-1.8-1.4l-2.9,0.2l0.2,3L451.6-24.7z
		 M463.6-23.9l0.2,2.9l4.2-0.2l-0.5-10.1l3.5-0.2l0.7,13.1l-10.9,0.6l-0.3-5.4c-0.2-3.6-0.6-4.8-1.9-4.8l-0.2-2.9l1.1-0.1
		C462.2-31,463.4-29.1,463.6-23.9z M485.4-32.2l0.7,13.1l-7,0.4c-3.5,0.2-5-1.1-5.2-4.4c-0.1-1.9,0.4-3.6,1.9-4.4l-2.4-4l3.9-0.2
		l1.8,3.6l3-0.2l-0.2-3.6L485.4-32.2z M477.4-23.4c0.1,1.4,0.7,1.9,2.1,1.8l2.9-0.2l-0.2-3.9l-3,0.2C478-25.4,477.4-24.9,477.4-23.4
		z M497-32.8l4.4-0.2l-4.3,6.9l4.6,6.2l-4.1,0.2l-2.8-4l-2.3,4.3l-4.2,0.2l4-6.7l-5-6.4l4.3-0.2l2.9,4.2L497-32.8z"/>
</symbol>
<g id="top">
	<g id="top_bg">
		
			<rect x="-253" y="176.2" transform="matrix(0.9848 -0.1736 0.1736 0.9848 -23.1845 135.3218)" class="st6" width="2030" height="48"/>
		
			<linearGradient id="SVGID_6_" gradientUnits="userSpaceOnUse" x1="135.1537" y1="1131.4507" x2="2165.2249" y2="1131.4497" gradientTransform="matrix(0.9848 -0.1736 -0.1736 -0.9848 -174.0518 1513.8228)">
			<stop  offset="0" style="stop-color:#A266EB"/>
			<stop  offset="1" style="stop-color:#20A0FF"/>
		</linearGradient>
		<polygon class="st7" points="-241.5,352.5 1757.6,0 1766,47.3 -233.2,399.8 		"/>
	</g>
	<g id="top_lower">
		<g>
			<g>
				<defs>
					
						<rect id="SVGID_7_" x="1428" y="68.9" transform="matrix(0.9749 -0.2227 0.2227 0.9749 20.9232 343.0642)" width="207.2" height="19.7"/>
				</defs>
				<clipPath id="SVGID_8_">
					<use xlink:href="#SVGID_7_"  style="overflow:visible;"/>
				</clipPath>
				<g transform="matrix(1 0 0 1 0 -7.629395e-06)" class="st8">
					<g>
						<defs>
							
								<rect id="SVGID_9_" x="1427.9" y="68.8" transform="matrix(0.9749 -0.2227 0.2227 0.9749 20.924 343.0471)" width="207.3" height="19.8"/>
						</defs>
						<clipPath id="SVGID_10_">
							<use xlink:href="#SVGID_9_"  style="overflow:visible;"/>
						</clipPath>
						<g transform="matrix(1 0 0 1 1.220703e-04 -7.629395e-06)" style="clip-path:url(#SVGID_10_);">
							
								<use xlink:href="#Авиасейлс_Ещё._Куда_уж_лучше_"  width="207.3" height="19.8" x="-103.6" y="-9.9" transform="matrix(0.9749 -0.2227 -0.2227 -0.9749 1531.6373 78.7239)" style="overflow:visible;"/>
						</g>
					</g>
				</g>
			</g>
		</g>
		<g>
			<g>
				<defs>
					
						<rect id="SVGID_11_" x="1219.9" y="106.4" transform="matrix(0.9749 -0.2227 0.2227 0.9749 7.3506 297.6619)" width="207.2" height="19.7"/>
				</defs>
				<clipPath id="SVGID_12_">
					<use xlink:href="#SVGID_11_"  style="overflow:visible;"/>
				</clipPath>
				<g class="st9">
					<g>
						<defs>
							
								<rect id="SVGID_13_" x="1219.7" y="106.3" transform="matrix(0.9749 -0.2227 0.2227 0.9749 7.3483 297.6249)" width="207.3" height="19.8"/>
						</defs>
						<clipPath id="SVGID_14_">
							<use xlink:href="#SVGID_13_"  style="overflow:visible;"/>
						</clipPath>
						<g transform="matrix(1 0 0 1 1.220703e-04 -2.288818e-05)" style="clip-path:url(#SVGID_14_);">
							
								<use xlink:href="#Авиасейлс_Ещё._Куда_уж_лучше_"  width="207.3" height="19.8" x="-103.6" y="-9.9" transform="matrix(0.9749 -0.2227 -0.2227 -0.9749 1323.4464 116.2077)" style="overflow:visible;"/>
						</g>
					</g>
				</g>
			</g>
		</g>
		<g>
			<g>
				<defs>
					
						<rect id="SVGID_15_" x="1013.2" y="142.9" transform="matrix(0.9749 -0.2227 0.2227 0.9749 -5.97 252.5479)" width="207.2" height="19.7"/>
				</defs>
				<clipPath id="SVGID_16_">
					<use xlink:href="#SVGID_15_"  style="overflow:visible;"/>
				</clipPath>
				<g transform="matrix(1 0 0 1 0 1.525879e-05)" class="st10">
					<g>
						<defs>
							
								<rect id="SVGID_17_" x="1013" y="142.8" transform="matrix(0.9749 -0.2227 0.2227 0.9749 -5.9652 252.5155)" width="207.3" height="19.8"/>
						</defs>
						<clipPath id="SVGID_18_">
							<use xlink:href="#SVGID_17_"  style="overflow:visible;"/>
						</clipPath>
						<g style="clip-path:url(#SVGID_18_);">
							
								<use xlink:href="#Авиасейлс_Ещё._Куда_уж_лучше_"  width="207.3" height="19.8" x="-103.6" y="-9.9" transform="matrix(0.9749 -0.2227 -0.2227 -0.9749 1116.7736 152.6851)" style="overflow:visible;"/>
						</g>
					</g>
				</g>
			</g>
		</g>
		<g>
			<g>
				<defs>
					
						<rect id="SVGID_19_" x="805.6" y="179.5" transform="matrix(0.9749 -0.2227 0.2227 0.9749 -19.334 207.2341)" width="207.2" height="19.7"/>
				</defs>
				<clipPath id="SVGID_20_">
					<use xlink:href="#SVGID_19_"  style="overflow:visible;"/>
				</clipPath>
				<g class="st11">
					<g>
						<defs>
							
								<rect id="SVGID_21_" x="805.4" y="179.4" transform="matrix(0.9749 -0.2227 0.2227 0.9749 -19.3309 207.2013)" width="207.3" height="19.8"/>
						</defs>
						<clipPath id="SVGID_22_">
							<use xlink:href="#SVGID_21_"  style="overflow:visible;"/>
						</clipPath>
						<g style="clip-path:url(#SVGID_22_);">
							
								<use xlink:href="#Авиасейлс_Ещё._Куда_уж_лучше_"  width="207.3" height="19.8" x="-103.6" y="-9.9" transform="matrix(0.9749 -0.2227 -0.2227 -0.9749 909.1667 189.2921)" style="overflow:visible;"/>
						</g>
					</g>
				</g>
			</g>
		</g>
		<g>
			<g>
				<defs>
					
						<rect id="SVGID_23_" x="597.9" y="216" transform="matrix(0.9749 -0.2227 0.2227 0.9749 -32.6824 161.8955)" width="207.2" height="19.7"/>
				</defs>
				<clipPath id="SVGID_24_">
					<use xlink:href="#SVGID_23_"  style="overflow:visible;"/>
				</clipPath>
				<g transform="matrix(1 0 0 1 0 3.051758e-05)" class="st12">
					<g>
						<defs>
							
								<rect id="SVGID_25_" x="597.8" y="215.9" transform="matrix(0.9749 -0.2227 0.2227 0.9749 -32.6791 161.8801)" width="207.3" height="19.8"/>
						</defs>
						<clipPath id="SVGID_26_">
							<use xlink:href="#SVGID_25_"  style="overflow:visible;"/>
						</clipPath>
						<g style="clip-path:url(#SVGID_26_);">
							
								<use xlink:href="#Авиасейлс_Ещё._Куда_уж_лучше_"  width="207.3" height="19.8" x="-103.6" y="-9.9" transform="matrix(0.9749 -0.2227 -0.2227 -0.9749 701.5378 225.8176)" style="overflow:visible;"/>
						</g>
					</g>
				</g>
			</g>
		</g>
		<g>
			<g>
				<defs>
					
						<rect id="SVGID_27_" x="390.2" y="252.4" transform="matrix(0.9749 -0.2227 0.2227 0.9749 -46.0012 116.5532)" width="207.2" height="19.7"/>
				</defs>
				<clipPath id="SVGID_28_">
					<use xlink:href="#SVGID_27_"  style="overflow:visible;"/>
				</clipPath>
				<g transform="matrix(1 0 0 1 3.051758e-05 -3.051758e-05)" class="st13">
					<g>
						<defs>
							
								<rect id="SVGID_29_" x="390" y="252.4" transform="matrix(0.9749 -0.2227 0.2227 0.9749 -46.0069 116.5237)" width="207.3" height="19.8"/>
						</defs>
						<clipPath id="SVGID_30_">
							<use xlink:href="#SVGID_29_"  style="overflow:visible;"/>
						</clipPath>
						<g transform="matrix(1 0 0 1 0 -3.051758e-05)" style="clip-path:url(#SVGID_30_);">
							
								<use xlink:href="#Авиасейлс_Ещё._Куда_уж_лучше_"  width="207.3" height="19.8" x="-103.6" y="-9.9" transform="matrix(0.9749 -0.2227 -0.2227 -0.9749 493.7626 262.235)" style="overflow:visible;"/>
						</g>
					</g>
				</g>
			</g>
		</g>
		<g>
			<g>
				<defs>
					
						<rect id="SVGID_31_" x="182.8" y="289.1" transform="matrix(0.9749 -0.2227 0.2227 0.9749 -59.385 71.2887)" width="207.2" height="19.7"/>
				</defs>
				<clipPath id="SVGID_32_">
					<use xlink:href="#SVGID_31_"  style="overflow:visible;"/>
				</clipPath>
				<g transform="matrix(1 0 0 1 0 3.051758e-05)" class="st14">
					<g>
						<defs>
							
								<rect id="SVGID_33_" x="182.7" y="289" transform="matrix(0.9749 -0.2227 0.2227 0.9749 -59.3814 71.2685)" width="207.3" height="19.8"/>
						</defs>
						<clipPath id="SVGID_34_">
							<use xlink:href="#SVGID_33_"  style="overflow:visible;"/>
						</clipPath>
						<g transform="matrix(1 0 0 1 0 -3.051758e-05)" style="clip-path:url(#SVGID_34_);">
							
								<use xlink:href="#Авиасейлс_Ещё._Куда_уж_лучше_"  width="207.3" height="19.8" x="-103.6" y="-9.9" transform="matrix(0.9749 -0.2227 -0.2227 -0.9749 286.4128 298.9102)" style="overflow:visible;"/>
						</g>
					</g>
				</g>
			</g>
		</g>
		<g>
			<g>
				<defs>
					
						<rect id="SVGID_35_" x="-24.9" y="325.5" transform="matrix(0.9749 -0.2227 0.2227 0.9749 -72.7048 25.9485)" width="207.2" height="19.7"/>
				</defs>
				<clipPath id="SVGID_36_">
					<use xlink:href="#SVGID_35_"  style="overflow:visible;"/>
				</clipPath>
				<g transform="matrix(1 0 0 1 0 -3.051758e-05)" class="st15">
					<g>
						<defs>
							
								<rect id="SVGID_37_" x="-25.1" y="325.4" transform="matrix(0.9749 -0.2227 0.2227 0.9749 -72.7001 25.9175)" width="207.3" height="19.8"/>
						</defs>
						<clipPath id="SVGID_38_">
							<use xlink:href="#SVGID_37_"  style="overflow:visible;"/>
						</clipPath>
						<g transform="matrix(1 0 0 1 0 -3.051758e-05)" style="clip-path:url(#SVGID_38_);">
							
								<use xlink:href="#Авиасейлс_Ещё._Куда_уж_лучше_"  width="207.3" height="19.8" x="-103.6" y="-9.9" transform="matrix(0.9749 -0.2227 -0.2227 -0.9749 78.6662 335.2902)" style="overflow:visible;"/>
						</g>
					</g>
				</g>
			</g>
		</g>
	</g>
	<g id="top_top_row">
		<g>
			<g>
				<defs>
					
						<rect id="SVGID_39_" x="34.6" y="195.6" transform="matrix(0.9746 -0.2239 0.2239 0.9746 -37.9576 125.9268)" width="1003.4" height="69.5"/>
				</defs>
				<clipPath id="SVGID_40_">
					<use xlink:href="#SVGID_39_"  style="overflow:visible;"/>
				</clipPath>
				<g transform="matrix(1 0 0 1 0 -1.525879e-05)" class="st16">
					<g>
						<defs>
							
								<rect id="SVGID_41_" x="34.6" y="195.6" transform="matrix(0.9746 -0.2239 0.2239 0.9746 -37.9621 125.9198)" width="1003.4" height="69.5"/>
						</defs>
						<clipPath id="SVGID_42_">
							<use xlink:href="#SVGID_41_"  style="overflow:visible;"/>
						</clipPath>
						<g transform="matrix(1 0 0 1 0 -1.525879e-05)" style="clip-path:url(#SVGID_42_);">
							
								<use xlink:href="#Неформальные_гайды_и_тд"  width="1003.4" height="69.5" x="-501.7" y="-34.7" transform="matrix(0.9746 -0.2239 -0.2239 -0.9746 536.2853 230.4382)" style="overflow:visible;"/>
						</g>
					</g>
				</g>
			</g>
		</g>
		<g>
			<g>
				<defs>
					
						<rect id="SVGID_43_" x="1041" y="17.8" transform="matrix(0.9746 -0.2239 0.2239 0.9746 27.4008 346.7434)" width="1003.4" height="69.5"/>
				</defs>
				<clipPath id="SVGID_44_">
					<use xlink:href="#SVGID_43_"  style="overflow:visible;"/>
				</clipPath>
				<g class="st17">
					<g>
						<defs>
							
								<rect id="SVGID_45_" x="1041" y="17.9" transform="matrix(0.9746 -0.2239 0.2239 0.9746 27.3871 346.745)" width="1003.4" height="69.5"/>
						</defs>
						<clipPath id="SVGID_46_">
							<use xlink:href="#SVGID_45_"  style="overflow:visible;"/>
						</clipPath>
						<g transform="matrix(1 0 0 1 0 -3.814697e-06)" style="clip-path:url(#SVGID_46_);">
							
								<use xlink:href="#Неформальные_гайды_и_тд"  width="1003.4" height="69.5" x="-501.7" y="-34.7" transform="matrix(0.9746 -0.2239 -0.2239 -0.9746 1542.6956 52.6914)" style="overflow:visible;"/>
						</g>
					</g>
				</g>
			</g>
		</g>
	</g>
</g>
<g id="middle">
	<g id="middle_bg">
		
			<rect x="698.8" y="-764.8" transform="matrix(5.233904e-02 -0.9986 0.9986 5.233904e-02 435.1726 958.9084)" class="st6" width="48" height="2029.8"/>
		
			<linearGradient id="SVGID_47_" gradientUnits="userSpaceOnUse" x1="-28.2255" y1="662.4012" x2="2001.83" y2="662.4004" gradientTransform="matrix(0.9986 5.233596e-02 5.233596e-02 -0.9986 -296.9357 859.7542)">
			<stop  offset="0" style="stop-color:#A266EB"/>
			<stop  offset="1" style="stop-color:#20A0FF"/>
		</linearGradient>
		<polygon class="st18" points="-289.2,172.8 1738,279.1 1735.5,327 -291.7,220.8 		"/>
	</g>
	<g id="middle_top_row">
		<g>
			<g>
				<defs>
					<rect id="SVGID_48_" x="-6" y="193.5" width="1003.4" height="69.5"/>
				</defs>
				<clipPath id="SVGID_49_">
					<use xlink:href="#SVGID_48_"  style="overflow:visible;"/>
				</clipPath>
				<g class="st19">
					<g>
						<defs>
							<rect id="SVGID_50_" x="-6" y="193.5" width="1003.4" height="69.5"/>
						</defs>
						<clipPath id="SVGID_51_">
							<use xlink:href="#SVGID_50_"  style="overflow:visible;"/>
						</clipPath>
						<g style="clip-path:url(#SVGID_51_);">
							
								<use xlink:href="#Неформальные_гайды_и_тд"  width="1003.4" height="69.5" x="-501.7" y="-34.7" transform="matrix(1 0 0 -1 495.6604 228.3651)" style="overflow:visible;"/>
						</g>
					</g>
				</g>
			</g>
		</g>
		<g>
			<g>
				<defs>
					<rect id="SVGID_52_" x="1015.4" y="247" width="1003.4" height="69.5"/>
				</defs>
				<clipPath id="SVGID_53_">
					<use xlink:href="#SVGID_52_"  style="overflow:visible;"/>
				</clipPath>
				<g class="st20">
					<g>
						<defs>
							<rect id="SVGID_54_" x="1015.4" y="247" width="1003.4" height="69.5"/>
						</defs>
						<clipPath id="SVGID_55_">
							<use xlink:href="#SVGID_54_"  style="overflow:visible;"/>
						</clipPath>
						<g style="clip-path:url(#SVGID_55_);">
							
								<use xlink:href="#Неформальные_гайды_и_тд"  width="1003.4" height="69.5" x="-501.7" y="-34.7" transform="matrix(1 0 0 -1 1517.054 281.8396)" style="overflow:visible;"/>
						</g>
					</g>
				</g>
			</g>
		</g>
	</g>
	<g id="middle_lower_row">
		<g>
			<g>
				<defs>
					<rect id="SVGID_56_" x="-287.5" y="208.2" width="207.2" height="19.7"/>
				</defs>
				<clipPath id="SVGID_57_">
					<use xlink:href="#SVGID_56_"  style="overflow:visible;"/>
				</clipPath>
				<g class="st21">
					<g>
						<defs>
							<rect id="SVGID_58_" x="-287.7" y="208.1" width="207.3" height="19.8"/>
						</defs>
						<clipPath id="SVGID_59_">
							<use xlink:href="#SVGID_58_"  style="overflow:visible;"/>
						</clipPath>
						<g style="clip-path:url(#SVGID_59_);">
							
								<use xlink:href="#Авиасейлс_Ещё._Куда_уж_лучше_"  width="207.3" height="19.8" x="-103.6" y="-9.9" transform="matrix(1 0 0 -1 -183.9451 217.9876)" style="overflow:visible;"/>
						</g>
					</g>
				</g>
			</g>
		</g>
		<g>
			<g>
				<defs>
					<rect id="SVGID_60_" x="-77.2" y="218.6" width="207.2" height="19.7"/>
				</defs>
				<clipPath id="SVGID_61_">
					<use xlink:href="#SVGID_60_"  style="overflow:visible;"/>
				</clipPath>
				<g class="st22">
					<g>
						<defs>
							<rect id="SVGID_62_" x="-77.3" y="218.5" width="207.3" height="19.8"/>
						</defs>
						<clipPath id="SVGID_63_">
							<use xlink:href="#SVGID_62_"  style="overflow:visible;"/>
						</clipPath>
						<g style="clip-path:url(#SVGID_63_);">
							
								<use xlink:href="#Авиасейлс_Ещё._Куда_уж_лучше_"  width="207.3" height="19.8" x="-103.6" y="-9.9" transform="matrix(1 0 0 -1 26.4066 228.4382)" style="overflow:visible;"/>
						</g>
					</g>
				</g>
			</g>
		</g>
		<g>
			<g>
				<defs>
					<rect id="SVGID_64_" x="133.4" y="229.7" width="207.2" height="19.7"/>
				</defs>
				<clipPath id="SVGID_65_">
					<use xlink:href="#SVGID_64_"  style="overflow:visible;"/>
				</clipPath>
				<g class="st23">
					<g>
						<defs>
							<rect id="SVGID_66_" x="133.3" y="229.6" width="207.3" height="19.8"/>
						</defs>
						<clipPath id="SVGID_67_">
							<use xlink:href="#SVGID_66_"  style="overflow:visible;"/>
						</clipPath>
						<g style="clip-path:url(#SVGID_67_);">
							
								<use xlink:href="#Авиасейлс_Ещё._Куда_уж_лучше_"  width="207.3" height="19.8" x="-103.6" y="-9.9" transform="matrix(1 0 0 -1 237.033 239.5151)" style="overflow:visible;"/>
						</g>
					</g>
				</g>
			</g>
		</g>
		<g>
			<g>
				<defs>
					<rect id="SVGID_68_" x="344.5" y="240.9" width="207.2" height="19.7"/>
				</defs>
				<clipPath id="SVGID_69_">
					<use xlink:href="#SVGID_68_"  style="overflow:visible;"/>
				</clipPath>
				<g class="st24">
					<g>
						<defs>
							<rect id="SVGID_70_" x="344.4" y="240.8" width="207.3" height="19.8"/>
						</defs>
						<clipPath id="SVGID_71_">
							<use xlink:href="#SVGID_70_"  style="overflow:visible;"/>
						</clipPath>
						<g style="clip-path:url(#SVGID_71_);">
							
								<use xlink:href="#Авиасейлс_Ещё._Куда_уж_лучше_"  width="207.3" height="19.8" x="-103.6" y="-9.9" transform="matrix(1 0 0 -1 448.1319 250.7459)" style="overflow:visible;"/>
						</g>
					</g>
				</g>
			</g>
		</g>
		<g>
			<g>
				<defs>
					<rect id="SVGID_72_" x="554.3" y="251.5" width="207.2" height="19.7"/>
				</defs>
				<clipPath id="SVGID_73_">
					<use xlink:href="#SVGID_72_"  style="overflow:visible;"/>
				</clipPath>
				<g class="st25">
					<g>
						<defs>
							<rect id="SVGID_74_" x="554.2" y="251.4" width="207.3" height="19.8"/>
						</defs>
						<clipPath id="SVGID_75_">
							<use xlink:href="#SVGID_74_"  style="overflow:visible;"/>
						</clipPath>
						<g style="clip-path:url(#SVGID_75_);">
							
								<use xlink:href="#Авиасейлс_Ещё._Куда_уж_лучше_"  width="207.3" height="19.8" x="-103.6" y="-9.9" transform="matrix(1 0 0 -1 657.9451 261.2953)" style="overflow:visible;"/>
						</g>
					</g>
				</g>
			</g>
		</g>
		<g>
			<g>
				<defs>
					<rect id="SVGID_76_" x="764.7" y="262.5" width="207.2" height="19.7"/>
				</defs>
				<clipPath id="SVGID_77_">
					<use xlink:href="#SVGID_76_"  style="overflow:visible;"/>
				</clipPath>
				<g class="st26">
					<g>
						<defs>
							<rect id="SVGID_78_" x="764.5" y="262.4" width="207.3" height="19.8"/>
						</defs>
						<clipPath id="SVGID_79_">
							<use xlink:href="#SVGID_78_"  style="overflow:visible;"/>
						</clipPath>
						<g style="clip-path:url(#SVGID_79_);">
							
								<use xlink:href="#Авиасейлс_Ещё._Куда_уж_лучше_"  width="207.3" height="19.8" x="-103.6" y="-9.9" transform="matrix(1 0 0 -1 868.2637 272.3173)" style="overflow:visible;"/>
						</g>
					</g>
				</g>
			</g>
		</g>
		<g>
			<g>
				<defs>
					<rect id="SVGID_80_" x="1397.4" y="295.7" width="207.2" height="19.7"/>
				</defs>
				<clipPath id="SVGID_81_">
					<use xlink:href="#SVGID_80_"  style="overflow:visible;"/>
				</clipPath>
				<g class="st27">
					<g>
						<defs>
							<rect id="SVGID_82_" x="1397.3" y="295.6" width="207.3" height="19.8"/>
						</defs>
						<clipPath id="SVGID_83_">
							<use xlink:href="#SVGID_82_"  style="overflow:visible;"/>
						</clipPath>
						<g style="clip-path:url(#SVGID_83_);">
							
								<use xlink:href="#Авиасейлс_Ещё._Куда_уж_лучше_"  width="207.3" height="19.8" x="-103.6" y="-9.9" transform="matrix(1 0 0 -1 1501.011 305.4931)" style="overflow:visible;"/>
						</g>
					</g>
				</g>
			</g>
		</g>
		<g>
			<g>
				<defs>
					<rect id="SVGID_84_" x="1186" y="285.1" width="207.2" height="19.7"/>
				</defs>
				<clipPath id="SVGID_85_">
					<use xlink:href="#SVGID_84_"  style="overflow:visible;"/>
				</clipPath>
				<g class="st28">
					<g>
						<defs>
							<rect id="SVGID_86_" x="1185.9" y="285" width="207.3" height="19.8"/>
						</defs>
						<clipPath id="SVGID_87_">
							<use xlink:href="#SVGID_86_"  style="overflow:visible;"/>
						</clipPath>
						<g style="clip-path:url(#SVGID_87_);">
							
								<use xlink:href="#Авиасейлс_Ещё._Куда_уж_лучше_"  width="207.3" height="19.8" x="-103.6" y="-9.9" transform="matrix(1 0 0 -1 1289.6263 294.8558)" style="overflow:visible;"/>
						</g>
					</g>
				</g>
			</g>
		</g>
	</g>
</g>
<g id="bottom">
	<g id="lower_bg_2_">
		
			<rect id="lower_bg_1_" x="-292.1" y="291.2" transform="matrix(0.9981 -6.205551e-02 6.205551e-02 0.9981 -18.1669 45.4717)" class="st6" width="2030.2" height="48"/>
		
			<linearGradient id="lower_bg_3_" gradientUnits="userSpaceOnUse" x1="40.9822" y1="903.6332" x2="2070.9561" y2="903.6324" gradientTransform="matrix(0.9981 -6.205891e-02 -6.205891e-02 -0.9981 -274.7302 1282.3517)">
			<stop  offset="0" style="stop-color:#A266EB"/>
			<stop  offset="1" style="stop-color:#20A0FF"/>
		</linearGradient>
		<polygon id="lower_bg" class="st29" points="-291.4,353.9 1734.7,228 1737.7,275.9 -288.4,401.8 		"/>
	</g>
	<g id="lower_lower">
		<g>
			<g>
				<defs>
					<rect id="SVGID_88_" x="-285.1" y="370.6" width="315.7" height="25.6"/>
				</defs>
				<clipPath id="SVGID_89_">
					<use xlink:href="#SVGID_88_"  style="overflow:visible;"/>
				</clipPath>
				<g class="st30">
					<g>
						<defs>
							<rect id="SVGID_90_" x="-285.1" y="370.6" width="315.9" height="25.6"/>
						</defs>
						<clipPath id="SVGID_91_">
							<use xlink:href="#SVGID_90_"  style="overflow:visible;"/>
						</clipPath>
						<g style="clip-path:url(#SVGID_91_);">
							
								<use xlink:href="#Кэшбэчечка"  width="316" height="25.6" x="-158" y="-12.8" transform="matrix(1 0 0 -1 -127.1175 383.4304)" style="overflow:visible;"/>
						</g>
					</g>
				</g>
			</g>
		</g>
		<g>
			<g>
				<defs>
					<rect id="SVGID_92_" x="35.6" y="350.8" width="315.7" height="25.6"/>
				</defs>
				<clipPath id="SVGID_93_">
					<use xlink:href="#SVGID_92_"  style="overflow:visible;"/>
				</clipPath>
				<g class="st31">
					<g>
						<defs>
							<rect id="SVGID_94_" x="35.5" y="350.9" width="315.9" height="25.6"/>
						</defs>
						<clipPath id="SVGID_95_">
							<use xlink:href="#SVGID_94_"  style="overflow:visible;"/>
						</clipPath>
						<g style="clip-path:url(#SVGID_95_);">
							
								<use xlink:href="#Кэшбэчечка"  width="316" height="25.6" x="-158" y="-12.8" transform="matrix(1 0 0 -1 193.5255 363.6604)" style="overflow:visible;"/>
						</g>
					</g>
				</g>
			</g>
		</g>
		<g>
			<g>
				<defs>
					<rect id="SVGID_96_" x="355.7" y="331" width="315.7" height="25.6"/>
				</defs>
				<clipPath id="SVGID_97_">
					<use xlink:href="#SVGID_96_"  style="overflow:visible;"/>
				</clipPath>
				<g class="st32">
					<g>
						<defs>
							<rect id="SVGID_98_" x="355.6" y="331.1" width="315.9" height="25.6"/>
						</defs>
						<clipPath id="SVGID_99_">
							<use xlink:href="#SVGID_98_"  style="overflow:visible;"/>
						</clipPath>
						<g style="clip-path:url(#SVGID_99_);">
							
								<use xlink:href="#Кэшбэчечка"  width="316" height="25.6" x="-158" y="-12.8" transform="matrix(1 0 0 -1 513.6015 343.8795)" style="overflow:visible;"/>
						</g>
					</g>
				</g>
			</g>
		</g>
		<g>
			<g>
				<defs>
					<rect id="SVGID_100_" x="676.5" y="310.7" width="315.7" height="25.6"/>
				</defs>
				<clipPath id="SVGID_101_">
					<use xlink:href="#SVGID_100_"  style="overflow:visible;"/>
				</clipPath>
				<g class="st33">
					<g>
						<defs>
							<rect id="SVGID_102_" x="676.5" y="310.8" width="315.9" height="25.6"/>
						</defs>
						<clipPath id="SVGID_103_">
							<use xlink:href="#SVGID_102_"  style="overflow:visible;"/>
						</clipPath>
						<g style="clip-path:url(#SVGID_103_);">
							
								<use xlink:href="#Кэшбэчечка"  width="316" height="25.6" x="-158" y="-12.8" transform="matrix(1 0 0 -1 834.4725 323.5773)" style="overflow:visible;"/>
						</g>
					</g>
				</g>
			</g>
		</g>
		<g>
			<g>
				<defs>
					<rect id="SVGID_104_" x="996.9" y="290.5" width="315.7" height="25.6"/>
				</defs>
				<clipPath id="SVGID_105_">
					<use xlink:href="#SVGID_104_"  style="overflow:visible;"/>
				</clipPath>
				<g class="st34">
					<g>
						<defs>
							<rect id="SVGID_106_" x="996.8" y="290.5" width="315.9" height="25.6"/>
						</defs>
						<clipPath id="SVGID_107_">
							<use xlink:href="#SVGID_106_"  style="overflow:visible;"/>
						</clipPath>
						<g style="clip-path:url(#SVGID_107_);">
							
								<use xlink:href="#Кэшбэчечка"  width="316" height="25.6" x="-158" y="-12.8" transform="matrix(1 0 0 -1 1154.8153 303.3273)" style="overflow:visible;"/>
						</g>
					</g>
				</g>
			</g>
		</g>
		<g>
			<g>
				<defs>
					<rect id="SVGID_108_" x="1317.3" y="270.5" width="315.7" height="25.6"/>
				</defs>
				<clipPath id="SVGID_109_">
					<use xlink:href="#SVGID_108_"  style="overflow:visible;"/>
				</clipPath>
				<g class="st35">
					<g>
						<defs>
							<rect id="SVGID_110_" x="1317.2" y="270.6" width="315.9" height="25.6"/>
						</defs>
						<clipPath id="SVGID_111_">
							<use xlink:href="#SVGID_110_"  style="overflow:visible;"/>
						</clipPath>
						<g style="clip-path:url(#SVGID_111_);">
							
								<use xlink:href="#Кэшбэчечка"  width="316" height="25.6" x="-158" y="-12.8" transform="matrix(1 0 0 -1 1475.2374 283.4244)" style="overflow:visible;"/>
						</g>
					</g>
				</g>
			</g>
		</g>
	</g>
	<g id="lower_top">
		<g>
			<g>
				<defs>
					
						<rect id="SVGID_112_" x="1013.9" y="220.8" transform="matrix(0.9935 -0.1138 0.1138 0.9935 -19.2364 174.1349)" width="1003.4" height="69.5"/>
				</defs>
				<clipPath id="SVGID_113_">
					<use xlink:href="#SVGID_112_"  style="overflow:visible;"/>
				</clipPath>
				<g transform="matrix(1 0 0 1 0 -3.051758e-05)" class="st36">
					<g>
						<defs>
							
								<rect id="SVGID_114_" x="1014" y="220.9" transform="matrix(0.9935 -0.1138 0.1138 0.9935 -19.245 174.1422)" width="1003.4" height="69.5"/>
						</defs>
						<clipPath id="SVGID_115_">
							<use xlink:href="#SVGID_114_"  style="overflow:visible;"/>
						</clipPath>
						<g transform="matrix(1 0 0 1 0 -1.525879e-05)" style="clip-path:url(#SVGID_115_);">
							
								<use xlink:href="#Неформальные_гайды_и_тд"  width="1003.4" height="69.5" x="-501.7" y="-34.7" transform="matrix(0.9935 -0.1138 -0.1138 -0.9935 1515.6591 255.7185)" style="overflow:visible;"/>
						</g>
					</g>
				</g>
			</g>
		</g>
		<g>
			<g>
				<defs>
					
						<rect id="SVGID_116_" x="-6.1" y="284.2" transform="matrix(0.9935 -0.1138 0.1138 0.9935 -33.0765 58.4709)" width="1003.4" height="69.5"/>
				</defs>
				<clipPath id="SVGID_117_">
					<use xlink:href="#SVGID_116_"  style="overflow:visible;"/>
				</clipPath>
				<g class="st37">
					<g>
						<defs>
							
								<rect id="SVGID_118_" x="-6.1" y="284.3" transform="matrix(0.9935 -0.1138 0.1138 0.9935 -33.0847 58.4681)" width="1003.4" height="69.5"/>
						</defs>
						<clipPath id="SVGID_119_">
							<use xlink:href="#SVGID_118_"  style="overflow:visible;"/>
						</clipPath>
						<g transform="matrix(1 0 0 1 0 3.051758e-05)" style="clip-path:url(#SVGID_119_);">
							
								<use xlink:href="#Неформальные_гайды_и_тд"  width="1003.4" height="69.5" x="-501.7" y="-34.7" transform="matrix(0.9935 -0.1138 -0.1138 -0.9935 495.5764 319.1001)" style="overflow:visible;"/>
						</g>
					</g>
				</g>
			</g>
		</g>
	</g>
</g>
</svg>
