<svg width="1440" height="475" viewBox="0 0 1440 475" fill="none" xmlns="http://www.w3.org/2000/svg">
<rect width="1869" height="44" transform="translate(-234.317 368.679) rotate(-5.92426)" fill="url(#paint0_linear)"/>
<g clip-path="url(#clip0)">
<path fill-rule="evenodd" clip-rule="evenodd" d="M2.1035 356.462L5.24935 356.136L9.20421 361.21L11.8562 359.22L15.8618 358.804L15.1836 374.709L-3.80548 376.68L-7.7349 361.253L-3.72921 360.837L-0.725117 362.241L2.1035 356.462ZM3.9995 359.412L0.674233 366.206L-3.92485 364.057L-1.53787 373.428L12.2968 371.993L12.7087 362.331L8.64877 365.378L3.9995 359.412Z" fill="white"/>
</g>
<path d="M53.3625 372.004L52.8737 367.294L40.9378 368.532L40.5282 364.585L52.3368 363.36L51.848 358.649L40.0394 359.875L39.6364 355.992L51.5723 354.753L51.0835 350.042L33.2592 351.892L35.5382 373.854L53.3625 372.004ZM62.1428 365.946L60.3923 349.076L54.5039 349.687L56.7829 371.649L83.8058 368.845L84.3342 373.938L89.8088 373.37L88.7519 363.185L84.9643 363.578L83.2138 346.708L77.3254 347.319L79.0759 364.189L73.4421 364.773L71.6916 347.904L66.026 348.492L67.7765 365.361L62.1428 365.946ZM109.591 366.17L109.102 361.459L97.1658 362.698L96.7563 358.751L108.565 357.525L108.076 352.815L96.2675 354.04L95.8645 350.157L107.8 348.918L107.312 344.208L89.4873 346.057L91.7663 368.019L109.591 366.17ZM92.8156 343.717L96.9215 343.291L96.5351 339.567L92.4291 339.993L92.8156 343.717ZM99.6588 343.007L103.797 342.578L103.41 338.854L99.2724 339.283L99.6588 343.007Z" fill="white"/>
<g clip-path="url(#clip1)">
<path fill-rule="evenodd" clip-rule="evenodd" d="M144.485 340.933L125.693 342.883L126.7 352.581L134.212 351.802L136.058 348.297L135.701 344.861L140.22 344.392L129.623 363.588L134.004 363.134L144.765 343.639L144.485 340.933ZM128.987 345.558L132.717 345.17L132.98 347.703L132.306 348.983L129.374 349.287L128.987 345.558ZM149.234 351.751L141.722 352.53L139.877 356.035L140.543 362.455L150.241 361.449L149.234 351.751ZM142.954 356.629L143.629 355.349L146.56 355.044L146.947 358.774L143.217 359.161L142.954 356.629Z" fill="black"/>
</g>
<path d="M186.647 358.174L186.158 353.463L174.222 354.702L173.813 350.755L185.621 349.529L185.132 344.819L173.324 346.044L172.921 342.161L184.857 340.922L184.368 336.212L166.544 338.061L168.823 360.023L186.647 358.174ZM195.427 352.115L193.677 335.246L187.788 335.857L190.067 357.819L217.09 355.015L217.619 360.107L223.093 359.539L222.036 349.354L218.249 349.747L216.498 332.877L210.61 333.489L212.36 350.358L206.727 350.943L204.976 334.073L199.31 334.661L201.061 351.53L195.427 352.115ZM242.875 352.339L242.386 347.628L230.45 348.867L230.041 344.92L241.849 343.695L241.36 338.984L229.552 340.209L229.149 336.326L241.085 335.088L240.596 330.377L222.772 332.227L225.051 354.189L242.875 352.339ZM226.1 329.886L230.206 329.46L229.82 325.736L225.714 326.162L226.1 329.886ZM232.943 329.176L237.081 328.747L236.695 325.023L232.557 325.452L232.943 329.176Z" fill="white"/>
<g clip-path="url(#clip2)">
<path fill-rule="evenodd" clip-rule="evenodd" d="M268.672 328.801L271.818 328.474L275.773 333.549L278.425 331.559L282.431 331.143L281.752 347.048L262.763 349.019L258.834 333.592L262.84 333.176L265.844 334.579L268.672 328.801ZM270.568 331.751L267.243 338.544L262.644 336.396L265.031 345.767L278.865 344.332L279.277 334.67L275.217 337.717L270.568 331.751Z" fill="white"/>
</g>
<path d="M319.931 344.343L319.442 339.632L307.506 340.871L307.097 336.924L318.906 335.699L318.417 330.988L306.608 332.213L306.205 328.33L318.141 327.092L317.652 322.381L299.828 324.23L302.107 346.193L319.931 344.343ZM328.712 338.284L326.961 321.415L321.073 322.026L323.352 343.988L350.374 341.184L350.903 346.277L356.378 345.709L355.321 335.523L351.533 335.916L349.782 319.047L343.894 319.658L345.645 336.527L340.011 337.112L338.26 320.242L332.595 320.83L334.345 337.7L328.712 338.284ZM376.159 338.508L375.67 333.798L363.735 335.036L363.325 331.089L375.134 329.864L374.645 325.153L362.836 326.379L362.433 322.495L374.369 321.257L373.88 316.546L356.056 318.396L358.335 340.358L376.159 338.508ZM359.384 316.056L363.49 315.63L363.104 311.906L358.998 312.332L359.384 316.056ZM366.228 315.346L370.365 314.916L369.979 311.192L365.841 311.622L366.228 315.346Z" fill="white"/>
<g clip-path="url(#clip3)">
<path fill-rule="evenodd" clip-rule="evenodd" d="M411.053 313.272L392.262 315.222L393.268 324.92L400.781 324.14L402.626 320.635L402.27 317.2L406.788 316.731L396.191 335.927L400.572 335.472L411.334 315.978L411.053 313.272ZM395.556 317.896L399.286 317.509L399.548 320.041L398.874 321.322L395.943 321.626L395.556 317.896ZM415.803 324.09L408.291 324.869L406.445 328.374L407.111 334.794L416.809 333.787L415.803 324.09ZM409.523 328.968L410.197 327.687L413.129 327.383L413.516 331.113L409.786 331.5L409.523 328.968Z" fill="black"/>
</g>
<path d="M453.216 330.512L452.727 325.802L440.791 327.04L440.381 323.093L452.19 321.868L451.701 317.157L439.892 318.383L439.489 314.5L451.425 313.261L450.937 308.55L433.112 310.4L435.391 332.362L453.216 330.512ZM461.996 324.454L460.245 307.584L454.357 308.195L456.636 330.157L483.659 327.353L484.187 332.446L489.662 331.878L488.605 321.693L484.817 322.086L483.067 305.216L477.178 305.827L478.929 322.697L473.295 323.281L471.545 306.412L465.879 307L467.63 323.869L461.996 324.454ZM509.444 324.678L508.955 319.967L497.019 321.206L496.609 317.259L508.418 316.033L507.929 311.323L496.12 312.548L495.718 308.665L507.653 307.426L507.165 302.716L489.34 304.565L491.619 326.527L509.444 324.678ZM492.669 302.225L496.775 301.799L496.388 298.075L492.282 298.501L492.669 302.225ZM499.512 301.515L503.65 301.086L503.263 297.362L499.125 297.791L499.512 301.515Z" fill="white"/>
<g clip-path="url(#clip4)">
<path fill-rule="evenodd" clip-rule="evenodd" d="M535.241 301.139L538.387 300.813L542.342 305.888L544.994 303.897L548.999 303.482L548.321 319.387L529.332 321.357L525.402 305.93L529.408 305.515L532.412 306.918L535.241 301.139ZM537.137 304.09L533.812 310.883L529.213 308.735L531.6 318.106L545.434 316.67L545.846 307.009L541.786 310.056L537.137 304.09Z" fill="white"/>
</g>
<path d="M586.5 316.682L586.011 311.971L574.075 313.21L573.666 309.263L585.474 308.037L584.985 303.327L573.177 304.552L572.774 300.669L584.71 299.43L584.221 294.72L566.397 296.569L568.676 318.531L586.5 316.682ZM595.28 310.623L593.53 293.754L587.641 294.365L589.92 316.327L616.943 313.523L617.472 318.615L622.946 318.047L621.889 307.862L618.102 308.255L616.351 291.386L610.463 291.997L612.213 308.866L606.58 309.451L604.829 292.581L599.163 293.169L600.914 310.039L595.28 310.623ZM642.728 310.847L642.239 306.136L630.303 307.375L629.894 303.428L641.702 302.203L641.213 297.492L629.405 298.717L629.002 294.834L640.938 293.596L640.449 288.885L622.625 290.735L624.904 312.697L642.728 310.847ZM625.953 288.395L630.059 287.968L629.672 284.244L625.567 284.671L625.953 288.395ZM632.796 287.684L636.934 287.255L636.548 283.531L632.41 283.96L632.796 287.684Z" fill="white"/>
<g clip-path="url(#clip5)">
<path fill-rule="evenodd" clip-rule="evenodd" d="M677.622 285.611L658.831 287.561L659.837 297.259L667.35 296.479L669.195 292.974L668.838 289.538L673.357 289.069L662.76 308.266L667.141 307.811L677.903 288.317L677.622 285.611ZM662.124 290.235L665.854 289.848L666.117 292.38L665.443 293.661L662.512 293.965L662.124 290.235ZM682.372 296.428L674.859 297.208L673.014 300.713L673.68 307.133L683.378 306.126L682.372 296.428ZM676.092 301.307L676.766 300.026L679.698 299.722L680.085 303.452L676.355 303.839L676.092 301.307Z" fill="black"/>
</g>
<path d="M719.784 302.851L719.295 298.14L707.36 299.379L706.95 295.432L718.759 294.207L718.27 289.496L706.461 290.721L706.058 286.838L717.994 285.6L717.505 280.889L699.681 282.739L701.96 304.701L719.784 302.851ZM728.565 296.793L726.814 279.923L720.926 280.534L723.205 302.496L750.228 299.692L750.756 304.785L756.231 304.217L755.174 294.031L751.386 294.424L749.636 277.555L743.747 278.166L745.498 295.035L739.864 295.62L738.113 278.751L732.448 279.339L734.198 296.208L728.565 296.793ZM776.012 297.016L775.524 292.306L763.588 293.544L763.178 289.598L774.987 288.372L774.498 283.661L762.689 284.887L762.286 281.004L774.222 279.765L773.733 275.054L755.909 276.904L758.188 298.866L776.012 297.016ZM759.237 274.564L763.343 274.138L762.957 270.414L758.851 270.84L759.237 274.564ZM766.081 273.854L770.218 273.424L769.832 269.7L765.694 270.13L766.081 273.854Z" fill="white"/>
<g clip-path="url(#clip6)">
<path fill-rule="evenodd" clip-rule="evenodd" d="M801.81 273.478L804.955 273.152L808.91 278.227L811.562 276.236L815.568 275.821L814.89 291.726L795.901 293.696L791.971 278.269L795.977 277.853L798.981 279.257L801.81 273.478ZM803.706 276.428L800.38 283.222L795.781 281.073L798.168 290.445L812.003 289.009L812.415 279.347L808.355 282.394L803.706 276.428Z" fill="white"/>
</g>
<path d="M853.069 289.021L852.58 284.31L840.644 285.548L840.234 281.602L852.043 280.376L851.554 275.666L839.745 276.891L839.342 273.008L851.278 271.769L850.79 267.058L832.965 268.908L835.244 290.87L853.069 289.021ZM861.849 282.962L860.098 266.092L854.21 266.704L856.489 288.666L883.512 285.861L884.04 290.954L889.515 290.386L888.458 280.201L884.67 280.594L882.92 263.724L877.031 264.335L878.782 281.205L873.148 281.789L871.398 264.92L865.732 265.508L867.483 282.377L861.849 282.962ZM909.297 283.186L908.808 278.475L896.872 279.714L896.462 275.767L908.271 274.542L907.782 269.831L895.974 271.056L895.571 267.173L907.506 265.934L907.018 261.224L889.193 263.073L891.472 285.035L909.297 283.186ZM892.522 260.733L896.628 260.307L896.241 256.583L892.135 257.009L892.522 260.733ZM899.365 260.023L903.503 259.594L903.116 255.87L898.978 256.299L899.365 260.023Z" fill="white"/>
<g clip-path="url(#clip7)">
<path fill-rule="evenodd" clip-rule="evenodd" d="M944.191 257.949L925.4 259.899L926.406 269.597L933.918 268.818L935.764 265.313L935.407 261.877L939.926 261.408L929.329 280.604L933.71 280.15L944.472 260.655L944.191 257.949ZM928.693 262.574L932.423 262.187L932.686 264.719L932.012 266L929.08 266.304L928.693 262.574ZM948.941 268.767L941.428 269.547L939.583 273.052L940.249 279.471L949.947 278.465L948.941 268.767ZM942.66 273.645L943.335 272.365L946.266 272.061L946.653 275.791L942.923 276.178L942.66 273.645Z" fill="black"/>
</g>
<path d="M986.353 275.19L985.864 270.479L973.928 271.718L973.519 267.771L985.327 266.546L984.838 261.835L973.03 263.06L972.627 259.177L984.563 257.939L984.074 253.228L966.25 255.077L968.529 277.039L986.353 275.19ZM995.133 269.131L993.383 252.262L987.494 252.873L989.773 274.835L1016.8 272.031L1017.32 277.124L1022.8 276.555L1021.74 266.37L1017.95 266.763L1016.2 249.894L1010.32 250.505L1012.07 267.374L1006.43 267.959L1004.68 251.089L999.016 251.677L1000.77 268.547L995.133 269.131ZM1042.58 269.355L1042.09 264.645L1030.16 265.883L1029.75 261.936L1041.56 260.711L1041.07 256L1029.26 257.226L1028.85 253.342L1040.79 252.104L1040.3 247.393L1022.48 249.243L1024.76 271.205L1042.58 269.355ZM1025.81 246.903L1029.91 246.477L1029.53 242.753L1025.42 243.179L1025.81 246.903ZM1032.65 246.193L1036.79 245.763L1036.4 242.039L1032.26 242.469L1032.65 246.193Z" fill="white"/>
<g clip-path="url(#clip8)">
<path fill-rule="evenodd" clip-rule="evenodd" d="M1068.38 245.817L1071.52 245.49L1075.48 250.565L1078.13 248.575L1082.14 248.159L1081.46 264.064L1062.47 266.035L1058.54 250.608L1062.55 250.192L1065.55 251.596L1068.38 245.817ZM1070.27 248.767L1066.95 255.56L1062.35 253.412L1064.74 262.783L1078.57 261.348L1078.98 251.686L1074.92 254.733L1070.27 248.767Z" fill="white"/>
</g>
<path d="M1119.32 261.392L1118.83 256.682L1106.89 257.92L1106.48 253.973L1118.29 252.748L1117.8 248.037L1106 249.263L1105.59 245.379L1117.53 244.141L1117.04 239.43L1099.22 241.28L1101.49 263.242L1119.32 261.392ZM1128.1 255.334L1126.35 238.464L1120.46 239.075L1122.74 261.037L1149.76 258.233L1150.29 263.326L1155.77 262.758L1154.71 252.573L1150.92 252.966L1149.17 236.096L1143.28 236.707L1145.03 253.577L1139.4 254.161L1137.65 237.292L1131.98 237.88L1133.73 254.749L1128.1 255.334ZM1175.55 255.558L1175.06 250.847L1163.12 252.085L1162.71 248.139L1174.52 246.913L1174.03 242.203L1162.22 243.428L1161.82 239.545L1173.76 238.306L1173.27 233.596L1155.44 235.445L1157.72 257.407L1175.55 255.558ZM1158.77 233.105L1162.88 232.679L1162.49 228.955L1158.39 229.381L1158.77 233.105ZM1165.62 232.395L1169.75 231.966L1169.37 228.242L1165.23 228.671L1165.62 232.395Z" fill="white"/>
<g clip-path="url(#clip9)">
<path fill-rule="evenodd" clip-rule="evenodd" d="M1210.76 230.288L1191.97 232.238L1192.97 241.936L1200.49 241.157L1202.33 237.652L1201.98 234.216L1206.49 233.747L1195.9 252.943L1200.28 252.489L1211.04 232.994L1210.76 230.288ZM1195.26 234.912L1198.99 234.525L1199.25 237.058L1198.58 238.338L1195.65 238.642L1195.26 234.912ZM1215.51 241.106L1208 241.885L1206.15 245.39L1206.82 251.81L1216.52 250.804L1215.51 241.106ZM1209.23 245.984L1209.9 244.704L1212.83 244.399L1213.22 248.129L1209.49 248.516L1209.23 245.984Z" fill="black"/>
</g>
<path d="M1252.92 247.529L1252.43 242.818L1240.5 244.056L1240.09 240.11L1251.9 238.884L1251.41 234.174L1239.6 235.399L1239.2 231.516L1251.13 230.277L1250.64 225.567L1232.82 227.416L1235.1 249.378L1252.92 247.529ZM1261.7 241.47L1259.95 224.601L1254.06 225.212L1256.34 247.174L1283.36 244.37L1283.89 249.462L1289.37 248.894L1288.31 238.709L1284.52 239.102L1282.77 222.232L1276.88 222.844L1278.63 239.713L1273 240.298L1271.25 223.428L1265.59 224.016L1267.34 240.885L1261.7 241.47ZM1309.15 241.694L1308.66 236.983L1296.72 238.222L1296.32 234.275L1308.12 233.05L1307.64 228.339L1295.83 229.564L1295.42 225.681L1307.36 224.443L1306.87 219.732L1289.05 221.581L1291.33 243.544L1309.15 241.694ZM1292.37 219.241L1296.48 218.815L1296.09 215.091L1291.99 215.517L1292.37 219.241ZM1299.22 218.531L1303.36 218.102L1302.97 214.378L1298.83 214.807L1299.22 218.531Z" fill="white"/>
<g clip-path="url(#clip10)">
<path fill-rule="evenodd" clip-rule="evenodd" d="M1334.95 218.156L1338.09 217.829L1342.05 222.904L1344.7 220.914L1348.71 220.498L1348.03 236.403L1329.04 238.373L1325.11 222.947L1329.11 222.531L1332.12 223.934L1334.95 218.156ZM1336.84 221.106L1333.52 227.899L1328.92 225.751L1331.31 235.122L1345.14 233.686L1345.55 224.025L1341.49 227.072L1336.84 221.106Z" fill="white"/>
</g>
<path d="M1386.21 233.698L1385.72 228.987L1373.78 230.226L1373.37 226.279L1385.18 225.054L1384.69 220.343L1372.88 221.568L1372.48 217.685L1384.42 216.447L1383.93 211.736L1366.1 213.586L1368.38 235.548L1386.21 233.698ZM1394.99 227.639L1393.24 210.77L1387.35 211.381L1389.63 233.343L1416.65 230.539L1417.18 235.632L1422.65 235.064L1421.6 224.878L1417.81 225.271L1416.06 208.402L1410.17 209.013L1411.92 225.882L1406.29 226.467L1404.54 209.597L1398.87 210.185L1400.62 227.055L1394.99 227.639ZM1442.43 227.863L1441.95 223.153L1430.01 224.391L1429.6 220.444L1441.41 219.219L1440.92 214.508L1429.11 215.734L1428.71 211.851L1440.64 210.612L1440.16 205.901L1422.33 207.751L1424.61 229.713L1442.43 227.863ZM1425.66 205.411L1429.76 204.985L1429.38 201.261L1425.27 201.687L1425.66 205.411ZM1432.5 204.701L1436.64 204.271L1436.25 200.547L1432.12 200.977L1432.5 204.701Z" fill="white"/>
<rect width="1869" height="44" transform="translate(-250 432.135) rotate(-13.3685)" fill="url(#paint1_linear)"/>
<g clip-path="url(#clip11)">
<path fill-rule="evenodd" clip-rule="evenodd" d="M-17.1552 389.39L-14.0782 388.659L-9.49912 393.178L-7.1274 390.861L-3.20932 389.93L-1.82114 405.789L-20.3949 410.203L-26.2899 395.415L-22.3719 394.484L-19.2113 395.487L-17.1552 389.39ZM-14.8929 392.07L-17.31 399.237L-22.1487 397.702L-18.5677 406.685L-5.03566 403.469L-5.87893 393.836L-9.50991 397.383L-14.8929 392.07Z" fill="white"/>
</g>
<path d="M35.6854 398.16L34.5904 393.553L22.9156 396.327L21.9981 392.467L33.5484 389.722L32.4534 385.114L20.9031 387.859L20.0004 384.061L31.6753 381.286L30.5803 376.679L13.1458 380.822L18.251 402.304L35.6854 398.16ZM43.6068 391.015L39.6854 374.515L33.9258 375.884L39.031 397.365L65.4628 391.084L66.6466 396.065L72.0015 394.792L69.6339 384.83L65.9291 385.71L62.0077 369.21L56.2481 370.579L60.1695 387.079L54.659 388.389L50.7376 371.888L45.1959 373.205L49.1173 389.706L43.6068 391.015ZM90.6837 385.09L89.5886 380.482L77.9138 383.257L76.9963 379.396L88.5466 376.651L87.4516 372.044L75.9013 374.789L74.9987 370.99L86.6735 368.216L85.5785 363.608L68.1441 367.752L73.2492 389.233L90.6837 385.09ZM71.1411 365L75.1572 364.046L74.2916 360.403L70.2754 361.357L71.1411 365ZM77.8347 363.409L81.8819 362.447L81.0163 358.805L76.969 359.767L77.8347 363.409Z" fill="white"/>
<g clip-path="url(#clip12)">
<path fill-rule="evenodd" clip-rule="evenodd" d="M122.014 355.545L103.634 359.913L105.888 369.399L113.236 367.653L114.612 363.938L113.813 360.578L118.233 359.527L110.213 379.935L114.498 378.916L122.643 358.192L122.014 355.545ZM107.246 362.138L110.895 361.271L111.483 363.748L110.981 365.105L108.113 365.787L107.246 362.138ZM128.125 365.656L120.777 367.403L119.402 371.117L120.894 377.396L130.38 375.142L128.125 365.656ZM122.53 371.307L123.033 369.95L125.9 369.269L126.767 372.917L123.119 373.784L122.53 371.307Z" fill="black"/>
</g>
<path d="M166.054 367.178L164.959 362.57L153.285 365.345L152.367 361.484L163.917 358.739L162.822 354.132L151.272 356.877L150.369 353.078L162.044 350.304L160.949 345.696L143.515 349.839L148.62 371.321L166.054 367.178ZM173.976 360.033L170.054 343.532L164.295 344.901L169.4 366.383L195.832 360.101L197.016 365.082L202.371 363.81L200.003 353.847L196.298 354.728L192.377 338.227L186.617 339.596L190.539 356.096L185.028 357.406L181.107 340.906L175.565 342.223L179.486 358.723L173.976 360.033ZM221.053 354.107L219.958 349.5L208.283 352.274L207.365 348.414L218.916 345.669L217.821 341.061L206.27 343.806L205.368 340.008L217.043 337.233L215.947 332.626L198.513 336.769L203.618 358.251L221.053 354.107ZM201.51 334.017L205.526 333.063L204.661 329.42L200.644 330.375L201.51 334.017ZM208.204 332.427L212.251 331.465L211.385 327.822L207.338 328.784L208.204 332.427Z" fill="white"/>
<g clip-path="url(#clip13)">
<path fill-rule="evenodd" clip-rule="evenodd" d="M243.583 327.425L246.66 326.694L251.239 331.214L253.611 328.896L257.529 327.965L258.917 343.824L240.343 348.238L234.448 333.451L238.366 332.519L241.527 333.522L243.583 327.425ZM245.845 330.105L243.428 337.272L238.589 335.737L242.17 344.72L255.702 341.504L254.859 331.871L251.228 335.418L245.845 330.105Z" fill="white"/>
</g>
<path d="M296.424 336.195L295.329 331.588L283.654 334.362L282.736 330.502L294.287 327.757L293.192 323.149L281.641 325.894L280.739 322.096L292.413 319.321L291.318 314.714L273.884 318.857L278.989 340.339L296.424 336.195ZM304.345 329.05L300.424 312.55L294.664 313.919L299.769 335.4L326.201 329.119L327.385 334.1L332.74 332.827L330.372 322.865L326.667 323.745L322.746 307.245L316.986 308.614L320.908 325.114L315.397 326.424L311.476 309.923L305.934 311.24L309.855 327.741L304.345 329.05ZM351.422 323.125L350.327 318.517L338.652 321.292L337.734 317.431L349.285 314.686L348.19 310.079L336.639 312.824L335.737 309.025L347.412 306.251L346.317 301.643L328.882 305.787L333.987 327.268L351.422 323.125ZM331.879 303.035L335.895 302.081L335.03 298.438L331.014 299.392L331.879 303.035ZM338.573 301.444L342.62 300.482L341.754 296.84L337.707 297.802L338.573 301.444Z" fill="white"/>
<g clip-path="url(#clip14)">
<path fill-rule="evenodd" clip-rule="evenodd" d="M382.752 293.58L364.372 297.948L366.626 307.434L373.974 305.688L375.35 301.973L374.551 298.613L378.971 297.562L370.951 317.97L375.236 316.952L383.381 296.227L382.752 293.58ZM367.984 300.174L371.633 299.307L372.221 301.783L371.719 303.141L368.851 303.822L367.984 300.174ZM388.863 303.691L381.515 305.438L380.14 309.152L381.632 315.431L391.118 313.177L388.863 303.691ZM383.268 309.342L383.771 307.985L386.638 307.304L387.505 310.952L383.857 311.819L383.268 309.342Z" fill="black"/>
</g>
<path d="M426.793 305.213L425.698 300.605L414.023 303.38L413.105 299.519L424.656 296.774L423.561 292.167L412.01 294.912L411.108 291.113L422.782 288.339L421.687 283.731L404.253 287.875L409.358 309.356L426.793 305.213ZM434.714 298.068L430.793 281.567L425.033 282.936L430.138 304.418L456.57 298.136L457.754 303.118L463.109 301.845L460.741 291.882L457.036 292.763L453.115 276.262L447.355 277.631L451.277 294.132L445.766 295.441L441.845 278.941L436.303 280.258L440.224 296.758L434.714 298.068ZM481.791 292.142L480.696 287.535L469.021 290.309L468.104 286.449L479.654 283.704L478.559 279.096L467.008 281.841L466.106 278.043L477.781 275.268L476.686 270.661L459.251 274.804L464.356 296.286L481.791 292.142ZM462.248 272.053L466.264 271.098L465.399 267.456L461.383 268.41L462.248 272.053ZM468.942 270.462L472.989 269.5L472.123 265.857L468.076 266.819L468.942 270.462Z" fill="white"/>
<g clip-path="url(#clip15)">
<path fill-rule="evenodd" clip-rule="evenodd" d="M504.321 265.46L507.398 264.729L511.977 269.249L514.349 266.932L518.267 266L519.655 281.859L501.081 286.273L495.186 271.486L499.104 270.554L502.265 271.557L504.321 265.46ZM506.583 268.14L504.166 275.307L499.328 273.772L502.909 282.755L516.441 279.54L515.597 269.906L511.966 273.453L506.583 268.14Z" fill="white"/>
</g>
<path d="M557.162 274.23L556.067 269.623L544.392 272.397L543.474 268.537L555.025 265.792L553.93 261.184L542.379 263.929L541.477 260.131L553.151 257.356L552.056 252.749L534.622 256.892L539.727 278.374L557.162 274.23ZM565.083 267.085L561.162 250.585L555.402 251.954L560.507 273.435L586.939 267.154L588.123 272.135L593.478 270.862L591.11 260.9L587.405 261.78L583.484 245.28L577.724 246.649L581.646 263.149L576.135 264.459L572.214 247.958L566.672 249.275L570.593 265.776L565.083 267.085ZM612.16 261.16L611.065 256.552L599.39 259.327L598.473 255.466L610.023 252.721L608.928 248.114L597.378 250.859L596.475 247.061L608.15 244.286L607.055 239.678L589.62 243.822L594.725 265.303L612.16 261.16ZM592.617 241.07L596.633 240.116L595.768 236.473L591.752 237.428L592.617 241.07ZM599.311 239.479L603.358 238.518L602.492 234.875L598.445 235.837L599.311 239.479Z" fill="white"/>
<g clip-path="url(#clip16)">
<path fill-rule="evenodd" clip-rule="evenodd" d="M643.49 231.615L625.11 235.984L627.364 245.469L634.712 243.723L636.088 240.009L635.289 236.648L639.709 235.598L631.689 256.005L635.974 254.987L644.119 234.262L643.49 231.615ZM628.722 238.209L632.371 237.342L632.959 239.818L632.457 241.176L629.589 241.857L628.722 238.209ZM649.602 241.726L642.253 243.473L640.878 247.187L642.37 253.467L651.856 251.212L649.602 241.726ZM644.006 247.377L644.509 246.02L647.376 245.339L648.243 248.987L644.595 249.854L644.006 247.377Z" fill="black"/>
</g>
<path d="M687.531 243.248L686.436 238.64L674.761 241.415L673.843 237.554L685.394 234.809L684.299 230.202L672.748 232.947L671.846 229.148L683.521 226.374L682.426 221.766L664.991 225.91L670.096 247.391L687.531 243.248ZM695.452 236.103L691.531 219.602L685.771 220.971L690.876 242.453L717.308 236.171L718.492 241.153L723.847 239.88L721.479 229.917L717.774 230.798L713.853 214.297L708.093 215.666L712.015 232.167L706.504 233.476L702.583 216.976L697.041 218.293L700.963 234.793L695.452 236.103ZM742.529 230.178L741.434 225.57L729.759 228.344L728.842 224.484L740.392 221.739L739.297 217.131L727.747 219.876L726.844 216.078L738.519 213.303L737.424 208.696L719.989 212.839L725.094 234.321L742.529 230.178ZM722.986 210.088L727.002 209.133L726.137 205.491L722.121 206.445L722.986 210.088ZM729.68 208.497L733.727 207.535L732.862 203.893L728.814 204.854L729.68 208.497Z" fill="white"/>
<g clip-path="url(#clip17)">
<path fill-rule="evenodd" clip-rule="evenodd" d="M765.059 203.495L768.136 202.764L772.715 207.284L775.087 204.967L779.005 204.035L780.393 219.894L761.819 224.308L755.924 209.521L759.842 208.589L763.003 209.592L765.059 203.495ZM767.321 206.175L764.904 213.342L760.066 211.807L763.647 220.79L777.179 217.575L776.335 207.941L772.704 211.488L767.321 206.175Z" fill="white"/>
</g>
<path d="M817.9 212.266L816.805 207.658L805.13 210.432L804.212 206.572L815.763 203.827L814.668 199.219L803.117 201.964L802.215 198.166L813.89 195.392L812.795 190.784L795.36 194.927L800.465 216.409L817.9 212.266ZM825.821 205.12L821.9 188.62L816.14 189.989L821.245 211.47L847.677 205.189L848.861 210.17L854.216 208.898L851.848 198.935L848.143 199.815L844.222 183.315L838.462 184.684L842.384 201.184L836.873 202.494L832.952 185.993L827.41 187.31L831.332 203.811L825.821 205.12ZM872.898 199.195L871.803 194.587L860.128 197.362L859.211 193.502L870.761 190.757L869.666 186.149L858.116 188.894L857.213 185.096L868.888 182.321L867.793 177.713L850.358 181.857L855.464 203.338L872.898 199.195ZM853.355 179.105L857.372 178.151L856.506 174.508L852.49 175.463L853.355 179.105ZM860.049 177.514L864.096 176.553L863.231 172.91L859.183 173.872L860.049 177.514Z" fill="white"/>
<g clip-path="url(#clip18)">
<path fill-rule="evenodd" clip-rule="evenodd" d="M904.228 169.651L885.848 174.019L888.102 183.504L895.451 181.758L896.826 178.044L896.028 174.683L900.448 173.633L892.427 194.04L896.712 193.022L904.857 172.297L904.228 169.651ZM889.46 176.244L893.109 175.377L893.698 177.854L893.195 179.211L890.328 179.892L889.46 176.244ZM910.34 179.762L902.991 181.508L901.616 185.222L903.108 191.502L912.594 189.247L910.34 179.762ZM904.745 185.412L905.247 184.055L908.115 183.374L908.982 187.022L905.333 187.889L904.745 185.412Z" fill="black"/>
</g>
<path d="M948.269 181.283L947.174 176.675L935.499 179.45L934.581 175.589L946.132 172.845L945.037 168.237L933.486 170.982L932.584 167.184L944.259 164.409L943.164 159.801L925.729 163.945L930.834 185.426L948.269 181.283ZM956.19 174.138L952.269 157.637L946.509 159.006L951.614 180.488L978.046 174.206L979.23 179.188L984.585 177.915L982.217 167.953L978.512 168.833L974.591 152.333L968.831 153.701L972.753 170.202L967.242 171.511L963.321 155.011L957.779 156.328L961.701 172.828L956.19 174.138ZM1003.27 168.213L1002.17 163.605L990.497 166.38L989.58 162.519L1001.13 159.774L1000.03 155.166L988.485 157.911L987.582 154.113L999.257 151.339L998.162 146.731L980.727 150.874L985.833 172.356L1003.27 168.213ZM983.724 148.123L987.741 147.168L986.875 143.526L982.859 144.48L983.724 148.123ZM990.418 146.532L994.465 145.57L993.6 141.928L989.552 142.889L990.418 146.532Z" fill="white"/>
<g clip-path="url(#clip19)">
<path fill-rule="evenodd" clip-rule="evenodd" d="M1025.8 141.53L1028.87 140.799L1033.45 145.319L1035.83 143.002L1039.74 142.071L1041.13 157.929L1022.56 162.343L1016.66 147.556L1020.58 146.625L1023.74 147.627L1025.8 141.53ZM1028.06 144.21L1025.64 151.377L1020.8 149.843L1024.38 158.826L1037.92 155.61L1037.07 145.976L1033.44 149.523L1028.06 144.21Z" fill="white"/>
</g>
<path d="M1078.33 150.375L1077.23 145.767L1065.56 148.542L1064.64 144.681L1076.19 141.936L1075.09 137.328L1063.54 140.073L1062.64 136.275L1074.32 133.501L1073.22 128.893L1055.79 133.036L1060.89 154.518L1078.33 150.375ZM1086.25 143.23L1082.33 126.729L1076.57 128.098L1081.67 149.58L1108.1 143.298L1109.29 148.279L1114.64 147.007L1112.27 137.044L1108.57 137.925L1104.65 121.424L1098.89 122.793L1102.81 139.293L1097.3 140.603L1093.38 124.102L1087.84 125.419L1091.76 141.92L1086.25 143.23ZM1133.32 137.304L1132.23 132.697L1120.55 135.471L1119.64 131.611L1131.19 128.866L1130.09 124.258L1118.54 127.003L1117.64 123.205L1129.31 120.43L1128.22 115.822L1110.79 119.966L1115.89 141.448L1133.32 137.304ZM1113.78 117.214L1117.8 116.26L1116.93 112.617L1112.92 113.572L1113.78 117.214ZM1120.48 115.624L1124.52 114.662L1123.66 111.019L1119.61 111.981L1120.48 115.624Z" fill="white"/>
<g clip-path="url(#clip20)">
<path fill-rule="evenodd" clip-rule="evenodd" d="M1164.97 107.686L1146.59 112.054L1148.84 121.54L1156.19 119.793L1157.56 116.079L1156.77 112.718L1161.19 111.668L1153.17 132.075L1157.45 131.057L1165.6 110.332L1164.97 107.686ZM1150.2 114.279L1153.85 113.412L1154.44 115.889L1153.93 117.246L1151.07 117.927L1150.2 114.279ZM1171.08 117.797L1163.73 119.543L1162.35 123.258L1163.85 129.537L1173.33 127.282L1171.08 117.797ZM1165.48 123.448L1165.99 122.09L1168.85 121.409L1169.72 125.057L1166.07 125.924L1165.48 123.448Z" fill="black"/>
</g>
<path d="M1209.01 119.318L1207.91 114.71L1196.24 117.485L1195.32 113.625L1206.87 110.88L1205.77 106.272L1194.22 109.017L1193.32 105.219L1205 102.444L1203.9 97.8364L1186.47 101.98L1191.57 123.461L1209.01 119.318ZM1216.93 112.173L1213.01 95.6726L1207.25 97.0414L1212.35 118.523L1238.78 112.241L1239.97 117.223L1245.32 115.95L1242.96 105.988L1239.25 106.868L1235.33 90.3677L1229.57 91.7364L1233.49 108.237L1227.98 109.546L1224.06 93.046L1218.52 94.363L1222.44 110.863L1216.93 112.173ZM1264.01 106.248L1262.91 101.64L1251.24 104.415L1250.32 100.554L1261.87 97.8092L1260.77 93.2015L1249.22 95.9464L1248.32 92.1482L1259.99 89.3737L1258.9 84.766L1241.47 88.9093L1246.57 110.391L1264.01 106.248ZM1244.46 86.1578L1248.48 85.2034L1247.61 81.5608L1243.6 82.5153L1244.46 86.1578ZM1251.16 84.5671L1255.2 83.6052L1254.34 79.9627L1250.29 80.9245L1251.16 84.5671Z" fill="white"/>
<g clip-path="url(#clip21)">
<path fill-rule="evenodd" clip-rule="evenodd" d="M1286.54 79.5654L1289.61 78.8342L1294.19 83.3538L1296.56 81.0368L1300.48 80.1056L1301.87 95.9644L1283.3 100.378L1277.4 85.5908L1281.32 84.6596L1284.48 85.6619L1286.54 79.5654ZM1288.8 82.2452L1286.38 89.4121L1281.54 87.8776L1285.12 96.8607L1298.65 93.6448L1297.81 84.0111L1294.18 87.5584L1288.8 82.2452Z" fill="white"/>
</g>
<path d="M1339.38 88.3357L1338.28 83.728L1326.61 86.5026L1325.69 82.6421L1337.24 79.8971L1336.14 75.2894L1324.59 78.0344L1323.69 74.2362L1335.37 71.4616L1334.27 66.854L1316.84 70.9973L1321.94 92.479L1339.38 88.3357ZM1347.3 81.1906L1343.38 64.6901L1337.62 66.0589L1342.72 87.5406L1369.15 81.259L1370.34 86.2403L1375.69 84.9677L1373.32 75.0052L1369.62 75.8856L1365.7 59.3852L1359.94 60.7539L1363.86 77.2544L1358.35 78.564L1354.43 62.0635L1348.89 63.3805L1352.81 79.881L1347.3 81.1906ZM1394.37 75.2652L1393.28 70.6576L1381.6 73.4321L1380.69 69.5716L1392.24 66.8267L1391.14 62.219L1379.59 64.964L1378.69 61.1658L1390.36 58.3912L1389.27 53.7835L1371.83 57.9269L1376.94 79.4086L1394.37 75.2652ZM1374.83 55.1754L1378.85 54.2209L1377.98 50.5784L1373.97 51.5328L1374.83 55.1754ZM1381.53 53.5846L1385.57 52.6228L1384.71 48.9802L1380.66 49.9421L1381.53 53.5846Z" fill="white"/>
<g clip-path="url(#clip22)">
<path fill-rule="evenodd" clip-rule="evenodd" d="M1425.7 45.7207L1407.32 50.0888L1409.58 59.5746L1416.93 57.8283L1418.3 54.1138L1417.5 50.7532L1421.92 49.7028L1413.9 70.1102L1418.19 69.0918L1426.33 48.3674L1425.7 45.7207ZM1410.94 52.3139L1414.59 51.4468L1415.17 53.9237L1414.67 55.2808L1411.8 55.9623L1410.94 52.3139ZM1431.82 55.8317L1424.47 57.578L1423.09 61.2925L1424.58 67.5718L1434.07 65.3175L1431.82 55.8317ZM1426.22 61.4826L1426.72 60.1255L1429.59 59.444L1430.46 63.0924L1426.81 63.9595L1426.22 61.4826Z" fill="black"/>
</g>
<rect width="1869" height="44" transform="translate(-284.322 218) rotate(2.18623)" fill="url(#paint2_linear)"/>
<path d="M0.011213 261.879L0.19188 257.146L-11.7994 256.688L-11.648 252.723L0.215343 253.176L0.39601 248.443L-11.4674 247.991L-11.3184 244.089L0.672845 244.547L0.853512 239.815L-17.0534 239.131L-17.8957 261.195L0.011213 261.879ZM9.55847 257.119L10.2054 240.172L4.28976 239.946L3.44746 262.01L30.5957 263.046L30.4004 268.162L35.9004 268.372L36.291 258.14L32.4858 257.995L33.1328 241.047L27.2171 240.821L26.5701 257.769L20.9102 257.553L21.5572 240.605L15.8653 240.388L15.2183 257.335L9.55847 257.119ZM56.5001 264.035L56.6807 259.302L44.6895 258.845L44.8408 254.88L56.7042 255.332L56.8849 250.6L45.0215 250.147L45.1704 246.246L57.1617 246.704L57.3424 241.971L39.4354 241.287L38.5931 263.351L56.5001 264.035ZM43.0605 239.44L47.1855 239.598L47.3283 235.857L43.2033 235.699L43.0605 239.44ZM49.9355 239.703L54.0925 239.862L54.2353 236.12L50.0783 235.962L49.9355 239.703Z" fill="white"/>
<path fill-rule="evenodd" clip-rule="evenodd" d="M94.6055 243.974L75.7272 243.253L75.3552 252.996L82.9025 253.284L85.2239 250.075L85.3556 246.623L89.8954 246.796L76.6961 264.306L81.0974 264.474L94.5017 246.692L94.6055 243.974ZM78.6105 246.366L82.3578 246.509L82.2607 249.053L81.4126 250.225L78.4675 250.113L78.6105 246.366ZM97.7816 255.353L90.2344 255.065L87.913 258.275L87.6668 264.724L97.4097 265.096L97.7816 255.353ZM90.8762 259.297L91.7243 258.124L94.6694 258.237L94.5263 261.984L90.7791 261.841L90.8762 259.297Z" fill="black"/>
<path d="M133.914 266.99L134.094 262.258L122.103 261.8L122.254 257.835L134.118 258.288L134.298 253.555L122.435 253.102L122.584 249.201L134.575 249.659L134.756 244.926L116.849 244.243L116.007 266.307L133.914 266.99ZM143.461 262.231L144.108 245.283L138.192 245.058L137.35 267.122L164.498 268.158L164.303 273.274L169.803 273.484L170.193 263.252L166.388 263.106L167.035 246.159L161.12 245.933L160.473 262.881L154.813 262.664L155.46 245.717L149.768 245.5L149.121 262.447L143.461 262.231ZM190.403 269.147L190.583 264.414L178.592 263.957L178.743 259.991L190.607 260.444L190.787 255.712L178.924 255.259L179.073 251.358L191.064 251.815L191.245 247.083L173.338 246.399L172.496 268.463L190.403 269.147ZM176.963 244.552L181.088 244.71L181.231 240.968L177.106 240.811L176.963 244.552ZM183.838 244.815L187.995 244.973L188.138 241.232L183.981 241.073L183.838 244.815Z" fill="white"/>
<g clip-path="url(#clip23)">
<path fill-rule="evenodd" clip-rule="evenodd" d="M219.263 249.483L222.423 249.604L225.623 255.186L228.529 253.59L232.553 253.744L229.638 269.394L210.56 268.665L208.847 252.839L212.871 252.992L215.647 254.805L219.263 249.483ZM220.724 252.672L216.473 258.928L212.223 256.152L213.264 265.766L227.163 266.297L228.934 256.79L224.485 259.234L220.724 252.672Z" fill="white"/>
</g>
<path d="M267.816 272.102L267.997 267.37L256.006 266.912L256.157 262.947L268.02 263.4L268.201 258.667L256.338 258.214L256.487 254.313L268.478 254.771L268.658 250.038L250.751 249.355L249.909 271.419L267.816 272.102ZM277.363 267.343L278.01 250.395L272.095 250.169L271.252 272.233L298.401 273.27L298.205 278.386L303.705 278.596L304.096 268.363L300.291 268.218L300.938 251.27L295.022 251.045L294.375 267.992L288.715 267.776L289.362 250.829L283.67 250.611L283.023 267.559L277.363 267.343ZM324.305 274.259L324.486 269.526L312.494 269.068L312.646 265.103L324.509 265.556L324.69 260.823L312.826 260.371L312.975 256.469L324.967 256.927L325.147 252.195L307.24 251.511L306.398 273.575L324.305 274.259ZM310.865 249.664L314.99 249.821L315.133 246.08L311.008 245.923L310.865 249.664ZM317.74 249.926L321.897 250.085L322.04 246.344L317.883 246.185L317.74 249.926Z" fill="white"/>
<path fill-rule="evenodd" clip-rule="evenodd" d="M362.411 254.198L343.532 253.477L343.16 263.22L350.708 263.508L353.029 260.298L353.161 256.847L357.7 257.02L344.501 274.529L348.902 274.697L362.307 256.916L362.411 254.198ZM346.416 256.589L350.163 256.732L350.066 259.276L349.218 260.449L346.273 260.336L346.416 256.589ZM365.587 265.577L358.039 265.289L355.718 268.499L355.472 274.948L365.215 275.32L365.587 265.577ZM358.681 269.521L359.529 268.348L362.474 268.46L362.331 272.208L358.584 272.065L358.681 269.521Z" fill="black"/>
<path d="M401.719 277.214L401.899 272.481L389.908 272.024L390.059 268.058L401.923 268.511L402.103 263.779L390.24 263.326L390.389 259.425L402.38 259.882L402.561 255.15L384.654 254.466L383.812 276.53L401.719 277.214ZM411.266 272.455L411.913 255.507L405.997 255.281L405.155 277.345L432.303 278.381L432.108 283.498L437.608 283.708L437.998 273.475L434.193 273.33L434.84 256.382L428.924 256.156L428.277 273.104L422.618 272.888L423.265 255.94L417.573 255.723L416.926 272.671L411.266 272.455ZM458.207 279.37L458.388 274.638L446.397 274.18L446.548 270.215L458.412 270.668L458.592 265.935L446.729 265.482L446.878 261.581L458.869 262.039L459.05 257.306L441.143 256.623L440.301 278.687L458.207 279.37ZM444.768 254.776L448.893 254.933L449.036 251.192L444.911 251.034L444.768 254.776ZM451.643 255.038L455.8 255.197L455.943 251.456L451.786 251.297L451.643 255.038Z" fill="white"/>
<g clip-path="url(#clip24)">
<path fill-rule="evenodd" clip-rule="evenodd" d="M487.068 259.707L490.228 259.828L493.427 265.41L496.334 263.813L500.358 263.967L497.443 279.617L478.365 278.889L476.652 263.062L480.676 263.216L483.452 265.029L487.068 259.707ZM488.528 262.895L484.278 269.152L480.028 266.376L481.069 275.99L494.968 276.521L496.739 267.014L492.29 269.457L488.528 262.895Z" fill="white"/>
</g>
<path d="M535.621 282.326L535.802 277.593L523.81 277.135L523.962 273.17L535.825 273.623L536.006 268.891L524.143 268.438L524.291 264.537L536.283 264.994L536.463 260.262L518.556 259.578L517.714 281.642L535.621 282.326ZM545.168 277.566L545.815 260.619L539.9 260.393L539.057 282.457L566.206 283.493L566.01 288.61L571.51 288.819L571.901 278.587L568.096 278.442L568.743 261.494L562.827 261.268L562.18 278.216L556.52 278L557.167 261.052L551.475 260.835L550.828 277.782L545.168 277.566ZM592.11 284.482L592.291 279.75L580.299 279.292L580.451 275.327L592.314 275.78L592.495 271.047L580.631 270.594L580.78 266.693L592.772 267.151L592.952 262.418L575.045 261.735L574.203 283.799L592.11 284.482ZM578.67 259.888L582.795 260.045L582.938 256.304L578.813 256.146L578.67 259.888ZM585.545 260.15L589.702 260.309L589.845 256.567L585.688 256.409L585.545 260.15Z" fill="white"/>
<g clip-path="url(#clip25)">
<path fill-rule="evenodd" clip-rule="evenodd" d="M630.215 264.421L611.337 263.701L610.965 273.443L618.512 273.732L620.834 270.522L620.966 267.07L625.505 267.244L612.306 284.753L616.707 284.921L630.112 267.14L630.215 264.421ZM614.22 266.813L617.968 266.956L617.871 269.5L617.022 270.672L614.077 270.56L614.22 266.813ZM633.392 275.801L625.844 275.513L623.523 278.722L623.277 285.172L633.02 285.544L633.392 275.801ZM626.486 279.744L627.334 278.572L630.279 278.684L630.136 282.431L626.389 282.288L626.486 279.744Z" fill="black"/>
</g>
<path d="M669.524 287.437L669.704 282.705L657.713 282.247L657.864 278.282L669.728 278.735L669.908 274.002L658.045 273.549L658.194 269.648L670.185 270.106L670.366 265.374L652.459 264.69L651.617 286.754L669.524 287.437ZM679.071 282.678L679.718 265.731L673.802 265.505L672.96 287.569L700.108 288.605L699.913 293.721L705.413 293.931L705.803 283.699L701.998 283.553L702.645 266.606L696.729 266.38L696.082 283.328L690.423 283.112L691.07 266.164L685.378 265.947L684.731 282.894L679.071 282.678ZM726.012 289.594L726.193 284.861L714.202 284.404L714.353 280.438L726.217 280.891L726.397 276.159L714.534 275.706L714.683 271.805L726.674 272.263L726.855 267.53L708.948 266.846L708.105 288.91L726.012 289.594ZM712.573 264.999L716.698 265.157L716.841 261.416L712.716 261.258L712.573 264.999ZM719.448 265.262L723.605 265.42L723.748 261.679L719.591 261.521L719.448 265.262Z" fill="white"/>
<g clip-path="url(#clip26)">
<path fill-rule="evenodd" clip-rule="evenodd" d="M754.873 269.931L758.033 270.051L761.232 275.633L764.139 274.037L768.163 274.191L765.247 289.841L746.17 289.113L744.457 273.286L748.481 273.439L751.257 275.252L754.873 269.931ZM756.333 273.119L752.083 279.375L747.833 276.599L748.874 286.214L762.773 286.744L764.544 277.237L760.094 279.681L756.333 273.119Z" fill="white"/>
</g>
<path d="M803.426 292.549L803.607 287.817L791.615 287.359L791.767 283.394L803.63 283.847L803.811 279.114L791.947 278.661L792.096 274.76L804.088 275.218L804.268 270.485L786.361 269.802L785.519 291.866L803.426 292.549ZM812.973 287.79L813.62 270.842L807.705 270.616L806.862 292.68L834.01 293.717L833.815 298.833L839.315 299.043L839.706 288.81L835.901 288.665L836.548 271.718L830.632 271.492L829.985 288.439L824.325 288.223L824.972 271.276L819.28 271.058L818.633 288.006L812.973 287.79ZM859.915 294.706L860.096 289.973L848.104 289.515L848.256 285.55L860.119 286.003L860.3 281.271L848.436 280.818L848.585 276.917L860.576 277.374L860.757 272.642L842.85 271.958L842.008 294.022L859.915 294.706ZM846.475 270.111L850.6 270.269L850.743 266.527L846.618 266.37L846.475 270.111ZM853.35 270.374L857.507 270.532L857.65 266.791L853.493 266.632L853.35 270.374Z" fill="white"/>
<g clip-path="url(#clip27)">
<path fill-rule="evenodd" clip-rule="evenodd" d="M898.02 274.645L879.142 273.924L878.77 283.667L886.317 283.955L888.639 280.745L888.77 277.294L893.31 277.467L880.111 294.976L884.512 295.144L897.917 277.363L898.02 274.645ZM882.025 277.036L885.773 277.179L885.676 279.723L884.827 280.896L881.882 280.784L882.025 277.036ZM901.196 286.024L893.649 285.736L891.328 288.946L891.082 295.395L900.825 295.767L901.196 286.024ZM894.291 289.968L895.139 288.795L898.084 288.908L897.941 292.655L894.194 292.512L894.291 289.968Z" fill="black"/>
</g>
<path d="M937.328 297.661L937.509 292.928L925.518 292.471L925.669 288.506L937.533 288.958L937.713 284.226L925.85 283.773L925.999 279.872L937.99 280.33L938.171 275.597L920.264 274.913L919.422 296.977L937.328 297.661ZM946.876 292.902L947.523 275.954L941.607 275.728L940.765 297.792L967.913 298.829L967.718 303.945L973.218 304.155L973.608 293.922L969.803 293.777L970.45 276.829L964.534 276.604L963.887 293.551L958.227 293.335L958.874 276.387L953.183 276.17L952.536 293.118L946.876 292.902ZM993.817 299.817L993.998 295.085L982.007 294.627L982.158 290.662L994.021 291.115L994.202 286.382L982.339 285.93L982.488 282.028L994.479 282.486L994.66 277.754L976.753 277.07L975.91 299.134L993.817 299.817ZM980.378 275.223L984.503 275.38L984.646 271.639L980.521 271.482L980.378 275.223ZM987.253 275.485L991.41 275.644L991.553 271.903L987.396 271.744L987.253 275.485Z" fill="white"/>
<g clip-path="url(#clip28)">
<path fill-rule="evenodd" clip-rule="evenodd" d="M1022.68 280.154L1025.84 280.275L1029.04 285.857L1031.94 284.261L1035.97 284.414L1033.05 300.064L1013.98 299.336L1012.26 283.509L1016.29 283.663L1019.06 285.476L1022.68 280.154ZM1024.14 283.342L1019.89 289.599L1015.64 286.823L1016.68 296.437L1030.58 296.968L1032.35 287.461L1027.9 289.905L1024.14 283.342Z" fill="white"/>
</g>
<path d="M1070.91 302.761L1071.09 298.028L1059.1 297.57L1059.25 293.605L1071.12 294.058L1071.3 289.325L1059.43 288.873L1059.58 284.971L1071.57 285.429L1071.75 280.697L1053.85 280.013L1053 302.077L1070.91 302.761ZM1080.46 298.001L1081.11 281.054L1075.19 280.828L1074.35 302.892L1101.5 303.928L1101.3 309.044L1106.8 309.254L1107.19 299.022L1103.39 298.877L1104.03 281.929L1098.12 281.703L1097.47 298.651L1091.81 298.435L1092.46 281.487L1086.77 281.27L1086.12 298.217L1080.46 298.001ZM1127.4 304.917L1127.58 300.184L1115.59 299.727L1115.74 295.762L1127.6 296.214L1127.78 291.482L1115.92 291.029L1116.07 287.128L1128.06 287.586L1128.24 282.853L1110.34 282.17L1109.49 304.233L1127.4 304.917ZM1113.96 280.322L1118.09 280.48L1118.23 276.739L1114.1 276.581L1113.96 280.322ZM1120.84 280.585L1124.99 280.744L1125.14 277.002L1120.98 276.844L1120.84 280.585Z" fill="white"/>
<g clip-path="url(#clip29)">
<path fill-rule="evenodd" clip-rule="evenodd" d="M1165.83 284.868L1146.95 284.148L1146.58 293.89L1154.12 294.179L1156.44 290.969L1156.58 287.517L1161.12 287.691L1147.92 305.2L1152.32 305.368L1165.72 287.587L1165.83 284.868ZM1149.83 287.26L1153.58 287.403L1153.48 289.947L1152.63 291.12L1149.69 291.007L1149.83 287.26ZM1169 296.248L1161.45 295.96L1159.13 299.169L1158.89 305.619L1168.63 305.991L1169 296.248ZM1162.1 300.191L1162.94 299.019L1165.89 299.131L1165.75 302.878L1162 302.735L1162.1 300.191Z" fill="black"/>
</g>
<path d="M1205.13 307.885L1205.31 303.152L1193.32 302.694L1193.47 298.729L1205.34 299.182L1205.52 294.449L1193.65 293.997L1193.8 290.095L1205.8 290.553L1205.98 285.821L1188.07 285.137L1187.23 307.201L1205.13 307.885ZM1214.68 303.125L1215.33 286.178L1209.41 285.952L1208.57 308.016L1235.72 309.052L1235.52 314.168L1241.02 314.378L1241.41 304.146L1237.61 304.001L1238.25 287.053L1232.34 286.827L1231.69 303.775L1226.03 303.559L1226.68 286.611L1220.99 286.394L1220.34 303.341L1214.68 303.125ZM1261.62 310.041L1261.8 305.309L1249.81 304.851L1249.96 300.886L1261.83 301.339L1262.01 296.606L1250.14 296.153L1250.29 292.252L1262.28 292.71L1262.46 287.977L1244.56 287.294L1243.72 309.357L1261.62 310.041ZM1248.18 285.446L1252.31 285.604L1252.45 281.863L1248.33 281.705L1248.18 285.446ZM1255.06 285.709L1259.21 285.868L1259.36 282.126L1255.2 281.968L1255.06 285.709Z" fill="white"/>
<g clip-path="url(#clip30)">
<path fill-rule="evenodd" clip-rule="evenodd" d="M1290.48 290.378L1293.64 290.498L1296.84 296.08L1299.75 294.484L1303.77 294.638L1300.86 310.288L1281.78 309.56L1280.07 293.733L1284.09 293.886L1286.87 295.7L1290.48 290.378ZM1291.94 293.566L1287.69 299.822L1283.44 297.046L1284.48 306.661L1298.38 307.191L1300.15 297.684L1295.7 300.128L1291.94 293.566Z" fill="white"/>
</g>
<path d="M1339.04 312.996L1339.22 308.264L1327.23 307.806L1327.38 303.841L1339.24 304.294L1339.42 299.561L1327.56 299.108L1327.71 295.207L1339.7 295.665L1339.88 290.932L1321.97 290.249L1321.13 312.313L1339.04 312.996ZM1348.58 308.237L1349.23 291.289L1343.31 291.064L1342.47 313.127L1369.62 314.164L1369.43 319.28L1374.93 319.49L1375.32 309.258L1371.51 309.112L1372.16 292.165L1366.24 291.939L1365.59 308.886L1359.93 308.67L1360.58 291.723L1354.89 291.505L1354.24 308.453L1348.58 308.237ZM1395.52 315.153L1395.71 310.42L1383.71 309.962L1383.87 305.997L1395.73 306.45L1395.91 301.718L1384.05 301.265L1384.2 297.364L1396.19 297.821L1396.37 293.089L1378.46 292.405L1377.62 314.469L1395.52 315.153ZM1382.09 290.558L1386.21 290.716L1386.35 286.974L1382.23 286.817L1382.09 290.558ZM1388.96 290.821L1393.12 290.979L1393.26 287.238L1389.1 287.079L1388.96 290.821Z" fill="white"/>
<g clip-path="url(#clip31)">
<path fill-rule="evenodd" clip-rule="evenodd" d="M1433.63 295.092L1414.75 294.371L1414.38 304.114L1421.93 304.402L1424.25 301.192L1424.38 297.741L1428.92 297.914L1415.72 315.423L1420.12 315.591L1433.53 297.81L1433.63 295.092ZM1417.64 297.483L1421.38 297.626L1421.29 300.17L1420.44 301.343L1417.49 301.231L1417.64 297.483ZM1436.81 306.471L1429.26 306.183L1426.94 309.393L1426.69 315.842L1436.43 316.214L1436.81 306.471ZM1429.9 310.415L1430.75 309.242L1433.69 309.355L1433.55 313.102L1429.8 312.959L1429.9 310.415Z" fill="black"/>
</g>
<defs>
<linearGradient id="paint0_linear" x1="0" y1="0" x2="1869" y2="5.32536e-07" gradientUnits="userSpaceOnUse">
<stop stop-color="#54ACFC"/>
<stop offset="1" stop-color="#AD89F3"/>
</linearGradient>
<linearGradient id="paint1_linear" x1="0" y1="0" x2="1869" y2="5.32536e-07" gradientUnits="userSpaceOnUse">
<stop stop-color="#AD89F3"/>
<stop offset="1" stop-color="#54ACFC"/>
</linearGradient>
<linearGradient id="paint2_linear" x1="0" y1="0" x2="1869" y2="5.32536e-07" gradientUnits="userSpaceOnUse">
<stop offset="0.291667" stop-color="#AD89F3"/>
<stop offset="1" stop-color="#54ACFC"/>
</linearGradient>
<clipPath id="clip0">
<rect width="24" height="24" fill="white" transform="translate(-8.4917 355.299) rotate(-5.92426)"/>
</clipPath>
<clipPath id="clip1">
<rect width="24" height="24" fill="white" transform="translate(124.793 341.469) rotate(-5.92426)"/>
</clipPath>
<clipPath id="clip2">
<rect width="24" height="24" fill="white" transform="translate(258.077 327.638) rotate(-5.92426)"/>
</clipPath>
<clipPath id="clip3">
<rect width="24" height="24" fill="white" transform="translate(391.361 313.807) rotate(-5.92426)"/>
</clipPath>
<clipPath id="clip4">
<rect width="24" height="24" fill="white" transform="translate(524.646 299.977) rotate(-5.92426)"/>
</clipPath>
<clipPath id="clip5">
<rect width="24" height="24" fill="white" transform="translate(657.93 286.146) rotate(-5.92426)"/>
</clipPath>
<clipPath id="clip6">
<rect width="24" height="24" fill="white" transform="translate(791.214 272.315) rotate(-5.92426)"/>
</clipPath>
<clipPath id="clip7">
<rect width="24" height="24" fill="white" transform="translate(924.499 258.485) rotate(-5.92426)"/>
</clipPath>
<clipPath id="clip8">
<rect width="24" height="24" fill="white" transform="translate(1057.78 244.654) rotate(-5.92426)"/>
</clipPath>
<clipPath id="clip9">
<rect width="24" height="24" fill="white" transform="translate(1191.07 230.824) rotate(-5.92426)"/>
</clipPath>
<clipPath id="clip10">
<rect width="24" height="24" fill="white" transform="translate(1324.35 216.993) rotate(-5.92426)"/>
</clipPath>
<clipPath id="clip11">
<rect width="24" height="24" fill="white" transform="translate(-27.8118 389.61) rotate(-13.3685)"/>
</clipPath>
<clipPath id="clip12">
<rect width="24" height="24" fill="white" transform="translate(102.557 358.627) rotate(-13.3685)"/>
</clipPath>
<clipPath id="clip13">
<rect width="24" height="24" fill="white" transform="translate(232.926 327.645) rotate(-13.3685)"/>
</clipPath>
<clipPath id="clip14">
<rect width="24" height="24" fill="white" transform="translate(363.295 296.663) rotate(-13.3685)"/>
</clipPath>
<clipPath id="clip15">
<rect width="24" height="24" fill="white" transform="translate(493.665 265.68) rotate(-13.3685)"/>
</clipPath>
<clipPath id="clip16">
<rect width="24" height="24" fill="white" transform="translate(624.034 234.698) rotate(-13.3685)"/>
</clipPath>
<clipPath id="clip17">
<rect width="24" height="24" fill="white" transform="translate(754.403 203.715) rotate(-13.3685)"/>
</clipPath>
<clipPath id="clip18">
<rect width="24" height="24" fill="white" transform="translate(884.772 172.733) rotate(-13.3685)"/>
</clipPath>
<clipPath id="clip19">
<rect width="24" height="24" fill="white" transform="translate(1015.14 141.75) rotate(-13.3685)"/>
</clipPath>
<clipPath id="clip20">
<rect width="24" height="24" fill="white" transform="translate(1145.51 110.768) rotate(-13.3685)"/>
</clipPath>
<clipPath id="clip21">
<rect width="24" height="24" fill="white" transform="translate(1275.88 79.7853) rotate(-13.3685)"/>
</clipPath>
<clipPath id="clip22">
<rect width="24" height="24" fill="white" transform="translate(1406.25 48.8029) rotate(-13.3685)"/>
</clipPath>
<clipPath id="clip23">
<rect width="24" height="24" fill="white" transform="translate(208.938 246.838) rotate(2.18623)"/>
</clipPath>
<clipPath id="clip24">
<rect width="24" height="24" fill="white" transform="translate(476.742 257.061) rotate(2.18623)"/>
</clipPath>
<clipPath id="clip25">
<rect width="24" height="24" fill="white" transform="translate(610.645 262.173) rotate(2.18623)"/>
</clipPath>
<clipPath id="clip26">
<rect width="24" height="24" fill="white" transform="translate(744.547 267.285) rotate(2.18623)"/>
</clipPath>
<clipPath id="clip27">
<rect width="24" height="24" fill="white" transform="translate(878.45 272.397) rotate(2.18623)"/>
</clipPath>
<clipPath id="clip28">
<rect width="24" height="24" fill="white" transform="translate(1012.35 277.508) rotate(2.18623)"/>
</clipPath>
<clipPath id="clip29">
<rect width="24" height="24" fill="white" transform="translate(1146.25 282.62) rotate(2.18623)"/>
</clipPath>
<clipPath id="clip30">
<rect width="24" height="24" fill="white" transform="translate(1280.16 287.732) rotate(2.18623)"/>
</clipPath>
<clipPath id="clip31">
<rect width="24" height="24" fill="white" transform="translate(1414.06 292.844) rotate(2.18623)"/>
</clipPath>
</defs>
</svg>
