<svg viewBox="0 0 24 24" fill="none" xmlns="http://www.w3.org/2000/svg">
<path fill-rule="evenodd" clip-rule="evenodd" d="M11.795 9.28218C11.795 9.53865 11.824 9.78913 11.88 10.0296C10.5742 9.964 9.29693 9.62477 8.13121 9.034C6.96548 8.44324 5.93745 7.61417 5.114 6.60075C4.82187 7.10157 4.6683 7.67084 4.669 8.25033C4.669 9.38896 5.249 10.3939 6.129 10.9827C5.60813 10.9655 5.09893 10.8242 4.644 10.5705V10.6124C4.64394 11.3694 4.906 12.1031 5.38582 12.6894C5.86563 13.2757 6.53373 13.6786 7.277 13.8297C6.79349 13.9614 6.28621 13.9808 5.794 13.8866C6.00311 14.5383 6.41122 15.1084 6.96118 15.5171C7.51114 15.9258 8.17542 16.1527 8.861 16.1659C8.18033 16.7007 7.40052 17.096 6.56633 17.3293C5.73215 17.5625 4.86002 17.629 4 17.5251C5.50031 18.4894 7.24744 19.0015 9.032 19C15.07 19 18.372 13.9994 18.372 9.66239C18.372 9.51969 18.368 9.37898 18.362 9.23827C19.0049 8.77342 19.5595 8.19793 20 7.5388C19.4011 7.80421 18.7657 7.97846 18.115 8.05573C18.8008 7.64504 19.3137 6.99954 19.558 6.2395C18.9137 6.62215 18.2085 6.89183 17.473 7.03685C17.1663 6.70926 16.7952 6.44815 16.383 6.26978C15.9708 6.09141 15.5263 5.99958 15.077 6C14.2057 6.00106 13.3704 6.34742 12.755 6.96292C12.1395 7.57842 11.7942 8.41266 11.795 9.28218Z" fill="white"/>
</svg>
