<svg viewBox="0 0 24 24" fill="none" xmlns="http://www.w3.org/2000/svg">
<path fill-rule="evenodd" clip-rule="evenodd" d="M14.7629 3H9.23711C4.19407 3 3 4.19407 3 9.23711V14.7629C3 19.8059 4.19407 21 9.23711 21H14.7629C19.8059 21 21 19.8059 21 14.7629V9.23711C21 4.19407 19.7932 3 14.7629 3ZM17.5321 15.8426H16.2237C15.7283 15.8426 15.5758 15.4488 14.6866 14.5469C13.9118 13.7974 13.5688 13.6958 13.3782 13.6958C13.1115 13.6958 13.0353 13.772 13.0353 14.1404V15.3218C13.0353 15.6393 12.9336 15.8299 12.0953 15.8299C10.7106 15.8299 9.17359 14.9915 8.09385 13.4291C6.46788 11.1425 6.02328 9.42765 6.02328 9.07197C6.02328 8.88143 6.0995 8.70359 6.46788 8.70359H7.77628C8.10655 8.70359 8.23358 8.85602 8.36061 9.2117C9.00845 11.079 10.0882 12.7177 10.5328 12.7177C10.6979 12.7177 10.7742 12.6415 10.7742 12.2223V10.2914C10.7233 9.40224 10.2533 9.32603 10.2533 9.00845C10.2533 8.85602 10.3804 8.70359 10.5836 8.70359H12.6415C12.9209 8.70359 13.0226 8.85602 13.0226 9.18629V11.7904C13.0226 12.0698 13.1496 12.1715 13.2258 12.1715C13.3909 12.1715 13.5307 12.0698 13.8355 11.765C14.7756 10.7106 15.4488 9.08467 15.4488 9.08467C15.5377 8.89413 15.6902 8.71629 16.0204 8.71629H17.3288C17.7226 8.71629 17.8115 8.91953 17.7226 9.199C17.5575 9.96117 15.9569 12.2223 15.9569 12.2223C15.8172 12.4509 15.7664 12.5526 15.9569 12.8066C16.0967 12.9972 16.554 13.3909 16.8588 13.7466C17.4178 14.3818 17.8496 14.9153 17.964 15.2837C18.091 15.6521 17.9005 15.8426 17.5321 15.8426Z" fill="#2787F5"/>
</svg>
