<svg width="123" height="36" viewBox="0 0 123 36" fill="none" xmlns="http://www.w3.org/2000/svg">
<path d="M48.2473 10.1696C48.2473 9.66062 48.4443 9.17251 48.7949 8.81262C49.1456 8.45274 49.6212 8.25055 50.1171 8.25055C50.613 8.25055 51.0885 8.45274 51.4391 8.81262C51.7898 9.17251 51.9868 9.66062 51.9868 10.1696C51.9687 10.6661 51.7638 11.1362 51.4151 11.4809C51.0665 11.8257 50.6012 12.0183 50.1171 12.0183C49.6329 12.0183 49.1676 11.8257 48.8189 11.4809C48.4703 11.1362 48.2654 10.6661 48.2473 10.1696Z" fill="white"/>
<path d="M77.7505 22.9677C77.7505 21.9027 78.5864 21.0434 79.6163 21.0434C79.9875 21.0415 80.3508 21.1528 80.6604 21.3631C80.9699 21.5735 81.2116 21.8734 81.3549 22.2248C81.4982 22.5763 81.5367 22.9635 81.4654 23.3374C81.3941 23.7113 81.2162 24.0551 80.9544 24.3251C80.6926 24.5952 80.3585 24.7794 79.9946 24.8544C79.6306 24.9294 79.2532 24.8919 78.91 24.7465C78.5669 24.6011 78.2735 24.3545 78.0671 24.0378C77.8607 23.7212 77.7505 23.3487 77.7505 22.9677Z" fill="#499FDD"/>
<path d="M17.576 22.1361C15.9667 22.1361 14.8469 20.8238 14.8469 18.9475C14.8469 17.0712 15.9666 15.7616 17.5773 15.7616C19.1957 15.7616 20.3272 17.0712 20.3272 18.9475C20.3272 20.8532 19.2205 22.1361 17.576 22.1361ZM17.576 12.9592C14.1699 12.9592 11.6973 15.4783 11.6973 18.9462C11.6973 22.414 14.1712 24.9331 17.576 24.9331C20.9964 24.9331 23.4781 22.4154 23.4781 18.9462C23.4781 15.477 20.9964 12.9566 17.5773 12.9566L17.576 12.9592ZM44.6401 19.2455C44.5216 19.0102 44.3717 18.793 44.1948 18.6L44.0907 18.4891L44.2 18.3822C44.3719 18.1951 44.5286 17.994 44.6688 17.7809L47.6634 13.1944H44.0126L41.7535 16.7826C41.6259 16.975 41.3681 17.0712 40.9814 17.0712H40.4671V10.2878C40.4671 8.93142 39.6429 8.747 38.7536 8.747H37.2302L37.2342 24.7567H40.4684V19.9538H40.7718C41.1403 19.9538 41.3903 19.9979 41.5062 20.2037L43.2899 23.6595C43.7886 24.5977 44.2847 24.7554 45.2196 24.7554H47.6973L45.851 21.6229L44.6271 19.2442L44.6401 19.2455ZM60.3258 12.9285C58.68 12.9285 57.6305 13.6795 57.042 14.3143L56.8467 14.5174L56.7764 14.2408C56.6045 13.5593 56.0212 13.1878 55.145 13.1878H53.6958L53.7049 24.7514H56.9171V19.4219C56.9171 18.9007 56.9822 18.449 57.1176 18.0361C57.4743 16.7866 58.4717 16.0102 59.7178 16.0102C60.7203 16.0102 61.1109 16.5541 61.1109 17.9573V22.9954C61.1109 24.1928 61.6512 24.7527 62.8192 24.7527H64.3478L64.3426 17.3973C64.3426 14.476 62.9532 12.9312 60.3244 12.9312L60.3258 12.9285ZM50.1686 13.1931H48.6452L48.6556 24.7567H50.2793L50.3366 24.7594L51.0943 24.7567H51.8469V24.7527H51.8521L51.8587 14.9504C51.8587 13.7677 51.3078 13.1944 50.1686 13.1944V13.1931ZM30.1888 22.1347C28.5795 22.1347 27.4585 20.8224 27.4585 18.9462C27.4585 17.0699 28.5782 15.7603 30.1901 15.7603C31.802 15.7603 32.94 17.0699 32.94 18.9462C32.94 20.8518 31.8333 22.1347 30.1901 22.1347H30.1888ZM30.1888 12.9579C26.7801 12.9579 24.3062 15.477 24.3062 18.9448C24.3062 22.4127 26.7801 24.9318 30.1915 24.9318C33.6028 24.9318 36.0935 22.4141 36.0935 18.9448C36.0935 15.4756 33.6197 12.9552 30.1915 12.9552" fill="white"/>
<path d="M99.0251 22.1361C97.4157 22.1361 96.2934 20.8238 96.2934 18.9475C96.2934 17.0712 97.4157 15.7616 99.0251 15.7616C100.642 15.7616 101.776 17.0712 101.776 18.9475C101.776 20.8532 100.67 22.1361 99.0251 22.1361ZM99.0251 12.9592C95.6163 12.9592 93.1438 15.4783 93.1438 18.9462C93.1438 22.4141 95.6176 24.9331 99.0251 24.9331C102.442 24.9331 104.927 22.4154 104.927 18.9462C104.927 15.477 102.453 12.9566 99.0251 12.9566" fill="#499FDD"/>
<path d="M71.1181 21.626C69.3604 21.626 68.7354 20.0544 68.7354 18.5791C68.7354 17.9296 68.8955 15.8128 70.9488 15.8128C71.9683 15.8128 73.3264 16.1122 73.3264 18.686C73.3264 21.1142 72.1245 21.6233 71.1168 21.6233L71.1181 21.626ZM74.9955 13.1641C74.3862 13.1641 73.9175 13.414 73.6935 13.8697L73.605 14.0461L73.4566 13.9125C72.9384 13.4528 72.0087 12.9062 70.501 12.9062C67.4971 12.9062 65.4751 15.2221 65.4751 18.666C65.4751 22.1098 67.5674 24.5139 70.5608 24.5139C71.5829 24.5139 72.3915 24.268 73.0321 23.7709L73.2925 23.5798V23.9005C73.2925 25.4454 72.3199 26.298 70.5556 26.298C69.8177 26.2889 69.0868 26.1506 68.3943 25.889C67.7146 25.6779 67.3135 25.853 67.0401 26.5545L66.7849 27.2013L66.4243 28.1475L66.6456 28.2678C67.7758 28.8825 69.2457 29.25 70.5738 29.25C73.3081 29.25 76.5033 27.8134 76.5033 23.7709L76.5164 13.1641H74.9955Z" fill="white"/>
<path d="M5.60399 22.0029L2.9895 22.0003V18.793C2.9895 18.1061 3.24991 17.7506 3.8202 17.6677H5.60399C6.87608 17.6677 7.6873 18.4909 7.6873 19.8233C7.686 21.1917 6.88389 22.0016 5.60399 22.0016V22.0029ZM2.9895 13.3486V12.504C2.9895 11.765 3.29419 11.4135 3.96214 11.3681H5.30065C6.44645 11.3681 7.12346 12.0724 7.12346 13.2524C7.12346 14.1504 6.6521 15.1995 5.33053 15.1995H2.97782L2.9895 13.3486ZM8.94245 16.5505L8.46976 16.2779L8.88253 15.9171C9.36428 15.4935 10.1664 14.5406 10.1664 12.8969C10.1664 10.3792 8.26535 8.75416 5.32275 8.75416H1.58074C1.15968 8.76992 0.760606 8.95135 0.46633 9.26085C0.172055 9.57035 0.00507061 9.98419 0 10.4166V24.7024H5.39045C8.66247 24.7024 10.7744 22.8742 10.7744 20.0425C10.7744 18.519 10.0921 17.2147 8.94499 16.5519" fill="white"/>
<path d="M119.272 12.9704C118.609 12.973 117.955 13.1283 117.358 13.4251C116.761 13.7219 116.237 14.1524 115.824 14.685L115.593 14.987L115.41 14.6489C114.814 13.5357 113.791 12.9704 112.367 12.9704C110.874 12.9704 109.873 13.8257 109.408 14.3335L109.103 14.6716L108.973 14.2266C108.804 13.5852 108.248 13.2337 107.407 13.2337H106.056L106.043 24.7532H109.11V19.6683C109.111 19.2143 109.166 18.762 109.272 18.3213C109.565 17.0918 110.37 15.7688 111.723 15.9024C112.556 15.9853 112.965 16.6468 112.965 17.9244V24.7532H116.053V19.6683C116.042 19.1983 116.1 18.7291 116.227 18.2772C116.487 17.1038 117.315 15.9011 118.62 15.9011C119.565 15.9011 119.914 16.449 119.914 17.9244V23.0694C119.914 24.232 120.419 24.7532 121.555 24.7532H122.997L123 17.3992C123 14.4592 121.74 12.9704 119.26 12.9704H119.272ZM91.3525 20.7535C91.3434 20.7668 90.0245 22.1927 88.2863 22.1927C86.703 22.1927 85.1041 21.1958 85.1041 18.9721C85.1041 17.0504 86.3436 15.7073 88.1196 15.7073C88.6951 15.7073 89.3513 15.9185 89.4542 16.2753L89.4672 16.3354C89.5328 16.5811 89.6755 16.7976 89.8733 16.9515C90.071 17.1055 90.3128 17.1881 90.5609 17.1867L92.2536 17.1894V15.6819C92.2536 13.6934 89.7888 12.9718 88.1313 12.9718C84.5846 12.9718 82.0117 15.5055 82.0117 18.9961C82.0117 22.4867 84.5559 25.0151 88.0662 25.0151C91.1104 25.0151 92.7536 22.9611 92.7822 22.9411L92.8707 22.8288L91.54 20.5637L91.3642 20.7548" fill="#499FDD"/>
</svg>
