<svg width="300" height="32" viewBox="0 0 300 32" fill="none" xmlns="http://www.w3.org/2000/svg">
<path d="M277.923 6.6918H286.452V2.97705H277.923V6.6918ZM291.148 6.6918H299.678V2.97705H291.155L291.148 6.6918ZM246.757 31.7647H276.034V17.836L270.177 21.1787L276.078 8.54811H271.93L260.91 19.7854L264.047 8.54811H259.89L250.907 20.2505V8.54811H246.757V26.1937H250.907L257.776 17.1426L255.102 26.1979H259.26L267.513 17.7007L263.455 26.1979H267.605L271.892 23.7369V28.0542H246.757V31.7647ZM299.684 31.7647V28.05L284.7 22.3859L299.684 20.1575V16.4427L288.388 12.2629H299.684V8.54811H277.923V12.2629L292.721 17.7895L277.923 19.9714V23.6968L289.402 28.0606H277.923V31.7753L299.684 31.7647ZM244.914 31.7647V28.05L229.929 22.3859L244.914 20.1575V16.4427L233.341 12.2629H244.914V8.54811H223.153V12.2629L237.953 17.7895L223.153 19.9714V23.6968L234.955 28.0606H223.153V31.7753L244.914 31.7647Z" fill="url(#paint0_linear)"/>
<path d="M157.555 5.08279C156.442 6.18833 154.777 6.66695 152.585 6.66695C150.4 6.66695 148.689 6.18833 147.61 5.08279C146.497 4.0177 145.99 2.37961 145.99 0.269644V0H149.548V0.269644C149.548 1.40215 149.795 2.13019 150.211 2.52791L150.224 2.54139C150.647 2.97957 151.428 3.19528 152.579 3.19528C153.73 3.19528 154.472 2.97957 154.894 2.54139L154.907 2.52791C155.337 2.13019 155.616 1.39541 155.616 0.269644V0H159.174V0.269644C159.174 2.38635 158.621 4.02444 157.555 5.08279Z" fill="white"/>
<path fill-rule="evenodd" clip-rule="evenodd" d="M134.315 26.3779C134.659 25.8993 134.894 25.2993 135.056 24.5039L135.108 24.2814H139.245L139.199 24.5915C138.991 25.9532 138.608 27.1194 137.996 28.0632C137.398 29.0406 136.663 29.8091 135.752 30.3889C134.848 30.9686 133.82 31.3663 132.676 31.6292C131.485 31.8921 130.217 31.9798 128.832 31.9798C127.108 31.9798 125.586 31.8045 124.227 31.4068C122.861 31.0562 121.657 30.3889 120.708 29.4923C119.758 28.589 119.03 27.3823 118.516 25.8858C118.002 24.423 117.748 22.5827 117.748 20.4053C117.748 18.1807 117.995 16.2932 118.509 14.79C119.017 13.2934 119.745 12.0463 120.695 11.1026L120.701 11.0958C121.644 10.206 122.809 9.53864 124.174 9.14091H124.181C125.534 8.79037 127.056 8.57466 128.741 8.57466C131.947 8.57466 134.51 9.41055 136.403 11.1026C138.263 12.8148 139.193 15.3967 139.193 18.8144V21.976H121.917C121.943 23.2163 122.139 24.2477 122.438 25.0162C122.757 25.8386 123.231 26.4925 123.817 26.9779C124.402 27.47 125.111 27.7935 125.95 27.9621C126.809 28.1306 127.752 28.2182 128.819 28.2182C129.645 28.2182 130.38 28.1778 131.108 28.0497H131.121C131.791 27.9621 132.389 27.7598 132.949 27.47L132.955 27.4632H132.962C133.495 27.2273 133.918 26.87 134.315 26.3779ZM123.979 13.5563C123.394 14.0012 122.919 14.6147 122.561 15.4371C122.23 16.1988 122.028 17.1561 121.963 18.383H134.959C134.939 17.237 134.777 16.3202 134.484 15.5584C134.165 14.7293 133.768 14.1226 133.229 13.6372C132.682 13.1856 132.051 12.862 131.297 12.653C130.523 12.4845 129.664 12.3564 128.734 12.3564C127.752 12.3564 126.893 12.444 126.08 12.6126C125.287 12.7744 124.571 13.1047 123.979 13.5563Z" fill="white"/>
<path d="M168.514 24.0522C168.593 23.1556 168.677 22.0029 168.677 20.5468V9.23527H186.096V31.3461H181.913V13.0103H172.736V21.0659C172.736 24.5376 172.235 27.1396 171.285 28.7979C170.31 30.5371 168.716 31.3461 166.563 31.3461H165.64V27.3554H165.9C166.42 27.3554 166.83 27.2677 167.149 27.0857L167.162 27.079L167.168 27.0722C167.467 26.9374 167.767 26.6071 168.001 26.1217C168.228 25.6431 168.391 24.9892 168.514 24.0522Z" fill="white"/>
<path d="M111.029 23.9916C110.867 24.8679 110.587 25.5623 110.242 26.0881C109.845 26.661 109.416 27.0655 108.909 27.3891C108.356 27.7127 107.764 27.9216 107.081 28.043C106.353 28.1711 105.618 28.2115 104.792 28.2115C103.679 28.2115 102.704 28.1239 101.852 27.9149C100.973 27.7059 100.271 27.3419 99.7312 26.7824L99.7247 26.7756C99.1393 26.2094 98.7035 25.4342 98.3783 24.4297C98.0596 23.4321 97.8904 22.0838 97.8904 20.4188C97.8904 18.7133 98.0531 17.3583 98.3783 16.273C98.7035 15.2214 99.1393 14.4057 99.7247 13.8462L99.7312 13.8395C100.271 13.28 100.973 12.9092 101.852 12.707C102.704 12.498 103.686 12.3699 104.792 12.3699C105.559 12.3699 106.294 12.4508 106.958 12.5384C107.595 12.6665 108.187 12.8688 108.74 13.1923C109.247 13.5159 109.683 13.9271 110.08 14.4597C110.431 14.9855 110.711 15.6394 110.867 16.4685L110.906 16.6842H115.094L115.036 16.3674C114.782 14.9248 114.398 13.6777 113.794 12.6867C113.195 11.7093 112.46 10.9071 111.602 10.2802L111.595 10.2734C110.737 9.6937 109.702 9.24879 108.558 8.98589C107.374 8.72298 106.144 8.5949 104.798 8.5949C103.068 8.5949 101.552 8.81062 100.199 9.16115H100.193C98.8271 9.55888 97.6238 10.2262 96.6741 11.1161L96.6676 11.1228C95.718 12.0666 94.9895 13.3137 94.4822 14.8102C93.9683 16.3135 93.7212 18.201 93.7212 20.4255C93.7212 22.6029 93.9748 24.4432 94.4822 25.906C94.9895 27.4026 95.7245 28.6092 96.6741 29.5125C97.6238 30.4091 98.8271 31.0765 100.193 31.427C101.552 31.8247 103.074 32 104.798 32C106.19 32 107.458 31.8719 108.642 31.609C109.793 31.3461 110.821 30.9012 111.725 30.2743C112.636 29.6474 113.364 28.8452 113.969 27.8205C114.574 26.8296 114.958 25.5825 115.173 24.0927L115.218 23.7826H111.081L111.029 23.9916Z" fill="white"/>
<path d="M206.402 23.9916L206.441 23.7691V23.7826H210.591L210.546 24.0927C210.331 25.5825 209.947 26.8296 209.342 27.8205C208.737 28.8452 208.009 29.6474 207.098 30.2743C206.194 30.9012 205.167 31.3461 204.015 31.609C202.831 31.8719 201.563 32 200.171 32C198.448 32 196.926 31.8247 195.566 31.427C194.2 31.0765 192.997 30.4091 192.047 29.5125C191.098 28.6092 190.369 27.4026 189.855 25.906C189.348 24.4432 189.094 22.6029 189.094 20.4255C189.094 18.201 189.341 16.3135 189.855 14.8102C190.363 13.3137 191.091 12.0666 192.041 11.1228L192.047 11.1161C192.997 10.2262 194.2 9.55888 195.566 9.16115H195.573C196.926 8.81062 198.441 8.5949 200.171 8.5949C201.518 8.5949 202.747 8.72298 203.931 8.98589C205.082 9.24879 206.11 9.6937 206.968 10.2734L206.975 10.2802C207.833 10.9071 208.568 11.7093 209.167 12.6867C209.772 13.6777 210.155 14.9248 210.409 16.3674L210.468 16.6842H206.279L206.24 16.4685C206.084 15.6394 205.804 14.9855 205.453 14.4597C205.056 13.9271 204.62 13.5159 204.113 13.1923C203.56 12.8688 202.968 12.6665 202.331 12.5384C201.667 12.4508 200.932 12.3699 200.165 12.3699C199.059 12.3699 198.077 12.498 197.225 12.707C196.347 12.9092 195.644 13.28 195.104 13.8395L195.098 13.8462C194.512 14.4057 194.077 15.2214 193.751 16.273C193.426 17.3583 193.264 18.7133 193.264 20.4188C193.264 22.0838 193.433 23.4321 193.751 24.4297C194.077 25.4342 194.512 26.2094 195.098 26.7756L195.104 26.7824C195.644 27.3419 196.347 27.7059 197.225 27.9149C198.077 28.1239 199.052 28.2115 200.165 28.2115C200.991 28.2115 201.726 28.1711 202.454 28.043C203.137 27.9216 203.729 27.7127 204.282 27.3891C204.789 27.0655 205.219 26.661 205.615 26.0881C205.96 25.5623 206.24 24.8679 206.402 23.9916Z" fill="white"/>
<path fill-rule="evenodd" clip-rule="evenodd" d="M87.5224 10.4487C85.7988 9.19485 83.4052 8.58815 80.4197 8.58815C78.9887 8.58815 77.6814 8.71624 76.5756 8.98588C75.4244 9.24878 74.4357 9.69369 73.6161 10.2802L73.6096 10.2869C72.7836 10.9206 72.1332 11.7228 71.6193 12.707C71.099 13.6979 70.7607 14.9383 70.5916 16.3876L70.5591 16.691H74.6178L74.6503 16.4618C74.7739 15.6191 74.969 14.9652 75.2812 14.4462L75.2943 14.4327C75.5674 13.9069 75.9122 13.5092 76.374 13.1923C76.8358 12.8755 77.3822 12.6665 78.0586 12.5452C78.7156 12.4575 79.5351 12.3767 80.4327 12.3767C82.4946 12.3767 83.88 12.7609 84.7321 13.4013C85.5581 14.0215 86.0004 15.0866 86.0004 16.6775V18.201C85.5165 18.195 85.0734 18.1626 84.653 18.1318L84.4914 18.1201H84.4654C83.9385 18.1201 83.4052 18.0796 82.8653 18.0324H82.8393C82.5596 18.0324 82.2864 18.0257 81.9937 18.0122H81.9677C81.6685 17.9987 81.3498 17.992 81.0116 17.992C80.6994 17.992 80.3807 17.9852 80.0359 17.9718H79.9774C79.6132 17.9583 79.2229 17.9515 78.8066 17.9515C76.9984 17.9515 75.5089 18.1673 74.3511 18.5717H74.3446C73.1999 19.0099 72.2893 19.5424 71.6323 20.23C70.9364 20.9109 70.4941 21.6794 70.2339 22.495C69.9737 23.304 69.8892 24.1129 69.8892 24.8679C69.8892 26.1352 70.0583 27.261 70.4941 28.1778C70.8843 29.0744 71.4502 29.8428 72.1982 30.3889C72.9007 30.9753 73.7657 31.3798 74.7479 31.6427C75.7366 31.9124 76.8033 32 77.9741 32C79.7497 32 81.3758 31.6899 82.8328 30.9821C84.2442 30.2945 85.3044 29.2227 86.0004 27.7868V31.3528H90.1827V16.664C90.1762 13.8395 89.2786 11.716 87.5224 10.4487ZM85.9939 23.5129C85.9159 24.5174 85.6687 25.3263 85.2915 25.9195C84.8947 26.533 84.3873 27.0183 83.7694 27.3351C83.1255 27.6655 82.4035 27.9149 81.597 28.043C80.7774 28.171 80.0034 28.2115 79.1774 28.2115C77.3561 28.2115 76.0423 27.9553 75.2292 27.47C74.4682 27.0183 74.0714 26.1824 74.0714 24.814C74.0714 24.3556 74.1105 23.9174 74.2601 23.5332L74.2731 23.5062C74.3772 23.1354 74.6308 22.7512 75.0536 22.4411L75.0666 22.4276C75.4374 22.1243 76.0488 21.8749 76.8748 21.6591C77.6879 21.4906 78.8326 21.3625 80.2311 21.3625C80.6278 21.3625 81.0376 21.3693 81.4734 21.3828H81.5319C81.9872 21.3962 82.4686 21.403 82.9694 21.403C83.8995 21.4434 84.9272 21.4839 86.0004 21.5243V23.5129H85.9939Z" fill="white"/>
<path fill-rule="evenodd" clip-rule="evenodd" d="M38.7528 20.1761C40.2553 20.3716 41.4781 20.803 42.3692 21.5513C43.2733 22.3939 43.7482 23.641 43.7417 25.3398C43.7417 26.2026 43.566 26.9644 43.3059 27.6789C43.0392 28.4137 42.5969 29.0541 41.9855 29.6001C41.3806 30.1394 40.6456 30.5911 39.7805 30.9012H39.774C38.8634 31.218 37.8357 31.3461 36.6519 31.3461H24.4888V9.23527H35.7413C37.0942 9.23527 38.252 9.41054 39.1951 9.72063H39.2081C40.1447 10.0712 40.8862 10.4756 41.4977 11.0217C42.1026 11.5677 42.5514 12.1609 42.818 12.8552C43.0782 13.5294 43.2083 14.2102 43.2083 14.9382C43.2083 16.5359 42.779 17.8234 41.966 18.6661L41.9595 18.6728C41.1659 19.4548 40.0992 19.9401 38.7528 20.1019V20.1761ZM35.4551 13.0103H28.6776V18.3762H36.2096C37.3414 18.3762 38.0764 18.0863 38.4601 17.5808C38.8439 17.0212 39.0715 16.3876 39.0715 15.5854C39.0715 15.1877 39 14.8304 38.9154 14.4866C38.8504 14.2237 38.6878 14.008 38.4471 13.7586C38.2 13.5428 37.8357 13.3811 37.3414 13.2125C36.8666 13.0912 36.2226 13.0103 35.4551 13.0103ZM35.8259 27.5711C37.0097 27.5711 37.9203 27.3621 38.6162 26.9576C39.2602 26.5869 39.6049 25.9128 39.6049 24.8611C39.6049 24.0118 39.3707 23.3444 38.9154 22.7916C38.4926 22.286 37.6016 21.9827 36.1576 21.9827H28.6776V27.5711H35.8259Z" fill="white"/>
<path d="M51.2022 24.1129V9.23527H47.0134V31.3461H49.4721L62.3377 16.6303V31.3461H66.52V9.23527H64.0613L51.2022 24.1129Z" fill="white"/>
<path fill-rule="evenodd" clip-rule="evenodd" d="M10.5435 8.58815C13.529 8.58815 15.9226 9.19485 17.6463 10.4487C19.396 11.716 20.2936 13.8395 20.2936 16.664V31.3461H16.1113V27.7801C15.4153 29.2159 14.3616 30.2878 12.9436 30.9753C11.4867 31.6832 9.86059 31.9933 8.0849 31.9933C6.91412 31.9933 5.84741 31.9056 4.85875 31.636C3.87659 31.3731 3.01151 30.9686 2.30904 30.3821C1.56104 29.8361 0.995165 29.0676 0.604904 28.171C0.169113 27.2543 0 26.1285 0 24.8612C0 24.1062 0.0845565 23.2972 0.34473 22.4883C0.604904 21.6726 1.0472 20.9041 1.74316 20.2233C2.40661 19.5424 3.31722 19.0099 4.44897 18.5717H4.45548C5.61325 18.1673 7.10274 17.9515 8.91095 17.9515C9.32723 17.9515 9.71749 17.9583 10.0817 17.9718H10.1403C10.485 17.9852 10.8037 17.992 11.1159 17.992C11.4542 17.992 11.7729 17.9987 12.0721 18.0122H12.0981C12.3908 18.0257 12.664 18.0324 12.9436 18.0324H12.9697C13.516 18.0796 14.0494 18.1201 14.5762 18.1201H14.6023L14.7638 18.1318C15.1842 18.1626 15.6273 18.195 16.1113 18.201V16.664C16.1113 15.0731 15.669 14.008 14.8429 13.3878C13.9908 12.7474 12.6054 12.3632 10.5435 12.3632C9.64594 12.3632 8.8264 12.4441 8.16946 12.5317C7.4865 12.653 6.94664 12.862 6.48483 13.1788C6.02302 13.4957 5.67829 13.8934 5.40511 14.4192L5.39861 14.4259V14.4394C5.0929 14.9585 4.89127 15.6124 4.76768 16.455L4.73516 16.6842H0.676452L0.708974 16.3809C0.878087 14.9315 1.21631 13.6912 1.73666 12.7002C2.2505 11.716 2.90094 10.9138 3.72699 10.2802L3.73349 10.2734C4.55304 9.68695 5.5417 9.24878 6.69948 8.98588C7.80521 8.71624 9.11259 8.58815 10.5435 8.58815ZM15.4088 25.9195C15.786 25.3263 16.0267 24.5174 16.1113 23.5129H16.1178V21.5243C15.0446 21.4839 14.0104 21.4434 13.0867 21.403C12.5859 21.403 12.1046 21.3962 11.6493 21.3828H11.5907C11.155 21.3693 10.7452 21.3625 10.3484 21.3625C8.94998 21.3625 7.80521 21.4906 6.99217 21.6591C6.16612 21.8749 5.55471 22.1243 5.18396 22.4276L5.17095 22.4411C4.74817 22.7512 4.4945 23.1354 4.39043 23.5062L4.37742 23.5332C4.22782 23.9174 4.1888 24.3556 4.1888 24.814C4.1888 26.1824 4.58556 27.0183 5.34657 27.47C6.15961 27.9553 7.47349 28.2115 9.29471 28.2115C10.1208 28.2115 10.8948 28.171 11.7143 28.043C12.5209 27.9149 13.2428 27.6655 13.8868 27.3351C14.5047 27.0183 15.0185 26.533 15.4088 25.9195Z" fill="white"/>
<path d="M147.018 24.1129V9.23527H142.835V31.3461H145.288L158.153 16.6303V31.3461H162.335V9.23527H159.877L147.018 24.1129Z" fill="white"/>
<defs>
<linearGradient id="paint0_linear" x1="223.153" y1="17.3762" x2="299.684" y2="17.3762" gradientUnits="userSpaceOnUse">
<stop stop-color="#A266EB"/>
<stop offset="1" stop-color="#20A0FF"/>
</linearGradient>
</defs>
</svg>
