<svg width="113" height="42" viewBox="0 0 113 42" fill="none" xmlns="http://www.w3.org/2000/svg">
<path d="M79.8782 5.41766H92.3176V0H79.8782V5.41766ZM99.1665 5.41766H111.606V0H99.1757L99.1665 5.41766ZM34.4251 41.9846H77.1227V21.6707L68.5807 26.5456L77.187 8.12495H71.1372L55.0666 24.5136L59.6407 8.12495H53.5787L40.4779 25.192V8.12495H34.4251V33.8596H40.4779L50.4956 20.6593L46.5951 33.8658H52.6602L64.6955 21.4733L58.7773 33.8658H64.8302L71.0821 30.2766V36.5731H34.4251V41.9846ZM111.615 41.9846V36.5669L89.7611 28.3063L111.615 25.0563V19.6386L95.1404 13.5426H111.615V8.12495H79.8782V13.5426L101.46 21.6028L79.8782 24.785V30.218L96.6192 36.5823H79.8782V42L111.615 41.9846ZM31.737 41.9846V36.5669L9.88297 28.3063L31.737 25.0563V19.6386L14.8581 13.5426H31.737V8.12495H0V13.5426L21.5846 21.6028L0 24.785V30.218L17.2125 36.5823H0V42L31.737 41.9846Z" fill="url(#paint0_linear)"/>
<defs>
<linearGradient id="paint0_linear" x1="2.07899e-07" y1="21" x2="111.615" y2="21" gradientUnits="userSpaceOnUse">
<stop stop-color="#A266EB"/>
<stop offset="1" stop-color="#20A0FF"/>
</linearGradient>
</defs>
</svg>
