<svg width="135" height="28" viewBox="0 0 135 28" fill="none" xmlns="http://www.w3.org/2000/svg">
<g clip-path="url(#clip0)">
<path d="M11.6735 15.05C11.412 15.05 11.2 15.262 11.2 15.5235V15.767L11.2006 15.7788C11.2499 16.7643 11.9934 17.7513 13.2585 17.8486L13.2767 17.85H13.5265C13.788 17.85 14 17.638 14 17.3765C14 17.1149 13.788 16.9029 13.5265 16.9029H13.3142C12.587 16.8391 12.1795 16.2926 12.1471 15.7423V15.5235C12.1471 15.262 11.9351 15.05 11.6735 15.05Z" fill="white"/>
<path fill-rule="evenodd" clip-rule="evenodd" d="M12.9721 7.39852C10.5246 7.50626 8.6325 9.51534 8.50965 11.9621C8.44803 13.1894 8.39998 14.2866 8.39998 15.3067C8.39998 16.2581 8.44178 17.2106 8.49741 18.3055C8.62111 20.7401 10.5101 22.7311 12.9455 22.8403C13.3143 22.8568 13.6717 22.8667 14 22.8667C14.3385 22.8667 14.7081 22.8562 15.0891 22.8387C17.5087 22.7277 19.3906 20.7602 19.5099 18.3411C19.5618 17.2879 19.6 16.3467 19.6 15.3067C19.6 14.145 19.5575 13.0734 19.5012 11.9158C19.3832 9.48922 17.4999 7.51069 15.0729 7.40054C14.6976 7.3835 14.3337 7.37332 14 7.37332C13.6796 7.37332 13.3315 7.3827 12.9721 7.39852ZM9.87072 12.2427C9.96352 10.3778 11.3796 8.85454 13.2036 8.77049C13.4822 8.75765 13.7522 8.75 14 8.75C14.2602 8.75 14.5448 8.75843 14.8381 8.77244C16.643 8.85866 18.0498 10.3533 18.1371 12.1991C18.1454 12.375 18.1532 12.525 18.1603 12.6609C18.1843 13.1217 18.2 13.4236 18.2 14.0494C18.2 14.6668 18.1828 15.0182 18.157 15.5467C18.1529 15.6316 18.1485 15.7211 18.144 15.817C18.0566 17.6557 16.6512 19.1398 14.8533 19.2268C14.5546 19.2413 14.2647 19.25 14 19.25C13.7449 19.25 13.4663 19.2419 13.1791 19.2284C11.3663 19.143 9.95325 17.6367 9.86111 15.7832C9.85509 15.6622 9.84937 15.5514 9.844 15.4476L9.84396 15.4468C9.8176 14.9366 9.8 14.5962 9.8 14.0494C9.8 13.5243 9.81624 13.2359 9.84089 12.7979C9.84984 12.6388 9.85991 12.4599 9.87072 12.2427Z" fill="white"/>
<path fill-rule="evenodd" clip-rule="evenodd" d="M7.99211 1.75H20.0079C22.6451 1.75 23.3267 2.02365 23.9853 2.37588C24.6963 2.75612 25.2439 3.30366 25.6241 4.01466C25.9764 4.67328 26.25 5.35487 26.25 7.99211V8.40746C26.25 8.59843 26.0969 8.75393 25.9061 8.76201C25.8473 8.7645 25.788 8.76734 25.7282 8.77049C24.1322 8.85454 22.8931 10.3778 22.8119 12.2427C22.8025 12.4585 22.7937 12.6368 22.7859 12.7951L22.7858 12.7971L22.7858 12.7979C22.7642 13.2359 22.75 13.5243 22.75 14.0494C22.75 14.5962 22.7654 14.9367 22.7885 15.4469C22.7932 15.5509 22.7982 15.6619 22.8035 15.7832C22.8841 17.6367 24.1205 19.143 25.7067 19.2284C25.7738 19.232 25.8403 19.2352 25.9061 19.238C26.0969 19.2461 26.25 19.4016 26.25 19.5925V20.0079C26.25 22.6451 25.9764 23.3267 25.6241 23.9853C25.2439 24.6963 24.6963 25.2439 23.9853 25.6241C23.3267 25.9764 22.6451 26.25 20.0079 26.25H7.99211C5.35487 26.25 4.67328 25.9764 4.01466 25.6241C3.30366 25.2439 2.75612 24.6963 2.37588 23.9853C2.02364 23.3267 1.75 22.6451 1.75 20.0079V19.5925C1.75 19.4016 1.90311 19.2461 2.09391 19.238C2.16892 19.2348 2.24495 19.2311 2.32164 19.2268C3.89483 19.1398 5.12449 17.6557 5.20096 15.817C5.20489 15.7227 5.20866 15.6345 5.21223 15.5508L5.21241 15.5466C5.23499 15.0181 5.25 14.6669 5.25 14.0494C5.25 13.4236 5.23624 13.1214 5.21525 12.6607C5.20906 12.5248 5.20224 12.375 5.19496 12.1991C5.11856 10.3533 3.88762 8.85866 2.30831 8.77244C2.23614 8.7685 2.16458 8.76501 2.09392 8.76201C1.90311 8.75393 1.75 8.59843 1.75 8.40746V7.99211C1.75 5.35487 2.02364 4.67328 2.37588 4.01466C2.75612 3.30366 3.30366 2.75612 4.01466 2.37588C4.67328 2.02365 5.35487 1.75 7.99211 1.75ZM12.9188 6.18632C9.80289 6.32348 7.44993 8.8734 7.2979 11.9012C7.23628 13.1284 7.18671 14.253 7.18671 15.3066C7.18671 16.2914 7.22999 17.2706 7.2857 18.367C7.43916 21.3872 9.79302 23.9135 12.8912 24.0523C13.2725 24.0694 13.6488 24.0799 14 24.0799C14.3622 24.0799 14.7511 24.0688 15.1448 24.0507C18.2204 23.9096 20.5733 21.4129 20.7218 18.4008C20.774 17.3419 20.8134 16.377 20.8134 15.3066C20.8134 14.1152 20.7698 13.0204 20.7132 11.8568C20.5664 8.8399 18.2146 6.32851 15.128 6.18841C14.7401 6.17081 14.3571 6.15995 14 6.15995C13.6572 6.15995 13.2906 6.16996 12.9188 6.18632Z" fill="white"/>
<path d="M108.928 6.94055C108.402 7.4605 107.613 7.6856 106.575 7.6856C105.539 7.6856 104.729 7.4605 104.218 6.94055C103.691 6.43962 103.451 5.66921 103.451 4.67687V4.55005H105.136V4.67687C105.136 5.2095 105.253 5.5519 105.45 5.73896L105.456 5.7453C105.657 5.95138 106.026 6.05283 106.572 6.05283C107.117 6.05283 107.468 5.95138 107.668 5.7453L107.675 5.73896C107.878 5.5519 108.01 5.20633 108.01 4.67687V4.55005H109.696V4.67687C109.696 5.67238 109.434 6.44279 108.928 6.94055Z" fill="white"/>
<path fill-rule="evenodd" clip-rule="evenodd" d="M97.9205 16.9559C98.0837 16.7308 98.1947 16.4486 98.2717 16.0745L98.2963 15.9699H100.256L100.234 16.1157C100.136 16.7562 99.9538 17.3047 99.6642 17.7485C99.3808 18.2082 99.0327 18.5697 98.6013 18.8423C98.1731 19.115 97.6863 19.302 97.1441 19.4257C96.5803 19.5493 95.9795 19.5905 95.3233 19.5905C94.5068 19.5905 93.7859 19.5081 93.142 19.321C92.495 19.1562 91.925 18.8423 91.4752 18.4206C91.0254 17.9958 90.6804 17.4283 90.437 16.7245C90.1936 16.0365 90.0734 15.171 90.0734 14.1469C90.0734 13.1007 90.1905 12.213 90.4339 11.5059C90.6742 10.8021 91.0193 10.2156 91.4691 9.77173L91.4722 9.76856C91.9189 9.35006 92.4704 9.03619 93.1173 8.84913H93.1204C93.7613 8.68427 94.4822 8.58282 95.2801 8.58282C96.799 8.58282 98.0129 8.97595 98.9094 9.77173C99.7906 10.577 100.231 11.7913 100.231 13.3987V14.8856H92.0483C92.0606 15.469 92.153 15.9541 92.2948 16.3155C92.4457 16.7023 92.6706 17.0098 92.9479 17.2381C93.2252 17.4695 93.561 17.6217 93.9584 17.701C94.3651 17.7802 94.8118 17.8214 95.3171 17.8214C95.7084 17.8214 96.0565 17.8024 96.4016 17.7422H96.4077C96.7251 17.701 97.0085 17.6058 97.2735 17.4695L97.2766 17.4663H97.2796C97.5323 17.3554 97.7325 17.1873 97.9205 16.9559ZM93.0249 10.9258C92.7476 11.135 92.5227 11.4235 92.3533 11.8103C92.1962 12.1686 92.1007 12.6188 92.0698 13.1958H98.2255C98.2162 12.6568 98.1392 12.2256 98.0006 11.8674C97.8496 11.4774 97.6617 11.1921 97.4059 10.9638C97.1472 10.7514 96.8483 10.5992 96.4909 10.5009C96.1243 10.4217 95.7176 10.3614 95.2771 10.3614C94.8118 10.3614 94.4052 10.4026 94.0201 10.4819C93.6442 10.558 93.3053 10.7133 93.0249 10.9258Z" fill="white"/>
<path d="M114.12 15.8621C114.157 15.4404 114.197 14.8983 114.197 14.2135V8.89351H122.447V19.2925H120.466V10.669H116.119V14.4576C116.119 16.0904 115.882 17.3142 115.432 18.0941C114.97 18.9121 114.215 19.2925 113.195 19.2925H112.758V17.4156H112.881C113.128 17.4156 113.322 17.3744 113.473 17.2888L113.479 17.2856L113.482 17.2825C113.624 17.219 113.765 17.0637 113.876 16.8354C113.984 16.6103 114.061 16.3028 114.12 15.8621Z" fill="white"/>
<path d="M86.8909 15.8336C86.8139 16.2457 86.6814 16.5723 86.5181 16.8196C86.3302 17.0891 86.1268 17.2793 85.8865 17.4315C85.6246 17.5837 85.3443 17.6819 85.0208 17.739C84.6757 17.7992 84.3276 17.8183 83.9363 17.8183C83.4095 17.8183 82.9473 17.7771 82.5437 17.6788C82.1278 17.5805 81.7951 17.4093 81.5394 17.1461L81.5363 17.143C81.259 16.8767 81.0526 16.5121 80.8986 16.0397C80.7476 15.5704 80.6675 14.9364 80.6675 14.1533C80.6675 13.3511 80.7445 12.7139 80.8986 12.2035C81.0526 11.7089 81.259 11.3252 81.5363 11.0621L81.5394 11.0589C81.7951 10.7958 82.1278 10.6214 82.5437 10.5263C82.9473 10.428 83.4126 10.3678 83.9363 10.3678C84.2999 10.3678 84.648 10.4058 84.9622 10.447C85.2642 10.5073 85.5445 10.6024 85.8064 10.7546C86.0467 10.9067 86.2531 11.1001 86.4411 11.3506C86.6074 11.5979 86.7399 11.9054 86.8139 12.2954L86.8323 12.3968H88.8164L88.7887 12.2478C88.6686 11.5694 88.4868 10.9828 88.2003 10.5168C87.9168 10.0571 87.5687 9.67979 87.162 9.38494L87.1589 9.38177C86.7522 9.10912 86.2624 8.89987 85.7201 8.77622C85.1594 8.65258 84.5771 8.59234 83.9394 8.59234C83.1199 8.59234 82.402 8.69379 81.7612 8.85865H81.7581C81.1111 9.04571 80.5412 9.35958 80.0914 9.77808L80.0883 9.78125C79.6385 10.2251 79.2934 10.8116 79.0531 11.5155C78.8097 12.2225 78.6926 13.1102 78.6926 14.1564C78.6926 15.1805 78.8128 16.046 79.0531 16.734C79.2934 17.4378 79.6416 18.0053 80.0914 18.4302C80.5412 18.8518 81.1111 19.1657 81.7581 19.3306C82.402 19.5176 83.123 19.6 83.9394 19.6C84.5987 19.6 85.1995 19.5398 85.7602 19.4162C86.3055 19.2925 86.7923 19.0833 87.2205 18.7884C87.6519 18.4936 87.9969 18.1163 88.2835 17.6344C88.57 17.1683 88.7517 16.5818 88.8534 15.8811L88.875 15.7353H86.9155L86.8909 15.8336Z" fill="white"/>
<path d="M132.066 15.8336L132.084 15.729V15.7353H134.05L134.028 15.8811C133.927 16.5818 133.745 17.1683 133.459 17.6344C133.172 18.1163 132.827 18.4936 132.396 18.7884C131.967 19.0833 131.481 19.2925 130.935 19.4162C130.375 19.5398 129.774 19.6 129.114 19.6C128.298 19.6 127.577 19.5176 126.933 19.3306C126.286 19.1657 125.716 18.8518 125.266 18.4302C124.817 18.0053 124.472 17.4378 124.228 16.734C123.988 16.046 123.868 15.1805 123.868 14.1564C123.868 13.1102 123.985 12.2225 124.228 11.5155C124.468 10.8116 124.814 10.2251 125.263 9.78125L125.266 9.77808C125.716 9.35958 126.286 9.04571 126.933 8.85865H126.936C127.577 8.69379 128.295 8.59234 129.114 8.59234C129.752 8.59234 130.334 8.65258 130.895 8.77622C131.441 8.89987 131.927 9.10912 132.334 9.38177L132.337 9.38494C132.744 9.67979 133.092 10.0571 133.375 10.5168C133.662 10.9828 133.844 11.5694 133.964 12.2478L133.992 12.3968H132.007L131.989 12.2954C131.915 11.9054 131.783 11.5979 131.616 11.3506C131.428 11.1001 131.222 10.9067 130.981 10.7546C130.72 10.6024 130.439 10.5073 130.137 10.447C129.823 10.4058 129.475 10.3678 129.111 10.3678C128.588 10.3678 128.122 10.428 127.719 10.5263C127.303 10.6214 126.97 10.7958 126.714 11.0589L126.711 11.0621C126.434 11.3252 126.228 11.7089 126.074 12.2035C125.92 12.7139 125.843 13.3511 125.843 14.1533C125.843 14.9364 125.923 15.5704 126.074 16.0397C126.228 16.5121 126.434 16.8767 126.711 17.143L126.714 17.1461C126.97 17.4093 127.303 17.5805 127.719 17.6788C128.122 17.7771 128.585 17.8183 129.111 17.8183C129.503 17.8183 129.851 17.7992 130.196 17.739C130.519 17.6819 130.8 17.5837 131.062 17.4315C131.302 17.2793 131.505 17.0891 131.693 16.8196C131.856 16.5723 131.989 16.2457 132.066 15.8336Z" fill="white"/>
<path fill-rule="evenodd" clip-rule="evenodd" d="M75.7565 9.4642C74.9401 8.8745 73.8063 8.58917 72.3922 8.58917C71.7144 8.58917 71.0951 8.6494 70.5714 8.77622C70.0261 8.89987 69.5578 9.10911 69.1696 9.38494L69.1665 9.38811C68.7752 9.68613 68.4671 10.0634 68.2237 10.5263C67.9773 10.9923 67.817 11.5757 67.7369 12.2573L67.7215 12.4H69.644L69.6594 12.2922C69.718 11.8959 69.8104 11.5884 69.9583 11.3443L69.9644 11.3379C70.0938 11.0906 70.2571 10.9036 70.4759 10.7546C70.6946 10.6056 70.9534 10.5073 71.2738 10.4502C71.585 10.409 71.9732 10.3709 72.3983 10.3709C73.375 10.3709 74.0312 10.5517 74.4348 10.8528C74.8261 11.1445 75.0356 11.6455 75.0356 12.3937V13.1102C74.8064 13.1074 74.5965 13.0921 74.3973 13.0777L74.3208 13.0721H74.3085C74.0589 13.0721 73.8063 13.0531 73.5506 13.0309H73.5383C73.4058 13.0309 73.2764 13.0278 73.1377 13.0214H73.1254C72.9837 13.0151 72.8327 13.0119 72.6725 13.0119C72.5247 13.0119 72.3737 13.0087 72.2104 13.0024H72.1827C72.0101 12.9961 71.8253 12.9929 71.6281 12.9929C70.7716 12.9929 70.0661 13.0943 69.5177 13.2846H69.5146C68.9724 13.4906 68.5411 13.7411 68.2299 14.0645C67.9002 14.3847 67.6907 14.7461 67.5675 15.1297C67.4443 15.5102 67.4042 15.8906 67.4042 16.2457C67.4042 16.8418 67.4843 17.3712 67.6907 17.8024C67.8756 18.2241 68.1436 18.5855 68.4979 18.8423C68.8307 19.1181 69.2404 19.3084 69.7056 19.432C70.1739 19.5588 70.6792 19.6 71.2338 19.6C72.0748 19.6 72.8451 19.4542 73.5352 19.1213C74.2037 18.7979 74.7059 18.2938 75.0356 17.6185V19.2957H77.0166V12.3873C77.0135 11.0589 76.5883 10.0602 75.7565 9.4642ZM75.0325 15.6085C74.9955 16.0809 74.8785 16.4613 74.6998 16.7403C74.5118 17.0288 74.2715 17.2571 73.9788 17.4061C73.6738 17.5615 73.3318 17.6788 72.9498 17.739C72.5616 17.7992 72.195 17.8183 71.8037 17.8183C70.9411 17.8183 70.3187 17.6978 69.9336 17.4695C69.5732 17.2571 69.3852 16.864 69.3852 16.2204C69.3852 16.0048 69.4037 15.7987 69.4746 15.618L69.4807 15.6053C69.53 15.4309 69.6502 15.2502 69.8504 15.1044L69.8566 15.098C70.0322 14.9554 70.3218 14.8381 70.7131 14.7366C71.0982 14.6574 71.6404 14.5971 72.3028 14.5971C72.4908 14.5971 72.6849 14.6003 72.8913 14.6066H72.919C73.1347 14.613 73.3627 14.6161 73.5999 14.6161C74.0404 14.6352 74.5272 14.6542 75.0356 14.6732V15.6085H75.0325Z" fill="white"/>
<path fill-rule="evenodd" clip-rule="evenodd" d="M52.656 14.0391C53.3677 14.1311 53.9469 14.334 54.3689 14.6859C54.7972 15.0822 55.0221 15.6687 55.019 16.4677C55.019 16.8735 54.9358 17.2317 54.8126 17.5678C54.6863 17.9134 54.4768 18.2146 54.1872 18.4714C53.9006 18.725 53.5525 18.9374 53.1427 19.0833H53.1397C52.7083 19.2323 52.2216 19.2925 51.6608 19.2925H45.8996V8.89351H51.2295C51.8703 8.89351 52.4187 8.97594 52.8655 9.12178H52.8716C53.3153 9.28665 53.6665 9.47687 53.9561 9.73368C54.2426 9.99048 54.4552 10.2695 54.5815 10.596C54.7048 10.9131 54.7664 11.2333 54.7664 11.5757C54.7664 12.3271 54.563 12.9326 54.1779 13.3289L54.1748 13.3321C53.799 13.6999 53.2937 13.9281 52.656 14.0042V14.0391ZM51.094 10.669H47.8837V13.1926H51.4513C51.9874 13.1926 52.3356 13.0563 52.5173 12.8185C52.6991 12.5554 52.8069 12.2573 52.8069 11.8801C52.8069 11.693 52.773 11.525 52.733 11.3633C52.7022 11.2396 52.6252 11.1382 52.5112 11.0209C52.3941 10.9194 52.2216 10.8433 51.9874 10.7641C51.7625 10.707 51.4575 10.669 51.094 10.669ZM51.2696 17.5171C51.8303 17.5171 52.2616 17.4188 52.5913 17.2286C52.8963 17.0542 53.0596 16.7371 53.0596 16.2426C53.0596 15.8431 52.9487 15.5292 52.733 15.2692C52.5327 15.0315 52.1106 14.8888 51.4267 14.8888H47.8837V17.5171H51.2696Z" fill="white"/>
<path d="M58.5528 15.8906V8.89351H56.5687V19.2925H57.7333L63.8273 12.3715V19.2925H65.8083V8.89351H64.6438L58.5528 15.8906Z" fill="white"/>
<path fill-rule="evenodd" clip-rule="evenodd" d="M39.2942 8.58917C40.7083 8.58917 41.8421 8.8745 42.6585 9.4642C43.4873 10.0602 43.9124 11.0589 43.9124 12.3873V19.2925H41.9314V17.6154C41.6018 18.2907 41.1027 18.7948 40.431 19.1181C39.7409 19.451 38.9707 19.5969 38.1296 19.5969C37.575 19.5969 37.0698 19.5557 36.6015 19.4288C36.1363 19.3052 35.7265 19.115 35.3938 18.8391C35.0395 18.5823 34.7714 18.2209 34.5866 17.7992C34.3802 17.3681 34.3 16.8386 34.3 16.2426C34.3 15.8875 34.3401 15.507 34.4633 15.1266C34.5866 14.743 34.7961 14.3815 35.1257 14.0613C35.44 13.7411 35.8713 13.4906 36.4074 13.2846H36.4105C36.9589 13.0943 37.6644 12.9929 38.5209 12.9929C38.718 12.9929 38.9029 12.9961 39.0754 13.0024H39.1032C39.2664 13.0087 39.4174 13.0119 39.5653 13.0119C39.7255 13.0119 39.8765 13.0151 40.0182 13.0214H40.0305C40.1691 13.0278 40.2985 13.0309 40.431 13.0309H40.4433C40.7021 13.0531 40.9548 13.0721 41.2043 13.0721H41.2166L41.2932 13.0777C41.4923 13.0921 41.7022 13.1074 41.9314 13.1102V12.3873C41.9314 11.6391 41.7219 11.1382 41.3306 10.8465C40.927 10.5453 40.2708 10.3646 39.2942 10.3646C38.869 10.3646 38.4808 10.4026 38.1696 10.4439C37.8462 10.5009 37.5904 10.5992 37.3717 10.7482C37.153 10.8972 36.9897 11.0843 36.8603 11.3316L36.8572 11.3348V11.3411C36.7124 11.5852 36.6169 11.8927 36.5583 12.289L36.5429 12.3968H34.6205L34.6359 12.2542C34.716 11.5725 34.8762 10.9892 35.1226 10.5231C35.366 10.0602 35.6741 9.68296 36.0654 9.38494L36.0685 9.38177C36.4567 9.10594 36.925 8.89987 37.4734 8.77622C37.9971 8.6494 38.6164 8.58917 39.2942 8.58917ZM41.5987 16.7403C41.7774 16.4613 41.8914 16.0809 41.9314 15.6085H41.9345V14.6732C41.4262 14.6542 40.9363 14.6352 40.4988 14.6161C40.2616 14.6161 40.0336 14.613 39.8179 14.6066H39.7902C39.5838 14.6003 39.3897 14.5971 39.2017 14.5971C38.5394 14.5971 37.9971 14.6574 37.612 14.7366C37.2207 14.8381 36.9311 14.9554 36.7555 15.098L36.7494 15.1044C36.5491 15.2502 36.4289 15.4309 36.3797 15.6053L36.3735 15.618C36.3026 15.7987 36.2841 16.0048 36.2841 16.2204C36.2841 16.864 36.4721 17.2571 36.8325 17.4695C37.2177 17.6978 37.84 17.8183 38.7026 17.8183C39.0939 17.8183 39.4605 17.7992 39.8487 17.739C40.2308 17.6788 40.5727 17.5615 40.8778 17.4061C41.1704 17.2571 41.4138 17.0288 41.5987 16.7403Z" fill="white"/>
<path d="M103.937 15.8906V8.89351H101.956V19.2925H103.118L109.212 12.3715V19.2925H111.193V8.89351H110.028L103.937 15.8906Z" fill="white"/>
</g>
<defs>
<clipPath id="clip0">
<rect width="134.05" height="28" fill="white"/>
</clipPath>
</defs>
</svg>
