<svg width="336" height="507" viewBox="0 0 336 507" fill="none" xmlns="http://www.w3.org/2000/svg">
<rect width="336" height="507" rx="10" fill="#141414"/>
<path d="M33.4815 28.0909H25.3423V39H26.6634V29.2628H32.1605V39H33.4815V28.0909ZM39.2996 39.1705C41.5155 39.1705 43.007 37.4872 43.007 34.9517C43.007 32.3949 41.5155 30.7116 39.2996 30.7116C37.0837 30.7116 35.5922 32.3949 35.5922 34.9517C35.5922 37.4872 37.0837 39.1705 39.2996 39.1705ZM39.2996 38.0412C37.6164 38.0412 36.8493 36.5923 36.8493 34.9517C36.8493 33.3111 37.6164 31.8409 39.2996 31.8409C40.9829 31.8409 41.7499 33.3111 41.7499 34.9517C41.7499 36.5923 40.9829 38.0412 39.2996 38.0412ZM44.0524 41.3438H45.3095V39H51.3606V41.3438H52.6177V37.8281H51.3606V30.8182H46.1618L45.8848 34.0568C45.6877 36.3473 45.3947 37.1357 44.7342 37.8281H44.0524V41.3438ZM46.1618 37.8281C46.737 37.0717 46.9448 35.7667 47.1206 34.0568L47.3336 31.9901H50.1035V37.8281H46.1618ZM54.2863 39H55.5434V31.9901H59.4639V39H60.721V30.8182H54.2863V39ZM64.2739 37.1463V30.8182H63.0168V39H64.4869L68.4074 32.6719V39H69.6645V30.8182H68.2156L64.2739 37.1463ZM75.2908 39.1705C77.1019 39.1705 78.2951 38.0625 78.5082 36.6136H77.2511C77.0167 37.5085 76.271 38.0412 75.2908 38.0412C73.7994 38.0412 72.8406 36.8054 72.8406 34.9091C72.8406 33.0554 73.8207 31.8409 75.2908 31.8409C76.3988 31.8409 77.0593 32.5227 77.2511 33.2685H78.5082C78.2951 31.7344 76.9954 30.7116 75.2695 30.7116C73.0536 30.7116 71.5835 32.4588 71.5835 34.9517C71.5835 37.402 72.9897 39.1705 75.2908 39.1705ZM80.3459 39H81.603V35.5483H82.7322L85.4169 39H87.0362L83.6911 34.7599L86.9936 30.8182H85.3743L82.4339 34.3764H81.603V30.8182H80.3459V39ZM90.8102 39.1918C92.2377 39.1918 92.9835 38.4247 93.2392 37.892H93.3031V39H94.5602V33.6094C94.5602 31.0099 92.5787 30.7116 91.5346 30.7116C90.2988 30.7116 88.8926 31.1378 88.2534 32.6293L89.4466 33.0554C89.7235 32.4588 90.3787 31.8196 91.5772 31.8196C92.7331 31.8196 93.3031 32.4322 93.3031 33.4815V33.5241C93.3031 34.1314 92.6852 34.0781 91.1937 34.2699C89.6756 34.467 88.019 34.8026 88.019 36.6776C88.019 38.2756 89.2548 39.1918 90.8102 39.1918ZM91.002 38.0625C90.0005 38.0625 89.2761 37.6151 89.2761 36.7415C89.2761 35.7827 90.1497 35.4844 91.1298 35.3565C91.6625 35.2926 93.09 35.1435 93.3031 34.8878V36.0384C93.3031 37.0611 92.4934 38.0625 91.002 38.0625ZM102.331 30.8182H101.073V39H102.331V35.5057H106.251V39H107.508V30.8182H106.251V34.3338H102.331V30.8182ZM112.212 39.1918C113.639 39.1918 114.385 38.4247 114.641 37.892H114.704V39H115.962V33.6094C115.962 31.0099 113.98 30.7116 112.936 30.7116C111.7 30.7116 110.294 31.1378 109.655 32.6293L110.848 33.0554C111.125 32.4588 111.78 31.8196 112.979 31.8196C114.134 31.8196 114.704 32.4322 114.704 33.4815V33.5241C114.704 34.1314 114.087 34.0781 112.595 34.2699C111.077 34.467 109.42 34.8026 109.42 36.6776C109.42 38.2756 110.656 39.1918 112.212 39.1918ZM112.403 38.0625C111.402 38.0625 110.677 37.6151 110.677 36.7415C110.677 35.7827 111.551 35.4844 112.531 35.3565C113.064 35.2926 114.491 35.1435 114.704 34.8878V36.0384C114.704 37.0611 113.895 38.0625 112.403 38.0625ZM127.525 30.8182H122.475V39H123.732V31.9901H127.525V30.8182ZM132.259 39.1705C134.475 39.1705 135.966 37.4872 135.966 34.9517C135.966 32.3949 134.475 30.7116 132.259 30.7116C130.043 30.7116 128.551 32.3949 128.551 34.9517C128.551 37.4872 130.043 39.1705 132.259 39.1705ZM132.259 38.0412C130.575 38.0412 129.808 36.5923 129.808 34.9517C129.808 33.3111 130.575 31.8409 132.259 31.8409C133.942 31.8409 134.709 33.3111 134.709 34.9517C134.709 36.5923 133.942 38.0412 132.259 38.0412ZM137.011 41.3438H138.268V39H144.32V41.3438H145.577V37.8281H144.32V30.8182H139.121L138.844 34.0568C138.647 36.3473 138.354 37.1357 137.693 37.8281H137.011V41.3438ZM139.121 37.8281C139.696 37.0717 139.904 35.7667 140.08 34.0568L140.293 31.9901H143.062V37.8281H139.121Z" fill="#EEEFEF"/>
<path d="M262.736 28.0909H261.415L258.688 29.902V31.2443L261.351 29.4759H261.415V39H262.736V28.0909ZM269.836 36.7628H274.971V39H276.229V36.7628H277.72V35.5909H276.229V28.0909H274.631L269.836 35.6761V36.7628ZM274.971 35.5909H271.264V35.5057L274.886 29.7741H274.971V35.5909ZM283.189 27.9418C280.973 27.9151 279.546 29.5824 279.546 31.5852C279.546 33.6946 281.101 35.2074 282.976 35.2074C284.105 35.2074 285.064 34.6534 285.661 33.7585H285.746C285.746 36.4432 284.702 37.9773 283.019 37.9773C281.868 37.9773 281.165 37.2528 280.931 36.2514H279.631C279.887 37.9773 281.186 39.1491 283.019 39.1491C285.469 39.1491 286.982 36.9759 286.982 33.098C286.982 29.0923 284.979 27.9631 283.189 27.9418ZM283.189 29.1136C284.553 29.1136 285.554 30.2855 285.554 31.5639C285.554 32.8636 284.489 34.0355 283.147 34.0355C281.804 34.0355 280.824 32.9489 280.824 31.5852C280.824 30.2216 281.847 29.1136 283.189 29.1136ZM292.635 39.1491C295.042 39.1491 296.427 37.109 296.427 33.5455C296.427 30.0085 295.021 27.9418 292.635 27.9418C290.248 27.9418 288.842 30.0085 288.842 33.5455C288.842 37.109 290.227 39.1491 292.635 39.1491ZM292.635 37.9773C291.047 37.9773 290.121 36.3846 290.121 33.5455C290.121 30.7116 291.058 29.0923 292.635 29.0923C294.211 29.0923 295.149 30.7116 295.149 33.5455C295.149 36.3846 294.222 37.9773 292.635 37.9773ZM307.635 34.5682C310.064 34.5682 311.193 33.098 311.193 31.3295C311.193 29.5611 310.064 28.0909 307.635 28.0909H303.821V33.3963H302.095V34.5682H303.821V35.5909H302.095V36.7628H303.821V39H305.142V36.7628H307.55V35.5909H305.142V34.5682H307.635ZM305.142 33.3963V29.2628H307.635C309.169 29.2628 309.893 30.1364 309.893 31.3295C309.893 32.5227 309.169 33.3963 307.635 33.3963H305.142Z" fill="#EEEFEF"/>
<path d="M32.5543 68H35.7962L30.7493 61.3714L35.5728 55.6364H32.3189L28.2138 60.5746H27.6886V55.6364H25.0746V68H27.6886V62.7298H28.582L32.5543 68ZM45.1866 68.1811C47.9998 68.1811 49.7505 66.2553 49.7505 63.3999C49.7505 60.5263 47.9998 58.6065 45.1866 58.6065C42.3734 58.6065 40.6227 60.5263 40.6227 63.3999C40.6227 66.2553 42.3734 68.1811 45.1866 68.1811ZM45.1987 66.1889C43.9007 66.1889 43.2367 64.9996 43.2367 63.3817C43.2367 61.7638 43.9007 60.5685 45.1987 60.5685C46.4725 60.5685 47.1365 61.7638 47.1365 63.3817C47.1365 64.9996 46.4725 66.1889 45.1987 66.1889ZM51.4228 68H53.8496V60.7496H57.0733V68H59.5304V58.7273H51.4228V68ZM61.0396 68H61.8123C63.7804 68 64.8248 66.696 64.9817 63.581L65.1266 60.7496H67.4146V68H69.8656V58.7273H62.8145L62.6635 62.8324C62.573 65.1808 62.2108 65.9595 61.3354 65.9595H61.0275L61.0396 68ZM74.5035 68.1751C75.8738 68.1751 76.7613 67.5774 77.214 66.7141H77.2865V68H79.7254V61.7457C79.7254 59.5362 77.854 58.6065 75.7893 58.6065C73.5677 58.6065 72.1068 59.669 71.7506 61.3594L74.1292 61.5526C74.3042 60.9368 74.8536 60.484 75.7773 60.484C76.6526 60.484 77.1537 60.9247 77.1537 61.6854V61.7216C77.1537 62.3192 76.5198 62.3977 74.9079 62.5547C73.0727 62.7237 71.4246 63.3395 71.4246 65.4102C71.4246 67.2454 72.7346 68.1751 74.5035 68.1751ZM75.24 66.4002C74.4491 66.4002 73.8817 66.032 73.8817 65.3256C73.8817 64.6012 74.4793 64.245 75.3849 64.1183C75.9463 64.0398 76.8639 63.907 77.1718 63.7017V64.6857C77.1718 65.6577 76.3689 66.4002 75.24 66.4002ZM80.806 60.7496H83.7702V68H86.2211V60.7496H89.2094V58.7273H80.806V60.7496ZM94.6623 68.1811C96.9563 68.1811 98.5018 67.0643 98.864 65.3438L96.4854 65.1868C96.2259 65.8931 95.5618 66.2614 94.7045 66.2614C93.4187 66.2614 92.6037 65.4102 92.6037 64.0277V64.0217H98.9183V63.3153C98.9183 60.1641 97.0107 58.6065 94.5597 58.6065C91.831 58.6065 90.0621 60.5444 90.0621 63.4059C90.0621 66.3459 91.8068 68.1811 94.6623 68.1811ZM92.6037 62.4279C92.658 61.3714 93.4609 60.5263 94.6019 60.5263C95.7188 60.5263 96.4915 61.3232 96.4975 62.4279H92.6037Z" fill="#EEEFEF"/>
<path d="M259.014 55.6364V68H256.4V58.1175H256.327L253.496 59.8924V57.5742L256.557 55.6364H259.014ZM261.765 65.8267V63.7681L266.927 55.6364H268.702V58.4858H267.651L264.397 63.6353V63.7319H271.732V65.8267H261.765ZM267.699 68V65.1989L267.748 64.2873V55.6364H270.199V68H267.699ZM277.947 55.4673C278.583 55.4673 279.195 55.574 279.782 55.7873C280.374 56.0006 280.901 56.3407 281.364 56.8075C281.831 57.2744 282.199 57.8942 282.469 58.6669C282.743 59.4356 282.881 60.3794 282.885 61.4982C282.885 62.5487 282.767 63.4864 282.529 64.3114C282.296 65.1325 281.96 65.8307 281.521 66.4062C281.082 66.9818 280.553 67.4205 279.933 67.7223C279.314 68.0201 278.621 68.169 277.857 68.169C277.032 68.169 276.303 68.0101 275.671 67.6921C275.039 67.3701 274.53 66.9335 274.144 66.3821C273.762 65.8267 273.53 65.2029 273.45 64.5107H276.027C276.128 64.9614 276.339 65.3116 276.661 65.5611C276.983 65.8066 277.382 65.9293 277.857 65.9293C278.662 65.9293 279.273 65.5792 279.692 64.8789C280.11 64.1746 280.322 63.2107 280.326 61.9872H280.241C280.056 62.3494 279.807 62.6613 279.493 62.9229C279.179 63.1805 278.819 63.3797 278.412 63.5206C278.01 63.6615 277.581 63.7319 277.126 63.7319C276.398 63.7319 275.748 63.5608 275.176 63.2188C274.605 62.8767 274.154 62.4058 273.824 61.8061C273.494 61.2064 273.329 60.5223 273.329 59.7536C273.325 58.9245 273.516 58.186 273.902 57.538C274.289 56.89 274.828 56.3829 275.52 56.0167C276.217 55.6464 277.026 55.4633 277.947 55.4673ZM277.965 57.5199C277.559 57.5199 277.197 57.6165 276.879 57.8097C276.565 58.0028 276.315 58.2624 276.13 58.5884C275.949 58.9144 275.86 59.2786 275.864 59.6811C275.864 60.0876 275.953 60.4538 276.13 60.7798C276.311 61.1018 276.557 61.3594 276.867 61.5526C277.18 61.7417 277.539 61.8363 277.941 61.8363C278.243 61.8363 278.523 61.7799 278.78 61.6673C279.038 61.5546 279.261 61.3996 279.45 61.2024C279.644 61.0012 279.794 60.7698 279.903 60.5082C280.012 60.2466 280.066 59.9689 280.066 59.6751C280.062 59.2847 279.97 58.9265 279.788 58.6005C279.607 58.2745 279.358 58.0129 279.04 57.8157C278.722 57.6185 278.364 57.5199 277.965 57.5199ZM289.544 68.2717C288.506 68.2676 287.612 68.0121 286.864 67.505C286.119 66.9979 285.546 66.2634 285.143 65.3015C284.745 64.3396 284.548 63.1825 284.552 61.8303C284.552 60.482 284.751 59.333 285.149 58.3832C285.552 57.4334 286.125 56.7109 286.87 56.2159C287.618 55.7169 288.51 55.4673 289.544 55.4673C290.578 55.4673 291.468 55.7169 292.212 56.2159C292.961 56.715 293.537 57.4394 293.939 58.3892C294.341 59.335 294.541 60.482 294.537 61.8303C294.537 63.1866 294.335 64.3456 293.933 65.3075C293.535 66.2694 292.963 67.0039 292.218 67.511C291.474 68.0181 290.582 68.2717 289.544 68.2717ZM289.544 66.1044C290.252 66.1044 290.818 65.7482 291.241 65.0359C291.663 64.3235 291.872 63.255 291.868 61.8303C291.868 60.8925 291.772 60.1117 291.579 59.4879C291.389 58.8641 291.12 58.3952 290.77 58.0813C290.424 57.7674 290.015 57.6104 289.544 57.6104C288.84 57.6104 288.276 57.9626 287.854 58.6669C287.431 59.3712 287.218 60.4257 287.214 61.8303C287.214 62.7801 287.308 63.5729 287.498 64.2088C287.691 64.8407 287.962 65.3156 288.313 65.6335C288.663 65.9474 289.073 66.1044 289.544 66.1044ZM306.704 63.5266H300.118V61.4318H306.632C307.123 61.4318 307.525 61.3594 307.839 61.2145C308.153 61.0696 308.384 60.8643 308.533 60.5987C308.682 60.3331 308.757 60.0192 308.757 59.657C308.757 59.3028 308.682 58.9828 308.533 58.6971C308.384 58.4113 308.157 58.1839 307.851 58.0149C307.545 57.8459 307.163 57.7614 306.704 57.7614H304.47V68H301.875V55.6364H306.704C307.682 55.6364 308.519 55.8114 309.215 56.1616C309.916 56.5077 310.451 56.9826 310.821 57.5863C311.192 58.186 311.375 58.8661 311.371 59.6268C311.375 60.4237 311.188 61.1139 310.809 61.6974C310.431 62.281 309.892 62.7318 309.191 63.0497C308.491 63.3677 307.662 63.5266 306.704 63.5266ZM307.169 64.3235V66.4183H300.118V64.3235H307.169Z" fill="#EEEFEF"/>
<path d="M32.7528 93.5C32.402 91.5611 30.8509 90.4162 28.9489 90.4162C26.5298 90.4162 24.7756 92.2812 24.7756 95.2727C24.7756 98.2642 26.5298 100.129 28.9489 100.129C30.8509 100.129 32.402 98.9844 32.7528 97.0455H31.608C31.331 98.3565 30.2045 99.0582 28.9489 99.0582C27.2315 99.0582 25.8835 97.7287 25.8835 95.2727C25.8835 92.8168 27.2315 91.4872 28.9489 91.4872C30.2045 91.4872 31.331 92.1889 31.608 93.5H32.7528ZM33.8273 100H34.1966C35.7662 100 36.2187 98.7812 36.3202 96.4545L36.431 93.9247H39.0347V100H40.1242V92.9091H35.3969L35.2677 96.0483C35.1753 98.4304 34.9353 98.9844 34.0858 98.9844H33.8273V100ZM45.0961 100.148C46.5365 100.148 47.589 99.4276 47.9214 98.3565L46.8689 98.0611C46.5919 98.7997 45.9502 99.169 45.0961 99.169C43.8174 99.169 42.9356 98.3427 42.8849 96.8239H48.0322V96.3622C48.0322 93.7216 46.4626 92.8168 44.9854 92.8168C43.0649 92.8168 41.7907 94.331 41.7907 96.5099C41.7907 98.6889 43.0464 100.148 45.0961 100.148ZM42.8849 95.8821C42.9587 94.7788 43.7389 93.7955 44.9854 93.7955C46.1672 93.7955 46.9243 94.6818 46.9243 95.8821H42.8849ZM48.9324 102.031H50.0219V100H55.2662V102.031H56.3557V98.9844H55.2662V92.9091H50.7606L50.5205 95.7159C50.3497 97.701 50.0958 98.3842 49.5233 98.9844H48.9324V102.031ZM50.7606 98.9844C51.2591 98.3288 51.4392 97.1978 51.5915 95.7159L51.7762 93.9247H54.1768V98.9844H50.7606ZM58.5036 102.659C59.4869 102.659 60.1793 102.137 60.5902 101.034L63.6094 92.9276L62.4183 92.9091L60.4609 98.5597H60.3871L58.4297 92.9091H57.2479L59.87 100.037L59.6669 100.591C59.2699 101.671 58.7805 101.773 57.9865 101.57L57.7095 102.53C57.8203 102.585 58.1342 102.659 58.5036 102.659ZM65.6233 92.9091H64.5338V100H65.6233V97.027H67.4422C67.6361 98.9244 68.8687 100.148 70.6276 100.148C72.548 100.148 73.8406 98.6889 73.8406 96.4915C73.8406 94.2756 72.548 92.8168 70.6276 92.8168C68.8502 92.8168 67.6084 94.0678 67.4376 96.0114H65.6233V92.9091ZM70.6276 99.169C69.1688 99.169 68.504 97.9134 68.504 96.4915C68.504 95.0696 69.1688 93.7955 70.6276 93.7955C72.0864 93.7955 72.7512 95.0696 72.7512 96.4915C72.7512 97.9134 72.0864 99.169 70.6276 99.169ZM85.2895 98.9844H84.2369V92.9091H83.1475V98.9844H80.4699V92.9091H79.3804V98.9844H76.7029V92.9091H75.6134V100H84.0338V102.031H85.1602L85.2895 98.9844ZM89.771 100.148C91.2113 100.148 92.2638 99.4276 92.5962 98.3565L91.5437 98.0611C91.2667 98.7997 90.625 99.169 89.771 99.169C88.4922 99.169 87.6104 98.3427 87.5597 96.8239H92.707V96.3622C92.707 93.7216 91.1374 92.8168 89.6602 92.8168C87.7397 92.8168 86.4656 94.331 86.4656 96.5099C86.4656 98.6889 87.7212 100.148 89.771 100.148ZM87.5597 95.8821C87.6335 94.7788 88.4137 93.7955 89.6602 93.7955C90.842 93.7955 91.5991 94.6818 91.5991 95.8821H87.5597ZM97.3374 100.148C98.7777 100.148 99.8303 99.4276 100.163 98.3565L99.1101 98.0611C98.8331 98.7997 98.1914 99.169 97.3374 99.169C96.0586 99.169 95.1768 98.3427 95.1261 96.8239H100.273V96.3622C100.273 93.7216 98.7038 92.8168 97.2266 92.8168C95.3061 92.8168 94.032 94.331 94.032 96.5099C94.032 98.6889 95.2876 100.148 97.3374 100.148ZM95.1261 95.8821C95.1999 94.7788 95.9801 93.7955 97.2266 93.7955C98.4084 93.7955 99.1655 94.6818 99.1655 95.8821H95.1261ZM108.468 100.148C110.037 100.148 111.071 99.1875 111.256 97.9318H110.167C109.963 98.7074 109.317 99.169 108.468 99.169C107.175 99.169 106.344 98.098 106.344 96.4545C106.344 94.848 107.194 93.7955 108.468 93.7955C109.428 93.7955 110 94.3864 110.167 95.0327H111.256C111.071 93.7031 109.945 92.8168 108.449 92.8168C106.529 92.8168 105.255 94.331 105.255 96.4915C105.255 98.6151 106.473 100.148 108.468 100.148ZM112.849 100H113.938V93.9247H117.336V100H118.425V92.9091H112.849V100ZM121.505 98.3935V92.9091H120.415V100H121.689L125.087 94.5156V100H126.176V92.9091H124.921L121.505 98.3935ZM131.053 100.148C132.622 100.148 133.656 99.1875 133.841 97.9318H132.752C132.548 98.7074 131.902 99.169 131.053 99.169C129.76 99.169 128.929 98.098 128.929 96.4545C128.929 94.848 129.778 93.7955 131.053 93.7955C132.013 93.7955 132.585 94.3864 132.752 95.0327H133.841C133.656 93.7031 132.53 92.8168 131.034 92.8168C129.114 92.8168 127.84 94.331 127.84 96.4915C127.84 98.6151 129.058 100.148 131.053 100.148ZM137.52 100.166C138.758 100.166 139.404 99.5014 139.625 99.0398H139.681V100H140.77V95.3281C140.77 93.0753 139.053 92.8168 138.148 92.8168C137.077 92.8168 135.858 93.1861 135.304 94.4787L136.339 94.848C136.579 94.331 137.146 93.777 138.185 93.777C139.187 93.777 139.681 94.3079 139.681 95.2173V95.2543C139.681 95.7805 139.145 95.7344 137.853 95.9006C136.537 96.0714 135.101 96.3622 135.101 97.9872C135.101 99.3722 136.172 100.166 137.52 100.166ZM137.687 99.1875C136.819 99.1875 136.191 98.7997 136.191 98.0426C136.191 97.2116 136.948 96.9531 137.797 96.8423C138.259 96.7869 139.496 96.6577 139.681 96.4361V97.4332C139.681 98.3196 138.979 99.1875 137.687 99.1875ZM143.848 92.9091H142.759V100H143.848V96.9716H147.246V100H148.336V92.9091H147.246V95.956H143.848V92.9091ZM151.415 98.3935V92.9091H150.325V100H151.599L154.997 94.5156V100H156.087V92.9091H154.831L151.415 98.3935ZM161.055 100.148C162.495 100.148 163.548 99.4276 163.88 98.3565L162.828 98.0611C162.551 98.7997 161.909 99.169 161.055 99.169C159.776 99.169 158.895 98.3427 158.844 96.8239H163.991V96.3622C163.991 93.7216 162.422 92.8168 160.944 92.8168C159.024 92.8168 157.75 94.331 157.75 96.5099C157.75 98.6889 159.005 100.148 161.055 100.148ZM158.844 95.8821C158.918 94.7788 159.698 93.7955 160.944 93.7955C162.126 93.7955 162.883 94.6818 162.883 95.8821H158.844ZM172.61 90.5455H171.465L169.102 92.1151V93.2784L171.41 91.7457H171.465V100H172.61V90.5455ZM175.108 98.0611H179.558V100H180.647V98.0611H181.94V97.0455H180.647V90.5455H179.263L175.108 97.1193V98.0611ZM179.558 97.0455H176.345V96.9716L179.484 92.0043H179.558V97.0455ZM188.434 98.3935V92.9091H187.345V100H188.619L192.017 94.5156V100H193.106V92.9091H191.85L188.434 98.3935ZM195.674 92.9091H194.585V100H195.674V97.027H197.493C197.687 98.9244 198.919 100.148 200.678 100.148C202.599 100.148 203.891 98.6889 203.891 96.4915C203.891 94.2756 202.599 92.8168 200.678 92.8168C198.901 92.8168 197.659 94.0678 197.488 96.0114H195.674V92.9091ZM200.678 99.169C199.22 99.169 198.555 97.9134 198.555 96.4915C198.555 95.0696 199.22 93.7955 200.678 93.7955C202.137 93.7955 202.802 95.0696 202.802 96.4915C202.802 97.9134 202.137 99.169 200.678 99.169ZM206.754 92.9091H205.664V100H206.754V96.9716H210.151V100H211.241V92.9091H210.151V95.956H206.754V92.9091ZM216.868 100H222.833V98.9844H218.438V98.9105L220.562 96.6392C222.187 94.8988 222.667 94.0863 222.667 93.0384C222.667 91.5795 221.485 90.4162 219.823 90.4162C218.166 90.4162 216.905 91.5426 216.905 93.2045H217.995C217.995 92.1289 218.692 91.4134 219.786 91.4134C220.811 91.4134 221.596 92.0412 221.596 93.0384C221.596 93.9109 221.083 94.5572 219.989 95.7528L216.868 99.169V100ZM227.823 100.129C229.91 100.129 231.11 98.3612 231.11 95.2727C231.11 92.2074 229.891 90.4162 227.823 90.4162C225.755 90.4162 224.536 92.2074 224.536 95.2727C224.536 98.3612 225.737 100.129 227.823 100.129ZM227.823 99.1136C226.448 99.1136 225.644 97.7333 225.644 95.2727C225.644 92.8168 226.457 91.4134 227.823 91.4134C229.19 91.4134 230.002 92.8168 230.002 95.2727C230.002 97.7333 229.199 99.1136 227.823 99.1136ZM232.864 100H238.829V98.9844H234.434V98.9105L236.558 96.6392C238.183 94.8988 238.663 94.0863 238.663 93.0384C238.663 91.5795 237.481 90.4162 235.819 90.4162C234.162 90.4162 232.901 91.5426 232.901 93.2045H233.991C233.991 92.1289 234.688 91.4134 235.782 91.4134C236.807 91.4134 237.592 92.0412 237.592 93.0384C237.592 93.9109 237.079 94.5572 235.985 95.7528L232.864 99.169V100ZM240.736 100H246.7V98.9844H242.305V98.9105L244.429 96.6392C246.054 94.8988 246.534 94.0863 246.534 93.0384C246.534 91.5795 245.352 90.4162 243.69 90.4162C242.033 90.4162 240.772 91.5426 240.772 93.2045H241.862C241.862 92.1289 242.559 91.4134 243.653 91.4134C244.678 91.4134 245.463 92.0412 245.463 93.0384C245.463 93.9109 244.95 94.5572 243.856 95.7528L240.736 99.169V100ZM250.25 98.7074H249.068L249.013 99.2244C248.879 100.475 248.616 101.722 248.496 102.308H249.327C249.548 101.68 250.019 100.259 250.176 99.206L250.25 98.7074ZM27.8778 120.148C29.7983 120.148 31.0909 118.689 31.0909 116.491C31.0909 114.276 29.7983 112.817 27.8778 112.817C25.9574 112.817 24.6648 114.276 24.6648 116.491C24.6648 118.689 25.9574 120.148 27.8778 120.148ZM27.8778 119.169C26.419 119.169 25.7543 117.913 25.7543 116.491C25.7543 115.07 26.419 113.795 27.8778 113.795C29.3366 113.795 30.0014 115.07 30.0014 116.491C30.0014 117.913 29.3366 119.169 27.8778 119.169ZM31.8272 113.925H34.1724V120H35.2619V113.925H37.5886V112.909H31.8272V113.925ZM43.0557 118.523L40.6182 112.909H39.1778V120H40.2673V114.474L42.6125 120H43.4988L45.844 114.576V120H46.9335V112.909H45.5301L43.0557 118.523ZM51.9008 120.148C53.3412 120.148 54.3937 119.428 54.7261 118.357L53.6736 118.061C53.3966 118.8 52.7549 119.169 51.9008 119.169C50.6221 119.169 49.7403 118.343 49.6895 116.824H54.8369V116.362C54.8369 113.722 53.2673 112.817 51.79 112.817C49.8696 112.817 48.5954 114.331 48.5954 116.51C48.5954 118.689 49.8511 120.148 51.9008 120.148ZM49.6895 115.882C49.7634 114.779 50.5436 113.795 51.79 113.795C52.9719 113.795 53.729 114.682 53.729 115.882H49.6895ZM57.5837 112.909H56.4942V120H57.5837V116.972H60.9814V120H62.0709V112.909H60.9814V115.956H57.5837V112.909ZM65.1501 118.393V112.909H64.0606V120H65.3348L68.7325 114.516V120H69.822V112.909H68.5663L65.1501 118.393ZM70.8526 113.925H73.1978V120H74.2873V113.925H76.614V112.909H70.8526V113.925ZM79.2927 115.476V112.909H78.2032V120H81.1762C82.8382 120 83.743 118.984 83.743 117.71C83.743 116.418 82.8382 115.476 81.1762 115.476H79.2927ZM79.2927 116.491H81.1762C82.0395 116.491 82.6535 117.018 82.6535 117.766C82.6535 118.481 82.0395 118.984 81.1762 118.984H79.2927V116.491ZM92.0307 120.148C93.4711 120.148 94.5236 119.428 94.856 118.357L93.8034 118.061C93.5265 118.8 92.8848 119.169 92.0307 119.169C90.752 119.169 89.8702 118.343 89.8194 116.824H94.9668V116.362C94.9668 113.722 93.3972 112.817 91.9199 112.817C89.9995 112.817 88.7253 114.331 88.7253 116.51C88.7253 118.689 89.981 120.148 92.0307 120.148ZM89.8194 115.882C89.8933 114.779 90.6735 113.795 91.9199 113.795C93.1017 113.795 93.8588 114.682 93.8588 115.882H89.8194ZM101.001 112.909H96.6241V120H97.7136V113.925H101.001V112.909ZM105.103 120.148C107.024 120.148 108.316 118.689 108.316 116.491C108.316 114.276 107.024 112.817 105.103 112.817C103.183 112.817 101.89 114.276 101.89 116.491C101.89 118.689 103.183 120.148 105.103 120.148ZM105.103 119.169C103.645 119.169 102.98 117.913 102.98 116.491C102.98 115.07 103.645 113.795 105.103 113.795C106.562 113.795 107.227 115.07 107.227 116.491C107.227 117.913 106.562 119.169 105.103 119.169ZM117.514 118.523L115.076 112.909H113.636V120H114.725V114.474L117.07 120H117.957L120.302 114.576V120H121.392V112.909H119.988L117.514 118.523ZM126.267 120.148C128.187 120.148 129.48 118.689 129.48 116.491C129.48 114.276 128.187 112.817 126.267 112.817C124.346 112.817 123.053 114.276 123.053 116.491C123.053 118.689 124.346 120.148 126.267 120.148ZM126.267 119.169C124.808 119.169 124.143 117.913 124.143 116.491C124.143 115.07 124.808 113.795 126.267 113.795C127.725 113.795 128.39 115.07 128.39 116.491C128.39 117.913 127.725 119.169 126.267 119.169ZM130.407 120H131.719L134.138 116.953H134.692V120H135.781V116.953H136.335L138.736 120H140.047L137.184 116.399L140.01 112.909H138.717L136.354 115.938H135.781V112.909H134.692V115.938H134.101L131.737 112.909H130.444L133.288 116.399L130.407 120ZM142.693 112.909H141.604V120H142.693V116.972H146.091V120H147.18V112.909H146.091V115.956H142.693V112.909ZM152.051 120.148C153.971 120.148 155.264 118.689 155.264 116.491C155.264 114.276 153.971 112.817 152.051 112.817C150.13 112.817 148.838 114.276 148.838 116.491C148.838 118.689 150.13 120.148 152.051 120.148ZM152.051 119.169C150.592 119.169 149.927 117.913 149.927 116.491C149.927 115.07 150.592 113.795 152.051 113.795C153.509 113.795 154.174 115.07 154.174 116.491C154.174 117.913 153.509 119.169 152.051 119.169ZM160.583 120H163.925C165.366 120 166.234 119.188 166.234 118.098C166.234 116.985 165.389 116.385 164.609 116.27C165.407 116.104 165.975 115.656 165.975 114.793C165.975 113.662 165.006 112.909 163.482 112.909H160.583V120ZM161.617 119.003V116.824H163.925C164.673 116.824 165.126 117.272 165.126 118.006C165.126 118.624 164.673 119.003 163.925 119.003H161.617ZM161.617 115.882V113.906H163.482C164.355 113.906 164.886 114.271 164.886 114.866C164.886 115.499 164.355 115.882 163.482 115.882H161.617ZM170.911 120H171.281C172.85 120 173.303 118.781 173.404 116.455L173.515 113.925H176.119V120H177.208V112.909H172.481L172.352 116.048C172.259 118.43 172.019 118.984 171.17 118.984H170.911V120ZM179.78 112.909H178.69V120H179.78V117.027H181.598C181.792 118.924 183.025 120.148 184.784 120.148C186.704 120.148 187.997 118.689 187.997 116.491C187.997 114.276 186.704 112.817 184.784 112.817C183.006 112.817 181.765 114.068 181.594 116.011H179.78V112.909ZM184.784 119.169C183.325 119.169 182.66 117.913 182.66 116.491C182.66 115.07 183.325 113.795 184.784 113.795C186.243 113.795 186.907 115.07 186.907 116.491C186.907 117.913 186.243 119.169 184.784 119.169ZM195.032 110.25C194.686 110.541 194.169 110.541 193.444 110.536C193.209 110.536 192.95 110.536 192.669 110.545C190.508 110.601 189.437 112.244 189.437 115.402V116.159C189.437 118.781 190.711 120.148 192.613 120.148C194.511 120.148 195.771 118.772 195.771 116.547C195.771 114.312 194.492 113.131 192.835 113.131C191.861 113.131 190.951 113.537 190.471 114.423H190.379C190.527 112.595 191.21 111.616 192.687 111.561C193.998 111.506 194.94 111.543 195.586 110.915L195.032 110.25ZM192.613 119.169C191.321 119.169 190.527 118.135 190.527 116.547C190.55 114.996 191.33 114.109 192.595 114.109C193.892 114.109 194.682 114.996 194.682 116.547C194.682 118.144 193.897 119.169 192.613 119.169ZM200.318 120.148C202.239 120.148 203.531 118.689 203.531 116.491C203.531 114.276 202.239 112.817 200.318 112.817C198.398 112.817 197.105 114.276 197.105 116.491C197.105 118.689 198.398 120.148 200.318 120.148ZM200.318 119.169C198.859 119.169 198.195 117.913 198.195 116.491C198.195 115.07 198.859 113.795 200.318 113.795C201.777 113.795 202.442 115.07 202.442 116.491C202.442 117.913 201.777 119.169 200.318 119.169ZM206.284 118.393V112.909H205.194V120H206.469L209.866 114.516V120H210.956V112.909H209.7L206.284 118.393ZM208.98 110.545C208.98 111.026 208.721 111.45 208.075 111.45C207.429 111.45 207.189 111.026 207.189 110.545H206.173C206.173 111.543 206.912 112.244 208.075 112.244C209.257 112.244 209.996 111.543 209.996 110.545H208.98ZM220.485 118.523L218.048 112.909H216.608V120H217.697V114.474L220.042 120H220.929L223.274 114.576V120H224.363V112.909H222.96L220.485 118.523ZM229.238 120.148C231.159 120.148 232.451 118.689 232.451 116.491C232.451 114.276 231.159 112.817 229.238 112.817C227.318 112.817 226.025 114.276 226.025 116.491C226.025 118.689 227.318 120.148 229.238 120.148ZM229.238 119.169C227.779 119.169 227.115 117.913 227.115 116.491C227.115 115.07 227.779 113.795 229.238 113.795C230.697 113.795 231.362 115.07 231.362 116.491C231.362 117.913 230.697 119.169 229.238 119.169ZM237.992 118.523L235.555 112.909H234.114V120H235.204V114.474L237.549 120H238.435L240.781 114.576V120H241.87V112.909H240.467L237.992 118.523ZM246.837 120.148C248.278 120.148 249.33 119.428 249.663 118.357L248.61 118.061C248.333 118.8 247.691 119.169 246.837 119.169C245.559 119.169 244.677 118.343 244.626 116.824H249.773V116.362C249.773 113.722 248.204 112.817 246.727 112.817C244.806 112.817 243.532 114.331 243.532 116.51C243.532 118.689 244.788 120.148 246.837 120.148ZM244.626 115.882C244.7 114.779 245.48 113.795 246.727 113.795C247.908 113.795 248.665 114.682 248.665 115.882H244.626ZM252.52 112.909H251.431V120H252.52V116.972H255.918V120H257.007V112.909H255.918V115.956H252.52V112.909ZM258.032 113.925H260.377V120H261.467V113.925H263.794V112.909H258.032V113.925Z" fill="#8A8F94"/>
<rect x="24" y="141" width="288" height="232" rx="10" fill="#1D1E20"/>
<rect x="40" y="157" width="256" height="48" rx="10" fill="white" fill-opacity="0.04"/>
<path d="M57.4972 187V174.636H58.9943V180.142H65.5866V174.636H67.0838V187H65.5866V181.47H58.9943V187H57.4972ZM73.655 187.193C72.8179 187.193 72.0834 186.994 71.4515 186.596C70.8237 186.197 70.3327 185.64 69.9785 184.923C69.6284 184.207 69.4533 183.37 69.4533 182.412C69.4533 181.446 69.6284 180.603 69.9785 179.882C70.3327 179.162 70.8237 178.603 71.4515 178.204C72.0834 177.806 72.8179 177.607 73.655 177.607C74.4921 177.607 75.2246 177.806 75.8525 178.204C76.4843 178.603 76.9753 179.162 77.3255 179.882C77.6796 180.603 77.8567 181.446 77.8567 182.412C77.8567 183.37 77.6796 184.207 77.3255 184.923C76.9753 185.64 76.4843 186.197 75.8525 186.596C75.2246 186.994 74.4921 187.193 73.655 187.193ZM73.655 185.913C74.2909 185.913 74.8141 185.75 75.2246 185.424C75.6351 185.098 75.939 184.67 76.1362 184.138C76.3334 183.607 76.432 183.032 76.432 182.412C76.432 181.792 76.3334 181.215 76.1362 180.679C75.939 180.144 75.6351 179.711 75.2246 179.381C74.8141 179.051 74.2909 178.886 73.655 178.886C73.0191 178.886 72.4959 179.051 72.0854 179.381C71.6749 179.711 71.371 180.144 71.1738 180.679C70.9766 181.215 70.878 181.792 70.878 182.412C70.878 183.032 70.9766 183.607 71.1738 184.138C71.371 184.67 71.6749 185.098 72.0854 185.424C72.4959 185.75 73.0191 185.913 73.655 185.913ZM85.1025 185.068L88.3383 177.727H89.6906L85.6821 187H84.523L80.5869 177.727H81.915L85.1025 185.068ZM81.4562 177.727V187H80.0315V177.727H81.4562ZM88.7488 187V177.727H90.1736V187H88.7488ZM96.6693 187.193C95.7758 187.193 95.0051 186.996 94.3572 186.602C93.7132 186.203 93.2162 185.648 92.866 184.935C92.5199 184.219 92.3469 183.386 92.3469 182.436C92.3469 181.486 92.5199 180.649 92.866 179.925C93.2162 179.196 93.7032 178.629 94.327 178.222C94.9548 177.812 95.6873 177.607 96.5244 177.607C97.0074 177.607 97.4843 177.687 97.9552 177.848C98.426 178.009 98.8547 178.271 99.241 178.633C99.6274 178.991 99.9353 179.466 100.165 180.058C100.394 180.649 100.509 181.378 100.509 182.243V182.847H93.3611V181.615H99.0599C99.0599 181.092 98.9553 180.625 98.746 180.214C98.5407 179.804 98.247 179.48 97.8646 179.243C97.4863 179.005 97.0396 178.886 96.5244 178.886C95.9569 178.886 95.4659 179.027 95.0514 179.309C94.6409 179.587 94.325 179.949 94.1036 180.396C93.8823 180.842 93.7716 181.321 93.7716 181.832V182.653C93.7716 183.354 93.8923 183.947 94.1338 184.434C94.3793 184.917 94.7194 185.286 95.154 185.539C95.5887 185.789 96.0938 185.913 96.6693 185.913C97.0436 185.913 97.3817 185.861 97.6835 185.756C97.9894 185.648 98.253 185.487 98.4743 185.273C98.6957 185.056 98.8667 184.786 98.9875 184.464L100.364 184.851C100.219 185.318 99.9755 185.728 99.6334 186.082C99.2913 186.433 98.8688 186.706 98.3657 186.903C97.8626 187.097 97.2971 187.193 96.6693 187.193ZM102.676 190.477V177.727H104.052V179.2H104.222C104.326 179.039 104.471 178.834 104.656 178.585C104.845 178.331 105.115 178.106 105.465 177.908C105.819 177.707 106.298 177.607 106.902 177.607C107.683 177.607 108.371 177.802 108.967 178.192C109.562 178.583 110.027 179.136 110.361 179.852C110.695 180.569 110.862 181.414 110.862 182.388C110.862 183.37 110.695 184.221 110.361 184.941C110.027 185.658 109.564 186.213 108.973 186.608C108.381 186.998 107.699 187.193 106.926 187.193C106.33 187.193 105.853 187.095 105.495 186.897C105.137 186.696 104.861 186.469 104.668 186.215C104.475 185.958 104.326 185.744 104.222 185.575H104.101V190.477H102.676ZM104.077 182.364C104.077 183.064 104.179 183.682 104.384 184.217C104.59 184.748 104.89 185.165 105.284 185.467C105.678 185.764 106.161 185.913 106.733 185.913C107.329 185.913 107.826 185.756 108.224 185.442C108.626 185.125 108.928 184.698 109.13 184.163C109.335 183.623 109.437 183.024 109.437 182.364C109.437 181.712 109.337 181.124 109.136 180.601C108.938 180.074 108.639 179.657 108.236 179.351C107.838 179.041 107.337 178.886 106.733 178.886C106.153 178.886 105.666 179.033 105.272 179.327C104.878 179.617 104.58 180.023 104.378 180.547C104.177 181.066 104.077 181.671 104.077 182.364ZM117.817 187V177.727H119.241V181.76H120.183L123.516 177.727H125.351L121.608 182.195L125.399 187H123.564L120.521 183.088H119.241V187H117.817ZM129.676 187.217C129.089 187.217 128.555 187.107 128.076 186.885C127.598 186.66 127.217 186.336 126.935 185.913C126.654 185.487 126.513 184.972 126.513 184.368C126.513 183.837 126.618 183.406 126.827 183.076C127.036 182.742 127.316 182.48 127.666 182.291C128.016 182.102 128.402 181.961 128.825 181.869C129.252 181.772 129.68 181.696 130.111 181.639C130.674 181.567 131.131 181.512 131.481 181.476C131.835 181.436 132.093 181.37 132.254 181.277C132.419 181.184 132.502 181.023 132.502 180.794V180.746C132.502 180.15 132.339 179.687 132.013 179.357C131.691 179.027 131.202 178.862 130.546 178.862C129.865 178.862 129.332 179.011 128.946 179.309C128.559 179.607 128.288 179.925 128.131 180.263L126.778 179.78C127.02 179.216 127.342 178.778 127.744 178.464C128.151 178.146 128.594 177.924 129.073 177.8C129.555 177.671 130.03 177.607 130.497 177.607C130.795 177.607 131.137 177.643 131.524 177.715C131.914 177.784 132.29 177.926 132.652 178.144C133.019 178.361 133.323 178.689 133.564 179.128C133.805 179.567 133.926 180.154 133.926 180.891V187H132.502V185.744H132.429C132.332 185.946 132.171 186.161 131.946 186.39C131.721 186.62 131.421 186.815 131.047 186.976C130.672 187.137 130.216 187.217 129.676 187.217ZM129.894 185.938C130.457 185.938 130.932 185.827 131.318 185.605C131.709 185.384 132.002 185.098 132.2 184.748C132.401 184.398 132.502 184.03 132.502 183.643V182.339C132.441 182.412 132.308 182.478 132.103 182.539C131.902 182.595 131.668 182.645 131.403 182.69C131.141 182.73 130.886 182.766 130.636 182.798C130.391 182.826 130.191 182.851 130.038 182.871C129.668 182.919 129.322 182.998 129 183.106C128.682 183.211 128.425 183.37 128.227 183.583C128.034 183.792 127.938 184.078 127.938 184.44C127.938 184.935 128.121 185.31 128.487 185.563C128.857 185.813 129.326 185.938 129.894 185.938ZM136.527 190.477V177.727H137.903V179.2H138.072C138.177 179.039 138.322 178.834 138.507 178.585C138.696 178.331 138.966 178.106 139.316 177.908C139.67 177.707 140.149 177.607 140.752 177.607C141.533 177.607 142.221 177.802 142.817 178.192C143.413 178.583 143.878 179.136 144.212 179.852C144.546 180.569 144.713 181.414 144.713 182.388C144.713 183.37 144.546 184.221 144.212 184.941C143.878 185.658 143.415 186.213 142.823 186.608C142.232 186.998 141.549 187.193 140.777 187.193C140.181 187.193 139.704 187.095 139.346 186.897C138.988 186.696 138.712 186.469 138.519 186.215C138.326 185.958 138.177 185.744 138.072 185.575H137.951V190.477H136.527ZM137.927 182.364C137.927 183.064 138.03 183.682 138.235 184.217C138.44 184.748 138.74 185.165 139.135 185.467C139.529 185.764 140.012 185.913 140.583 185.913C141.179 185.913 141.676 185.756 142.075 185.442C142.477 185.125 142.779 184.698 142.98 184.163C143.185 183.623 143.288 183.024 143.288 182.364C143.288 181.712 143.187 181.124 142.986 180.601C142.789 180.074 142.489 179.657 142.087 179.351C141.688 179.041 141.187 178.886 140.583 178.886C140.004 178.886 139.517 179.033 139.123 179.327C138.728 179.617 138.43 180.023 138.229 180.547C138.028 181.066 137.927 181.671 137.927 182.364ZM145.674 179.055V177.727H153.208V179.055H150.166V187H148.741V179.055H145.674ZM156.518 181.084H159.174C160.261 181.084 161.092 181.359 161.667 181.911C162.243 182.462 162.531 183.161 162.531 184.006C162.531 184.561 162.402 185.066 162.144 185.521C161.887 185.972 161.508 186.332 161.009 186.602C160.51 186.867 159.899 187 159.174 187H155.286V177.727H156.711V185.672H159.174C159.738 185.672 160.2 185.523 160.563 185.225C160.925 184.927 161.106 184.545 161.106 184.078C161.106 183.587 160.925 183.187 160.563 182.877C160.2 182.567 159.738 182.412 159.174 182.412H156.518V181.084ZM164.004 187V177.727H165.428V187H164.004Z" fill="#8A8F94"/>
<rect x="40.5" y="157.5" width="255" height="47" rx="9.5" stroke="white" stroke-opacity="0.08"/>
<rect x="40" y="213" width="256" height="48" rx="10" fill="white" fill-opacity="0.04"/>
<path d="M57.4972 230.636H58.9702V240.368H59.0909L65.8523 230.636H67.3011V243H65.804V233.293H65.6832L58.946 243H57.4972V230.636ZM75.1748 241.068L78.4106 233.727H79.7629L75.7544 243H74.5953L70.6592 233.727H71.9873L75.1748 241.068ZM71.5285 233.727V243H70.1038V233.727H71.5285ZM78.8211 243V233.727H80.2458V243H78.8211ZM88.4319 243V235.031H85.9688C85.4134 235.031 84.9768 235.16 84.6588 235.418C84.3409 235.675 84.1819 236.029 84.1819 236.48C84.1819 236.923 84.3248 237.271 84.6105 237.525C84.9003 237.778 85.2967 237.905 85.7998 237.905H88.7941V239.233H85.7998C85.172 239.233 84.6307 239.122 84.1759 238.901C83.7211 238.68 83.3709 238.364 83.1254 237.953C82.8799 237.539 82.7572 237.048 82.7572 236.48C82.7572 235.909 82.886 235.418 83.1436 235.007C83.4011 234.597 83.7694 234.281 84.2483 234.059C84.7313 233.838 85.3048 233.727 85.9688 233.727H89.7842V243H88.4319ZM82.2501 243L84.8822 238.388H86.4276L83.7955 243H82.2501ZM103.387 237.712V239.04H98.2676V237.712H103.387ZM98.6056 233.727V243H97.1809V233.727H98.6056ZM104.474 233.727V243H103.049V233.727H104.474ZM109.804 243.217C109.217 243.217 108.683 243.107 108.204 242.885C107.725 242.66 107.345 242.336 107.063 241.913C106.782 241.487 106.641 240.972 106.641 240.368C106.641 239.837 106.745 239.406 106.955 239.076C107.164 238.742 107.444 238.48 107.794 238.291C108.144 238.102 108.53 237.961 108.953 237.869C109.38 237.772 109.808 237.696 110.239 237.639C110.802 237.567 111.259 237.512 111.609 237.476C111.963 237.436 112.221 237.37 112.382 237.277C112.547 237.184 112.629 237.023 112.629 236.794V236.746C112.629 236.15 112.466 235.687 112.14 235.357C111.818 235.027 111.329 234.862 110.673 234.862C109.993 234.862 109.46 235.011 109.074 235.309C108.687 235.607 108.416 235.925 108.259 236.263L106.906 235.78C107.148 235.216 107.47 234.778 107.872 234.464C108.279 234.146 108.722 233.924 109.2 233.8C109.683 233.671 110.158 233.607 110.625 233.607C110.923 233.607 111.265 233.643 111.651 233.715C112.042 233.784 112.418 233.926 112.78 234.144C113.147 234.361 113.45 234.689 113.692 235.128C113.933 235.567 114.054 236.154 114.054 236.891V243H112.629V241.744H112.557C112.46 241.946 112.299 242.161 112.074 242.39C111.849 242.62 111.549 242.815 111.175 242.976C110.8 243.137 110.343 243.217 109.804 243.217ZM110.021 241.938C110.585 241.938 111.06 241.827 111.446 241.605C111.837 241.384 112.13 241.098 112.328 240.748C112.529 240.398 112.629 240.03 112.629 239.643V238.339C112.569 238.412 112.436 238.478 112.231 238.539C112.03 238.595 111.796 238.645 111.531 238.69C111.269 238.73 111.014 238.766 110.764 238.798C110.519 238.826 110.319 238.851 110.166 238.871C109.796 238.919 109.45 238.998 109.128 239.106C108.81 239.211 108.552 239.37 108.355 239.583C108.162 239.792 108.066 240.078 108.066 240.44C108.066 240.935 108.249 241.31 108.615 241.563C108.985 241.813 109.454 241.938 110.021 241.938ZM121.436 243V233.727H122.861V237.76H123.802L127.135 233.727H128.97L125.227 238.195L129.018 243H127.183L124.14 239.088H122.861V243H121.436ZM133.295 243.217C132.708 243.217 132.175 243.107 131.696 242.885C131.217 242.66 130.836 242.336 130.555 241.913C130.273 241.487 130.132 240.972 130.132 240.368C130.132 239.837 130.237 239.406 130.446 239.076C130.655 238.742 130.935 238.48 131.285 238.291C131.635 238.102 132.022 237.961 132.444 237.869C132.871 237.772 133.299 237.696 133.73 237.639C134.293 237.567 134.75 237.512 135.1 237.476C135.455 237.436 135.712 237.37 135.873 237.277C136.038 237.184 136.121 237.023 136.121 236.794V236.746C136.121 236.15 135.958 235.687 135.632 235.357C135.31 235.027 134.821 234.862 134.165 234.862C133.485 234.862 132.951 235.011 132.565 235.309C132.179 235.607 131.907 235.925 131.75 236.263L130.398 235.78C130.639 235.216 130.961 234.778 131.364 234.464C131.77 234.146 132.213 233.924 132.692 233.8C133.175 233.671 133.65 233.607 134.116 233.607C134.414 233.607 134.756 233.643 135.143 233.715C135.533 233.784 135.909 233.926 136.272 234.144C136.638 234.361 136.942 234.689 137.183 235.128C137.425 235.567 137.545 236.154 137.545 236.891V243H136.121V241.744H136.048C135.952 241.946 135.791 242.161 135.565 242.39C135.34 242.62 135.04 242.815 134.666 242.976C134.291 243.137 133.835 243.217 133.295 243.217ZM133.513 241.938C134.076 241.938 134.551 241.827 134.937 241.605C135.328 241.384 135.622 241.098 135.819 240.748C136.02 240.398 136.121 240.03 136.121 239.643V238.339C136.06 238.412 135.927 238.478 135.722 238.539C135.521 238.595 135.288 238.645 135.022 238.69C134.76 238.73 134.505 238.766 134.255 238.798C134.01 238.826 133.811 238.851 133.658 238.871C133.287 238.919 132.941 238.998 132.619 239.106C132.301 239.211 132.044 239.37 131.847 239.583C131.653 239.792 131.557 240.078 131.557 240.44C131.557 240.935 131.74 241.31 132.106 241.563C132.476 241.813 132.945 241.938 133.513 241.938ZM140.146 246.477V233.727H141.522V235.2H141.691C141.796 235.039 141.941 234.834 142.126 234.585C142.315 234.331 142.585 234.106 142.935 233.908C143.289 233.707 143.768 233.607 144.372 233.607C145.152 233.607 145.841 233.802 146.436 234.192C147.032 234.583 147.497 235.136 147.831 235.852C148.165 236.569 148.332 237.414 148.332 238.388C148.332 239.37 148.165 240.221 147.831 240.941C147.497 241.658 147.034 242.213 146.442 242.608C145.851 242.998 145.169 243.193 144.396 243.193C143.8 243.193 143.323 243.095 142.965 242.897C142.607 242.696 142.331 242.469 142.138 242.215C141.945 241.958 141.796 241.744 141.691 241.575H141.57V246.477H140.146ZM141.546 238.364C141.546 239.064 141.649 239.682 141.854 240.217C142.059 240.748 142.359 241.165 142.754 241.467C143.148 241.764 143.631 241.913 144.203 241.913C144.798 241.913 145.295 241.756 145.694 241.442C146.096 241.125 146.398 240.698 146.599 240.163C146.805 239.623 146.907 239.024 146.907 238.364C146.907 237.712 146.807 237.124 146.605 236.601C146.408 236.074 146.108 235.657 145.706 235.351C145.307 235.041 144.806 234.886 144.203 234.886C143.623 234.886 143.136 235.033 142.742 235.327C142.347 235.617 142.049 236.023 141.848 236.547C141.647 237.066 141.546 237.671 141.546 238.364ZM149.293 235.055V233.727H156.827V235.055H153.785V243H152.36V235.055H149.293ZM162.312 243.193C161.418 243.193 160.648 242.996 160 242.602C159.356 242.203 158.859 241.648 158.509 240.935C158.162 240.219 157.989 239.386 157.989 238.436C157.989 237.486 158.162 236.649 158.509 235.925C158.859 235.196 159.346 234.629 159.97 234.222C160.597 233.812 161.33 233.607 162.167 233.607C162.65 233.607 163.127 233.687 163.598 233.848C164.069 234.009 164.497 234.271 164.884 234.633C165.27 234.991 165.578 235.466 165.807 236.058C166.037 236.649 166.151 237.378 166.151 238.243V238.847H159.004V237.615H164.703C164.703 237.092 164.598 236.625 164.389 236.214C164.183 235.804 163.89 235.48 163.507 235.243C163.129 235.005 162.682 234.886 162.167 234.886C161.6 234.886 161.109 235.027 160.694 235.309C160.283 235.587 159.968 235.949 159.746 236.396C159.525 236.842 159.414 237.321 159.414 237.832V238.653C159.414 239.354 159.535 239.947 159.776 240.434C160.022 240.917 160.362 241.286 160.797 241.539C161.231 241.789 161.736 241.913 162.312 241.913C162.686 241.913 163.024 241.861 163.326 241.756C163.632 241.648 163.896 241.487 164.117 241.273C164.338 241.056 164.509 240.786 164.63 240.464L166.006 240.851C165.862 241.318 165.618 241.728 165.276 242.082C164.934 242.433 164.511 242.706 164.008 242.903C163.505 243.097 162.94 243.193 162.312 243.193Z" fill="#8A8F94"/>
<rect x="40.5" y="213.5" width="255" height="47" rx="9.5" stroke="white" stroke-opacity="0.08"/>
<rect x="40" y="269" width="122" height="48" rx="10" fill="white" fill-opacity="0.04"/>
<path d="M67.446 290.5H65.9489C65.8603 290.069 65.7054 289.691 65.484 289.365C65.2667 289.039 65.0011 288.765 64.6871 288.544C64.3772 288.319 64.0331 288.15 63.6548 288.037C63.2765 287.924 62.8821 287.868 62.4716 287.868C61.723 287.868 61.0449 288.057 60.4371 288.435C59.8335 288.814 59.3525 289.371 58.9943 290.108C58.6402 290.844 58.4631 291.748 58.4631 292.818C58.4631 293.889 58.6402 294.792 58.9943 295.529C59.3525 296.265 59.8335 296.823 60.4371 297.201C61.0449 297.579 61.723 297.768 62.4716 297.768C62.8821 297.768 63.2765 297.712 63.6548 297.599C64.0331 297.487 64.3772 297.32 64.6871 297.098C65.0011 296.873 65.2667 296.597 65.484 296.271C65.7054 295.941 65.8603 295.563 65.9489 295.136H67.446C67.3333 295.768 67.1281 296.334 66.8303 296.833C66.5324 297.332 66.1622 297.756 65.7195 298.107C65.2768 298.453 64.7797 298.716 64.2283 298.897C63.681 299.078 63.0954 299.169 62.4716 299.169C61.4171 299.169 60.4794 298.911 59.6584 298.396C58.8374 297.881 58.1914 297.149 57.7205 296.199C57.2496 295.249 57.0142 294.122 57.0142 292.818C57.0142 291.514 57.2496 290.387 57.7205 289.438C58.1914 288.488 58.8374 287.755 59.6584 287.24C60.4794 286.725 61.4171 286.467 62.4716 286.467C63.0954 286.467 63.681 286.558 64.2283 286.739C64.7797 286.92 65.2768 287.186 65.7195 287.536C66.1622 287.882 66.5324 288.305 66.8303 288.804C67.1281 289.299 67.3333 289.864 67.446 290.5ZM69.6721 302.477V289.727H71.0486V291.2H71.2176C71.3222 291.039 71.4671 290.834 71.6523 290.585C71.8414 290.331 72.1111 290.106 72.4612 289.908C72.8154 289.707 73.2943 289.607 73.898 289.607C74.6788 289.607 75.367 289.802 75.9626 290.192C76.5583 290.583 77.0231 291.136 77.3572 291.852C77.6912 292.569 77.8582 293.414 77.8582 294.388C77.8582 295.37 77.6912 296.221 77.3572 296.941C77.0231 297.658 76.5603 298.213 75.9687 298.608C75.377 298.998 74.6949 299.193 73.9221 299.193C73.3265 299.193 72.8496 299.095 72.4914 298.897C72.1332 298.696 71.8575 298.469 71.6643 298.215C71.4711 297.958 71.3222 297.744 71.2176 297.575H71.0969V302.477H69.6721ZM71.0727 294.364C71.0727 295.064 71.1753 295.682 71.3806 296.217C71.5858 296.748 71.8857 297.165 72.2801 297.467C72.6745 297.764 73.1575 297.913 73.729 297.913C74.3246 297.913 74.8216 297.756 75.2201 297.442C75.6225 297.125 75.9244 296.698 76.1256 296.163C76.3309 295.623 76.4335 295.024 76.4335 294.364C76.4335 293.712 76.3329 293.124 76.1317 292.601C75.9345 292.074 75.6346 291.657 75.2322 291.351C74.8337 291.041 74.3327 290.886 73.729 290.886C73.1494 290.886 72.6624 291.033 72.268 291.327C71.8736 291.617 71.5758 292.023 71.3746 292.547C71.1733 293.066 71.0727 293.671 71.0727 294.364ZM83.7986 299.193C82.9614 299.193 82.2269 298.994 81.5951 298.596C80.9672 298.197 80.4762 297.64 80.1221 296.923C79.7719 296.207 79.5969 295.37 79.5969 294.412C79.5969 293.446 79.7719 292.603 80.1221 291.882C80.4762 291.162 80.9672 290.603 81.5951 290.204C82.2269 289.806 82.9614 289.607 83.7986 289.607C84.6357 289.607 85.3682 289.806 85.996 290.204C86.6279 290.603 87.1189 291.162 87.469 291.882C87.8232 292.603 88.0003 293.446 88.0003 294.412C88.0003 295.37 87.8232 296.207 87.469 296.923C87.1189 297.64 86.6279 298.197 85.996 298.596C85.3682 298.994 84.6357 299.193 83.7986 299.193ZM83.7986 297.913C84.4345 297.913 84.9577 297.75 85.3682 297.424C85.7787 297.098 86.0825 296.67 86.2797 296.138C86.4769 295.607 86.5756 295.032 86.5756 294.412C86.5756 293.792 86.4769 293.215 86.2797 292.679C86.0825 292.144 85.7787 291.711 85.3682 291.381C84.9577 291.051 84.4345 290.886 83.7986 290.886C83.1627 290.886 82.6395 291.051 82.229 291.381C81.8184 291.711 81.5146 292.144 81.3174 292.679C81.1202 293.215 81.0216 293.792 81.0216 294.412C81.0216 295.032 81.1202 295.607 81.3174 296.138C81.5146 296.67 81.8184 297.098 82.229 297.424C82.6395 297.75 83.1627 297.913 83.7986 297.913ZM90.1751 299V289.727H91.5998V293.76H92.5415L95.8739 289.727H97.7092L93.9663 294.195L97.7575 299H95.9222L92.8796 295.088H91.5998V299H90.1751ZM103.097 301.656V297.672H103.87C104.059 297.475 104.222 297.261 104.359 297.032C104.496 296.803 104.614 296.531 104.715 296.217C104.82 295.899 104.908 295.513 104.981 295.058C105.053 294.599 105.117 294.046 105.174 293.398L105.488 289.727H111.38V297.672H112.805V301.656H111.38V299H104.522V301.656H103.097ZM105.488 297.672H109.955V291.055H106.816L106.574 293.398C106.474 294.368 106.349 295.215 106.2 295.939C106.051 296.664 105.814 297.241 105.488 297.672ZM118.463 299.193C117.626 299.193 116.891 298.994 116.259 298.596C115.631 298.197 115.14 297.64 114.786 296.923C114.436 296.207 114.261 295.37 114.261 294.412C114.261 293.446 114.436 292.603 114.786 291.882C115.14 291.162 115.631 290.603 116.259 290.204C116.891 289.806 117.626 289.607 118.463 289.607C119.3 289.607 120.032 289.806 120.66 290.204C121.292 290.603 121.783 291.162 122.133 291.882C122.487 292.603 122.664 293.446 122.664 294.412C122.664 295.37 122.487 296.207 122.133 296.923C121.783 297.64 121.292 298.197 120.66 298.596C120.032 298.994 119.3 299.193 118.463 299.193ZM118.463 297.913C119.099 297.913 119.622 297.75 120.032 297.424C120.443 297.098 120.747 296.67 120.944 296.138C121.141 295.607 121.24 295.032 121.24 294.412C121.24 293.792 121.141 293.215 120.944 292.679C120.747 292.144 120.443 291.711 120.032 291.381C119.622 291.051 119.099 290.886 118.463 290.886C117.827 290.886 117.304 291.051 116.893 291.381C116.483 291.711 116.179 292.144 115.981 292.679C115.784 293.215 115.686 293.792 115.686 294.412C115.686 295.032 115.784 295.607 115.981 296.138C116.179 296.67 116.483 297.098 116.893 297.424C117.304 297.75 117.827 297.913 118.463 297.913Z" fill="#8A8F94"/>
<rect x="40.5" y="269.5" width="121" height="47" rx="9.5" stroke="white" stroke-opacity="0.08"/>
<rect x="174" y="269" width="122" height="48" rx="10" fill="white" fill-opacity="0.04"/>
<path d="M201.446 290.5H199.949C199.86 290.069 199.705 289.691 199.484 289.365C199.267 289.039 199.001 288.765 198.687 288.544C198.377 288.319 198.033 288.15 197.655 288.037C197.277 287.924 196.882 287.868 196.472 287.868C195.723 287.868 195.045 288.057 194.437 288.435C193.833 288.814 193.353 289.371 192.994 290.108C192.64 290.844 192.463 291.748 192.463 292.818C192.463 293.889 192.64 294.792 192.994 295.529C193.353 296.265 193.833 296.823 194.437 297.201C195.045 297.579 195.723 297.768 196.472 297.768C196.882 297.768 197.277 297.712 197.655 297.599C198.033 297.487 198.377 297.32 198.687 297.098C199.001 296.873 199.267 296.597 199.484 296.271C199.705 295.941 199.86 295.563 199.949 295.136H201.446C201.333 295.768 201.128 296.334 200.83 296.833C200.532 297.332 200.162 297.756 199.719 298.107C199.277 298.453 198.78 298.716 198.228 298.897C197.681 299.078 197.095 299.169 196.472 299.169C195.417 299.169 194.479 298.911 193.658 298.396C192.837 297.881 192.191 297.149 191.721 296.199C191.25 295.249 191.014 294.122 191.014 292.818C191.014 291.514 191.25 290.387 191.721 289.438C192.191 288.488 192.837 287.755 193.658 287.24C194.479 286.725 195.417 286.467 196.472 286.467C197.095 286.467 197.681 286.558 198.228 286.739C198.78 286.92 199.277 287.186 199.719 287.536C200.162 287.882 200.532 288.305 200.83 288.804C201.128 289.299 201.333 289.864 201.446 290.5ZM204.372 286.636L208.043 297.044H208.188L211.858 286.636H213.428L208.888 299H207.343L202.803 286.636H204.372ZM224.721 290.5H223.224C223.136 290.069 222.981 289.691 222.759 289.365C222.542 289.039 222.276 288.765 221.963 288.544C221.653 288.319 221.309 288.15 220.93 288.037C220.552 287.924 220.157 287.868 219.747 287.868C218.998 287.868 218.32 288.057 217.713 288.435C217.109 288.814 216.628 289.371 216.27 290.108C215.916 290.844 215.738 291.748 215.738 292.818C215.738 293.889 215.916 294.792 216.27 295.529C216.628 296.265 217.109 296.823 217.713 297.201C218.32 297.579 218.998 297.768 219.747 297.768C220.157 297.768 220.552 297.712 220.93 297.599C221.309 297.487 221.653 297.32 221.963 297.098C222.276 296.873 222.542 296.597 222.759 296.271C222.981 295.941 223.136 295.563 223.224 295.136H224.721C224.609 295.768 224.403 296.334 224.106 296.833C223.808 297.332 223.438 297.756 222.995 298.107C222.552 298.453 222.055 298.716 221.504 298.897C220.956 299.078 220.371 299.169 219.747 299.169C218.693 299.169 217.755 298.911 216.934 298.396C216.113 297.881 215.467 297.149 214.996 296.199C214.525 295.249 214.29 294.122 214.29 292.818C214.29 291.514 214.525 290.387 214.996 289.438C215.467 288.488 216.113 287.755 216.934 287.24C217.755 286.725 218.693 286.467 219.747 286.467C220.371 286.467 220.956 286.558 221.504 286.739C222.055 286.92 222.552 287.186 222.995 287.536C223.438 287.882 223.808 288.305 224.106 288.804C224.403 289.299 224.609 289.864 224.721 290.5Z" fill="#8A8F94"/>
<rect x="174.5" y="269.5" width="121" height="47" rx="9.5" stroke="white" stroke-opacity="0.08"/>
<path fill-rule="evenodd" clip-rule="evenodd" d="M62.5613 352.915C63.307 352.915 63.9463 353.521 63.9463 354.284C63.9463 354.29 63.9448 354.298 63.9432 354.306C63.9381 354.332 63.9322 354.363 63.9729 354.363V356.743H40.002V354.363V354.258C40.002 353.521 40.6145 352.889 41.3869 352.889H42.3724V342.033H40.002V339.955C40.002 339.77 40.0819 339.56 40.1884 339.402L40.3482 339.218L50.6291 333.348C50.7245 333.29 50.8147 333.232 50.9023 333.175C51.2548 332.945 51.5661 332.743 52.0141 332.743C52.4741 332.743 52.8261 332.974 53.1737 333.203C53.2487 333.252 53.3234 333.301 53.399 333.348L63.5734 339.218L63.7332 339.376C63.8663 339.533 63.9463 339.744 63.9463 339.955V342.033H61.6531V352.889L62.5613 352.915ZM53.1473 352.872V342.807H50.8275V352.872H53.1473ZM56.2403 342.807V352.872H58.5601L58.6194 342.807H56.2403ZM59.3334 339.71L52.0141 335.452L44.6415 339.744L59.3334 339.71ZM47.7526 342.807H45.4147V352.889L47.7345 352.872L47.7526 342.807ZM73.2523 343.035C73.2523 342.483 73.7001 342.035 74.2523 342.035H124.06C124.613 342.035 125.06 342.483 125.06 343.035V351.874C125.06 352.426 124.613 352.874 124.06 352.874H74.2523C73.7001 352.874 73.2523 352.426 73.2523 351.874V343.035ZM131.247 343.035C131.247 342.483 131.695 342.035 132.247 342.035H172.003C172.556 342.035 173.003 342.483 173.003 343.035V351.874C173.003 352.426 172.556 352.874 172.003 352.874H132.247C131.695 352.874 131.247 352.426 131.247 351.874V343.035Z" fill="#8A8F94"/>
<path d="M24 399C24 393.477 28.4772 389 34 389H302C307.523 389 312 393.477 312 399V427C312 432.523 307.523 437 302 437H34C28.4771 437 24 432.523 24 427V399Z" fill="url(#paint0_linear_1840_29317)"/>
<path fill-rule="evenodd" clip-rule="evenodd" d="M90.4997 410.5H95.4997V409.667C95.4997 408.286 94.3804 407.167 92.9997 407.167C91.619 407.167 90.4997 408.286 90.4997 409.667V410.5ZM88.833 410.5H88.333C87.2284 410.5 86.333 411.395 86.333 412.5V418.5C86.333 419.605 87.2284 420.5 88.333 420.5H97.6663C98.7709 420.5 99.6663 419.605 99.6663 418.5V412.5C99.6663 411.395 98.7709 410.5 97.6663 410.5H97.1663V409.667C97.1663 407.365 95.3009 405.5 92.9997 405.5C90.6985 405.5 88.833 407.365 88.833 409.667V410.5ZM93.833 416.11C94.3312 415.822 94.6663 415.284 94.6663 414.667C94.6663 413.746 93.9201 413 92.9997 413C92.0792 413 91.333 413.746 91.333 414.667C91.333 415.284 91.6682 415.822 92.1663 416.11V417.167C92.1663 417.627 92.5394 418 92.9997 418C93.4599 418 93.833 417.627 93.833 417.167V416.11Z" fill="white"/>
<path d="M121.449 412.818C121.449 414.15 121.199 415.291 120.7 416.241C120.205 417.187 119.529 417.911 118.672 418.414C117.818 418.917 116.851 419.169 115.768 419.169C114.685 419.169 113.715 418.917 112.858 418.414C112.005 417.907 111.329 417.181 110.83 416.235C110.335 415.285 110.087 414.146 110.087 412.818C110.087 411.486 110.335 410.347 110.83 409.401C111.329 408.451 112.005 407.725 112.858 407.222C113.715 406.719 114.685 406.467 115.768 406.467C116.851 406.467 117.818 406.719 118.672 407.222C119.529 407.725 120.205 408.451 120.7 409.401C121.199 410.347 121.449 411.486 121.449 412.818ZM119.197 412.818C119.197 411.88 119.05 411.09 118.756 410.446C118.466 409.798 118.064 409.309 117.549 408.979C117.034 408.645 116.44 408.478 115.768 408.478C115.096 408.478 114.502 408.645 113.987 408.979C113.472 409.309 113.067 409.798 112.774 410.446C112.484 411.09 112.339 411.88 112.339 412.818C112.339 413.756 112.484 414.549 112.774 415.197C113.067 415.841 113.472 416.33 113.987 416.664C114.502 416.994 115.096 417.159 115.768 417.159C116.44 417.159 117.034 416.994 117.549 416.664C118.064 416.33 118.466 415.841 118.756 415.197C119.05 414.549 119.197 413.756 119.197 412.818ZM123.47 419V409.727H131.299V419H129.193V411.52H125.558V419H123.47ZM132.907 419L132.895 417.201H133.215C133.456 417.201 133.659 417.147 133.824 417.038C133.989 416.929 134.126 416.748 134.235 416.495C134.344 416.237 134.428 415.891 134.488 415.456C134.549 415.022 134.591 414.48 134.615 413.832L134.778 409.727H141.54V419H139.427V411.52H136.764L136.619 414.509C136.583 415.281 136.497 415.951 136.36 416.519C136.227 417.082 136.038 417.547 135.792 417.913C135.551 418.28 135.247 418.553 134.881 418.734C134.515 418.911 134.082 419 133.583 419H132.907ZM146.408 419.187C145.821 419.187 145.292 419.083 144.821 418.873C144.354 418.66 143.984 418.346 143.71 417.931C143.44 417.517 143.305 417.006 143.305 416.398C143.305 415.875 143.402 415.442 143.595 415.1C143.788 414.758 144.052 414.484 144.386 414.279C144.72 414.074 145.096 413.919 145.515 413.814C145.938 413.706 146.374 413.627 146.825 413.579C147.368 413.522 147.809 413.472 148.147 413.428C148.485 413.38 148.731 413.307 148.884 413.211C149.04 413.11 149.119 412.955 149.119 412.746V412.71C149.119 412.255 148.984 411.903 148.714 411.653C148.445 411.404 148.056 411.279 147.549 411.279C147.014 411.279 146.589 411.395 146.276 411.629C145.966 411.862 145.756 412.138 145.648 412.456L143.607 412.166C143.768 411.603 144.034 411.132 144.404 410.754C144.774 410.371 145.227 410.085 145.762 409.896C146.298 409.703 146.889 409.607 147.537 409.607C147.984 409.607 148.429 409.659 148.871 409.763C149.314 409.868 149.719 410.041 150.085 410.283C150.451 410.52 150.745 410.844 150.966 411.255C151.192 411.665 151.304 412.178 151.304 412.794V419H149.203V417.726H149.131C148.998 417.984 148.811 418.225 148.57 418.451C148.332 418.672 148.032 418.851 147.67 418.988C147.312 419.121 146.891 419.187 146.408 419.187ZM146.976 417.581C147.415 417.581 147.795 417.495 148.117 417.322C148.439 417.145 148.686 416.911 148.859 416.621C149.036 416.332 149.125 416.016 149.125 415.674V414.581C149.057 414.637 148.94 414.69 148.775 414.738C148.614 414.786 148.433 414.828 148.232 414.865C148.03 414.901 147.831 414.933 147.634 414.961C147.437 414.989 147.266 415.014 147.121 415.034C146.795 415.078 146.503 415.15 146.245 415.251C145.988 415.352 145.785 415.493 145.636 415.674C145.487 415.851 145.412 416.08 145.412 416.362C145.412 416.764 145.559 417.068 145.853 417.273C146.147 417.479 146.521 417.581 146.976 417.581ZM152.463 411.52V409.727H160.577V411.52H157.577V419H155.464V411.52H152.463ZM164.424 416.042L168.137 409.727H170.383V419H168.27V412.679L164.569 419H162.317V409.727H164.424V416.042ZM171.588 411.52V409.727H179.702V411.52H176.702V419H174.589V411.52H171.588ZM182.921 412.746H185.656C186.839 412.746 187.755 413.033 188.403 413.609C189.051 414.185 189.377 414.939 189.381 415.873C189.377 416.481 189.228 417.02 188.934 417.491C188.644 417.962 188.222 418.332 187.666 418.602C187.115 418.867 186.445 419 185.656 419H181.442V409.727H183.549V417.207H185.656C186.131 417.207 186.521 417.086 186.827 416.845C187.133 416.599 187.286 416.285 187.286 415.903C187.286 415.501 187.133 415.173 186.827 414.919C186.521 414.665 186.131 414.539 185.656 414.539H182.921V412.746ZM200.475 406.636V419H198.235V408.816H198.163L195.271 410.663V408.61L198.344 406.636H200.475ZM203.391 416.706V414.925L208.637 406.636H210.122V409.172H209.217L205.685 414.768V414.865H213.008V416.706H203.391ZM209.289 419V416.163L209.313 415.366V406.636H211.426V419H209.289ZM219.229 406.467C219.82 406.471 220.396 406.576 220.955 406.781C221.519 406.982 222.026 407.312 222.477 407.771C222.927 408.226 223.286 408.836 223.551 409.6C223.817 410.365 223.95 411.311 223.95 412.438C223.954 413.5 223.841 414.45 223.612 415.287C223.386 416.12 223.062 416.825 222.64 417.4C222.217 417.976 221.708 418.414 221.112 418.716C220.517 419.018 219.847 419.169 219.102 419.169C218.321 419.169 217.629 419.016 217.025 418.71C216.426 418.404 215.941 417.986 215.57 417.455C215.2 416.923 214.973 416.316 214.888 415.631H217.092C217.204 416.122 217.434 416.513 217.78 416.803C218.13 417.088 218.571 417.231 219.102 417.231C219.959 417.231 220.619 416.859 221.082 416.114C221.545 415.37 221.776 414.335 221.776 413.011H221.692C221.495 413.366 221.239 413.671 220.925 413.929C220.611 414.183 220.255 414.378 219.857 414.515C219.462 414.651 219.044 414.72 218.601 414.72C217.877 414.72 217.225 414.547 216.645 414.201C216.07 413.855 215.613 413.38 215.275 412.776C214.941 412.172 214.772 411.482 214.768 410.705C214.768 409.9 214.953 409.178 215.323 408.538C215.697 407.894 216.218 407.387 216.887 407.017C217.555 406.642 218.335 406.459 219.229 406.467ZM219.235 408.278C218.8 408.278 218.408 408.385 218.058 408.598C217.712 408.808 217.438 409.093 217.237 409.456C217.039 409.814 216.941 410.214 216.941 410.657C216.945 411.096 217.044 411.494 217.237 411.852C217.434 412.21 217.702 412.494 218.04 412.703C218.382 412.913 218.772 413.017 219.211 413.017C219.537 413.017 219.841 412.955 220.122 412.83C220.404 412.705 220.65 412.532 220.859 412.311C221.072 412.086 221.237 411.83 221.354 411.544C221.475 411.259 221.533 410.957 221.529 410.639C221.529 410.216 221.428 409.826 221.227 409.468C221.03 409.109 220.758 408.822 220.412 408.604C220.07 408.387 219.678 408.278 219.235 408.278ZM230.53 419.235C229.536 419.235 228.683 418.984 227.97 418.481C227.262 417.974 226.717 417.243 226.334 416.289C225.956 415.332 225.767 414.179 225.767 412.83C225.771 411.482 225.962 410.335 226.34 409.389C226.723 408.439 227.268 407.715 227.976 407.216C228.689 406.717 229.54 406.467 230.53 406.467C231.52 406.467 232.371 406.717 233.084 407.216C233.796 407.715 234.341 408.439 234.72 409.389C235.102 410.339 235.293 411.486 235.293 412.83C235.293 414.183 235.102 415.338 234.72 416.295C234.341 417.249 233.796 417.978 233.084 418.481C232.375 418.984 231.524 419.235 230.53 419.235ZM230.53 417.346C231.303 417.346 231.912 416.966 232.359 416.205C232.81 415.44 233.035 414.315 233.035 412.83C233.035 411.848 232.933 411.023 232.727 410.355C232.522 409.687 232.232 409.184 231.858 408.846C231.484 408.504 231.041 408.333 230.53 408.333C229.761 408.333 229.154 408.715 228.707 409.48C228.26 410.24 228.035 411.357 228.031 412.83C228.027 413.816 228.125 414.645 228.327 415.317C228.532 415.99 228.822 416.497 229.196 416.839C229.57 417.177 230.015 417.346 230.53 417.346ZM247.631 414.346H241.153V412.504H247.583C248.102 412.504 248.529 412.422 248.863 412.257C249.201 412.092 249.45 411.862 249.611 411.569C249.776 411.275 249.857 410.931 249.853 410.536C249.857 410.15 249.776 409.804 249.611 409.498C249.45 409.188 249.205 408.944 248.875 408.767C248.549 408.586 248.134 408.496 247.631 408.496H245.204V419H242.971V406.636H247.631C248.589 406.636 249.4 406.809 250.064 407.156C250.728 407.498 251.231 407.962 251.573 408.55C251.919 409.134 252.092 409.79 252.092 410.518C252.092 411.275 251.917 411.941 251.567 412.516C251.217 413.088 250.71 413.537 250.046 413.863C249.382 414.185 248.577 414.346 247.631 414.346ZM247.915 415.263V417.104H241.153V415.263H247.915Z" fill="white"/>
<path d="M25.1449 462H26.2898V457.771H31.331V462H32.4759V452.545H31.331V456.756H26.2898V452.545H25.1449V462ZM36.7069 462.166C37.9441 462.166 38.5904 461.501 38.812 461.04H38.8674V462H39.9569V457.328C39.9569 455.075 38.2395 454.817 37.3347 454.817C36.2637 454.817 35.0449 455.186 34.4909 456.479L35.525 456.848C35.7651 456.331 36.3329 455.777 37.3716 455.777C38.3734 455.777 38.8674 456.308 38.8674 457.217V457.254C38.8674 457.781 38.3319 457.734 37.0392 457.901C35.7235 458.071 34.2878 458.362 34.2878 459.987C34.2878 461.372 35.3588 462.166 36.7069 462.166ZM36.873 461.188C36.0051 461.188 35.3773 460.8 35.3773 460.043C35.3773 459.212 36.1344 458.953 36.9838 458.842C37.4455 458.787 38.6827 458.658 38.8674 458.436V459.433C38.8674 460.32 38.1657 461.188 36.873 461.188ZM41.5022 462H42.8133L45.2323 458.953H45.7863V462H46.8758V458.953H47.4298L49.8303 462H51.1414L48.2792 458.399L51.1045 454.909H49.8119L47.4482 457.938H46.8758V454.909H45.7863V457.938H45.1954L42.8318 454.909H41.5392L44.3829 458.399L41.5022 462ZM53.7878 460.393V454.909H52.6983V462H53.9725L57.3702 456.516V462H58.4597V454.909H57.204L53.7878 460.393ZM64.333 460.523L61.8955 454.909H60.4552V462H61.5447V456.474L63.8898 462H64.7762L67.1214 456.576V462H68.2108V454.909H66.8074L64.333 460.523ZM72.2918 462.166C73.529 462.166 74.1753 461.501 74.3969 461.04H74.4523V462H75.5418V457.328C75.5418 455.075 73.8245 454.817 72.9197 454.817C71.8486 454.817 70.6299 455.186 70.0759 456.479L71.11 456.848C71.3501 456.331 71.9179 455.777 72.9566 455.777C73.9584 455.777 74.4523 456.308 74.4523 457.217V457.254C74.4523 457.781 73.9168 457.734 72.6242 457.901C71.3085 458.071 69.8728 458.362 69.8728 459.987C69.8728 461.372 70.9438 462.166 72.2918 462.166ZM72.458 461.188C71.5901 461.188 70.9623 460.8 70.9623 460.043C70.9623 459.212 71.7194 458.953 72.5688 458.842C73.0305 458.787 74.2677 458.658 74.4523 458.436V459.433C74.4523 460.32 73.7506 461.188 72.458 461.188ZM81.796 462H82.8301V454.909H79.9125C78.3844 454.909 77.4565 455.708 77.4565 457.014C77.4565 457.988 77.9458 458.681 78.7999 458.972L77.0687 462H78.2505L79.894 459.119H81.796V462ZM81.796 458.104H79.7832C79.0123 458.104 78.546 457.693 78.546 457.014C78.546 456.326 79.063 455.906 79.9125 455.906H81.796V458.104ZM89.5759 454.909H88.4864V462H89.5759V458.972H92.9736V462H94.0631V454.909H92.9736V457.956H89.5759V454.909ZM98.1395 462.166C99.3767 462.166 100.023 461.501 100.245 461.04H100.3V462H101.389V457.328C101.389 455.075 99.6721 454.817 98.7673 454.817C97.6963 454.817 96.4775 455.186 95.9236 456.479L96.9577 456.848C97.1977 456.331 97.7655 455.777 98.8042 455.777C99.806 455.777 100.3 456.308 100.3 457.217V457.254C100.3 457.781 99.7645 457.734 98.4719 457.901C97.1562 458.071 95.7204 458.362 95.7204 459.987C95.7204 461.372 96.7915 462.166 98.1395 462.166ZM98.3057 461.188C97.4378 461.188 96.8099 460.8 96.8099 460.043C96.8099 459.212 97.567 458.953 98.4165 458.842C98.8781 458.787 100.115 458.658 100.3 458.436V459.433C100.3 460.32 99.5983 461.188 98.3057 461.188ZM107.034 462H108.124V459.009H109.102L111.429 462H112.833L109.933 458.325L112.796 454.909H111.392L108.844 457.993H108.124V454.909H107.034V462ZM115.106 454.909H114.017V462H115.106V458.972H118.504V462H119.593V454.909H118.504V457.956H115.106V454.909ZM124.464 462.148C126.384 462.148 127.677 460.689 127.677 458.491C127.677 456.276 126.384 454.817 124.464 454.817C122.543 454.817 121.251 456.276 121.251 458.491C121.251 460.689 122.543 462.148 124.464 462.148ZM124.464 461.169C123.005 461.169 122.34 459.913 122.34 458.491C122.34 457.07 123.005 455.795 124.464 455.795C125.923 455.795 126.587 457.07 126.587 458.491C126.587 459.913 125.923 461.169 124.464 461.169ZM129.34 462H130.429V455.925H133.827V462H134.917V454.909H129.34V462ZM136.906 462H137.996V459.009H138.975L141.301 462H142.705L139.805 458.325L142.668 454.909H141.264L138.716 457.993H137.996V454.909H136.906V462ZM144.59 464.659C145.574 464.659 146.266 464.137 146.677 463.034L149.696 454.928L148.505 454.909L146.548 460.56H146.474L144.517 454.909H143.335L145.957 462.037L145.754 462.591C145.357 463.671 144.867 463.773 144.073 463.57L143.796 464.53C143.907 464.585 144.221 464.659 144.59 464.659ZM152.318 460.707H151.137L151.081 461.224C150.947 462.475 150.684 463.722 150.564 464.308H151.395C151.617 463.68 152.088 462.259 152.245 461.206L152.318 460.707ZM157.993 462H161.336C162.776 462 163.644 461.188 163.644 460.098C163.644 458.985 162.799 458.385 162.019 458.27C162.817 458.104 163.385 457.656 163.385 456.793C163.385 455.662 162.416 454.909 160.892 454.909H157.993V462ZM159.027 461.003V458.824H161.336C162.083 458.824 162.536 459.272 162.536 460.006C162.536 460.624 162.083 461.003 161.336 461.003H159.027ZM159.027 457.882V455.906H160.892C161.765 455.906 162.296 456.271 162.296 456.866C162.296 457.499 161.765 457.882 160.892 457.882H159.027ZM166.383 457.476V454.909H165.293V462H168.266C169.928 462 170.833 460.984 170.833 459.71C170.833 458.418 169.928 457.476 168.266 457.476H166.383ZM171.959 462H173.049V454.909H171.959V462ZM166.383 458.491H168.266C169.129 458.491 169.743 459.018 169.743 459.766C169.743 460.481 169.129 460.984 168.266 460.984H166.383V458.491ZM181.58 462.148C183.15 462.148 184.184 461.188 184.368 459.932H183.279C183.076 460.707 182.429 461.169 181.58 461.169C180.287 461.169 179.456 460.098 179.456 458.455C179.456 456.848 180.306 455.795 181.58 455.795C182.54 455.795 183.113 456.386 183.279 457.033H184.368C184.184 455.703 183.057 454.817 181.562 454.817C179.641 454.817 178.367 456.331 178.367 458.491C178.367 460.615 179.586 462.148 181.58 462.148ZM188.842 462.148C190.762 462.148 192.055 460.689 192.055 458.491C192.055 456.276 190.762 454.817 188.842 454.817C186.921 454.817 185.629 456.276 185.629 458.491C185.629 460.689 186.921 462.148 188.842 462.148ZM188.842 461.169C187.383 461.169 186.718 459.913 186.718 458.491C186.718 457.07 187.383 455.795 188.842 455.795C190.301 455.795 190.965 457.07 190.965 458.491C190.965 459.913 190.301 461.169 188.842 461.169ZM198.094 454.909H193.718V462H194.807V455.925H198.094V454.909ZM198.46 462H198.829C200.399 462 200.851 460.781 200.953 458.455L201.064 455.925H203.668V462H204.757V454.909H200.03L199.9 458.048C199.808 460.43 199.568 460.984 198.719 460.984H198.46V462ZM208.843 462.166C210.08 462.166 210.726 461.501 210.948 461.04H211.003V462H212.093V457.328C212.093 455.075 210.375 454.817 209.47 454.817C208.399 454.817 207.181 455.186 206.627 456.479L207.661 456.848C207.901 456.331 208.469 455.777 209.507 455.777C210.509 455.777 211.003 456.308 211.003 457.217V457.254C211.003 457.781 210.468 457.734 209.175 457.901C207.859 458.071 206.424 458.362 206.424 459.987C206.424 461.372 207.495 462.166 208.843 462.166ZM209.009 461.188C208.141 461.188 207.513 460.8 207.513 460.043C207.513 459.212 208.27 458.953 209.12 458.842C209.581 458.787 210.818 458.658 211.003 458.436V459.433C211.003 460.32 210.301 461.188 209.009 461.188ZM214.081 454.909V462H222.705V454.909H221.615V460.984H218.938V454.909H217.848V460.984H215.171V454.909H214.081ZM226.781 462.166C228.018 462.166 228.665 461.501 228.886 461.04H228.942V462H230.031V457.328C230.031 455.075 228.314 454.817 227.409 454.817C226.338 454.817 225.119 455.186 224.565 456.479L225.599 456.848C225.839 456.331 226.407 455.777 227.446 455.777C228.448 455.777 228.942 456.308 228.942 457.217V457.254C228.942 457.781 228.406 457.734 227.113 457.901C225.798 458.071 224.362 458.362 224.362 459.987C224.362 461.372 225.433 462.166 226.781 462.166ZM226.947 461.188C226.079 461.188 225.452 460.8 225.452 460.043C225.452 459.212 226.209 458.953 227.058 458.842C227.52 458.787 228.757 458.658 228.942 458.436V459.433C228.942 460.32 228.24 461.188 226.947 461.188ZM234.993 462.148C236.433 462.148 237.486 461.428 237.818 460.357L236.765 460.061C236.488 460.8 235.847 461.169 234.993 461.169C233.714 461.169 232.832 460.343 232.781 458.824H237.929V458.362C237.929 455.722 236.359 454.817 234.882 454.817C232.961 454.817 231.687 456.331 231.687 458.51C231.687 460.689 232.943 462.148 234.993 462.148ZM232.781 457.882C232.855 456.779 233.635 455.795 234.882 455.795C236.064 455.795 236.821 456.682 236.821 457.882H232.781ZM238.926 455.925H241.271V462H242.361V455.925H244.687V454.909H238.926V455.925ZM248.881 462.148C250.322 462.148 251.374 461.428 251.707 460.357L250.654 460.061C250.377 460.8 249.735 461.169 248.881 461.169C247.603 461.169 246.721 460.343 246.67 458.824H251.817V458.362C251.817 455.722 250.248 454.817 248.771 454.817C246.85 454.817 245.576 456.331 245.576 458.51C245.576 460.689 246.832 462.148 248.881 462.148ZM246.67 457.882C246.744 456.779 247.524 455.795 248.771 455.795C249.952 455.795 250.709 456.682 250.709 457.882H246.67ZM256.355 462.148C257.925 462.148 258.959 461.188 259.144 459.932H258.054C257.851 460.707 257.205 461.169 256.355 461.169C255.063 461.169 254.232 460.098 254.232 458.455C254.232 456.848 255.081 455.795 256.355 455.795C257.316 455.795 257.888 456.386 258.054 457.033H259.144C258.959 455.703 257.833 454.817 256.337 454.817C254.416 454.817 253.142 456.331 253.142 458.491C253.142 460.615 254.361 462.148 256.355 462.148ZM261.826 457.476V454.909H260.736V462H263.709C265.371 462 266.276 460.984 266.276 459.71C266.276 458.418 265.371 457.476 263.709 457.476H261.826ZM261.826 458.491H263.709C264.573 458.491 265.187 459.018 265.187 459.766C265.187 460.481 264.573 460.984 263.709 460.984H261.826V458.491Z" fill="#8A8F94"/>
<path d="M27.8778 478.148C29.4474 478.148 30.4815 477.188 30.6662 475.932H29.5767C29.3736 476.707 28.7273 477.169 27.8778 477.169C26.5852 477.169 25.7543 476.098 25.7543 474.455C25.7543 472.848 26.6037 471.795 27.8778 471.795C28.8381 471.795 29.4105 472.386 29.5767 473.033H30.6662C30.4815 471.703 29.3551 470.817 27.8594 470.817C25.9389 470.817 24.6648 472.331 24.6648 474.491C24.6648 476.615 25.8835 478.148 27.8778 478.148ZM35.158 480.031H36.2475V478H41.4918V480.031H42.5813V476.984H41.4918V470.909H36.9862L36.7461 473.716C36.5753 475.701 36.3214 476.384 35.7489 476.984H35.158V480.031ZM36.9862 476.984C37.4847 476.329 37.6648 475.198 37.8171 473.716L38.0018 471.925H40.4023V476.984H36.9862ZM43.3996 478H43.7689C45.3385 478 45.7909 476.781 45.8925 474.455L46.0033 471.925H48.607V478H49.6965V470.909H44.9692L44.8399 474.048C44.7476 476.43 44.5075 476.984 43.6581 476.984H43.3996V478ZM52.7849 476.393V470.909H51.6954V478H52.9695L56.3673 472.516V478H57.4568V470.909H56.2011L52.7849 476.393ZM60.5417 470.909H59.4522V478H60.5417V474.972H63.9395V478H65.0289V470.909H63.9395V473.956H60.5417V470.909ZM68.1081 470.909H67.0186V478H68.1081V474.972H71.5059V478H72.5953V470.909H71.5059V473.956H68.1081V470.909ZM75.6745 473.476V470.909H74.585V478H77.5581C79.22 478 80.1248 476.984 80.1248 475.71C80.1248 474.418 79.22 473.476 77.5581 473.476H75.6745ZM81.2512 478H82.3407V470.909H81.2512V478ZM75.6745 474.491H77.5581C78.4213 474.491 79.0353 475.018 79.0353 475.766C79.0353 476.481 78.4213 476.984 77.5581 476.984H75.6745V474.491ZM88.2129 476.523L85.7754 470.909H84.335V478H85.4245V472.474L87.7697 478H88.6561L91.0012 472.576V478H92.0907V470.909H90.6873L88.2129 476.523ZM98.3137 470.909H97.2243V478H98.3137V475.027H100.133C100.327 476.924 101.559 478.148 103.318 478.148C105.238 478.148 106.531 476.689 106.531 474.491C106.531 472.276 105.238 470.817 103.318 470.817C101.541 470.817 100.299 472.068 100.128 474.011H98.3137V470.909ZM103.318 477.169C101.859 477.169 101.194 475.913 101.194 474.491C101.194 473.07 101.859 471.795 103.318 471.795C104.777 471.795 105.442 473.07 105.442 474.491C105.442 475.913 104.777 477.169 103.318 477.169ZM108.304 480.659H109.393V476.911H109.486C109.726 477.298 110.187 478.148 111.554 478.148C113.327 478.148 114.564 476.726 114.564 474.473C114.564 472.239 113.327 470.817 111.535 470.817C110.15 470.817 109.726 471.666 109.486 472.036H109.356V470.909H108.304V480.659ZM109.375 474.455C109.375 472.866 110.077 471.795 111.406 471.795C112.791 471.795 113.474 472.959 113.474 474.455C113.474 475.969 112.773 477.169 111.406 477.169C110.095 477.169 109.375 476.061 109.375 474.455ZM117.315 476.393V470.909H116.226V478H117.5L120.898 472.516V478H121.987V470.909H120.731L117.315 476.393ZM123.225 480.031H124.315V478H129.559V480.031H130.649V476.984H129.559V470.909H125.054L124.813 473.716C124.643 475.701 124.389 476.384 123.816 476.984H123.225V480.031ZM125.054 476.984C125.552 476.329 125.732 475.198 125.884 473.716L126.069 471.925H128.47V476.984H125.054ZM133.184 476.393V470.909H132.095V478H133.369L136.767 472.516V478H137.856V470.909H136.6L133.184 476.393ZM145.318 470.909H144.228V474.505C143.702 474.658 143.162 474.75 142.511 474.75C141.624 474.75 140.941 474.251 140.941 473.162V470.891H139.852V473.162C139.852 474.898 140.904 475.766 142.511 475.766C143.18 475.766 143.716 475.678 144.228 475.526V478H145.318V470.909ZM150.29 478.148C151.73 478.148 152.782 477.428 153.115 476.357L152.062 476.061C151.785 476.8 151.144 477.169 150.29 477.169C149.011 477.169 148.129 476.343 148.078 474.824H153.226V474.362C153.226 471.722 151.656 470.817 150.179 470.817C148.258 470.817 146.984 472.331 146.984 474.51C146.984 476.689 148.24 478.148 150.29 478.148ZM148.078 473.882C148.152 472.779 148.932 471.795 150.179 471.795C151.361 471.795 152.118 472.682 152.118 473.882H148.078ZM157.764 478.148C159.333 478.148 160.367 477.188 160.552 475.932H159.462C159.259 476.707 158.613 477.169 157.764 477.169C156.471 477.169 155.64 476.098 155.64 474.455C155.64 472.848 156.489 471.795 157.764 471.795C158.724 471.795 159.296 472.386 159.462 473.033H160.552C160.367 471.703 159.241 470.817 157.745 470.817C155.825 470.817 154.551 472.331 154.551 474.491C154.551 476.615 155.769 478.148 157.764 478.148ZM162.145 478H163.234V475.009H164.213L166.54 478H167.943L165.044 474.325L167.906 470.909H166.503L163.954 473.993H163.234V470.909H162.145V478ZM170.217 476.393V470.909H169.127V478H170.401L173.799 472.516V478H174.888V470.909H173.633L170.217 476.393ZM180.762 476.523L178.324 470.909H176.884V478H177.973V472.474L180.319 478H181.205L183.55 472.576V478H184.64V470.909H183.236L180.762 476.523ZM189.884 471.925H192.229V478H193.319V471.925H195.645V470.909H189.884V471.925ZM199.839 478.148C201.28 478.148 202.332 477.428 202.665 476.357L201.612 476.061C201.335 476.8 200.693 477.169 199.839 477.169C198.561 477.169 197.679 476.343 197.628 474.824H202.775V474.362C202.775 471.722 201.206 470.817 199.729 470.817C197.808 470.817 196.534 472.331 196.534 474.51C196.534 476.689 197.79 478.148 199.839 478.148ZM197.628 473.882C197.702 472.779 198.482 471.795 199.729 471.795C200.91 471.795 201.667 472.682 201.667 473.882H197.628ZM204.433 478H205.522V475.009H206.501L208.828 478H210.231L207.332 474.325L210.194 470.909H208.791L206.242 473.993H205.522V470.909H204.433V478ZM214.004 478.148C215.573 478.148 216.608 477.188 216.792 475.932H215.703C215.5 476.707 214.853 477.169 214.004 477.169C212.711 477.169 211.88 476.098 211.88 474.455C211.88 472.848 212.73 471.795 214.004 471.795C214.964 471.795 215.536 472.386 215.703 473.033H216.792C216.608 471.703 215.481 470.817 213.985 470.817C212.065 470.817 210.791 472.331 210.791 474.491C210.791 476.615 212.009 478.148 214.004 478.148ZM217.826 471.925H220.171V478H221.261V471.925H223.588V470.909H217.826V471.925ZM227.689 478.148C229.61 478.148 230.902 476.689 230.902 474.491C230.902 472.276 229.61 470.817 227.689 470.817C225.769 470.817 224.476 472.276 224.476 474.491C224.476 476.689 225.769 478.148 227.689 478.148ZM227.689 477.169C226.231 477.169 225.566 475.913 225.566 474.491C225.566 473.07 226.231 471.795 227.689 471.795C229.148 471.795 229.813 473.07 229.813 474.491C229.813 475.913 229.148 477.169 227.689 477.169ZM236.443 476.523L234.006 470.909H232.566V478H233.655V472.474L236 478H236.887L239.232 472.576V478H240.321V470.909H238.918L236.443 476.523Z" fill="#1781F3"/>
<defs>
<linearGradient id="paint0_linear_1840_29317" x1="24" y1="413" x2="312" y2="413" gradientUnits="userSpaceOnUse">
<stop stop-color="#A266EB"/>
<stop offset="1" stop-color="#20A0FF"/>
</linearGradient>
</defs>
</svg>
