<svg width="288" height="523" viewBox="0 0 288 523" fill="none" xmlns="http://www.w3.org/2000/svg">
<g opacity="0.3">
<path d="M9.48153 4.09091H1.34233V15H2.66335V5.26278H8.16051V15H9.48153V4.09091ZM15.2996 15.1705C17.5155 15.1705 19.007 13.4872 19.007 10.9517C19.007 8.39489 17.5155 6.71165 15.2996 6.71165C13.0837 6.71165 11.5922 8.39489 11.5922 10.9517C11.5922 13.4872 13.0837 15.1705 15.2996 15.1705ZM15.2996 14.0412C13.6164 14.0412 12.8493 12.5923 12.8493 10.9517C12.8493 9.31108 13.6164 7.84091 15.2996 7.84091C16.9829 7.84091 17.7499 9.31108 17.7499 10.9517C17.7499 12.5923 16.9829 14.0412 15.2996 14.0412ZM20.0524 17.3438H21.3095V15H27.3606V17.3438H28.6177V13.8281H27.3606V6.81818H22.1618L21.8848 10.0568C21.6877 12.3473 21.3947 13.1357 20.7342 13.8281H20.0524V17.3438ZM22.1618 13.8281C22.737 13.0717 22.9448 11.7667 23.1206 10.0568L23.3336 7.99006H26.1035V13.8281H22.1618ZM30.2863 15H31.5434V7.99006H35.4639V15H36.721V6.81818H30.2863V15ZM40.2739 13.1463V6.81818H39.0168V15H40.4869L44.4074 8.67188V15H45.6645V6.81818H44.2156L40.2739 13.1463ZM51.2908 15.1705C53.1019 15.1705 54.2951 14.0625 54.5082 12.6136H53.2511C53.0167 13.5085 52.271 14.0412 51.2908 14.0412C49.7994 14.0412 48.8406 12.8054 48.8406 10.9091C48.8406 9.0554 49.8207 7.84091 51.2908 7.84091C52.3988 7.84091 53.0593 8.52273 53.2511 9.26847H54.5082C54.2951 7.73438 52.9954 6.71165 51.2695 6.71165C49.0536 6.71165 47.5835 8.45881 47.5835 10.9517C47.5835 13.402 48.9897 15.1705 51.2908 15.1705ZM56.3459 15H57.603V11.5483H58.7322L61.4169 15H63.0362L59.6911 10.7599L62.9936 6.81818H61.3743L58.4339 10.3764H57.603V6.81818H56.3459V15ZM66.8102 15.1918C68.2377 15.1918 68.9835 14.4247 69.2392 13.892H69.3031V15H70.5602V9.60938C70.5602 7.00994 68.5787 6.71165 67.5346 6.71165C66.2988 6.71165 64.8926 7.13778 64.2534 8.62926L65.4466 9.0554C65.7235 8.45881 66.3787 7.8196 67.5772 7.8196C68.7331 7.8196 69.3031 8.43217 69.3031 9.48153V9.52415C69.3031 10.1314 68.6852 10.0781 67.1937 10.2699C65.6756 10.467 64.019 10.8026 64.019 12.6776C64.019 14.2756 65.2548 15.1918 66.8102 15.1918ZM67.002 14.0625C66.0005 14.0625 65.2761 13.6151 65.2761 12.7415C65.2761 11.7827 66.1497 11.4844 67.1298 11.3565C67.6625 11.2926 69.09 11.1435 69.3031 10.8878V12.0384C69.3031 13.0611 68.4934 14.0625 67.002 14.0625ZM78.3305 6.81818H77.0734V15H78.3305V11.5057H82.251V15H83.5081V6.81818H82.251V10.3338H78.3305V6.81818ZM88.2116 15.1918C89.6391 15.1918 90.3849 14.4247 90.6405 13.892H90.7045V15H91.9616V9.60938C91.9616 7.00994 89.98 6.71165 88.936 6.71165C87.7002 6.71165 86.2939 7.13778 85.6547 8.62926L86.8479 9.0554C87.1249 8.45881 87.7801 7.8196 88.9786 7.8196C90.1345 7.8196 90.7045 8.43217 90.7045 9.48153V9.52415C90.7045 10.1314 90.0866 10.0781 88.5951 10.2699C87.077 10.467 85.4204 10.8026 85.4204 12.6776C85.4204 14.2756 86.6562 15.1918 88.2116 15.1918ZM88.4033 14.0625C87.4019 14.0625 86.6775 13.6151 86.6775 12.7415C86.6775 11.7827 87.551 11.4844 88.5312 11.3565C89.0638 11.2926 90.4914 11.1435 90.7045 10.8878V12.0384C90.7045 13.0611 89.8948 14.0625 88.4033 14.0625ZM103.525 6.81818H98.4748V15H99.7319V7.99006H103.525V6.81818ZM108.259 15.1705C110.475 15.1705 111.966 13.4872 111.966 10.9517C111.966 8.39489 110.475 6.71165 108.259 6.71165C106.043 6.71165 104.551 8.39489 104.551 10.9517C104.551 13.4872 106.043 15.1705 108.259 15.1705ZM108.259 14.0412C106.575 14.0412 105.808 12.5923 105.808 10.9517C105.808 9.31108 106.575 7.84091 108.259 7.84091C109.942 7.84091 110.709 9.31108 110.709 10.9517C110.709 12.5923 109.942 14.0412 108.259 14.0412ZM113.011 17.3438H114.268V15H120.32V17.3438H121.577V13.8281H120.32V6.81818H115.121L114.844 10.0568C114.647 12.3473 114.354 13.1357 113.693 13.8281H113.011V17.3438ZM115.121 13.8281C115.696 13.0717 115.904 11.7667 116.08 10.0568L116.293 7.99006H119.062V13.8281H115.121Z" fill="#EEEFEF"/>
<path d="M238.736 4.09091H237.415L234.688 5.90199V7.24432L237.351 5.47585H237.415V15H238.736V4.09091ZM245.836 12.7628H250.971V15H252.229V12.7628H253.72V11.5909H252.229V4.09091H250.631L245.836 11.6761V12.7628ZM250.971 11.5909H247.264V11.5057L250.886 5.77415H250.971V11.5909ZM259.189 3.94176C256.973 3.91513 255.546 5.58239 255.546 7.58523C255.546 9.6946 257.101 11.2074 258.976 11.2074C260.105 11.2074 261.064 10.6534 261.661 9.75852H261.746C261.746 12.4432 260.702 13.9773 259.019 13.9773C257.868 13.9773 257.165 13.2528 256.931 12.2514H255.631C255.887 13.9773 257.186 15.1491 259.019 15.1491C261.469 15.1491 262.982 12.9759 262.982 9.09801C262.982 5.09233 260.979 3.96307 259.189 3.94176ZM259.189 5.11364C260.553 5.11364 261.554 6.28551 261.554 7.56392C261.554 8.86364 260.489 10.0355 259.147 10.0355C257.804 10.0355 256.824 8.94886 256.824 7.58523C256.824 6.22159 257.847 5.11364 259.189 5.11364ZM268.635 15.1491C271.042 15.1491 272.427 13.109 272.427 9.54545C272.427 6.00852 271.021 3.94176 268.635 3.94176C266.248 3.94176 264.842 6.00852 264.842 9.54545C264.842 13.109 266.227 15.1491 268.635 15.1491ZM268.635 13.9773C267.047 13.9773 266.121 12.3846 266.121 9.54545C266.121 6.71165 267.058 5.09233 268.635 5.09233C270.211 5.09233 271.149 6.71165 271.149 9.54545C271.149 12.3846 270.222 13.9773 268.635 13.9773ZM283.635 10.5682C286.064 10.5682 287.193 9.09801 287.193 7.32955C287.193 5.56108 286.064 4.09091 283.635 4.09091H279.821V9.39631H278.095V10.5682H279.821V11.5909H278.095V12.7628H279.821V15H281.142V12.7628H283.55V11.5909H281.142V10.5682H283.635ZM281.142 9.39631V5.26278H283.635C285.169 5.26278 285.893 6.13636 285.893 7.32955C285.893 8.52273 285.169 9.39631 283.635 9.39631H281.142Z" fill="#EEEFEF"/>
<path d="M8.55433 44H11.7962L6.74929 37.3714L11.5728 31.6364H8.31889L4.21378 36.5746H3.68857V31.6364H1.07457V44H3.68857V38.7298H4.58203L8.55433 44ZM21.1866 44.1811C23.9998 44.1811 25.7505 42.2553 25.7505 39.3999C25.7505 36.5263 23.9998 34.6065 21.1866 34.6065C18.3734 34.6065 16.6227 36.5263 16.6227 39.3999C16.6227 42.2553 18.3734 44.1811 21.1866 44.1811ZM21.1987 42.1889C19.9007 42.1889 19.2367 40.9996 19.2367 39.3817C19.2367 37.7638 19.9007 36.5685 21.1987 36.5685C22.4725 36.5685 23.1365 37.7638 23.1365 39.3817C23.1365 40.9996 22.4725 42.1889 21.1987 42.1889ZM27.4228 44H29.8496V36.7496H33.0733V44H35.5304V34.7273H27.4228V44ZM37.0396 44H37.8123C39.7804 44 40.8248 42.696 40.9817 39.581L41.1266 36.7496H43.4146V44H45.8656V34.7273H38.8145L38.6635 38.8324C38.573 41.1808 38.2108 41.9595 37.3354 41.9595H37.0275L37.0396 44ZM50.5035 44.1751C51.8738 44.1751 52.7613 43.5774 53.214 42.7141H53.2865V44H55.7254V37.7457C55.7254 35.5362 53.854 34.6065 51.7893 34.6065C49.5677 34.6065 48.1068 35.669 47.7506 37.3594L50.1292 37.5526C50.3042 36.9368 50.8536 36.484 51.7773 36.484C52.6526 36.484 53.1537 36.9247 53.1537 37.6854V37.7216C53.1537 38.3192 52.5198 38.3977 50.9079 38.5547C49.0727 38.7237 47.4246 39.3395 47.4246 41.4102C47.4246 43.2454 48.7346 44.1751 50.5035 44.1751ZM51.24 42.4002C50.4491 42.4002 49.8817 42.032 49.8817 41.3256C49.8817 40.6012 50.4793 40.245 51.3849 40.1183C51.9463 40.0398 52.8639 39.907 53.1718 39.7017V40.6857C53.1718 41.6577 52.3689 42.4002 51.24 42.4002ZM56.806 36.7496H59.7702V44H62.2211V36.7496H65.2094V34.7273H56.806V36.7496ZM70.6623 44.1811C72.9563 44.1811 74.5018 43.0643 74.864 41.3438L72.4854 41.1868C72.2259 41.8931 71.5618 42.2614 70.7045 42.2614C69.4187 42.2614 68.6037 41.4102 68.6037 40.0277V40.0217H74.9183V39.3153C74.9183 36.1641 73.0107 34.6065 70.5597 34.6065C67.831 34.6065 66.0621 36.5444 66.0621 39.4059C66.0621 42.3459 67.8068 44.1811 70.6623 44.1811ZM68.6037 38.4279C68.658 37.3714 69.4609 36.5263 70.6019 36.5263C71.7188 36.5263 72.4915 37.3232 72.4975 38.4279H68.6037Z" fill="#EEEFEF"/>
<path d="M235.014 31.6364V44H232.4V34.1175H232.327L229.496 35.8924V33.5742L232.557 31.6364H235.014ZM237.765 41.8267V39.7681L242.927 31.6364H244.702V34.4858H243.651L240.397 39.6353V39.7319H247.732V41.8267H237.765ZM243.699 44V41.1989L243.748 40.2873V31.6364H246.199V44H243.699ZM253.947 31.4673C254.583 31.4673 255.195 31.574 255.782 31.7873C256.374 32.0006 256.901 32.3407 257.364 32.8075C257.831 33.2744 258.199 33.8942 258.469 34.6669C258.743 35.4356 258.881 36.3794 258.885 37.4982C258.885 38.5487 258.767 39.4864 258.529 40.3114C258.296 41.1325 257.96 41.8307 257.521 42.4062C257.082 42.9818 256.553 43.4205 255.933 43.7223C255.314 44.0201 254.621 44.169 253.857 44.169C253.032 44.169 252.303 44.0101 251.671 43.6921C251.039 43.3701 250.53 42.9335 250.144 42.3821C249.762 41.8267 249.53 41.2029 249.45 40.5107H252.027C252.128 40.9614 252.339 41.3116 252.661 41.5611C252.983 41.8066 253.382 41.9293 253.857 41.9293C254.662 41.9293 255.273 41.5792 255.692 40.8789C256.11 40.1746 256.322 39.2107 256.326 37.9872H256.241C256.056 38.3494 255.807 38.6613 255.493 38.9229C255.179 39.1805 254.819 39.3797 254.412 39.5206C254.01 39.6615 253.581 39.7319 253.126 39.7319C252.398 39.7319 251.748 39.5608 251.176 39.2188C250.605 38.8767 250.154 38.4058 249.824 37.8061C249.494 37.2064 249.329 36.5223 249.329 35.7536C249.325 34.9245 249.516 34.186 249.902 33.538C250.289 32.89 250.828 32.3829 251.52 32.0167C252.217 31.6464 253.026 31.4633 253.947 31.4673ZM253.965 33.5199C253.559 33.5199 253.197 33.6165 252.879 33.8097C252.565 34.0028 252.315 34.2624 252.13 34.5884C251.949 34.9144 251.86 35.2786 251.864 35.6811C251.864 36.0876 251.953 36.4538 252.13 36.7798C252.311 37.1018 252.557 37.3594 252.867 37.5526C253.18 37.7417 253.539 37.8363 253.941 37.8363C254.243 37.8363 254.523 37.7799 254.78 37.6673C255.038 37.5546 255.261 37.3996 255.45 37.2024C255.644 37.0012 255.794 36.7698 255.903 36.5082C256.012 36.2466 256.066 35.9689 256.066 35.6751C256.062 35.2847 255.97 34.9265 255.788 34.6005C255.607 34.2745 255.358 34.0129 255.04 33.8157C254.722 33.6185 254.364 33.5199 253.965 33.5199ZM265.544 44.2717C264.506 44.2676 263.612 44.0121 262.864 43.505C262.119 42.9979 261.546 42.2634 261.143 41.3015C260.745 40.3396 260.548 39.1825 260.552 37.8303C260.552 36.482 260.751 35.333 261.149 34.3832C261.552 33.4334 262.125 32.7109 262.87 32.2159C263.618 31.7169 264.51 31.4673 265.544 31.4673C266.578 31.4673 267.468 31.7169 268.212 32.2159C268.961 32.715 269.537 33.4394 269.939 34.3892C270.341 35.335 270.541 36.482 270.537 37.8303C270.537 39.1866 270.335 40.3456 269.933 41.3075C269.535 42.2694 268.963 43.0039 268.218 43.511C267.474 44.0181 266.582 44.2717 265.544 44.2717ZM265.544 42.1044C266.252 42.1044 266.818 41.7482 267.241 41.0359C267.663 40.3235 267.872 39.255 267.868 37.8303C267.868 36.8925 267.772 36.1117 267.579 35.4879C267.389 34.8641 267.12 34.3952 266.77 34.0813C266.424 33.7674 266.015 33.6104 265.544 33.6104C264.84 33.6104 264.276 33.9626 263.854 34.6669C263.431 35.3712 263.218 36.4257 263.214 37.8303C263.214 38.7801 263.308 39.5729 263.498 40.2088C263.691 40.8407 263.962 41.3156 264.313 41.6335C264.663 41.9474 265.073 42.1044 265.544 42.1044ZM282.704 39.5266H276.118V37.4318H282.632C283.123 37.4318 283.525 37.3594 283.839 37.2145C284.153 37.0696 284.384 36.8643 284.533 36.5987C284.682 36.3331 284.757 36.0192 284.757 35.657C284.757 35.3028 284.682 34.9828 284.533 34.6971C284.384 34.4113 284.157 34.1839 283.851 34.0149C283.545 33.8459 283.163 33.7614 282.704 33.7614H280.47V44H277.875V31.6364H282.704C283.682 31.6364 284.519 31.8114 285.215 32.1616C285.916 32.5077 286.451 32.9826 286.821 33.5863C287.192 34.186 287.375 34.8661 287.371 35.6268C287.375 36.4237 287.188 37.1139 286.809 37.6974C286.431 38.281 285.892 38.7318 285.191 39.0497C284.491 39.3677 283.662 39.5266 282.704 39.5266ZM283.169 40.3235V42.4183H276.118V40.3235H283.169Z" fill="#EEEFEF"/>
<path d="M8.75284 69.5C8.40199 67.5611 6.85085 66.4162 4.94886 66.4162C2.52983 66.4162 0.775568 68.2812 0.775568 71.2727C0.775568 74.2642 2.52983 76.1293 4.94886 76.1293C6.85085 76.1293 8.40199 74.9844 8.75284 73.0455H7.60796C7.33097 74.3565 6.20455 75.0582 4.94886 75.0582C3.23153 75.0582 1.88352 73.7287 1.88352 71.2727C1.88352 68.8168 3.23153 67.4872 4.94886 67.4872C6.20455 67.4872 7.33097 68.1889 7.60796 69.5H8.75284ZM9.82733 76H10.1966C11.7662 76 12.2187 74.7812 12.3202 72.4545L12.431 69.9247H15.0347V76H16.1242V68.9091H11.3969L11.2677 72.0483C11.1753 74.4304 10.9353 74.9844 10.0858 74.9844H9.82733V76ZM21.0961 76.1477C22.5365 76.1477 23.589 75.4276 23.9214 74.3565L22.8689 74.0611C22.5919 74.7997 21.9502 75.169 21.0961 75.169C19.8174 75.169 18.9356 74.3427 18.8849 72.8239H24.0322V72.3622C24.0322 69.7216 22.4626 68.8168 20.9854 68.8168C19.0649 68.8168 17.7907 70.331 17.7907 72.5099C17.7907 74.6889 19.0464 76.1477 21.0961 76.1477ZM18.8849 71.8821C18.9587 70.7788 19.7389 69.7955 20.9854 69.7955C22.1672 69.7955 22.9243 70.6818 22.9243 71.8821H18.8849ZM24.9324 78.0312H26.0219V76H31.2662V78.0312H32.3557V74.9844H31.2662V68.9091H26.7606L26.5205 71.7159C26.3497 73.701 26.0958 74.3842 25.5233 74.9844H24.9324V78.0312ZM26.7606 74.9844C27.2591 74.3288 27.4392 73.1978 27.5915 71.7159L27.7762 69.9247H30.1768V74.9844H26.7606ZM34.5036 78.6591C35.4869 78.6591 36.1793 78.1374 36.5902 77.0341L39.6094 68.9276L38.4183 68.9091L36.4609 74.5597H36.3871L34.4297 68.9091H33.2479L35.87 76.0369L35.6669 76.5909C35.2699 77.6712 34.7805 77.7727 33.9865 77.5696L33.7095 78.5298C33.8203 78.5852 34.1342 78.6591 34.5036 78.6591ZM41.6233 68.9091H40.5338V76H41.6233V73.027H43.4422C43.6361 74.9244 44.8687 76.1477 46.6276 76.1477C48.548 76.1477 49.8406 74.6889 49.8406 72.4915C49.8406 70.2756 48.548 68.8168 46.6276 68.8168C44.8502 68.8168 43.6084 70.0678 43.4376 72.0114H41.6233V68.9091ZM46.6276 75.169C45.1688 75.169 44.504 73.9134 44.504 72.4915C44.504 71.0696 45.1688 69.7955 46.6276 69.7955C48.0864 69.7955 48.7512 71.0696 48.7512 72.4915C48.7512 73.9134 48.0864 75.169 46.6276 75.169ZM61.2895 74.9844H60.2369V68.9091H59.1475V74.9844H56.4699V68.9091H55.3804V74.9844H52.7029V68.9091H51.6134V76H60.0338V78.0312H61.1602L61.2895 74.9844ZM65.771 76.1477C67.2113 76.1477 68.2638 75.4276 68.5962 74.3565L67.5437 74.0611C67.2667 74.7997 66.625 75.169 65.771 75.169C64.4922 75.169 63.6104 74.3427 63.5597 72.8239H68.707V72.3622C68.707 69.7216 67.1374 68.8168 65.6602 68.8168C63.7397 68.8168 62.4656 70.331 62.4656 72.5099C62.4656 74.6889 63.7212 76.1477 65.771 76.1477ZM63.5597 71.8821C63.6335 70.7788 64.4137 69.7955 65.6602 69.7955C66.842 69.7955 67.5991 70.6818 67.5991 71.8821H63.5597ZM73.3374 76.1477C74.7777 76.1477 75.8303 75.4276 76.1626 74.3565L75.1101 74.0611C74.8331 74.7997 74.1914 75.169 73.3374 75.169C72.0586 75.169 71.1768 74.3427 71.1261 72.8239H76.2734V72.3622C76.2734 69.7216 74.7038 68.8168 73.2266 68.8168C71.3061 68.8168 70.032 70.331 70.032 72.5099C70.032 74.6889 71.2876 76.1477 73.3374 76.1477ZM71.1261 71.8821C71.1999 70.7788 71.9801 69.7955 73.2266 69.7955C74.4084 69.7955 75.1655 70.6818 75.1655 71.8821H71.1261ZM84.4677 76.1477C86.0373 76.1477 87.0714 75.1875 87.256 73.9318H86.1665C85.9634 74.7074 85.3171 75.169 84.4677 75.169C83.1751 75.169 82.3441 74.098 82.3441 72.4545C82.3441 70.848 83.1935 69.7955 84.4677 69.7955C85.4279 69.7955 86.0004 70.3864 86.1665 71.0327H87.256C87.0714 69.7031 85.945 68.8168 84.4492 68.8168C82.5288 68.8168 81.2546 70.331 81.2546 72.4915C81.2546 74.6151 82.4734 76.1477 84.4677 76.1477ZM88.8487 76H89.9382V69.9247H93.3359V76H94.4254V68.9091H88.8487V76ZM97.5046 74.3935V68.9091H96.4151V76H97.6893L101.087 70.5156V76H102.176V68.9091H100.921L97.5046 74.3935ZM107.053 76.1477C108.622 76.1477 109.656 75.1875 109.841 73.9318H108.752C108.548 74.7074 107.902 75.169 107.053 75.169C105.76 75.169 104.929 74.098 104.929 72.4545C104.929 70.848 105.778 69.7955 107.053 69.7955C108.013 69.7955 108.585 70.3864 108.752 71.0327H109.841C109.656 69.7031 108.53 68.8168 107.034 68.8168C105.114 68.8168 103.84 70.331 103.84 72.4915C103.84 74.6151 105.058 76.1477 107.053 76.1477ZM113.52 76.1662C114.758 76.1662 115.404 75.5014 115.625 75.0398H115.681V76H116.77V71.3281C116.77 69.0753 115.053 68.8168 114.148 68.8168C113.077 68.8168 111.858 69.1861 111.304 70.4787L112.339 70.848C112.579 70.331 113.146 69.777 114.185 69.777C115.187 69.777 115.681 70.3079 115.681 71.2173V71.2543C115.681 71.7805 115.145 71.7344 113.853 71.9006C112.537 72.0714 111.101 72.3622 111.101 73.9872C111.101 75.3722 112.172 76.1662 113.52 76.1662ZM113.687 75.1875C112.819 75.1875 112.191 74.7997 112.191 74.0426C112.191 73.2116 112.948 72.9531 113.797 72.8423C114.259 72.7869 115.496 72.6577 115.681 72.4361V73.4332C115.681 74.3196 114.979 75.1875 113.687 75.1875ZM119.848 68.9091H118.759V76H119.848V72.9716H123.246V76H124.336V68.9091H123.246V71.956H119.848V68.9091ZM127.415 74.3935V68.9091H126.325V76H127.599L130.997 70.5156V76H132.087V68.9091H130.831L127.415 74.3935ZM137.055 76.1477C138.495 76.1477 139.548 75.4276 139.88 74.3565L138.828 74.0611C138.551 74.7997 137.909 75.169 137.055 75.169C135.776 75.169 134.895 74.3427 134.844 72.8239H139.991V72.3622C139.991 69.7216 138.422 68.8168 136.944 68.8168C135.024 68.8168 133.75 70.331 133.75 72.5099C133.75 74.6889 135.005 76.1477 137.055 76.1477ZM134.844 71.8821C134.918 70.7788 135.698 69.7955 136.944 69.7955C138.126 69.7955 138.883 70.6818 138.883 71.8821H134.844ZM148.61 66.5455H147.465L145.102 68.1151V69.2784L147.41 67.7457H147.465V76H148.61V66.5455ZM151.108 74.0611H155.558V76H156.647V74.0611H157.94V73.0455H156.647V66.5455H155.263L151.108 73.1193V74.0611ZM155.558 73.0455H152.345V72.9716L155.484 68.0043H155.558V73.0455ZM164.434 74.3935V68.9091H163.345V76H164.619L168.017 70.5156V76H169.106V68.9091H167.85L164.434 74.3935ZM171.674 68.9091H170.585V76H171.674V73.027H173.493C173.687 74.9244 174.919 76.1477 176.678 76.1477C178.599 76.1477 179.891 74.6889 179.891 72.4915C179.891 70.2756 178.599 68.8168 176.678 68.8168C174.901 68.8168 173.659 70.0678 173.488 72.0114H171.674V68.9091ZM176.678 75.169C175.22 75.169 174.555 73.9134 174.555 72.4915C174.555 71.0696 175.22 69.7955 176.678 69.7955C178.137 69.7955 178.802 71.0696 178.802 72.4915C178.802 73.9134 178.137 75.169 176.678 75.169ZM182.754 68.9091H181.664V76H182.754V72.9716H186.151V76H187.241V68.9091H186.151V71.956H182.754V68.9091ZM192.868 76H198.833V74.9844H194.438V74.9105L196.562 72.6392C198.187 70.8988 198.667 70.0863 198.667 69.0384C198.667 67.5795 197.485 66.4162 195.823 66.4162C194.166 66.4162 192.905 67.5426 192.905 69.2045H193.995C193.995 68.1289 194.692 67.4134 195.786 67.4134C196.811 67.4134 197.596 68.0412 197.596 69.0384C197.596 69.9109 197.083 70.5572 195.989 71.7528L192.868 75.169V76ZM203.823 76.1293C205.91 76.1293 207.11 74.3612 207.11 71.2727C207.11 68.2074 205.891 66.4162 203.823 66.4162C201.755 66.4162 200.536 68.2074 200.536 71.2727C200.536 74.3612 201.737 76.1293 203.823 76.1293ZM203.823 75.1136C202.448 75.1136 201.644 73.7333 201.644 71.2727C201.644 68.8168 202.457 67.4134 203.823 67.4134C205.19 67.4134 206.002 68.8168 206.002 71.2727C206.002 73.7333 205.199 75.1136 203.823 75.1136ZM208.864 76H214.829V74.9844H210.434V74.9105L212.558 72.6392C214.183 70.8988 214.663 70.0863 214.663 69.0384C214.663 67.5795 213.481 66.4162 211.819 66.4162C210.162 66.4162 208.901 67.5426 208.901 69.2045H209.991C209.991 68.1289 210.688 67.4134 211.782 67.4134C212.807 67.4134 213.592 68.0412 213.592 69.0384C213.592 69.9109 213.079 70.5572 211.985 71.7528L208.864 75.169V76ZM216.736 76H222.7V74.9844H218.305V74.9105L220.429 72.6392C222.054 70.8988 222.534 70.0863 222.534 69.0384C222.534 67.5795 221.352 66.4162 219.69 66.4162C218.033 66.4162 216.772 67.5426 216.772 69.2045H217.862C217.862 68.1289 218.559 67.4134 219.653 67.4134C220.678 67.4134 221.463 68.0412 221.463 69.0384C221.463 69.9109 220.95 70.5572 219.856 71.7528L216.736 75.169V76ZM226.25 74.7074H225.068L225.013 75.2244C224.879 76.4755 224.616 77.7219 224.496 78.3082H225.327C225.548 77.6804 226.019 76.2585 226.176 75.206L226.25 74.7074ZM3.87784 96.1477C5.7983 96.1477 7.09091 94.6889 7.09091 92.4915C7.09091 90.2756 5.7983 88.8168 3.87784 88.8168C1.95739 88.8168 0.664773 90.2756 0.664773 92.4915C0.664773 94.6889 1.95739 96.1477 3.87784 96.1477ZM3.87784 95.169C2.41903 95.169 1.75426 93.9134 1.75426 92.4915C1.75426 91.0696 2.41903 89.7955 3.87784 89.7955C5.33665 89.7955 6.00142 91.0696 6.00142 92.4915C6.00142 93.9134 5.33665 95.169 3.87784 95.169ZM7.82724 89.9247H10.1724V96H11.2619V89.9247H13.5886V88.9091H7.82724V89.9247ZM19.0557 94.5227L16.6182 88.9091H15.1778V96H16.2673V90.4741L18.6125 96H19.4988L21.844 90.5756V96H22.9335V88.9091H21.5301L19.0557 94.5227ZM27.9008 96.1477C29.3412 96.1477 30.3937 95.4276 30.7261 94.3565L29.6736 94.0611C29.3966 94.7997 28.7549 95.169 27.9008 95.169C26.6221 95.169 25.7403 94.3427 25.6895 92.8239H30.8369V92.3622C30.8369 89.7216 29.2673 88.8168 27.79 88.8168C25.8696 88.8168 24.5954 90.331 24.5954 92.5099C24.5954 94.6889 25.8511 96.1477 27.9008 96.1477ZM25.6895 91.8821C25.7634 90.7788 26.5436 89.7955 27.79 89.7955C28.9719 89.7955 29.729 90.6818 29.729 91.8821H25.6895ZM33.5837 88.9091H32.4942V96H33.5837V92.9716H36.9814V96H38.0709V88.9091H36.9814V91.956H33.5837V88.9091ZM41.1501 94.3935V88.9091H40.0606V96H41.3348L44.7325 90.5156V96H45.822V88.9091H44.5663L41.1501 94.3935ZM46.8526 89.9247H49.1978V96H50.2873V89.9247H52.614V88.9091H46.8526V89.9247ZM55.2927 91.4759V88.9091H54.2032V96H57.1762C58.8382 96 59.743 94.9844 59.743 93.7102C59.743 92.4176 58.8382 91.4759 57.1762 91.4759H55.2927ZM55.2927 92.4915H57.1762C58.0395 92.4915 58.6535 93.0178 58.6535 93.7656C58.6535 94.4812 58.0395 94.9844 57.1762 94.9844H55.2927V92.4915ZM68.0307 96.1477C69.4711 96.1477 70.5236 95.4276 70.856 94.3565L69.8034 94.0611C69.5265 94.7997 68.8848 95.169 68.0307 95.169C66.752 95.169 65.8702 94.3427 65.8194 92.8239H70.9668V92.3622C70.9668 89.7216 69.3972 88.8168 67.9199 88.8168C65.9995 88.8168 64.7253 90.331 64.7253 92.5099C64.7253 94.6889 65.981 96.1477 68.0307 96.1477ZM65.8194 91.8821C65.8933 90.7788 66.6735 89.7955 67.9199 89.7955C69.1017 89.7955 69.8588 90.6818 69.8588 91.8821H65.8194ZM77.0005 88.9091H72.6241V96H73.7136V89.9247H77.0005V88.9091ZM81.1034 96.1477C83.0239 96.1477 84.3165 94.6889 84.3165 92.4915C84.3165 90.2756 83.0239 88.8168 81.1034 88.8168C79.183 88.8168 77.8904 90.2756 77.8904 92.4915C77.8904 94.6889 79.183 96.1477 81.1034 96.1477ZM81.1034 95.169C79.6446 95.169 78.9798 93.9134 78.9798 92.4915C78.9798 91.0696 79.6446 89.7955 81.1034 89.7955C82.5622 89.7955 83.227 91.0696 83.227 92.4915C83.227 93.9134 82.5622 95.169 81.1034 95.169ZM93.5137 94.5227L91.0762 88.9091H89.6358V96H90.7253V90.4741L93.0705 96H93.9569L96.302 90.5756V96H97.3915V88.9091H95.9881L93.5137 94.5227ZM102.267 96.1477C104.187 96.1477 105.48 94.6889 105.48 92.4915C105.48 90.2756 104.187 88.8168 102.267 88.8168C100.346 88.8168 99.0534 90.2756 99.0534 92.4915C99.0534 94.6889 100.346 96.1477 102.267 96.1477ZM102.267 95.169C100.808 95.169 100.143 93.9134 100.143 92.4915C100.143 91.0696 100.808 89.7955 102.267 89.7955C103.725 89.7955 104.39 91.0696 104.39 92.4915C104.39 93.9134 103.725 95.169 102.267 95.169ZM106.407 96H107.719L110.138 92.9531H110.692V96H111.781V92.9531H112.335L114.736 96H116.047L113.184 92.3991L116.01 88.9091H114.717L112.354 91.9375H111.781V88.9091H110.692V91.9375H110.101L107.737 88.9091H106.444L109.288 92.3991L106.407 96ZM118.693 88.9091H117.604V96H118.693V92.9716H122.091V96H123.18V88.9091H122.091V91.956H118.693V88.9091ZM128.051 96.1477C129.971 96.1477 131.264 94.6889 131.264 92.4915C131.264 90.2756 129.971 88.8168 128.051 88.8168C126.13 88.8168 124.838 90.2756 124.838 92.4915C124.838 94.6889 126.13 96.1477 128.051 96.1477ZM128.051 95.169C126.592 95.169 125.927 93.9134 125.927 92.4915C125.927 91.0696 126.592 89.7955 128.051 89.7955C129.509 89.7955 130.174 91.0696 130.174 92.4915C130.174 93.9134 129.509 95.169 128.051 95.169ZM136.583 96H139.925C141.366 96 142.234 95.1875 142.234 94.098C142.234 92.9854 141.389 92.3853 140.609 92.2699C141.407 92.1037 141.975 91.6559 141.975 90.7926C141.975 89.6616 141.006 88.9091 139.482 88.9091H136.583V96ZM137.617 95.0028V92.8239H139.925C140.673 92.8239 141.126 93.2717 141.126 94.0057C141.126 94.6243 140.673 95.0028 139.925 95.0028H137.617ZM137.617 91.8821V89.9062H139.482C140.355 89.9062 140.886 90.271 140.886 90.8665C140.886 91.4989 140.355 91.8821 139.482 91.8821H137.617ZM146.911 96H147.281C148.85 96 149.303 94.7812 149.404 92.4545L149.515 89.9247H152.119V96H153.208V88.9091H148.481L148.352 92.0483C148.259 94.4304 148.019 94.9844 147.17 94.9844H146.911V96ZM155.78 88.9091H154.69V96H155.78V93.027H157.598C157.792 94.9244 159.025 96.1477 160.784 96.1477C162.704 96.1477 163.997 94.6889 163.997 92.4915C163.997 90.2756 162.704 88.8168 160.784 88.8168C159.006 88.8168 157.765 90.0678 157.594 92.0114H155.78V88.9091ZM160.784 95.169C159.325 95.169 158.66 93.9134 158.66 92.4915C158.66 91.0696 159.325 89.7955 160.784 89.7955C162.243 89.7955 162.907 91.0696 162.907 92.4915C162.907 93.9134 162.243 95.169 160.784 95.169ZM171.032 86.25C170.686 86.5408 170.169 86.5408 169.444 86.5362C169.209 86.5362 168.95 86.5362 168.669 86.5455C166.508 86.6009 165.437 88.2443 165.437 91.402V92.1591C165.437 94.7812 166.711 96.1477 168.613 96.1477C170.511 96.1477 171.771 94.772 171.771 92.5469C171.771 90.3125 170.492 89.1307 168.835 89.1307C167.861 89.1307 166.951 89.5369 166.471 90.4233H166.379C166.527 88.5952 167.21 87.6165 168.687 87.5611C169.998 87.5057 170.94 87.5426 171.586 86.9148L171.032 86.25ZM168.613 95.169C167.321 95.169 166.527 94.1349 166.527 92.5469C166.55 90.9957 167.33 90.1094 168.595 90.1094C169.892 90.1094 170.682 90.9957 170.682 92.5469C170.682 94.1442 169.897 95.169 168.613 95.169ZM176.318 96.1477C178.239 96.1477 179.531 94.6889 179.531 92.4915C179.531 90.2756 178.239 88.8168 176.318 88.8168C174.398 88.8168 173.105 90.2756 173.105 92.4915C173.105 94.6889 174.398 96.1477 176.318 96.1477ZM176.318 95.169C174.859 95.169 174.195 93.9134 174.195 92.4915C174.195 91.0696 174.859 89.7955 176.318 89.7955C177.777 89.7955 178.442 91.0696 178.442 92.4915C178.442 93.9134 177.777 95.169 176.318 95.169ZM182.284 94.3935V88.9091H181.194V96H182.469L185.866 90.5156V96H186.956V88.9091H185.7L182.284 94.3935ZM184.98 86.5455C184.98 87.0256 184.721 87.4503 184.075 87.4503C183.429 87.4503 183.189 87.0256 183.189 86.5455H182.173C182.173 87.5426 182.912 88.2443 184.075 88.2443C185.257 88.2443 185.996 87.5426 185.996 86.5455H184.98ZM196.485 94.5227L194.048 88.9091H192.608V96H193.697V90.4741L196.042 96H196.929L199.274 90.5756V96H200.363V88.9091H198.96L196.485 94.5227ZM205.238 96.1477C207.159 96.1477 208.451 94.6889 208.451 92.4915C208.451 90.2756 207.159 88.8168 205.238 88.8168C203.318 88.8168 202.025 90.2756 202.025 92.4915C202.025 94.6889 203.318 96.1477 205.238 96.1477ZM205.238 95.169C203.779 95.169 203.115 93.9134 203.115 92.4915C203.115 91.0696 203.779 89.7955 205.238 89.7955C206.697 89.7955 207.362 91.0696 207.362 92.4915C207.362 93.9134 206.697 95.169 205.238 95.169ZM213.992 94.5227L211.555 88.9091H210.114V96H211.204V90.4741L213.549 96H214.435L216.781 90.5756V96H217.87V88.9091H216.467L213.992 94.5227ZM222.837 96.1477C224.278 96.1477 225.33 95.4276 225.663 94.3565L224.61 94.0611C224.333 94.7997 223.691 95.169 222.837 95.169C221.559 95.169 220.677 94.3427 220.626 92.8239H225.773V92.3622C225.773 89.7216 224.204 88.8168 222.727 88.8168C220.806 88.8168 219.532 90.331 219.532 92.5099C219.532 94.6889 220.788 96.1477 222.837 96.1477ZM220.626 91.8821C220.7 90.7788 221.48 89.7955 222.727 89.7955C223.908 89.7955 224.665 90.6818 224.665 91.8821H220.626ZM228.52 88.9091H227.431V96H228.52V92.9716H231.918V96H233.007V88.9091H231.918V91.956H228.52V88.9091ZM234.032 89.9247H236.377V96H237.467V89.9247H239.794V88.9091H234.032V89.9247Z" fill="#8A8F94"/>
<rect y="117" width="288" height="48" rx="10" fill="white"/>
<path d="M78.1652 139.185V134.022H76.0236V146H78.1652V140.837H78.5968L83.2287 146H85.8683L80.4064 139.841L85.4865 134.022H83.0295L78.5885 139.185H78.1652ZM87.5687 149.287C89.6024 149.287 90.5736 148.548 91.3456 146.315L94.6244 136.927H92.4496L90.3329 144.049H90.1918L88.0668 136.927H85.809L89.0546 146.033L88.9467 146.457C88.681 147.312 88.1913 147.644 87.3197 147.644C87.1786 147.644 86.8715 147.635 86.7552 147.619V149.254C86.8881 149.279 87.4442 149.287 87.5687 149.287ZM101.969 146H104.028V136.927H96.1505V146H98.2091V138.538H101.969V146ZM108.335 146L112.203 139.891H112.344V146H114.378V136.927H112.344L108.476 143.003H108.335V136.927H106.301V146H108.335ZM123.582 136.927H115.929V138.538H118.726V146H120.785V138.538H123.582V136.927ZM125.125 146H128.985C131.101 146 132.454 144.771 132.454 142.837C132.454 140.903 131.101 139.667 128.985 139.667H127.183V136.927H125.125V146ZM128.736 141.26C129.748 141.26 130.404 141.883 130.404 142.829C130.404 143.767 129.757 144.398 128.736 144.398H127.183V141.26H128.736ZM146.156 139.957C145.941 138.081 144.529 136.753 142.197 136.753C139.466 136.753 137.864 138.504 137.864 141.443C137.864 144.415 139.474 146.183 142.205 146.183C144.505 146.183 145.932 144.904 146.156 143.028H144.197C143.982 143.983 143.268 144.489 142.197 144.489C140.794 144.489 139.947 143.369 139.947 141.443C139.947 139.55 140.786 138.438 142.197 138.438C143.326 138.438 144.006 139.077 144.197 139.957H146.156Z" fill="#0C131D"/>
<path d="M176.974 134.022V146H179.115V142.041H181.714C184.137 142.041 185.831 140.422 185.831 138.056C185.831 135.649 184.195 134.022 181.805 134.022H176.974ZM179.115 135.773H181.24C182.784 135.773 183.656 136.57 183.656 138.056C183.656 139.5 182.759 140.314 181.232 140.314H179.115V135.773ZM189.739 146.149C190.926 146.149 191.922 145.635 192.429 144.755H192.57V146H194.554V139.799C194.554 137.882 193.242 136.753 190.91 136.753C188.751 136.753 187.249 137.766 187.083 139.351H189.025C189.216 138.729 189.864 138.388 190.81 138.388C191.922 138.388 192.52 138.895 192.52 139.799V140.58L190.179 140.721C187.971 140.845 186.734 141.8 186.734 143.427C186.734 145.087 187.988 146.149 189.739 146.149ZM190.345 144.564C189.432 144.564 188.776 144.107 188.776 143.327C188.776 142.572 189.316 142.148 190.47 142.074L192.52 141.933V142.671C192.52 143.75 191.59 144.564 190.345 144.564ZM197.341 149.287C199.375 149.287 200.346 148.548 201.118 146.315L204.397 136.927H202.222L200.106 144.049H199.964L197.839 136.927H195.582L198.827 146.033L198.719 146.457C198.454 147.312 197.964 147.644 197.092 147.644C196.951 147.644 196.644 147.635 196.528 147.619V149.254C196.661 149.279 197.217 149.287 197.341 149.287Z" fill="#0C131D"/>
<path fill-rule="evenodd" clip-rule="evenodd" d="M171 140.407C171 139.848 170.955 139.288 170.864 138.74H163.166V141.904H167.576C167.395 142.92 166.805 143.834 165.944 144.405V146.462H168.574C170.116 145.034 171 142.92 171 140.407Z" fill="#4285F4"/>
<path fill-rule="evenodd" clip-rule="evenodd" d="M163.166 148.449C165.365 148.449 167.225 147.718 168.574 146.462L165.943 144.406C165.207 144.908 164.266 145.194 163.166 145.194C161.034 145.194 159.232 143.743 158.586 141.801H155.876V143.926C157.259 146.702 160.082 148.449 163.166 148.449Z" fill="#34A853"/>
<path fill-rule="evenodd" clip-rule="evenodd" d="M158.585 141.801C158.245 140.784 158.245 139.676 158.585 138.648V136.535H155.876C154.708 138.854 154.708 141.595 155.876 143.914L158.585 141.801Z" fill="#FBBC04"/>
<path fill-rule="evenodd" clip-rule="evenodd" d="M163.166 135.256C164.334 135.233 165.456 135.679 166.295 136.49L168.63 134.137C167.145 132.743 165.195 131.978 163.166 132C160.082 132 157.259 133.76 155.876 136.535L158.586 138.66C159.232 136.707 161.034 135.256 163.166 135.256Z" fill="#EA4335"/>
<rect y="181" width="288" height="232" rx="10" fill="#1D1E20"/>
<rect x="16" y="197" width="256" height="48" rx="10" fill="white" fill-opacity="0.04"/>
<path d="M33.4972 227V214.636H34.9943V220.142H41.5866V214.636H43.0838V227H41.5866V221.47H34.9943V227H33.4972ZM49.655 227.193C48.8179 227.193 48.0834 226.994 47.4515 226.596C46.8237 226.197 46.3327 225.64 45.9785 224.923C45.6284 224.207 45.4533 223.37 45.4533 222.412C45.4533 221.446 45.6284 220.603 45.9785 219.882C46.3327 219.162 46.8237 218.603 47.4515 218.204C48.0834 217.806 48.8179 217.607 49.655 217.607C50.4921 217.607 51.2246 217.806 51.8525 218.204C52.4843 218.603 52.9753 219.162 53.3255 219.882C53.6796 220.603 53.8567 221.446 53.8567 222.412C53.8567 223.37 53.6796 224.207 53.3255 224.923C52.9753 225.64 52.4843 226.197 51.8525 226.596C51.2246 226.994 50.4921 227.193 49.655 227.193ZM49.655 225.913C50.2909 225.913 50.8141 225.75 51.2246 225.424C51.6351 225.098 51.939 224.67 52.1362 224.138C52.3334 223.607 52.432 223.032 52.432 222.412C52.432 221.792 52.3334 221.215 52.1362 220.679C51.939 220.144 51.6351 219.711 51.2246 219.381C50.8141 219.051 50.2909 218.886 49.655 218.886C49.0191 218.886 48.4959 219.051 48.0854 219.381C47.6749 219.711 47.371 220.144 47.1738 220.679C46.9766 221.215 46.878 221.792 46.878 222.412C46.878 223.032 46.9766 223.607 47.1738 224.138C47.371 224.67 47.6749 225.098 48.0854 225.424C48.4959 225.75 49.0191 225.913 49.655 225.913ZM61.1025 225.068L64.3383 217.727H65.6906L61.6821 227H60.523L56.5869 217.727H57.915L61.1025 225.068ZM57.4562 217.727V227H56.0315V217.727H57.4562ZM64.7488 227V217.727H66.1736V227H64.7488ZM72.6693 227.193C71.7758 227.193 71.0051 226.996 70.3572 226.602C69.7132 226.203 69.2162 225.648 68.866 224.935C68.5199 224.219 68.3469 223.386 68.3469 222.436C68.3469 221.486 68.5199 220.649 68.866 219.925C69.2162 219.196 69.7032 218.629 70.327 218.222C70.9548 217.812 71.6873 217.607 72.5244 217.607C73.0074 217.607 73.4843 217.687 73.9552 217.848C74.426 218.009 74.8547 218.271 75.241 218.633C75.6274 218.991 75.9353 219.466 76.1647 220.058C76.3941 220.649 76.5088 221.378 76.5088 222.243V222.847H69.3611V221.615H75.0599C75.0599 221.092 74.9553 220.625 74.746 220.214C74.5407 219.804 74.247 219.48 73.8646 219.243C73.4863 219.005 73.0396 218.886 72.5244 218.886C71.9569 218.886 71.4659 219.027 71.0514 219.309C70.6409 219.587 70.325 219.949 70.1036 220.396C69.8823 220.842 69.7716 221.321 69.7716 221.832V222.653C69.7716 223.354 69.8923 223.947 70.1338 224.434C70.3793 224.917 70.7194 225.286 71.154 225.539C71.5887 225.789 72.0938 225.913 72.6693 225.913C73.0436 225.913 73.3817 225.861 73.6835 225.756C73.9894 225.648 74.253 225.487 74.4743 225.273C74.6957 225.056 74.8667 224.786 74.9875 224.464L76.3639 224.851C76.219 225.318 75.9755 225.728 75.6334 226.082C75.2913 226.433 74.8688 226.706 74.3657 226.903C73.8626 227.097 73.2971 227.193 72.6693 227.193ZM78.676 230.477V217.727H80.0525V219.2H80.2215C80.3261 219.039 80.471 218.834 80.6562 218.585C80.8453 218.331 81.115 218.106 81.4651 217.908C81.8193 217.707 82.2982 217.607 82.9019 217.607C83.6827 217.607 84.3709 217.802 84.9665 218.192C85.5622 218.583 86.027 219.136 86.3611 219.852C86.6951 220.569 86.8621 221.414 86.8621 222.388C86.8621 223.37 86.6951 224.221 86.3611 224.941C86.027 225.658 85.5642 226.213 84.9726 226.608C84.3809 226.998 83.6988 227.193 82.926 227.193C82.3304 227.193 81.8535 227.095 81.4953 226.897C81.1371 226.696 80.8614 226.469 80.6682 226.215C80.4751 225.958 80.3261 225.744 80.2215 225.575H80.1008V230.477H78.676ZM80.0766 222.364C80.0766 223.064 80.1792 223.682 80.3845 224.217C80.5898 224.748 80.8896 225.165 81.284 225.467C81.6784 225.764 82.1614 225.913 82.7329 225.913C83.3285 225.913 83.8256 225.756 84.224 225.442C84.6265 225.125 84.9283 224.698 85.1295 224.163C85.3348 223.623 85.4374 223.024 85.4374 222.364C85.4374 221.712 85.3368 221.124 85.1356 220.601C84.9384 220.074 84.6385 219.657 84.2361 219.351C83.8376 219.041 83.3366 218.886 82.7329 218.886C82.1533 218.886 81.6663 219.033 81.2719 219.327C80.8775 219.617 80.5797 220.023 80.3785 220.547C80.1772 221.066 80.0766 221.671 80.0766 222.364ZM93.8167 227V217.727H95.2414V221.76H96.1831L99.5155 217.727H101.351L97.6079 222.195L101.399 227H99.5638L96.5212 223.088H95.2414V227H93.8167ZM105.676 227.217C105.089 227.217 104.555 227.107 104.076 226.885C103.598 226.66 103.217 226.336 102.935 225.913C102.654 225.487 102.513 224.972 102.513 224.368C102.513 223.837 102.618 223.406 102.827 223.076C103.036 222.742 103.316 222.48 103.666 222.291C104.016 222.102 104.402 221.961 104.825 221.869C105.252 221.772 105.68 221.696 106.111 221.639C106.674 221.567 107.131 221.512 107.481 221.476C107.835 221.436 108.093 221.37 108.254 221.277C108.419 221.184 108.502 221.023 108.502 220.794V220.746C108.502 220.15 108.339 219.687 108.013 219.357C107.691 219.027 107.202 218.862 106.546 218.862C105.865 218.862 105.332 219.011 104.946 219.309C104.559 219.607 104.288 219.925 104.131 220.263L102.778 219.78C103.02 219.216 103.342 218.778 103.744 218.464C104.151 218.146 104.594 217.924 105.073 217.8C105.555 217.671 106.03 217.607 106.497 217.607C106.795 217.607 107.137 217.643 107.524 217.715C107.914 217.784 108.29 217.926 108.652 218.144C109.019 218.361 109.323 218.689 109.564 219.128C109.805 219.567 109.926 220.154 109.926 220.891V227H108.502V225.744H108.429C108.332 225.946 108.171 226.161 107.946 226.39C107.721 226.62 107.421 226.815 107.047 226.976C106.672 227.137 106.216 227.217 105.676 227.217ZM105.894 225.938C106.457 225.938 106.932 225.827 107.318 225.605C107.709 225.384 108.002 225.098 108.2 224.748C108.401 224.398 108.502 224.03 108.502 223.643V222.339C108.441 222.412 108.308 222.478 108.103 222.539C107.902 222.595 107.668 222.645 107.403 222.69C107.141 222.73 106.886 222.766 106.636 222.798C106.391 222.826 106.191 222.851 106.038 222.871C105.668 222.919 105.322 222.998 105 223.106C104.682 223.211 104.425 223.37 104.227 223.583C104.034 223.792 103.938 224.078 103.938 224.44C103.938 224.935 104.121 225.31 104.487 225.563C104.857 225.813 105.326 225.938 105.894 225.938ZM112.527 230.477V217.727H113.903V219.2H114.072C114.177 219.039 114.322 218.834 114.507 218.585C114.696 218.331 114.966 218.106 115.316 217.908C115.67 217.707 116.149 217.607 116.752 217.607C117.533 217.607 118.221 217.802 118.817 218.192C119.413 218.583 119.878 219.136 120.212 219.852C120.546 220.569 120.713 221.414 120.713 222.388C120.713 223.37 120.546 224.221 120.212 224.941C119.878 225.658 119.415 226.213 118.823 226.608C118.232 226.998 117.549 227.193 116.777 227.193C116.181 227.193 115.704 227.095 115.346 226.897C114.988 226.696 114.712 226.469 114.519 226.215C114.326 225.958 114.177 225.744 114.072 225.575H113.951V230.477H112.527ZM113.927 222.364C113.927 223.064 114.03 223.682 114.235 224.217C114.44 224.748 114.74 225.165 115.135 225.467C115.529 225.764 116.012 225.913 116.583 225.913C117.179 225.913 117.676 225.756 118.075 225.442C118.477 225.125 118.779 224.698 118.98 224.163C119.185 223.623 119.288 223.024 119.288 222.364C119.288 221.712 119.187 221.124 118.986 220.601C118.789 220.074 118.489 219.657 118.087 219.351C117.688 219.041 117.187 218.886 116.583 218.886C116.004 218.886 115.517 219.033 115.123 219.327C114.728 219.617 114.43 220.023 114.229 220.547C114.028 221.066 113.927 221.671 113.927 222.364ZM121.674 219.055V217.727H129.208V219.055H126.166V227H124.741V219.055H121.674ZM132.518 221.084H135.174C136.261 221.084 137.092 221.359 137.667 221.911C138.243 222.462 138.531 223.161 138.531 224.006C138.531 224.561 138.402 225.066 138.144 225.521C137.887 225.972 137.508 226.332 137.009 226.602C136.51 226.867 135.899 227 135.174 227H131.286V217.727H132.711V225.672H135.174C135.738 225.672 136.2 225.523 136.563 225.225C136.925 224.927 137.106 224.545 137.106 224.078C137.106 223.587 136.925 223.187 136.563 222.877C136.2 222.567 135.738 222.412 135.174 222.412H132.518V221.084ZM140.004 227V217.727H141.428V227H140.004Z" fill="#8A8F94"/>
<rect x="16.5" y="197.5" width="255" height="47" rx="9.5" stroke="white" stroke-opacity="0.08"/>
<rect x="16" y="253" width="256" height="48" rx="10" fill="white" fill-opacity="0.04"/>
<path d="M33.4972 270.636H34.9702V280.368H35.0909L41.8523 270.636H43.3011V283H41.804V273.293H41.6832L34.946 283H33.4972V270.636ZM51.1748 281.068L54.4106 273.727H55.7629L51.7544 283H50.5953L46.6592 273.727H47.9873L51.1748 281.068ZM47.5285 273.727V283H46.1038V273.727H47.5285ZM54.8211 283V273.727H56.2458V283H54.8211ZM64.4319 283V275.031H61.9688C61.4134 275.031 60.9768 275.16 60.6588 275.418C60.3409 275.675 60.1819 276.029 60.1819 276.48C60.1819 276.923 60.3248 277.271 60.6105 277.525C60.9003 277.778 61.2967 277.905 61.7998 277.905H64.7941V279.233H61.7998C61.172 279.233 60.6307 279.122 60.1759 278.901C59.7211 278.68 59.3709 278.364 59.1254 277.953C58.8799 277.539 58.7572 277.048 58.7572 276.48C58.7572 275.909 58.886 275.418 59.1436 275.007C59.4011 274.597 59.7694 274.281 60.2483 274.059C60.7313 273.838 61.3048 273.727 61.9688 273.727H65.7842V283H64.4319ZM58.2501 283L60.8822 278.388H62.4276L59.7955 283H58.2501ZM79.3869 277.712V279.04H74.2676V277.712H79.3869ZM74.6056 273.727V283H73.1809V273.727H74.6056ZM80.4735 273.727V283H79.0488V273.727H80.4735ZM85.8042 283.217C85.2166 283.217 84.6833 283.107 84.2044 282.885C83.7254 282.66 83.3451 282.336 83.0634 281.913C82.7817 281.487 82.6408 280.972 82.6408 280.368C82.6408 279.837 82.7454 279.406 82.9547 279.076C83.164 278.742 83.4437 278.48 83.7939 278.291C84.144 278.102 84.5304 277.961 84.9529 277.869C85.3796 277.772 85.8082 277.696 86.2388 277.639C86.8023 277.567 87.2591 277.512 87.6092 277.476C87.9634 277.436 88.2209 277.37 88.3819 277.277C88.5469 277.184 88.6294 277.023 88.6294 276.794V276.746C88.6294 276.15 88.4664 275.687 88.1404 275.357C87.8185 275.027 87.3295 274.862 86.6735 274.862C85.9933 274.862 85.46 275.011 85.0737 275.309C84.6873 275.607 84.4157 275.925 84.2587 276.263L82.9064 275.78C83.1479 275.216 83.4699 274.778 83.8723 274.464C84.2788 274.146 84.7215 273.924 85.2005 273.8C85.6834 273.671 86.1583 273.607 86.6252 273.607C86.923 273.607 87.2651 273.643 87.6515 273.715C88.0418 273.784 88.4181 273.926 88.7804 274.144C89.1466 274.361 89.4505 274.689 89.6919 275.128C89.9334 275.567 90.0542 276.154 90.0542 276.891V283H88.6294V281.744H88.557C88.4604 281.946 88.2994 282.161 88.074 282.39C87.8487 282.62 87.5488 282.815 87.1745 282.976C86.8002 283.137 86.3435 283.217 85.8042 283.217ZM86.0215 281.938C86.5849 281.938 87.0598 281.827 87.4462 281.605C87.8366 281.384 88.1304 281.098 88.3276 280.748C88.5288 280.398 88.6294 280.03 88.6294 279.643V278.339C88.5691 278.412 88.4363 278.478 88.231 278.539C88.0298 278.595 87.7963 278.645 87.5307 278.69C87.2691 278.73 87.0136 278.766 86.764 278.798C86.5185 278.826 86.3193 278.851 86.1664 278.871C85.7961 278.919 85.45 278.998 85.128 279.106C84.8101 279.211 84.5525 279.37 84.3553 279.583C84.1621 279.792 84.0655 280.078 84.0655 280.44C84.0655 280.935 84.2486 281.31 84.6149 281.563C84.9851 281.813 85.454 281.938 86.0215 281.938ZM97.4358 283V273.727H98.8605V277.76H99.8023L103.135 273.727H104.97L101.227 278.195L105.018 283H103.183L100.14 279.088H98.8605V283H97.4358ZM109.295 283.217C108.708 283.217 108.175 283.107 107.696 282.885C107.217 282.66 106.836 282.336 106.555 281.913C106.273 281.487 106.132 280.972 106.132 280.368C106.132 279.837 106.237 279.406 106.446 279.076C106.655 278.742 106.935 278.48 107.285 278.291C107.635 278.102 108.022 277.961 108.444 277.869C108.871 277.772 109.299 277.696 109.73 277.639C110.293 277.567 110.75 277.512 111.1 277.476C111.455 277.436 111.712 277.37 111.873 277.277C112.038 277.184 112.121 277.023 112.121 276.794V276.746C112.121 276.15 111.958 275.687 111.632 275.357C111.31 275.027 110.821 274.862 110.165 274.862C109.485 274.862 108.951 275.011 108.565 275.309C108.179 275.607 107.907 275.925 107.75 276.263L106.398 275.78C106.639 275.216 106.961 274.778 107.364 274.464C107.77 274.146 108.213 273.924 108.692 273.8C109.175 273.671 109.65 273.607 110.116 273.607C110.414 273.607 110.756 273.643 111.143 273.715C111.533 273.784 111.909 273.926 112.272 274.144C112.638 274.361 112.942 274.689 113.183 275.128C113.425 275.567 113.545 276.154 113.545 276.891V283H112.121V281.744H112.048C111.952 281.946 111.791 282.161 111.565 282.39C111.34 282.62 111.04 282.815 110.666 282.976C110.291 283.137 109.835 283.217 109.295 283.217ZM109.513 281.938C110.076 281.938 110.551 281.827 110.937 281.605C111.328 281.384 111.622 281.098 111.819 280.748C112.02 280.398 112.121 280.03 112.121 279.643V278.339C112.06 278.412 111.927 278.478 111.722 278.539C111.521 278.595 111.288 278.645 111.022 278.69C110.76 278.73 110.505 278.766 110.255 278.798C110.01 278.826 109.811 278.851 109.658 278.871C109.287 278.919 108.941 278.998 108.619 279.106C108.301 279.211 108.044 279.37 107.847 279.583C107.653 279.792 107.557 280.078 107.557 280.44C107.557 280.935 107.74 281.31 108.106 281.563C108.476 281.813 108.945 281.938 109.513 281.938ZM116.146 286.477V273.727H117.522V275.2H117.691C117.796 275.039 117.941 274.834 118.126 274.585C118.315 274.331 118.585 274.106 118.935 273.908C119.289 273.707 119.768 273.607 120.372 273.607C121.152 273.607 121.841 273.802 122.436 274.192C123.032 274.583 123.497 275.136 123.831 275.852C124.165 276.569 124.332 277.414 124.332 278.388C124.332 279.37 124.165 280.221 123.831 280.941C123.497 281.658 123.034 282.213 122.442 282.608C121.851 282.998 121.169 283.193 120.396 283.193C119.8 283.193 119.323 283.095 118.965 282.897C118.607 282.696 118.331 282.469 118.138 282.215C117.945 281.958 117.796 281.744 117.691 281.575H117.57V286.477H116.146ZM117.546 278.364C117.546 279.064 117.649 279.682 117.854 280.217C118.059 280.748 118.359 281.165 118.754 281.467C119.148 281.764 119.631 281.913 120.203 281.913C120.798 281.913 121.295 281.756 121.694 281.442C122.096 281.125 122.398 280.698 122.599 280.163C122.805 279.623 122.907 279.024 122.907 278.364C122.907 277.712 122.807 277.124 122.605 276.601C122.408 276.074 122.108 275.657 121.706 275.351C121.307 275.041 120.806 274.886 120.203 274.886C119.623 274.886 119.136 275.033 118.742 275.327C118.347 275.617 118.049 276.023 117.848 276.547C117.647 277.066 117.546 277.671 117.546 278.364ZM125.293 275.055V273.727H132.827V275.055H129.785V283H128.36V275.055H125.293ZM138.312 283.193C137.418 283.193 136.648 282.996 136 282.602C135.356 282.203 134.859 281.648 134.509 280.935C134.162 280.219 133.989 279.386 133.989 278.436C133.989 277.486 134.162 276.649 134.509 275.925C134.859 275.196 135.346 274.629 135.97 274.222C136.597 273.812 137.33 273.607 138.167 273.607C138.65 273.607 139.127 273.687 139.598 273.848C140.069 274.009 140.497 274.271 140.884 274.633C141.27 274.991 141.578 275.466 141.807 276.058C142.037 276.649 142.151 277.378 142.151 278.243V278.847H135.004V277.615H140.703C140.703 277.092 140.598 276.625 140.389 276.214C140.183 275.804 139.89 275.48 139.507 275.243C139.129 275.005 138.682 274.886 138.167 274.886C137.6 274.886 137.109 275.027 136.694 275.309C136.283 275.587 135.968 275.949 135.746 276.396C135.525 276.842 135.414 277.321 135.414 277.832V278.653C135.414 279.354 135.535 279.947 135.776 280.434C136.022 280.917 136.362 281.286 136.797 281.539C137.231 281.789 137.736 281.913 138.312 281.913C138.686 281.913 139.024 281.861 139.326 281.756C139.632 281.648 139.896 281.487 140.117 281.273C140.338 281.056 140.509 280.786 140.63 280.464L142.006 280.851C141.862 281.318 141.618 281.728 141.276 282.082C140.934 282.433 140.511 282.706 140.008 282.903C139.505 283.097 138.94 283.193 138.312 283.193Z" fill="#8A8F94"/>
<rect x="16.5" y="253.5" width="255" height="47" rx="9.5" stroke="white" stroke-opacity="0.08"/>
<rect x="16" y="309" width="122" height="48" rx="10" fill="white" fill-opacity="0.04"/>
<path d="M43.446 330.5H41.9489C41.8603 330.069 41.7054 329.691 41.484 329.365C41.2667 329.039 41.0011 328.765 40.6871 328.544C40.3772 328.319 40.0331 328.15 39.6548 328.037C39.2765 327.924 38.8821 327.868 38.4716 327.868C37.723 327.868 37.0449 328.057 36.4371 328.435C35.8335 328.814 35.3525 329.371 34.9943 330.108C34.6402 330.844 34.4631 331.748 34.4631 332.818C34.4631 333.889 34.6402 334.792 34.9943 335.529C35.3525 336.265 35.8335 336.823 36.4371 337.201C37.0449 337.579 37.723 337.768 38.4716 337.768C38.8821 337.768 39.2765 337.712 39.6548 337.599C40.0331 337.487 40.3772 337.32 40.6871 337.098C41.0011 336.873 41.2667 336.597 41.484 336.271C41.7054 335.941 41.8603 335.563 41.9489 335.136H43.446C43.3333 335.768 43.1281 336.334 42.8303 336.833C42.5324 337.332 42.1622 337.756 41.7195 338.107C41.2768 338.453 40.7797 338.716 40.2283 338.897C39.681 339.078 39.0954 339.169 38.4716 339.169C37.4171 339.169 36.4794 338.911 35.6584 338.396C34.8374 337.881 34.1914 337.149 33.7205 336.199C33.2496 335.249 33.0142 334.122 33.0142 332.818C33.0142 331.514 33.2496 330.387 33.7205 329.438C34.1914 328.488 34.8374 327.755 35.6584 327.24C36.4794 326.725 37.4171 326.467 38.4716 326.467C39.0954 326.467 39.681 326.558 40.2283 326.739C40.7797 326.92 41.2768 327.186 41.7195 327.536C42.1622 327.882 42.5324 328.305 42.8303 328.804C43.1281 329.299 43.3333 329.864 43.446 330.5ZM45.6721 342.477V329.727H47.0486V331.2H47.2176C47.3222 331.039 47.4671 330.834 47.6523 330.585C47.8414 330.331 48.1111 330.106 48.4612 329.908C48.8154 329.707 49.2943 329.607 49.898 329.607C50.6788 329.607 51.367 329.802 51.9626 330.192C52.5583 330.583 53.0231 331.136 53.3572 331.852C53.6912 332.569 53.8582 333.414 53.8582 334.388C53.8582 335.37 53.6912 336.221 53.3572 336.941C53.0231 337.658 52.5603 338.213 51.9687 338.608C51.377 338.998 50.6949 339.193 49.9221 339.193C49.3265 339.193 48.8496 339.095 48.4914 338.897C48.1332 338.696 47.8575 338.469 47.6643 338.215C47.4711 337.958 47.3222 337.744 47.2176 337.575H47.0969V342.477H45.6721ZM47.0727 334.364C47.0727 335.064 47.1753 335.682 47.3806 336.217C47.5858 336.748 47.8857 337.165 48.2801 337.467C48.6745 337.764 49.1575 337.913 49.729 337.913C50.3246 337.913 50.8216 337.756 51.2201 337.442C51.6225 337.125 51.9244 336.698 52.1256 336.163C52.3309 335.623 52.4335 335.024 52.4335 334.364C52.4335 333.712 52.3329 333.124 52.1317 332.601C51.9345 332.074 51.6346 331.657 51.2322 331.351C50.8337 331.041 50.3327 330.886 49.729 330.886C49.1494 330.886 48.6624 331.033 48.268 331.327C47.8736 331.617 47.5758 332.023 47.3746 332.547C47.1733 333.066 47.0727 333.671 47.0727 334.364ZM59.7986 339.193C58.9614 339.193 58.2269 338.994 57.5951 338.596C56.9672 338.197 56.4762 337.64 56.1221 336.923C55.7719 336.207 55.5969 335.37 55.5969 334.412C55.5969 333.446 55.7719 332.603 56.1221 331.882C56.4762 331.162 56.9672 330.603 57.5951 330.204C58.2269 329.806 58.9614 329.607 59.7986 329.607C60.6357 329.607 61.3682 329.806 61.996 330.204C62.6279 330.603 63.1189 331.162 63.469 331.882C63.8232 332.603 64.0003 333.446 64.0003 334.412C64.0003 335.37 63.8232 336.207 63.469 336.923C63.1189 337.64 62.6279 338.197 61.996 338.596C61.3682 338.994 60.6357 339.193 59.7986 339.193ZM59.7986 337.913C60.4345 337.913 60.9577 337.75 61.3682 337.424C61.7787 337.098 62.0825 336.67 62.2797 336.138C62.4769 335.607 62.5756 335.032 62.5756 334.412C62.5756 333.792 62.4769 333.215 62.2797 332.679C62.0825 332.144 61.7787 331.711 61.3682 331.381C60.9577 331.051 60.4345 330.886 59.7986 330.886C59.1627 330.886 58.6395 331.051 58.229 331.381C57.8184 331.711 57.5146 332.144 57.3174 332.679C57.1202 333.215 57.0216 333.792 57.0216 334.412C57.0216 335.032 57.1202 335.607 57.3174 336.138C57.5146 336.67 57.8184 337.098 58.229 337.424C58.6395 337.75 59.1627 337.913 59.7986 337.913ZM66.1751 339V329.727H67.5998V333.76H68.5415L71.8739 329.727H73.7092L69.9663 334.195L73.7575 339H71.9222L68.8796 335.088H67.5998V339H66.1751ZM79.0971 341.656V337.672H79.8699C80.059 337.475 80.222 337.261 80.3588 337.032C80.4957 336.803 80.6144 336.531 80.715 336.217C80.8197 335.899 80.9082 335.513 80.9806 335.058C81.0531 334.599 81.1175 334.046 81.1738 333.398L81.4877 329.727H87.3798V337.672H88.8045V341.656H87.3798V339H80.5218V341.656H79.0971ZM81.4877 337.672H85.9551V331.055H82.8159L82.5744 333.398C82.4738 334.368 82.349 335.215 82.2001 335.939C82.0512 336.664 81.8137 337.241 81.4877 337.672ZM94.4626 339.193C93.6255 339.193 92.891 338.994 92.2591 338.596C91.6313 338.197 91.1403 337.64 90.7861 336.923C90.436 336.207 90.2609 335.37 90.2609 334.412C90.2609 333.446 90.436 332.603 90.7861 331.882C91.1403 331.162 91.6313 330.603 92.2591 330.204C92.891 329.806 93.6255 329.607 94.4626 329.607C95.2997 329.607 96.0322 329.806 96.6601 330.204C97.2919 330.603 97.7829 331.162 98.1331 331.882C98.4872 332.603 98.6643 333.446 98.6643 334.412C98.6643 335.37 98.4872 336.207 98.1331 336.923C97.7829 337.64 97.2919 338.197 96.6601 338.596C96.0322 338.994 95.2997 339.193 94.4626 339.193ZM94.4626 337.913C95.0985 337.913 95.6217 337.75 96.0322 337.424C96.4427 337.098 96.7466 336.67 96.9438 336.138C97.141 335.607 97.2396 335.032 97.2396 334.412C97.2396 333.792 97.141 333.215 96.9438 332.679C96.7466 332.144 96.4427 331.711 96.0322 331.381C95.6217 331.051 95.0985 330.886 94.4626 330.886C93.8267 330.886 93.3035 331.051 92.893 331.381C92.4825 331.711 92.1787 332.144 91.9814 332.679C91.7842 333.215 91.6856 333.792 91.6856 334.412C91.6856 335.032 91.7842 335.607 91.9814 336.138C92.1787 336.67 92.4825 337.098 92.893 337.424C93.3035 337.75 93.8267 337.913 94.4626 337.913Z" fill="#8A8F94"/>
<rect x="16.5" y="309.5" width="121" height="47" rx="9.5" stroke="white" stroke-opacity="0.08"/>
<rect x="150" y="309" width="122" height="48" rx="10" fill="white" fill-opacity="0.04"/>
<path d="M177.446 330.5H175.949C175.86 330.069 175.705 329.691 175.484 329.365C175.267 329.039 175.001 328.765 174.687 328.544C174.377 328.319 174.033 328.15 173.655 328.037C173.277 327.924 172.882 327.868 172.472 327.868C171.723 327.868 171.045 328.057 170.437 328.435C169.833 328.814 169.353 329.371 168.994 330.108C168.64 330.844 168.463 331.748 168.463 332.818C168.463 333.889 168.64 334.792 168.994 335.529C169.353 336.265 169.833 336.823 170.437 337.201C171.045 337.579 171.723 337.768 172.472 337.768C172.882 337.768 173.277 337.712 173.655 337.599C174.033 337.487 174.377 337.32 174.687 337.098C175.001 336.873 175.267 336.597 175.484 336.271C175.705 335.941 175.86 335.563 175.949 335.136H177.446C177.333 335.768 177.128 336.334 176.83 336.833C176.532 337.332 176.162 337.756 175.719 338.107C175.277 338.453 174.78 338.716 174.228 338.897C173.681 339.078 173.095 339.169 172.472 339.169C171.417 339.169 170.479 338.911 169.658 338.396C168.837 337.881 168.191 337.149 167.721 336.199C167.25 335.249 167.014 334.122 167.014 332.818C167.014 331.514 167.25 330.387 167.721 329.438C168.191 328.488 168.837 327.755 169.658 327.24C170.479 326.725 171.417 326.467 172.472 326.467C173.095 326.467 173.681 326.558 174.228 326.739C174.78 326.92 175.277 327.186 175.719 327.536C176.162 327.882 176.532 328.305 176.83 328.804C177.128 329.299 177.333 329.864 177.446 330.5ZM180.372 326.636L184.043 337.044H184.188L187.858 326.636H189.428L184.888 339H183.343L178.803 326.636H180.372ZM200.721 330.5H199.224C199.136 330.069 198.981 329.691 198.759 329.365C198.542 329.039 198.276 328.765 197.963 328.544C197.653 328.319 197.309 328.15 196.93 328.037C196.552 327.924 196.157 327.868 195.747 327.868C194.998 327.868 194.32 328.057 193.713 328.435C193.109 328.814 192.628 329.371 192.27 330.108C191.916 330.844 191.738 331.748 191.738 332.818C191.738 333.889 191.916 334.792 192.27 335.529C192.628 336.265 193.109 336.823 193.713 337.201C194.32 337.579 194.998 337.768 195.747 337.768C196.157 337.768 196.552 337.712 196.93 337.599C197.309 337.487 197.653 337.32 197.963 337.098C198.276 336.873 198.542 336.597 198.759 336.271C198.981 335.941 199.136 335.563 199.224 335.136H200.721C200.609 335.768 200.403 336.334 200.106 336.833C199.808 337.332 199.438 337.756 198.995 338.107C198.552 338.453 198.055 338.716 197.504 338.897C196.956 339.078 196.371 339.169 195.747 339.169C194.693 339.169 193.755 338.911 192.934 338.396C192.113 337.881 191.467 337.149 190.996 336.199C190.525 335.249 190.29 334.122 190.29 332.818C190.29 331.514 190.525 330.387 190.996 329.438C191.467 328.488 192.113 327.755 192.934 327.24C193.755 326.725 194.693 326.467 195.747 326.467C196.371 326.467 196.956 326.558 197.504 326.739C198.055 326.92 198.552 327.186 198.995 327.536C199.438 327.882 199.808 328.305 200.106 328.804C200.403 329.299 200.609 329.864 200.721 330.5Z" fill="#8A8F94"/>
<rect x="150.5" y="309.5" width="121" height="47" rx="9.5" stroke="white" stroke-opacity="0.08"/>
<path fill-rule="evenodd" clip-rule="evenodd" d="M38.5613 392.915C39.307 392.915 39.9463 393.521 39.9463 394.284C39.9463 394.29 39.9448 394.298 39.9432 394.306C39.9381 394.332 39.9322 394.363 39.9729 394.363V396.743H16.002V394.363V394.258C16.002 393.521 16.6145 392.889 17.3869 392.889H18.3724V382.033H16.002V379.955C16.002 379.77 16.0819 379.56 16.1884 379.402L16.3482 379.218L26.6291 373.348C26.7245 373.29 26.8147 373.232 26.9023 373.175C27.2548 372.945 27.5661 372.743 28.0141 372.743C28.4741 372.743 28.8261 372.974 29.1737 373.203C29.2487 373.252 29.3234 373.301 29.399 373.348L39.5734 379.218L39.7332 379.376C39.8663 379.533 39.9463 379.744 39.9463 379.955V382.033H37.6531V392.889L38.5613 392.915ZM29.1473 392.872V382.807H26.8275V392.872H29.1473ZM32.2403 382.807V392.872H34.5601L34.6194 382.807H32.2403ZM35.3334 379.71L28.0141 375.452L20.6415 379.744L35.3334 379.71ZM23.7526 382.807H21.4147V392.889L23.7345 392.872L23.7526 382.807ZM49.2523 383.035C49.2523 382.483 49.7001 382.035 50.2523 382.035H100.06C100.613 382.035 101.06 382.483 101.06 383.035V391.874C101.06 392.426 100.613 392.874 100.06 392.874H50.2523C49.7001 392.874 49.2523 392.426 49.2523 391.874V383.035ZM107.247 383.035C107.247 382.483 107.695 382.035 108.247 382.035H148.003C148.556 382.035 149.003 382.483 149.003 383.035V391.874C149.003 392.426 148.556 392.874 148.003 392.874H108.247C107.695 392.874 107.247 392.426 107.247 391.874V383.035Z" fill="#8A8F94"/>
<path d="M0 439C0 433.477 4.47715 429 10 429H278C283.523 429 288 433.477 288 439V467C288 472.523 283.523 477 278 477H10C4.47715 477 0 472.523 0 467V439Z" fill="url(#paint0_linear_1822_30420)"/>
<path fill-rule="evenodd" clip-rule="evenodd" d="M66.4997 450.5H71.4997V449.667C71.4997 448.286 70.3804 447.167 68.9997 447.167C67.619 447.167 66.4997 448.286 66.4997 449.667V450.5ZM64.833 450.5H64.333C63.2284 450.5 62.333 451.395 62.333 452.5V458.5C62.333 459.605 63.2284 460.5 64.333 460.5H73.6663C74.7709 460.5 75.6663 459.605 75.6663 458.5V452.5C75.6663 451.395 74.7709 450.5 73.6663 450.5H73.1663V449.667C73.1663 447.365 71.3009 445.5 68.9997 445.5C66.6985 445.5 64.833 447.365 64.833 449.667V450.5ZM69.833 456.11C70.3312 455.822 70.6663 455.284 70.6663 454.667C70.6663 453.746 69.9201 453 68.9997 453C68.0792 453 67.333 453.746 67.333 454.667C67.333 455.284 67.6682 455.822 68.1663 456.11V457.167C68.1663 457.627 68.5394 458 68.9997 458C69.4599 458 69.833 457.627 69.833 457.167V456.11Z" fill="white"/>
<path d="M97.4487 452.818C97.4487 454.15 97.1992 455.291 96.7001 456.241C96.2051 457.187 95.5289 457.911 94.6717 458.414C93.8185 458.917 92.8506 459.169 91.7679 459.169C90.6853 459.169 89.7154 458.917 88.8581 458.414C88.0049 457.907 87.3288 457.181 86.8297 456.235C86.3347 455.285 86.0872 454.146 86.0872 452.818C86.0872 451.486 86.3347 450.347 86.8297 449.401C87.3288 448.451 88.0049 447.725 88.8581 447.222C89.7154 446.719 90.6853 446.467 91.7679 446.467C92.8506 446.467 93.8185 446.719 94.6717 447.222C95.5289 447.725 96.2051 448.451 96.7001 449.401C97.1992 450.347 97.4487 451.486 97.4487 452.818ZM95.1969 452.818C95.1969 451.88 95.05 451.09 94.7562 450.446C94.4664 449.798 94.064 449.309 93.5488 448.979C93.0337 448.645 92.44 448.478 91.7679 448.478C91.0958 448.478 90.5022 448.645 89.987 448.979C89.4719 449.309 89.0674 449.798 88.7736 450.446C88.4838 451.09 88.339 451.88 88.339 452.818C88.339 453.756 88.4838 454.549 88.7736 455.197C89.0674 455.841 89.4719 456.33 89.987 456.664C90.5022 456.994 91.0958 457.159 91.7679 457.159C92.44 457.159 93.0337 456.994 93.5488 456.664C94.064 456.33 94.4664 455.841 94.7562 455.197C95.05 454.549 95.1969 453.756 95.1969 452.818ZM99.4695 459V449.727H107.299V459H105.193V451.52H101.558V459H99.4695ZM108.907 459L108.895 457.201H109.215C109.456 457.201 109.659 457.147 109.824 457.038C109.989 456.929 110.126 456.748 110.235 456.495C110.344 456.237 110.428 455.891 110.488 455.456C110.549 455.022 110.591 454.48 110.615 453.832L110.778 449.727H117.54V459H115.427V451.52H112.764L112.619 454.509C112.583 455.281 112.497 455.951 112.36 456.519C112.227 457.082 112.038 457.547 111.792 457.913C111.551 458.28 111.247 458.553 110.881 458.734C110.515 458.911 110.082 459 109.583 459H108.907ZM122.408 459.187C121.821 459.187 121.292 459.083 120.821 458.873C120.354 458.66 119.984 458.346 119.71 457.931C119.44 457.517 119.305 457.006 119.305 456.398C119.305 455.875 119.402 455.442 119.595 455.1C119.788 454.758 120.052 454.484 120.386 454.279C120.72 454.074 121.096 453.919 121.515 453.814C121.938 453.706 122.374 453.627 122.825 453.579C123.368 453.522 123.809 453.472 124.147 453.428C124.485 453.38 124.731 453.307 124.884 453.211C125.04 453.11 125.119 452.955 125.119 452.746V452.71C125.119 452.255 124.984 451.903 124.714 451.653C124.445 451.404 124.056 451.279 123.549 451.279C123.014 451.279 122.589 451.395 122.276 451.629C121.966 451.862 121.756 452.138 121.648 452.456L119.607 452.166C119.768 451.603 120.034 451.132 120.404 450.754C120.774 450.371 121.227 450.085 121.762 449.896C122.298 449.703 122.889 449.607 123.537 449.607C123.984 449.607 124.429 449.659 124.871 449.763C125.314 449.868 125.719 450.041 126.085 450.283C126.451 450.52 126.745 450.844 126.966 451.255C127.192 451.665 127.304 452.178 127.304 452.794V459H125.203V457.726H125.131C124.998 457.984 124.811 458.225 124.57 458.451C124.332 458.672 124.032 458.851 123.67 458.988C123.312 459.121 122.891 459.187 122.408 459.187ZM122.976 457.581C123.415 457.581 123.795 457.495 124.117 457.322C124.439 457.145 124.686 456.911 124.859 456.621C125.036 456.332 125.125 456.016 125.125 455.674V454.581C125.057 454.637 124.94 454.69 124.775 454.738C124.614 454.786 124.433 454.828 124.232 454.865C124.03 454.901 123.831 454.933 123.634 454.961C123.437 454.989 123.266 455.014 123.121 455.034C122.795 455.078 122.503 455.15 122.245 455.251C121.988 455.352 121.785 455.493 121.636 455.674C121.487 455.851 121.412 456.08 121.412 456.362C121.412 456.764 121.559 457.068 121.853 457.273C122.147 457.479 122.521 457.581 122.976 457.581ZM128.463 451.52V449.727H136.577V451.52H133.577V459H131.464V451.52H128.463ZM140.424 456.042L144.137 449.727H146.383V459H144.27V452.679L140.569 459H138.317V449.727H140.424V456.042ZM147.588 451.52V449.727H155.702V451.52H152.702V459H150.589V451.52H147.588ZM158.921 452.746H161.656C162.839 452.746 163.755 453.033 164.403 453.609C165.051 454.185 165.377 454.939 165.381 455.873C165.377 456.481 165.228 457.02 164.934 457.491C164.644 457.962 164.222 458.332 163.666 458.602C163.115 458.867 162.445 459 161.656 459H157.442V449.727H159.549V457.207H161.656C162.131 457.207 162.521 457.086 162.827 456.845C163.133 456.599 163.286 456.285 163.286 455.903C163.286 455.501 163.133 455.173 162.827 454.919C162.521 454.665 162.131 454.539 161.656 454.539H158.921V452.746ZM176.475 446.636V459H174.235V448.816H174.163L171.271 450.663V448.61L174.344 446.636H176.475ZM179.391 456.706V454.925L184.637 446.636H186.122V449.172H185.217L181.685 454.768V454.865H189.008V456.706H179.391ZM185.289 459V456.163L185.313 455.366V446.636H187.426V459H185.289ZM195.229 446.467C195.82 446.471 196.396 446.576 196.955 446.781C197.519 446.982 198.026 447.312 198.477 447.771C198.927 448.226 199.286 448.836 199.551 449.6C199.817 450.365 199.95 451.311 199.95 452.438C199.954 453.5 199.841 454.45 199.612 455.287C199.386 456.12 199.062 456.825 198.64 457.4C198.217 457.976 197.708 458.414 197.112 458.716C196.517 459.018 195.847 459.169 195.102 459.169C194.321 459.169 193.629 459.016 193.025 458.71C192.426 458.404 191.941 457.986 191.57 457.455C191.2 456.923 190.973 456.316 190.888 455.631H193.092C193.204 456.122 193.434 456.513 193.78 456.803C194.13 457.088 194.571 457.231 195.102 457.231C195.959 457.231 196.619 456.859 197.082 456.114C197.545 455.37 197.776 454.335 197.776 453.011H197.692C197.495 453.366 197.239 453.671 196.925 453.929C196.611 454.183 196.255 454.378 195.857 454.515C195.462 454.651 195.044 454.72 194.601 454.72C193.877 454.72 193.225 454.547 192.645 454.201C192.07 453.855 191.613 453.38 191.275 452.776C190.941 452.172 190.772 451.482 190.768 450.705C190.768 449.9 190.953 449.178 191.323 448.538C191.697 447.894 192.218 447.387 192.887 447.017C193.555 446.642 194.335 446.459 195.229 446.467ZM195.235 448.278C194.8 448.278 194.408 448.385 194.058 448.598C193.712 448.808 193.438 449.093 193.237 449.456C193.039 449.814 192.941 450.214 192.941 450.657C192.945 451.096 193.044 451.494 193.237 451.852C193.434 452.21 193.702 452.494 194.04 452.703C194.382 452.913 194.772 453.017 195.211 453.017C195.537 453.017 195.841 452.955 196.122 452.83C196.404 452.705 196.65 452.532 196.859 452.311C197.072 452.086 197.237 451.83 197.354 451.544C197.475 451.259 197.533 450.957 197.529 450.639C197.529 450.216 197.428 449.826 197.227 449.468C197.03 449.109 196.758 448.822 196.412 448.604C196.07 448.387 195.678 448.278 195.235 448.278ZM206.53 459.235C205.536 459.235 204.683 458.984 203.97 458.481C203.262 457.974 202.717 457.243 202.334 456.289C201.956 455.332 201.767 454.179 201.767 452.83C201.771 451.482 201.962 450.335 202.34 449.389C202.723 448.439 203.268 447.715 203.976 447.216C204.689 446.717 205.54 446.467 206.53 446.467C207.52 446.467 208.371 446.717 209.084 447.216C209.796 447.715 210.341 448.439 210.72 449.389C211.102 450.339 211.293 451.486 211.293 452.83C211.293 454.183 211.102 455.338 210.72 456.295C210.341 457.249 209.796 457.978 209.084 458.481C208.375 458.984 207.524 459.235 206.53 459.235ZM206.53 457.346C207.303 457.346 207.912 456.966 208.359 456.205C208.81 455.44 209.035 454.315 209.035 452.83C209.035 451.848 208.933 451.023 208.727 450.355C208.522 449.687 208.232 449.184 207.858 448.846C207.484 448.504 207.041 448.333 206.53 448.333C205.761 448.333 205.154 448.715 204.707 449.48C204.26 450.24 204.035 451.357 204.031 452.83C204.027 453.816 204.125 454.645 204.327 455.317C204.532 455.99 204.822 456.497 205.196 456.839C205.57 457.177 206.015 457.346 206.53 457.346ZM223.631 454.346H217.153V452.504H223.583C224.102 452.504 224.529 452.422 224.863 452.257C225.201 452.092 225.45 451.862 225.611 451.569C225.776 451.275 225.857 450.931 225.853 450.536C225.857 450.15 225.776 449.804 225.611 449.498C225.45 449.188 225.205 448.944 224.875 448.767C224.549 448.586 224.134 448.496 223.631 448.496H221.204V459H218.971V446.636H223.631C224.589 446.636 225.4 446.809 226.064 447.156C226.728 447.498 227.231 447.962 227.573 448.55C227.919 449.134 228.092 449.79 228.092 450.518C228.092 451.275 227.917 451.941 227.567 452.516C227.217 453.088 226.71 453.537 226.046 453.863C225.382 454.185 224.577 454.346 223.631 454.346ZM223.915 455.263V457.104H217.153V455.263H223.915Z" fill="white"/>
<path d="M23.6761 502H24.821V497.771H29.8622V502H31.0071V492.545H29.8622V496.756H24.821V492.545H23.6761V502ZM35.2381 502.166C36.4753 502.166 37.1216 501.501 37.3432 501.04H37.3986V502H38.4881V497.328C38.4881 495.075 36.7708 494.817 35.8659 494.817C34.7949 494.817 33.5762 495.186 33.0222 496.479L34.0563 496.848C34.2963 496.331 34.8642 495.777 35.9029 495.777C36.9047 495.777 37.3986 496.308 37.3986 497.217V497.254C37.3986 497.781 36.8631 497.734 35.5705 497.901C34.2548 498.071 32.8191 498.362 32.8191 499.987C32.8191 501.372 33.8901 502.166 35.2381 502.166ZM35.4043 501.188C34.5364 501.188 33.9086 500.8 33.9086 500.043C33.9086 499.212 34.6657 498.953 35.5151 498.842C35.9767 498.787 37.214 498.658 37.3986 498.436V499.433C37.3986 500.32 36.6969 501.188 35.4043 501.188ZM40.0335 502H41.3445L43.7636 498.953H44.3176V502H45.407V498.953H45.961L48.3616 502H49.6727L46.8105 498.399L49.6357 494.909H48.3431L45.9795 497.938H45.407V494.909H44.3176V497.938H43.7267L41.363 494.909H40.0704L42.9142 498.399L40.0335 502ZM52.3191 500.393V494.909H51.2296V502H52.5037L55.9015 496.516V502H56.9909V494.909H55.7353L52.3191 500.393ZM62.8643 500.523L60.4268 494.909H58.9864V502H60.0759V496.474L62.4211 502H63.3074L65.6526 496.576V502H66.7421V494.909H65.3387L62.8643 500.523ZM70.8231 502.166C72.0603 502.166 72.7066 501.501 72.9282 501.04H72.9836V502H74.0731V497.328C74.0731 495.075 72.3557 494.817 71.4509 494.817C70.3799 494.817 69.1611 495.186 68.6072 496.479L69.6412 496.848C69.8813 496.331 70.4491 495.777 71.4878 495.777C72.4896 495.777 72.9836 496.308 72.9836 497.217V497.254C72.9836 497.781 72.4481 497.734 71.1555 497.901C69.8398 498.071 68.404 498.362 68.404 499.987C68.404 501.372 69.4751 502.166 70.8231 502.166ZM70.9893 501.188C70.1214 501.188 69.4935 500.8 69.4935 500.043C69.4935 499.212 70.2506 498.953 71.1001 498.842C71.5617 498.787 72.7989 498.658 72.9836 498.436V499.433C72.9836 500.32 72.2819 501.188 70.9893 501.188ZM80.3272 502H81.3613V494.909H78.4437C76.9157 494.909 75.9877 495.708 75.9877 497.014C75.9877 497.988 76.4771 498.681 77.3311 498.972L75.6 502H76.7818L78.4252 499.119H80.3272V502ZM80.3272 498.104H78.3145C77.5435 498.104 77.0772 497.693 77.0772 497.014C77.0772 496.326 77.5943 495.906 78.4437 495.906H80.3272V498.104ZM88.1072 494.909H87.0177V502H88.1072V498.972H91.5049V502H92.5944V494.909H91.5049V497.956H88.1072V494.909ZM96.6707 502.166C97.9079 502.166 98.5542 501.501 98.7758 501.04H98.8312V502H99.9207V497.328C99.9207 495.075 98.2034 494.817 97.2986 494.817C96.2275 494.817 95.0088 495.186 94.4548 496.479L95.4889 496.848C95.729 496.331 96.2968 495.777 97.3355 495.777C98.3373 495.777 98.8312 496.308 98.8312 497.217V497.254C98.8312 497.781 98.2957 497.734 97.0031 497.901C95.6874 498.071 94.2517 498.362 94.2517 499.987C94.2517 501.372 95.3227 502.166 96.6707 502.166ZM96.8369 501.188C95.969 501.188 95.3412 500.8 95.3412 500.043C95.3412 499.212 96.0983 498.953 96.9477 498.842C97.4094 498.787 98.6466 498.658 98.8312 498.436V499.433C98.8312 500.32 98.1295 501.188 96.8369 501.188ZM105.566 502H106.655V499.009H107.634L109.96 502H111.364L108.465 498.325L111.327 494.909H109.923L107.375 497.993H106.655V494.909H105.566V502ZM113.637 494.909H112.548V502H113.637V498.972H117.035V502H118.125V494.909H117.035V497.956H113.637V494.909ZM122.995 502.148C124.915 502.148 126.208 500.689 126.208 498.491C126.208 496.276 124.915 494.817 122.995 494.817C121.075 494.817 119.782 496.276 119.782 498.491C119.782 500.689 121.075 502.148 122.995 502.148ZM122.995 501.169C121.536 501.169 120.871 499.913 120.871 498.491C120.871 497.07 121.536 495.795 122.995 495.795C124.454 495.795 125.119 497.07 125.119 498.491C125.119 499.913 124.454 501.169 122.995 501.169ZM127.871 502H128.961V495.925H132.358V502H133.448V494.909H127.871V502ZM135.438 502H136.527V499.009H137.506L139.832 502H141.236L138.337 498.325L141.199 494.909H139.796L137.247 497.993H136.527V494.909H135.438V502ZM143.122 504.659C144.105 504.659 144.797 504.137 145.208 503.034L148.228 494.928L147.036 494.909L145.079 500.56H145.005L143.048 494.909H141.866L144.488 502.037L144.285 502.591C143.888 503.671 143.399 503.773 142.605 503.57L142.328 504.53C142.438 504.585 142.752 504.659 143.122 504.659ZM150.85 500.707H149.668L149.612 501.224C149.479 502.475 149.215 503.722 149.095 504.308H149.926C150.148 503.68 150.619 502.259 150.776 501.206L150.85 500.707ZM156.525 502H159.867C161.307 502 162.175 501.188 162.175 500.098C162.175 498.985 161.33 498.385 160.55 498.27C161.349 498.104 161.917 497.656 161.917 496.793C161.917 495.662 160.947 494.909 159.424 494.909H156.525V502ZM157.559 501.003V498.824H159.867C160.615 498.824 161.067 499.272 161.067 500.006C161.067 500.624 160.615 501.003 159.867 501.003H157.559ZM157.559 497.882V495.906H159.424C160.296 495.906 160.827 496.271 160.827 496.866C160.827 497.499 160.296 497.882 159.424 497.882H157.559ZM164.914 497.476V494.909H163.824V502H166.797C168.459 502 169.364 500.984 169.364 499.71C169.364 498.418 168.459 497.476 166.797 497.476H164.914ZM170.491 502H171.58V494.909H170.491V502ZM164.914 498.491H166.797C167.661 498.491 168.275 499.018 168.275 499.766C168.275 500.481 167.661 500.984 166.797 500.984H164.914V498.491ZM180.111 502.148C181.681 502.148 182.715 501.188 182.9 499.932H181.81C181.607 500.707 180.961 501.169 180.111 501.169C178.819 501.169 177.988 500.098 177.988 498.455C177.988 496.848 178.837 495.795 180.111 495.795C181.071 495.795 181.644 496.386 181.81 497.033H182.9C182.715 495.703 181.589 494.817 180.093 494.817C178.172 494.817 176.898 496.331 176.898 498.491C176.898 500.615 178.117 502.148 180.111 502.148ZM187.373 502.148C189.293 502.148 190.586 500.689 190.586 498.491C190.586 496.276 189.293 494.817 187.373 494.817C185.453 494.817 184.16 496.276 184.16 498.491C184.16 500.689 185.453 502.148 187.373 502.148ZM187.373 501.169C185.914 501.169 185.249 499.913 185.249 498.491C185.249 497.07 185.914 495.795 187.373 495.795C188.832 495.795 189.497 497.07 189.497 498.491C189.497 499.913 188.832 501.169 187.373 501.169ZM196.626 494.909H192.249V502H193.339V495.925H196.626V494.909ZM196.991 502H197.361C198.93 502 199.383 500.781 199.484 498.455L199.595 495.925H202.199V502H203.288V494.909H198.561L198.432 498.048C198.339 500.43 198.099 500.984 197.25 500.984H196.991V502ZM207.374 502.166C208.611 502.166 209.257 501.501 209.479 501.04H209.534V502H210.624V497.328C210.624 495.075 208.907 494.817 208.002 494.817C206.931 494.817 205.712 495.186 205.158 496.479L206.192 496.848C206.432 496.331 207 495.777 208.039 495.777C209.04 495.777 209.534 496.308 209.534 497.217V497.254C209.534 497.781 208.999 497.734 207.706 497.901C206.391 498.071 204.955 498.362 204.955 499.987C204.955 501.372 206.026 502.166 207.374 502.166ZM207.54 501.188C206.672 501.188 206.044 500.8 206.044 500.043C206.044 499.212 206.801 498.953 207.651 498.842C208.112 498.787 209.35 498.658 209.534 498.436V499.433C209.534 500.32 208.833 501.188 207.54 501.188ZM212.612 494.909V502H221.236V494.909H220.146V500.984H217.469V494.909H216.379V500.984H213.702V494.909H212.612ZM225.312 502.166C226.55 502.166 227.196 501.501 227.417 501.04H227.473V502H228.562V497.328C228.562 495.075 226.845 494.817 225.94 494.817C224.869 494.817 223.65 495.186 223.096 496.479L224.131 496.848C224.371 496.331 224.938 495.777 225.977 495.777C226.979 495.777 227.473 496.308 227.473 497.217V497.254C227.473 497.781 226.937 497.734 225.645 497.901C224.329 498.071 222.893 498.362 222.893 499.987C222.893 501.372 223.964 502.166 225.312 502.166ZM225.479 501.188C224.611 501.188 223.983 500.8 223.983 500.043C223.983 499.212 224.74 498.953 225.589 498.842C226.051 498.787 227.288 498.658 227.473 498.436V499.433C227.473 500.32 226.771 501.188 225.479 501.188ZM233.524 502.148C234.964 502.148 236.017 501.428 236.349 500.357L235.297 500.061C235.02 500.8 234.378 501.169 233.524 501.169C232.245 501.169 231.363 500.343 231.313 498.824H236.46V498.362C236.46 495.722 234.89 494.817 233.413 494.817C231.493 494.817 230.218 496.331 230.218 498.51C230.218 500.689 231.474 502.148 233.524 502.148ZM231.313 497.882C231.386 496.779 232.167 495.795 233.413 495.795C234.595 495.795 235.352 496.682 235.352 497.882H231.313ZM237.457 495.925H239.802V502H240.892V495.925H243.218V494.909H237.457V495.925ZM247.413 502.148C248.853 502.148 249.905 501.428 250.238 500.357L249.185 500.061C248.908 500.8 248.267 501.169 247.413 501.169C246.134 501.169 245.252 500.343 245.201 498.824H250.349V498.362C250.349 495.722 248.779 494.817 247.302 494.817C245.381 494.817 244.107 496.331 244.107 498.51C244.107 500.689 245.363 502.148 247.413 502.148ZM245.201 497.882C245.275 496.779 246.055 495.795 247.302 495.795C248.484 495.795 249.241 496.682 249.241 497.882H245.201ZM254.887 502.148C256.456 502.148 257.49 501.188 257.675 499.932H256.585C256.382 500.707 255.736 501.169 254.887 501.169C253.594 501.169 252.763 500.098 252.763 498.455C252.763 496.848 253.612 495.795 254.887 495.795C255.847 495.795 256.419 496.386 256.585 497.033H257.675C257.49 495.703 256.364 494.817 254.868 494.817C252.948 494.817 251.674 496.331 251.674 498.491C251.674 500.615 252.892 502.148 254.887 502.148ZM260.357 497.476V494.909H259.268V502H262.241C263.903 502 264.807 500.984 264.807 499.71C264.807 498.418 263.903 497.476 262.241 497.476H260.357ZM260.357 498.491H262.241C263.104 498.491 263.718 499.018 263.718 499.766C263.718 500.481 263.104 500.984 262.241 500.984H260.357V498.491Z" fill="#8A8F94"/>
<path d="M39.2187 518.148C40.7883 518.148 41.8224 517.188 42.007 515.932H40.9175C40.7144 516.707 40.0681 517.169 39.2187 517.169C37.926 517.169 37.0951 516.098 37.0951 514.455C37.0951 512.848 37.9445 511.795 39.2187 511.795C40.1789 511.795 40.7513 512.386 40.9175 513.033H42.007C41.8224 511.703 40.6959 510.817 39.2002 510.817C37.2797 510.817 36.0056 512.331 36.0056 514.491C36.0056 516.615 37.2243 518.148 39.2187 518.148ZM46.4988 520.031H47.5883V518H52.8327V520.031H53.9221V516.984H52.8327V510.909H48.327L48.0869 513.716C47.9161 515.701 47.6622 516.384 47.0898 516.984H46.4988V520.031ZM48.327 516.984C48.8256 516.329 49.0056 515.198 49.1579 513.716L49.3426 511.925H51.7432V516.984H48.327ZM54.7404 518H55.1097C56.6793 518 57.1317 516.781 57.2333 514.455L57.3441 511.925H59.9478V518H61.0373V510.909H56.31L56.1808 514.048C56.0884 516.43 55.8484 516.984 54.9989 516.984H54.7404V518ZM64.1257 516.393V510.909H63.0362V518H64.3104L67.7081 512.516V518H68.7976V510.909H67.5419L64.1257 516.393ZM71.8825 510.909H70.7931V518H71.8825V514.972H75.2803V518H76.3698V510.909H75.2803V513.956H71.8825V510.909ZM79.449 510.909H78.3595V518H79.449V514.972H82.8467V518H83.9362V510.909H82.8467V513.956H79.449V510.909ZM87.0154 513.476V510.909H85.9259V518H88.8989C90.5608 518 91.4656 516.984 91.4656 515.71C91.4656 514.418 90.5608 513.476 88.8989 513.476H87.0154ZM92.5921 518H93.6816V510.909H92.5921V518ZM87.0154 514.491H88.8989C89.7622 514.491 90.3762 515.018 90.3762 515.766C90.3762 516.481 89.7622 516.984 88.8989 516.984H87.0154V514.491ZM99.5537 516.523L97.1162 510.909H95.6759V518H96.7654V512.474L99.1105 518H99.9969L102.342 512.576V518H103.432V510.909H102.028L99.5537 516.523ZM109.655 510.909H108.565V518H109.655V515.027H111.473C111.667 516.924 112.9 518.148 114.659 518.148C116.579 518.148 117.872 516.689 117.872 514.491C117.872 512.276 116.579 510.817 114.659 510.817C112.881 510.817 111.64 512.068 111.469 514.011H109.655V510.909ZM114.659 517.169C113.2 517.169 112.535 515.913 112.535 514.491C112.535 513.07 113.2 511.795 114.659 511.795C116.118 511.795 116.782 513.07 116.782 514.491C116.782 515.913 116.118 517.169 114.659 517.169ZM119.645 520.659H120.734V516.911H120.826C121.066 517.298 121.528 518.148 122.895 518.148C124.667 518.148 125.905 516.726 125.905 514.473C125.905 512.239 124.667 510.817 122.876 510.817C121.491 510.817 121.066 511.666 120.826 512.036H120.697V510.909H119.645V520.659ZM120.716 514.455C120.716 512.866 121.417 511.795 122.747 511.795C124.132 511.795 124.815 512.959 124.815 514.455C124.815 515.969 124.113 517.169 122.747 517.169C121.436 517.169 120.716 516.061 120.716 514.455ZM128.656 516.393V510.909H127.566V518H128.841L132.238 512.516V518H133.328V510.909H132.072L128.656 516.393ZM134.566 520.031H135.656V518H140.9V520.031H141.99V516.984H140.9V510.909H136.394L136.154 513.716C135.983 515.701 135.73 516.384 135.157 516.984H134.566V520.031ZM136.394 516.984C136.893 516.329 137.073 515.198 137.225 513.716L137.41 511.925H139.811V516.984H136.394ZM144.525 516.393V510.909H143.436V518H144.71L148.108 512.516V518H149.197V510.909H147.941L144.525 516.393ZM156.658 510.909H155.569V514.505C155.043 514.658 154.502 514.75 153.852 514.75C152.965 514.75 152.282 514.251 152.282 513.162V510.891H151.192V513.162C151.192 514.898 152.245 515.766 153.852 515.766C154.521 515.766 155.056 515.678 155.569 515.526V518H156.658V510.909ZM161.63 518.148C163.071 518.148 164.123 517.428 164.456 516.357L163.403 516.061C163.126 516.8 162.484 517.169 161.63 517.169C160.352 517.169 159.47 516.343 159.419 514.824H164.566V514.362C164.566 511.722 162.997 510.817 161.52 510.817C159.599 510.817 158.325 512.331 158.325 514.51C158.325 516.689 159.581 518.148 161.63 518.148ZM159.419 513.882C159.493 512.779 160.273 511.795 161.52 511.795C162.701 511.795 163.458 512.682 163.458 513.882H159.419ZM169.104 518.148C170.674 518.148 171.708 517.188 171.893 515.932H170.803C170.6 516.707 169.954 517.169 169.104 517.169C167.812 517.169 166.981 516.098 166.981 514.455C166.981 512.848 167.83 511.795 169.104 511.795C170.065 511.795 170.637 512.386 170.803 513.033H171.893C171.708 511.703 170.582 510.817 169.086 510.817C167.165 510.817 165.891 512.331 165.891 514.491C165.891 516.615 167.11 518.148 169.104 518.148ZM173.485 518H174.575V515.009H175.554L177.88 518H179.284L176.385 514.325L179.247 510.909H177.843L175.295 513.993H174.575V510.909H173.485V518ZM181.557 516.393V510.909H180.468V518H181.742L185.14 512.516V518H186.229V510.909H184.974L181.557 516.393ZM192.103 516.523L189.665 510.909H188.225V518H189.314V512.474L191.659 518H192.546L194.891 512.576V518H195.98V510.909H194.577L192.103 516.523ZM201.225 511.925H203.57V518H204.659V511.925H206.986V510.909H201.225V511.925ZM211.18 518.148C212.62 518.148 213.673 517.428 214.005 516.357L212.953 516.061C212.676 516.8 212.034 517.169 211.18 517.169C209.901 517.169 209.02 516.343 208.969 514.824H214.116V514.362C214.116 511.722 212.547 510.817 211.069 510.817C209.149 510.817 207.875 512.331 207.875 514.51C207.875 516.689 209.13 518.148 211.18 518.148ZM208.969 513.882C209.043 512.779 209.823 511.795 211.069 511.795C212.251 511.795 213.008 512.682 213.008 513.882H208.969ZM215.774 518H216.863V515.009H217.842L220.168 518H221.572L218.673 514.325L221.535 510.909H220.131L217.583 513.993H216.863V510.909H215.774V518ZM225.345 518.148C226.914 518.148 227.948 517.188 228.133 515.932H227.044C226.84 516.707 226.194 517.169 225.345 517.169C224.052 517.169 223.221 516.098 223.221 514.455C223.221 512.848 224.07 511.795 225.345 511.795C226.305 511.795 226.877 512.386 227.044 513.033H228.133C227.948 511.703 226.822 510.817 225.326 510.817C223.406 510.817 222.132 512.331 222.132 514.491C222.132 516.615 223.35 518.148 225.345 518.148ZM229.167 511.925H231.512V518H232.602V511.925H234.928V510.909H229.167V511.925ZM239.03 518.148C240.951 518.148 242.243 516.689 242.243 514.491C242.243 512.276 240.951 510.817 239.03 510.817C237.11 510.817 235.817 512.276 235.817 514.491C235.817 516.689 237.11 518.148 239.03 518.148ZM239.03 517.169C237.571 517.169 236.907 515.913 236.907 514.491C236.907 513.07 237.571 511.795 239.03 511.795C240.489 511.795 241.154 513.07 241.154 514.491C241.154 515.913 240.489 517.169 239.03 517.169ZM247.784 516.523L245.347 510.909H243.906V518H244.996V512.474L247.341 518H248.227L250.573 512.576V518H251.662V510.909H250.259L247.784 516.523Z" fill="#1781F3"/>
</g>
<defs>
<linearGradient id="paint0_linear_1822_30420" x1="5.36442e-07" y1="453" x2="288" y2="453" gradientUnits="userSpaceOnUse">
<stop stop-color="#A266EB"/>
<stop offset="1" stop-color="#20A0FF"/>
</linearGradient>
</defs>
</svg>
