<?xml version="1.0" encoding="utf-8"?>
<!-- Generator: Adobe Illustrator 25.0.1, SVG Export Plug-In . SVG Version: 6.00 Build 0)  -->
<svg xmlns="http://www.w3.org/2000/svg" xmlns:xlink="http://www.w3.org/1999/xlink" x="0px" y="0px"
	 viewBox="0 0 135 18" style="enable-background:new 0 0 135 18;" xml:space="preserve" width="135" height="18">
<style type="text/css">
	.st0{fill-rule:evenodd;clip-rule:evenodd;fill:#0F6193;}
	.st1{fill:#0F6193;}
	.st2{fill:#0E94F7;}
	.st3{fill-rule:evenodd;clip-rule:evenodd;fill:#0E94F7;}
</style>
<g>
	<path class="st0" d="M118.8,15.7c1.3,0,2.3-1,2.3-2.3c0-1.3-1-2.3-2.3-2.3s-2.3,1-2.3,2.3S117.6,15.7,118.8,15.7 M118.9,17.9
		c2.5,0,4.5-2,4.5-4.5s-2-4.5-4.5-4.5c-2.5,0-4.5,2-4.5,4.5S116.4,17.9,118.9,17.9 M103.6,17.9c0.8,0,1.5-0.7,1.5-1.5
		c0-0.8-0.7-1.5-1.5-1.5c-0.8,0-1.5,0.7-1.5,1.5C102.1,17.2,102.8,17.9,103.6,17.9 M135,11.8c-0.2-1.6-1.6-2.8-3.3-2.8
		c-0.8,0-1.6,0.3-2.2,0.8c-0.6-0.5-1.3-0.8-2.2-0.8c-0.1,0-0.2,0-0.3,0c0,0,0,0-0.1,0c-0.1,0-0.2,0-0.2,0c0,0,0,0-0.1,0
		c-0.1,0-0.2,0-0.3,0.1l0,0c-0.1,0-0.2,0.1-0.3,0.1c0,0,0,0,0,0c-0.1,0-0.2,0.1-0.3,0.1l0,0c-0.2,0.1-0.4,0.3-0.6,0.4l0,0
		c-0.6,0.5-1,1.3-1.1,2.2l0,0v5.9h2.2V12c0-0.6,0.5-1,1-1h0.1c0.6,0,1,0.5,1,1v5.9h2.2V12c0-0.6,0.5-1,1-1h0.1c0.6,0,1,0.5,1,1v5.9
		h2.2v-5.9C135,12,135,11.9,135,11.8"/>
	<path class="st1" d="M112,14.7c-0.1,0.1-0.1,0.2-0.2,0.2c-0.4,0.4-1,0.7-1.6,0.7c-1.2,0-2.2-1-2.2-2.2s1-2.2,2.2-2.2
		c0.7,0,1.3,0.3,1.7,0.8c0.1,0.1,0.1,0.2,0.2,0.3l1.9-1.2c-0.1-0.2-0.3-0.5-0.5-0.7c-0.8-0.9-2-1.4-3.3-1.4c-2.5,0-4.5,2-4.5,4.5
		s2,4.5,4.5,4.5c1.3,0,2.4-0.5,3.2-1.3c0.2-0.2,0.3-0.4,0.5-0.6L112,14.7L112,14.7z"/>
	<path class="st2" d="M43.2,14.7c-0.3,0.1-0.6,0.2-0.9,0.2c-1.2,0-2.2-1-2.2-2.3V9h3.7v-3H40v-3h-3v9.6c0,2.9,2.3,5.2,5.2,5.2
		c0.9,0,1.8-0.3,2.6-0.7L43.2,14.7z M50.5,14.9c-1.6,0-3-1.3-3-3c0-1.6,1.3-3,3-3c1.6,0,3,1.3,3,3C53.5,13.6,52.2,14.9,50.5,14.9
		 M50.5,6.1c-3.3,0-5.9,2.7-5.9,5.9s2.7,5.9,5.9,5.9c1.1,0,2.1-0.3,3-0.8v0.8h3v-5.8c0-0.1,0-0.1,0-0.2C56.5,8.7,53.8,6.1,50.5,6.1
		 M78.7,15c-1.6,0-3-1.3-3-3s1.3-3,3-3c1.6,0,3,1.3,3,3C81.6,13.6,80.3,15,78.7,15 M78.7,6.1c-3.3,0-5.9,2.6-5.9,5.9
		s2.6,5.9,5.9,5.9c1.1,0,2.1-0.3,2.9-0.8v0.8h3V12C84.6,8.7,81.9,6.1,78.7,6.1"/>
	<path class="st3" d="M57.4,17.9h3V1.6h-3V17.9z"/>
	<path class="st2" d="M36.1,17.9h-3v-6.6c0-1.2-1-2.3-2.3-2.3c-1.2,0-2.3,1-2.3,2.3v6.6h-3v-6.6C25.7,8.4,28,6,30.9,6
		c2.9,0,5.2,2.3,5.2,5.2V17.9z M69.5,13.9c-0.5,0.6-1.4,1.1-2.3,1.1c-1.6,0-2.9-1.3-2.9-2.9c0-1.6,1.3-2.9,2.9-2.9
		c0.9,0,1.7,0.4,2.3,1.1c0.1,0.1,0.2,0.3,0.3,0.4l2.5-1.6c-0.2-0.3-0.4-0.6-0.7-0.9c-1.1-1.2-2.6-1.9-4.4-1.9
		c-3.3,0-5.9,2.7-5.9,5.9s2.7,5.9,5.9,5.9c1.7,0,3.3-0.7,4.4-1.9c0.3-0.3,0.5-0.6,0.7-0.9l-2.5-1.6C69.7,13.6,69.6,13.8,69.5,13.9
		 M3,10.1V6.6C3,4.6,4.6,3,6.5,3C8.5,3,10,4.6,10,6.6c0,1.9-1.6,3.5-3.5,3.5L3,10.1L3,10.1z M13.7,17.9L12.1,15h0l-1.8-3.2
		C12,10.6,13,8.7,13,6.6c0-3.6-2.9-6.5-6.5-6.5S0,3,0,6.6v11.4h3V13h3.5c0.4,0,0.7,0,1.1-0.1l2.7,5L13.7,17.9L13.7,17.9z"/>
	<path class="st3" d="M97.5,10.8L97.5,10.8c0,0-0.9-0.1-1.3-0.4c-0.1,0-0.1-0.1-0.1-0.1c0,0,0,0,0,0c-0.2-0.2-0.3-0.5-0.3-0.7l0-0.1
		c0,0,0,0,0,0.1c0,0,0-0.1,0-0.1v0c0-0.1,0.1-0.2,0.1-0.3c0.1-0.2,0.4-0.4,0.7-0.5c0.2,0,0.3-0.1,0.6-0.1c0.8,0,1.6,0.3,2.1,0.5
		l1.3-2.2c-0.8-0.4-2.6-1-4.2-0.7v0c-1.9,0.2-3.3,1.5-3.4,3.2c-0.1,1.3,0.6,2.6,1.9,3.3c0.1,0,0.2,0.1,0.3,0.1l0.1,0
		c0.4,0.2,0.9,0.4,1.3,0.4c0.5,0,0.8,0.1,0.9,0.1c0.5,0.2,0.9,0.6,0.9,1.1l0,0.1l0-0.1c0,0,0,0.1,0,0.1l0,0c0,0.1-0.1,0.2-0.1,0.3
		c-0.1,0.2-0.4,0.4-0.7,0.5c-0.2,0-0.3,0.1-0.6,0.1c-1.3,0-2.7-0.8-2.7-0.8l-1.5,2.1l0.4,0.2c0,0,2.6,1.3,4.6,0.9v0
		c1.9-0.2,3.3-1.5,3.4-3.2C101.2,12.8,99.7,11.1,97.5,10.8"/>
	<path class="st2" d="M92.8,6.5c-0.7-0.3-1.4-0.4-2.1-0.4c-2.9,0-5.2,2.3-5.2,5.2v6.6h3v-6.6c0-1.2,1-2.3,2.3-2.3
		c0.3,0,0.6,0.1,0.9,0.2"/>
	<path class="st3" d="M18.8,8.8c1.3,0,2.4,0.8,2.9,2h-5.8C16.3,9.6,17.5,8.8,18.8,8.8 M21,14.2c0,0-0.1,0.1-0.1,0.1h0
		c-0.6,0.5-1.3,0.8-2.1,0.8c-1.3,0-2.5-0.8-3-2h8.8c0.1-0.3,0.1-0.7,0.1-1.1c0-3.3-2.7-5.9-5.9-5.9s-5.9,2.7-5.9,5.9
		s2.6,5.9,5.9,5.9c2.5,0,4.6-1.5,5.5-3.7l0-0.1L21,14.2L21,14.2z"/>
</g>
</svg>
