<svg width="93" height="36" viewBox="0 0 93 36" fill="none" xmlns="http://www.w3.org/2000/svg">
<path fill-rule="evenodd" clip-rule="evenodd" d="M25.2442 17.2406V8.4729H21.0198V17.2406C21.0198 21.9132 24.8096 25.7019 29.4736 25.7019V21.4793C27.1428 21.4793 25.2442 19.5755 25.2442 17.2406Z" fill="#56B7BB"/>
<path fill-rule="evenodd" clip-rule="evenodd" d="M38.7274 21.657V21.6572C38.7265 21.6572 38.7255 21.6571 38.7245 21.6571C38.7235 21.6571 38.7226 21.6572 38.7216 21.6572V21.657C36.3703 21.6539 34.5751 19.7462 34.5751 17.3922V17.0512C34.5751 15.9195 34.96 14.8442 35.7653 14.0435C36.5616 13.2439 37.5956 12.667 38.7257 12.6581H38.7263H38.7268C39.8569 12.667 40.8873 13.2439 41.6837 14.0435C42.489 14.8442 42.8705 15.9195 42.8705 17.0512V17.3922C42.8705 19.7462 41.0786 21.6539 38.7274 21.657ZM42.7694 8.46992V9.74083C41.6059 8.97955 40.2947 8.36865 38.7169 8.36865H38.7024H38.6759C36.4096 8.36865 34.3249 9.34681 32.7232 10.9366C31.1151 12.5524 30.2756 14.7735 30.2756 17.0512V17.3922C30.2756 22.1042 33.9467 25.9252 38.6556 25.9252C40.1757 25.9252 41.6059 25.4928 42.7694 24.7496V34.801H46.8665H46.9955V22.1376V21.5848V15.278V12.7234V8.4716L42.7694 8.46992Z" fill="#56B7BB"/>
<path fill-rule="evenodd" clip-rule="evenodd" d="M23.1813 5.31086C24.6037 5.31086 25.8008 4.15696 25.8008 2.6368C25.8008 1.15563 24.6037 0 23.1813 0C21.7176 0 20.4946 1.15563 20.4946 2.6368C20.4946 4.15696 21.7176 5.31086 23.1813 5.31086Z" fill="#56B7BB"/>
<path fill-rule="evenodd" clip-rule="evenodd" d="M87.5341 15.8766L84.7841 15.0126C83.8295 14.6922 83.0648 14.1861 83.1072 13.5088C83.1873 12.2382 84.2604 11.9099 85.3253 11.9771C85.9715 12.0179 86.7072 12.2719 87.1322 12.8018L90.9088 11.5336L91.0731 11.4537C90.0372 9.47791 87.7466 8.56758 85.4455 8.42236C82.1097 8.21222 79.131 10.3286 78.9614 13.0194C78.8371 14.994 79.1054 16.998 83.3784 18.4519L85.6406 19.1814C86.8321 19.5424 87.458 20.0164 87.3645 20.8753C87.303 21.8469 86.2932 22.4719 85.071 22.4323C83.8684 22.4062 82.8448 21.7982 82.3808 21.0015L78.4934 22.3069C79.495 24.4717 81.9401 25.7623 84.4201 25.9191C87.8941 26.1384 91.3855 24.5932 91.6003 21.1847C91.6845 19.8486 91.353 17.125 87.5341 15.8766Z" fill="#56B7BB"/>
<path fill-rule="evenodd" clip-rule="evenodd" d="M53.1795 15.076C53.2803 13.4557 54.5598 11.8077 56.8819 11.8077C59.4401 11.8077 60.5172 13.4557 60.5846 15.076H53.1795ZM56.8146 8.33716C52.5736 8.33716 48.6689 11.7866 48.6689 17.077C48.6689 22.6706 52.6746 25.9451 57.2187 25.9451C59.7055 25.9451 61.6512 25.054 62.9815 23.7078L60.2153 20.9385C59.5632 21.6196 58.6075 21.9737 57.2521 21.9737C55.0481 21.9737 53.2091 20.6659 53.0817 18.1227H64.9208C64.9208 18.1227 64.994 17.4585 64.994 16.8184C64.994 11.4945 61.9311 8.33716 56.8146 8.33716Z" fill="#56B7BB"/>
<path fill-rule="evenodd" clip-rule="evenodd" d="M72.811 17.2409V12.1159H77.0596V8.47011H72.811V2.44434H68.5619V8.47011H65.679V12.1159H68.5619V17.2409C68.5619 21.9135 72.3558 25.7022 77.0596 25.7022V21.4796C74.6824 21.4796 72.811 19.5759 72.811 17.2409Z" fill="#56B7BB"/>
<path fill-rule="evenodd" clip-rule="evenodd" d="M0 9.01453H4.21802C4.21802 6.68121 6.11971 4.78053 8.4521 4.78053H9.43246V17.2409C9.43246 21.9135 13.2223 25.7022 17.8863 25.7022V21.4796C15.5555 21.4796 13.6569 19.5759 13.6569 17.2409V4.78053H18.8403V0.551514H8.4521C3.78458 0.551514 0 4.34551 0 9.01453" fill="#56B7BB"/>
</svg>
