<svg width="40" height="40" viewBox="0 0 40 40" fill="none" xmlns="http://www.w3.org/2000/svg">
<path d="M0 20C0 8.95431 8.95431 0 20 0C31.0457 0 40 8.95431 40 20C40 31.0457 31.0457 40 20 40C8.95431 40 0 31.0457 0 20Z" fill="#00A3B7"/>
<path d="M30.7056 21.7958V22.6915L31.301 22.7188C31.3406 22.8999 31.3321 23.0882 31.2764 23.265C31.2764 23.3524 31.1726 23.3606 31.0907 23.3634H30.2878C30.042 23.3634 29.7962 23.3634 29.5504 23.3634C29.4904 23.3634 29.4303 23.3634 29.362 23.3634C29.319 23.1529 29.3389 22.9344 29.4194 22.7352L29.7635 22.6888C29.7779 22.6324 29.787 22.5748 29.7908 22.5168C29.7908 21.4353 29.7908 20.3529 29.7908 19.2696C29.7871 19.2184 29.7807 19.1673 29.7717 19.1167L29.4166 19.0785C29.4047 19.0237 29.3983 18.9679 29.3975 18.9119C29.3975 18.8218 29.4194 18.7316 29.4303 18.6388C29.4467 18.4995 29.4904 18.4476 29.6324 18.4422C29.9055 18.4422 30.1786 18.4422 30.4517 18.4422C30.5991 18.4422 30.6592 18.5487 30.7248 18.6907L31.047 18.606C31.2737 18.5405 31.4976 18.4558 31.7298 18.4094C31.8819 18.3674 32.0416 18.3606 32.1968 18.3894C32.352 18.4183 32.4986 18.4821 32.6255 18.576C32.7047 18.6307 32.7689 18.7043 32.8123 18.7901C32.8557 18.876 32.8769 18.9714 32.874 19.0675C32.874 19.7967 32.874 20.5259 32.874 21.2523C32.8835 21.4297 32.8267 21.6042 32.7147 21.742C32.6026 21.8798 32.4433 21.971 32.2678 21.9979C32.0045 22.0513 31.7325 22.0429 31.473 21.9733C31.2163 21.9159 30.9787 21.8559 30.7056 21.7958ZM30.7056 21.1212C31.018 21.1898 31.3363 21.2274 31.656 21.2332C31.8882 21.2332 31.9728 21.1458 31.9728 20.9137C31.9728 20.4549 31.9728 19.9997 31.9728 19.5482C31.9864 19.4926 31.9845 19.4344 31.9672 19.3799C31.9498 19.3254 31.9178 19.2767 31.8747 19.2391C31.8315 19.2016 31.7788 19.1767 31.7224 19.1672C31.666 19.1576 31.6081 19.1638 31.555 19.185C31.3392 19.2232 31.1235 19.2751 30.9077 19.3243C30.8367 19.3406 30.7685 19.3734 30.7002 19.3953L30.7056 21.1212Z" fill="white"/>
<path d="M7.7191 21.2605L8.06866 21.2933C8.12074 21.5075 8.0976 21.7331 8.00312 21.9323H6.36454C6.32619 21.7508 6.33655 21.5624 6.39458 21.3861C6.39458 21.3452 6.48197 21.3069 6.53386 21.2933C6.60594 21.2802 6.67908 21.2738 6.75234 21.2742C6.8015 21.0967 6.81788 18.0462 6.77145 17.6993L6.43828 17.6611C6.41102 17.5021 6.41102 17.3395 6.43828 17.1805C6.43755 17.1575 6.44135 17.1346 6.44947 17.1131C6.45758 17.0917 6.46986 17.072 6.48558 17.0552C6.50131 17.0385 6.52018 17.025 6.54111 17.0156C6.56205 17.0061 6.58464 17.0009 6.6076 17.0002C6.88069 17.0002 7.15379 17.0002 7.42689 17.0002C7.48549 16.9986 7.54248 17.0195 7.58616 17.0586C7.62984 17.0977 7.65689 17.1521 7.66175 17.2105C7.66863 17.2868 7.66863 17.3636 7.66175 17.4399C7.66175 17.8222 7.66175 18.2073 7.66175 18.5896C7.66175 18.6552 7.66175 18.7207 7.6754 18.8136L7.89388 18.6798C8.15889 18.5094 8.46191 18.4071 8.77598 18.3821C9.37953 18.3275 9.70451 18.6169 9.7209 19.2533C9.73455 19.7803 9.7209 20.3101 9.7209 20.84V21.0257C9.7209 21.2988 9.77005 21.3479 10.0432 21.2988L10.1497 21.2769C10.3654 21.6074 10.2234 21.9351 9.85471 21.9706C9.74001 21.9706 9.62531 21.9706 9.51061 21.9706C9.41867 21.976 9.32661 21.9621 9.24039 21.9297C9.15417 21.8973 9.0757 21.8472 9.01007 21.7826C8.94443 21.718 8.89308 21.6403 8.85934 21.5546C8.82561 21.4689 8.81023 21.3771 8.81422 21.2851C8.81422 20.7553 8.81422 20.2255 8.81422 19.6957C8.81369 19.5966 8.80363 19.4979 8.78418 19.4007C8.77032 19.3342 8.73213 19.2752 8.67708 19.2353C8.62203 19.1954 8.55407 19.1774 8.4865 19.185C8.24356 19.2534 8.00467 19.3354 7.77099 19.4308C7.74644 19.4467 7.72582 19.4681 7.71068 19.4931C7.69555 19.5182 7.68629 19.5464 7.6836 19.5755C7.6836 20.1217 7.6836 20.6679 7.6836 21.2141C7.69452 21.2196 7.69998 21.2278 7.7191 21.2605Z" fill="white"/>
<path d="M22.8213 21.266H23.0098L23.1845 21.2796C23.1845 21.4544 23.1845 21.621 23.1845 21.7876C23.184 21.8089 23.179 21.8297 23.1697 21.8489C23.1605 21.868 23.1473 21.885 23.1311 21.8987C23.1148 21.9124 23.0958 21.9224 23.0754 21.9282C23.055 21.9341 23.0335 21.9354 23.0125 21.9324H21.4722C21.4722 21.7002 21.4149 21.4817 21.5487 21.2824L21.8436 21.2633C21.8928 21.0858 21.9065 18.0516 21.8628 17.6939L21.5323 17.6475C21.4991 17.4799 21.5056 17.3068 21.5514 17.1422C21.5599 17.1006 21.583 17.0633 21.6166 17.0373C21.6501 17.0112 21.692 16.9981 21.7344 17.0002C22.0075 17.0002 22.256 17.0002 22.5182 17.0002C22.7039 17.0002 22.7913 17.0794 22.7913 17.2733C22.7913 17.6174 22.7913 17.9643 22.7913 18.3084C22.7913 18.4695 22.7913 18.6279 22.7913 18.8327C22.8923 18.7726 22.9579 18.7371 23.018 18.6962C23.2943 18.5154 23.6118 18.4074 23.941 18.3821C24.06 18.3592 24.1828 18.3647 24.2992 18.3983C24.4157 18.432 24.5225 18.4927 24.6109 18.5756C24.6994 18.6584 24.767 18.7611 24.8081 18.875C24.8493 18.989 24.8628 19.1112 24.8477 19.2314C24.8477 19.8159 24.8477 20.3975 24.8477 20.982C24.8477 21.3288 24.8969 21.367 25.2382 21.296C25.2627 21.2933 25.2875 21.2933 25.312 21.296C25.3489 21.3823 25.368 21.4752 25.368 21.5691C25.368 21.663 25.3489 21.7559 25.312 21.8422C25.2803 21.8856 25.2394 21.9213 25.1921 21.9469C25.1449 21.9724 25.0925 21.987 25.0389 21.9897C24.8494 22.0143 24.6576 22.0143 24.4681 21.9897C24.3184 21.9658 24.1826 21.8878 24.0865 21.7706C23.9904 21.6533 23.9406 21.5049 23.9465 21.3534C23.9465 20.8072 23.9465 20.2801 23.9465 19.7421C23.9465 19.6656 23.9465 19.5892 23.9465 19.5127C23.9505 19.4645 23.9426 19.4161 23.9235 19.3716C23.9043 19.3272 23.8746 19.2881 23.8368 19.2579C23.799 19.2277 23.7544 19.2072 23.7069 19.1983C23.6593 19.1894 23.6103 19.1923 23.5641 19.2068C23.3429 19.2642 23.1299 19.3516 22.9142 19.4281C22.8729 19.4393 22.8367 19.4645 22.8118 19.4993C22.787 19.5341 22.7749 19.5765 22.7776 19.6192C22.7776 20.1408 22.7776 20.6625 22.7776 21.1841C22.7898 21.2126 22.8045 21.24 22.8213 21.266Z" fill="white"/>
<path d="M29.1872 21.296C29.2316 21.466 29.2259 21.6453 29.1708 21.8121C29.1636 21.8505 29.1428 21.8848 29.1121 21.9089C29.0815 21.933 29.0432 21.9452 29.0043 21.9432C28.6683 21.9432 28.3242 21.9869 28.0457 21.7794C27.7507 21.8449 27.4776 21.9241 27.1991 21.9596C26.9275 21.9948 26.653 22.003 26.3798 21.9842C26.2202 21.9736 26.071 21.9013 25.9639 21.7825C25.8568 21.6636 25.8003 21.5077 25.8063 21.3479C25.8063 21.0475 25.8063 20.7471 25.8063 20.4494C25.8062 20.3082 25.8607 20.1725 25.9585 20.0707C26.0562 19.9689 26.1896 19.9089 26.3306 19.9032C26.7348 19.8841 27.1499 19.9032 27.5486 19.9032C27.647 19.9032 27.7425 19.9223 27.86 19.9332C27.8871 19.7238 27.8871 19.5118 27.86 19.3024C27.8479 19.2451 27.8178 19.1933 27.774 19.1544C27.7303 19.1156 27.6752 19.0918 27.6169 19.0866C27.3923 19.0348 27.1606 19.021 26.9314 19.0457C26.6147 19.0812 26.2924 19.1003 25.9483 19.1303C25.9238 18.9363 25.9238 18.74 25.9483 18.5459C26.1339 18.451 26.3409 18.4058 26.5491 18.4148C26.9688 18.3766 27.3911 18.3766 27.8108 18.4148C27.9404 18.4244 28.0691 18.4435 28.1959 18.4722C28.3657 18.4973 28.5193 18.5867 28.625 18.7219C28.7308 18.8571 28.7805 19.0278 28.7639 19.1986C28.7639 19.7448 28.7639 20.291 28.7639 20.8372V20.9983C28.7639 21.2386 28.794 21.2714 29.037 21.2714L29.1872 21.296ZM27.8654 21.255C27.8818 21.0113 27.8818 20.7668 27.8654 20.5231C27.5923 20.5067 27.3192 20.4794 27.0707 20.474C26.8222 20.4685 26.7075 20.5914 26.6993 20.8372C26.6939 20.8981 26.6939 20.9593 26.6993 21.0202C26.7006 21.098 26.7316 21.1725 26.7859 21.2283C26.8402 21.2841 26.9137 21.3171 26.9915 21.3206C27.2844 21.3539 27.5809 21.3316 27.8654 21.255Z" fill="white"/>
<path d="M35.7934 21.7685C35.3875 21.9075 34.9633 21.9858 34.5345 22.0006C34.4044 22.0075 34.274 22.0075 34.1439 22.0006C33.9937 21.986 33.854 21.9167 33.7513 21.806C33.6486 21.6953 33.5901 21.5508 33.5868 21.3998C33.5704 21.1021 33.5868 20.8017 33.5868 20.5041C33.582 20.4282 33.5924 20.3521 33.6174 20.2804C33.6424 20.2086 33.6815 20.1425 33.7324 20.086C33.7833 20.0296 33.8449 19.9838 33.9137 19.9515C33.9825 19.9192 34.0571 19.9009 34.133 19.8978C34.2549 19.8896 34.3771 19.8896 34.499 19.8978C34.8048 19.8978 35.1107 19.9333 35.4138 19.9497H35.6487C35.6487 19.7448 35.6487 19.5564 35.6487 19.3707C35.6439 19.3016 35.613 19.237 35.5623 19.1898C35.5116 19.1427 35.4448 19.1166 35.3756 19.1167C35.1521 19.0634 34.9211 19.0495 34.6929 19.0758C34.4198 19.1113 34.1467 19.1249 33.8736 19.144C33.8218 19.148 33.7697 19.148 33.7179 19.144C33.6574 18.9826 33.6451 18.8071 33.6824 18.6388C33.6824 18.5924 33.7643 18.5268 33.819 18.5132C33.9649 18.4698 34.115 18.4424 34.2668 18.4313C34.7211 18.3909 35.178 18.3909 35.6323 18.4313C35.7765 18.4468 35.9191 18.4752 36.0583 18.5159C36.1954 18.5453 36.317 18.6236 36.4004 18.7362C36.4839 18.8488 36.5234 18.988 36.5117 19.1277C36.5117 19.7121 36.5117 20.2938 36.5117 20.8755C36.5117 20.9383 36.5117 20.9984 36.5117 21.0612C36.5117 21.2196 36.58 21.2715 36.7438 21.2851H36.8339C36.9623 21.2988 37.0114 21.3534 36.9978 21.4817C36.9841 21.6101 36.9705 21.6784 36.9596 21.7767C36.9596 21.8 36.9549 21.823 36.9457 21.8445C36.9366 21.8659 36.9232 21.8852 36.9063 21.9013C36.8895 21.9174 36.8695 21.9299 36.8477 21.9381C36.8258 21.9462 36.8026 21.9498 36.7793 21.9487C36.4352 21.9487 36.0938 21.987 35.7934 21.7685ZM35.6296 20.5232C35.3292 20.5068 35.0588 20.4767 34.7857 20.4767C34.7335 20.4752 34.6815 20.4852 34.6337 20.5062C34.5858 20.5272 34.5432 20.5585 34.509 20.598C34.4747 20.6375 34.4497 20.6841 34.4357 20.7344C34.4216 20.7848 34.419 20.8376 34.428 20.8891C34.428 21.1923 34.57 21.3179 34.7939 21.3261C34.984 21.3357 35.1745 21.3357 35.3647 21.3261C35.457 21.3139 35.5483 21.2947 35.6378 21.2687L35.6296 20.5232Z" fill="white"/>
<path d="M18.8041 20.6789C18.7467 21.0203 18.8177 21.1432 19.1072 21.2469C19.3559 21.3262 19.62 21.3449 19.8774 21.3015C20.1996 21.2606 20.5273 21.2278 20.8605 21.1896C20.9491 21.3328 20.9929 21.4992 20.9861 21.6675C20.9878 21.7105 20.9734 21.7526 20.9456 21.7855C20.9177 21.8183 20.8786 21.8396 20.8359 21.845C20.6088 21.9091 20.3768 21.9548 20.1423 21.9816C19.7784 22.0016 19.4137 22.0016 19.0499 21.9816C18.8378 21.9885 18.6281 21.9346 18.4457 21.8262C18.2632 21.7178 18.1156 21.5594 18.0203 21.3698C17.9272 21.1851 17.8786 20.9813 17.8783 20.7745C17.8783 20.3812 17.8783 19.9907 17.8783 19.6002C17.8866 19.4015 17.9253 19.2054 17.993 19.0185C18.0555 18.8447 18.1706 18.6947 18.3224 18.5895C18.4741 18.4842 18.6549 18.4289 18.8396 18.4313C19.2296 18.404 19.6211 18.404 20.0112 18.4313C20.2152 18.4571 20.4125 18.521 20.5929 18.6197C20.7031 18.6794 20.7937 18.7697 20.8538 18.8797C20.9138 18.9897 20.9408 19.1147 20.9315 19.2397C20.9315 19.4527 20.9315 19.6684 20.9315 19.8814C20.9358 20.0209 20.8954 20.1581 20.8164 20.273C20.7373 20.3879 20.6236 20.4746 20.4918 20.5205C20.3063 20.5918 20.1112 20.6351 19.9129 20.6488C19.6234 20.6734 19.3312 20.6488 19.0417 20.6625C18.9625 20.6652 18.8806 20.6734 18.8041 20.6789ZM18.7822 20.0398C19.0854 20.0398 19.353 20.059 19.6179 20.0398C20.0166 20.0016 20.1231 19.8432 20.0904 19.5319C20.089 19.5173 20.089 19.5027 20.0904 19.4882C20.0969 19.4144 20.0779 19.3405 20.0367 19.2789C19.9955 19.2173 19.9344 19.1717 19.8637 19.1495C19.5871 19.0488 19.2827 19.0566 19.0116 19.1714C18.9526 19.1916 18.9004 19.2279 18.8609 19.2761C18.8213 19.3244 18.796 19.3827 18.7877 19.4445C18.7686 19.6275 18.7822 19.8186 18.7822 20.0398Z" fill="white"/>
<path d="M13.6945 21.1895C13.73 21.3369 13.7709 21.4762 13.7928 21.6155C13.8146 21.7548 13.7682 21.8121 13.6262 21.8476C13.391 21.9131 13.1508 21.9588 12.908 21.9842C12.572 22.006 12.2334 21.9842 11.8948 21.9842C11.8027 21.9799 11.7113 21.9671 11.6217 21.946C11.3504 21.9024 11.105 21.7594 10.9334 21.5448C10.7617 21.3303 10.6761 21.0595 10.6931 20.7853C10.6931 20.4002 10.6931 20.0179 10.6931 19.6328C10.6823 19.4263 10.7149 19.2197 10.7887 19.0266C10.853 18.8582 10.9645 18.712 11.1098 18.6054C11.2552 18.4989 11.4281 18.4365 11.608 18.4257C12.0146 18.4039 12.4221 18.4039 12.8288 18.4257C13.0594 18.4436 13.2802 18.527 13.4651 18.6661C13.5358 18.7136 13.5937 18.7779 13.6337 18.8531C13.6738 18.9284 13.6946 19.0123 13.6945 19.0976C13.6945 19.3707 13.6945 19.6437 13.6945 19.9005C13.6986 20.0405 13.6564 20.1779 13.5744 20.2915C13.4924 20.405 13.3753 20.4884 13.2411 20.5286C13.0649 20.5913 12.8813 20.6307 12.6949 20.646C12.4218 20.6651 12.1269 20.646 11.8429 20.646L11.6025 20.6597C11.5288 21.0038 11.6025 21.1349 11.8756 21.2222C12.0431 21.2769 12.2184 21.3036 12.3945 21.3014C12.7523 21.2796 13.1073 21.225 13.4651 21.184L13.6945 21.1895ZM11.5889 20.0397C11.8784 20.0397 12.1351 20.0397 12.3945 20.0397C12.8233 20.0206 12.9407 19.8185 12.8779 19.4225C12.8779 19.4 12.8733 19.3777 12.8643 19.357C12.8233 19.2942 12.7878 19.2095 12.7304 19.1849C12.5795 19.1097 12.4127 19.0717 12.244 19.074C12.0754 19.0764 11.9097 19.1191 11.7609 19.1986C11.7111 19.221 11.6686 19.257 11.6382 19.3024C11.6078 19.3477 11.5907 19.4007 11.5889 19.4553C11.5862 19.6383 11.5889 19.8213 11.5889 20.0397Z" fill="white"/>
<path d="M5.83201 18.6607C5.83201 18.9501 5.83201 19.2478 5.83201 19.5455C5.83201 19.682 5.78558 19.7257 5.65177 19.7339C5.52988 19.7407 5.40771 19.7407 5.28582 19.7339C5.25859 19.7352 5.23141 19.7306 5.20609 19.7205C5.18078 19.7104 5.15791 19.6951 5.13903 19.6754C5.12015 19.6557 5.10569 19.6323 5.09663 19.6066C5.08756 19.5809 5.08409 19.5535 5.08646 19.5264C5.08646 19.4335 5.08646 19.3434 5.08646 19.2533C5.08879 19.234 5.08698 19.2145 5.08117 19.196C5.07536 19.1775 5.06567 19.1604 5.05275 19.146C5.03983 19.1315 5.02398 19.1199 5.00625 19.1121C4.98851 19.1042 4.96931 19.1002 4.94991 19.1003C4.714 19.0682 4.47397 19.0858 4.24532 19.1522C4.14102 19.1791 4.04911 19.2409 3.98498 19.3274C3.92084 19.4139 3.88838 19.5198 3.89303 19.6274C3.90941 19.9934 3.89303 20.3621 3.89303 20.7198C3.88511 20.8316 3.91538 20.9427 3.97889 21.035C4.0424 21.1273 4.13538 21.1952 4.24259 21.2278C4.51784 21.3279 4.8149 21.3524 5.10284 21.2988C5.29947 21.2742 5.49337 21.2278 5.68727 21.195C5.81562 21.1732 5.85659 21.195 5.87298 21.3315C5.87571 21.377 5.87571 21.4226 5.87298 21.4681C5.87298 21.7822 5.8047 21.875 5.49064 21.9242C5.24288 21.9723 4.99181 22.0015 4.73962 22.0116C4.30252 22.0423 3.86572 21.9476 3.48065 21.7385C3.33626 21.6554 3.21599 21.5362 3.13171 21.3925C3.04742 21.2489 3.00203 21.0857 3 20.9192C3 20.4822 3 20.0453 3 19.6083C3 18.8628 3.42057 18.5487 4.02138 18.434C4.49833 18.3544 4.98623 18.3683 5.45787 18.475C5.60064 18.4906 5.73323 18.5564 5.83201 18.6607Z" fill="white"/>
<path d="M15.6826 21.266L16.0267 21.2933C16.0664 21.5076 16.0466 21.7286 15.9693 21.9324C15.4232 21.9624 14.877 21.9515 14.3144 21.9324C14.265 21.7203 14.2821 21.4981 14.3635 21.2961L14.7049 21.2524C14.753 20.5386 14.753 19.8224 14.7049 19.1086C14.6312 19.1086 14.5492 19.1086 14.47 19.0895C14.3908 19.0703 14.3253 19.0348 14.3335 18.9229C14.3417 18.8109 14.3581 18.7099 14.3663 18.6033C14.3651 18.5801 14.3688 18.5568 14.3772 18.5351C14.3855 18.5134 14.3984 18.4936 14.4148 18.4771C14.4313 18.4607 14.4511 18.4478 14.4728 18.4395C14.4945 18.4311 14.5178 18.4274 14.541 18.4286C14.8141 18.4286 15.1091 18.4286 15.3904 18.4286C15.437 18.429 15.4823 18.444 15.52 18.4714C15.5577 18.4988 15.5859 18.5373 15.6007 18.5815C15.6225 18.6361 15.6362 18.6962 15.6607 18.7727L15.8683 18.6525C16.15 18.4966 16.4621 18.4034 16.7832 18.3794C16.9333 18.3712 17.0805 18.4225 17.193 18.5222C17.3055 18.6219 17.3741 18.762 17.384 18.9119C17.3935 19.103 17.3935 19.2944 17.384 19.4854C17.3866 19.5087 17.3845 19.5322 17.3777 19.5547C17.3709 19.5771 17.3597 19.5978 17.3446 19.6157C17.3295 19.6336 17.3109 19.6483 17.29 19.6587C17.2691 19.6692 17.2462 19.6753 17.2229 19.6766C17.064 19.6944 16.9038 19.6944 16.7449 19.6766C16.5947 19.6548 16.551 19.581 16.5401 19.4172C16.521 19.1605 16.4063 19.0731 16.1632 19.1659C16.0014 19.2395 15.8484 19.3311 15.7072 19.439C15.6865 19.455 15.6694 19.4752 15.6572 19.4982C15.6449 19.5213 15.6378 19.5468 15.6362 19.5728C15.6362 20.119 15.6362 20.6707 15.6362 21.2278C15.6362 21.2278 15.6635 21.2305 15.6826 21.266Z" fill="white"/>
</svg>
