<svg width="40" height="40" viewBox="0 0 40 40" fill="none" xmlns="http://www.w3.org/2000/svg">
<path d="M0 20C0 8.95431 8.95431 0 20 0C31.0457 0 40 8.95431 40 20C40 31.0457 31.0457 40 20 40C8.95431 40 0 31.0457 0 20Z" fill="white"/>
<path opacity="0.4" d="M29.0924 10.464L25.4205 26.2176H12.6361C11.8725 26.8436 11.5597 27 11.5597 27H26.0908L29.9454 10.464H29.0924Z" fill="#0A82BA"/>
<path opacity="0.7" d="M27.9342 8.78759L24.3138 24.3183H11.6733C10.7143 25.1319 10.3303 25.3239 10.3303 25.3239H24.8605L28.7157 8.78759H27.9342Z" fill="#0A82BA"/>
<path d="M23.5312 23.5357L27.3863 7H21.531C21.531 7 16.4846 16.5666 12.3255 20.7053C9.87464 23.1435 9 23.5357 9 23.5357H23.5312Z" fill="#0A82BA"/>
<path fill-rule="evenodd" clip-rule="evenodd" d="M29.124 28.7945L28.6849 30.9899H28.1309L28.5699 28.7945H29.124ZM29.283 28L29.1951 28.4391H28.641L28.7288 28H29.283ZM11.3216 28.7735C10.6107 28.7735 10.1807 29.1463 10.0315 29.8921C9.88522 30.6365 10.166 31.0087 10.8741 31.0087C11.585 31.0087 12.0151 30.6365 12.1642 29.8921C12.3134 29.1463 12.0325 28.7735 11.3216 28.7735ZM11.6123 29.8838C11.5203 30.3424 11.3035 30.5717 10.9621 30.5717C10.6205 30.5717 10.4957 30.3424 10.5878 29.8838C10.677 29.4364 10.8924 29.2126 11.2339 29.2126C11.5754 29.2126 11.7016 29.4364 11.6123 29.8838ZM8.86112 30.9899C9.12603 30.9899 9.36711 30.8993 9.58458 30.7181L9.67231 30.2789C9.45484 30.4601 9.22762 30.5508 8.99065 30.5508C8.6352 30.5508 8.50286 30.3243 8.5934 29.8713C8.67842 29.4461 8.92654 29.2335 9.33776 29.2335C9.51906 29.2335 9.69603 29.2545 9.86888 29.2963L9.95671 28.8572C9.78386 28.8153 9.59292 28.7944 9.38379 28.7944C8.63109 28.7944 8.18304 29.1534 8.03943 29.8713C7.8903 30.617 8.1642 30.9899 8.86112 30.9899ZM12.3626 30.9899L12.8016 28.7945H13.293L13.2135 29.5096C13.4645 29.0329 13.7487 28.7945 14.0666 28.7945C14.4848 28.7945 14.6458 29.0343 14.5496 29.5139C14.8298 29.0343 15.1274 28.7945 15.4425 28.7945C15.8914 28.7945 16.06 29.0726 15.9485 29.6288L15.6766 30.9899H15.1226L15.3985 29.6079C15.4473 29.3639 15.3895 29.242 15.2249 29.242C14.9908 29.242 14.751 29.4762 14.5057 29.9446L14.2965 30.99H13.7425L14.0184 29.6142C14.0672 29.366 14.0107 29.242 13.849 29.242C13.6037 29.242 13.3625 29.4762 13.1256 29.9446L12.9164 30.99H12.3626V30.9899ZM17.1304 28.7945H16.6391L16.0411 31.7844H16.5952L16.7583 30.9711C16.8991 30.9836 17.0371 30.9899 17.1723 30.9899C17.8874 30.9899 18.3236 30.5955 18.4812 29.8065C18.6163 29.1319 18.4413 28.7945 17.9563 28.7945C17.6135 28.7945 17.3242 28.9688 17.0886 29.3173L17.1304 28.7945ZM17.2852 30.5425C17.118 30.5425 16.975 30.5223 16.8565 30.4819L16.9946 29.7856C17.219 29.4314 17.4455 29.2545 17.6741 29.2545C17.9208 29.2545 18.0072 29.4407 17.9334 29.8128C17.8358 30.2993 17.6197 30.5425 17.2852 30.5425ZM20.8225 29.4511C20.7347 29.8888 20.3959 30.1077 19.8064 30.1077H19.2565C19.198 30.4033 19.3611 30.551 19.7458 30.551C20.0371 30.551 20.3118 30.4603 20.5696 30.2791L20.4818 30.7182C20.2518 30.8994 19.9633 30.99 19.6161 30.99C18.89 30.99 18.6015 30.6158 18.7506 29.8673C18.8942 29.1522 19.3165 28.7946 20.0176 28.7946C20.6421 28.7945 20.9105 29.0134 20.8225 29.4511ZM19.338 29.702H19.8921C20.1221 29.702 20.2532 29.6233 20.2852 29.4657C20.3159 29.3082 20.1973 29.2294 19.9298 29.2294C19.6231 29.2294 19.426 29.387 19.338 29.702ZM21.362 28.7945L20.9229 30.9899H21.477L21.6882 29.9382C21.9517 29.474 22.2151 29.2419 22.4786 29.2419C22.6778 29.2419 22.7601 29.3283 22.7252 29.5012L22.4284 30.9899H22.9825L23.2793 29.5075C23.3741 29.0322 23.2103 28.7945 22.7879 28.7945C22.3795 28.7945 22.0395 29.0413 21.7676 29.5348L21.8534 28.7945H21.362ZM23.5268 30.8854L23.6189 30.4253C23.8433 30.5229 24.1151 30.5717 24.4343 30.5717C24.6726 30.5717 24.8071 30.495 24.8378 30.3417C24.8658 30.2023 24.7996 30.1326 24.6392 30.1326H24.242C23.796 30.1326 23.6175 29.9094 23.7067 29.4635C23.7988 29.0035 24.1701 28.7735 24.8212 28.7735C25.0972 28.7735 25.3487 28.8153 25.576 28.8989L25.484 29.3589C25.2596 29.2614 25.0044 29.2125 24.7187 29.2125C24.419 29.2125 24.2539 29.2892 24.2232 29.4426C24.1953 29.5819 24.2685 29.6517 24.4427 29.6517H24.7982C25.286 29.6517 25.4854 29.8748 25.3961 30.3208C25.3041 30.7807 24.9472 31.0108 24.3256 31.0108C24.0203 31.0108 23.7541 30.969 23.5268 30.8854ZM27.1166 30.9899H27.6078L28.028 28.8845C27.6796 28.8245 27.3778 28.7945 27.1227 28.7945C26.3631 28.7945 25.908 29.1701 25.7575 29.9215C25.6153 30.6337 25.8007 30.9899 26.3136 30.9899C26.6426 30.9899 26.9269 30.8017 27.1667 30.4253L27.1166 30.9899ZM26.9744 29.242C27.1695 29.242 27.3089 29.2587 27.3925 29.2922L27.2609 29.9571C27.0323 30.339 26.7828 30.53 26.5124 30.53C26.2935 30.53 26.2251 30.3258 26.3074 29.9174C26.3967 29.4672 26.619 29.242 26.9744 29.242ZM29.646 28.7945L29.207 30.9899V30.99H29.7612L29.9722 29.9383C30.2246 29.4881 30.6299 29.2629 30.9058 29.2629L30.9999 28.7945C30.7155 28.7945 30.3082 29.0273 30.0601 29.4929L30.1374 28.7945H29.646Z" fill="#0A82BA"/>
<path d="M20 39C9.50659 39 1 30.4934 1 20H-1C-1 31.598 8.40202 41 20 41V39ZM39 20C39 30.4934 30.4934 39 20 39V41C31.598 41 41 31.598 41 20H39ZM20 1C30.4934 1 39 9.50659 39 20H41C41 8.40202 31.598 -1 20 -1V1ZM20 -1C8.40202 -1 -1 8.40202 -1 20H1C1 9.50659 9.50659 1 20 1V-1Z" fill="#43536A" fill-opacity="0.08"/>
</svg>
