<svg width="40" height="40" viewBox="0 0 40 40" fill="none" xmlns="http://www.w3.org/2000/svg">
<path d="M0 20C0 8.95431 8.95431 0 20 0C31.0457 0 40 8.95431 40 20C40 31.0457 31.0457 40 20 40C8.95431 40 0 31.0457 0 20Z" fill="#4CC7E2"/>
<path fill-rule="evenodd" clip-rule="evenodd" d="M27.8996 12.5C27.8996 13.4941 27.0937 14.3 26.0996 14.3C25.1055 14.3 24.2996 13.4941 24.2996 12.5C24.2996 11.5059 25.1055 10.7 26.0996 10.7C27.0937 10.7 27.8996 11.5059 27.8996 12.5ZM29.5996 12.5C29.5996 14.433 28.0326 16 26.0996 16C24.1666 16 22.5996 14.433 22.5996 12.5C22.5996 10.567 24.1666 9 26.0996 9C28.0326 9 29.5996 10.567 29.5996 12.5ZM12.6921 14C12.2542 14 12 14.2283 12 14.6848L12.0026 29.3147C12.0026 29.7717 12.2558 30 12.6942 30H20.0986C20.5598 30 20.7901 29.7717 20.7901 29.3141V28.7429C20.7901 28.2853 20.5619 28.0348 20.0986 28.0348H14.1012V22.8462H18.8301C19.2908 22.8462 19.5222 22.5946 19.5222 22.1375V21.5658C19.5216 21.1082 19.2908 20.8799 18.8301 20.8799H14.1012V15.9678H20.0986C20.5598 15.9678 20.7901 15.7167 20.7901 15.2591V14.6848C20.7906 14.2283 20.5603 14 20.0986 14H12.6921Z" fill="white"/>
</svg>
