<svg width="40" height="40" viewBox="0 0 40 40" fill="none" xmlns="http://www.w3.org/2000/svg">
<path d="M0 20C0 8.95431 8.95431 0 20 0C31.0457 0 40 8.95431 40 20C40 31.0457 31.0457 40 20 40C8.95431 40 0 31.0457 0 20Z" fill="white"/>
<path fill-rule="evenodd" clip-rule="evenodd" d="M16.357 23.489C16.3711 23.3757 16.4075 23.2662 16.4639 23.1668C16.5204 23.0675 16.5959 22.9803 16.6861 22.9101C16.7762 22.84 16.8794 22.7883 16.9895 22.7579C17.0997 22.7276 17.2147 22.7193 17.3281 22.7335L17.5218 22.7573C19.1693 22.9634 20.8349 22.9634 22.4824 22.7573L22.676 22.7335C22.9054 22.7049 23.1367 22.7686 23.3191 22.9106C23.5015 23.0525 23.62 23.2611 23.6486 23.4905C23.6772 23.7198 23.6135 23.9511 23.4715 24.1335C23.3296 24.3159 23.121 24.4344 22.8916 24.463L22.698 24.4878C20.9077 24.7119 19.0965 24.7119 17.3062 24.4878L17.1125 24.463C16.8835 24.434 16.6753 24.3152 16.5338 24.1327C16.3923 23.9503 16.329 23.7191 16.3579 23.49L16.357 23.489ZM29.2174 22.3777C29.2247 22.5877 29.1897 22.7971 29.1143 22.9933C29.039 23.1895 28.925 23.3686 28.779 23.5198C28.6329 23.6709 28.458 23.7912 28.2645 23.8733C28.0711 23.9554 27.863 23.9978 27.6529 23.9978C27.4427 23.9978 27.2347 23.9554 27.0412 23.8733C26.8477 23.7912 26.6728 23.6709 26.5268 23.5198C26.3808 23.3686 26.2667 23.1895 26.1914 22.9933C26.1161 22.7971 26.081 22.5877 26.0884 22.3777C26.081 22.1676 26.1161 21.9582 26.1914 21.762C26.2667 21.5658 26.3808 21.3868 26.5268 21.2356C26.6728 21.0844 26.8477 20.9641 27.0412 20.882C27.2347 20.7999 27.4427 20.7576 27.6529 20.7576C27.863 20.7576 28.0711 20.7999 28.2645 20.882C28.458 20.9641 28.6329 21.0844 28.779 21.2356C28.925 21.3868 29.039 21.5658 29.1143 21.762C29.1897 21.9582 29.2247 22.1676 29.2174 22.3777ZM13.1002 17.626V17.6222V17.625V17.626ZM26.924 17.6832V17.6794V17.6813V17.6832ZM13.9167 22.3767C13.9067 22.7851 13.7374 23.1733 13.445 23.4586C13.1526 23.7438 12.7603 23.9035 12.3518 23.9035C11.9433 23.9035 11.551 23.7438 11.2586 23.4586C10.9662 23.1733 10.7969 22.7851 10.7868 22.3767C10.7795 22.1667 10.8145 21.9573 10.8898 21.7611C10.9651 21.5648 11.0792 21.3858 11.2252 21.2346C11.3712 21.0834 11.5462 20.9632 11.7396 20.8811C11.9331 20.7989 12.1411 20.7566 12.3513 20.7566C12.5615 20.7566 12.7695 20.7989 12.963 20.8811C13.1564 20.9632 13.3314 21.0834 13.4774 21.2346C13.6234 21.3858 13.7375 21.5648 13.8128 21.7611C13.8881 21.9573 13.9231 22.1667 13.9158 22.3767H13.9167ZM16.2349 12.7503C17.3443 12.5881 18.7075 12.4393 20.003 12.4393C21.2966 12.4393 22.6598 12.5871 23.7702 12.7503C24.7032 12.8876 25.4969 13.5707 25.8356 14.5466L26.8687 17.5191C25.9577 17.8893 23.9515 18.4187 20.0192 18.3634C16.1395 18.3081 14.1114 17.8168 13.1536 17.4676L14.1686 14.5466C14.5082 13.5697 15.3019 12.8876 16.2339 12.7503H16.2349ZM20.0021 10C18.5425 10 17.0496 10.1641 15.879 10.3367C13.9644 10.6191 12.4782 11.9938 11.8695 13.7443L10.8059 16.8075L10.7963 16.838L8.80733 16.3038C8.74112 16.286 8.67206 16.2815 8.6041 16.2905C8.53615 16.2994 8.47062 16.3217 8.41126 16.356C8.35191 16.3902 8.29989 16.4359 8.25818 16.4903C8.21647 16.5447 8.18588 16.6068 8.16817 16.673L8.07754 17.0097C7.92677 17.5712 7.99754 18.1692 8.27524 18.6801C8.55293 19.1909 9.0163 19.5755 9.56954 19.7543V23.1733C9.56692 23.6868 9.68626 24.1935 9.91774 24.6519V28.1301C9.91774 28.7082 10.3852 29.1766 10.9604 29.1766H13.0467C13.6229 29.1766 14.0904 28.7091 14.0904 28.1301V26.4864C15.4956 26.6094 17.9158 26.7039 20.0021 26.7296C22.0893 26.7573 24.5086 26.6867 25.9138 26.5703V28.1301C25.9138 28.7082 26.3812 29.1766 26.9574 29.1766H29.0437C29.6199 29.1766 30.0864 28.7091 30.0864 28.1301V24.796C30.3135 24.361 30.4346 23.8573 30.4346 23.3288V19.7304C30.9867 19.5504 31.4487 19.1656 31.7255 18.6552C32.0024 18.1448 32.073 17.5477 31.9228 16.9868L31.8331 16.6501C31.8156 16.5837 31.7852 16.5215 31.7435 16.467C31.7019 16.4124 31.6498 16.3667 31.5904 16.3324C31.531 16.2981 31.4654 16.2758 31.3973 16.267C31.3293 16.2582 31.2602 16.2629 31.194 16.2809L29.2011 16.8151L28.1346 13.7443C27.5269 11.9947 26.0397 10.6191 24.1241 10.3367C22.9536 10.1641 21.4607 10 20.003 10H20.0021Z" fill="#FBB216"/>
<path d="M20 39C9.50659 39 1 30.4934 1 20H-1C-1 31.598 8.40202 41 20 41V39ZM39 20C39 30.4934 30.4934 39 20 39V41C31.598 41 41 31.598 41 20H39ZM20 1C30.4934 1 39 9.50659 39 20H41C41 8.40202 31.598 -1 20 -1V1ZM20 -1C8.40202 -1 -1 8.40202 -1 20H1C1 9.50659 9.50659 1 20 1V-1Z" fill="#43536A" fill-opacity="0.08"/>
</svg>
