<svg width="40" height="40" viewBox="0 0 40 40" fill="none" xmlns="http://www.w3.org/2000/svg">
<path d="M0 20C0 8.95431 8.95431 0 20 0C31.0457 0 40 8.95431 40 20C40 31.0457 31.0457 40 20 40C8.95431 40 0 31.0457 0 20Z" fill="url(#paint0_linear)"/>
<path d="M12.4693 21.4892L16.0202 20.9994C16.1234 21.0091 16.227 20.9858 16.3162 20.9328C16.4053 20.8799 16.4753 20.8 16.5162 20.7047C16.557 20.6094 16.5666 20.5036 16.5434 20.4026C16.5203 20.3015 16.4657 20.2104 16.3875 20.1423C15.9158 19.4576 15.6599 18.6473 15.6528 17.8159C15.6528 15.4895 17.6119 13.6528 20.0608 13.6528C22.5096 13.6528 24.3463 15.4895 24.3463 17.8159C24.3463 20.0199 22.7545 21.7341 20.673 22.1014L13.8162 23.0809C13.3264 23.0809 13.204 23.6932 13.5713 23.938L20.0608 30.4275L26.5503 24.0605C27.3424 23.2522 27.9667 22.2951 28.387 21.2443C28.8073 20.1935 29.0153 19.0699 28.9991 17.9383C28.9991 13.0406 25.0809 9 20.0608 9C15.0406 9 11 13.0406 11 17.8159C11 19.0403 11.1224 20.0199 11.4898 20.9994C11.5703 21.1825 11.7122 21.3317 11.8911 21.4211C12.07 21.5106 12.2745 21.5347 12.4693 21.4892Z" fill="white"/>
<defs>
<linearGradient id="paint0_linear" x1="20" y1="0" x2="20" y2="40" gradientUnits="userSpaceOnUse">
<stop stop-color="#2874C5"/>
<stop offset="1" stop-color="#175BA4"/>
</linearGradient>
</defs>
</svg>
