<svg width="40" height="40" viewBox="0 0 40 40" fill="none" xmlns="http://www.w3.org/2000/svg">
<path d="M0 20C0 8.95431 8.95431 0 20 0C31.0457 0 40 8.95431 40 20C40 31.0457 31.0457 40 20 40C8.95431 40 0 31.0457 0 20Z" fill="#008FBE"/>
<path fill-rule="evenodd" clip-rule="evenodd" d="M20.0717 28.5267C29.629 29.3127 35.9646 26.379 35.9646 26.379C35.9646 26.379 32.2062 29.1667 24.4187 29.854C23.3792 29.9399 22.271 29.9957 21.0897 30C16.1501 30 7.25862 29.0421 3.66338 24.1497C1.08616 20.6275 6.75606 17.3243 8.1091 16.8518C8.1091 16.8518 4.27333 19.1713 5.96141 22.4788C7.6495 25.7862 12.7052 27.9296 20.0717 28.5267ZM33.3445 20.112L33.731 21.1816L34.4011 23.1661C34.2999 23.4669 34.1644 23.7552 33.9974 24.0251C33.9566 24.0715 33.9064 24.1085 33.8501 24.1337C33.7937 24.1589 33.7326 24.1717 33.6709 24.1712C33.5866 24.1716 33.5034 24.1515 33.4285 24.1126C33.3537 24.0736 33.2895 24.0171 33.2414 23.9478L33.1641 23.9779C33.1383 24.1926 33.1039 24.4074 33.0567 24.648C33.1889 24.7201 33.3358 24.7613 33.4862 24.7682C33.6163 24.7696 33.7451 24.7433 33.8642 24.6909C33.9827 24.6254 34.0877 24.538 34.1735 24.4332C34.3029 24.2498 34.4083 24.0506 34.487 23.8404L35.0197 22.4745L35.5781 20.9797C35.8057 20.3912 35.9303 20.0691 35.9689 20.0175C35.9823 19.9846 36.0066 19.9573 36.0377 19.9402C36.1125 19.8992 36.1973 19.8799 36.2825 19.8844V19.6009C35.9732 19.6009 35.7842 19.6009 35.7112 19.6009H35.3074H35.1227V19.8844C35.2315 19.8855 35.3397 19.9 35.4449 19.9273C35.4631 19.9381 35.4778 19.9541 35.4869 19.9732C35.4961 19.9923 35.4994 20.0137 35.4964 20.0347C35.4054 20.4397 35.2804 20.8363 35.1227 21.2202L34.835 21.9805L34.5085 21.0098C34.3825 20.6943 34.2806 20.3698 34.2035 20.039C34.203 20.0174 34.2082 19.9959 34.2188 19.977C34.2294 19.9581 34.2449 19.9425 34.2637 19.9316C34.3722 19.8987 34.4853 19.8828 34.5987 19.8844V19.6009C34.268 19.6009 34.0145 19.6009 33.8341 19.6009C33.6537 19.6009 33.4046 19.6009 32.9407 19.6009V19.8844C33.0452 19.8857 33.1485 19.9061 33.2457 19.9445C33.2929 19.9938 33.3295 20.0523 33.3531 20.1163L33.3445 20.112ZM28.8987 18.4454C28.8946 18.4308 28.8875 18.4171 28.8779 18.4053C28.8683 18.3935 28.8564 18.3837 28.8429 18.3767C28.7051 18.3286 28.5591 18.3081 28.4134 18.3166V18.0159C28.7699 18.0159 29.0663 18.0374 29.324 18.0374H30.4966H31.1753C31.2698 18.0374 31.36 18.0374 31.4545 18.0374C31.7251 17.9944 31.9356 17.9472 32.0902 17.9085C32.278 17.8604 32.4607 17.7942 32.6357 17.7109L32.713 17.7882C32.683 18.6215 32.6701 19.7942 32.6701 21.289C32.6701 21.5939 32.6701 21.8903 32.6701 22.2082C32.6679 22.3225 32.6809 22.4366 32.7087 22.5475C32.7227 22.5801 32.7468 22.6072 32.7775 22.6248C32.8941 22.6534 33.014 22.6664 33.134 22.6635V22.9513H32.8204H32.3222L31.4158 22.9771V22.6463H31.6349C31.6702 22.6513 31.7062 22.6485 31.7403 22.6381C31.7745 22.6277 31.8059 22.61 31.8325 22.5862C31.8776 22.4477 31.8951 22.3018 31.884 22.1566C31.884 21.8087 31.884 21.2976 31.884 20.6533V19.1499C31.8935 18.8916 31.882 18.6331 31.8497 18.3767L31.8024 18.3123C31.7202 18.2805 31.6328 18.2645 31.5447 18.265C31.5146 18.5313 31.4974 18.8277 31.4846 19.1628H31.2311L31.2054 18.7891C31.2114 18.7121 31.1965 18.6349 31.1624 18.5657C31.097 18.5214 31.0218 18.4934 30.9433 18.4841C30.7633 18.4522 30.5806 18.4379 30.3978 18.4411C30.2217 18.4411 30.0327 18.4411 29.8351 18.4712C29.8137 18.875 29.8008 19.1585 29.8008 19.3303V20.1979H30.2303C30.4262 20.2127 30.6229 20.2127 30.8188 20.1979C30.8497 20.1875 30.8756 20.1661 30.8918 20.1378C30.9292 19.9977 30.948 19.8533 30.9476 19.7083H31.2097C31.2097 19.9102 31.2097 20.1378 31.2097 20.3225C31.2097 20.5072 31.2097 20.8251 31.2097 21.246H30.9476C30.9443 21.0656 30.9242 20.8858 30.8875 20.7091C30.8807 20.6942 30.8706 20.681 30.858 20.6706C30.8453 20.6601 30.8304 20.6527 30.8145 20.649C30.6181 20.6091 30.4176 20.5933 30.2174 20.6017H29.8222V21.9462C29.8188 22.1332 29.8332 22.3202 29.8652 22.5046C29.8753 22.5356 29.8968 22.5617 29.9253 22.5776C30.0934 22.6143 30.2645 22.6359 30.4365 22.642V22.9384C30.1186 22.9384 29.8137 22.9083 29.5259 22.9083C29.2381 22.9083 28.9073 22.9083 28.4091 22.9384V22.642C28.5552 22.6525 28.7019 22.6305 28.8386 22.5776C28.8775 22.4989 28.8967 22.4119 28.8944 22.3242C28.8944 21.8688 28.9288 21.3362 28.9288 20.7435C28.9288 20.3139 28.9288 19.8242 28.9288 19.3174C28.937 19.0264 28.9269 18.7352 28.8987 18.4454ZM25.892 18.6301C25.9237 18.7108 25.9397 18.7968 25.9392 18.8836C25.9324 19.0358 25.8865 19.1837 25.8061 19.3131C25.688 19.5011 25.5331 19.6633 25.3508 19.7899C25.2342 19.5108 25.1729 19.2118 25.1704 18.9093C25.1637 18.8319 25.1729 18.7539 25.1973 18.6801C25.2216 18.6062 25.2607 18.5381 25.3121 18.4798C25.3857 18.4064 25.4833 18.3621 25.587 18.3552C25.6496 18.358 25.7098 18.3805 25.7588 18.4197C25.8241 18.465 25.8737 18.5296 25.9006 18.6044L25.892 18.6301ZM25.514 21.4866C25.7336 21.775 25.9749 22.0464 26.2356 22.2984C26.0727 22.4429 25.8647 22.5264 25.6471 22.5346C25.5017 22.5285 25.3596 22.4894 25.2316 22.4202C25.1036 22.351 24.993 22.2535 24.9083 22.1352C24.6942 21.8787 24.5784 21.5543 24.5819 21.2202C24.5752 21.0808 24.6026 20.9418 24.6617 20.8153C24.7209 20.6888 24.8099 20.5786 24.9212 20.4943C25.0945 20.839 25.2926 21.1706 25.514 21.4866ZM25.3422 18.0503C25.1979 18.1619 25.0719 18.2952 24.9685 18.4454L24.7451 18.7203C24.6944 18.7799 24.655 18.8484 24.6291 18.9222C24.6005 19.0359 24.5875 19.1529 24.5905 19.2701C24.5993 19.5897 24.6693 19.9047 24.7967 20.1979C24.4939 20.3578 24.2311 20.5839 24.0278 20.8594C23.8998 21.0807 23.8386 21.3343 23.8517 21.5896C23.8436 21.7779 23.875 21.9658 23.9438 22.1412C24.0126 22.3166 24.1173 22.4758 24.2511 22.6084C24.385 22.741 24.545 22.8442 24.7211 22.9114C24.8971 22.9786 25.0853 23.0083 25.2734 22.9985C25.4948 23.0034 25.7151 22.9655 25.922 22.8869C26.1446 22.7962 26.3485 22.6652 26.5234 22.5003C26.8257 22.7947 27.2233 22.9714 27.6445 22.9985C27.7679 22.9971 27.8906 22.9798 28.0096 22.947C28.1833 22.6989 28.3727 22.4622 28.5766 22.2382L28.4778 21.9977C28.3766 22.0909 28.2658 22.173 28.147 22.2425C28.1104 22.2673 28.0666 22.2794 28.0225 22.2769C27.6639 22.2612 27.3189 22.1352 27.0345 21.9161C27.2919 21.6017 27.4423 21.2135 27.4641 20.8079C27.4589 20.7207 27.4445 20.6343 27.4211 20.5502C27.6058 20.5502 27.8893 20.5759 28.2802 20.606L28.3232 20.5631C28.3387 20.3904 28.3747 20.2203 28.4305 20.0562L28.3833 20.0218C28.0429 20.066 27.6999 20.0861 27.3567 20.082C27.0947 20.082 26.7983 20.082 26.4719 20.0519C26.4156 20.2 26.3481 20.3436 26.27 20.4814L26.3 20.5416C26.4258 20.5305 26.5523 20.5305 26.678 20.5416H26.8584C26.9286 20.7043 26.9637 20.8799 26.9615 21.057C26.9639 21.1632 26.9494 21.269 26.9186 21.3706C26.8774 21.4923 26.8256 21.6101 26.7639 21.7228C26.2685 21.2423 25.8433 20.6942 25.5011 20.0949C25.791 19.8979 26.0501 19.659 26.27 19.3861C26.4191 19.1917 26.4978 18.9524 26.4933 18.7074C26.4918 18.568 26.4611 18.4305 26.4031 18.3037C26.3491 18.1883 26.2625 18.0912 26.154 18.0245C26.0494 17.9594 25.9292 17.9238 25.8061 17.9214C25.6451 17.9253 25.4874 17.9681 25.3465 18.046L25.3422 18.0503ZM21.4119 17.9386V17.7882C21.4119 17.7238 21.4119 17.6937 21.3689 17.6937C21.3391 17.6999 21.3102 17.71 21.283 17.7238C21.1402 17.8024 20.9869 17.8602 20.8277 17.8956C20.6116 17.9495 20.392 17.9882 20.1705 18.0116V18.2607C20.2892 18.2556 20.408 18.2686 20.5228 18.2994C20.5548 18.3276 20.5774 18.3652 20.5872 18.4068C20.612 18.6364 20.6221 18.8674 20.6172 19.0983C20.6172 19.6696 20.6172 20.1421 20.6172 20.5029C20.6172 20.9582 20.6172 21.3964 20.6172 21.7915C20.6262 22.027 20.6133 22.2629 20.5786 22.496L20.5356 22.5604C20.414 22.6011 20.2855 22.6171 20.1576 22.6077V22.8954L21.0597 22.8697C21.1943 22.8697 21.4563 22.8783 21.8457 22.8954V22.6463C21.7221 22.6475 21.5991 22.6301 21.4806 22.5948C21.4638 22.5819 21.4498 22.5658 21.4394 22.5473C21.4291 22.5288 21.4226 22.5084 21.4205 22.4874C21.3872 22.2642 21.3742 22.0385 21.3818 21.813V21.2503C21.5579 21.4393 21.7813 21.7142 22.0562 22.075C22.2538 22.3327 22.4557 22.6162 22.6533 22.9341C22.7963 22.9258 22.9397 22.9258 23.0828 22.9341C23.2718 22.9341 23.4823 22.9341 23.7056 22.9341V22.6506C23.616 22.6466 23.5313 22.6081 23.4694 22.5432C23.3749 22.453 23.0828 22.1137 22.5759 21.4221L22.1464 20.8508C22.5759 20.4213 22.8208 20.1593 22.911 20.082C22.9689 20.0226 23.0373 19.9745 23.1129 19.9402C23.2459 19.9135 23.381 19.8977 23.5166 19.893V19.6095C23.3736 19.6179 23.2301 19.6179 23.0871 19.6095C22.9612 19.6175 22.835 19.6175 22.7091 19.6095C22.304 20.1438 21.862 20.649 21.3861 21.1215V19.9402C21.3861 18.7934 21.3861 18.1362 21.3861 17.9601L21.4119 17.9386ZM16.4335 21.4866C16.378 21.5427 16.335 21.6101 16.3076 21.6841C16.2802 21.7582 16.269 21.8373 16.2746 21.9161C16.268 22.0372 16.3028 22.1569 16.3734 22.2554C16.4041 22.2958 16.4437 22.3284 16.4892 22.3508C16.5347 22.3732 16.5848 22.3846 16.6354 22.3843C16.7355 22.3725 16.8315 22.3381 16.9163 22.2838C17.0011 22.2295 17.0725 22.1566 17.1251 22.0707V21.2117C16.8762 21.2479 16.6394 21.3421 16.4335 21.4866ZM15.5186 22.1395C15.5043 22.0063 15.5184 21.8716 15.5599 21.7443C15.6013 21.617 15.6692 21.4999 15.7592 21.4007C16.169 21.1326 16.6348 20.9621 17.1208 20.9024C17.1337 20.6916 17.0908 20.4812 16.9962 20.2924C16.9415 20.2086 16.8651 20.1412 16.7751 20.0973C16.6851 20.0534 16.5849 20.0348 16.4851 20.0433C16.4296 20.0344 16.3731 20.0344 16.3176 20.0433C16.2553 20.0621 16.1949 20.0865 16.1372 20.1163L16.0083 20.49L15.7935 20.4299V20.0004C16.0068 19.8398 16.2323 19.6962 16.4679 19.5708C16.6063 19.5253 16.7518 19.5049 16.8975 19.5107C17.0981 19.503 17.2975 19.5458 17.4773 19.6352C17.6217 19.7092 17.7378 19.8284 17.8081 19.9746C17.8917 20.1815 17.927 20.4048 17.9112 20.6275C17.9112 20.7478 17.9112 20.9496 17.9112 21.246C17.9112 21.5424 17.9112 21.7872 17.9112 21.9762C17.8988 22.1536 17.8988 22.3315 17.9112 22.5089C17.9192 22.5443 17.9389 22.576 17.967 22.5991C18.0477 22.637 18.1355 22.6575 18.2247 22.6592C18.3014 22.6563 18.3776 22.6463 18.4524 22.6291C18.4726 22.607 18.4899 22.5825 18.5039 22.5561C18.538 22.4346 18.5525 22.3085 18.5469 22.1824C18.5469 21.8431 18.5469 21.5338 18.5469 21.246C18.5469 20.7091 18.5469 20.3869 18.5469 20.2881C18.5477 20.2649 18.5435 20.2418 18.5346 20.2203C18.5257 20.1988 18.5123 20.1795 18.4953 20.1636C18.3708 20.1221 18.2399 20.1032 18.1087 20.1077V19.8414C18.4001 19.8152 18.688 19.7591 18.9678 19.6739L19.2771 19.5365C19.3029 19.5365 19.3115 19.5622 19.3115 19.6009V19.6567C19.3115 19.8071 19.3115 20.0132 19.3115 20.2924C19.4145 20.1722 19.5305 20.0304 19.6551 19.8629C19.7195 19.7634 19.8027 19.6773 19.8999 19.6095C19.9848 19.5662 20.0798 19.5469 20.1748 19.5536C20.2394 19.5536 20.3034 19.5653 20.3638 19.588C20.3638 19.82 20.3338 20.1464 20.3295 20.5459L20.2006 20.5974C20.1634 20.5239 20.1106 20.4594 20.046 20.4084C19.9776 20.3713 19.9004 20.3535 19.8226 20.3569C19.7083 20.352 19.5964 20.3903 19.509 20.4643C19.4251 20.5244 19.3656 20.6129 19.3415 20.7134C19.3135 20.95 19.3035 21.1883 19.3115 21.4264C19.3008 21.7746 19.3094 22.123 19.3372 22.4702C19.3389 22.5212 19.3587 22.5699 19.3931 22.6077C19.541 22.6576 19.6966 22.6809 19.8527 22.6764V22.9642H19.5133H18.9463H18.4309H18.2677H18.1904H18.0787H18.0357C17.9112 22.9642 17.7909 22.9642 17.6663 22.9642C17.4856 22.9635 17.3049 22.9721 17.1251 22.9899L17.095 22.9556L17.1251 22.4702L16.4937 23.02C16.3933 23.0414 16.2913 23.0543 16.1887 23.0587C16.0882 23.0586 15.9894 23.0325 15.9021 22.9828C15.8147 22.9331 15.7418 22.8616 15.6904 22.7752C15.5652 22.5877 15.5049 22.3644 15.5186 22.1395ZM12.6107 22.5003C12.6064 22.5166 12.5988 22.5318 12.5885 22.5451C12.5782 22.5584 12.5653 22.5694 12.5505 22.5776C12.4191 22.6157 12.2835 22.6373 12.1468 22.642V22.9384L13.255 22.9083C13.5041 22.9083 13.8005 22.9083 14.1613 22.9384V22.642C13.988 22.6344 13.8157 22.6129 13.6458 22.5776C13.6306 22.5679 13.6179 22.5546 13.6089 22.5388C13.6 22.5231 13.5949 22.5055 13.5943 22.4874C13.5655 22.284 13.5555 22.0784 13.5642 21.8731C13.5642 20.9668 13.5342 20.4342 13.5342 20.2581C13.5342 19.7598 13.5342 19.1542 13.5642 18.4325C13.6854 18.396 13.8113 18.3772 13.9379 18.3767C14.0486 18.3685 14.1596 18.386 14.2624 18.4277C14.3652 18.4694 14.457 18.5343 14.5307 18.6172C14.6761 18.8285 14.7443 19.0833 14.724 19.3389C14.7404 19.5814 14.6738 19.8223 14.535 20.0218C14.477 20.0989 14.4017 20.1612 14.3151 20.2038C14.2285 20.2463 14.1332 20.2678 14.0367 20.2667H13.9336C13.8913 20.2602 13.8497 20.2502 13.8091 20.2366L13.7446 20.3354L13.852 20.5716C13.9141 20.5896 13.9773 20.6039 14.041 20.6146H14.2085C14.3973 20.621 14.5852 20.5859 14.7589 20.5117C14.9326 20.4375 15.0878 20.3259 15.2137 20.1851C15.4821 19.888 15.6253 19.4986 15.6131 19.0983C15.6213 18.8898 15.5754 18.6826 15.48 18.497C15.394 18.3356 15.2542 18.2094 15.0848 18.1405C14.8298 18.0452 14.5576 18.0042 14.2859 18.0202H13.8305H12.9972H12.4904H12.1511V18.3166H12.3272C12.4194 18.3132 12.5105 18.3371 12.5892 18.3853C12.6393 18.5597 12.6611 18.7409 12.6536 18.9222C12.6536 19.2444 12.6751 19.7813 12.6751 20.5244C12.6751 20.9282 12.6751 21.3362 12.6751 21.7658C12.6777 22.0121 12.6561 22.2581 12.6107 22.5003ZM9.5051 14.7686L6.4425 15.7093C6.4425 15.7093 10.6176 15.3785 11.8633 15.2797C12.2513 15.4525 12.6818 15.5063 13.1003 15.4344C13.8869 15.378 14.6698 15.279 15.4456 15.138C15.6862 15.095 15.9696 15.0177 16.0427 14.9962C17.0343 14.6854 18.0008 14.2991 18.9335 13.8408C18.9335 13.8408 20.7504 13.7248 21.2616 13.6432C21.6911 13.4456 22.5931 12.9345 22.5931 12.9345H20.6258C21.304 12.616 21.9611 12.2544 22.5931 11.852C23.3964 11.328 23.9505 10.6021 23.6455 10.3744C23.1558 10.0093 22.1937 9.97064 21.472 10.0866C20.7504 10.2026 20.9222 10.0351 20.1276 10.3916C19.3329 10.7481 14.8915 12.8571 14.8915 12.8571C14.8915 12.8571 15.0161 12.273 14.8443 12.1054C14.7836 12.0596 14.7119 12.0307 14.6365 12.0217C14.561 12.0126 14.4845 12.0237 14.4147 12.0539C14.3272 12.0911 14.2437 12.1372 14.1656 12.1914L13.2464 12.9774L11.5282 12.0453L10.6691 12.7755L8.69327 12.8614L7.68816 13.4327H7.86427L8.07474 13.3296L10.5832 13.2781L11.8719 14.1973L11.7645 14.4507L9.48792 14.7815L9.5051 14.7686ZM34.9595 10.6923V11.1218H35.1142C35.286 11.1218 35.3762 11.0488 35.3762 10.9113C35.3789 10.8808 35.3736 10.85 35.3608 10.8222C35.348 10.7943 35.3281 10.7702 35.3032 10.7524C35.2372 10.7132 35.1603 10.6966 35.0841 10.7052L34.9595 10.6923ZM35.7413 11.925L35.5566 11.5385C35.4707 11.3709 35.3934 11.2807 35.316 11.2636C35.416 11.2481 35.5072 11.1979 35.5738 11.1218C35.6329 11.0476 35.6634 10.9546 35.6597 10.8598C35.6612 10.8033 35.6491 10.7473 35.6245 10.6964C35.5998 10.6456 35.5632 10.6014 35.5179 10.5677C35.3979 10.4906 35.2567 10.4531 35.1142 10.4603H34.6846V11.9336H34.9509V11.328H35.0325C35.1185 11.328 35.1872 11.4139 35.2602 11.5814L35.3977 11.9207L35.7413 11.925ZM35.1571 10.2069C35.0322 10.2046 34.9084 10.2295 34.7941 10.2799C34.6799 10.3304 34.578 10.4051 34.4956 10.499C34.4066 10.5905 34.3364 10.6987 34.2893 10.8174C34.2421 10.936 34.2188 11.0628 34.2207 11.1905C34.2183 11.4482 34.317 11.6965 34.4956 11.8821C34.58 11.9728 34.6825 12.0449 34.7964 12.0938C34.9103 12.1426 35.0332 12.167 35.1571 12.1656C35.2813 12.169 35.4048 12.1454 35.519 12.0964C35.6332 12.0475 35.7354 11.9744 35.8186 11.8821C35.9073 11.7905 35.9769 11.6822 36.0233 11.5635C36.0698 11.4448 36.0922 11.318 36.0892 11.1905C36.0929 11.063 36.0708 10.936 36.0243 10.8172C35.9778 10.6984 35.9079 10.5901 35.8186 10.499C35.735 10.4075 35.6326 10.3351 35.5184 10.287C35.4042 10.2388 35.281 10.2158 35.1571 10.2198V10.2069ZM35.1571 12.3546C35.0067 12.356 34.8577 12.3262 34.7194 12.267C34.5812 12.2079 34.4567 12.1207 34.3539 12.0109C34.2452 11.9024 34.1595 11.773 34.1019 11.6306C34.0443 11.4881 34.0161 11.3356 34.0188 11.1819C34.0165 11.0277 34.0449 10.8746 34.1024 10.7315C34.1599 10.5885 34.2454 10.4583 34.3539 10.3486C34.4567 10.2386 34.5811 10.1509 34.7193 10.0909C34.8575 10.0309 35.0065 10 35.1571 10C35.3077 10 35.4568 10.0309 35.5949 10.0909C35.7331 10.1509 35.8575 10.2386 35.9604 10.3486C36.0729 10.4603 36.1618 10.5936 36.2216 10.7405C36.2814 10.8874 36.3109 11.0448 36.3083 11.2034C36.3089 11.3585 36.2785 11.5122 36.2187 11.6553C36.159 11.7985 36.0711 11.9281 35.9604 12.0367C35.8568 12.1453 35.7321 12.2314 35.594 12.2898C35.4558 12.3481 35.3071 12.3775 35.1571 12.3761V12.3546Z" fill="white"/>
</svg>
