<svg width="40" height="40" viewBox="0 0 40 40" fill="none" xmlns="http://www.w3.org/2000/svg">
<path d="M0 20C0 8.95431 8.95431 0 20 0C31.0457 0 40 8.95431 40 20C40 31.0457 31.0457 40 20 40C8.95431 40 0 31.0457 0 20Z" fill="#56B7BB"/>
<path fill-rule="evenodd" clip-rule="evenodd" d="M9 17.0758H13.025C13.025 14.8492 14.8397 13.0355 17.0654 13.0355H18.0009V24.9258C18.0009 29.3846 21.6174 33 26.068 33V28.9706C23.8438 28.9706 22.0321 27.154 22.0321 24.9258V13.0355H26.9783V9H17.0654C12.6114 9 9 12.6204 9 17.0758" fill="white"/>
</svg>
