<svg width="26" height="24" viewBox="0 0 26 24" fill="none" xmlns="http://www.w3.org/2000/svg">
<path d="M19.1045 21.6182H13.81L15.2526 13.3228H17.1047C18.4214 13.3228 19.3494 12.4056 19.7704 11.5927L20.7245 9.68518H7.42273L6.78158 13.3228H11.0164L9.29845 23.0684H6.61875C5.31103 23.0684 4.38939 22.0634 4.25073 20.7271L3.23686 12.0379H1.37576C-0.0305536 12.0379 -0.370843 10.4771 0.410868 9.82829L11.7492 0.459222C12.1079 0.162403 12.5589 0 13.0245 0C13.49 0 13.941 0.162403 14.2997 0.459222L25.6374 9.82829C26.4197 10.4771 25.8619 12.0379 24.6731 12.0379H22.7879L21.3873 19.607C21.1895 20.7029 20.5731 21.6182 19.1045 21.6182Z" fill="#EF3131"/>
<path d="M7.42336 9.68518L6.78222 13.3228H11.0171L9.29908 23.0684H6.61875C5.31103 23.0684 4.38938 22.0634 4.25072 20.7271L3.23686 12.0379H1.37576C-0.0305535 12.0379 -0.370842 10.4771 0.410868 9.8283L11.7492 0.459222C12.1079 0.162403 12.5589 0 13.0245 0C13.49 0 13.941 0.162403 14.2997 0.459222L14.8162 0.88665L13.2623 9.68518H7.42336Z" fill="#A01E1E"/>
</svg>
