<svg class="svg" viewBox="0 0 241 40" xmlns="http://www.w3.org/2000/svg">
  <defs>
    <clipPath id="clip" clipPathUnits="objectBoundingBox">
      <path
        d="M0.07,0.044 C0.07,0.02,0.073,0,0.077,0 C0.081,0,0.084,0.02,0.084,0.044 V0.956 C0.084,0.98,0.081,1,0.077,1 C0.073,1,0.07,0.98,0.07,0.956 V0.044 M0.164,0.151 C0.164,0.126,0.167,0.106,0.171,0.106 C0.175,0.106,0.178,0.126,0.178,0.151 V0.85 C0.178,0.874,0.175,0.894,0.171,0.894 C0.167,0.894,0.164,0.874,0.164,0.85 V0.151 M0.211,0.257 C0.211,0.232,0.214,0.212,0.218,0.212 C0.222,0.212,0.225,0.232,0.225,0.257 V0.743 C0.225,0.768,0.222,0.788,0.218,0.788 C0.214,0.788,0.211,0.768,0.211,0.743 V0.257 M0.258,0.363 C0.258,0.338,0.261,0.318,0.265,0.318 C0.269,0.318,0.272,0.338,0.272,0.363 V0.637 C0.272,0.662,0.269,0.682,0.265,0.682 C0.261,0.682,0.258,0.662,0.258,0.637 V0.363 M0,0.469 C0,0.445,0.003,0.425,0.007,0.425 C0.01,0.425,0.013,0.445,0.013,0.469 V0.531 C0.013,0.555,0.01,0.575,0.007,0.575 C0.003,0.575,0,0.555,0,0.531 V0.469 M0.023,0.363 C0.023,0.338,0.027,0.318,0.03,0.318 C0.034,0.318,0.037,0.338,0.037,0.363 V0.637 C0.037,0.662,0.034,0.682,0.03,0.682 C0.026,0.682,0.023,0.662,0.023,0.637 V0.363 M0.117,0.363 C0.117,0.338,0.12,0.318,0.124,0.318 C0.128,0.318,0.131,0.338,0.131,0.363 V0.637 C0.131,0.662,0.128,0.682,0.124,0.682 C0.12,0.682,0.117,0.662,0.117,0.637 V0.363 M0.305,0.469 C0.305,0.445,0.308,0.425,0.312,0.425 C0.316,0.425,0.319,0.445,0.319,0.469 V0.531 C0.319,0.555,0.316,0.575,0.312,0.575 C0.308,0.575,0.305,0.555,0.305,0.531 V0.469 M0.352,0.363 C0.352,0.338,0.355,0.318,0.359,0.318 C0.363,0.318,0.366,0.338,0.366,0.363 V0.637 C0.366,0.662,0.363,0.682,0.359,0.682 C0.355,0.682,0.352,0.662,0.352,0.637 V0.363 M0.446,0.363 C0.446,0.338,0.449,0.318,0.453,0.318 C0.457,0.318,0.46,0.338,0.46,0.363 V0.637 C0.46,0.662,0.457,0.682,0.453,0.682 C0.449,0.682,0.446,0.662,0.446,0.637 V0.363 M0.399,0.257 C0.399,0.232,0.402,0.212,0.406,0.212 C0.41,0.212,0.413,0.232,0.413,0.257 V0.743 C0.413,0.768,0.41,0.788,0.406,0.788 C0.402,0.788,0.399,0.768,0.399,0.743 V0.257 M0.493,0.044 C0.493,0.02,0.496,0,0.5,0 C0.504,0,0.507,0.02,0.507,0.044 V0.956 C0.507,0.98,0.504,1,0.5,1 C0.496,1,0.493,0.98,0.493,0.956 V0.044 M0.54,0.151 C0.54,0.126,0.543,0.106,0.547,0.106 C0.551,0.106,0.554,0.126,0.554,0.151 V0.85 C0.554,0.874,0.551,0.894,0.547,0.894 C0.543,0.894,0.54,0.874,0.54,0.85 V0.151 M0.634,0.363 C0.634,0.338,0.637,0.318,0.641,0.318 C0.645,0.318,0.648,0.338,0.648,0.363 V0.637 C0.648,0.662,0.645,0.682,0.641,0.682 C0.637,0.682,0.634,0.662,0.634,0.637 V0.363 M0.681,0.469 C0.681,0.445,0.684,0.425,0.688,0.425 C0.692,0.425,0.695,0.445,0.695,0.469 V0.531 C0.695,0.555,0.692,0.575,0.688,0.575 C0.684,0.575,0.681,0.555,0.681,0.531 V0.469 M0.587,0.469 C0.587,0.445,0.59,0.425,0.594,0.425 C0.598,0.425,0.601,0.445,0.601,0.469 V0.531 C0.601,0.555,0.598,0.575,0.594,0.575 C0.59,0.575,0.587,0.555,0.587,0.531 V0.469 M0.728,0.409 C0.728,0.384,0.731,0.364,0.735,0.364 C0.739,0.364,0.742,0.384,0.742,0.409 V0.591 C0.742,0.616,0.739,0.636,0.735,0.636 C0.731,0.636,0.728,0.616,0.728,0.591 V0.409 M0.775,0.349 C0.775,0.324,0.778,0.304,0.782,0.304 C0.786,0.304,0.789,0.324,0.789,0.349 V0.652 C0.789,0.676,0.786,0.696,0.782,0.696 C0.778,0.696,0.775,0.676,0.775,0.652 V0.349 M0.822,0.288 C0.822,0.264,0.825,0.244,0.829,0.244 C0.833,0.244,0.836,0.264,0.836,0.288 V0.712 C0.836,0.737,0.833,0.757,0.829,0.757 C0.825,0.757,0.822,0.737,0.822,0.712 V0.288 M0.869,0.228 C0.869,0.203,0.872,0.183,0.876,0.183 C0.88,0.183,0.883,0.203,0.883,0.228 V0.772 C0.883,0.797,0.88,0.817,0.876,0.817 C0.872,0.817,0.869,0.797,0.869,0.772 V0.228 M0.047,0.257 C0.047,0.232,0.05,0.212,0.054,0.212 C0.057,0.212,0.06,0.232,0.06,0.257 V0.743 C0.06,0.768,0.057,0.788,0.054,0.788 C0.05,0.788,0.047,0.768,0.047,0.743 V0.257 M0.094,0.151 C0.094,0.126,0.097,0.106,0.101,0.106 C0.104,0.106,0.107,0.126,0.107,0.151 V0.85 C0.107,0.874,0.104,0.894,0.101,0.894 C0.097,0.894,0.094,0.874,0.094,0.85 V0.151 M0.141,0.044 C0.141,0.02,0.144,0,0.148,0 C0.151,0,0.154,0.02,0.154,0.044 V0.956 C0.154,0.98,0.151,1,0.148,1 C0.144,1,0.141,0.98,0.141,0.956 V0.044 M0.235,0.151 C0.235,0.126,0.238,0.106,0.242,0.106 C0.245,0.106,0.248,0.126,0.248,0.151 V0.85 C0.248,0.874,0.245,0.894,0.242,0.894 C0.238,0.894,0.235,0.874,0.235,0.85 V0.151 M0.188,0.257 C0.188,0.232,0.191,0.212,0.195,0.212 C0.198,0.212,0.201,0.232,0.201,0.257 V0.743 C0.201,0.768,0.198,0.788,0.195,0.788 C0.191,0.788,0.188,0.768,0.188,0.743 V0.257 M0.282,0.363 C0.282,0.338,0.285,0.318,0.289,0.318 C0.292,0.318,0.295,0.338,0.295,0.363 V0.637 C0.295,0.662,0.292,0.682,0.289,0.682 C0.285,0.682,0.282,0.662,0.282,0.637 V0.363 M0.329,0.469 C0.329,0.445,0.332,0.425,0.336,0.425 C0.339,0.425,0.342,0.445,0.342,0.469 V0.531 C0.342,0.555,0.339,0.575,0.336,0.575 C0.332,0.575,0.329,0.555,0.329,0.531 V0.469 M0.376,0.409 C0.376,0.384,0.379,0.364,0.383,0.364 C0.386,0.364,0.389,0.384,0.389,0.409 V0.591 C0.389,0.616,0.386,0.636,0.383,0.636 C0.379,0.636,0.376,0.616,0.376,0.591 V0.409 M0.47,0.409 C0.47,0.384,0.473,0.364,0.477,0.364 C0.48,0.364,0.483,0.384,0.483,0.409 V0.591 C0.483,0.616,0.48,0.636,0.477,0.636 C0.473,0.636,0.47,0.616,0.47,0.591 V0.409 M0.423,0.349 C0.423,0.324,0.426,0.304,0.43,0.304 C0.433,0.304,0.436,0.324,0.436,0.349 V0.652 C0.436,0.676,0.433,0.696,0.43,0.696 C0.426,0.696,0.423,0.676,0.423,0.652 V0.349 M0.517,0.228 C0.517,0.203,0.52,0.183,0.523,0.183 C0.527,0.183,0.53,0.203,0.53,0.228 V0.772 C0.53,0.797,0.527,0.817,0.523,0.817 C0.52,0.817,0.517,0.797,0.517,0.772 V0.228 M0.564,0.288 C0.564,0.264,0.567,0.244,0.57,0.244 C0.574,0.244,0.577,0.264,0.577,0.288 V0.712 C0.577,0.737,0.574,0.757,0.57,0.757 C0.567,0.757,0.564,0.737,0.564,0.712 V0.288 M0.611,0.349 C0.611,0.324,0.614,0.304,0.617,0.304 C0.621,0.304,0.624,0.324,0.624,0.349 V0.652 C0.624,0.676,0.621,0.696,0.617,0.696 C0.614,0.696,0.611,0.676,0.611,0.652 V0.349 M0.658,0.409 C0.658,0.384,0.661,0.364,0.664,0.364 C0.668,0.364,0.671,0.384,0.671,0.409 V0.591 C0.671,0.616,0.668,0.636,0.664,0.636 C0.661,0.636,0.658,0.616,0.658,0.591 V0.409 M0.705,0.469 C0.705,0.445,0.708,0.425,0.711,0.425 C0.715,0.425,0.718,0.445,0.718,0.469 V0.531 C0.718,0.555,0.715,0.575,0.711,0.575 C0.708,0.575,0.705,0.555,0.705,0.531 V0.469 M0.752,0.363 C0.752,0.338,0.755,0.318,0.758,0.318 C0.762,0.318,0.765,0.338,0.765,0.363 V0.637 C0.765,0.662,0.762,0.682,0.758,0.682 C0.755,0.682,0.752,0.662,0.752,0.637 V0.363 M0.846,0.363 C0.846,0.338,0.849,0.318,0.852,0.318 C0.856,0.318,0.859,0.338,0.859,0.363 V0.637 C0.859,0.662,0.856,0.682,0.852,0.682 C0.849,0.682,0.846,0.662,0.846,0.637 V0.363 M0.799,0.257 C0.799,0.232,0.802,0.212,0.805,0.212 C0.809,0.212,0.812,0.232,0.812,0.257 V0.743 C0.812,0.768,0.809,0.788,0.805,0.788 C0.802,0.788,0.799,0.768,0.799,0.743 V0.257 M0.893,0.044 C0.893,0.02,0.896,0,0.899,0 C0.903,0,0.906,0.02,0.906,0.044 V0.956 C0.906,0.98,0.903,1,0.899,1 C0.896,1,0.893,0.98,0.893,0.956 V0.044 M0.94,0.257 C0.94,0.232,0.943,0.212,0.946,0.212 C0.95,0.212,0.953,0.232,0.953,0.257 V0.743 C0.953,0.768,0.95,0.788,0.946,0.788 C0.943,0.788,0.94,0.768,0.94,0.743 V0.257 M0.963,0.363 C0.963,0.338,0.966,0.318,0.97,0.318 C0.974,0.318,0.977,0.338,0.977,0.363 V0.637 C0.977,0.662,0.973,0.682,0.97,0.682 C0.966,0.682,0.963,0.662,0.963,0.637 V0.363 M0.916,0.363 C0.916,0.338,0.919,0.318,0.923,0.318 C0.927,0.318,0.93,0.338,0.93,0.363 V0.637 C0.93,0.662,0.926,0.682,0.923,0.682 C0.919,0.682,0.916,0.662,0.916,0.637 V0.363 M0.987,0.469 C0.987,0.445,0.99,0.425,0.993,0.425 C0.997,0.425,1,0.445,1,0.469 V0.531 C1,0.555,0.997,0.575,0.993,0.575 C0.99,0.575,0.987,0.555,0.987,0.531 V0.469"></path>
    </clipPath>
  </defs>
</svg>
